<svg xmlns="http://www.w3.org/2000/svg" width="323" height="324" viewBox="0 0 323 324"><g><g opacity=".1" transform="rotate(90 174 4755)"><path fill="#e7e7e7" d="M30.009-164l288.993 310.569-16.998 18.293L336 201.397l-33.996 36.534-33.997-36.534-33.996 36.534 33.996 36.535L234.011 311l-33.996-36.534-17.022 18.267L-106-17.862zm152.984 383.664l68.016-73.095-221.024-237.5-67.992 73.069zM29.985-54.397L64.03-17.862 29.985 18.724-4.011-17.862zM81.004.431L115 36.966 81.004 73.5 47.007 36.966zm16.998 91.336l33.996-36.534 33.996 36.534-33.996 36.535-34.02-36.535zm84.991 18.267l34.02 36.535-34.02 36.56-33.997-36.56z"/></g></g></svg>