<svg id="Layer_1" data-name="Layer 1" xmlns="http://www.w3.org/2000/svg" viewBox="0 0 261 49"><defs><style>.cls-1{fill:#d7b46a;}.cls-2{fill:#d6b36a;}</style></defs><title>logoArtboard 5</title><path class="cls-1" d="M63.14,20.59c-.35,0-.76,0-1.1,0h-.78c-.3,0-.82,0-1.23,0s-.38.15-.38.28a.26.26,0,0,0,.28.25,2.33,2.33,0,0,1,.4,0c.32.07.4.18.43.59s0,.78,0,2.8v2.3c0,1.21,0,2.27-.06,2.8s-.12.55-.25.57a1.72,1.72,0,0,1-.35.05.26.26,0,0,0-.28.25c0,.13.07.28.39.28s.84,0,1.11,0h.29c.28,0,.9,0,1.45,0,.35,0,.38-.21.38-.28a.26.26,0,0,0-.28-.25l-.56-.05c-.24,0-.32-.16-.36-.57s-.06-1.59-.06-2.8V21.39a1.57,1.57,0,0,1,.49-.06h.06a2.06,2.06,0,0,1,1.6.6A2.55,2.55,0,0,1,65,23.81a2,2,0,0,1-2.08,2c-.23,0-.53,0-.53.29a.27.27,0,0,0,.29.26,1.32,1.32,0,0,0,.3,0,3.18,3.18,0,0,0,3.38-3.27,2.45,2.45,0,0,0-.7-1.68A3.32,3.32,0,0,0,63.14,20.59Z"/><path class="cls-1" d="M77.92,30.26a2.79,2.79,0,0,1-.48,0A2.53,2.53,0,0,1,76,29.34c-.66-.71-1.43-1.7-2.33-2.85l-.27-.35a4.16,4.16,0,0,0,1.52-3,2.44,2.44,0,0,0-1-1.91,4.12,4.12,0,0,0-2.48-.61l-1.1,0H69.7c-.28,0-.86,0-1.3,0s-.38.15-.38.28a.26.26,0,0,0,.27.25,2.37,2.37,0,0,1,.41,0c.32.07.4.18.43.59s0,.78,0,2.8v2.3c0,1.21,0,2.27-.06,2.8s-.12.55-.25.57a1.72,1.72,0,0,1-.35.05.26.26,0,0,0-.28.25c0,.13.07.28.38.28s1,0,1.18,0H70c.28,0,.9,0,1.45,0,.36,0,.38-.21.38-.28a.25.25,0,0,0-.27-.25L71,30.21c-.23,0-.31-.16-.36-.57s-.06-1.59-.06-2.8v-.25l1.55,0c.11.14.29.38.49.67l.93,1.26.17.21a5.86,5.86,0,0,0,1.65,1.75,2.82,2.82,0,0,0,1.47.27h.93c.17,0,.48,0,.48-.28A.27.27,0,0,0,77.92,30.26Zm-6.58-8.91c1.31,0,2.09.91,2.09,2.44a2.23,2.23,0,0,1-.72,1.86,1.52,1.52,0,0,1-.88.22,3.56,3.56,0,0,1-1.29-.19h0l0-4.26A4.61,4.61,0,0,1,71.34,21.35Z"/><path class="cls-1" d="M82.8,20.41a5.2,5.2,0,0,0-5.3,5.27A5,5,0,0,0,82.72,31a5.26,5.26,0,0,0,5.38-5.5C88.1,22.44,86,20.41,82.8,20.41Zm.28,9.72c-2.36,0-4-2-4-4.82,0-2.57,1.36-4.11,3.63-4.11,1.83,0,3.79,1.45,3.79,4.63C86.5,29.92,83.65,30.13,83.08,30.13Z"/><path class="cls-1" d="M109.71,28.68c-.23,0-.27.23-.29.34-.09.55-.25.71-.48.81a3.72,3.72,0,0,1-1.19.13c-1.27,0-1.33-.21-1.33-.9V25.77c.35,0,1.45,0,1.76.07s.5.22.53.33a1.26,1.26,0,0,1,0,.38.27.27,0,0,0,.27.29c.26,0,.26-.32.26-.42a10.57,10.57,0,0,1,.14-1.39c0-.1,0-.16,0-.17,0-.2-.12-.28-.24-.28s-.21.09-.32.23-.21.1-.5.12-1.13,0-2,0v-3.5l1,0h.41c.67,0,1,.21,1,.33a1.14,1.14,0,0,1,.11.42c0,.3.22.32.26.32s.22,0,.28-.28,0-.37,0-.6,0-.22,0-.27a2.19,2.19,0,0,1,.08-.44,1.81,1.81,0,0,0,0-.19.29.29,0,0,0-.25-.32.38.38,0,0,0-.18.06l0,0-.54,0c-.19,0-1.44,0-2.93,0h-.17c-.29,0-.87,0-1.31,0s-.38.15-.38.28a.26.26,0,0,0,.28.25,2.54,2.54,0,0,1,.41,0c.33.08.37.19.41.46s0,.73,0,2.93v2.3a26.68,26.68,0,0,1-.08,2.95c-.08.38-.13.39-.24.43a1.51,1.51,0,0,1-.34,0,.29.29,0,0,0-.19.07.32.32,0,0,0-.2-.07,2.67,2.67,0,0,1-.48,0,2.53,2.53,0,0,1-1.49-.88c-.66-.71-1.44-1.7-2.33-2.85l-.28-.35a4.12,4.12,0,0,0,1.52-3,2.46,2.46,0,0,0-1-1.91,4.17,4.17,0,0,0-2.49-.61l-1.1,0h-.6c-.29,0-.87,0-1.31,0s-.38.15-.38.28a.26.26,0,0,0,.28.25,2.54,2.54,0,0,1,.41,0c.32.07.4.18.42.59s0,.78,0,2.8v2.3c0,1.21,0,2.27-.07,2.8s-.11.55-.24.57a1.91,1.91,0,0,1-.36.05.25.25,0,0,0-.27.25c0,.13.06.28.38.28s1,0,1.17,0H96c.29,0,.9,0,1.46,0,.35,0,.38-.21.38-.28a.26.26,0,0,0-.28-.25L97,30.21c-.24,0-.32-.16-.36-.57s-.07-1.59-.07-2.8v-.25l1.56,0c.11.14.28.38.49.67s.61.85.93,1.26l.16.21a5.86,5.86,0,0,0,1.65,1.75,2.87,2.87,0,0,0,1.48.27h.92a.66.66,0,0,0,.39-.09.46.46,0,0,0,.31.09l.59,0,.69,0,.49,0c.5,0,1.35.06,2.72.06.52,0,.75,0,.88-.47.06-.28.17-1.18.17-1.31S109.88,28.68,109.71,28.68ZM97.34,21.35c1.3,0,2.08.91,2.08,2.44a2.23,2.23,0,0,1-.72,1.86,1.52,1.52,0,0,1-.88.22,3.49,3.49,0,0,1-1.28-.19h0l0-4.26A4.65,4.65,0,0,1,97.34,21.35Z"/><path class="cls-1" d="M120.37,28.08c-.24,0-.28.23-.3.34a2.24,2.24,0,0,1-.44,1,2.93,2.93,0,0,1-2.14.6,4.53,4.53,0,0,1-4.53-4.6c0-2.85,1.27-4.18,4-4.18.89,0,3,.18,3,1.9,0,.14,0,.45.27.45s.31-.38.31-1a11.64,11.64,0,0,1,.07-1.25c0-.13,0-.23,0-.27a.31.31,0,0,0-.34-.32,5,5,0,0,1-.76-.1,13.64,13.64,0,0,0-2.46-.25,5.6,5.6,0,0,0-4.4,1.75,5.21,5.21,0,0,0-1.21,3.37c0,3.41,2.26,5.44,6,5.44a7.81,7.81,0,0,0,2.42-.31.62.62,0,0,0,.43-.49,13,13,0,0,0,.29-1.72C120.63,28.1,120.42,28.08,120.37,28.08Z"/><path class="cls-1" d="M138,28.68c-.22,0-.26.23-.28.34-.1.55-.25.71-.49.81A3.63,3.63,0,0,1,136,30c-1.28,0-1.34-.21-1.34-.9V25.77c.36,0,1.46,0,1.77.07s.49.22.53.33a1.3,1.3,0,0,1,0,.38.27.27,0,0,0,.26.29c.27,0,.27-.32.27-.42a10.82,10.82,0,0,1,.13-1.39.88.88,0,0,0,0-.17c0-.2-.11-.28-.23-.28s-.21.09-.33.23-.2.1-.5.12-1.13,0-2,0v-3.5l1,0h.41c.67,0,.95.21,1,.33a1.1,1.1,0,0,1,.1.42c0,.3.22.32.27.32s.22,0,.27-.28a5.93,5.93,0,0,0,.05-.6c0-.12,0-.22,0-.27a3.7,3.7,0,0,1,.07-.44.74.74,0,0,0,0-.19c0-.18-.1-.32-.25-.32a.38.38,0,0,0-.17.06l-.05,0-.54,0c-.2,0-1.45,0-2.94,0h-.17c-.29,0-.86,0-1.3,0s-.38.15-.38.28a.26.26,0,0,0,.27.25,2.37,2.37,0,0,1,.41,0c.33.08.38.19.41.46s0,.73,0,2.93v2.3a25.11,25.11,0,0,1-.09,2.95c-.08.38-.13.39-.23.43a1.51,1.51,0,0,1-.34,0,.27.27,0,0,0-.19.07.35.35,0,0,0-.21-.07,2.79,2.79,0,0,1-.48,0,2.53,2.53,0,0,1-1.49-.88c-.66-.71-1.43-1.7-2.33-2.85l-.27-.35a4.16,4.16,0,0,0,1.52-3,2.44,2.44,0,0,0-1-1.91,4.12,4.12,0,0,0-2.48-.61l-1.1,0H124c-.29,0-.86,0-1.3,0s-.38.15-.38.28a.26.26,0,0,0,.27.25,2.37,2.37,0,0,1,.41,0c.32.07.4.18.43.59s0,.78,0,2.8v2.3c0,1.21,0,2.27-.06,2.8s-.12.55-.25.57a1.72,1.72,0,0,1-.35.05.26.26,0,0,0-.28.25c0,.13.07.28.38.28s1,0,1.18,0h.2c.28,0,.9,0,1.45,0,.36,0,.38-.21.38-.28a.25.25,0,0,0-.27-.25l-.57-.05c-.23,0-.31-.16-.36-.57s-.06-1.59-.06-2.8v-.25l1.55,0c.11.14.29.38.49.67l.93,1.26.17.21a5.86,5.86,0,0,0,1.65,1.75,2.8,2.8,0,0,0,1.47.27H132a.7.7,0,0,0,.39-.09.44.44,0,0,0,.3.09l.6,0,.68,0,.49,0c.51,0,1.36.06,2.73.06.51,0,.75,0,.87-.47a11.83,11.83,0,0,0,.18-1.31C138.24,28.81,138.15,28.68,138,28.68Zm-12.37-7.33c1.31,0,2.09.91,2.09,2.44a2.2,2.2,0,0,1-.73,1.86,1.47,1.47,0,0,1-.87.22,3.51,3.51,0,0,1-1.29-.19h0l0-4.26A4.61,4.61,0,0,1,125.61,21.35Z"/><path class="cls-1" d="M148.5,30.26a1.41,1.41,0,0,1-.47-.07c-.16-.05-.53-.15-1-1.35-.57-1.42-1.78-4.58-2.5-6.46L144,21c-.15-.38-.24-.58-.45-.58s-.29.19-.45.62l-3,8.09c-.24.66-.47,1.05-.95,1.12l-.36,0a.27.27,0,0,0-.29.25c0,.18.14.28.42.28s.88,0,1.18,0h.62l.69,0c.34,0,.37-.21.37-.28s-.08-.25-.3-.25h-.13c-.09,0-.33,0-.33-.21a2.6,2.6,0,0,1,.18-.81l.74-2.3h2.77L146,30.13s0,0,0,.12a.26.26,0,0,0-.19.25c0,.23.25.25.5.26h.06c.58,0,1.31,0,2.05,0,.38,0,.44-.18.44-.28S148.79,30.26,148.5,30.26Zm-4.05-4.13h-2.16l1-3.19Z"/><path class="cls-1" d="M156.7,20.5a2.19,2.19,0,0,0-.3.05l-.1,0a7.91,7.91,0,0,1-.89.06h-4.88c-.14,0-.63,0-1-.06a1,1,0,0,1-.39-.11.73.73,0,0,0-.2-.05c-.17,0-.23.19-.29.38,0,0-.3,1.22-.3,1.39s.12.29.24.29a.32.32,0,0,0,.29-.23,2,2,0,0,1,.21-.38c.15-.22.35-.32,1.19-.34l1.75,0v5.34c0,1.21,0,2.27-.06,2.8s-.12.55-.25.57a1.82,1.82,0,0,1-.35.05.26.26,0,0,0-.28.25c0,.13.07.28.38.28l1.07,0h.36c.29,0,.9,0,1.45,0,.36,0,.38-.21.38-.28a.25.25,0,0,0-.27-.25l-.57-.05c-.23,0-.31-.16-.36-.57s-.06-1.59-.06-2.8V21.5l1.47,0c1.36,0,1.41.4,1.43.56v.14c0,.13,0,.38.28.38s.26-.08.26-.34c0-.05,0-.21,0-.41s0-.78,0-1S156.81,20.5,156.7,20.5Z"/><path class="cls-1" d="M161.76,30.26l-.56-.05c-.24,0-.32-.16-.36-.57s-.06-1.59-.06-2.8v-2.3c0-2,0-2.39,0-2.8s.13-.54.35-.59l.29,0a.25.25,0,0,0,.27-.25c0-.13-.06-.28-.38-.28l-1.06,0h-.41l-1.12,0c-.32,0-.38.15-.38.28a.26.26,0,0,0,.28.25,1.24,1.24,0,0,1,.36.05c.14,0,.28.1.31.57s0,.78,0,2.8v2.3c0,1.21,0,2.27-.07,2.8s-.11.55-.24.57a1.91,1.91,0,0,1-.36.05.25.25,0,0,0-.27.25c0,.13.06.28.38.28l1.06,0h.37c.28,0,.9,0,1.45,0,.35,0,.38-.21.38-.28A.26.26,0,0,0,161.76,30.26Z"/><path class="cls-1" d="M168.89,20.41a5.2,5.2,0,0,0-5.3,5.27A5,5,0,0,0,168.81,31a5.26,5.26,0,0,0,5.38-5.5C174.19,22.44,172.06,20.41,168.89,20.41Zm.28,9.72c-2.36,0-4-2-4-4.82,0-2.57,1.36-4.11,3.63-4.11,1.83,0,3.79,1.45,3.79,4.63C172.59,29.92,169.74,30.13,169.17,30.13Z"/><path class="cls-1" d="M186,20.59c-.36,0-.67,0-.88,0h-.51c-.27,0-.68,0-1.08,0-.11,0-.43,0-.43.26a.25.25,0,0,0,.28.27,3.19,3.19,0,0,1,.59.06c.25.06.37.19.38,1.07l.13,6.17-.83-.91c-.59-.64-1.3-1.43-2-2.16-2-2.16-3.94-4.25-4.14-4.47l-.11-.12c-.2-.22-.32-.35-.47-.35-.32,0-.32.42-.32.82V28.7c0,1.1-.06,1.43-.27,1.49a1.79,1.79,0,0,1-.48.07.26.26,0,0,0-.28.25c0,.18.13.28.38.28.41,0,.8,0,1,0a2.67,2.67,0,0,1,.4,0c.24,0,.66,0,1.19,0,.34,0,.41-.15.41-.28a.25.25,0,0,0-.28-.25,2.6,2.6,0,0,1-.6-.07c-.23-.07-.36-.3-.38-1.35l-.16-5.77c.63.7,1.85,2.05,3.09,3.39S183.9,29.87,184,30c.77.77.89.88,1.07.88s.29-.26.29-1.1l0-7.63c0-.81.07-.94.36-1a1.07,1.07,0,0,1,.27,0,.28.28,0,0,0,.31-.27C186.36,20.59,186.06,20.59,186,20.59Z"/><path class="cls-1" d="M201,28.08c-.24,0-.28.23-.3.34a2.49,2.49,0,0,1-.44,1,2.93,2.93,0,0,1-2.14.6,4.52,4.52,0,0,1-4.53-4.6c0-2.85,1.27-4.18,4-4.18.9,0,3,.18,3,1.9,0,.14,0,.45.28.45s.3-.38.3-1,.05-1,.07-1.25a1.72,1.72,0,0,0,0-.27.3.3,0,0,0-.34-.32,5.27,5.27,0,0,1-.76-.1,13.44,13.44,0,0,0-2.46-.25,5.61,5.61,0,0,0-4.4,1.75,5.25,5.25,0,0,0-1.2,3.37c0,3.41,2.26,5.44,6.05,5.44a7.79,7.79,0,0,0,2.41-.31.65.65,0,0,0,.44-.49,14.9,14.9,0,0,0,.29-1.72C201.29,28.1,201.07,28.08,201,28.08Z"/><path class="cls-1" d="M207.9,20.41a5.2,5.2,0,0,0-5.31,5.27A5,5,0,0,0,207.82,31a5.26,5.26,0,0,0,5.37-5.5C213.19,22.44,211.06,20.41,207.9,20.41Zm.27,9.72c-2.35,0-4-2-4-4.82,0-2.57,1.36-4.11,3.64-4.11,1.82,0,3.79,1.45,3.79,4.63C211.6,29.92,208.74,30.13,208.17,30.13Z"/><path class="cls-1" d="M227.42,30.26a2.62,2.62,0,0,1-.79-.11c-.43-.14-.53-.71-.59-1.23l-.87-8c0-.17,0-.5-.33-.5s-.31.21-.35.31l-3.68,7.85L217,20.71c-.05-.1-.14-.3-.36-.3s-.29.28-.31.39l-.94,8.49v.05c-.05.52-.1.83-.37.88a1.38,1.38,0,0,1-.36,0c-.18,0-.3.1-.3.24s0,.29.39.29l.81,0h.51l1,0c.33,0,.4-.16.4-.29a.25.25,0,0,0-.27-.24,2,2,0,0,1-.46-.06.25.25,0,0,1-.2-.24c0-.21,0-.44,0-.65l.47-5.48c.45,1,1.4,3,1.5,3.21l.09.2c.29.57,1.14,2.29,1.43,2.83l0,.05c.26.51.34.64.53.64s.28-.14.49-.59l3.05-6.47.57,6.17a1.06,1.06,0,0,1,0,.3.26.26,0,0,0-.15.24c0,.25.3.28.52.3.5,0,1.92.08,2.19.08s.45-.22.45-.29S227.69,30.26,227.42,30.26Z"/><path class="cls-1" d="M232.05,20.59c-.35,0-.76,0-1.1,0h-.78c-.3,0-.82,0-1.23,0s-.38.15-.38.28a.26.26,0,0,0,.28.25,2.33,2.33,0,0,1,.4,0c.32.07.4.18.43.59s0,.78,0,2.8v2.3c0,1.21,0,2.27-.06,2.8s-.12.55-.25.57a1.72,1.72,0,0,1-.35.05.26.26,0,0,0-.28.25c0,.13.07.28.39.28s.84,0,1.11,0h.29c.28,0,.9,0,1.45,0,.35,0,.38-.21.38-.28a.26.26,0,0,0-.28-.25l-.56-.05c-.24,0-.32-.16-.36-.57s-.06-1.59-.06-2.8V21.39a1.57,1.57,0,0,1,.49-.06h.06a2.08,2.08,0,0,1,1.6.6,2.55,2.55,0,0,1,.68,1.88,2,2,0,0,1-2.08,2c-.23,0-.53,0-.53.29a.27.27,0,0,0,.29.26,1.32,1.32,0,0,0,.3,0,3.18,3.18,0,0,0,3.38-3.27,2.45,2.45,0,0,0-.7-1.68A3.32,3.32,0,0,0,232.05,20.59Z"/><path class="cls-1" d="M243.21,28.63c-.11,0-.25.06-.29.32a1.57,1.57,0,0,1-.3.7c-.25.3-.73.32-1.44.32-1,0-1.28-.09-1.44-.25a7.92,7.92,0,0,1-.24-2.86V24.54c0-2,0-2.39,0-2.8s.12-.54.36-.58a2.41,2.41,0,0,1,.4,0,.26.26,0,0,0,.28-.25c0-.13-.07-.28-.38-.28l-1.17,0h-.41c-.28,0-.86,0-1.3,0s-.38.15-.38.28a.26.26,0,0,0,.28.25,2.33,2.33,0,0,1,.4,0c.32.07.4.18.43.59s0,.78,0,2.8v2.3c0,1.21,0,2.27-.06,2.8s-.12.55-.25.57a1.72,1.72,0,0,1-.35.05.26.26,0,0,0-.28.25c0,.13.07.28.38.28l.75,0h.53l1,0c.61,0,1.36,0,2.51,0,.69,0,.86,0,1-.48a8.44,8.44,0,0,0,.2-1.35C243.46,28.9,243.46,28.63,243.21,28.63Z"/><path class="cls-1" d="M250.51,28.68c-.22,0-.27.23-.29.34-.09.55-.24.71-.48.81a3.69,3.69,0,0,1-1.18.13c-1.28,0-1.34-.21-1.34-.9V25.77c.35,0,1.45,0,1.76.07s.5.22.53.33a1,1,0,0,1,.05.38.27.27,0,0,0,.26.29c.27,0,.27-.32.27-.42a10.82,10.82,0,0,1,.13-1.39c0-.1,0-.16,0-.17,0-.2-.12-.28-.24-.28s-.2.09-.32.23-.2.1-.5.12-1.13,0-2,0v-3.5l1,0h.41c.67,0,1,.21,1,.33a1.1,1.1,0,0,1,.1.42c0,.3.22.32.26.32s.23,0,.28-.28,0-.37.05-.6a1.56,1.56,0,0,1,0-.27,3.7,3.7,0,0,1,.07-.44.74.74,0,0,0,0-.19.29.29,0,0,0-.25-.32.42.42,0,0,0-.18.06l0,0-.55,0c-.19,0-1.44,0-2.93,0h-.17c-.29,0-.86,0-1.3,0s-.39.15-.39.28a.26.26,0,0,0,.28.25,2.37,2.37,0,0,1,.41,0c.33.08.38.19.41.46s0,.73,0,2.93v2.3a25.11,25.11,0,0,1-.09,2.95c-.08.38-.13.39-.24.43a1.41,1.41,0,0,1-.33,0,.26.26,0,0,0-.28.25c0,.13.07.28.38.28l.6,0,.68,0,.49,0c.51,0,1.36.06,2.73.06.51,0,.74,0,.87-.47a11.52,11.52,0,0,0,.17-1.31C250.76,28.81,250.68,28.68,250.51,28.68Z"/><path class="cls-1" d="M260.55,30.26a1.88,1.88,0,0,1-.41-.07,1.31,1.31,0,0,1-.68-.53c-.2-.25-1.53-2.49-2.24-3.7l-.44-.74,2-3.06,0,0c.35-.52.58-.86.89-1a1.42,1.42,0,0,1,.38-.05.28.28,0,0,0,.31-.27s0-.26-.38-.26-.63,0-.86,0h-.46c-.24,0-.6,0-.93,0s-.4.2-.4.26a.26.26,0,0,0,.29.27,1.42,1.42,0,0,1,.34,0,.17.17,0,0,1,.1.07.77.77,0,0,1-.11.39c-.12.24-1.24,2.05-1.75,2.82-.55-.91-1-1.78-1.62-2.88a.74.74,0,0,1-.11-.34c0-.05,0-.05.05-.06a1,1,0,0,1,.29,0,.26.26,0,0,0,.29-.27c0-.26-.29-.26-.4-.26l-.95,0h-.65l-1.15,0c-.09,0-.39,0-.39.26a.27.27,0,0,0,.29.27,1.93,1.93,0,0,1,.49.08c.37.13.62.46.93,1l2,3.41-2.31,3.64c-.43.67-.66.9-1,1a2.07,2.07,0,0,1-.45.06.25.25,0,0,0-.27.26.26.26,0,0,0,.3.27l.92,0h.63l.89,0c.24,0,.33-.14.33-.27a.26.26,0,0,0-.28-.26l-.21,0s-.08,0-.08-.08a1.13,1.13,0,0,1,.15-.49l1.88-3.2c.66,1.11,1.4,2.38,2.1,3.63,0,.07,0,.11,0,.11a.27.27,0,0,0-.21.27c0,.24.21.25.57.28h.14l2,0c.26,0,.36-.15.36-.28A.26.26,0,0,0,260.55,30.26Z"/><path class="cls-2" d="M46.3,24.71A22.1,22.1,0,1,1,24.2,2.61a22.12,22.12,0,0,1,22.1,22.1m1.61,0A23.71,23.71,0,1,0,24.2,48.41a23.74,23.74,0,0,0,23.71-23.7m-3.74-.25H4.08v.59H44.17Zm-2.69,7.22a2,2,0,0,1-2,1.4c-1.21,0-2.21-.78-2.21-2.65s1-2.48,2.21-2.48A2,2,0,0,1,41.38,29l1.45-.33a3.52,3.52,0,0,0-3.37-1.95,3.52,3.52,0,0,0-3.8,3.67,3.53,3.53,0,0,0,3.8,3.75,3.59,3.59,0,0,0,3.44-2ZM29.55,30.2h2.3a1.07,1.07,0,0,0,1.2-1.09A1.05,1.05,0,0,0,31.85,28h-2.3Zm1.86,1.09H29.55V34H28V26.85h3.67c1.81,0,3,.62,3,2.28a2,2,0,0,1-1.73,1.92l2,3H33.26ZM25.27,29.2A1.19,1.19,0,0,0,24.07,28H22.18v2.37h1.89a1.19,1.19,0,0,0,1.2-1.18m1.57,0a2.52,2.52,0,0,1-2.77,2.36H22.18V34H20.6V26.85h3.47c1.33,0,2.77.68,2.77,2.36m-12.1,1.22A2.17,2.17,0,0,0,12.49,28a2.17,2.17,0,0,0-2.26,2.48c0,1.87,1,2.65,2.26,2.65s2.25-.78,2.25-2.65m1.61,0a3.56,3.56,0,0,1-3.86,3.75,3.56,3.56,0,0,1-3.87-3.75,3.55,3.55,0,0,1,3.87-3.67,3.55,3.55,0,0,1,3.86,3.67m5.19-13.12h-.69l-2,5.48h.7l1.78-5h2.17v5h.7V17.31h-2.7Zm21.06,0H39.07v5.48h.7v-5H42.6Zm-5.68,2.38H33.27V17.31h-.7v5.48h.7V20.18h3.65v2.61h.7V17.31h-.7ZM6.83,17.31h-.7v5.48h.7v-5h3.64v5h.7V17.31H6.83Zm23.59,0h-.25l-3.74,4.61V17.31h-.7v5.48h.7l4-4.92v4.92h.7V17.31h-.7Zm-13.12,0h-.25l-3.74,4.61V17.31h-.7v5.48h.7l4-4.92v4.92H18V17.31h-.7ZM7.41,34H5.84v-7.2H7.41Z"/></svg>