<svg id="Layer_1" data-name="Layer 1" xmlns="http://www.w3.org/2000/svg" viewBox="0 0 561 104"><defs><style>.cls-1{fill:#d7b46a;}.cls-2{fill:#d6b36a;}</style></defs><title>logoArtboard 6</title><path class="cls-1" d="M135.82,43c-.77,0-1.65,0-2.37.06l-1.15,0-.52,0c-.66,0-1.75-.07-2.64-.07-.68,0-.82.32-.82.59a.56.56,0,0,0,.59.54,5.5,5.5,0,0,1,.88.07c.69.15.86.38.91,1.26s.06,1.67.06,6v4.92c0,2.61,0,4.87-.14,6-.12.87-.25,1.18-.53,1.23a3.45,3.45,0,0,1-.76.1.55.55,0,0,0-.59.54c0,.27.14.59.82.59s1.82,0,2.38-.07h.62c.61,0,1.93.07,3.12.07.75,0,.81-.45.81-.59a.54.54,0,0,0-.59-.54c-.23,0-.82,0-1.21-.1s-.68-.34-.77-1.22c-.14-1.15-.14-3.41-.14-6V44.9a1.78,1.78,0,0,1,0-.2,3.07,3.07,0,0,1,1.05-.14H135a4.38,4.38,0,0,1,3.44,1.29,5.52,5.52,0,0,1,1.46,4,4.29,4.29,0,0,1-4.47,4.19c-.5,0-1.12,0-1.12.62a.57.57,0,0,0,.6.55,4,4,0,0,0,.66,0c4.26,0,7.24-2.89,7.24-7a5.16,5.16,0,0,0-1.51-3.59C140.82,44.27,139.46,43,135.82,43Z"/><path class="cls-1" d="M167.52,63.73a7.24,7.24,0,0,1-1-.07,5.53,5.53,0,0,1-3.2-1.91c-1.41-1.51-3.07-3.63-5-6.09l-.59-.77c2.21-2.12,3.25-4.2,3.25-6.5a5.31,5.31,0,0,0-2.08-4.1,9,9,0,0,0-5.33-1.3c-.55,0-1.59,0-2.37.06l-.93,0-.36,0c-.62,0-1.85-.07-2.8-.07-.67,0-.81.32-.81.59a.55.55,0,0,0,.59.54,5.47,5.47,0,0,1,.87.07c.69.15.86.38.91,1.26s.06,1.67.06,6v4.92c0,2.61,0,4.87-.14,6-.12.87-.25,1.18-.52,1.23a3.52,3.52,0,0,1-.76.1.54.54,0,0,0-.59.54c0,.27.14.59.81.59s2.09-.06,2.52-.08h.43c.61,0,1.93.07,3.12.07.75,0,.81-.45.81-.59a.54.54,0,0,0-.59-.54c-.23,0-.83,0-1.21-.1s-.68-.34-.77-1.22c-.14-1.15-.14-3.41-.14-6v-.53l3.34.08c.23.3.6.81,1,1.4.6.83,1.33,1.84,2,2.73l.36.47c1.42,1.87,2.36,3.11,3.54,3.74a5.93,5.93,0,0,0,3.16.58h2c.36,0,1,0,1-.59A.58.58,0,0,0,167.52,63.73ZM153.4,44.62c2.8,0,4.47,2,4.47,5.23a4.8,4.8,0,0,1-1.55,4,3.28,3.28,0,0,1-1.89.46,7.49,7.49,0,0,1-2.76-.4h0l0-9.13A8.44,8.44,0,0,1,153.4,44.62Z"/><path class="cls-1" d="M178,42.6c-8.3,0-11.38,6.93-11.38,11.3,0,5.47,3.5,11.35,11.21,11.35,6.67,0,11.52-5,11.52-11.8C189.32,47,184.76,42.6,178,42.6Zm.58,20.86c-5.05,0-8.58-4.26-8.58-10.34,0-5.53,2.92-8.83,7.8-8.83,3.92,0,8.13,3.11,8.13,9.94C185.9,63,179.78,63.46,178.55,63.46Z"/><path class="cls-1" d="M235.65,60.35c-.48,0-.57.49-.61.73-.2,1.17-.53,1.52-1,1.73a7.87,7.87,0,0,1-2.54.28c-2.75,0-2.88-.46-2.88-1.92V54.1c.76,0,3.11.06,3.79.14,1,.09,1.08.48,1.14.72a2.37,2.37,0,0,1,.1.81.56.56,0,0,0,.56.62c.56,0,.56-.68.56-.9a24.17,24.17,0,0,1,.29-3c0-.2,0-.33,0-.36a.52.52,0,0,0-.51-.59c-.27,0-.43.19-.69.48s-.44.22-1.07.27c-.45,0-2.43.06-4.22.06V44.85c.48,0,1.44,0,2.16,0l.88,0c1.44,0,2,.44,2.15.71a2.69,2.69,0,0,1,.22.91c0,.49.3.67.56.67s.48-.06.59-.59c0-.21.06-.69.1-1.29,0-.26,0-.48,0-.57a7.27,7.27,0,0,1,.16-.94,1.85,1.85,0,0,0,.07-.41c0-.4-.23-.68-.54-.68a.81.81,0,0,0-.38.12l-.1.06c-.08,0-.65.07-1.16.1s-3.2.06-6.3.06l-.36,0c-.62,0-1.85-.07-2.8-.07-.67,0-.81.32-.81.59a.55.55,0,0,0,.59.54,5.37,5.37,0,0,1,.87.07c.72.16.82.4.89,1s.08,1.58.08,6.31v4.92a53.58,53.58,0,0,1-.19,6.32c-.17.83-.28.86-.51.93a2.39,2.39,0,0,1-.72.09.63.63,0,0,0-.41.15.67.67,0,0,0-.42-.15,7.24,7.24,0,0,1-1-.07,5.51,5.51,0,0,1-3.2-1.91c-1.41-1.51-3.07-3.63-5-6.09l-.6-.77c2.22-2.12,3.26-4.2,3.26-6.5a5.31,5.31,0,0,0-2.08-4.1,9,9,0,0,0-5.33-1.3c-.55,0-1.59,0-2.37.06l-.93,0-.36,0c-.62,0-1.85-.07-2.8-.07-.67,0-.81.32-.81.59a.55.55,0,0,0,.59.54,5.47,5.47,0,0,1,.87.07c.69.15.86.38.91,1.26s.06,1.67.06,6v4.92c0,2.61,0,4.87-.14,6-.12.87-.25,1.18-.53,1.23a3.37,3.37,0,0,1-.75.1.54.54,0,0,0-.59.54c0,.27.14.59.81.59s2.09-.06,2.52-.08h.43c.61,0,1.93.07,3.12.07.75,0,.81-.45.81-.59a.54.54,0,0,0-.59-.54c-.23,0-.83,0-1.21-.1s-.68-.34-.77-1.22c-.14-1.15-.14-3.41-.14-6v-.53l3.34.08c.23.3.6.81,1,1.41.61.83,1.33,1.83,2,2.72l.36.47c1.42,1.87,2.36,3.11,3.54,3.74a5.93,5.93,0,0,0,3.16.58h2a1.41,1.41,0,0,0,.84-.18.94.94,0,0,0,.63.18l1.28,0c.53,0,1.09,0,1.46,0l1.06,0c1.09,0,2.9.13,5.85.13,1.09,0,1.59,0,1.86-1a25,25,0,0,0,.38-2.8C236.19,60.94,236.19,60.35,235.65,60.35ZM209.13,44.62c2.8,0,4.47,2,4.47,5.23a4.8,4.8,0,0,1-1.55,4,3.28,3.28,0,0,1-1.89.46,7.49,7.49,0,0,1-2.76-.4h0l0-9.13A8.44,8.44,0,0,1,209.13,44.62Z"/><path class="cls-1" d="M258.52,59.07c-.51,0-.6.48-.64.72a5,5,0,0,1-.94,2.15c-1.1,1.14-2.86,1.29-4.6,1.29a9.7,9.7,0,0,1-9.73-9.86c0-6.12,2.73-9,8.58-9,1.93,0,6.4.39,6.4,4.08,0,.31,0,1,.59,1s.65-.8.65-2.13a26.68,26.68,0,0,1,.15-2.69c0-.28,0-.48,0-.58a.64.64,0,0,0-.73-.67,12.29,12.29,0,0,1-1.62-.22,29.65,29.65,0,0,0-5.28-.54c-4.06,0-7.33,1.3-9.44,3.76a11.24,11.24,0,0,0-2.59,7.23c0,7.3,4.85,11.66,13,11.66a16.52,16.52,0,0,0,5.18-.67,1.29,1.29,0,0,0,.93-1,28.47,28.47,0,0,0,.63-3.68C259.08,59.1,258.61,59.07,258.52,59.07Z"/><path class="cls-1" d="M296.27,60.35c-.48,0-.57.49-.61.73-.2,1.17-.53,1.52-1,1.73a7.87,7.87,0,0,1-2.54.28c-2.75,0-2.88-.46-2.88-1.92V54.1c.76,0,3.11.06,3.79.14,1,.09,1.08.48,1.14.72a2.37,2.37,0,0,1,.1.81.56.56,0,0,0,.56.62c.56,0,.56-.68.56-.9a24.17,24.17,0,0,1,.29-3c0-.2.05-.33.05-.36a.52.52,0,0,0-.51-.59c-.26,0-.43.19-.69.48s-.44.22-1.07.27c-.45,0-2.43.06-4.22.06V44.85c.48,0,1.45,0,2.16,0l.88,0c1.44,0,2,.44,2.15.71a2.69,2.69,0,0,1,.22.91c0,.49.3.67.56.67s.48-.06.59-.59c0-.21.07-.69.1-1.29,0-.26,0-.48,0-.57,0-.44.12-.74.16-.94a1.85,1.85,0,0,0,.07-.41c0-.4-.23-.68-.54-.68a.81.81,0,0,0-.38.12l-.09.06c-.09,0-.66.07-1.17.1s-3.2.06-6.3.06l-.36,0c-.62,0-1.85-.07-2.8-.07-.67,0-.81.32-.81.59a.55.55,0,0,0,.59.54,5.61,5.61,0,0,1,.88.07c.71.16.81.4.88,1s.08,1.58.08,6.31v4.92a53.58,53.58,0,0,1-.19,6.32c-.17.83-.28.86-.51.93a2.39,2.39,0,0,1-.72.09.63.63,0,0,0-.41.15.67.67,0,0,0-.42-.15,7.24,7.24,0,0,1-1-.07,5.53,5.53,0,0,1-3.2-1.91c-1.41-1.51-3.07-3.63-5-6.09l-.6-.77c2.21-2.12,3.25-4.2,3.25-6.5a5.31,5.31,0,0,0-2.08-4.1,9,9,0,0,0-5.33-1.3c-.55,0-1.59,0-2.37.06l-.93,0-.36,0c-.62,0-1.85-.07-2.8-.07-.67,0-.81.32-.81.59a.55.55,0,0,0,.59.54,5.37,5.37,0,0,1,.87.07c.69.15.86.38.91,1.26s.06,1.67.06,6v4.92c0,2.61,0,4.87-.14,6-.12.87-.25,1.18-.52,1.23a3.52,3.52,0,0,1-.76.1.54.54,0,0,0-.59.54c0,.27.14.59.81.59s2.09-.06,2.52-.08h.43c.61,0,1.93.07,3.12.07.75,0,.81-.45.81-.59a.54.54,0,0,0-.59-.54c-.23,0-.83,0-1.21-.1s-.68-.34-.77-1.22c-.14-1.15-.14-3.41-.14-6v-.53l3.34.08c.23.3.6.81,1,1.41.61.83,1.33,1.83,2,2.72l.35.47c1.42,1.87,2.36,3.11,3.54,3.74a5.93,5.93,0,0,0,3.16.58h2a1.41,1.41,0,0,0,.84-.18,1,1,0,0,0,.63.18l1.28,0c.53,0,1.09,0,1.46,0l1.06,0c1.09,0,2.9.13,5.85.13,1.09,0,1.59,0,1.86-1a25,25,0,0,0,.38-2.8C296.81,60.94,296.81,60.35,296.27,60.35ZM269.75,44.62c2.8,0,4.47,2,4.47,5.23a4.8,4.8,0,0,1-1.55,4,3.28,3.28,0,0,1-1.89.46,7.53,7.53,0,0,1-2.76-.4h0l0-9.13A8.44,8.44,0,0,1,269.75,44.62Z"/><path class="cls-1" d="M318.83,63.73a3.18,3.18,0,0,1-1-.15c-.34-.1-1.13-.32-2.16-2.89-1.23-3-3.81-9.8-5.36-13.83-.6-1.58-1-2.72-1.16-3-.32-.84-.5-1.24-.95-1.24s-.63.41-1,1.33l-6.35,17.36c-.5,1.41-1,2.26-2.05,2.39a6.91,6.91,0,0,1-.76,0,.56.56,0,0,0-.62.54c0,.39.3.59.9.59.89,0,1.88,0,2.53-.06.3,0,.53,0,.63,0l.69,0c.49,0,1.08,0,1.49,0,.73,0,.78-.45.78-.59s0-.54-.64-.54h-.28c-.27,0-.7-.12-.7-.44a5.78,5.78,0,0,1,.37-1.75l1.61-4.93h5.95l2.59,6.84a.77.77,0,0,1,0,.26.56.56,0,0,0-.39.53c0,.5.53.53,1.05.56h.14c1.25,0,2.81.06,4.4.06.8,0,.92-.37.92-.59S319.43,63.73,318.83,63.73Zm-8.7-8.86h-4.64L307.72,48Z"/><path class="cls-1" d="M336.41,42.8a3.52,3.52,0,0,0-.65.1l-.21,0a13.41,13.41,0,0,1-1.91.14H323.16c-.34,0-1.4-.06-2.18-.14a2.25,2.25,0,0,1-.85-.22,1,1,0,0,0-.41-.12c-.37,0-.5.41-.64.81,0,0-.62,2.63-.62,3s.25.61.5.61a.67.67,0,0,0,.62-.5,5.18,5.18,0,0,1,.44-.8c.33-.49.77-.71,2.56-.74l3.76,0V56.39c0,2.61,0,4.87-.13,6-.12.87-.26,1.18-.53,1.23a4.07,4.07,0,0,1-.76.1.54.54,0,0,0-.59.54c0,.27.14.59.81.59s1.67,0,2.29-.07h.77c.61,0,1.93.07,3.12.07.76,0,.81-.45.81-.59a.54.54,0,0,0-.59-.54c-.22,0-.82,0-1.21-.1s-.68-.34-.77-1.22c-.14-1.15-.14-3.41-.14-6V44.93l3.15,0c2.93.07,3,.85,3.08,1.21l0,.3c0,.26.06.81.59.81.26,0,.56-.19.56-.73,0-.11,0-.45,0-.88,0-.71.05-1.67.05-2.19S336.64,42.8,336.41,42.8Z"/><path class="cls-1" d="M347.25,63.73c-.23,0-.83,0-1.21-.1s-.68-.34-.77-1.22c-.14-1.15-.14-3.41-.14-6V51.47c0-4.35,0-5.14.05-6s.28-1.17.75-1.26a3.61,3.61,0,0,1,.62-.07.55.55,0,0,0,.59-.54c0-.27-.14-.59-.81-.59s-1.67,0-2.29.07l-.45,0-.43,0c-.62,0-1.73-.07-2.4-.07s-.81.32-.81.59a.55.55,0,0,0,.59.54,3.48,3.48,0,0,1,.79.1c.29.07.6.22.66,1.23s.06,1.67.06,6v4.92c0,2.61,0,4.87-.14,6-.12.87-.25,1.18-.53,1.23a3.45,3.45,0,0,1-.76.1.54.54,0,0,0-.58.54c0,.27.14.59.81.59s1.67,0,2.28-.07h.78c.61,0,1.93.07,3.12.07.75,0,.81-.45.81-.59A.54.54,0,0,0,347.25,63.73Z"/><path class="cls-1" d="M362.54,42.6c-8.29,0-11.38,6.93-11.38,11.3,0,5.47,3.51,11.35,11.21,11.35,6.68,0,11.52-5,11.52-11.8C373.89,47,369.33,42.6,362.54,42.6Zm.59,20.86c-5.05,0-8.58-4.26-8.58-10.34,0-5.53,2.91-8.83,7.79-8.83,3.92,0,8.14,3.11,8.14,9.94C370.48,63,364.35,63.46,363.13,63.46Z"/><path class="cls-1" d="M399.12,43c-.76,0-1.42,0-1.88.06l-.49,0-.59,0c-.59,0-1.47-.07-2.32-.07-.25,0-.92,0-.92.57a.53.53,0,0,0,.59.56,6.76,6.76,0,0,1,1.28.13c.54.14.78.4.81,2.3l.29,13.25c-.47-.51-1.09-1.18-1.79-2-1.26-1.38-2.8-3.07-4.27-4.64-4.33-4.64-8.47-9.11-8.9-9.6l-.23-.25c-.42-.46-.69-.75-1-.75-.68,0-.68.9-.68,1.77l0,16c0,2.36-.13,3.08-.59,3.21a3.58,3.58,0,0,1-1,.14.54.54,0,0,0-.59.54c0,.39.27.59.81.59.88,0,1.71,0,2.23-.07h.85c.53,0,1.42.07,2.57.07.72,0,.87-.32.87-.59a.54.54,0,0,0-.59-.54,5.66,5.66,0,0,1-1.3-.15c-.49-.14-.77-.65-.82-2.9l-.34-12.39c1.35,1.52,4,4.42,6.63,7.28,3,3.22,7,7.33,7.31,7.59,1.66,1.66,1.92,1.9,2.3,1.9.62,0,.62-.55.62-2.35L398,46.32c0-1.74.15-2,.76-2.13a2.17,2.17,0,0,1,.58-.07.61.61,0,0,0,.68-.56C400,43,399.34,43,399.12,43Z"/><path class="cls-1" d="M431.43,59.07c-.51,0-.59.48-.64.72a4.89,4.89,0,0,1-.93,2.15c-1.11,1.14-2.87,1.29-4.6,1.29a9.7,9.7,0,0,1-9.73-9.86c0-6.12,2.73-9,8.58-9,1.92,0,6.4.39,6.4,4.08,0,.31,0,1,.59,1s.64-.8.64-2.13a26.14,26.14,0,0,1,.16-2.69c0-.28,0-.48,0-.58a.64.64,0,0,0-.73-.67,12.39,12.39,0,0,1-1.63-.22,29.42,29.42,0,0,0-5.27-.54c-4.06,0-7.33,1.3-9.44,3.76a11.18,11.18,0,0,0-2.59,7.23c0,7.3,4.85,11.66,13,11.66a16.52,16.52,0,0,0,5.18-.67,1.31,1.31,0,0,0,.93-1,30.35,30.35,0,0,0,.63-3.68C432,59.1,431.53,59.07,431.43,59.07Z"/><path class="cls-1" d="M446.16,42.6c-8.29,0-11.38,6.93-11.38,11.3,0,5.47,3.51,11.35,11.21,11.35,6.68,0,11.52-5,11.52-11.8C457.51,47,453,42.6,446.16,42.6Zm.59,20.86c-5.05,0-8.58-4.26-8.58-10.34,0-5.53,2.91-8.83,7.8-8.83,3.91,0,8.13,3.11,8.13,9.94C454.1,63,448,63.46,446.75,63.46Z"/><path class="cls-1" d="M488,63.73a5.77,5.77,0,0,1-1.7-.23c-.92-.3-1.13-1.53-1.26-2.65L483.2,43.69c0-.38-.12-1.09-.7-1.09s-.66.45-.75.66l-7.9,16.86-8.21-16.88c-.1-.21-.29-.64-.75-.64s-.64.61-.68.83l-2,18.23v.1c-.11,1.11-.23,1.79-.81,1.9a3.62,3.62,0,0,1-.77.07c-.38,0-.65.22-.65.51s.08.62.84.62c.49,0,1.21,0,1.74-.06l.61,0c.07,0,.25,0,.49,0,.54,0,1.4.06,2.11.06s.87-.34.87-.62a.55.55,0,0,0-.59-.51,4.5,4.5,0,0,1-1-.13.52.52,0,0,1-.43-.5c0-.47,0-1,0-1.4l1-11.77c1,2.13,3,6.47,3.21,6.9l.1.2c2.08,4.18,2.88,5.73,3.18,6.29l.05.1c.57,1.09.73,1.38,1.14,1.38s.59-.29,1.05-1.27l6.55-13.89,1.23,13.24a2.41,2.41,0,0,1,0,.66.55.55,0,0,0-.32.51c0,.54.65.6,1.12.64,1.07.09,4.11.17,4.7.17.88,0,.95-.47.95-.62S488.59,63.73,488,63.73Z"/><path class="cls-1" d="M498,43c-.76,0-1.65,0-2.37.06l-1.15,0-.52,0c-.66,0-1.75-.07-2.64-.07-.67,0-.81.32-.81.59a.55.55,0,0,0,.58.54,5.5,5.5,0,0,1,.88.07c.69.15.86.38.91,1.26s.06,1.67.06,6v4.92c0,2.61,0,4.87-.14,6-.12.87-.25,1.18-.53,1.23a3.45,3.45,0,0,1-.76.1.55.55,0,0,0-.59.54c0,.27.14.59.82.59s1.82,0,2.38-.07h.62c.61,0,1.93.07,3.12.07.75,0,.81-.45.81-.59a.54.54,0,0,0-.59-.54c-.23,0-.82,0-1.21-.1s-.68-.34-.77-1.22c-.14-1.15-.14-3.41-.14-6V44.9a.91.91,0,0,1,0-.2,3,3,0,0,1,1-.14h.13a4.38,4.38,0,0,1,3.44,1.29,5.52,5.52,0,0,1,1.46,4,4.29,4.29,0,0,1-4.47,4.19c-.5,0-1.12,0-1.12.62a.57.57,0,0,0,.6.55,4.08,4.08,0,0,0,.66,0c4.26,0,7.24-2.89,7.24-7a5.16,5.16,0,0,0-1.51-3.59C503,44.27,501.59,43,498,43Z"/><path class="cls-1" d="M521.88,60.24c-.25,0-.55.12-.62.67a3.45,3.45,0,0,1-.65,1.5c-.54.66-1.58.71-3.1.71-2.14,0-2.75-.2-3.09-.54s-.51-3.17-.51-6.14v-5c0-4.35,0-5.14.06-6s.25-1.16.78-1.25a5.53,5.53,0,0,1,.86-.08.55.55,0,0,0,.59-.54c0-.27-.14-.59-.81-.59s-1.81,0-2.51.07l-.51,0-.36,0c-.62,0-1.85-.07-2.8-.07-.67,0-.81.32-.81.59a.55.55,0,0,0,.59.54,5.37,5.37,0,0,1,.87.07c.69.15.86.38.91,1.26s.06,1.67.06,6v4.92c0,2.61,0,4.87-.14,6-.11.87-.25,1.18-.52,1.23a3.52,3.52,0,0,1-.76.1.54.54,0,0,0-.59.54c0,.27.14.59.81.59.43,0,1.05,0,1.59-.06l1,0h.19c.63,0,1.29,0,2.09,0,1.31,0,2.93.11,5.4.11,1.46,0,1.83-.09,2.12-1a18.84,18.84,0,0,0,.43-2.89C522.41,60.81,522.41,60.24,521.88,60.24Z"/><path class="cls-1" d="M537.53,60.35c-.48,0-.57.49-.62.73-.2,1.17-.53,1.52-1,1.73a7.84,7.84,0,0,1-2.54.28c-2.74,0-2.87-.46-2.87-1.92V54.1c.76,0,3.11.06,3.79.14,1,.09,1.07.48,1.14.72a2.61,2.61,0,0,1,.09.81.56.56,0,0,0,.56.62c.57,0,.57-.68.57-.9a22.37,22.37,0,0,1,.29-3,3.46,3.46,0,0,0,0-.36c0-.41-.25-.59-.5-.59s-.44.19-.7.48-.44.22-1.07.27c-.44,0-2.43.06-4.21.06V44.85c.49,0,1.45,0,2.16,0l.88,0c1.44,0,2,.44,2.16.71a2.64,2.64,0,0,1,.21.91.59.59,0,0,0,.57.67c.14,0,.48-.06.58-.59,0-.21.07-.69.11-1.29,0-.26,0-.48,0-.57.05-.44.12-.74.16-.94a1.85,1.85,0,0,0,.07-.41c0-.4-.22-.68-.53-.68a.81.81,0,0,0-.38.12l-.1.06c-.09,0-.66.07-1.17.1s-3.2.06-6.29.06l-.37,0c-.61,0-1.84-.07-2.79-.07-.68,0-.82.32-.82.59a.56.56,0,0,0,.59.54,5.5,5.5,0,0,1,.88.07c.71.16.81.4.88,1s.09,1.58.09,6.31v4.92a56.14,56.14,0,0,1-.19,6.32c-.17.83-.28.86-.51.93a2.5,2.5,0,0,1-.73.09.55.55,0,0,0-.59.54c0,.27.14.59.82.59l1.28,0c.53,0,1.08,0,1.46,0l1.05,0c1.09,0,2.91.13,5.85.13,1.1,0,1.6,0,1.87-1a27.25,27.25,0,0,0,.37-2.8C538.06,60.94,538.06,60.35,537.53,60.35Z"/><path class="cls-1" d="M559.05,63.73a3.75,3.75,0,0,1-.87-.15,2.67,2.67,0,0,1-1.47-1.13c-.42-.54-3.24-5.29-4.76-7.85l-1-1.67,4.37-6.57,0-.08c.74-1.1,1.23-1.83,1.92-2a2.54,2.54,0,0,1,.8-.12.6.6,0,0,0,.67-.56c0-.1,0-.57-.81-.57s-1.36,0-1.85.06l-.5,0-.49,0c-.51,0-1.28-.07-2-.07s-.84.4-.84.57a.56.56,0,0,0,.62.56,2.92,2.92,0,0,1,.73.07.34.34,0,0,1,.21.15,1.84,1.84,0,0,1-.24.85c-.24.51-2.66,4.39-3.76,6-1.16-1.93-2.21-3.81-3.47-6.17a1.74,1.74,0,0,1-.24-.75c0-.09,0-.11.1-.13a2.35,2.35,0,0,1,.63-.06.56.56,0,0,0,.62-.56c0-.57-.61-.57-.85-.57-.63,0-1.47,0-2,.06l-.58,0-.82,0c-.8,0-1.94-.06-2.45-.06-.21,0-.84,0-.84.57a.57.57,0,0,0,.61.56,4.8,4.8,0,0,1,1.06.17c.8.29,1.33,1,2,2.08l4.36,7.33L543,61.5c-.92,1.43-1.42,1.92-2.1,2.11a4.24,4.24,0,0,1-1,.12.57.57,0,1,0,.05,1.13c.62,0,1.42,0,2-.06l.58,0,.78,0c.64,0,1.48.06,1.9.06s.7-.3.7-.56a.57.57,0,0,0-.59-.57,3.58,3.58,0,0,1-.45,0,.19.19,0,0,1-.16-.18,2.48,2.48,0,0,1,.32-1l4-6.87c1.41,2.37,3,5.1,4.49,7.79.1.18,0,.26.08.25a.57.57,0,0,0-.44.57c0,.5.46.54,1.23.59h.24c1.34,0,2.63,0,4.24,0,.56,0,.76-.32.76-.59A.54.54,0,0,0,559.05,63.73Z"/><path class="cls-2" d="M99.69,51.82A47.38,47.38,0,1,1,52.32,4.45,47.43,47.43,0,0,1,99.69,51.82m3.45,0a50.83,50.83,0,1,0-50.82,50.82,50.88,50.88,0,0,0,50.82-50.82m-8-.53H9.19v1.28h86ZM89.36,66.78a4.33,4.33,0,0,1-4.33,3c-2.6,0-4.74-1.67-4.74-5.67,0-3.69,2.08-5.33,4.74-5.33a4.34,4.34,0,0,1,4.12,2.34l3.11-.7C91,57.69,88.32,56.24,85,56.24c-4.55,0-8.13,2.76-8.13,7.85,0,5.4,3.67,8.06,8.13,8.06,3.25,0,6.08-1.42,7.38-4.28ZM63.79,63.6h4.93a2.31,2.31,0,0,0,2.58-2.34c0-1.62-1.15-2.33-2.58-2.33H63.79Zm4,2.35h-4v5.87H60.42V56.43h7.87c3.87,0,6.36,1.32,6.36,4.88,0,1.93-1.34,3.51-3.72,4.12l4.29,6.39H71.73Zm-13.17-4.5A2.56,2.56,0,0,0,52,58.91H48V64H52a2.55,2.55,0,0,0,2.57-2.54m3.38,0c0,3.4-3.09,5.05-6,5.05H48v5.29H44.61V56.43H52c2.86,0,6,1.44,6,5M32,64.1c0-3.69-2.12-5.33-4.83-5.33s-4.83,1.64-4.83,5.33c0,4,2.18,5.67,4.83,5.67S32,68.1,32,64.1m3.45,0c0,5.4-3.74,8.06-8.28,8.06s-8.28-2.66-8.28-8.06c0-5.09,3.65-7.85,8.28-7.85s8.28,2.76,8.28,7.85M46.62,36H45.13l-4.2,11.74h1.5L46.25,37h4.66V47.71h1.5V36H46.62Zm45.14,0H84.21V47.71h1.5V37h6.05Zm-12.18,5.1H71.77V36h-1.5V47.71h1.5V42.13h7.81v5.58h1.5V36h-1.5ZM15.07,36h-1.5V47.71h1.5V37h7.81V47.71h1.5V36H15.07Zm50.58,0h-.53l-8,9.89V36h-1.5V47.71h1.5l8.56-10.55V47.71h1.5V36h-1.5ZM37.53,36H37l-8,9.89V36h-1.5V47.71H29l8.57-10.55V47.71H39V36H37.53ZM16.32,71.82H12.94V56.39h3.38Z"/></svg>