<svg xmlns="http://www.w3.org/2000/svg" viewBox="0 0 51.45 14.96"><defs><style>.cls-1{fill:#01336e;}.cls-2{fill:#fff;}</style></defs><title>karta-fish</title><g id="Layer_2" data-name="Layer 2"><g id="Layer_1-2" data-name="Layer 1"><path class="cls-1" d="M.72,3.79c.23-.23.57-.13,1.29.27,1,.53,5.71,3.23,6.26,3.3a10.63,10.63,0,0,0,2.8.32C12,7.54,23.56,4.84,25.79,4.54a3.33,3.33,0,0,1,.13-1.3C26.12,2.69,27,0,27,0c1.57,0,4.13,4,4.13,4a58.27,58.27,0,0,1,9.1.55c2.8.62,8.6,2.18,8.6,2.18a24.51,24.51,0,0,1,2.32.89V8L51,8.39s.46.09.48.18.16.94-4.31,2.62-4.47,1.28-4.63,1.12c0,0-12.22,2-22.17.18,0,0-3.28,1-4.17.55s-1.38-.86-3.53-1.94S8,10.36,5.24,12.17c-.34.26-1.9,1.24-2,1.31s-1.35.64-1.46.71A7.05,7.05,0,0,1,.11,15c-.14-.09-.16-.21,0-.51,1.45-2.6,4-4.92,3.35-5.84a21.76,21.76,0,0,0-1.4-2.36S.48,4,.72,3.79Z"/><circle class="cls-2" cx="44.37" cy="7.71" r="0.87"/><path class="cls-2" d="M41.78,11.39a6.26,6.26,0,0,1-.49-4.65l.65.19A5.64,5.64,0,0,0,42.35,11Z"/></g></g></svg>