<svg width="588" height="416" viewBox="0 0 588 416" fill="none" xmlns="http://www.w3.org/2000/svg">
<mask id="mask0" mask-type="alpha" maskUnits="userSpaceOnUse" x="0" y="0" width="588" height="416">
<rect width="588" height="416" rx="32" fill="#9380C0"/>
</mask>
<g mask="url(#mask0)">
<g opacity="0.24">
<g filter="url(#filter0_d)">
<rect x="-108" y="163.714" width="199.81" height="212.912" rx="19.6534" transform="rotate(-15 -108 163.714)" fill="#F8F8F8"/>
</g>
<rect x="-108" y="163.714" width="199.81" height="133.479" rx="19.6534" transform="rotate(-15 -108 163.714)" fill="white"/>
<path d="M48.2939 171.866L43.6429 173.112L45.2808 179.225L42.8889 179.866L41.2509 173.753L28.1284 177.269L27.6656 175.542L35.8604 156.825L38.5181 156.112L30.6483 174.315L40.7477 171.609L39.3056 166.227L41.6311 165.604L43.0732 170.986L47.7242 169.74L48.2939 171.866ZM54.4354 162.067C57.8019 161.164 60.4124 161.118 62.267 161.926C64.1378 162.707 65.364 164.183 65.9455 166.353C66.3076 167.704 66.3098 168.997 65.9524 170.232C65.6171 171.462 64.9014 172.555 63.8051 173.514C62.7029 174.45 61.2327 175.164 59.3944 175.657C57.7334 176.102 56.0786 176.261 54.4301 176.133C52.7979 175.977 51.4061 175.566 50.2547 174.901L50.91 172.696C51.8989 173.286 53.0927 173.666 54.4916 173.837C55.8846 173.986 57.312 173.865 58.7737 173.473C60.7006 172.957 62.0687 172.127 62.8782 170.985C63.7099 169.836 63.9328 168.542 63.5471 167.102C63.1198 165.508 62.1984 164.461 60.7828 163.962C59.3894 163.457 57.2864 163.581 54.4736 164.335L49.5236 165.661L47.5951 153.68L60.3189 150.271L60.8886 152.397L50.2577 155.246L51.4455 162.868L54.4354 162.067Z" fill="#301B2B"/>
<path d="M63.1585 229.858L61.8961 230.196L61.5095 228.753L60.6173 228.992L61.0039 230.435L58.4506 231.119L60.5821 226.052L59.557 226.326L57.3238 231.584L57.5018 232.248L61.1941 231.259L61.6316 232.892L62.5523 232.645L62.1148 231.012L63.3773 230.674L63.1585 229.858ZM65.1835 227.657L64.4432 227.855L64.1352 225.985L67.0872 225.194L66.8659 224.368L63.1166 225.372L63.6963 228.941L65.2055 228.536C66.7432 228.124 67.3424 228.462 67.5433 229.212C67.7366 229.933 67.2917 230.551 66.2856 230.821C65.4788 231.037 64.6595 230.941 64.1015 230.643L63.8658 231.51C64.5701 231.86 65.5817 231.915 66.5214 231.663C68.2205 231.208 68.7901 230.068 68.4823 228.92C68.1669 227.743 67.1673 227.125 65.1835 227.657ZM76.3798 223.548L75.2591 227.49L72.3743 224.621L71.4346 224.873L72.7825 229.904L73.6178 229.68L72.631 225.997L75.3256 228.612L75.7243 228.505L76.772 224.898L77.7563 228.571L78.5821 228.35L77.2341 223.319L76.3798 223.548ZM80.3556 227.875L81.1909 227.651L83.2845 223.163L84.2663 226.827L85.1775 226.583L83.8295 221.552L83.0037 221.773L80.9006 226.264L79.9189 222.6L79.0077 222.844L80.3556 227.875ZM86.9462 226.109L87.8574 225.865L87.2928 223.757L90.1593 222.989L90.7239 225.096L91.6351 224.852L90.2872 219.822L89.376 220.066L89.9482 222.201L87.0817 222.969L86.5094 220.834L85.5982 221.078L86.9462 226.109ZM93.6215 224.381C93.9632 224.289 94.1742 223.938 94.0725 223.558C93.9708 223.179 93.6148 222.989 93.2731 223.081C92.9219 223.175 92.6988 223.519 92.8006 223.899C92.9023 224.279 93.2703 224.475 93.6215 224.381Z" fill="#949EAE"/>
<path d="M-36.4104 338.934C-35.3758 338.657 -34.5802 338.057 -34.1558 337.211L-34.933 336.778C-35.3006 337.457 -35.8584 337.881 -36.5893 338.077C-38.089 338.478 -39.4895 337.694 -39.8837 336.223C-40.2779 334.751 -39.4573 333.372 -37.9576 332.97C-37.2267 332.774 -36.5341 332.853 -35.8766 333.257L-35.4199 332.493C-36.2105 331.973 -37.1968 331.861 -38.2219 332.135C-40.2437 332.677 -41.3594 334.512 -40.8329 336.477C-40.3064 338.442 -38.4227 339.473 -36.4104 338.934ZM-28.8294 335.967L-29.9637 331.733L-33.8649 332.779L-33.4855 334.498C-33.2112 335.788 -33.0065 337.045 -33.7177 337.277L-33.9835 337.348L-33.457 339.313L-32.5932 339.081L-32.9061 337.914L-28.7012 336.787L-28.3883 337.954L-27.5341 337.726L-28.0605 335.761L-28.8294 335.967ZM-32.6325 334.341L-32.8444 333.36L-30.6613 332.775L-29.7406 336.211L-32.5597 336.966C-32.2109 336.446 -32.3907 335.395 -32.6325 334.341ZM-26.2266 330.681C-27.0334 330.897 -27.7222 331.326 -28.1323 331.884L-27.5695 332.465C-27.2694 332.029 -26.7179 331.657 -26.1199 331.497C-25.2181 331.255 -24.6525 331.582 -24.4465 332.351L-24.3982 332.531L-25.8409 332.918C-27.3406 333.32 -27.6847 334.124 -27.4685 334.931C-27.2345 335.804 -26.3503 336.218 -25.2113 335.913C-24.4235 335.702 -23.9347 335.286 -23.753 334.749L-23.575 335.413L-22.7112 335.182L-23.5251 332.145C-23.8939 330.768 -24.8502 330.312 -26.2266 330.681ZM-25.2476 335.17C-25.9405 335.355 -26.4421 335.154 -26.5769 334.651C-26.6914 334.224 -26.5292 333.804 -25.6275 333.562L-24.2227 333.186L-24.0345 333.888C-24.1071 334.528 -24.5642 334.987 -25.2476 335.17ZM-18.6691 328.707L-23.2631 329.938L-23.0495 330.735L-21.2081 330.242L-20.0737 334.475L-19.1625 334.231L-20.2969 329.998L-18.4554 329.504L-18.6691 328.707ZM-14.954 329.543L-16.3708 329.912L-16.8261 328.213L-17.7373 328.457L-16.3893 333.488L-14.2037 332.913C-12.8533 332.561 -12.2567 331.75 -12.5492 330.658C-12.8264 329.624 -13.6701 329.209 -14.954 329.543ZM-14.4653 332.24L-15.6638 332.551L-16.1928 330.577L-14.9917 330.275C-14.1539 330.061 -13.66 330.234 -13.4819 330.898C-13.3014 331.572 -13.6369 332.028 -14.4653 332.24ZM-6.62471 325.48L-6.00923 327.777C-6.43736 328.115 -6.89787 328.371 -7.35348 328.493C-8.12232 328.699 -8.68847 328.484 -8.87923 327.773L-9.30142 326.197L-10.2126 326.441L-9.77518 328.074C-9.45472 329.27 -8.56684 329.622 -7.34239 329.294C-6.78237 329.144 -6.27 328.854 -5.82102 328.479L-5.27675 330.51L-4.36553 330.266L-5.7135 325.236L-6.62471 325.48ZM-2.16321 324.233C-2.97001 324.45 -3.65883 324.878 -4.06898 325.436L-3.50618 326.017C-3.20603 325.581 -2.65451 325.209 -2.05652 325.049C-1.15479 324.808 -0.589137 325.134 -0.383127 325.903L-0.334804 326.083L-1.77757 326.47C-3.27728 326.872 -3.6213 327.676 -3.40512 328.483C-3.17113 329.356 -2.28697 329.77 -1.14795 329.465C-0.360126 329.254 0.12868 328.838 0.31034 328.301L0.488373 328.966L1.35213 328.734L0.538265 325.697C0.169481 324.32 -0.786885 323.865 -2.16321 324.233ZM-1.18429 328.722C-1.87719 328.908 -2.37877 328.706 -2.51356 328.203C-2.62801 327.776 -2.46584 327.356 -1.56411 327.115L-0.159314 326.738L0.0288934 327.441C-0.0437676 328.081 -0.500874 328.539 -1.18429 328.722ZM5.20084 327.764C6.10257 327.522 6.75069 326.942 6.96114 326.133L6.15124 325.882C5.96077 326.462 5.52824 326.822 4.97771 326.969C3.99056 327.234 3.06707 326.749 2.77459 325.657C2.48719 324.585 3.04189 323.693 4.02904 323.429C4.57957 323.281 5.13419 323.377 5.58917 323.784L6.16254 323.152C5.57567 322.557 4.72662 322.387 3.8249 322.629C2.27772 323.043 1.45203 324.404 1.85388 325.904C2.25572 327.404 3.65367 328.179 5.20084 327.764ZM10.752 320.824L6.15793 322.055L6.37157 322.852L8.21299 322.359L9.34732 326.592L10.2585 326.348L9.12421 322.114L10.9656 321.621L10.752 320.824ZM14.4671 321.659L13.0502 322.029L12.595 320.33L11.6838 320.574L13.0317 325.605L15.2174 325.029C16.5678 324.678 17.1644 323.867 16.8719 322.775C16.5946 321.74 15.751 321.326 14.4671 321.659ZM14.9558 324.357L13.7573 324.668L13.2283 322.693L14.4293 322.392C15.2671 322.177 15.7611 322.35 15.9391 323.015C16.1197 323.689 15.7841 324.145 14.9558 324.357ZM21.6545 322.409L23.1618 319.909C23.8321 318.804 23.8668 318.174 23.6939 317.529C23.3887 316.39 22.3057 315.917 20.9199 316.288C19.8852 316.566 19.1017 317.172 18.7595 317.946L19.555 318.333C19.8309 317.73 20.3489 317.347 21.0608 317.156C21.991 316.907 22.587 317.195 22.7701 317.878C22.882 318.296 22.861 318.749 22.3417 319.621L20.336 322.956L20.5089 323.601L25.2833 322.322L25.0621 321.496L21.6545 322.409Z" fill="#3760FB"/>
<path d="M97.673 298.506C97.2362 298.624 96.977 299.073 97.094 299.509C97.2111 299.946 97.6601 300.206 98.0969 300.088L97.673 298.506ZM114.414 295.468C114.64 295.076 114.506 294.576 114.114 294.349L107.732 290.664C107.34 290.438 106.839 290.572 106.613 290.964C106.387 291.356 106.521 291.857 106.913 292.083L112.586 295.358L109.311 301.032C109.084 301.423 109.219 301.924 109.61 302.15C110.002 302.377 110.503 302.242 110.729 301.851L114.414 295.468ZM98.0969 300.088L113.917 295.85L113.493 294.268L97.673 298.506L98.0969 300.088Z" fill="#3760FB"/>
<path d="M92.0624 270.965L90.9518 271.262L90.4899 268.456L94.9178 267.27L94.5859 266.031L88.962 267.538L89.8315 272.89L92.0953 272.284C94.4018 271.666 95.3006 272.172 95.602 273.297C95.892 274.379 95.2246 275.306 93.7154 275.71C92.5052 276.035 91.2764 275.891 90.4394 275.444L90.0858 276.744C91.1423 277.27 92.6596 277.351 94.0692 276.974C96.6178 276.291 97.4721 274.582 97.0105 272.859C96.5375 271.093 95.0381 270.167 92.0624 270.965ZM106.683 269.535L104.789 270.042L104.21 267.878L102.871 268.236L103.451 270.401L99.6211 271.427L102.818 263.825L101.281 264.237L97.9309 272.124L98.198 273.121L103.736 271.636L104.393 274.085L105.774 273.715L105.118 271.266L107.011 270.759L106.683 269.535Z" fill="#301B2B"/>
<path d="M75.6181 139.355C75.4659 138.787 75.8138 138.2 76.3953 138.044C76.9767 137.888 77.5715 138.223 77.7237 138.791C77.876 139.359 77.528 139.946 76.9466 140.102C76.3651 140.257 75.7704 139.923 75.6181 139.355ZM75.6917 143.914L74.5575 142.632C74.5579 142.632 74.6612 142.543 75.1592 142.118C75.7566 141.608 76.5826 141.463 77.315 141.74C78.0471 142.017 78.5531 142.665 78.6355 143.432C78.6383 143.459 78.6399 143.486 78.6402 143.513L78.6679 146.29C78.6982 146.458 78.8215 146.529 78.8951 146.557C78.9729 146.587 79.1254 146.617 79.2732 146.491L79.7723 146.065L80.9074 147.346L80.4083 147.772C80.1594 147.985 79.8708 148.134 79.5659 148.216C79.1388 148.33 78.6797 148.312 78.2524 148.151C77.5202 147.874 77.0143 147.226 76.932 146.459C76.9291 146.432 76.9275 146.405 76.9273 146.378L76.8995 143.6C76.8693 143.432 76.7459 143.361 76.6724 143.333C76.5946 143.304 76.442 143.274 76.2942 143.4C75.7947 143.826 75.6917 143.914 75.6917 143.914Z" fill="#3760FB"/>
<g filter="url(#filter1_d)">
<rect x="453.77" y="90" width="205.843" height="219.341" rx="19.2594" transform="rotate(15 453.77 90)" fill="#F8F8F8"/>
</g>
<rect x="453.77" y="90" width="205.843" height="137.51" rx="19.2594" transform="rotate(15 453.77 90)" fill="white"/>
<path d="M581.684 156.835C584.701 157.644 586.745 159.261 587.816 161.688C588.893 164.094 588.945 167.109 587.974 170.733C587.294 173.273 586.284 175.305 584.945 176.83C583.606 178.356 582.033 179.365 580.226 179.858C578.425 180.329 576.482 180.285 574.399 179.727C572.141 179.122 570.451 178.227 569.326 177.042L570.776 175.407C571.669 176.414 573.049 177.167 574.916 177.667C577.433 178.342 579.621 178.079 581.478 176.878C583.34 175.656 584.679 173.526 585.493 170.487C585.644 169.923 585.777 169.296 585.893 168.605C584.997 169.691 583.837 170.416 582.414 170.779C580.997 171.12 579.485 171.076 577.879 170.645C576.381 170.244 575.122 169.604 574.101 168.726C573.102 167.853 572.414 166.82 572.036 165.625C571.664 164.409 571.661 163.117 572.028 161.75C572.4 160.361 573.065 159.225 574.023 158.342C574.98 157.458 576.121 156.892 577.444 156.641C578.795 156.375 580.208 156.44 581.684 156.835ZM578.769 168.755C579.919 169.064 580.987 169.117 581.971 168.915C582.977 168.72 583.832 168.309 584.535 167.683C585.237 167.057 585.714 166.278 585.964 165.345C586.196 164.476 586.173 163.609 585.893 162.743C585.635 161.883 585.111 161.103 584.322 160.403C583.532 159.703 582.508 159.185 581.249 158.847C579.6 158.405 578.132 158.501 576.846 159.133C575.588 159.75 574.758 160.807 574.357 162.304C573.955 163.802 574.145 165.132 574.927 166.295C575.73 167.464 577.011 168.284 578.769 168.755ZM604.523 174.784C605.827 175.645 606.732 176.655 607.235 177.813C607.761 178.978 607.843 180.233 607.483 181.578C607.128 182.902 606.459 183.968 605.475 184.774C604.497 185.559 603.263 186.042 601.772 186.224C600.308 186.39 598.676 186.232 596.874 185.749C594.14 185.017 592.148 183.855 590.899 182.264C589.651 180.673 589.297 178.869 589.838 176.85C590.204 175.483 590.881 174.432 591.869 173.696C592.885 172.945 594.173 172.522 595.733 172.428C594.683 171.659 593.968 170.769 593.587 169.76C593.212 168.729 593.181 167.627 593.495 166.455C593.99 164.611 595.098 163.337 596.822 162.636C598.566 161.941 600.654 161.918 603.085 162.57C604.691 163 606.024 163.625 607.084 164.444C608.172 165.247 608.93 166.194 609.358 167.286C609.787 168.378 609.838 169.532 609.513 170.747C609.199 171.919 608.611 172.855 607.748 173.554C606.892 174.232 605.817 174.642 604.523 174.784ZM595.822 167.149C595.484 168.407 595.716 169.539 596.517 170.545C597.317 171.55 598.597 172.289 600.355 172.76C602.113 173.231 603.59 173.231 604.786 172.761C606.004 172.296 606.778 171.445 607.11 170.208C607.453 168.928 607.202 167.779 606.358 166.762C605.536 165.75 604.268 165.015 602.553 164.556C600.817 164.09 599.34 164.09 598.122 164.555C596.926 165.025 596.159 165.89 595.822 167.149ZM597.406 183.763C599.425 184.304 601.109 184.314 602.458 183.791C603.83 183.275 604.704 182.311 605.082 180.9C605.46 179.49 605.182 178.229 604.247 177.117C603.339 175.99 601.876 175.156 599.858 174.615C597.861 174.08 596.177 174.071 594.805 174.588C593.462 175.088 592.601 176.044 592.223 177.455C591.839 178.887 592.101 180.167 593.009 181.294C593.922 182.399 595.388 183.223 597.406 183.763Z" fill="#301B2B"/>
<path d="M501.069 148.157C498.208 158.836 486.962 165.302 476.23 162.394C465.566 159.472 458.916 148.308 462.071 137.256C464.986 126.978 476.161 120.17 487.281 123.44C497.445 126.421 504.023 137.373 501.069 148.157Z" fill="#FEF7E7"/>
<path d="M491.898 141.477C492.414 142.196 492.243 142.956 492.041 143.708C491.098 147.229 490.193 150.727 489.22 154.239C488.601 156.427 487.182 157.272 484.985 156.684C480.584 155.537 476.161 154.352 471.747 153.137C469.58 152.556 468.729 151.038 469.31 148.872C470.731 143.448 472.182 138.032 473.655 132.655C474.179 130.699 475.631 129.734 477.505 130.203C480.319 130.893 483.109 131.673 485.937 132.431C486.449 132.568 486.898 132.817 487.116 133.327C486.048 133.944 485.87 134.606 486.714 135.67C488.016 137.309 488.86 139.212 489.934 140.983C490.424 141.921 491.018 142.112 491.898 141.477Z" fill="#FBB725"/>
<path d="M491.898 141.477C491.226 142.781 490.636 142.816 489.885 141.647C488.501 139.471 487.414 137.148 485.87 135.089C485.109 134.079 485.494 133.602 487.108 133.357C487.19 133.412 487.242 133.458 487.278 133.564C487.796 133.8 488.22 134.139 488.537 134.643C489.52 136.39 490.541 138.115 491.532 139.831C491.819 140.327 491.794 140.901 491.898 141.477Z" fill="#FBA307"/>
<path d="M491.906 141.447C490.47 138.741 489.065 136.043 487.286 133.534C488.421 133.871 489.611 134.125 490.684 134.574C492.455 135.306 493.081 136.7 492.672 138.589C492.414 139.552 492.134 140.477 491.906 141.447Z" fill="#FEDB2F"/>
<path d="M486.92 141.401L477.592 138.902C477.011 138.746 476.413 139.091 476.257 139.673C476.101 140.255 476.447 140.852 477.028 141.008L486.355 143.507C486.937 143.663 487.535 143.318 487.69 142.736C487.846 142.155 487.501 141.557 486.92 141.401Z" fill="#F78200"/>
<path d="M481.579 144.485L476.464 143.115C475.882 142.959 475.284 143.304 475.129 143.886C474.973 144.467 475.318 145.065 475.899 145.221L481.014 146.592C481.596 146.747 482.194 146.402 482.35 145.821C482.505 145.239 482.16 144.641 481.579 144.485Z" fill="#F78200"/>
<path d="M449.856 203.11C450.554 203.038 451.07 202.638 451.262 201.922C451.553 200.833 450.854 200.018 449.441 199.639L446.641 198.889L444.896 205.4L447.873 206.198C449.473 206.626 450.468 206.185 450.767 205.069C450.994 204.223 450.673 203.559 449.856 203.11ZM447.365 199.871L449.179 200.357C450.072 200.596 450.474 201.103 450.287 201.8C450.1 202.498 449.501 202.726 448.608 202.487L446.794 202.001L447.365 199.871ZM448.051 205.458L446.014 204.912L446.605 202.708L448.642 203.253C449.618 203.515 450.049 203.99 449.848 204.743C449.643 205.506 449.028 205.72 448.051 205.458ZM454.788 202.717C453.997 202.505 453.202 202.531 452.581 202.804L452.774 203.573C453.242 203.35 453.893 203.305 454.479 203.462C455.362 203.698 455.682 204.253 455.48 205.006L455.433 205.183L454.019 204.804C452.549 204.41 451.863 204.924 451.652 205.715C451.422 206.571 451.97 207.355 453.086 207.654C453.858 207.861 454.476 207.748 454.894 207.381L454.719 208.032L455.566 208.259L456.363 205.283C456.725 203.934 456.136 203.078 454.788 202.717ZM453.419 207.006C452.74 206.824 452.413 206.407 452.545 205.914C452.657 205.496 453.001 205.219 453.884 205.456L455.261 205.825L455.077 206.513C454.701 207.021 454.089 207.185 453.419 207.006ZM461.121 204.414C460.395 204.22 459.688 204.329 459.141 204.771L459.35 203.989L458.495 203.76L456.69 210.494L457.583 210.734L458.266 208.185C458.533 208.825 459.075 209.259 459.772 209.446C461.214 209.832 462.534 209.109 462.941 207.593C463.345 206.086 462.563 204.8 461.121 204.414ZM459.907 208.645C458.968 208.393 458.436 207.513 458.718 206.462C458.997 205.42 459.898 204.924 460.837 205.175C461.786 205.43 462.318 206.31 462.038 207.352C461.757 208.403 460.856 208.899 459.907 208.645ZM463.578 210.406L464.396 210.625L468.372 207.842L467.41 211.433L468.303 211.672L469.624 206.742L468.815 206.525L464.829 209.306L465.792 205.715L464.899 205.476L463.578 210.406ZM473.127 207.631C472.337 207.419 471.542 207.446 470.921 207.718L471.114 208.487C471.582 208.264 472.232 208.219 472.818 208.376C473.702 208.612 474.022 209.167 473.82 209.92L473.773 210.097L472.359 209.718C470.889 209.324 470.203 209.838 469.991 210.629C469.762 211.485 470.309 212.269 471.426 212.569C472.198 212.775 472.816 212.662 473.234 212.295L473.059 212.946L473.906 213.173L474.703 210.197C475.064 208.848 474.476 207.992 473.127 207.631ZM471.759 211.92C471.08 211.738 470.753 211.322 470.885 210.829C470.997 210.41 471.34 210.133 472.224 210.37L473.601 210.739L473.416 211.427C473.041 211.935 472.429 212.1 471.759 211.92ZM475.513 213.604L476.406 213.843L476.96 211.778L479.769 212.531L479.216 214.596L480.108 214.835L481.429 209.905L480.536 209.666L479.976 211.759L477.167 211.006L477.727 208.913L476.834 208.674L475.513 213.604ZM486.84 211.355L482.338 210.149L482.128 210.93L483.933 211.414L482.821 215.562L483.714 215.801L484.826 211.653L486.63 212.136L486.84 211.355ZM494.819 216.205L493.582 215.873L493.961 214.46L493.086 214.225L492.708 215.639L490.205 214.969L494.498 211.712L493.493 211.443L489.021 214.811L488.847 215.462L492.465 216.432L492.037 218.031L492.939 218.273L493.368 216.673L494.605 217.005L494.819 216.205Z" fill="#949EAE"/>
<path d="M571.816 232.43L571.599 233.239L573.068 233.633L571.541 239.335L572.461 239.581L574.206 233.07L571.816 232.43ZM575.34 239.485L577.844 238.102C578.954 237.493 579.292 236.975 579.462 236.343C579.761 235.227 579.073 234.295 577.715 233.931C576.701 233.659 575.739 233.79 575.07 234.279L575.555 234.997C576.085 234.62 576.712 234.549 577.41 234.736C578.321 234.98 578.686 235.517 578.506 236.186C578.397 236.596 578.157 236.97 577.289 237.455L573.953 239.303L573.783 239.936L578.462 241.189L578.679 240.38L575.34 239.485ZM588.31 238.544L585.428 241.341L584.385 237.492L583.464 237.246L582.143 242.176L582.962 242.395L583.929 238.786L584.935 242.325L585.325 242.43L587.982 239.882L587.017 243.482L587.827 243.698L589.148 238.769L588.31 238.544ZM589.565 244.164L590.383 244.383L594.359 241.601L593.397 245.191L594.29 245.43L595.611 240.5L594.802 240.284L590.817 243.064L591.779 239.474L590.886 239.234L589.565 244.164ZM596.023 245.895L596.916 246.134L597.469 244.069L600.278 244.822L599.725 246.887L600.618 247.126L601.939 242.196L601.046 241.957L600.485 244.05L597.676 243.297L598.237 241.204L597.344 240.965L596.023 245.895ZM602.535 247.699C602.87 247.789 603.221 247.594 603.321 247.222C603.42 246.85 603.211 246.515 602.876 246.425C602.532 246.333 602.174 246.516 602.074 246.888C601.975 247.26 602.191 247.607 602.535 247.699Z" fill="#949EAE"/>
<path d="M455.484 178.585C456.142 178.761 456.685 179.023 457.111 179.37C457.545 179.719 457.838 180.13 457.99 180.605C458.142 181.08 458.143 181.596 457.994 182.153C457.846 182.703 457.587 183.149 457.216 183.492C456.847 183.827 456.388 184.038 455.838 184.123C455.295 184.21 454.694 184.165 454.036 183.989L452.321 183.53L451.734 185.722L450.323 185.344L452.358 177.747L455.484 178.585ZM454.29 182.778C454.905 182.943 455.407 182.937 455.795 182.762C456.183 182.587 456.442 182.257 456.572 181.772C456.702 181.288 456.643 180.872 456.394 180.527C456.145 180.181 455.714 179.926 455.099 179.761L453.449 179.319L452.641 182.336L454.29 182.778ZM464.94 183.049L460.549 188.584C460.127 189.145 459.702 189.504 459.272 189.661C458.841 189.824 458.368 189.837 457.854 189.699C457.565 189.622 457.292 189.498 457.035 189.329C456.778 189.159 456.581 188.967 456.445 188.752L457.255 187.899C457.352 188.057 457.478 188.195 457.632 188.314C457.794 188.435 457.965 188.519 458.146 188.568C458.385 188.632 458.596 188.623 458.781 188.54C458.973 188.46 459.173 188.293 459.381 188.038L459.54 187.837L458.57 181.342L459.981 181.72L460.655 186.495L463.638 182.7L464.94 183.049ZM466.787 189.837C466.187 189.676 465.682 189.405 465.272 189.023C464.862 188.642 464.584 188.192 464.436 187.671C464.291 187.144 464.294 186.594 464.448 186.023C464.601 185.451 464.871 184.977 465.259 184.6C465.647 184.223 466.11 183.971 466.648 183.844C467.193 183.719 467.77 183.738 468.378 183.901C468.949 184.054 469.417 184.303 469.782 184.649C470.154 184.997 470.391 185.417 470.491 185.909L469.287 186.238C469.192 185.925 469.035 185.67 468.817 185.472C468.608 185.269 468.355 185.127 468.058 185.048C467.552 184.912 467.088 184.966 466.666 185.21C466.246 185.446 465.962 185.839 465.815 186.389C465.668 186.939 465.712 187.424 465.948 187.844C466.194 188.259 466.574 188.535 467.087 188.672C467.384 188.752 467.673 188.76 467.954 188.695C468.244 188.626 468.508 188.479 468.746 188.256L469.625 189.143C469.284 189.517 468.865 189.765 468.367 189.888C467.878 190.005 467.351 189.988 466.787 189.837ZM473.008 191.503C472.407 191.342 471.902 191.071 471.493 190.69C471.083 190.309 470.804 189.858 470.657 189.338C470.511 188.811 470.515 188.261 470.668 187.69C470.821 187.118 471.092 186.644 471.48 186.267C471.868 185.89 472.331 185.638 472.869 185.511C473.414 185.386 473.991 185.405 474.598 185.567C475.17 185.721 475.638 185.97 476.003 186.316C476.375 186.664 476.611 187.084 476.712 187.576L475.507 187.905C475.413 187.592 475.256 187.337 475.038 187.139C474.829 186.936 474.576 186.794 474.279 186.715C473.773 186.579 473.309 186.633 472.887 186.877C472.467 187.113 472.183 187.506 472.036 188.056C471.888 188.606 471.933 189.091 472.169 189.511C472.415 189.926 472.794 190.202 473.308 190.339C473.605 190.419 473.893 190.426 474.174 190.362C474.464 190.292 474.728 190.146 474.967 189.923L475.845 190.81C475.505 191.184 475.086 191.432 474.588 191.554C474.099 191.672 473.572 191.655 473.008 191.503ZM479.728 190.734L478.675 190.452L478.053 192.774L476.697 192.41L478.249 186.616L479.606 186.979L478.978 189.323L480.063 189.614L482.406 187.729L483.86 188.119L481.007 190.344L482.448 193.952L480.853 193.524L479.728 190.734ZM484.958 188.413L486.314 188.776L485.291 192.596L489.515 189.634L490.753 189.966L489.2 195.761L487.843 195.397L488.867 191.577L484.653 194.542L483.405 194.208L484.958 188.413ZM492.577 190.455L493.934 190.818L492.91 194.638L497.135 191.676L498.372 192.007L496.819 197.802L495.463 197.439L496.486 193.619L492.272 196.584L491.025 196.25L492.577 190.455ZM495.571 190.524C494.985 190.367 494.572 190.113 494.333 189.762C494.103 189.406 494.054 188.966 494.186 188.443L495.087 188.685C495.024 188.947 495.049 189.175 495.16 189.367C495.278 189.562 495.479 189.697 495.761 189.772C496.036 189.846 496.273 189.828 496.473 189.719C496.68 189.612 496.822 189.429 496.899 189.17L497.822 189.417C497.675 189.936 497.409 190.292 497.024 190.483C496.641 190.667 496.157 190.681 495.571 190.524ZM508.09 194.611L506.537 200.406L505.322 200.081L505.79 198.333L504.26 197.923L502.609 199.354L501.155 198.964L503.04 197.399C502.659 197.142 502.396 196.835 502.251 196.478C502.116 196.116 502.107 195.714 502.225 195.273C502.404 194.607 502.776 194.157 503.344 193.921C503.911 193.685 504.607 193.678 505.431 193.899L508.09 194.611ZM505.17 195.05C504.294 194.815 503.768 195.027 503.592 195.686C503.417 196.337 503.753 196.776 504.6 197.003L506.043 197.389L506.569 195.425L505.17 195.05ZM512.558 198.786C512.893 198.984 513.127 199.225 513.26 199.509C513.402 199.788 513.431 200.086 513.346 200.404C513.251 200.759 513.047 201.042 512.734 201.253C512.424 201.456 512.039 201.578 511.578 201.617C511.118 201.657 510.62 201.605 510.085 201.461C509.636 201.341 509.212 201.173 508.812 200.958C508.415 200.735 508.068 200.479 507.773 200.191L508.435 199.286C508.674 199.521 508.959 199.729 509.291 199.911C509.622 200.093 509.965 200.231 510.319 200.326C510.775 200.448 511.148 200.475 511.438 200.405C511.737 200.33 511.92 200.17 511.986 199.924C512.046 199.699 511.991 199.499 511.821 199.321C511.659 199.146 511.397 199.01 511.035 198.913L509.907 198.611L510.151 197.699L511.171 197.972C511.511 198.063 511.791 198.076 512.01 198.011C512.236 197.948 512.377 197.811 512.433 197.601C512.49 197.391 512.419 197.194 512.22 197.009C512.021 196.824 511.72 196.677 511.314 196.569C510.736 196.413 510.087 196.391 509.367 196.5L509.287 195.409C510.142 195.258 510.956 195.286 511.73 195.494C512.222 195.625 512.645 195.812 512.999 196.055C513.355 196.289 513.608 196.559 513.759 196.863C513.92 197.162 513.958 197.467 513.875 197.778C513.799 198.06 513.645 198.29 513.411 198.468C513.179 198.638 512.895 198.744 512.558 198.786ZM518.159 199.356C518.897 199.554 519.417 199.872 519.718 200.309C520.02 200.747 520.089 201.269 519.926 201.877C519.756 202.514 519.407 202.947 518.88 203.178C518.36 203.411 517.707 203.418 516.92 203.2L514.297 202.485L515.849 196.69L517.206 197.054L516.697 198.953L518.159 199.356ZM521.699 198.258L523.055 198.621L521.502 204.416L520.146 204.053L521.699 198.258ZM517.068 202.169C517.464 202.283 517.79 202.282 518.046 202.164C518.303 202.047 518.476 201.822 518.565 201.489C518.652 201.163 518.615 200.897 518.453 200.691C518.291 200.485 518.005 200.323 517.594 200.205L516.447 199.886L515.921 201.85L517.068 202.169ZM526.357 203.228L525.304 202.946L524.682 205.268L523.326 204.905L524.878 199.11L526.235 199.473L525.607 201.817L526.692 202.108L529.035 200.223L530.489 200.613L527.636 202.838L529.077 206.446L527.482 206.018L526.357 203.228Z" fill="#301B2B"/>
<path opacity="0.5" d="M437 250.456L436.168 253.562C435.5 253.673 434.84 253.645 434.254 253.488C433.184 253.201 432.705 252.495 432.965 251.528L433.503 249.518L432.591 249.274L432.026 251.386C431.644 252.809 432.342 253.853 433.932 254.279C434.518 254.436 435.207 254.471 435.946 254.39L435.256 256.967L436.177 257.213L437.921 250.702L437 250.456ZM441.15 253.212C440.359 253.001 439.565 253.027 438.943 253.299L439.136 254.068C439.605 253.845 440.255 253.8 440.841 253.957C441.724 254.194 442.045 254.748 441.843 255.502L441.795 255.678L440.381 255.299C438.912 254.906 438.226 255.42 438.014 256.21C437.785 257.066 438.332 257.851 439.448 258.15C440.22 258.357 440.839 258.243 441.256 257.877L441.082 258.528L441.928 258.755L442.726 255.778C443.087 254.429 442.499 253.574 441.15 253.212ZM439.781 257.501C439.102 257.319 438.775 256.903 438.907 256.41C439.02 255.991 439.363 255.714 440.247 255.951L441.623 256.32L441.439 257.008C441.064 257.516 440.451 257.681 439.781 257.501ZM445.67 259.817C446.553 260.054 447.388 259.879 447.963 259.295L447.399 258.685C446.953 259.084 446.409 259.178 445.87 259.033C444.902 258.774 444.356 257.91 444.643 256.84C444.925 255.789 445.832 255.304 446.799 255.564C447.339 255.708 447.763 256.061 447.949 256.629L448.746 256.374C448.539 255.581 447.902 255.022 447.018 254.785C445.502 254.378 444.134 255.129 443.741 256.598C443.347 258.068 444.154 259.411 445.67 259.817ZM453.781 256.647L449.279 255.441L449.07 256.222L450.875 256.705L449.763 260.854L450.656 261.093L451.768 256.945L453.572 257.428L453.781 256.647ZM456.525 259.176L455.141 258.796L455.587 257.131L454.694 256.891L453.374 261.821L455.51 262.404C456.829 262.767 457.732 262.371 458.019 261.301C458.291 260.288 457.778 259.522 456.525 259.176ZM455.618 261.705L454.448 261.382L454.967 259.447L456.134 259.779C456.95 260.008 457.284 260.397 457.11 261.048C456.933 261.708 456.425 261.931 455.618 261.705ZM462.176 257.201L461.959 258.011L463.429 258.404L461.901 264.106L462.822 264.353L464.566 257.842L462.176 257.201Z" fill="#301B2B"/>
<path d="M577.764 288.792L576.676 288.5L577.659 285.892L581.998 287.055L582.323 285.841L576.812 284.364L574.928 289.333L577.146 289.927C579.406 290.533 579.921 291.403 579.625 292.506C579.341 293.566 578.321 294.025 576.842 293.629C575.656 293.311 574.684 292.587 574.192 291.798L573.255 292.728C573.894 293.692 575.142 294.504 576.523 294.875C579.021 295.544 580.583 294.512 581.036 292.824C581.499 291.094 580.68 289.573 577.764 288.792ZM590.873 294.742L589.018 294.245L589.586 292.124L588.274 291.772L587.706 293.893L583.953 292.887L590.391 288.003L588.884 287.599L582.177 292.651L581.915 293.628L587.343 295.082L586.7 297.482L588.053 297.844L588.696 295.444L590.552 295.942L590.873 294.742Z" fill="#301B2B"/>
<path opacity="0.5" d="M430.013 276.532L429.181 279.639C428.513 279.749 427.853 279.721 427.267 279.564C426.197 279.278 425.718 278.571 425.978 277.604L426.516 275.595L425.604 275.351L425.039 277.462C424.657 278.885 425.354 279.929 426.945 280.356C427.531 280.513 428.22 280.548 428.959 280.467L428.269 283.043L429.19 283.29L430.934 276.779L430.013 276.532ZM434.163 279.289C433.372 279.077 432.578 279.103 431.956 279.375L432.149 280.145C432.618 279.922 433.268 279.876 433.854 280.033C434.737 280.27 435.057 280.825 434.856 281.578L434.808 281.755L433.394 281.376C431.925 280.982 431.239 281.496 431.027 282.287C430.797 283.142 431.345 283.927 432.461 284.226C433.233 284.433 433.852 284.32 434.269 283.953L434.095 284.604L434.941 284.831L435.739 281.854C436.1 280.506 435.512 279.65 434.163 279.289ZM432.794 283.578C432.115 283.396 431.788 282.979 431.92 282.486C432.033 282.068 432.376 281.791 433.26 282.028L434.636 282.396L434.452 283.085C434.077 283.592 433.464 283.757 432.794 283.578ZM438.683 285.893C439.566 286.13 440.401 285.955 440.976 285.371L440.412 284.761C439.966 285.16 439.422 285.254 438.883 285.109C437.915 284.85 437.369 283.986 437.656 282.916C437.937 281.865 438.845 281.381 439.812 281.64C440.352 281.785 440.776 282.137 440.962 282.706L441.758 282.451C441.552 281.658 440.915 281.098 440.031 280.861C438.515 280.455 437.147 281.205 436.754 282.675C436.36 284.144 437.166 285.487 438.683 285.893ZM446.794 282.723L442.292 281.517L442.083 282.298L443.887 282.782L442.776 286.93L443.669 287.17L444.78 283.021L446.585 283.505L446.794 282.723ZM449.538 285.253L448.154 284.872L448.6 283.207L447.707 282.968L446.386 287.898L448.523 288.48C449.842 288.843 450.745 288.448 451.032 287.378C451.304 286.364 450.791 285.599 449.538 285.253ZM448.631 287.781L447.461 287.458L447.98 285.523L449.147 285.856C449.963 286.085 450.297 286.473 450.123 287.124C449.946 287.785 449.438 288.007 448.631 287.781ZM455.27 289.411L457.774 288.028C458.884 287.418 459.223 286.901 459.392 286.268C459.691 285.152 459.004 284.22 457.646 283.856C456.632 283.585 455.67 283.716 455 284.204L455.486 284.922C456.015 284.546 456.642 284.475 457.34 284.662C458.252 284.906 458.616 285.442 458.437 286.112C458.327 286.521 458.087 286.896 457.22 287.381L453.883 289.229L453.714 289.861L458.392 291.115L458.609 290.306L455.27 289.411Z" fill="#301B2B"/>
<path d="M572.641 311.196L572.316 312.409L574.52 313L572.229 321.553L573.61 321.923L576.227 312.156L572.641 311.196ZM577.927 321.779L581.683 319.705C583.349 318.79 583.856 318.014 584.11 317.065C584.559 315.391 583.528 313.993 581.491 313.447C579.97 313.04 578.526 313.236 577.523 313.969L578.251 315.046C579.045 314.482 579.986 314.375 581.032 314.655C582.4 315.022 582.947 315.826 582.678 316.831C582.513 317.445 582.153 318.006 580.852 318.734L575.847 321.506L575.593 322.454L582.611 324.335L582.936 323.121L577.927 321.779Z" fill="#301B2B"/>
<g filter="url(#filter2_d)">
<rect x="661.875" y="14" width="300.498" height="320.203" rx="29.5572" transform="rotate(15 661.875 14)" fill="#F8F8F8"/>
</g>
<g filter="url(#filter3_d)">
<rect x="539.855" y="217.126" width="287.927" height="306.807" rx="28.3207" transform="rotate(15 539.855 217.126)" fill="#F8F8F8"/>
</g>
<rect x="539.855" y="217.126" width="287.927" height="192.345" rx="28.3207" transform="rotate(15 539.855 217.126)" fill="white"/>
<path d="M606.035 298.407C601.998 313.305 586.648 322.464 571.364 318.414C556.237 314.451 546.867 298.262 551.634 282.657C555.821 268.883 570.984 259.584 586.234 263.76C601.105 267.835 610.072 283.509 606.035 298.407Z" fill="#FAF5FE"/>
<path d="M590.313 298.232C590.724 299.56 591.146 300.846 591.462 302.194C592.934 307.64 589.708 310.926 584.215 309.544C578.805 308.185 573.429 306.699 568.054 305.214C566.581 304.819 565.108 304.424 563.733 303.83C560.218 302.302 559.398 298.294 561.972 295.42C563.049 294.265 564.24 293.186 565.389 292.095C566.119 292.065 566.618 292.56 566.979 293.063C568.935 295.526 571.632 296.069 574.548 296.128C576.164 296.155 577.742 295.992 579.32 295.828C582.157 295.506 584.955 295.669 587.71 296.498C588.763 296.78 589.674 297.249 590.313 298.232Z" fill="#844CFD"/>
<path d="M590.313 298.232C586.742 296.238 582.942 295.942 578.94 296.403C577.733 296.53 576.495 296.605 575.257 296.679C571.12 296.969 567.762 295.528 565.4 292.053C566.915 290.61 568.398 289.113 569.913 287.669C573.22 284.586 575.481 280.861 576.359 276.406C576.999 276.036 577.642 276.163 578.273 276.332C581.273 277.091 584.303 277.903 587.28 278.745C587.911 278.914 588.531 279.126 588.901 279.766C586.755 285.416 588.228 290.862 589.784 296.331C589.975 296.969 590.123 297.595 590.313 298.232Z" fill="#CF8AFE"/>
<path d="M588.901 279.766C584.734 278.649 580.568 277.533 576.359 276.405C576.298 276.298 576.278 276.203 576.323 276.035C577.242 275.469 578.134 275.843 579.071 276.049C581.523 276.661 583.995 277.369 586.447 277.981C587.078 278.15 587.948 278.608 588.364 277.727C588.694 277.004 588.189 276.192 587.55 275.885C584.992 274.659 582.29 273.799 579.405 273.793C577.926 273.758 577.475 275.441 576.323 276.035C575.064 275.517 574.88 274.52 575.322 273.376C575.71 272.262 576.732 271.814 577.796 272.054C581.901 273.064 586.014 274.211 590.085 275.347C591.137 275.629 591.745 276.558 591.578 277.686C591.34 279.247 590.192 279.661 588.901 279.766Z" fill="#8146FD"/>
<path d="M576.554 292.515C576.057 294.367 574.72 295.317 573.068 294.919C571.446 294.575 570.199 292.662 570.617 291.105C571.011 289.632 572.826 288.584 574.352 288.948C576.215 289.402 576.996 290.694 576.554 292.515Z" fill="#8C51EC"/>
<path d="M576.312 276.077C577.438 273.221 578.601 272.586 581.463 273.353C583.272 273.837 585.113 274.376 586.945 274.776C588.177 275.061 588.777 275.854 589.118 276.937C589.319 277.533 589.54 278.223 589.065 278.818C588.514 279.527 587.835 279.029 587.288 278.883C583.604 277.986 579.985 277.016 576.312 276.077Z" fill="#6D2CFD"/>
<path d="M534.547 376.176C535.573 376.07 536.332 375.481 536.614 374.428C537.043 372.828 536.015 371.629 533.936 371.072L529.819 369.969L527.254 379.543L531.63 380.716C533.983 381.346 535.447 380.698 535.887 379.056C536.22 377.812 535.749 376.835 534.547 376.176ZM530.884 371.412L533.551 372.127C534.864 372.479 535.456 373.224 535.181 374.25C534.906 375.275 534.025 375.611 532.712 375.259L530.044 374.544L530.884 371.412ZM531.893 379.628L528.897 378.826L529.766 375.584L532.761 376.387C534.197 376.771 534.831 377.469 534.535 378.577C534.234 379.698 533.329 380.013 531.893 379.628ZM541.799 375.598C540.636 375.286 539.468 375.325 538.554 375.725L538.837 376.857C539.527 376.528 540.483 376.462 541.344 376.693C542.644 377.041 543.114 377.856 542.817 378.964L542.748 379.224L540.669 378.667C538.508 378.088 537.499 378.843 537.187 380.006C536.85 381.264 537.655 382.418 539.296 382.858C540.432 383.162 541.341 382.996 541.955 382.456L541.698 383.414L542.943 383.747L544.116 379.37C544.647 377.387 543.782 376.129 541.799 375.598ZM539.786 381.905C538.788 381.637 538.307 381.024 538.501 380.299C538.666 379.684 539.171 379.277 540.471 379.625L542.495 380.167L542.224 381.18C541.672 381.926 540.771 382.168 539.786 381.905ZM551.112 378.093C550.045 377.807 549.005 377.968 548.2 378.618L548.508 377.469L547.25 377.132L544.596 387.034L545.91 387.386L546.914 383.638C547.307 384.579 548.103 385.218 549.129 385.493C551.249 386.061 553.19 384.998 553.788 382.768C554.382 380.552 553.232 378.661 551.112 378.093ZM549.327 384.314C547.946 383.944 547.164 382.65 547.578 381.104C547.989 379.572 549.313 378.842 550.694 379.213C552.09 379.586 552.872 380.881 552.461 382.413C552.047 383.958 550.723 384.688 549.327 384.314ZM554.724 386.904L555.928 387.227L561.774 383.134L560.36 388.414L561.673 388.766L563.615 381.517L562.425 381.198L556.565 385.286L557.98 380.007L556.667 379.655L554.724 386.904ZM568.767 382.824C567.605 382.512 566.436 382.551 565.523 382.951L565.806 384.083C566.495 383.754 567.451 383.688 568.313 383.919C569.612 384.267 570.083 385.082 569.786 386.19L569.716 386.45L567.637 385.893C565.476 385.314 564.467 386.07 564.156 387.232C563.818 388.491 564.623 389.644 566.265 390.084C567.4 390.388 568.31 390.222 568.923 389.682L568.667 390.64L569.911 390.973L571.084 386.596C571.616 384.613 570.751 383.355 568.767 382.824ZM566.755 389.131C565.756 388.863 565.275 388.251 565.47 387.526C565.635 386.91 566.139 386.503 567.439 386.851L569.463 387.394L569.192 388.406C568.64 389.152 567.74 389.395 566.755 389.131ZM572.276 391.607L573.589 391.959L574.402 388.922L578.533 390.029L577.72 393.066L579.033 393.417L580.975 386.168L579.662 385.816L578.837 388.894L574.707 387.787L575.531 384.71L574.218 384.358L572.276 391.607ZM588.931 388.3L582.311 386.526L582.003 387.675L584.657 388.386L583.022 394.486L584.335 394.838L585.97 388.738L588.623 389.449L588.931 388.3ZM593.407 387.007L593.088 388.197L595.25 388.776L593.003 397.161L594.357 397.524L596.923 387.949L593.407 387.007Z" fill="#949EAE"/>
<path d="M539.341 339.895L540.973 344.335L544.607 341.306L547.032 341.956L541.845 346.313L544.342 353.208L541.885 352.549L540.071 347.702L536.092 350.997L533.699 350.356L539.271 345.709L536.947 339.254L539.341 339.895ZM548.008 345.057L550.002 345.591L548.497 351.208L554.71 346.852L556.529 347.34L554.246 355.861L552.251 355.327L553.756 349.71L547.56 354.07L545.724 353.578L548.008 345.057ZM565.307 358.825L566.82 353.176L562.674 357.162L561.812 356.931L560.266 351.403L558.748 357.068L556.929 356.58L559.212 348.059L561.303 348.619L562.907 354.761L567.51 350.282L569.377 350.783L567.11 359.308L565.307 358.825ZM572.069 351.504L574.063 352.038L572.558 357.655L578.771 353.3L580.59 353.787L578.307 362.308L576.312 361.774L577.817 356.157L571.62 360.517L569.785 360.025L572.069 351.504ZM590.47 356.434L588.187 364.956L586.399 364.477L587.088 361.908L584.838 361.305L582.41 363.408L580.272 362.835L583.044 360.533C582.484 360.155 582.097 359.704 581.884 359.179C581.685 358.647 581.672 358.056 581.846 357.407C582.108 356.429 582.656 355.766 583.49 355.419C584.324 355.073 585.348 355.062 586.56 355.387L590.47 356.434ZM586.175 357.079C584.888 356.734 584.115 357.046 583.855 358.014C583.599 358.972 584.093 359.617 585.338 359.951L587.46 360.519L588.234 357.631L586.175 357.079Z" fill="#301B2B"/>
<g filter="url(#filter4_d)">
<rect x="12" y="276.703" width="273.176" height="291.089" rx="26.8698" transform="rotate(-15 12 276.703)" fill="#F8F8F8"/>
</g>
<rect x="12" y="276.703" width="273.176" height="182.491" rx="26.8698" transform="rotate(-15 12 276.703)" fill="white"/>
<path d="M214.55 282.077C216.727 282.207 218.523 282.797 219.94 283.845C221.387 284.885 222.362 286.344 222.865 288.221C223.36 290.069 223.295 291.822 222.669 293.483C222.035 295.113 220.88 296.559 219.206 297.819C217.553 299.04 215.471 299.988 212.957 300.661C209.142 301.683 205.925 301.669 203.307 300.618C200.689 299.567 199.002 297.634 198.248 294.818C197.737 292.91 197.821 291.167 198.502 289.589C199.205 287.973 200.466 286.564 202.286 285.363C200.481 285.165 198.996 284.589 197.832 283.635C196.659 282.651 195.854 281.342 195.416 279.707C194.726 277.133 195.178 274.821 196.771 272.772C198.394 270.714 200.901 269.231 204.292 268.322C206.533 267.722 208.579 267.547 210.431 267.797C212.306 268.009 213.882 268.625 215.162 269.645C216.441 270.665 217.308 272.023 217.762 273.719C218.201 275.354 218.143 276.895 217.589 278.341C217.028 279.757 216.014 281.003 214.55 282.077ZM198.71 278.921C199.181 280.677 200.251 281.884 201.919 282.54C203.588 283.196 205.649 283.196 208.102 282.539C210.554 281.881 212.339 280.851 213.456 279.449C214.603 278.038 214.946 276.469 214.483 274.744C214.005 272.957 212.901 271.744 211.171 271.104C209.472 270.455 207.427 270.452 205.035 271.093C202.612 271.742 200.827 272.772 199.68 274.183C198.563 275.585 198.24 277.165 198.71 278.921ZM212.215 297.891C215.031 297.136 217.072 295.972 218.338 294.4C219.635 292.819 220.02 291.045 219.492 289.077C218.965 287.108 217.749 285.779 215.844 285.089C213.961 284.36 211.611 284.373 208.795 285.128C206.009 285.874 203.968 287.038 202.672 288.618C201.397 290.16 201.024 291.916 201.551 293.884C202.087 295.882 203.296 297.246 205.179 297.975C207.054 298.673 209.399 298.645 212.215 297.891ZM243.685 258.059L244.306 260.375L238.896 293.419L235.353 294.368L240.694 261.976L224.343 266.357L225.937 272.307L222.712 273.171L220.339 264.314L243.685 258.059Z" fill="#301B2B"/>
<path d="M52.9862 325.844C49.2602 311.938 57.4277 296.901 72.1425 293.044C86.5382 289.273 101.175 297.899 104.957 312.175C108.729 326.411 100.069 341.366 85.6116 345.068C71.6338 348.642 56.6595 340.192 52.9862 325.844Z" fill="#EFF7FE"/>
<path d="M82.0693 330.571C81.9496 330.603 81.8405 330.675 81.7207 330.707C77.6942 330.373 74.3714 328.354 71.1654 326.131C69.633 325.044 67.7841 324.213 67.2277 322.137C66.9759 320.877 67.6511 319.883 68.0945 318.823C69.5523 315.479 71.3645 312.34 73.7443 309.563C74.2655 308.953 74.7652 308.262 75.6543 308.067C78.7531 307.493 81.2395 309.267 83.7281 310.568C86.2167 311.87 88.8464 313.22 90.3647 315.851C89.9965 316.898 90.315 318.86 89.6749 320.145C88.0944 323.35 86.4127 326.497 84.0514 329.184C83.4718 329.895 83.0119 330.575 82.0693 330.571Z" fill="#2276FD"/>
<path d="M75.737 308.216C71.7423 312.154 67.3839 322.4 67.2613 322.262C65.5363 320.456 63.8362 318.423 62.8642 316.073C61.1097 311.921 63.56 307.969 68.2139 307.45C70.7058 307.167 73.1558 307.367 75.5823 307.958L75.7741 308.035L75.737 308.216Z" fill="#4383FD"/>
<path d="M75.8761 308.005C75.8041 307.896 79.2244 305.099 81.3826 304.05C86.3856 301.639 90.398 303.517 91.1928 309.039C91.5524 311.339 90.4447 316.46 90.2714 316.293C86.2353 312.41 81.549 309.053 75.8761 308.005Z" fill="#7ADFFE"/>
<path d="M67.2605 322.261C71.8793 325.869 75.5553 328.249 78.2887 329.4C79.3996 329.872 80.569 330.244 81.7199 330.706C79.4384 333.371 76.5566 334.914 73.1277 335.533C69.8585 336.109 66.9556 333.421 66.6023 329.707C66.3596 327.204 66.7548 324.554 67.2605 322.261Z" fill="#7ADFFE"/>
<path d="M90.2704 316.292C91.6921 317.845 92.7698 318.852 93.7491 320.978C96.4661 326.877 94.451 331.104 87.9197 331.484C85.8056 331.58 83.6779 331.465 81.6401 330.728C85.289 327.097 87.8533 322.772 89.5862 317.899C89.8464 317.273 90.1507 316.324 90.2704 316.292Z" fill="#4383FD"/>
<path d="M78.2837 316.606C79.9998 316.147 81.8416 317.114 82.3152 318.722C82.8287 320.638 81.8997 322.439 80.0754 322.974C78.3593 323.434 76.5574 322.456 76.0211 320.773C75.4506 318.963 76.4878 317.088 78.2837 316.606Z" fill="#0A5DFD"/>
<path d="M83.0293 409.682C83.8213 409.108 84.1656 408.265 83.8978 407.265C83.491 405.747 82.0781 405.249 80.1055 405.778L76.1994 406.824L78.6335 415.908L82.7861 414.796C85.0182 414.198 85.9133 412.97 85.496 411.413C85.1796 410.232 84.3291 409.653 83.0293 409.682ZM77.7589 407.505L80.2894 406.827C81.5352 406.494 82.375 406.825 82.6358 407.798C82.8966 408.771 82.3315 409.465 81.0857 409.799L78.5551 410.477L77.7589 407.505ZM82.4855 413.778L79.6435 414.539L78.8194 411.463L81.6614 410.702C83.024 410.337 83.8759 410.609 84.1575 411.66C84.4427 412.725 83.8481 413.412 82.4855 413.778ZM88.713 405.766C87.61 406.062 86.6682 406.648 86.1075 407.41L86.8769 408.206C87.2873 407.609 88.0413 407.101 88.8589 406.882C90.0917 406.551 90.8651 406.998 91.1467 408.049L91.2128 408.296L89.2403 408.824C87.1899 409.374 86.7195 410.473 87.0151 411.576C87.335 412.77 88.5438 413.336 90.1011 412.919C91.1782 412.631 91.8464 412.062 92.0948 411.328L92.3382 412.236L93.5191 411.92L92.4064 407.767C91.9022 405.886 90.5947 405.262 88.713 405.766ZM90.0514 411.903C89.104 412.157 88.4183 411.882 88.234 411.194C88.0775 410.61 88.2993 410.036 89.5321 409.706L91.4527 409.191L91.71 410.151C91.6107 411.026 90.9857 411.653 90.0514 411.903ZM97.5487 403.399C96.5365 403.67 95.7584 404.296 95.4055 405.211L95.1134 404.121L93.9195 404.441L96.437 413.836L97.6828 413.503L96.7301 409.947C97.4993 410.533 98.4566 410.68 99.4299 410.42C101.441 409.881 102.532 408.086 101.965 405.971C101.402 403.869 99.5602 402.86 97.5487 403.399ZM99.034 409.357C97.7233 409.708 96.4667 409.016 96.0738 407.55C95.6844 406.096 96.4263 404.868 97.737 404.517C99.0606 404.162 100.317 404.855 100.707 406.308C101.1 407.775 100.358 409.003 99.034 409.357ZM104.697 408.925L105.839 408.619L108.701 402.483L110.043 407.492L111.289 407.158L109.446 400.281L108.317 400.583L105.442 406.722L104.1 401.713L102.854 402.047L104.697 408.925ZM114.3 398.911C113.197 399.206 112.255 399.792 111.694 400.554L112.464 401.35C112.874 400.753 113.628 400.245 114.446 400.026C115.678 399.696 116.452 400.142 116.733 401.193L116.799 401.44L114.827 401.968C112.777 402.518 112.306 403.617 112.602 404.72C112.922 405.914 114.13 406.481 115.688 406.063C116.765 405.775 117.433 405.206 117.682 404.472L117.925 405.38L119.106 405.064L117.993 400.911C117.489 399.03 116.181 398.406 114.3 398.911ZM115.638 405.047C114.691 405.301 114.005 405.026 113.821 404.338C113.664 403.754 113.886 403.18 115.119 402.85L117.039 402.335L117.297 403.295C117.197 404.171 116.572 404.797 115.638 405.047ZM121.349 404.463L122.595 404.129L121.823 401.248L125.742 400.198L126.514 403.079L127.76 402.745L125.917 395.867L124.671 396.201L125.453 399.121L121.534 400.171L120.752 397.251L119.506 397.585L121.349 404.463ZM133.465 393.845L127.184 395.528L127.476 396.618L129.994 395.943L131.545 401.731L132.791 401.397L131.24 395.609L133.757 394.935L133.465 393.845ZM136.53 390.659L136.833 391.788L138.883 391.239L141.014 399.194L142.299 398.849L139.865 389.765L136.53 390.659Z" fill="#949EAE"/>
<path d="M246.09 367.45L244.364 367.913L243.836 365.94L242.616 366.267L243.144 368.24L239.654 369.175L242.568 362.246L241.166 362.622L238.113 369.81L238.356 370.719L243.405 369.366L244.003 371.598L245.261 371.261L244.663 369.029L246.389 368.566L246.09 367.45ZM248.859 364.441L247.847 364.713L247.426 362.155L251.461 361.073L251.159 359.944L246.033 361.318L246.825 366.196L248.889 365.643C250.991 365.08 251.81 365.542 252.085 366.567C252.349 367.553 251.741 368.398 250.365 368.767C249.262 369.062 248.142 368.931 247.379 368.524L247.057 369.709C248.02 370.188 249.403 370.262 250.688 369.918C253.011 369.296 253.79 367.738 253.369 366.168C252.938 364.558 251.571 363.715 248.859 364.441ZM264.166 358.824L262.634 364.214L258.69 360.291L257.405 360.635L259.248 367.513L260.39 367.207L259.041 362.172L262.725 365.747L263.27 365.601L264.702 360.669L266.048 365.691L267.177 365.389L265.334 358.511L264.166 358.824ZM269.602 364.739L270.744 364.433L273.606 358.297L274.948 363.306L276.194 362.972L274.351 356.095L273.222 356.397L270.347 362.536L269.005 357.527L267.759 357.861L269.602 364.739ZM278.612 362.324L279.858 361.991L279.086 359.11L283.005 358.06L283.777 360.941L285.023 360.607L283.18 353.729L281.934 354.063L282.717 356.983L278.798 358.033L278.015 355.113L276.769 355.447L278.612 362.324ZM287.739 359.963C288.206 359.837 288.494 359.357 288.355 358.838C288.216 358.319 287.73 358.059 287.262 358.185C286.782 358.313 286.477 358.784 286.616 359.304C286.755 359.823 287.259 360.091 287.739 359.963Z" fill="#949EAE"/>
<path d="M82.085 380.064C82.4582 381.457 82.2686 382.687 81.516 383.754C80.7634 384.821 79.5033 385.629 77.7357 386.179L78.0359 387.299L76.2191 387.786L75.9189 386.665C74.108 387.053 72.6063 386.98 71.4135 386.445C70.2309 385.907 69.453 384.942 69.0798 383.549C68.7066 382.156 68.8976 380.931 69.6529 379.874C70.4156 378.804 71.678 377.984 73.4402 377.415L73.1522 376.34L74.969 375.853L75.257 376.928C77.0679 376.54 78.566 376.62 79.7513 377.168C80.9339 377.706 81.7118 378.671 82.085 380.064ZM77.3219 384.634C78.5088 384.219 79.3461 383.67 79.834 382.988C80.3191 382.295 80.4373 381.484 80.1885 380.556C79.9397 379.627 79.4283 378.991 78.6545 378.646C77.8908 378.299 76.8976 378.246 75.6749 378.487L77.3219 384.634ZM71.0026 383.033C71.2487 383.952 71.7536 384.585 72.5173 384.932C73.2911 385.276 74.287 385.339 75.5051 385.121L73.8581 378.974C71.4541 379.813 70.5022 381.166 71.0026 383.033ZM83.1976 376.796L85.0901 376.289L86.5181 381.618L89.5564 375.092L91.2824 374.63L93.4487 382.715L91.5562 383.222L90.1282 377.893L87.105 384.414L85.3639 384.881L83.1976 376.796ZM99.5928 376.557C100.135 376.563 100.586 376.691 100.945 376.941C101.312 377.179 101.554 377.519 101.673 377.963C101.806 378.458 101.757 378.941 101.527 379.414C101.294 379.877 100.913 380.293 100.384 380.662C99.8556 381.03 99.2179 381.315 98.471 381.515C97.8452 381.683 97.2156 381.776 96.5822 381.794C95.9462 381.802 95.3494 381.735 94.7919 381.592L94.9596 380.038C95.4128 380.155 95.9029 380.207 96.4299 380.196C96.9569 380.184 97.4677 380.112 97.9623 379.98C98.5982 379.81 99.067 379.581 99.3689 379.295C99.6782 378.995 99.7868 378.674 99.6949 378.331C99.6111 378.018 99.4048 377.814 99.0762 377.718C98.7578 377.619 98.3462 377.638 97.8415 377.773L96.267 378.195L95.9262 376.923L97.3493 376.542C97.8237 376.415 98.1705 376.235 98.3897 376.003C98.6189 375.769 98.6943 375.505 98.6159 375.213C98.5374 374.92 98.3138 374.731 97.9448 374.646C97.5758 374.561 97.1087 374.594 96.5435 374.746C95.736 374.962 94.9359 375.387 94.1431 376.022L93.2854 374.759C94.2126 373.98 95.2163 373.446 96.2963 373.157C96.9826 372.973 97.624 372.904 98.2204 372.949C98.8141 372.985 99.3084 373.134 99.7031 373.396C100.105 373.645 100.364 373.987 100.481 374.421C100.586 374.814 100.56 375.2 100.401 375.578C100.24 375.946 99.9708 376.272 99.5928 376.557ZM102.108 371.729L104 371.222L105.428 376.551L108.467 370.025L110.193 369.563L112.359 377.648L110.466 378.155L109.038 372.826L106.015 379.347L104.274 379.814L102.108 371.729ZM117.398 372.825L115.929 373.219L116.797 376.458L114.905 376.966L112.738 368.881L114.631 368.374L115.507 371.644L117.021 371.238L118.537 367.327L120.566 366.784L118.671 371.461L122.929 374.816L120.703 375.412L117.398 372.825ZM124.938 365.515C126.129 365.195 127.114 365.24 127.894 365.647C128.682 366.042 129.23 366.815 129.538 367.966L130.808 372.704L129.021 373.183L128.757 372.199C128.62 372.614 128.36 372.976 127.977 373.284C127.602 373.58 127.112 373.808 126.506 373.971C125.9 374.133 125.343 374.174 124.835 374.094C124.324 374.003 123.894 373.81 123.544 373.515C123.202 373.206 122.968 372.82 122.844 372.355C122.649 371.629 122.761 370.977 123.18 370.399C123.606 369.809 124.399 369.359 125.56 369.048L127.649 368.488L127.617 368.367C127.465 367.801 127.178 367.413 126.753 367.203C126.339 366.989 125.799 366.972 125.133 367.15C124.679 367.272 124.248 367.463 123.842 367.723C123.446 367.981 123.13 368.276 122.895 368.61L121.784 367.431C122.121 366.994 122.565 366.61 123.114 366.279C123.664 365.948 124.272 365.693 124.938 365.515ZM126.53 372.487C127.005 372.36 127.395 372.142 127.702 371.833C128.016 371.511 128.194 371.127 128.238 370.683L127.986 369.744L126.033 370.268C124.943 370.56 124.494 371.064 124.686 371.781C124.778 372.124 124.987 372.36 125.314 372.489C125.64 372.618 126.046 372.617 126.53 372.487Z" fill="#301B2B"/>
<path d="M285.649 423.809L284.131 424.216L283.499 420.38L289.553 418.758L289.099 417.064L281.41 419.124L282.599 426.442L285.694 425.612C288.848 424.768 290.076 425.461 290.488 426.998C290.885 428.478 289.973 429.744 287.909 430.297C286.255 430.741 284.575 430.544 283.43 429.933L282.947 431.71C284.391 432.429 286.466 432.541 288.393 432.025C291.877 431.091 293.045 428.754 292.414 426.399C291.767 423.985 289.717 422.719 285.649 423.809ZM305.638 421.854L303.049 422.548L302.257 419.589L300.427 420.079L301.22 423.038L295.983 424.441L300.355 414.048L298.252 414.612L293.673 425.394L294.038 426.757L301.61 424.728L302.507 428.076L304.395 427.57L303.498 424.222L306.087 423.528L305.638 421.854Z" fill="#301B2B"/>
<path d="M263.04 243.399C262.832 242.622 263.307 241.82 264.102 241.607C264.897 241.394 265.71 241.851 265.918 242.628C266.127 243.404 265.651 244.207 264.856 244.42C264.061 244.633 263.248 244.176 263.04 243.399ZM263.14 249.632L261.59 247.879C261.59 247.879 261.731 247.758 262.412 247.177C263.229 246.48 264.358 246.281 265.36 246.66C266.361 247.038 267.052 247.924 267.165 248.973C267.169 249.009 267.171 249.046 267.172 249.083L267.209 252.881C267.251 253.111 267.419 253.208 267.52 253.246C267.626 253.286 267.835 253.328 268.037 253.155L268.719 252.572L270.271 254.324L269.589 254.907C269.249 255.197 268.854 255.401 268.437 255.513C267.853 255.67 267.225 255.645 266.641 255.424C265.64 255.046 264.949 254.16 264.836 253.111C264.832 253.075 264.83 253.038 264.83 253.001L264.792 249.203C264.75 248.973 264.582 248.876 264.481 248.838C264.375 248.798 264.166 248.756 263.964 248.929C263.281 249.512 263.14 249.632 263.14 249.632Z" fill="#3760FB"/>
</g>
</g>
<defs>
<filter id="filter0_d" x="-144.85" y="94.8033" width="321.807" height="331.072" filterUnits="userSpaceOnUse" color-interpolation-filters="sRGB">
<feFlood flood-opacity="0" result="BackgroundImageFix"/>
<feColorMatrix in="SourceAlpha" type="matrix" values="0 0 0 0 0 0 0 0 0 0 0 0 0 0 0 0 0 0 127 0"/>
<feOffset dy="19.6534"/>
<feGaussianBlur stdDeviation="18.4251"/>
<feColorMatrix type="matrix" values="0 0 0 0 0 0 0 0 0 0 0 0 0 0 0 0 0 0 0.16 0"/>
<feBlend mode="normal" in2="BackgroundImageFix" result="effect1_dropShadow"/>
<feBlend mode="normal" in="SourceGraphic" in2="effect1_dropShadow" result="shape"/>
</filter>
<filter id="filter1_d" x="365.212" y="77.4717" width="319.174" height="328.718" filterUnits="userSpaceOnUse" color-interpolation-filters="sRGB">
<feFlood flood-opacity="0" result="BackgroundImageFix"/>
<feColorMatrix in="SourceAlpha" type="matrix" values="0 0 0 0 0 0 0 0 0 0 0 0 0 0 0 0 0 0 127 0"/>
<feOffset dy="19.2594"/>
<feGaussianBlur stdDeviation="18.0557"/>
<feColorMatrix type="matrix" values="0 0 0 0 0 0 0 0 0 0 0 0 0 0 0 0 0 0 0.12 0"/>
<feBlend mode="normal" in2="BackgroundImageFix" result="effect1_dropShadow"/>
<feBlend mode="normal" in="SourceGraphic" in2="effect1_dropShadow" result="shape"/>
</filter>
<filter id="filter2_d" x="530.216" y="-5.22702" width="470.702" height="484.635" filterUnits="userSpaceOnUse" color-interpolation-filters="sRGB">
<feFlood flood-opacity="0" result="BackgroundImageFix"/>
<feColorMatrix in="SourceAlpha" type="matrix" values="0 0 0 0 0 0 0 0 0 0 0 0 0 0 0 0 0 0 127 0"/>
<feOffset dy="29.5572"/>
<feGaussianBlur stdDeviation="27.7098"/>
<feColorMatrix type="matrix" values="0 0 0 0 0 0 0 0 0 0 0 0 0 0 0 0 0 0 0.12 0"/>
<feBlend mode="normal" in2="BackgroundImageFix" result="effect1_dropShadow"/>
<feBlend mode="normal" in="SourceGraphic" in2="effect1_dropShadow" result="shape"/>
</filter>
<filter id="filter3_d" x="413.704" y="198.703" width="451.011" height="464.361" filterUnits="userSpaceOnUse" color-interpolation-filters="sRGB">
<feFlood flood-opacity="0" result="BackgroundImageFix"/>
<feColorMatrix in="SourceAlpha" type="matrix" values="0 0 0 0 0 0 0 0 0 0 0 0 0 0 0 0 0 0 127 0"/>
<feOffset dy="28.3207"/>
<feGaussianBlur stdDeviation="26.5506"/>
<feColorMatrix type="matrix" values="0 0 0 0 0 0 0 0 0 0 0 0 0 0 0 0 0 0 0.12 0"/>
<feBlend mode="normal" in2="BackgroundImageFix" result="effect1_dropShadow"/>
<feBlend mode="normal" in="SourceGraphic" in2="effect1_dropShadow" result="shape"/>
</filter>
<filter id="filter4_d" x="-32.3487" y="188.521" width="427.905" height="440.571" filterUnits="userSpaceOnUse" color-interpolation-filters="sRGB">
<feFlood flood-opacity="0" result="BackgroundImageFix"/>
<feColorMatrix in="SourceAlpha" type="matrix" values="0 0 0 0 0 0 0 0 0 0 0 0 0 0 0 0 0 0 127 0"/>
<feOffset dy="26.8698"/>
<feGaussianBlur stdDeviation="25.1904"/>
<feColorMatrix type="matrix" values="0 0 0 0 0 0 0 0 0 0 0 0 0 0 0 0 0 0 0.12 0"/>
<feBlend mode="normal" in2="BackgroundImageFix" result="effect1_dropShadow"/>
<feBlend mode="normal" in="SourceGraphic" in2="effect1_dropShadow" result="shape"/>
</filter>
</defs>
</svg>
