<svg width="24" height="24" viewBox="0 0 24 24" fill="none" xmlns="http://www.w3.org/2000/svg">
<path d="M12 0C5.38293 0 0 5.38293 0 12C0 18.6171 5.38293 24 12 24C18.6171 24 24 18.6171 24 12C24 5.38293 18.6171 0 12 0Z" fill="#51E48E"/>
<path d="M18.0827 9.45666L11.5826 15.9565C11.3876 16.1515 11.1316 16.2497 10.8756 16.2497C10.6197 16.2497 10.3637 16.1515 10.1687 15.9565L6.91873 12.7066C6.52762 12.3157 6.52762 11.6836 6.91873 11.2927C7.30966 10.9015 7.94156 10.9015 8.33267 11.2927L10.8756 13.8356L16.6687 8.04272C17.0597 7.65161 17.6916 7.65161 18.0827 8.04272C18.4736 8.43365 18.4736 9.06555 18.0827 9.45666Z" fill="#FAFAFA"/>
</svg>
