<svg width="76" height="44" viewBox="0 0 76 44" fill="none" xmlns="http://www.w3.org/2000/svg">
<circle cx="2" cy="2" r="2" fill="#C0D8FF"/>
<circle cx="2" cy="10" r="2" fill="#C0D8FF"/>
<circle cx="2" cy="18" r="2" fill="#C0D8FF"/>
<circle cx="2" cy="26" r="2" fill="#C0D8FF"/>
<circle cx="2" cy="34" r="2" fill="#C0D8FF"/>
<circle cx="2" cy="42" r="2" fill="#C0D8FF"/>
<circle cx="10" cy="2" r="2" fill="#C0D8FF"/>
<circle cx="10" cy="10" r="2" fill="#C0D8FF"/>
<circle cx="10" cy="18" r="2" fill="#C0D8FF"/>
<circle cx="10" cy="26" r="2" fill="#C0D8FF"/>
<circle cx="10" cy="34" r="2" fill="#C0D8FF"/>
<circle cx="10" cy="42" r="2" fill="#C0D8FF"/>
<circle cx="18" cy="2" r="2" fill="#C0D8FF"/>
<circle cx="18" cy="10" r="2" fill="#C0D8FF"/>
<circle cx="18" cy="18" r="2" fill="#C0D8FF"/>
<circle cx="18" cy="26" r="2" fill="#C0D8FF"/>
<circle cx="18" cy="34" r="2" fill="#C0D8FF"/>
<circle cx="18" cy="42" r="2" fill="#C0D8FF"/>
<circle cx="26" cy="2" r="2" fill="#C0D8FF"/>
<circle cx="26" cy="10" r="2" fill="#C0D8FF"/>
<circle cx="26" cy="18" r="2" fill="#C0D8FF"/>
<circle cx="26" cy="26" r="2" fill="#C0D8FF"/>
<circle cx="26" cy="34" r="2" fill="#C0D8FF"/>
<circle cx="26" cy="42" r="2" fill="#C0D8FF"/>
<circle cx="34" cy="2" r="2" fill="#C0D8FF"/>
<circle cx="34" cy="10" r="2" fill="#C0D8FF"/>
<circle cx="34" cy="18" r="2" fill="#C0D8FF"/>
<circle cx="34" cy="26" r="2" fill="#C0D8FF"/>
<circle cx="34" cy="34" r="2" fill="#C0D8FF"/>
<circle cx="34" cy="42" r="2" fill="#C0D8FF"/>
<circle cx="42" cy="2" r="2" fill="#C0D8FF"/>
<circle cx="42" cy="10" r="2" fill="#C0D8FF"/>
<circle cx="42" cy="18" r="2" fill="#C0D8FF"/>
<circle cx="42" cy="26" r="2" fill="#C0D8FF"/>
<circle cx="42" cy="34" r="2" fill="#C0D8FF"/>
<circle cx="42" cy="42" r="2" fill="#C0D8FF"/>
<circle cx="50" cy="2" r="2" fill="#C0D8FF"/>
<circle cx="50" cy="10" r="2" fill="#C0D8FF"/>
<circle cx="50" cy="18" r="2" fill="#C0D8FF"/>
<circle cx="50" cy="26" r="2" fill="#C0D8FF"/>
<circle cx="50" cy="34" r="2" fill="#C0D8FF"/>
<circle cx="50" cy="42" r="2" fill="#C0D8FF"/>
<circle cx="58" cy="2" r="2" fill="#C0D8FF"/>
<circle cx="58" cy="10" r="2" fill="#C0D8FF"/>
<circle cx="58" cy="18" r="2" fill="#C0D8FF"/>
<circle cx="58" cy="26" r="2" fill="#C0D8FF"/>
<circle cx="58" cy="34" r="2" fill="#C0D8FF"/>
<circle cx="58" cy="42" r="2" fill="#C0D8FF"/>
<circle cx="66" cy="2" r="2" fill="#C0D8FF"/>
<circle cx="66" cy="10" r="2" fill="#C0D8FF"/>
<circle cx="66" cy="18" r="2" fill="#C0D8FF"/>
<circle cx="66" cy="26" r="2" fill="#C0D8FF"/>
<circle cx="66" cy="34" r="2" fill="#C0D8FF"/>
<circle cx="66" cy="42" r="2" fill="#C0D8FF"/>
<circle cx="74" cy="2" r="2" fill="#C0D8FF"/>
<circle cx="74" cy="10" r="2" fill="#C0D8FF"/>
<circle cx="74" cy="18" r="2" fill="#C0D8FF"/>
<circle cx="74" cy="26" r="2" fill="#C0D8FF"/>
<circle cx="74" cy="34" r="2" fill="#C0D8FF"/>
<circle cx="74" cy="42" r="2" fill="#C0D8FF"/>
</svg>
