<svg width="32" height="32" viewBox="0 0 32 32" fill="none" xmlns="http://www.w3.org/2000/svg">
<path d="M16 0C24.836 0 32 7.16396 32 16C32 24.837 24.836 32 16 32C7.16295 32 0 24.8381 0 16C0 7.16396 7.16307 0 16 0ZM16 29C23.18 29 29 23.18 29 16C29 8.82004 23.18 3.00005 16 3.00005C8.82004 3.00005 3.00005 8.82004 3.00005 16C3.00005 23.18 8.82004 29 16 29ZM15.999 7.01697C17.145 7.01697 18.012 7.61501 18.012 8.58098V17.441C18.012 18.4079 17.1451 19.004 15.999 19.004C14.881 19.004 13.9859 18.383 13.9859 17.441V8.58098C13.9861 7.63794 14.881 7.01697 15.999 7.01697ZM15.999 21C17.1 21 17.996 21.8961 17.996 22.998C17.996 24.0979 17.1 24.994 15.999 24.994C14.898 24.994 14.003 24.0979 14.003 22.998C14.0031 21.896 14.898 21 15.999 21Z" fill="#F15767"/>
</svg>
