<svg width="220" height="254" viewBox="0 0 220 254" fill="none" xmlns="http://www.w3.org/2000/svg">
<path opacity="0.5" d="M102.592 230.631L8.57863 176.318C6.47007 175.082 6.47007 172.028 8.57863 170.865L97.9381 119.242L197.986 176.972C200.094 178.208 200.094 181.262 197.986 182.425L114.589 230.558C110.88 232.74 106.3 232.74 102.592 230.631Z" fill="#173D7A" fill-opacity="0.2"/>
<path d="M99.9014 90.3762C99.9014 84.4141 95.6842 81.942 90.5219 84.9231L2.61659 135.601C1.16241 136.401 0.0717697 138.437 0.0717697 140.036C0.0717697 141.708 1.23512 142.363 2.61659 141.49L90.5219 90.8852C92.8486 89.5764 94.739 90.667 94.739 93.3573V103.173C96.4113 103.1 98.1563 103.1 99.9014 103.1V90.3762Z" fill="#FB8D34"/>
<path d="M2.54482 159.231L90.4501 127.167C95.6125 124.186 99.8296 116.915 99.8296 110.953V103.1C98.0846 103.1 96.4123 103.1 94.6673 103.173V113.934C94.6673 116.624 92.7768 119.896 90.4501 121.277L2.54482 153.269C1.09064 154.069 0 156.105 0 157.704C0 159.377 1.16335 160.031 2.54482 159.231Z" fill="#CE7127"/>
<path d="M0.653412 159.304L107.608 221.252L198.204 167.229L205.33 156.468L204.602 160.322L202.712 150.361L34.6086 156.759L4.94325 154.869L0.653412 159.304Z" fill="#CE7127"/>
<path d="M4.21677 140.691V153.851L107.536 213.617L110.372 201.111L4.21677 140.691Z" fill="#F5F7FF"/>
<path d="M204.023 146.144L97.2128 84.3414L0.945993 140.327L0.800575 141.708L107.683 203.583L204.023 146.144Z" fill="#FB8D34"/>
<path d="M169.994 177.845L195.078 162.939C197.187 161.485 198.859 158.431 198.859 155.959V153.996C198.859 152.397 198.205 151.379 197.187 151.088L147.745 178.572L107.464 200.312L107.537 213.617L169.994 177.845Z" fill="white"/>
<path d="M111.099 201.548L5.01682 140.109L2.76284 138.873L0.726983 137.637C0.290729 138.437 0.0726013 139.236 0.0726013 140.036C0.0726013 140.836 0.363438 141.418 0.799692 141.708L107.682 203.583L111.099 201.548Z" fill="#CE7127"/>
<path d="M106.3 220.452L107.609 221.252L107.9 220.815L107.027 220.161L106.3 220.452Z" fill="white"/>
<path d="M106.3 202.784L107.682 203.583L107.318 202.784H106.3Z" fill="white"/>
<path d="M109.572 197.476L197.478 146.798C202.64 143.817 206.857 146.216 206.857 152.251V154.214C206.857 160.176 202.64 167.447 197.478 170.428L109.572 221.106C108.118 221.906 107.028 221.252 107.028 219.652C107.028 217.98 108.191 216.017 109.572 215.217L197.478 164.539C199.804 163.23 201.695 159.886 201.695 157.195V155.232C201.695 152.542 199.804 151.451 197.478 152.76L109.572 203.438C108.118 204.238 107.028 203.583 107.028 201.984C106.955 200.311 108.118 198.276 109.572 197.476Z" fill="#FB8D34"/>
<path d="M106.956 219.579C106.956 217.907 108.119 215.944 109.501 215.144L197.406 164.466C199.733 163.158 201.623 159.813 201.623 157.123V155.16C201.623 153.415 200.823 152.324 199.587 152.179C199.951 152.688 200.242 153.415 200.242 154.36V156.323C200.242 159.013 198.351 162.285 196.025 163.667L108.119 214.344C106.665 215.144 105.574 217.18 105.574 218.78C105.574 220.016 106.229 220.67 107.174 220.597C107.029 220.306 106.956 220.016 106.956 219.579Z" fill="white"/>
<path d="M106.956 201.911C106.956 200.239 108.119 198.276 109.501 197.476L197.406 146.798C199.66 145.489 201.696 145.271 203.295 145.78C201.55 144.326 198.933 144.253 196.024 145.926L108.119 196.603C106.665 197.403 105.574 199.439 105.574 201.039C105.574 202.275 106.229 202.929 107.174 202.856C107.028 202.638 106.956 202.347 106.956 201.911Z" fill="white"/>
<path d="M207.587 55.3307L112.774 0.581202C111.684 -0.0731746 110.52 -0.145883 109.575 0.21766L109.43 0.290368C109.43 0.290368 109.43 0.290368 109.357 0.290368L105.94 1.59912L108.993 3.126C108.993 3.19871 108.993 3.27142 108.921 3.27142L93.4335 73.5806C92.6337 77.0706 94.2333 81.215 96.9236 82.7419L189.482 136.183L189.119 140.109L192.9 138.655C194.136 138.073 195.154 136.764 195.59 134.874L211.077 64.5647C211.877 61.002 210.277 56.9303 207.587 55.3307Z" fill="#173D7A"/>
<path d="M207.586 55.3307L112.774 0.581202C111.683 -0.0731746 110.52 -0.145883 109.575 0.21766L109.429 0.290368C109.429 0.290368 109.429 0.290368 109.356 0.290368L105.939 1.59912L108.993 3.126C108.993 3.19871 108.993 3.27142 108.92 3.27142L98.7409 49.6595L145.129 85.7956L210.567 59.1843C209.986 57.512 208.968 56.1305 207.586 55.3307Z" fill="#396CAA"/>
<path d="M204.024 66.1642L211.222 63.1105C211.367 60.3476 210.204 57.4392 208.313 55.9124L196.898 60.7111L204.024 66.1642Z" fill="#2A5EA9"/>
<path d="M185.918 139.745L91.0329 84.9958C88.3426 83.4689 86.8157 79.3246 87.5428 75.8345L103.03 5.5254C103.83 2.03539 106.593 0.435799 109.283 1.96268L204.168 56.7122C206.858 58.2391 208.385 62.3835 207.658 65.8735L192.171 136.183C191.371 139.745 188.608 141.345 185.918 139.745Z" fill="#E3E9FF"/>
<path d="M205.042 56.3486L110.229 1.59907C108.92 0.871981 107.612 0.871981 106.521 1.45365C107.393 1.23552 108.411 1.38094 109.357 1.96261L204.169 56.7121C206.86 58.239 208.386 62.3834 207.659 65.8734L192.172 136.183C191.809 138 190.864 139.309 189.627 139.891C191.227 139.527 192.536 138.073 193.045 135.819L208.532 65.5099C209.332 62.0199 207.732 57.8755 205.042 56.3486Z" fill="white"/>
<path d="M183.811 134.51L94.5966 83.0326C92.1244 81.6512 90.743 77.8703 91.3973 74.5984L105.503 10.2514C106.23 7.05222 108.775 5.59805 111.247 6.97952L200.461 58.4572C202.933 59.8386 204.315 63.6195 203.66 66.8913L189.555 131.238C188.9 134.51 186.283 135.964 183.811 134.51Z" fill="white"/>
<path d="M183.811 134.51L94.5966 83.0326C92.1244 81.6512 90.743 77.8703 91.3973 74.5984L105.503 10.2514C106.23 7.05222 108.775 5.59805 111.247 6.97952L200.461 58.4572C202.933 59.8386 204.315 63.6195 203.66 66.8913L189.555 131.238C188.9 134.51 186.283 135.964 183.811 134.51Z" fill="white"/>
<path d="M184.611 134.22L95.3965 82.7419C92.9244 81.3604 91.5429 77.5796 92.1973 74.3077L106.303 9.96064C106.666 8.36105 107.466 7.125 108.557 6.54333C107.175 6.90688 105.939 8.21563 105.503 10.2515L91.3975 74.5985C90.6704 77.7977 92.1246 81.5785 94.5967 83.0327L183.811 134.51C185.047 135.237 186.283 135.237 187.301 134.656C186.501 134.874 185.556 134.728 184.611 134.22Z" fill="#B8C1E2"/>
<path d="M187.227 142.145L174.285 140.4L90.5971 92.0485C87.9068 90.5216 83.2535 90.667 80.127 92.4848L20.7963 126.73L12.9438 125.713V130.148C12.871 131.166 13.4527 132.184 14.7615 132.911L109.647 187.66C112.337 189.187 116.99 189.042 120.117 187.224L184.683 149.925C186.428 148.907 187.3 147.598 187.227 146.434V142.145Z" fill="#173D7A"/>
<path d="M124.334 111.607L118.372 108.19H53.0065L20.7963 126.803L12.9438 125.785V130.221C12.871 131.238 13.4527 132.256 14.7615 132.983L109.647 187.733C111.101 188.533 113.064 188.896 115.027 188.751L124.334 111.607Z" fill="#396CAA"/>
<path d="M16.3612 126.222L12.8712 125.785V130.22C12.7984 131.238 13.3801 132.256 14.6889 132.983L16.3612 133.929V126.222Z" fill="#B8C1E2"/>
<path d="M110.52 188.169C113.065 189.114 116.7 188.896 119.39 187.588V177.699H110.52V188.169Z" fill="#2A5EA9"/>
<path d="M109.574 183.298L14.6887 128.475C11.9984 126.949 12.362 124.186 15.4158 122.441L79.9815 85.1412C83.1079 83.3235 87.7613 83.1781 90.4516 84.7049L185.41 139.527C188.1 141.054 187.736 143.817 184.683 145.562L120.117 182.861C116.99 184.606 112.264 184.825 109.574 183.298Z" fill="#E3E9FF"/>
<path d="M184.682 143.962L120.116 181.262C116.99 183.08 112.337 183.225 109.646 181.698L14.6882 126.876C13.8157 126.367 13.234 125.713 13.0159 125.058C12.5796 126.294 13.1613 127.603 14.6882 128.476L109.574 183.225C112.264 184.752 116.917 184.607 120.044 182.789L184.609 145.489C186.718 144.253 187.518 142.654 187.009 141.272C186.791 142.29 185.918 143.163 184.682 143.962Z" fill="white"/>
<path d="M55.042 110.371L50.7522 107.899C50.3886 107.681 50.4613 107.317 50.8249 107.099L55.9145 104.191C56.2781 103.973 56.9324 103.9 57.2233 104.118L61.5131 106.59C61.8767 106.808 61.8039 107.172 61.4404 107.39L56.3508 110.298C55.9872 110.517 55.4055 110.589 55.042 110.371Z" fill="#B8C1E2"/>
<path d="M61.6585 114.225L57.3687 111.753C57.0052 111.534 57.0779 111.171 57.4414 110.953L62.5311 108.044C62.8946 107.826 63.549 107.754 63.8398 107.972L68.1296 110.444C68.4932 110.662 68.4205 111.025 68.0569 111.244L62.9673 114.152C62.6765 114.37 62.0221 114.37 61.6585 114.225Z" fill="#B8C1E2"/>
<path d="M68.3477 118.005L64.0579 115.533C63.6943 115.315 63.767 114.952 64.1306 114.734L69.2202 111.825C69.5837 111.607 70.2381 111.534 70.529 111.753L74.8188 114.225C75.1823 114.443 75.1096 114.806 74.7461 115.024L69.6565 117.933C69.2929 118.224 68.6385 118.224 68.3477 118.005Z" fill="#B8C1E2"/>
<path d="M77.5092 114.879L73.2194 112.407C72.8558 112.189 72.9285 111.825 73.2921 111.607L77.5092 109.135C77.8728 108.917 78.5271 108.844 78.818 109.062L83.1078 111.534C83.4714 111.753 83.3987 112.116 83.0351 112.334L78.818 114.806C78.4544 115.024 77.8001 115.024 77.5092 114.879Z" fill="#B8C1E2"/>
<path d="M84.1258 118.66L79.8359 116.188C79.4724 115.97 79.5451 115.606 79.9086 115.388L84.1258 112.916C84.4893 112.698 85.1437 112.625 85.4345 112.843L89.7244 115.315C90.0879 115.533 90.0152 115.897 89.6517 116.115L85.4345 118.587C85.071 118.878 84.4893 118.878 84.1258 118.66Z" fill="#B8C1E2"/>
<path d="M90.7423 122.513L86.4525 120.041C86.0889 119.823 86.1616 119.46 86.5252 119.242L90.7423 116.769C91.1059 116.551 91.7602 116.479 92.0511 116.697L96.3409 119.169C96.7045 119.387 96.6317 119.75 96.2682 119.969L92.0511 122.441C91.6875 122.659 91.1059 122.732 90.7423 122.513Z" fill="#B8C1E2"/>
<path d="M97.3588 126.367L93.069 123.895C92.7055 123.677 92.7782 123.313 93.1417 123.095L97.3588 120.623C97.7224 120.405 98.3768 120.332 98.6676 120.55L102.957 123.022C103.321 123.24 103.248 123.604 102.885 123.822L98.6676 126.294C98.3041 126.512 97.7224 126.512 97.3588 126.367Z" fill="#B8C1E2"/>
<path d="M103.975 130.148L99.6856 127.676C99.322 127.458 99.3947 127.094 99.7583 126.876L103.975 124.404C104.339 124.186 104.993 124.113 105.284 124.331L109.574 126.803C109.938 127.021 109.865 127.385 109.501 127.603L105.284 130.075C104.921 130.366 104.339 130.366 103.975 130.148Z" fill="#B8C1E2"/>
<path d="M110.665 134.001L106.375 131.529C106.011 131.311 106.084 130.948 106.447 130.729L110.665 128.257C111.028 128.039 111.682 127.966 111.973 128.185L116.263 130.657C116.627 130.875 116.554 131.238 116.19 131.457L111.973 133.929C111.61 134.147 110.955 134.219 110.665 134.001Z" fill="#B8C1E2"/>
<path d="M117.281 137.855L112.991 135.383C112.628 135.165 112.7 134.801 113.064 134.583L117.281 132.111C117.645 131.893 118.299 131.82 118.59 132.038L122.88 134.51C123.243 134.728 123.171 135.092 122.807 135.31L118.59 137.782C118.226 138 117.572 138 117.281 137.855Z" fill="#B8C1E2"/>
<path d="M123.898 141.636L119.608 139.164C119.244 138.946 119.317 138.582 119.681 138.364L123.898 135.892C124.261 135.674 124.916 135.601 125.206 135.819L129.496 138.291C129.86 138.509 129.787 138.873 129.424 139.091L125.206 141.563C124.843 141.854 124.261 141.854 123.898 141.636Z" fill="#B8C1E2"/>
<path d="M130.514 145.489L126.224 143.017C125.861 142.799 125.933 142.436 126.297 142.217L130.514 139.745C130.878 139.527 131.532 139.455 131.823 139.673L136.113 142.145C136.476 142.363 136.404 142.726 136.04 142.945L131.823 145.417C131.459 145.635 130.878 145.707 130.514 145.489Z" fill="#B8C1E2"/>
<path d="M137.131 149.27L132.841 146.798C132.477 146.58 132.55 146.216 132.914 145.998L137.131 143.526C137.494 143.308 138.149 143.235 138.439 143.453L142.729 145.926C143.093 146.144 143.02 146.507 142.657 146.725L138.439 149.197C138.076 149.488 137.494 149.488 137.131 149.27Z" fill="#B8C1E2"/>
<path d="M87.2516 113.061L82.9617 110.589C82.5982 110.371 82.6709 110.008 83.0344 109.789L87.2516 107.317C87.6151 107.099 88.2695 107.026 88.5603 107.245L92.8501 109.717C93.2137 109.935 93.141 110.298 92.7774 110.516L88.5603 112.989C88.1968 113.207 87.6151 113.279 87.2516 113.061Z" fill="#B8C1E2"/>
<path d="M80.5624 109.135L76.2726 106.663C75.909 106.445 75.9817 106.081 76.3453 105.863L80.5624 103.391C80.9259 103.173 81.5803 103.1 81.8712 103.318L86.161 105.79C86.5245 106.009 86.4518 106.372 86.0883 106.59L81.8712 109.062C81.5076 109.353 80.8532 109.353 80.5624 109.135Z" fill="#B8C1E2"/>
<path d="M73.8001 105.281L64.5661 99.9737C64.2025 99.7556 64.2752 99.3921 64.6388 99.1739L68.8559 96.7019C69.2194 96.4837 69.8738 96.411 70.1647 96.6291L79.3987 101.937C79.7623 102.155 79.6896 102.519 79.326 102.737L75.1089 105.209C74.7453 105.427 74.1637 105.5 73.8001 105.281Z" fill="#B8C1E2"/>
<path d="M78.5264 100.555L71.0374 96.1929C70.6739 95.9748 70.7466 95.6112 71.1101 95.3931L75.3272 92.921C75.6908 92.7029 76.3452 92.6302 76.636 92.8483L84.125 97.2108C84.4886 97.429 84.4159 97.7925 84.0523 98.0106L79.8352 100.483C79.4717 100.701 78.8173 100.774 78.5264 100.555Z" fill="#B8C1E2"/>
<path d="M93.8681 116.842L89.5783 114.37C89.2147 114.152 89.2874 113.788 89.651 113.57L93.8681 111.098C94.2316 110.88 94.886 110.807 95.1769 111.025L99.4667 113.498C99.8302 113.716 99.7575 114.079 99.394 114.297L95.1769 116.769C94.8133 117.06 94.2316 117.06 93.8681 116.842Z" fill="#B8C1E2"/>
<path d="M100.485 120.696L96.1948 118.224C95.8313 118.005 95.904 117.642 96.2675 117.424L100.485 114.952C100.848 114.734 101.503 114.661 101.793 114.879L106.083 117.351C106.447 117.569 106.374 117.933 106.011 118.151L101.793 120.623C101.43 120.841 100.848 120.914 100.485 120.696Z" fill="#B8C1E2"/>
<path d="M107.174 124.549L102.884 122.077C102.52 121.859 102.593 121.496 102.957 121.277L107.174 118.805C107.537 118.587 108.192 118.514 108.483 118.733L112.772 121.205C113.136 121.423 113.063 121.786 112.7 122.004L108.483 124.477C108.119 124.695 107.465 124.695 107.174 124.549Z" fill="#B8C1E2"/>
<path d="M113.79 128.33L109.5 125.858C109.137 125.64 109.21 125.276 109.573 125.058L113.79 122.586C114.154 122.368 114.808 122.295 115.099 122.513L119.389 124.986C119.752 125.204 119.68 125.567 119.316 125.785L115.099 128.257C114.736 128.548 114.081 128.548 113.79 128.33Z" fill="#B8C1E2"/>
<path d="M120.407 132.184L116.117 129.712C115.753 129.493 115.826 129.13 116.19 128.912L120.407 126.44C120.77 126.222 121.425 126.149 121.716 126.367L126.005 128.839C126.369 129.057 126.296 129.421 125.933 129.639L121.716 132.111C121.352 132.329 120.77 132.402 120.407 132.184Z" fill="#B8C1E2"/>
<path d="M127.023 136.037L122.734 133.565C122.37 133.347 122.443 132.983 122.806 132.765L127.023 130.293C127.387 130.075 128.041 130.002 128.332 130.22L132.622 132.693C132.986 132.911 132.913 133.274 132.549 133.492L128.332 135.964C127.969 136.183 127.387 136.183 127.023 136.037Z" fill="#B8C1E2"/>
<path d="M133.64 139.818L129.35 137.346C128.987 137.128 129.059 136.764 129.423 136.546L133.64 134.074C134.004 133.856 134.658 133.783 134.949 134.001L139.239 136.473C139.602 136.692 139.529 137.055 139.166 137.273L134.949 139.745C134.585 140.036 134.004 140.036 133.64 139.818Z" fill="#B8C1E2"/>
<path d="M140.257 143.672L135.967 141.2C135.603 140.981 135.676 140.618 136.039 140.4L140.257 137.928C140.62 137.709 141.274 137.637 141.565 137.855L145.855 140.327C146.219 140.545 146.146 140.909 145.782 141.127L141.565 143.599C141.202 143.817 140.62 143.89 140.257 143.672Z" fill="#B8C1E2"/>
<path d="M146.946 147.525L142.656 145.053C142.292 144.835 142.365 144.471 142.729 144.253L146.946 141.781C147.309 141.563 147.964 141.49 148.254 141.708L152.544 144.181C152.908 144.399 152.835 144.762 152.472 144.98L148.254 147.452C147.891 147.671 147.236 147.671 146.946 147.525Z" fill="#B8C1E2"/>
<path d="M158.724 154.287L149.345 148.907C148.981 148.688 149.054 148.325 149.418 148.107L153.635 145.635C153.998 145.417 154.653 145.344 154.944 145.562L164.323 150.942C164.687 151.161 164.614 151.524 164.25 151.742L160.033 154.214C159.67 154.432 159.015 154.505 158.724 154.287Z" fill="#B8C1E2"/>
<path d="M171.594 146.871L163.669 142.29C163.305 142.072 163.378 141.708 163.742 141.49L167.959 139.018C168.322 138.8 168.977 138.727 169.268 138.945L177.193 143.526C177.556 143.744 177.484 144.108 177.12 144.326L172.903 146.798C172.54 147.016 171.958 147.016 171.594 146.871Z" fill="#B8C1E2"/>
<path d="M105.502 116.115L101.212 113.643C100.849 113.425 100.921 113.061 101.285 112.843L105.502 110.371C105.866 110.153 106.52 110.08 106.811 110.298L111.101 112.77C111.464 112.989 111.391 113.352 111.028 113.57L106.811 116.042C106.447 116.333 105.866 116.333 105.502 116.115Z" fill="#B8C1E2"/>
<path d="M98.6676 112.189L94.3778 109.717C94.0143 109.499 94.087 109.135 94.4505 108.917L98.6676 106.445C99.0312 106.227 99.6856 106.154 99.9764 106.372L104.266 108.844C104.63 109.062 104.557 109.426 104.194 109.644L99.9764 112.116C99.6129 112.407 99.0312 112.407 98.6676 112.189Z" fill="#B8C1E2"/>
<path d="M91.9059 108.262L87.6161 105.79C87.2525 105.572 87.3252 105.209 87.6888 104.991L91.9059 102.519C92.2694 102.3 92.9238 102.228 93.2147 102.446L97.5045 104.918C97.868 105.136 97.7953 105.5 97.4318 105.718L93.2147 108.19C92.8511 108.481 92.2694 108.481 91.9059 108.262Z" fill="#B8C1E2"/>
<path d="M85.1441 104.336L80.8543 101.864C80.4908 101.646 80.5635 101.283 80.927 101.064L85.1441 98.5923C85.5077 98.3742 86.1621 98.3015 86.4529 98.5196L90.7428 100.992C91.1063 101.21 91.0336 101.573 90.67 101.791L86.4529 104.264C86.0894 104.554 85.435 104.554 85.1441 104.336Z" fill="#B8C1E2"/>
<path d="M112.119 119.969L107.829 117.497C107.465 117.278 107.538 116.915 107.901 116.697L112.119 114.225C112.482 114.006 113.136 113.934 113.427 114.152L117.717 116.624C118.081 116.842 118.008 117.206 117.644 117.424L113.427 119.896C113.064 120.114 112.482 120.187 112.119 119.969Z" fill="#B8C1E2"/>
<path d="M118.735 123.749L114.445 121.277C114.082 121.059 114.154 120.696 114.518 120.478L118.735 118.006C119.099 117.787 119.753 117.715 120.044 117.933L124.334 120.405C124.697 120.623 124.625 120.987 124.261 121.205L120.044 123.677C119.68 123.968 119.099 123.968 118.735 123.749Z" fill="#B8C1E2"/>
<path d="M125.352 127.603L121.062 125.131C120.698 124.913 120.771 124.549 121.134 124.331L125.352 121.859C125.715 121.641 126.37 121.568 126.66 121.786L130.95 124.258C131.314 124.477 131.241 124.84 130.878 125.058L126.66 127.53C126.297 127.748 125.715 127.821 125.352 127.603Z" fill="#B8C1E2"/>
<path d="M132.041 131.457L127.751 128.984C127.387 128.766 127.46 128.403 127.824 128.185L132.041 125.713C132.404 125.494 133.059 125.422 133.35 125.64L137.639 128.112C138.003 128.33 137.93 128.694 137.567 128.912L133.35 131.384C132.986 131.602 132.332 131.602 132.041 131.457Z" fill="#B8C1E2"/>
<path d="M138.657 135.237L134.367 132.765C134.004 132.547 134.077 132.184 134.44 131.965L138.657 129.493C139.021 129.275 139.675 129.203 139.966 129.421L144.256 131.893C144.619 132.111 144.547 132.474 144.183 132.693L139.966 135.165C139.603 135.455 138.948 135.455 138.657 135.237Z" fill="#B8C1E2"/>
<path d="M145.274 139.091L140.984 136.619C140.62 136.401 140.693 136.037 141.057 135.819L145.274 133.347C145.637 133.129 146.292 133.056 146.583 133.274L150.872 135.746C151.236 135.964 151.163 136.328 150.8 136.546L146.583 139.018C146.219 139.236 145.637 139.309 145.274 139.091Z" fill="#B8C1E2"/>
<path d="M151.89 142.945L147.601 140.472C147.237 140.254 147.31 139.891 147.673 139.673L151.89 137.201C152.254 136.982 152.908 136.91 153.199 137.128L157.489 139.6C157.853 139.818 157.78 140.182 157.416 140.4L153.199 142.872C152.836 143.09 152.254 143.09 151.89 142.945Z" fill="#B8C1E2"/>
<path d="M158.507 146.725L154.217 144.253C153.854 144.035 153.926 143.672 154.29 143.453L158.507 140.981C158.87 140.763 159.525 140.69 159.816 140.909L164.106 143.381C164.469 143.599 164.396 143.962 164.033 144.181L159.816 146.653C159.452 146.943 158.87 146.943 158.507 146.725Z" fill="#B8C1E2"/>
<path d="M165.123 150.579L160.834 148.107C160.47 147.889 160.543 147.525 160.906 147.307L165.123 144.835C165.487 144.617 166.141 144.544 166.432 144.762L170.722 147.234C171.086 147.452 171.013 147.816 170.649 148.034L166.505 150.506C166.069 150.724 165.487 150.797 165.123 150.579Z" fill="#B8C1E2"/>
<path d="M102.011 106.663L97.7214 104.191C97.3578 103.973 97.4306 103.609 97.7941 103.391L102.011 100.919C102.375 100.701 103.029 100.628 103.32 100.846L107.61 103.318C107.973 103.536 107.901 103.9 107.537 104.118L103.32 106.59C102.956 106.808 102.375 106.881 102.011 106.663Z" fill="#B8C1E2"/>
<path d="M95.3966 102.882L91.1068 100.41C90.7433 100.192 90.816 99.8283 91.1795 99.6102L95.3966 97.1381C95.7602 96.92 96.4146 96.8473 96.7054 97.0654L100.995 99.5375C101.359 99.7556 101.286 100.119 100.923 100.337L96.7054 102.809C96.3419 103.027 95.7602 103.027 95.3966 102.882Z" fill="#B8C1E2"/>
<path d="M88.7781 99.0285L84.4883 96.5564C84.1248 96.3383 84.1975 95.9748 84.561 95.7566L88.7781 93.2846C89.1417 93.0664 89.7961 92.9937 90.0869 93.2118L94.3768 95.6839C94.7403 95.9021 94.6676 96.2656 94.304 96.4837L90.0869 98.9558C89.7234 99.2466 89.1417 99.2466 88.7781 99.0285Z" fill="#B8C1E2"/>
<path d="M82.2362 95.2477L77.9463 92.7756C77.5828 92.5575 77.6555 92.1939 78.019 91.9758L82.2362 89.5037C82.5997 89.2856 83.2541 89.2129 83.5449 89.431L87.8348 91.9031C88.1983 92.1212 88.1256 92.4848 87.762 92.7029L83.5449 95.175C83.1814 95.3931 82.527 95.4658 82.2362 95.2477Z" fill="#B8C1E2"/>
<path d="M88.9979 91.3214L84.7081 88.8493C84.3445 88.6312 84.4172 88.2677 84.7808 88.0496L86.1623 87.2498C86.5258 87.0316 87.1802 86.9589 87.471 87.1771L91.7609 89.6491C92.1244 89.8673 92.0517 90.2308 91.6881 90.4489L90.3067 91.2487C89.9431 91.4669 89.3615 91.5396 88.9979 91.3214Z" fill="#B8C1E2"/>
<path d="M97.5766 96.2656L93.2868 93.7936C92.9233 93.5754 92.996 93.2119 93.3595 92.9938L94.741 92.194C95.1045 91.9759 95.7589 91.9031 96.0498 92.1213L100.34 94.5934C100.703 94.8115 100.63 95.175 100.267 95.3931L98.8854 96.1929C98.5219 96.4838 97.9402 96.4838 97.5766 96.2656Z" fill="#B8C1E2"/>
<path d="M104.193 100.046L99.9034 97.5743C99.5398 97.3562 99.6125 96.9927 99.9761 96.7745L101.358 95.9747C101.721 95.7566 102.375 95.6839 102.666 95.902L106.956 98.3741C107.32 98.5922 107.247 98.9558 106.883 99.1739L105.502 99.9737C105.138 100.265 104.484 100.265 104.193 100.046Z" fill="#B8C1E2"/>
<path d="M110.737 103.9L106.447 101.428C106.084 101.21 106.156 100.846 106.52 100.628L107.901 99.8283C108.265 99.6102 108.919 99.5375 109.21 99.7556L113.5 102.228C113.864 102.446 113.791 102.809 113.427 103.027L112.046 103.827C111.682 104.045 111.101 104.045 110.737 103.9Z" fill="#B8C1E2"/>
<path d="M117.281 107.681L112.991 105.209C112.628 104.991 112.7 104.627 113.064 104.409L114.445 103.609C114.809 103.391 115.463 103.318 115.754 103.536L120.044 106.009C120.408 106.227 120.335 106.59 119.971 106.808L118.59 107.608C118.226 107.826 117.645 107.899 117.281 107.681Z" fill="#B8C1E2"/>
<path d="M154 128.839L149.71 126.367C149.346 126.149 149.419 125.785 149.783 125.567L151.164 124.767C151.528 124.549 152.182 124.477 152.473 124.695L156.763 127.167C157.126 127.385 157.054 127.748 156.69 127.967L155.309 128.766C154.945 128.984 154.291 129.057 154 128.839Z" fill="#B8C1E2"/>
<path d="M160.544 132.62L156.254 130.148C155.89 129.93 155.963 129.566 156.327 129.348L157.708 128.548C158.072 128.33 158.726 128.257 159.017 128.475L163.307 130.948C163.67 131.166 163.598 131.529 163.234 131.747L161.852 132.547C161.489 132.838 160.907 132.838 160.544 132.62Z" fill="#B8C1E2"/>
<path d="M167.088 136.401L162.798 133.929C162.434 133.711 162.507 133.347 162.871 133.129L164.252 132.329C164.616 132.111 165.27 132.038 165.561 132.256L169.851 134.728C170.214 134.947 170.141 135.31 169.778 135.528L168.396 136.328C168.033 136.619 167.451 136.619 167.088 136.401Z" fill="#B8C1E2"/>
<path d="M173.704 140.182L169.414 137.709C169.051 137.491 169.124 137.128 169.487 136.91L170.869 136.11C171.232 135.892 171.886 135.819 172.177 136.037L176.467 138.509C176.831 138.727 176.758 139.091 176.394 139.309L175.013 140.109C174.649 140.4 173.995 140.4 173.704 140.182Z" fill="#B8C1E2"/>
<path d="M108.63 110.516L104.34 108.044C103.976 107.826 104.049 107.463 104.413 107.245L108.63 104.773C108.993 104.554 109.648 104.482 109.938 104.7L114.228 107.172C114.592 107.39 114.519 107.754 114.156 107.972L109.938 110.444C109.575 110.662 108.993 110.662 108.63 110.516Z" fill="#B8C1E2"/>
<path d="M115.244 114.297L110.954 111.825C110.591 111.607 110.664 111.244 111.027 111.025L115.244 108.553C115.608 108.335 116.262 108.263 116.553 108.481L120.843 110.953C121.206 111.171 121.134 111.534 120.77 111.753L116.553 114.225C116.19 114.515 115.608 114.515 115.244 114.297Z" fill="#B8C1E2"/>
<path d="M121.861 118.151L117.571 115.679C117.207 115.461 117.28 115.097 117.644 114.879L121.861 112.407C122.224 112.189 122.879 112.116 123.17 112.334L127.459 114.806C127.823 115.024 127.75 115.388 127.387 115.606L123.17 118.078C122.806 118.296 122.224 118.369 121.861 118.151Z" fill="#B8C1E2"/>
<path d="M128.552 121.932L124.262 119.46C123.899 119.241 123.971 118.878 124.335 118.66L128.552 116.188C128.916 115.97 129.57 115.897 129.861 116.115L134.151 118.587C134.514 118.805 134.441 119.169 134.078 119.387L129.861 121.859C129.497 122.15 128.843 122.15 128.552 121.932Z" fill="#B8C1E2"/>
<path d="M135.167 125.785L130.877 123.313C130.513 123.095 130.586 122.731 130.949 122.513L135.167 120.041C135.53 119.823 136.184 119.75 136.475 119.969L140.765 122.441C141.129 122.659 141.056 123.022 140.692 123.24L136.475 125.713C136.112 126.003 135.457 126.003 135.167 125.785Z" fill="#B8C1E2"/>
<path d="M141.783 129.639L137.493 127.167C137.13 126.949 137.202 126.585 137.566 126.367L141.783 123.895C142.147 123.677 142.801 123.604 143.092 123.822L147.382 126.294C147.745 126.512 147.673 126.876 147.309 127.094L143.092 129.566C142.728 129.784 142.147 129.784 141.783 129.639Z" fill="#B8C1E2"/>
<path d="M148.4 133.42L144.11 130.948C143.746 130.729 143.819 130.366 144.183 130.148L148.4 127.676C148.763 127.458 149.418 127.385 149.708 127.603L153.998 130.075C154.362 130.293 154.289 130.657 153.926 130.875L149.708 133.347C149.345 133.638 148.763 133.638 148.4 133.42Z" fill="#B8C1E2"/>
<path d="M155.016 137.273L150.726 134.801C150.363 134.583 150.436 134.219 150.799 134.001L155.016 131.529C155.38 131.311 156.034 131.238 156.325 131.457L160.615 133.929C160.978 134.147 160.906 134.51 160.542 134.728L156.325 137.2C155.961 137.419 155.38 137.491 155.016 137.273Z" fill="#B8C1E2"/>
<path d="M161.635 141.127L157.345 138.655C156.981 138.437 157.054 138.073 157.418 137.855L161.635 135.383C161.998 135.165 162.653 135.092 162.943 135.31L167.233 137.782C167.597 138 167.524 138.364 167.161 138.582L162.943 141.054C162.58 141.272 161.998 141.272 161.635 141.127Z" fill="#B8C1E2"/>
<path d="M70.7481 110.953L58.0967 103.682C57.7331 103.464 57.8059 103.1 58.1694 102.882L62.3865 100.41C62.7501 100.192 63.4045 100.119 63.6953 100.337L76.3467 107.608C76.7102 107.826 76.6375 108.19 76.274 108.408L72.0568 110.88C71.6933 111.098 71.1116 111.171 70.7481 110.953Z" fill="#B8C1E2"/>
<path d="M152.181 157.995L139.53 150.724C139.166 150.506 139.239 150.143 139.603 149.924L143.82 147.452C144.183 147.234 144.838 147.162 145.129 147.38L157.78 154.65C158.144 154.869 158.071 155.232 157.707 155.45L153.49 157.922C153.127 158.141 152.545 158.141 152.181 157.995Z" fill="#B8C1E2"/>
<path d="M125.642 151.088L121.352 148.616C120.989 148.398 121.061 148.034 121.425 147.816L126.515 144.908C126.878 144.69 127.532 144.617 127.823 144.835L132.113 147.307C132.477 147.525 132.404 147.889 132.04 148.107L126.951 151.015C126.587 151.306 126.006 151.306 125.642 151.088Z" fill="#B8C1E2"/>
<path d="M77.5091 123.313L70.6744 119.314C70.3109 119.096 70.3836 118.733 70.7471 118.514L75.8368 115.606C76.2003 115.388 76.8547 115.315 77.1455 115.533L83.9802 119.532C84.3437 119.75 84.271 120.114 83.9075 120.332L78.8178 123.24C78.4543 123.531 77.8726 123.531 77.5091 123.313Z" fill="#B8C1E2"/>
<path d="M119.245 147.452L112.41 143.454C112.047 143.235 112.12 142.872 112.483 142.654L117.573 139.745C117.936 139.527 118.591 139.455 118.882 139.673L125.716 143.672C126.08 143.89 126.007 144.253 125.643 144.471L120.554 147.38C120.19 147.598 119.609 147.671 119.245 147.452Z" fill="#B8C1E2"/>
<path d="M87.1062 128.839L80.2715 124.84C79.908 124.622 79.9807 124.258 80.3442 124.04L85.4339 121.132C85.7974 120.914 86.4518 120.841 86.7426 121.059L93.5773 125.058C93.9408 125.276 93.8681 125.64 93.5046 125.858L88.415 128.766C88.0514 129.057 87.397 129.057 87.1062 128.839Z" fill="#B8C1E2"/>
<path d="M86.743 121.132L116.554 138.364C116.917 138.582 116.917 138.945 116.554 139.164L111.391 142.145C111.028 142.363 110.446 142.363 110.083 142.145L80.2719 124.913L86.743 121.132Z" fill="#B8C1E2"/>
<path d="M144.182 158.068L148.981 160.831C149.272 160.976 149.199 161.267 148.909 161.485L146.8 162.649C146.509 162.867 146 162.867 145.709 162.721L140.911 159.958C140.62 159.813 140.692 159.522 140.983 159.304L143.092 158.141C143.383 157.922 143.892 157.922 144.182 158.068Z" fill="#B8C1E2"/>
<path d="M137.493 154.214L142.292 156.977C142.583 157.123 142.51 157.414 142.219 157.632L140.111 158.795C139.82 159.013 139.311 159.013 139.02 158.868L134.221 156.105C133.931 155.959 134.003 155.669 134.294 155.45L136.403 154.287C136.693 154.069 137.202 154.069 137.493 154.214Z" fill="#B8C1E2"/>
<path d="M130.877 150.361L135.676 153.124C135.966 153.269 135.894 153.56 135.603 153.778L133.494 154.941C133.203 155.159 132.694 155.159 132.404 155.014L127.605 152.251C127.314 152.106 127.387 151.815 127.678 151.597L129.786 150.433C130.077 150.215 130.586 150.215 130.877 150.361Z" fill="#B8C1E2"/>
<path d="M141.129 152.106L145.928 154.869C146.219 155.014 146.146 155.305 145.855 155.523L143.747 156.686C143.456 156.905 142.947 156.905 142.656 156.759L137.857 153.996C137.567 153.851 137.639 153.56 137.93 153.342L140.039 152.178C140.402 151.96 140.911 151.96 141.129 152.106Z" fill="#B8C1E2"/>
<path d="M127.825 36.5719L117.064 30.3189L117.5 27.9922L128.334 34.2452L127.825 36.5719Z" fill="#E3E9FF"/>
<path d="M126.661 41.9523L115.9 35.6993L116.337 33.3727L127.097 39.6256L126.661 41.9523Z" fill="white"/>
<path d="M179.594 116.769L168.833 110.516L169.269 108.19L180.03 114.443L179.594 116.769Z" fill="#E3E9FF"/>
<path d="M124.334 52.7131L113.573 46.5329L114.009 44.2062L124.77 50.3865L124.334 52.7131Z" fill="#E3E9FF"/>
<path opacity="0.5" d="M208.458 210.636C207.004 209.836 204.677 209.836 203.223 210.636L135.822 249.608C134.368 250.408 134.368 251.789 135.822 252.662C137.276 253.461 139.603 253.461 141.057 252.662L208.458 213.69C209.912 212.817 209.912 211.436 208.458 210.636Z" fill="#173D7A" fill-opacity="0.2"/>
<path d="M219.946 189.478C219.874 189.333 219.728 189.333 219.655 189.333L215.584 190.205L217.183 192.968L219.946 189.841C220.019 189.769 220.019 189.623 219.946 189.478Z" fill="#E3E9FF"/>
<path d="M218.345 191.514C218.345 190.932 217.909 190.205 217.4 189.914C217.182 189.769 216.964 189.769 216.818 189.841C212.092 189.769 207.439 191.077 203.44 193.404L203.149 193.55L208.239 202.202L209.765 201.184C212.965 199.075 215.582 196.313 217.618 193.113L218.272 192.095C218.272 192.023 218.345 191.805 218.345 191.514Z" fill="#7E98FC"/>
<path d="M209.184 199.948C209.184 197.694 207.584 194.931 205.621 193.84C203.658 192.75 202.058 193.622 202.131 195.876C202.204 198.13 203.731 200.893 205.694 201.984C207.584 203.147 209.184 202.202 209.184 199.948Z" fill="#E3E9FF"/>
<path d="M178.065 220.961L208.167 202.202L203.077 193.622L172.103 210.782L178.065 220.961Z" fill="#E3E9FF"/>
<path d="M179.301 218.27C179.301 215.58 177.411 212.381 175.084 211.072C172.757 209.764 170.939 210.854 170.939 213.544C170.939 216.235 172.83 219.434 175.157 220.743C177.483 221.979 179.301 220.888 179.301 218.27Z" fill="#E3E9FF"/>
<path d="M177.556 219.288C177.556 216.598 175.665 213.399 173.339 212.09C171.012 210.782 169.194 211.872 169.194 214.562C169.194 217.253 171.085 220.452 173.411 221.761C175.738 222.997 177.629 221.906 177.556 219.288Z" fill="#E3E9FF"/>
<path d="M170.439 211.809L130.635 235.203L136.604 245.357L176.407 221.963L170.439 211.809Z" fill="#E3E9FF"/>
<path d="M137.784 242.628C137.784 239.938 135.894 236.738 133.567 235.43C131.24 234.121 129.423 235.212 129.423 237.902C129.423 240.592 131.313 243.791 133.64 245.1C135.966 246.409 137.857 245.318 137.784 242.628Z" fill="#E3E9FF"/>
<path d="M136.331 241.828C136.258 240.229 134.949 238.265 133.495 237.466C132.041 236.593 130.878 237.247 130.95 238.774C131.023 240.374 132.332 242.337 133.786 243.137C135.24 243.937 136.404 243.355 136.331 241.828Z" fill="#396CAA"/>
<path d="M179.594 218.052C179.594 215.362 177.703 212.163 175.376 210.854C174.431 210.345 173.559 210.2 172.904 210.418C173.631 209.618 174.867 209.545 176.322 210.345C178.648 211.654 180.539 214.853 180.539 217.543C180.539 219.143 179.884 220.161 178.866 220.452C179.303 219.943 179.594 219.143 179.594 218.052Z" fill="white"/>
<path d="M179.594 218.052C179.594 215.362 177.703 212.163 175.377 210.854C174.213 210.2 173.195 210.127 172.395 210.563L170.141 211.872L171.232 213.69C171.45 216.089 173.05 218.852 175.086 220.234L176.176 222.051L178.43 220.743C179.157 220.379 179.594 219.434 179.594 218.052Z" fill="#7E98FC"/>
<path d="M177.339 219.434C177.339 216.744 175.449 213.544 173.122 212.236C170.796 210.927 168.978 212.018 168.978 214.708C168.978 217.398 170.868 220.597 173.195 221.906C175.522 223.142 177.339 222.051 177.339 219.434Z" fill="#E3E9FF"/>
<path d="M134.44 242.991L131.823 238.628L123.388 243.572C122.152 244.299 121.789 245.826 122.516 247.062C123.243 248.298 124.77 248.662 126.006 247.935L134.44 242.991Z" fill="#FB8D34"/>
<path d="M134.949 241.828C134.949 240.665 134.149 239.283 133.131 238.702C132.113 238.12 131.314 238.629 131.314 239.792C131.314 240.956 132.113 242.337 133.131 242.919C134.149 243.428 134.949 242.991 134.949 241.828Z" fill="#FB8D34"/>
<path d="M144.328 226.268L143.092 225.541C142.364 225.105 141.419 225.251 140.401 225.832L136.039 228.377C135.239 228.886 134.585 230.049 134.585 230.994V233.176C134.585 233.539 134.439 233.976 134.148 234.266L134.294 235.284L133.203 234.63C133.058 234.557 132.912 234.339 132.912 234.121V231.94C132.912 229.977 134.294 227.504 135.966 226.559L140.329 224.014C141.783 223.142 143.164 222.997 144.182 223.578L145.418 224.305C146.145 224.742 147.091 224.596 148.108 224.014L165.559 213.763C165.777 213.617 165.995 213.617 166.14 213.69L167.231 214.272L166.286 214.635C166.14 214.999 165.922 215.435 165.559 215.58L148.108 225.832C146.727 226.705 145.345 226.85 144.328 226.268Z" fill="#7E98FC"/>
<path d="M144.109 226.196C143.382 225.759 142.437 225.905 141.419 226.487L137.057 229.031C136.257 229.54 135.602 230.704 135.602 231.649V233.83C135.602 234.339 135.239 234.993 134.803 235.212C134.366 235.502 134.003 235.284 134.003 234.775V232.594C134.003 230.631 135.384 228.159 137.057 227.214L141.419 224.669C142.873 223.796 144.255 223.651 145.273 224.233L146.509 224.96C147.236 225.396 148.181 225.25 149.199 224.669L166.649 214.417C167.085 214.126 167.449 214.344 167.449 214.853C167.449 215.362 167.085 216.016 166.649 216.235L149.199 226.487C147.745 227.359 146.363 227.504 145.345 226.923L144.109 226.196Z" fill="#7E98FC"/>
<path d="M135.602 232.012V234.194C135.602 234.194 135.602 234.194 135.602 234.266C135.675 234.121 135.675 233.975 135.675 233.83V231.649C135.675 231.576 135.675 231.503 135.675 231.431C135.602 231.649 135.602 231.794 135.602 232.012Z" fill="white"/>
<path d="M153.779 97.5744C153.779 97.5744 152.834 99.0286 152.398 99.2467C151.962 99.4648 146.145 101.937 145.854 102.082L142.728 94.0844L142.364 93.7935L139.165 98.2288C138.874 97.7198 133.057 88.4858 132.621 87.8314C132.258 87.2498 131.531 85.2866 131.312 84.705C127.604 84.705 121.933 83.3235 119.824 84.4868C117.498 85.8683 116.552 93.2119 116.407 94.666L168.685 125.058C168.539 123.386 167.667 114.952 165.34 110.88C163.304 107.245 157.415 101.937 153.779 97.5744Z" fill="#FB8D34"/>
<path d="M152.18 95.4658C152.18 95.4658 152.18 95.4658 152.107 95.4658C151.453 95.4658 146.654 95.2477 142.728 94.0117L142.801 94.1571L145.927 102.155C146.218 102.01 152.107 99.5375 152.471 99.3194C152.835 99.1013 153.78 97.7198 153.78 97.6471L153.707 97.5744L152.18 95.4658Z" fill="#E8FCFF"/>
<path d="M132.912 84.2687L131.312 84.5595C131.312 84.5595 131.312 84.6322 131.385 84.7049C131.603 85.2139 132.33 87.2497 132.693 87.8314C133.13 88.4858 138.874 97.7925 139.237 98.2287L142.436 93.7935C138.728 90.667 134.293 85.7228 133.202 84.5595C133.057 84.3414 132.912 84.2687 132.912 84.2687Z" fill="#E8FCFF"/>
<path d="M133.785 84.3414C133.567 84.4141 133.422 84.4868 133.131 84.5595C134.222 85.7229 138.657 90.667 142.365 93.7935L142.728 94.0843L142.656 93.9389C146.582 95.2477 151.381 95.3931 152.035 95.3931C151.817 95.1023 151.672 94.8841 151.526 94.5933C150.145 92.3393 149.563 89.3583 149.272 86.8135C148.036 87.1043 146.437 87.1043 145.128 87.1043C144.401 87.1043 143.674 86.8135 142.874 86.3772C142.074 85.941 141.347 85.2866 140.62 84.4868C139.166 82.8872 137.348 80.706 136.039 78.8156C135.894 81.1422 135.239 83.6143 133.785 84.3414Z" fill="#FEC0A6"/>
<path d="M143.238 46.3875C140.257 44.6425 137.203 44.4244 135.967 45.5878C134.367 47.1146 133.713 47.0419 133.713 47.0419C133.567 47.0419 130.659 46.6784 129.859 48.3507C129.059 50.023 129.278 54.2401 129.859 55.6215C130.368 57.003 130.368 60.0568 130.368 60.2749L131.168 62.3107L132.331 63.983C132.404 64.0557 133.204 65.1463 133.931 65.5826C134.222 65.728 134.513 65.8007 134.658 65.5826C135.167 64.7828 135.094 62.747 134.658 60.3476C134.294 57.9482 134.149 55.1126 134.44 54.8217H134.513C134.585 54.8944 134.731 55.1126 134.876 55.3307C135.022 55.5488 135.24 55.8397 135.603 56.0578C136.112 56.3486 136.912 56.3486 138.075 55.1853C138.075 55.1853 138.293 55.258 138.512 55.4034C138.948 55.6942 139.748 56.2759 140.329 57.5847C141.275 59.6932 141.275 63.6922 144.037 67.6184C145.855 70.1632 148.4 71.9082 149.927 72.7807C150.727 73.217 151.236 73.4351 151.236 73.5078C151.236 73.6532 151.599 75.7618 153.126 76.6343C153.199 76.707 153.344 76.7797 153.49 76.7797L154.944 76.1253C154.944 76.1253 155.525 70.0905 156.325 69.218C157.125 68.2728 156.907 63.5468 154.508 59.984C152.108 56.4213 151.09 55.4034 151.018 55.3307C150.945 55.1853 149.854 52.1315 146.073 48.5688C145.128 47.6236 144.183 46.8965 143.238 46.3875Z" fill="#843837"/>
<path d="M138.438 55.258C138.147 55.1126 138.001 55.0399 138.001 55.0399C136.838 56.2032 136.038 56.2032 135.529 55.9124C135.238 55.767 135.02 55.4761 134.802 55.1853C134.657 54.8945 134.511 54.6763 134.439 54.6763C134.075 54.9672 134.22 57.8755 134.584 60.2022C134.948 62.6016 135.093 64.7101 134.584 65.4372C134.439 65.6553 134.148 65.6553 133.857 65.4372C133.13 65.0009 132.33 63.9103 132.257 63.8376L131.094 62.1653C131.021 62.0926 130.949 62.0199 130.876 62.0199C130.658 61.8745 130.367 61.8745 130.149 61.9472C128.84 62.6016 131.385 70.3814 132.475 71.0358C132.912 71.2539 133.203 71.2539 133.493 71.1812C133.857 73.1443 134.293 74.8893 134.657 76.2708C134.948 76.9979 135.457 77.8704 136.111 78.8156C137.42 80.706 139.237 82.8872 140.692 84.4868C141.419 85.2866 142.146 85.941 142.946 86.3773C143.745 86.8135 144.472 87.1043 145.2 87.1043C146.508 87.1771 148.035 87.1043 149.344 86.8135C150.216 86.5954 150.944 86.3045 151.234 85.8683C151.671 84.9958 152.034 83.687 152.47 82.1602C152.761 82.5237 153.052 82.96 153.416 83.1781C154.506 83.7597 157.124 79.0337 155.815 76.8524C155.597 76.4162 155.306 76.1981 155.088 76.0526C155.015 76.0526 154.943 75.9799 154.943 75.9799L153.488 76.6343C153.343 76.5616 153.27 76.5616 153.125 76.4889C151.525 75.5437 151.234 73.4351 151.234 73.3624C151.234 73.3624 150.725 73.1443 149.926 72.6353C148.399 71.7628 145.854 70.0178 144.036 67.473C141.273 63.5468 141.273 59.5478 140.328 57.4393C139.674 56.1305 138.874 55.5488 138.438 55.258Z" fill="#FFBA99"/>
</svg>
