<svg width="22" height="23" viewBox="0 0 22 23" fill="none" xmlns="http://www.w3.org/2000/svg">
<g clip-path="url(#clip0)">
<path d="M21.9783 7.09501C21.9267 5.92607 21.7377 5.12243 21.4669 4.42607C21.1876 3.68689 20.7578 3.02511 20.1947 2.47497C19.6446 1.91627 18.9784 1.48213 18.2478 1.20714C17.5474 0.936355 16.748 0.747323 15.5791 0.695784C14.4014 0.63988 14.0275 0.626953 11.0406 0.626953C8.05369 0.626953 7.67982 0.63988 6.50651 0.691419C5.33757 0.742958 4.53393 0.932158 3.83773 1.20278C3.09839 1.48213 2.43661 1.9119 1.88647 2.47497C1.32777 3.02511 0.893798 3.69126 0.618643 4.42187C0.347854 5.12243 0.158822 5.9217 0.107283 7.09065C0.0513789 8.26832 0.0384521 8.64219 0.0384521 11.6291C0.0384521 14.616 0.0513789 14.9899 0.102918 16.1632C0.154457 17.3321 0.343657 18.1358 0.614446 18.8321C0.893798 19.5713 1.32777 20.2331 1.88647 20.7832C2.43661 21.3419 3.10276 21.7761 3.83337 22.0511C4.53393 22.3218 5.3332 22.5109 6.50231 22.5624C7.67546 22.6141 8.04949 22.6269 11.0364 22.6269C14.0233 22.6269 14.3972 22.6141 15.5705 22.5624C16.7394 22.5109 17.5431 22.3218 18.2393 22.0511C19.7178 21.4794 20.8867 20.3105 21.4584 18.8321C21.729 18.1316 21.9182 17.3321 21.9697 16.1632C22.0213 14.9899 22.0342 14.616 22.0342 11.6291C22.0342 8.64219 22.0298 8.26832 21.9783 7.09501ZM19.9971 16.0772C19.9498 17.1517 19.7693 17.7319 19.6189 18.1187C19.2492 19.0771 18.4886 19.8377 17.5301 20.2074C17.1434 20.3578 16.559 20.5383 15.4887 20.5855C14.3284 20.6372 13.9803 20.6499 11.045 20.6499C8.10959 20.6499 7.75721 20.6372 6.60103 20.5855C5.5266 20.5383 4.94641 20.3578 4.55961 20.2074C4.08267 20.0311 3.64853 19.7518 3.29615 19.3865C2.93085 19.0297 2.6515 18.6 2.47522 18.123C2.3248 17.7362 2.14433 17.1517 2.09716 16.0816C2.04545 14.9212 2.03269 14.573 2.03269 11.6377C2.03269 8.70229 2.04545 8.34991 2.09716 7.19389C2.14433 6.11947 2.3248 5.53927 2.47522 5.15248C2.6515 4.67537 2.93085 4.2414 3.30052 3.88885C3.65709 3.52355 4.08686 3.24419 4.56398 3.06809C4.95077 2.91767 5.53533 2.7372 6.60539 2.68986C7.76577 2.63832 8.11396 2.62539 11.0492 2.62539C13.9889 2.62539 14.3369 2.63832 15.4931 2.68986C16.5675 2.7372 17.1477 2.91767 17.5345 3.06809C18.0115 3.24419 18.4456 3.52355 18.798 3.88885C19.1633 4.24559 19.4426 4.67537 19.6189 5.15248C19.7693 5.53927 19.9498 6.12366 19.9971 7.19389C20.0487 8.35428 20.0616 8.70229 20.0616 11.6377C20.0616 14.573 20.0487 14.9169 19.9971 16.0772Z" fill="#3760FB"/>
<path d="M11.0408 5.9776C7.92074 5.9776 5.38928 8.50889 5.38928 11.6291C5.38928 14.7493 7.92074 17.2806 11.0408 17.2806C14.161 17.2806 16.6923 14.7493 16.6923 11.6291C16.6923 8.50889 14.161 5.9776 11.0408 5.9776ZM11.0408 15.2951C9.01665 15.2951 7.37479 13.6534 7.37479 11.6291C7.37479 9.6048 9.01665 7.96311 11.0408 7.96311C13.0651 7.96311 14.7068 9.6048 14.7068 11.6291C14.7068 13.6534 13.0651 15.2951 11.0408 15.2951Z" fill="#3760FB"/>
<path d="M18.2355 5.75412C18.2355 6.48272 17.6447 7.07349 16.9159 7.07349C16.1873 7.07349 15.5966 6.48272 15.5966 5.75412C15.5966 5.02535 16.1873 4.43475 16.9159 4.43475C17.6447 4.43475 18.2355 5.02535 18.2355 5.75412Z" fill="#3760FB"/>
</g>
<defs>
<clipPath id="clip0">
<rect width="22" height="22" fill="white" transform="translate(0 0.626953)"/>
</clipPath>
</defs>
</svg>
