<svg width="80" height="40" viewBox="0 0 80 40" fill="none" xmlns="http://www.w3.org/2000/svg">
<path d="M0.617188 33.1106V8C0.617188 3.58172 4.19891 0 8.61719 0H71.6171C76.0354 0 79.6171 3.58172 79.6171 8V27.0957C79.6171 28.7559 78.3812 30.1565 76.7339 30.3632L7.36389 39.0639C3.78196 39.5132 0.617188 36.7206 0.617188 33.1106Z" fill="#3760FB"/>
<path d="M79.6173 33.1106V8C79.6173 3.58172 76.0356 0 71.6173 0H8.61732C4.19904 0 0.617317 3.58172 0.617317 8V30.0015L72.8706 39.0639C76.4525 39.5132 79.6173 36.7206 79.6173 33.1106Z" fill="#FF555B"/>
<path d="M19.3716 21.2406V23.0863H11.8181V14.6421H19.1969V16.4878H14.4524V17.9112H18.6324V19.6965H14.4524V21.2406H19.3716Z" fill="white"/>
<path d="M28.71 16.536H24.4494V23.0863H21.8285V14.6421H28.7234L28.71 16.536Z" fill="white"/>
<path d="M34.1071 14.4732C35.0569 14.4732 35.9081 14.6622 36.6607 15.0402C37.4134 15.4101 38.0003 15.9288 38.4214 16.5963C38.8515 17.2638 39.0666 18.0198 39.0666 18.8642C39.0666 19.7086 38.8515 20.4645 38.4214 21.132C38.0003 21.7995 37.4134 22.3223 36.6607 22.7002C35.9081 23.0702 35.0569 23.2551 34.1071 23.2551C33.2379 23.2551 32.4539 23.1184 31.755 22.845C31.0651 22.5716 30.4916 22.1775 30.0347 21.6628L31.7147 20.2876C32.3419 20.9471 33.0946 21.2768 33.9727 21.2768C34.5372 21.2768 35.0165 21.1401 35.4108 20.8667C35.814 20.5852 36.0918 20.1992 36.2441 19.7086H32.8437V17.9474H36.2172C36.0649 17.4809 35.7916 17.115 35.3974 16.8496C35.0031 16.5843 34.5282 16.4516 33.9727 16.4516C33.0946 16.4516 32.3419 16.7813 31.7147 17.4407L30.0347 16.0655C30.4916 15.5509 31.0651 15.1568 31.755 14.8834C32.4539 14.6099 33.2379 14.4732 34.1071 14.4732Z" fill="white"/>
<path d="M42.067 23.1948C41.6369 23.1948 41.274 23.0662 40.9783 22.8088C40.6827 22.5515 40.5348 22.2258 40.5348 21.8317C40.5348 21.4296 40.6782 21.1039 40.9649 20.8546C41.2606 20.6053 41.628 20.4806 42.067 20.4806C42.515 20.4806 42.8824 20.6053 43.1691 20.8546C43.4558 21.1039 43.5992 21.4296 43.5992 21.8317C43.5992 22.2258 43.4514 22.5515 43.1557 22.8088C42.8689 23.0662 42.5061 23.1948 42.067 23.1948Z" fill="white"/>
<path d="M50.228 14.6421C51.0792 14.6421 51.8184 14.7708 52.4456 15.0281C53.0729 15.2774 53.5567 15.6393 53.8972 16.1138C54.2377 16.5802 54.4079 17.1311 54.4079 17.7664C54.4079 18.4018 54.2377 18.9526 53.8972 19.4191C53.5567 19.8855 53.0729 20.2474 52.4456 20.5048C51.8184 20.7541 51.0792 20.8787 50.228 20.8787H48.5883V23.0863H45.9271V14.6421H50.228ZM50.0667 18.9969C50.6133 18.9969 51.0255 18.8923 51.3032 18.6832C51.581 18.4661 51.7199 18.1605 51.7199 17.7664C51.7199 17.3724 51.581 17.0668 51.3032 16.8496C51.0255 16.6325 50.6133 16.5239 50.0667 16.5239H48.5883V18.9969H50.0667Z" fill="white"/>
<path d="M68.2712 18.8401C68.2712 19.9418 67.8501 20.8184 67.0078 21.4698C66.1745 22.1132 64.9649 22.4751 63.3789 22.5555V23.4843H60.9462V22.5555C59.3603 22.4509 58.1462 22.081 57.3039 21.4457C56.4706 20.8104 56.0539 19.9418 56.0539 18.8401C56.0539 17.7383 56.4706 16.8697 57.3039 16.2344C58.1372 15.5911 59.3513 15.2171 60.9462 15.1126V14.244H63.3789V15.1126C64.9649 15.2091 66.1745 15.579 67.0078 16.2224C67.8501 16.8577 68.2712 17.7302 68.2712 18.8401ZM63.3789 20.6978C64.1764 20.6173 64.7588 20.4243 65.1262 20.1187C65.5025 19.8131 65.6906 19.3829 65.6906 18.828C65.6906 18.2731 65.498 17.8469 65.1127 17.5493C64.7364 17.2517 64.1585 17.0628 63.3789 16.9823V20.6978ZM58.6345 18.8401C58.6345 19.3869 58.8271 19.8091 59.2124 20.1067C59.5977 20.4042 60.1756 20.5972 60.9462 20.6857V16.9823C60.1398 17.0628 59.5529 17.2517 59.1855 17.5493C58.8182 17.8469 58.6345 18.2771 58.6345 18.8401Z" fill="white"/>
</svg>
