<svg width="38" height="38" viewBox="0 0 38 38" fill="none" xmlns="http://www.w3.org/2000/svg">
<path opacity="0.5" d="M0.5 23C0.5 15.0048 7.00481 8.5 15 8.5C22.9952 8.5 29.5 15.0048 29.5 23C29.5 30.9952 22.9952 37.5 15 37.5C7.00481 37.5 0.5 30.9952 0.5 23Z" fill="white" stroke="#3760FB"/>
<path opacity="0.5" d="M8.5 15C8.5 7.00481 15.0048 0.5 23 0.5C30.9952 0.5 37.5 7.00481 37.5 15C37.5 22.9952 30.9952 29.5 23 29.5C15.0048 29.5 8.5 22.9952 8.5 15Z" fill="white" stroke="#3760FB"/>
<path d="M19 4C10.7287 4 4 10.7287 4 19C4 27.2713 10.7287 34 19 34C27.2713 34 34 27.2713 34 19C34 10.7287 27.2713 4 19 4Z" fill="#3760FB"/>
<path d="M26.6028 15.8213L18.4778 23.9462C18.234 24.19 17.914 24.3126 17.5941 24.3126C17.2741 24.3126 16.9541 24.19 16.7103 23.9462L12.6479 19.8838C12.159 19.3951 12.159 18.605 12.6479 18.1163C13.1366 17.6275 13.9265 17.6275 14.4153 18.1163L17.5941 21.2951L24.8354 14.0539C25.3241 13.565 26.1139 13.565 26.6028 14.0539C27.0915 14.5426 27.0915 15.3325 26.6028 15.8213Z" fill="white"/>
</svg>
