<svg width="391" height="268" viewBox="0 0 391 268" fill="none" xmlns="http://www.w3.org/2000/svg">
<g clip-path="url(#clip0)">
<path opacity="0.34" d="M12.5008 172.028L124.523 238.785C125.564 239.41 126.884 239.41 127.926 238.785L328.009 124.354C331.273 122.481 329.537 117.554 325.856 118.109L13.6815 165.852C10.5562 166.268 9.7923 170.432 12.5008 172.028Z" fill="#CCCCCC"/>
<path d="M117.369 103.189L117.439 108.81L228.905 173.693L228.836 168.003L117.369 103.189Z" fill="white"/>
<path d="M228.836 168.003L228.905 173.693L331.899 114.292V108.602L228.836 168.003Z" fill="#D17226"/>
<path d="M117.369 103.189L228.836 168.003L331.898 108.602L220.432 43.7877L117.369 103.189Z" fill="#D96D16"/>
<path d="M14.3761 162.521L14.4455 168.142L125.842 232.956L125.773 227.335L14.3761 162.521Z" fill="#F07D21"/>
<path d="M125.773 227.335L125.842 232.956L228.905 173.555L228.836 167.934L125.773 227.335Z" fill="#D17226"/>
<path d="M14.3761 162.521L125.773 227.335L228.836 167.934L117.439 103.05L14.3761 162.521Z" fill="#D96D16"/>
<path d="M120.008 81.0524L120.078 104.646L226.197 166.268L226.127 142.605L120.008 81.0524Z" fill="white"/>
<path d="M226.127 142.605L226.197 166.199L326.204 108.532C326.204 108.532 323.634 101.662 323.356 99.2337C322.592 92.1555 326.134 84.9385 326.134 84.9385L226.127 142.605Z" fill="white"/>
<path d="M120.008 81.0524L226.127 142.605L326.065 84.9384L220.016 23.3859L120.008 81.0524Z" fill="#E4EDF7"/>
<path d="M162.928 48.2983C134.315 64.8141 120.634 80.2196 119.939 81.0523L225.988 142.674C235.086 131.849 248.837 122.064 263.144 113.806C291.757 97.2905 320.995 87.506 322.592 86.9508L216.474 25.3289C195.083 31.7131 177.235 40.0404 162.928 48.2983Z" fill="white"/>
<path d="M126.189 200.341L126.259 223.935L226.266 166.268L226.197 142.674L126.189 200.341Z" fill="white"/>
<path d="M19.6541 138.441C19.6541 138.441 22.8487 146.005 22.432 153.014C22.1542 157.525 19.7235 162.105 19.7235 162.105L126.259 224.004C126.259 224.004 127.023 213.942 126.953 210.542C126.953 207.974 126.189 200.41 126.189 200.41L19.6541 138.441Z" fill="white"/>
<path d="M20.1402 138.719L126.189 200.341L226.197 142.674L120.078 81.0524L20.1402 138.719Z" fill="#E4EDF7"/>
<path d="M20.9734 141.564L126.328 202.77L311.063 96.4579" stroke="white" stroke-miterlimit="10"/>
<path d="M21.668 145.173L126.675 206.101L312.244 101.246" stroke="white" stroke-miterlimit="10"/>
<path d="M22.2932 148.642L127.023 209.431L311.55 105.479" stroke="white" stroke-miterlimit="10"/>
<path d="M22.432 151.904L126.953 212.554L312.592 108.394" stroke="white" stroke-miterlimit="10"/>
<path d="M22.2932 154.957L126.814 215.608L313.356 111.308" stroke="white" stroke-miterlimit="10"/>
<path d="M21.4598 157.594L126.606 218.661L325.023 106.867" stroke="white" stroke-miterlimit="10"/>
<path d="M20.5569 160.231L126.467 221.714L317.8 112.557" stroke="white" stroke-miterlimit="10"/>
<path d="M66.5326 104.022C37.9195 120.538 24.2379 135.943 23.5434 136.776L129.593 198.398C138.691 187.572 152.441 177.788 166.748 169.53C195.361 153.014 224.599 143.229 226.197 142.674L120.148 81.0524C98.6877 87.506 80.8392 95.7639 66.5326 104.022Z" fill="#FCFCFC"/>
<path opacity="0.34" d="M169.088 123.468C193.635 109.306 209.973 91.6651 205.582 84.0647C201.19 76.4642 177.731 81.7828 153.184 95.944C128.637 110.105 112.298 127.746 116.69 135.347C121.082 142.947 144.541 137.629 169.088 123.468Z" fill="#CCCCCC"/>
<path d="M178.068 94.4453L161.539 84.869C160.706 84.3832 159.942 83.828 159.247 83.2035L175.776 92.7799C176.54 93.4044 177.304 93.9596 178.068 94.4453Z" fill="#4A4A4A"/>
<path d="M200.153 28.0352C205.362 25.6064 211.751 24.4961 216.96 27.5494C213.765 25.6758 210.501 23.8021 207.307 21.9285C205.431 20.8182 203.556 19.7079 201.612 18.667C199.737 17.5567 197.861 16.6545 195.709 16.3076C190.5 15.4748 185.291 17.3485 180.846 19.8467C182.86 21.0264 184.944 22.2061 186.958 23.3858C190.014 25.1206 193 26.9249 196.056 28.6597C196.472 28.8679 196.82 29.1455 197.236 29.3537C197.306 29.3537 197.375 29.4231 197.445 29.4924C197.514 29.4924 197.792 29.2843 197.931 29.2149C198.209 29.0761 198.487 28.9373 198.695 28.7985C199.181 28.4515 199.667 28.2434 200.153 28.0352Z" fill="#EF78BF"/>
<path d="M185.708 65.9243C186.541 60.8586 186.749 55.5846 185.985 50.5188C185.638 48.3676 185.152 46.2164 184.388 44.204C184.18 43.7182 184.041 43.2325 183.833 42.8161C183.694 42.6079 183.624 42.1222 183.416 41.9834C183.346 41.914 183.138 41.8446 183.069 41.7752C179.041 39.4852 175.082 37.1258 171.054 34.8358C169.665 34.003 168.276 33.2397 166.887 32.407C169.665 38.1667 170.22 44.7591 169.734 51.074C169.248 58.1522 167.443 65.0222 164.873 71.6146C163.553 74.9456 162.025 78.2071 160.289 81.3298C160.081 81.7462 159.873 82.0931 159.664 82.5095C159.595 82.6483 159.247 83.1341 159.247 83.2035L159.386 83.2729C159.664 83.481 160.011 83.6198 160.289 83.828C163.137 85.4935 165.984 87.0895 168.832 88.755C170.29 89.5877 171.748 90.4204 173.207 91.3226C173.762 91.6001 174.249 91.9471 174.804 92.2247C175.082 92.3635 175.36 92.6411 175.707 92.7104C175.776 92.7104 175.776 92.7798 175.846 92.7798C179.596 86.3262 182.513 79.3868 184.388 72.1698C184.874 70.088 185.36 68.0061 185.708 65.9243Z" fill="#4A4A4A"/>
<path d="M184.527 40.5261C188.208 36.1542 192.444 32.2682 197.444 29.3536C194.389 27.5494 191.264 25.7451 188.208 24.0103C186.333 22.9 184.388 21.7896 182.513 20.6793C182.027 20.4018 181.541 20.0548 181.054 19.8466C180.777 19.7078 180.777 19.7772 180.429 20.0548C179.457 20.61 178.554 21.2345 177.651 21.859C173.554 24.7736 169.943 28.3821 166.887 32.2682C168.901 33.4479 170.845 34.5582 172.859 35.7379C175.846 37.4727 178.832 39.2076 181.818 40.9424C182.235 41.22 182.721 41.4282 183.138 41.7058C183.207 41.7751 183.346 41.8445 183.416 41.8445C183.485 41.8445 183.624 41.6364 183.624 41.567C183.971 41.2894 184.249 40.9424 184.527 40.5261Z" fill="#E259A4"/>
<path d="M197.445 29.423C212.585 20.6794 224.947 27.6882 225.016 45.1061C225.086 62.524 212.793 83.7586 197.653 92.5023C188.764 97.6374 180.846 97.3598 175.846 92.7104C182.444 81.2604 186.541 68.4225 186.472 56.7643C186.472 50.8658 185.361 45.8694 183.485 41.914C187.513 36.7788 192.305 32.407 197.445 29.423Z" fill="#F18CD0"/>
<path d="M183.416 41.9139C185.36 45.8694 186.402 50.9352 186.402 56.7643C186.402 68.3531 182.374 81.2604 175.776 92.7104C172.165 89.4489 170.082 84.0362 170.012 76.8192C170.012 65.2997 175.429 52.0455 183.416 41.9139Z" fill="#2145CC"/>
<path d="M151.191 35.0439C157.094 31.9212 163.97 29.8394 170.637 31.3661C172.443 31.7824 174.179 32.407 175.776 33.3785C172.026 31.2273 168.276 29.0067 164.526 26.8554C162.859 25.8839 161.122 24.9124 159.456 23.8715C156.192 21.9978 152.511 21.1651 148.691 21.3039C143.205 21.5121 137.857 23.5939 133.134 26.3003C135.148 27.48 137.093 28.5903 139.107 29.77C142.093 31.5048 145.08 33.2397 148.066 34.9745C148.483 35.2521 148.969 35.4603 149.386 35.7379C149.455 35.8073 149.594 35.8767 149.663 35.8767C149.733 35.8767 149.872 35.8073 150.011 35.7379C150.358 35.4603 150.775 35.2521 151.191 35.0439Z" fill="#F07E23"/>
<path d="M113.133 99.0947C113.133 89.1713 115.911 79.2479 120.078 70.2961C124.245 61.2749 129.94 52.8088 137.024 45.8C140.843 41.9833 145.01 38.583 149.663 35.946C147.649 34.7663 145.705 33.656 143.691 32.4763C140.704 30.7415 137.649 29.0066 134.662 27.2024C134.246 26.9942 133.898 26.7166 133.482 26.5084C132.995 26.2309 133.065 26.3003 132.509 26.6472C129.523 28.4515 126.745 30.5333 124.106 32.7539C118.758 37.3339 114.175 42.816 110.286 48.6451C106.396 54.4743 103.132 60.7891 100.771 67.4509C98.3403 74.1128 96.7429 81.191 96.604 88.3386C96.4651 94.0983 97.2985 100.136 100.076 105.271C101.882 108.602 104.452 111.308 107.716 113.182C110.286 114.708 112.925 116.235 115.494 117.692C118.133 119.219 120.772 120.746 123.411 122.272C123.55 122.342 123.689 122.411 123.828 122.55C117.925 119.15 114.869 112.696 113.758 106.173C113.341 103.883 113.133 101.454 113.133 99.0947Z" fill="#FF9A49"/>
<path d="M149.663 35.8766C164.803 27.1329 177.79 30.1863 183.416 41.9139C175.36 52.0454 170.012 65.2303 170.081 76.8191C170.081 84.0361 172.234 89.4488 175.846 92.7104C169.248 104.16 160.081 114.153 149.941 119.982C129.731 131.64 113.272 122.272 113.202 99.0252C113.133 75.7782 129.453 47.5348 149.663 35.8766Z" fill="#FFBA83"/>
<path d="M181.263 81.4686C180.846 82.5789 180.36 83.6198 179.874 84.7301L174.249 91.1144C174.04 90.8368 173.762 90.4899 173.554 90.2123L181.263 81.4686Z" fill="#4AC5B1"/>
<path d="M183.971 73.6964C183.694 74.5291 183.485 75.4313 183.207 76.264L172.512 88.2692C172.304 87.9222 172.165 87.5058 172.026 87.1589L183.971 73.6964Z" fill="#4AC5B1"/>
<path d="M185.43 67.2428C185.291 68.0061 185.152 68.7001 185.013 69.4634L171.193 85.0771C171.054 84.6607 170.985 84.2444 170.846 83.7586L185.43 67.2428Z" fill="#4AC5B1"/>
<path d="M186.263 61.6219C186.194 62.2465 186.124 62.871 186.055 63.565L170.359 81.1911C170.29 80.7053 170.22 80.2196 170.22 79.6644L186.263 61.6219Z" fill="#4AC5B1"/>
<path d="M186.402 56.6255C186.402 56.6949 186.402 56.7643 186.402 56.9031C186.402 57.3888 186.402 57.8746 186.402 58.3603L170.082 76.8192C170.082 76.264 170.082 75.6395 170.151 75.0843L186.402 56.6255Z" fill="#4AC5B1"/>
<path d="M185.5 48.0901C185.569 48.5758 185.708 48.9922 185.777 49.478L171.54 65.508C171.749 64.6753 172.026 63.8426 172.235 63.0098L185.5 48.0901Z" fill="#4AC5B1"/>
<path d="M184.457 44.4816C184.596 44.8979 184.735 45.3143 184.874 45.7307L174.109 57.8746C174.596 56.6949 175.082 55.5846 175.637 54.4743L184.457 44.4816Z" fill="#4AC5B1"/>
<path d="M186.194 52.1149C186.263 52.6006 186.332 53.1558 186.332 53.6415L170.429 71.6146C170.498 70.9207 170.637 70.2267 170.706 69.5328L186.194 52.1149Z" fill="#4AC5B1"/>
<path d="M64.8654 138.372L60.7679 136.012L84.589 122.272L88.6865 124.632L64.8654 138.372Z" fill="#FEA966"/>
<path d="M64.0321 139.76L59.9346 137.4L59.5874 21.4427L63.6849 23.8021L64.0321 139.76Z" fill="#FFA55C"/>
<path d="M63.6849 23.8022L59.5874 21.4428L60.4208 20.957L64.5183 23.3858L63.6849 23.8022Z" fill="#FEA966"/>
<path d="M64.5183 23.3859L64.8656 138.372L88.6867 124.632V125.534L64.0322 139.76L63.6849 23.8022L64.5183 23.3859Z" fill="#D98038"/>
<path d="M72.2965 30.0476L69.0324 28.1046V27.4106L72.2965 29.2843V30.0476Z" fill="#FFA55C"/>
<path d="M72.2965 29.2843L69.0324 27.4106L79.1025 21.5815L82.3667 23.4552L72.2965 29.2843Z" fill="#FEA966"/>
<path d="M82.3667 23.4552V24.2185L72.2965 30.0476V29.2843L82.3667 23.4552Z" fill="#D98038"/>
<path d="M72.2965 38.6525L69.0324 36.7788V36.0155L72.2965 37.8891V38.6525Z" fill="#FFA55C"/>
<path d="M72.2965 37.8891L69.0324 36.0155L79.1025 30.1864L82.3667 32.06L72.2965 37.8891Z" fill="#FEA966"/>
<path d="M82.3667 32.0601V32.8234L72.2965 38.6525V37.8892L82.3667 32.0601Z" fill="#D98038"/>
<path d="M72.2965 47.2573L69.0324 45.3837V44.6204L72.2965 46.494V47.2573Z" fill="#FFA55C"/>
<path d="M72.2965 46.494L69.0324 44.6204L79.1025 38.7913L82.3667 40.7343L72.2965 46.494Z" fill="#FEA966"/>
<path d="M82.3667 40.7344V41.4977L72.2965 47.2574V46.4941L82.3667 40.7344Z" fill="#D98038"/>
<path d="M72.2965 55.9317L69.0324 53.9887V53.2253L72.2965 55.1684V55.9317Z" fill="#FFA55C"/>
<path d="M72.2965 55.1683L69.0324 53.2253L79.1025 47.4656L82.3667 49.3392L72.2965 55.1683Z" fill="#FEA966"/>
<path d="M82.3667 49.3392V50.1026L72.2965 55.9317V55.1683L82.3667 49.3392Z" fill="#D98038"/>
<path d="M72.2965 64.5365L69.0324 62.6629V61.8995L72.2965 63.7732V64.5365Z" fill="#FFA55C"/>
<path d="M72.2965 63.7732L69.0324 61.8995L79.1025 56.0704L82.3667 57.9441L72.2965 63.7732Z" fill="#FEA966"/>
<path d="M82.3667 57.9441V58.7074L72.2965 64.5365V63.7732L82.3667 57.9441Z" fill="#D98038"/>
<path d="M72.2965 73.1414L69.0324 71.2677V70.5044L72.2965 72.378V73.1414Z" fill="#FFA55C"/>
<path d="M72.2965 72.378L69.0324 70.5044L79.1025 64.6753L82.3667 66.6183L72.2965 72.378Z" fill="#FEA966"/>
<path d="M82.3667 66.6183V67.3122L72.2965 73.1413V72.378L82.3667 66.6183Z" fill="#D98038"/>
<path d="M72.2965 81.7462L69.0324 79.8726V79.1093L72.2965 81.0523V81.7462Z" fill="#FFA55C"/>
<path d="M72.2965 81.0522L69.0324 79.1092L79.1025 73.3495L82.3667 75.2231L72.2965 81.0522Z" fill="#FEA966"/>
<path d="M82.3667 75.2231V75.9865L72.2965 81.7462V81.0522L82.3667 75.2231Z" fill="#D98038"/>
<path d="M72.2965 90.4205L69.0324 88.4775V87.7836L72.2965 89.6572V90.4205Z" fill="#FFA55C"/>
<path d="M72.2965 89.6572L69.0324 87.7836L79.1025 81.9545L82.3667 83.8281L72.2965 89.6572Z" fill="#FEA966"/>
<path d="M82.3667 83.8281V84.5915L72.2965 90.4206V89.6572L82.3667 83.8281Z" fill="#D98038"/>
<path d="M72.2965 99.0254L69.0324 97.1518V96.3884L72.2965 98.2621V99.0254Z" fill="#FFA55C"/>
<path d="M72.2965 98.2621L69.0324 96.3884L79.1025 90.5593L82.3667 92.433L72.2965 98.2621Z" fill="#FEA966"/>
<path d="M82.3667 92.433V93.1963L72.2965 99.0254V98.2621L82.3667 92.433Z" fill="#D98038"/>
<path d="M72.2965 107.63L69.0324 105.757V104.993L72.2965 106.867V107.63Z" fill="#FFA55C"/>
<path d="M72.2965 106.867L69.0324 104.993L79.1025 99.1642L82.3667 101.107L72.2965 106.867Z" fill="#FEA966"/>
<path d="M82.3667 101.107V101.871L72.2965 107.63V106.867L82.3667 101.107Z" fill="#D98038"/>
<path d="M72.2965 116.305L69.0324 114.361V113.598L72.2965 115.541V116.305Z" fill="#FFA55C"/>
<path d="M72.2965 115.541L69.0324 113.598L79.1025 107.838L82.3667 109.712L72.2965 115.541Z" fill="#FEA966"/>
<path d="M82.3667 109.712V110.475L72.2965 116.304V115.541L82.3667 109.712Z" fill="#D98038"/>
<path d="M72.2965 124.909L69.0324 123.036V122.272L72.2965 124.146V124.909Z" fill="#FFA55C"/>
<path d="M72.2965 124.146L69.0324 122.272L79.1025 116.443L82.3667 118.317L72.2965 124.146Z" fill="#FEA966"/>
<path d="M82.3667 118.317V119.08L72.2965 124.909V124.146L82.3667 118.317Z" fill="#D98038"/>
<path d="M236.058 46.7716L236.614 48.9922C236.753 49.4085 237.17 49.6861 237.586 49.6167L247.795 47.1185C248.837 46.8409 249.462 45.8 249.254 44.7591C248.976 43.7182 247.934 43.0937 246.892 43.3019L236.614 45.8C236.197 45.8694 235.919 46.3552 236.058 46.7716Z" fill="#E59885"/>
<path d="M239.114 48.6453C239.739 47.7431 239.461 46.5634 238.559 45.9389L227.725 39.7628L226.683 41.2895L236.406 49.2004C237.309 49.7556 238.489 49.478 239.114 48.6453Z" fill="#E59885"/>
<path d="M227.725 39.6933C227.725 39.6933 227.863 37.6809 227.377 37.2645C226.891 36.7788 226.613 38.0972 226.613 38.0972C226.405 37.8891 226.197 37.6809 225.988 37.4727C225.849 37.3339 225.71 37.2645 225.641 37.0563C225.641 36.9869 225.572 36.5706 225.641 36.5706C225.294 36.5012 225.016 36.8482 224.877 37.1951C224.738 37.5421 224.738 37.8891 224.669 38.236C224.599 38.3748 224.53 38.5136 224.53 38.6524C224.391 39.0688 224.46 39.4851 224.669 39.8321C224.947 40.2485 225.294 40.2485 225.641 40.4566C225.988 40.5954 226.336 40.873 226.683 41.0118L227.725 39.6933Z" fill="#E59885"/>
<path d="M245.642 83.0646C244.323 82.787 243.559 81.538 243.767 80.2195L247.24 63.7731L254.671 65.3691L248.42 81.191C248.143 82.5095 246.892 83.3422 245.642 83.0646Z" fill="#513242"/>
<path d="M246.267 79.8032C244.948 79.595 243.767 80.4971 243.559 81.8156L240.573 102.495L243.559 102.911L248.281 82.5096C248.42 81.1911 247.518 79.942 246.267 79.8032Z" fill="#513242"/>
<path d="M259.254 83.6893C257.935 83.7587 256.824 82.7178 256.754 81.3993L253.768 64.7447L260.643 64.3977L261.546 81.1911C261.616 82.5096 260.574 83.6199 259.254 83.6893Z" fill="#513242"/>
<path d="M259.046 80.4277C257.727 80.7053 256.893 81.9544 257.171 83.2729L261.269 103.744L264.185 103.12L261.824 82.3014C261.616 80.9829 260.366 80.1501 259.046 80.4277Z" fill="#513242"/>
<path d="M246.684 64.8834C246.684 64.8834 250.851 65.5773 254.185 65.4385C258.491 65.2304 261.269 64.1894 261.269 64.1894L260.088 44.8285C260.018 43.3018 258.768 42.1221 257.31 42.1221C255.99 42.0527 254.463 42.0527 252.935 42.1221C250.226 42.1915 246.129 42.9548 246.129 42.9548L246.684 64.8834Z" fill="#59CCBD"/>
<path d="M240.573 102.495C240.573 102.495 237.031 102.009 236.545 103.258L243.351 104.23L243.559 102.911L240.573 102.495Z" fill="#F96692"/>
<path d="M251.384 43.0497L254.221 43.2869L254.563 39.2069L251.725 38.9697L251.384 43.0497Z" fill="#CC8071"/>
<path d="M261.268 103.189C261.268 103.189 257.657 103.397 257.449 104.716L264.324 104.438L264.255 103.05L261.268 103.189Z" fill="#F96692"/>
<path d="M249.74 35.6685C249.81 37.1258 249.948 38.5831 250.296 40.0404C250.365 40.1791 250.365 40.3873 250.504 40.5261C250.712 40.8037 251.129 40.8731 251.546 40.8731C254.532 41.0119 256.824 39.3464 257.102 36.2931C257.379 32.9622 255.227 31.2273 252.171 30.8109C251.546 30.7415 250.851 30.8803 250.435 31.3661C250.018 31.7825 249.948 32.4764 249.879 33.0316C249.671 33.8643 249.671 34.7664 249.74 35.6685Z" fill="#E59885"/>
<path d="M265.296 56.2092L267.172 54.9601C267.519 54.6825 267.588 54.1274 267.31 53.711L260.435 43.7877C259.74 42.7468 258.421 42.4692 257.588 43.0243C256.685 43.6489 256.546 44.9674 257.24 45.9389L264.116 55.8622C264.394 56.348 264.949 56.4868 265.296 56.2092Z" fill="#E59885"/>
<path d="M266.408 57.597L263.213 63.1486C262.658 64.0507 261.477 64.3977 260.574 63.8425L251.546 58.638C250.643 58.0828 250.296 56.9031 250.851 56.001L254.046 50.4495C254.602 49.5473 255.782 49.2004 256.685 49.7555L265.713 54.9601C266.616 55.5152 266.964 56.6949 266.408 57.597Z" fill="#A6A6BA"/>
<path d="M267.172 53.711C266.686 52.7394 265.644 52.3231 264.741 52.67L254.879 58.2216L255.643 59.887L266.408 56.2091C267.311 55.7928 267.658 54.6825 267.172 53.711Z" fill="#E59885"/>
<path d="M255.99 59.4013C256.06 59.7483 255.921 59.9565 255.713 60.0952C255.504 60.234 255.365 60.4422 255.088 60.6504C254.532 61.0668 253.699 61.0668 253.074 60.7892C252.865 60.7198 252.657 60.581 252.518 60.3728C252.379 60.1646 252.31 59.9565 252.379 59.7483C252.449 59.5401 252.588 59.4013 252.726 59.2625C252.935 58.9849 253.004 58.638 253.213 58.4298C253.49 58.2216 253.768 58.2216 254.115 58.2216C254.324 58.2216 254.74 58.0134 254.949 58.0134C255.296 58.0828 255.504 58.7074 255.713 58.9849C255.782 59.1237 255.99 59.3319 255.99 59.4013Z" fill="#E59885"/>
<path d="M252.865 42.0527C253.838 42.0527 254.879 42.0527 255.852 42.0527C255.643 43.6488 254.254 44.8285 252.657 44.8285C251.129 44.8285 249.879 43.7876 249.532 42.3997C250.574 42.1915 251.824 42.0527 252.865 42.0527Z" fill="#2FAE9B"/>
<path d="M252.865 42.0527C253.629 42.0527 254.393 42.0527 255.157 42.0527C255.018 43.3712 253.976 44.3427 252.657 44.3427C251.407 44.3427 250.365 43.4406 250.156 42.2609C251.059 42.1915 252.032 42.0527 252.865 42.0527Z" fill="#CC8071"/>
<path d="M255.365 39.3464C255.227 39.6934 254.879 40.0404 254.532 40.2485C254.532 40.2485 254.463 40.2485 254.463 40.3179C254.463 40.3179 254.463 40.3179 254.463 40.3873C254.393 40.5955 254.393 40.8037 254.463 41.0119C255.365 41.0119 256.338 40.4567 256.893 39.7628C257.31 39.277 257.518 38.6525 257.588 38.0279C257.657 37.7504 257.657 37.4034 257.657 37.1258C257.657 36.8482 257.727 36.5013 257.727 36.2237C257.727 35.4604 257.518 34.7664 257.241 34.0725C257.171 33.8643 257.102 33.6561 256.963 33.4479C256.824 33.2397 256.616 33.101 256.407 33.101C256.338 33.101 256.338 33.101 256.268 33.101C256.199 33.1703 256.199 33.2397 256.199 33.2397C256.129 33.5867 256.199 33.9337 256.199 34.35C256.268 35.391 256.129 36.3625 255.852 37.334C255.782 37.6116 255.643 37.8891 255.574 38.2361C255.574 38.5831 255.643 38.9301 255.504 39.277C255.435 39.2076 255.365 39.277 255.365 39.3464Z" fill="#1A39AE"/>
<path d="M249.462 42.7467C249.462 42.7467 245.364 42.0528 240.85 44.7592C240.85 44.7592 242.309 48.9228 245.364 51.2128C245.364 51.2128 248.42 48.6452 249.601 45.2449C250.156 43.9958 249.462 42.7467 249.462 42.7467Z" fill="#59CCBD"/>
<path d="M257.032 42.0528C257.032 42.0528 260.157 41.9834 261.963 45.5919L263.283 47.188C263.283 47.188 262.033 51.2822 260.157 52.0456C260.227 52.0456 254.463 45.4531 257.032 42.0528Z" fill="#59CCBD"/>
<path d="M227.725 34.0724L225.155 34.9745C225.085 34.9745 225.016 35.1133 225.016 35.1827V42.6079C225.016 42.7467 225.155 42.8855 225.363 42.8161L227.933 41.9139C228.002 41.9139 228.072 41.7752 228.072 41.7058V34.2806C228.072 34.0724 227.933 34.003 227.725 34.0724Z" fill="#1A3AB5"/>
<path d="M227.725 34.0724L225.155 34.9745C225.085 34.9745 225.016 35.1133 225.016 35.1827V42.6079C225.016 42.7467 225.155 42.8855 225.363 42.8161L227.933 41.9139C228.002 41.9139 228.072 41.7752 228.072 41.7058V34.2806C228.072 34.0724 227.933 34.003 227.725 34.0724Z" fill="#5549AD"/>
<path d="M227.933 41.9139C228.002 41.9139 228.072 41.7751 228.072 41.7058V34.35L225.502 35.1827C225.433 35.1827 225.363 35.3215 225.363 35.3909V42.7467L227.933 41.9139Z" fill="#1A3AB5"/>
<path d="M227.52 35.9464C227.635 35.9459 227.727 35.7902 227.727 35.5985C227.726 35.4069 227.632 35.252 227.517 35.2524C227.402 35.2529 227.309 35.4086 227.31 35.6003C227.311 35.7919 227.405 35.9468 227.52 35.9464Z" fill="#1F41C1"/>
<path d="M227.586 38.6525C227.377 38.3749 227.238 38.0973 227.516 38.028C227.655 38.028 227.794 38.028 227.863 38.0973C228.349 38.3749 228.627 38.9301 228.697 39.4158C228.766 39.6934 228.766 40.1792 228.488 40.3874C228.28 40.5261 227.863 40.2486 227.794 40.1098C227.655 39.971 227.655 39.7628 227.724 39.5546C227.724 39.4158 227.794 39.277 227.863 39.1383C227.863 39.1383 227.863 39.0689 227.863 38.9995V38.9301C227.794 38.9301 227.724 38.7913 227.586 38.6525Z" fill="#E59885"/>
<path d="M254.254 33.5867C254.254 33.5867 251.337 35.4603 249.254 35.1134C249.254 35.1134 246.962 30.6722 250.504 29.9782C254.046 29.2843 256.199 32.3376 256.199 32.3376C256.199 32.3376 257.796 33.7949 257.518 35.391C257.31 36.9176 255.504 38.4443 255.504 38.4443C255.504 38.4443 253.56 34.5582 254.254 33.5867Z" fill="#1A39AE"/>
<path d="M255.365 36.7789C255.504 36.6401 255.574 36.5707 255.782 36.5707C255.99 36.5707 256.199 36.7095 256.268 36.9176C256.338 37.1258 256.338 37.334 256.338 37.5422C256.199 38.2361 255.782 38.8607 255.157 39.2076C255.018 38.7913 254.879 38.3055 254.81 37.8892C254.74 37.681 254.81 37.5422 254.949 37.334C255.018 37.1258 255.157 36.987 255.365 36.7789Z" fill="#E59885"/>
<path opacity="0.34" d="M293.007 185.768C309.189 186.67 343.844 191.875 358.012 194.026C362.04 194.65 366.068 193.748 369.471 191.528L390.722 177.441C391.278 177.094 391.139 176.192 390.444 176.053L304.397 157.178C303.008 156.9 302.105 158.566 303.147 159.537L322.245 178.273C322.592 178.759 322.384 179.453 321.759 179.523L293.007 184.172C291.965 184.38 292.035 185.699 293.007 185.768Z" fill="#CCCCCC"/>
<path d="M314.745 150.654L335.163 138.788L364.332 155.651L343.914 167.517L314.745 150.654Z" fill="#3180FF"/>
<path d="M314.884 101.038L335.302 89.1714L335.163 138.788L314.745 150.655L314.884 101.038Z" fill="#2956FF"/>
<path d="M305.924 63.4955L326.342 51.6292L381.624 178.135L361.137 190.001L305.924 63.4955Z" fill="#3180FF"/>
<path d="M305.925 63.4956L361.137 190.001L305.577 157.941L305.925 63.4956ZM314.884 101.038L314.745 150.724L343.983 167.587L314.884 101.038Z" fill="#2C4FD6"/>
<path d="M309.397 82.7177V84.0362L305.924 82.0237V80.6359L309.397 82.7177Z" fill="#2844AE"/>
<path d="M308.425 85.2158V86.6037L305.924 85.1464V83.7585L308.425 85.2158Z" fill="#2844AE"/>
<path d="M308.425 88.061V89.4489L305.924 87.9916V86.6038L308.425 88.061Z" fill="#2844AE"/>
<path d="M308.425 90.9061V92.294L305.924 90.8367V89.4489L308.425 90.9061Z" fill="#2844AE"/>
<path d="M309.397 94.0983V95.4168L305.924 93.4044V92.0165L309.397 94.0983Z" fill="#2844AE"/>
<path d="M308.425 96.5966V97.9844L305.924 96.5272V95.1393L308.425 96.5966Z" fill="#2844AE"/>
<path d="M308.425 99.4417V100.83L305.924 99.3723V97.9844L308.425 99.4417Z" fill="#2844AE"/>
<path d="M308.425 102.287V103.675L305.924 102.217V100.83L308.425 102.287Z" fill="#2844AE"/>
<path d="M309.397 105.479V106.797L305.924 104.785V103.397L309.397 105.479Z" fill="#2844AE"/>
<path d="M308.425 107.977V109.365L305.924 107.908V106.52L308.425 107.977Z" fill="#2844AE"/>
<path d="M308.425 110.822V112.21L305.924 110.753V109.365L308.425 110.822Z" fill="#2844AE"/>
<path d="M308.425 113.667V115.055L305.924 113.598V112.21L308.425 113.667Z" fill="#2844AE"/>
<path d="M309.397 116.86V118.178L305.924 116.166V114.778L309.397 116.86Z" fill="#2844AE"/>
<path d="M308.425 119.358V120.746L305.924 119.288V117.901L308.425 119.358Z" fill="#2844AE"/>
<path d="M308.425 122.203V123.591L305.924 122.133V120.746L308.425 122.203Z" fill="#2844AE"/>
<path d="M308.425 125.048V126.436L305.924 124.979V123.591L308.425 125.048Z" fill="#2844AE"/>
<path d="M309.397 128.24V129.559L305.924 127.546V126.158L309.397 128.24Z" fill="#2844AE"/>
<path d="M308.425 130.738V132.126L305.924 130.669V129.281L308.425 130.738Z" fill="#2844AE"/>
<path d="M308.425 133.584V134.971L305.924 133.514V132.126L308.425 133.584Z" fill="#2844AE"/>
<path d="M308.425 136.429V137.817L305.924 136.359V134.971L308.425 136.429Z" fill="#2844AE"/>
<path d="M309.397 139.621V140.939L305.924 138.927V137.539L309.397 139.621Z" fill="#2844AE"/>
<path d="M308.425 142.119V143.507L305.924 142.05V140.662L308.425 142.119Z" fill="#2844AE"/>
<path d="M308.425 144.964V146.352L305.924 144.895V143.507L308.425 144.964Z" fill="#2844AE"/>
<path d="M308.425 147.809V149.197L305.924 147.74V146.352L308.425 147.809Z" fill="#2844AE"/>
<path d="M309.397 151.002V152.32L305.924 150.308V148.92L309.397 151.002Z" fill="#2844AE"/>
<path d="M308.425 153.5V154.887L305.924 153.43V152.042L308.425 153.5Z" fill="#2844AE"/>
<path d="M308.425 156.345V157.733L305.924 156.275V154.888L308.425 156.345Z" fill="#2844AE"/>
<path d="M320.995 168.836L321.273 168.975C321.967 169.46 322.94 169.252 323.426 168.558L329.398 159.606L328.843 159.259C327.523 158.427 325.787 158.774 324.954 160.023L320.578 166.685C320.092 167.379 320.301 168.35 320.995 168.836Z" fill="#F27C1D"/>
<path d="M332.732 178.412C332.732 178.412 333.982 186.184 326.69 184.658C326.69 184.658 321.551 184.449 319.675 182.021L320.231 175.289L332.732 178.412Z" fill="#1A3AB5"/>
<path d="M323.357 168.489C323.634 167.587 323.079 166.615 322.176 166.338L311.342 163.909L310.856 165.435L321.134 169.599C322.107 169.946 323.079 169.391 323.357 168.489Z" fill="#F27C1D"/>
<path d="M321.69 175.498C321.69 175.498 324.607 177.094 327.107 177.788C330.371 178.69 332.663 178.482 332.663 178.482L336.621 163.354C337.177 161.202 336.205 159.051 334.329 158.357C333.704 158.149 333.079 157.941 332.454 157.733C331.552 157.455 329.954 157.872 328.982 157.733C327.662 157.525 326.343 158.427 325.926 159.884L321.69 175.498Z" fill="#F27C1D"/>
<path d="M304.189 182.229C303.98 181.049 304.675 179.939 305.855 179.731L320.44 176.677L327.454 184.172L306.689 183.894C305.508 184.102 304.397 183.339 304.189 182.229Z" fill="#132E95"/>
<path d="M307.175 181.604C306.966 180.425 305.925 179.661 304.744 179.8L286.409 182.576L286.826 185.213L305.369 184.033C306.55 183.825 307.314 182.784 307.175 181.604Z" fill="#132E95"/>
<path d="M286.409 182.576C286.409 182.576 285.854 179.453 284.673 179.314L285.576 185.352L286.757 185.143L286.409 182.576Z" fill="#0C268A"/>
<path d="M316.272 170.987C317.106 170.154 318.425 170.224 319.259 171.056L330.996 180.425L326.62 184.658L316.203 173.971C315.439 173.138 315.439 171.75 316.272 170.987Z" fill="#1A3AB5"/>
<path d="M318.565 170.432C317.523 169.877 316.273 170.293 315.717 171.334L307.314 187.85L309.675 189.099L319.537 173.346C320.023 172.305 319.606 170.987 318.565 170.432Z" fill="#1A3AB5"/>
<path d="M308.008 186.948C308.008 186.948 303.911 187.989 303.564 189.099L309.536 189.654L309.675 188.96L308.008 186.948Z" fill="#0C268A"/>
<path d="M343.774 155.096L342.455 153.569C342.177 153.292 341.76 153.222 341.413 153.5L333.635 159.953C332.94 160.578 332.801 161.619 333.426 162.382C334.051 163.076 335.093 163.215 335.857 162.59L343.635 156.137C343.983 155.859 343.983 155.443 343.774 155.096Z" fill="#F27C1D"/>
<path d="M344.608 155.165C344.886 154.263 344.4 153.291 343.566 153.014L332.871 150.169L332.315 151.695L342.455 156.275C343.358 156.553 344.33 156.067 344.608 155.165Z" fill="#F27C1D"/>
<path d="M333.01 150.308C333.01 150.308 332.662 148.573 332.176 148.295C331.69 148.017 331.69 149.197 331.69 149.197C331.69 149.197 329.329 147.601 328.843 148.364C328.357 149.128 327.87 150.724 332.385 151.695L333.01 150.308Z" fill="#DAD180"/>
<path d="M311.342 164.048C311.342 164.048 310.578 162.452 310.022 162.313C309.467 162.105 309.814 163.284 309.814 163.284C309.814 163.284 307.105 162.313 306.827 163.145C306.48 163.978 306.48 165.713 311.133 165.505L311.342 164.048Z" fill="#F0C6AA"/>
<path d="M309.328 158.565L306.897 159.815C306.827 159.884 306.758 159.953 306.758 160.092L307.939 167.448C307.939 167.587 308.147 167.725 308.286 167.656L310.717 166.407C310.786 166.338 310.855 166.268 310.855 166.129L309.675 158.774C309.675 158.565 309.466 158.496 309.328 158.565Z" fill="#1A3AB5"/>
<path d="M309.328 158.565L306.897 159.815C306.827 159.884 306.758 159.953 306.758 160.092L307.939 167.448C307.939 167.587 308.147 167.725 308.286 167.656L310.717 166.407C310.786 166.338 310.855 166.268 310.855 166.129L309.675 158.774C309.675 158.565 309.466 158.496 309.328 158.565Z" fill="#5549AD"/>
<path d="M310.717 166.338C310.786 166.268 310.855 166.199 310.855 166.06L309.675 158.774L307.313 160.023C307.244 160.092 307.175 160.162 307.175 160.3L308.355 167.587L310.717 166.338Z" fill="#1A3AB5"/>
<path d="M310.439 165.782C310.508 165.713 310.578 165.644 310.578 165.574L309.605 159.606L307.661 160.647C307.591 160.717 307.522 160.786 307.522 160.855L308.494 166.823L310.439 165.782Z" fill="#54B4CA"/>
<path d="M309.328 161.896C309.119 162.174 309.189 162.59 309.467 162.868C309.536 162.937 309.605 163.007 309.675 163.076C309.814 163.215 309.814 163.354 309.883 163.492C310.022 163.978 310.23 164.395 310.647 164.672C310.717 164.742 310.786 164.742 310.856 164.742C310.925 164.672 310.925 164.603 310.925 164.533C310.856 164.186 310.856 163.839 310.786 163.562C310.717 163.284 310.647 162.937 310.508 162.729C310.3 162.521 309.258 161.966 309.328 161.896Z" fill="#F0C6AA"/>
<path d="M333.565 158.565C333.565 158.427 333.565 158.288 333.496 158.149C333.149 158.01 332.801 157.941 332.454 157.802C331.829 157.594 330.857 157.733 329.954 157.802C329.815 158.01 329.746 158.288 329.746 158.565C329.746 159.537 330.579 160.3 331.621 160.3C332.732 160.3 333.565 159.468 333.565 158.565Z" fill="#F0C6AA"/>
<path d="M330.538 158.688L333.032 158.509L332.775 154.91L330.281 155.088L330.538 158.688Z" fill="#F0C6AA"/>
<path d="M328.079 152.598C328.079 153.083 328.148 153.5 328.218 153.916C328.357 154.471 328.426 155.096 328.704 155.582C328.912 155.998 329.121 156.345 329.468 156.622C329.537 156.692 329.676 156.831 329.815 156.831C329.954 156.831 330.023 156.831 330.162 156.831C331.343 156.553 332.524 156.622 333.357 155.582C334.121 154.679 334.399 153.361 334.329 152.181C334.19 149.891 332.593 148.087 330.926 148.226C328.704 148.365 328.009 150.655 328.079 152.598Z" fill="#F0C6AA"/>
<path d="M327.384 148.989C327.315 149.128 326.273 151.626 329.954 151.626C333.635 151.626 331.482 155.373 332.94 155.998C334.399 156.622 337.177 151.001 335.024 149.405C334.954 149.405 330.023 145.658 327.384 148.989Z" fill="#1D3592"/>
<path d="M332.107 153.5C332.107 153.5 332.871 152.32 333.149 153.083C333.426 153.847 332.871 155.581 332.107 155.581V153.5Z" fill="#F0C6AA"/>
<path d="M131.19 215.954L130.981 219.84L133.273 220.118L133.898 216.44L131.19 215.954Z" fill="#F0C6AA"/>
<path d="M112.439 197.704C111.258 196.802 110.911 195.205 111.675 193.887L119.731 184.658L125.495 189.099L116.258 197.218C115.355 198.398 113.619 198.606 112.439 197.704Z" fill="#1332A7"/>
<path d="M136.19 198.953C137.649 198.606 138.551 197.218 138.274 195.761L130.773 185.976L123.759 187.919L132.718 197.149C133.204 198.467 134.732 199.3 136.19 198.953Z" fill="#1332A7"/>
<path d="M130.704 217.55L134.037 218.383L138.135 196.732C138.482 195.136 137.371 193.54 135.704 193.332C134.037 193.124 132.579 194.373 132.509 196.038L130.704 217.55Z" fill="#1332A7"/>
<path d="M129.384 190.417L118.133 191.458V186.115H131.12L129.384 190.417Z" fill="#1332A7"/>
<path d="M131.954 186.948C131.954 186.948 128.134 188.544 124.662 188.266C121.675 188.058 117.995 186.601 117.995 186.601L120.009 163.978C120.009 163.978 122.995 163.284 126.259 163.562C128.62 163.77 132.857 165.019 132.857 165.019L131.954 186.948Z" fill="#79BBFC"/>
<path d="M133.273 220.118L137.163 222.547L130.634 221.228L130.982 219.84L133.273 220.118Z" fill="#1D1C3A"/>
<path d="M133.898 180.008L131.12 164.533L133.204 165.158C134.801 165.713 135.912 167.101 136.121 168.766L137.579 179.592C137.649 180.702 136.885 181.674 135.912 181.743C134.94 181.743 134.107 181.049 133.898 180.008Z" fill="#79BBFC"/>
<path d="M137.024 182.715L142.232 181.743C143.274 181.535 143.969 180.494 143.691 179.453C143.413 178.482 142.441 177.857 141.468 178.135L136.398 180.147L137.024 182.715Z" fill="#79BBFC"/>
<path d="M115.286 177.718L120.981 168.003L119.939 163.978C118.48 164.186 116.953 165.158 116.397 166.476L112.022 175.983C111.605 176.886 112.022 177.996 112.925 178.412C113.827 178.829 114.869 178.551 115.286 177.718Z" fill="#79BBFC"/>
<path d="M126.259 175.151L113.897 175.22C112.855 175.22 112.022 176.122 112.091 177.232C112.161 178.273 113.064 178.967 114.105 178.898L126.537 177.788L126.259 175.151Z" fill="#79BBFC"/>
<path d="M134.742 217.924L130.3 216.793L130.008 217.936L134.45 219.067L134.742 217.924Z" fill="#D6E2E6"/>
<path d="M135.01 195.344L138.968 194.373L138.691 192.083L134.176 192.43L135.01 195.344Z" fill="#F0C6AA"/>
<path d="M136.051 191.805L136.468 195.414L115.633 198.953C114.036 199.3 112.438 198.12 112.3 196.524C112.091 194.859 113.411 193.401 115.078 193.332L136.051 191.805Z" fill="#213FB1"/>
<path d="M138.968 194.373L141.399 198.259L140.079 191.736L138.69 192.083L138.968 194.373Z" fill="#1D1C3A"/>
<path d="M135.237 191.374L135.844 195.914L137.014 195.757L136.407 191.218L135.237 191.374Z" fill="#D6E2E6"/>
<path d="M122.995 164.395C122.925 164.117 122.925 163.839 122.925 163.562C123.898 163.492 125.078 163.423 126.259 163.562C127.023 163.631 127.926 163.77 128.898 163.978C128.759 165.158 127.926 166.199 126.676 166.546C125.009 166.962 123.411 165.991 122.995 164.395Z" fill="#79BBFC"/>
<path d="M123.412 164.325C123.342 164.048 123.342 163.77 123.342 163.492C124.245 163.423 125.217 163.423 126.259 163.492C126.884 163.562 127.648 163.701 128.481 163.839C128.412 164.88 127.648 165.852 126.537 166.129C125.148 166.546 123.759 165.713 123.412 164.325Z" fill="#F4B7B0"/>
<path d="M127.787 165.088L123.828 164.603L124.801 160.3L128.829 161.202L127.787 165.088Z" fill="#F4B7B0"/>
<path d="M131.329 159.468C131.051 160.37 130.565 161.202 130.009 162.174C129.87 162.452 129.731 162.729 129.454 162.868C128.342 163.631 126.12 161.966 125.426 161.133C124.384 159.953 124.314 158.427 124.87 156.969C125.703 154.818 127.856 153.569 129.593 154.263C131.051 154.818 131.607 156.137 131.607 157.594C131.607 158.288 131.537 158.912 131.329 159.468Z" fill="#F0C6AA"/>
<path d="M127.856 181.465L141.746 178.62L141.538 177.094L124.453 179.245L127.856 181.465Z" fill="#BBC1D0"/>
<path d="M124.453 179.245L124.523 179.8L127.926 182.09L127.856 181.465L124.453 179.245Z" fill="#393769"/>
<path d="M126.815 179.176C126.884 179.314 126.954 179.384 127.023 179.522C127.092 179.661 127.162 179.731 127.231 179.8C127.301 179.869 127.44 179.869 127.509 179.869C128.134 179.869 128.69 179.592 129.176 179.314C129.315 179.245 129.523 179.106 129.662 178.967C129.801 178.759 129.801 178.551 129.732 178.343C129.662 177.788 129.593 177.163 129.315 176.677C129.106 176.192 128.759 175.706 128.343 175.428C127.856 175.151 127.162 175.081 126.606 175.012C125.981 174.873 125.287 174.804 124.731 175.22C123.967 175.775 123.689 176.608 124.314 177.371C124.731 177.857 125.287 178.273 125.912 178.412C126.051 178.482 126.19 178.482 126.329 178.551C126.398 178.62 126.467 178.759 126.537 178.829C126.676 178.898 126.745 179.037 126.815 179.176Z" fill="#F0C6AA"/>
<path d="M127.44 181.465L127.509 181.049L128.343 171.681C128.412 171.126 128.968 170.571 129.593 170.501L142.927 168.072C143.552 167.934 144.038 168.35 143.969 168.905L143.135 178.273L143.066 178.69C142.997 179.106 142.649 179.453 142.233 179.522L128.204 182.021C127.718 182.09 127.44 181.882 127.44 181.465Z" fill="#393769"/>
<path d="M128.343 181.396L128.412 180.98L129.245 171.889C129.315 171.334 129.801 170.848 130.426 170.709L143.413 168.35C144.038 168.211 144.455 168.558 144.455 169.113L143.622 178.204L143.552 178.62C143.552 178.967 143.135 179.384 142.719 179.453L129.107 181.882C128.62 182.021 128.273 181.812 128.343 181.396Z" fill="#BBC1D0"/>
<path d="M135.288 174.387C135.357 174.11 135.218 173.901 135.079 173.763C135.357 173.624 135.635 173.485 135.913 173.485C136.677 173.416 137.232 173.901 137.093 174.595C136.954 175.289 136.26 175.914 135.426 176.053C134.801 176.122 134.385 175.844 134.246 175.359C134.801 175.22 135.218 174.804 135.288 174.387Z" fill="white"/>
<path d="M143.552 178.273L143.482 178.69C143.482 178.759 143.482 178.759 143.482 178.828C143.344 179.175 143.066 179.453 142.649 179.522L128.759 182.021C128.481 181.951 128.273 181.743 128.273 181.465L128.343 181.049V180.98L143.552 178.273Z" fill="#C5C3D8"/>
<path d="M133.899 179.384C133.76 179.384 133.621 179.384 133.482 179.453C133.204 179.592 133.274 180.078 133.482 180.355C133.551 180.425 133.551 180.425 133.551 180.494C133.551 180.633 133.412 180.772 133.274 180.841C132.648 181.049 131.954 181.327 131.329 181.535C131.051 181.674 130.704 181.743 130.565 182.021C130.357 182.368 130.426 182.853 130.704 183.131C130.982 183.408 131.398 183.547 131.746 183.686C133.065 183.964 134.454 183.686 135.774 183.339C136.399 183.131 137.024 182.923 137.371 182.368C138.552 180.078 135.426 179.453 133.899 179.384Z" fill="#F0C6AA"/>
<path d="M127.787 156.484C127.787 156.484 129.732 158.774 131.607 158.565C131.607 158.565 132.648 155.096 130.912 153.777C128.412 151.904 125.842 153.43 125.842 153.43C125.842 153.43 121.884 155.512 124.384 161.619C124.453 161.549 127.718 158.912 127.787 156.484Z" fill="#111470"/>
<path d="M127.092 158.912C127.162 158.566 127.092 158.219 126.814 157.941C126.398 157.455 125.564 157.733 125.425 158.357C125.356 158.566 125.356 158.774 125.356 158.982C125.356 159.398 125.564 159.884 125.912 160.162C126.259 160.509 126.467 160.3 126.676 159.953C126.884 159.606 127.092 159.259 127.092 158.912Z" fill="#F0C6AA"/>
<path opacity="0.34" d="M220.155 203.602L226.266 207.141C229.044 208.737 232.517 208.737 235.295 207.141L248.004 199.647C249.184 198.953 248.837 197.218 247.518 196.941L236.753 194.789L220.363 200.618C219.113 201.104 218.974 202.839 220.155 203.602Z" fill="#CCCCCC"/>
<path d="M230.503 206.17L222.863 201.659L222.794 184.38L230.433 188.891L230.503 206.17Z" fill="#3455D6"/>
<path d="M243.559 166.199L235.85 161.758L250.921 153.083L258.56 157.525L243.559 166.199Z" fill="#2C4FD6"/>
<path d="M215.432 197.565L207.723 193.124V177.996L215.362 182.437L215.432 197.565Z" fill="#3455D6"/>
<path d="M215.362 182.437L207.723 177.996L222.724 169.322L230.433 173.763L215.362 182.437Z" fill="#2C4FD6"/>
<path d="M230.433 173.763L222.724 169.322V152.042L230.363 156.553L230.433 173.763Z" fill="#3455D6"/>
<path d="M230.363 156.553L222.724 152.042L235.85 144.479L243.489 148.92L230.363 156.553Z" fill="#2C4FD6"/>
<path d="M243.489 148.92L243.559 166.199L258.56 157.525L258.629 172.583L243.559 181.327L243.628 198.536L230.502 206.17L230.433 188.891L215.432 197.565L215.362 182.437L230.433 173.763L230.363 156.553L243.489 148.92Z" fill="#3180FF"/>
<path opacity="0.34" d="M150.011 241.353L175.707 256.758C179.249 258.909 183.694 258.84 187.166 256.55L226.822 231.082C228.28 230.18 228.003 227.96 226.405 227.405L194.458 216.024C193.903 215.816 193.347 215.885 192.792 216.163L150.15 237.744C148.691 238.438 148.622 240.52 150.011 241.353Z" fill="#CCCCCC"/>
<path d="M201.126 208.113C201.056 209.709 199.598 210.889 198.348 211.652C198.209 211.791 198 211.86 197.862 211.93C197.792 211.93 197.653 211.999 197.584 212.068C197.584 212.068 197.584 212.138 197.584 212.207C197.584 212.485 197.584 212.693 197.584 212.971C197.584 214.775 197.584 216.579 197.584 218.383C197.584 218.869 197.584 219.424 197.584 219.91C198.834 219.147 200.292 218.175 200.917 216.787C201.126 216.232 201.126 215.608 201.126 214.983C201.126 213.179 201.126 211.305 201.126 209.501C201.126 208.946 201.126 208.46 201.126 207.905C201.126 208.044 201.126 208.113 201.126 208.113Z" fill="#F27C1D"/>
<path d="M193.972 206.517C193.139 206.031 192.236 205.823 191.333 205.962C190.5 206.031 189.667 206.378 188.903 206.794C188.555 207.003 188.139 207.211 187.791 207.419C185.916 208.529 184.041 209.57 182.166 210.68C180.638 211.583 179.11 212.485 177.513 213.387C177.374 213.456 177.235 213.526 177.166 213.595C176.61 213.942 175.777 214.428 175.777 215.191C175.777 215.816 175.777 216.371 175.777 216.995C175.777 219.008 175.777 220.951 175.777 222.963C175.777 223.033 175.777 223.033 175.777 223.102C175.777 222.269 176.749 221.714 177.374 221.367C177.652 221.228 177.93 221.02 178.207 220.881C179.388 220.187 180.638 219.494 181.819 218.8C183.208 217.967 184.666 217.134 186.055 216.301C186.958 215.816 187.791 215.26 188.694 214.775C189.319 214.428 190.014 214.081 190.778 213.942C191.472 213.803 192.167 213.803 192.861 214.011C193.486 214.22 194.25 214.497 194.667 215.052C194.806 215.26 194.945 215.469 194.945 215.677C194.945 214.636 194.945 213.595 194.945 212.554C194.945 211.097 194.945 209.64 194.945 208.252C194.945 208.113 194.945 207.974 194.945 207.835C195.014 207.141 194.459 206.794 193.972 206.517Z" fill="#B8590C"/>
<path d="M197.584 212.138V219.979L186.611 226.364V218.522L197.584 212.138Z" fill="#F27C1D"/>
<path d="M179.666 220.534C177.305 220.604 175.013 219.979 172.86 218.73C170.637 217.481 169.596 216.163 169.665 214.775C169.735 213.387 170.915 212.068 173.138 210.75L184.111 204.366C186.402 203.047 188.694 202.353 191.056 202.353C193.417 202.284 195.709 202.908 197.862 204.157C200.084 205.407 201.126 206.725 201.056 208.113C200.987 209.501 199.806 210.819 197.584 212.138L186.611 218.522C184.388 219.841 182.027 220.534 179.666 220.534ZM177.305 213.526C175.429 214.567 175.291 215.538 176.818 216.44C178.346 217.342 180.013 217.204 181.888 216.163L193.486 209.431C195.361 208.391 195.5 207.419 193.972 206.517C192.445 205.615 190.778 205.754 188.903 206.794L177.305 213.526Z" fill="#FF9A49"/>
<path d="M183.972 227.613C184.666 227.335 185.361 227.057 186.055 226.71C186.194 226.641 186.333 226.572 186.472 226.502C186.541 226.502 186.611 226.433 186.611 226.433C186.611 226.433 186.611 226.364 186.611 226.294C186.611 225.739 186.611 225.253 186.611 224.698C186.611 223.033 186.611 221.437 186.611 219.771C186.611 219.355 186.611 218.938 186.611 218.522C184.25 219.91 181.541 220.673 178.763 220.534C177.444 220.465 176.124 220.187 174.874 219.702C173.624 219.216 172.374 218.522 171.332 217.689C170.499 216.995 169.735 216.093 169.735 214.983C169.735 215.816 169.735 216.579 169.735 217.412C169.735 218.8 169.735 220.187 169.735 221.506C169.735 221.922 169.735 222.269 169.735 222.686C169.735 223.241 169.874 223.727 170.151 224.143C170.707 225.114 171.61 225.808 172.582 226.364C173.624 227.057 174.804 227.543 175.985 227.89C178.346 228.584 180.916 228.515 183.208 227.821C183.416 227.821 183.694 227.682 183.972 227.613Z" fill="#B8590C"/>
<path d="M217.794 216.371L217.724 224.212L156.678 239.895L156.748 231.985L217.794 216.371Z" fill="#F27C1D"/>
<path d="M156.748 231.985L156.678 239.895L152.303 237.328V229.486L156.748 231.985Z" fill="#F27C1D"/>
<path d="M213.349 213.803L217.794 216.371L156.748 231.984L152.303 229.486L213.349 213.803Z" fill="#FF9A49"/>
<path d="M200.362 238.854C200.362 237.952 200.362 237.05 200.362 236.218C200.362 234.83 200.362 233.372 200.362 231.984C200.362 231.637 200.362 231.36 200.362 231.013C200.292 232.609 198.834 233.789 197.584 234.552C197.445 234.691 197.237 234.76 197.098 234.83C197.028 234.83 196.889 234.899 196.82 234.968C196.82 234.968 196.82 235.038 196.82 235.107C196.82 235.385 196.82 235.593 196.82 235.871C196.82 237.675 196.82 239.479 196.82 241.283C196.82 241.769 196.82 242.324 196.82 242.81C197.653 242.324 198.417 241.769 199.112 241.144C199.737 240.589 200.292 239.826 200.362 238.854Z" fill="#F27C1D"/>
<path d="M193.209 229.347C192.375 228.862 191.472 228.654 190.569 228.792C189.736 228.862 188.903 229.209 188.139 229.625C187.791 229.833 187.375 230.041 187.028 230.25C185.152 231.36 183.277 232.401 181.402 233.511C179.874 234.413 178.346 235.315 176.749 236.217C176.61 236.287 176.541 236.356 176.402 236.426C175.846 236.773 175.013 237.258 174.943 238.022C174.943 238.646 174.943 239.201 174.943 239.826C174.943 241.838 174.943 243.781 174.943 245.794C174.943 245.863 174.943 245.863 174.943 245.933C174.943 245.1 175.916 244.545 176.541 244.198C176.818 244.059 177.096 243.851 177.374 243.712C178.555 243.018 179.805 242.324 180.985 241.63C182.374 240.798 183.833 239.965 185.222 239.132C186.125 238.646 186.958 238.091 187.861 237.605C188.486 237.189 189.18 236.911 189.944 236.773C190.639 236.634 191.333 236.634 192.028 236.842C192.653 237.05 193.347 237.328 193.764 237.883C193.903 238.091 194.042 238.299 194.042 238.507C194.042 237.467 194.042 236.426 194.042 235.385C194.042 233.927 194.042 232.47 194.042 231.082C194.042 230.944 194.042 230.805 194.042 230.666C194.25 230.041 193.695 229.625 193.209 229.347Z" fill="#B8590C"/>
<path d="M196.82 235.038V242.879L185.847 249.264V241.422L196.82 235.038Z" fill="#F27C1D"/>
<path d="M200.362 231.013C200.292 232.401 199.112 233.719 196.889 235.038L185.916 241.422C183.624 242.741 181.332 243.435 178.971 243.435C176.61 243.504 174.318 242.879 172.165 241.63C169.943 240.381 168.901 239.063 168.971 237.675C169.04 236.287 170.221 234.968 172.443 233.65L183.416 227.266C185.708 225.947 188 225.253 190.361 225.253C192.722 225.184 195.014 225.808 197.167 227.058C199.389 228.376 200.431 229.625 200.362 231.013ZM181.124 239.063L192.722 232.331C194.597 231.291 194.736 230.319 193.208 229.417C191.68 228.515 190.014 228.654 188.139 229.694L176.54 236.426C174.665 237.467 174.526 238.438 176.054 239.34C177.582 240.173 179.318 240.104 181.124 239.063Z" fill="#FF9A49"/>
<path d="M183.208 250.513C183.902 250.235 184.597 249.958 185.222 249.611C185.361 249.541 185.569 249.472 185.708 249.333C185.777 249.333 185.847 249.264 185.847 249.264C185.847 249.264 185.847 249.194 185.847 249.125C185.847 248.57 185.847 248.084 185.847 247.529C185.847 245.863 185.847 244.267 185.847 242.602C185.847 242.185 185.847 241.769 185.847 241.353C183.625 242.671 181.055 243.434 178.485 243.365C175.916 243.296 173.415 242.463 171.332 241.075C170.221 240.312 168.971 239.201 168.971 237.744C168.971 238.577 168.971 239.34 168.971 240.173C168.971 241.561 168.971 242.879 168.971 244.267C168.971 245.169 168.901 246.071 169.318 246.904C169.874 247.876 170.776 248.57 171.679 249.125C172.721 249.819 173.902 250.304 175.082 250.721C177.444 251.415 180.013 251.415 182.374 250.721C182.652 250.721 182.93 250.582 183.208 250.513Z" fill="#B8590C"/>
<path d="M98.8264 10.3397C99.2431 10.4091 99.5209 10.8254 99.5209 11.45C99.5209 12.2133 99.1737 12.8379 98.9653 13.1848C98.4792 13.8788 97.9236 14.2258 97.4374 14.5727L96.743 14.9891V17.4873L95.979 17.9036V11.5888L97.1596 10.8948C97.7152 10.5479 98.3403 10.2009 98.8264 10.3397ZM97.0207 14.0176C97.9236 13.4624 98.6875 12.9073 98.6875 11.9357C98.6875 10.756 97.5763 11.3806 97.1596 11.6582L96.6735 11.9357V14.2258C96.8124 14.1564 96.8818 14.087 97.0207 14.0176Z" fill="#F66550"/>
<path d="M100.84 11.6582L104.66 9.43762V10.1316L100.84 12.3522V11.6582Z" fill="#F66550"/>
<path d="M100.84 14.1564V13.393L104.66 11.2418V11.9358L100.84 14.1564Z" fill="#F66550"/>
<path d="M109.66 3.67786V4.44119L107.091 5.96786V7.8415L108.966 6.80059V7.56393L107.091 8.67423V11.5194L106.257 11.9358V5.62089L109.66 3.67786Z" fill="#F66550"/>
<path d="M112.786 1.73486L111.049 9.36821L110.424 9.78458L112.161 2.15123L112.786 1.73486Z" fill="#F66550"/>
<path d="M115.98 0L117.855 5.27395L117.022 5.75971L116.675 4.6494L114.522 5.8985L114.175 7.42517L113.341 7.91093L115.077 0.555153L115.98 0ZM114.73 4.99638L116.466 3.95546L115.564 1.24909C115.564 1.24909 115.564 1.24909 115.494 1.24909C115.494 1.24909 115.494 1.31849 115.425 1.31849L114.73 4.99638Z" fill="#F66550"/>
<path d="M99.9377 19.1528V19.9856L98.3403 20.8877V26.4392L97.5764 26.8556V21.3734L95.9096 22.2756V21.4428L99.9377 19.1528Z" fill="#2145CC"/>
<path d="M101.049 23.941V23.2471L104.869 21.0265V21.7204L101.049 23.941Z" fill="#2145CC"/>
<path d="M101.049 21.4429L104.869 19.2223V19.9162L101.049 22.1368V21.4429Z" fill="#2145CC"/>
<path d="M109.869 13.4625V14.2259L107.299 15.7525V17.6262L109.175 16.5853V17.3486L107.299 18.4589V21.3041L106.466 21.7204V15.4056L109.869 13.4625Z" fill="#2145CC"/>
<path d="M112.994 11.5195L111.258 19.2223L110.564 19.5692L112.369 11.9359L112.994 11.5195Z" fill="#2145CC"/>
<path d="M115.633 10.1316V10.6867L115.147 10.9643V16.1689L115.633 15.8913V16.4465L113.897 17.418V16.8628L114.383 16.5852V11.4501L113.897 11.7277V11.1031L115.633 10.1316Z" fill="#2145CC"/>
<path d="M96.6041 29.4924V32.1294C96.6041 32.1988 96.6041 32.1988 96.6735 32.1988C96.743 32.1988 96.8124 31.9906 96.8819 31.8518C97.1597 31.1579 97.5069 30.8109 97.8542 30.6721C98.4098 30.3252 98.6181 30.6721 98.6181 31.2967V34.8358L97.9236 35.2521V31.7824C97.9236 31.4355 97.8542 31.2967 97.5764 31.4355C97.4375 31.5049 97.2986 31.713 97.1597 31.9212C96.9513 32.1988 96.743 32.6846 96.6041 33.0315V36.0849L95.9096 36.5012V30.3252L96.6041 29.4924Z" fill="#AA3967"/>
<path d="M100.007 30.6028L103.827 28.3822V29.0761L100.007 31.2968V30.6028Z" fill="#AA3967"/>
<path d="M100.007 33.101V32.3376L103.827 30.1864V30.8803L100.007 33.101Z" fill="#AA3967"/>
<path d="M106.674 23.7328C107.161 23.4552 108.341 23.0389 108.341 24.5655C108.341 24.8431 108.272 25.2595 108.063 25.7452C107.924 26.1616 107.647 26.578 107.022 27.5495L106.397 28.4516C106.119 28.868 105.91 29.2843 105.91 29.3537C105.841 29.5619 105.772 29.7007 105.772 29.9089L108.341 28.3822V29.1456L104.938 31.0886C104.938 29.5619 105.494 28.6598 106.466 27.2025C107.022 26.4392 107.577 25.6065 107.577 24.9125C107.577 24.4962 107.369 24.0104 106.674 24.4268C106.258 24.6349 105.772 25.1901 105.424 26.231L104.869 26.1616C105.077 25.5371 105.285 25.1207 105.702 24.5655C106.119 24.0798 106.466 23.8716 106.674 23.7328Z" fill="#AA3967"/>
<path d="M113.619 19.8467V20.6794L112.022 21.5815V27.1331L111.189 27.5494V21.9979L109.591 22.9694V22.1367L113.619 19.8467Z" fill="#AA3967"/>
<path d="M116.05 20.1243C116.189 20.0549 116.745 19.7773 117.092 20.0549C117.231 20.1937 117.3 20.2631 117.37 20.4019L116.814 21.0264C116.745 20.8876 116.606 20.4019 116.12 20.6795C115.633 20.957 115.286 21.7204 115.286 22.6225C115.286 22.9695 115.286 23.4552 115.425 23.7328C115.564 24.0104 115.772 24.2879 116.189 24.0104C116.606 23.8022 116.814 23.247 116.883 22.7613L117.509 22.6919C117.37 23.5246 116.883 24.2879 116.258 24.6349C114.731 25.4676 114.731 23.5246 114.731 23.247C114.731 22.8307 114.731 22.0673 115.147 21.2346C115.356 20.6795 115.842 20.2631 116.05 20.1243Z" fill="#AA3967"/>
<path d="M121.328 17.9731C121.537 18.2506 121.606 18.8752 121.606 19.2915C121.606 20.6794 120.981 21.9979 120.009 22.5531C119.314 22.9694 119.036 22.6919 118.897 22.5531C118.62 22.2755 118.481 21.7897 118.481 20.957C118.481 19.3609 119.175 18.2506 120.009 17.8343C120.773 17.4179 121.12 17.6955 121.328 17.9731ZM120.078 21.8591C120.773 21.4428 120.911 20.3325 120.911 19.6385C120.911 19.3609 120.842 18.8752 120.773 18.667C120.703 18.4588 120.495 18.32 120.356 18.32C120.286 18.32 120.148 18.3894 120.078 18.3894C119.314 18.8058 119.175 19.9855 119.175 20.6794C119.175 21.0958 119.245 22.3449 120.078 21.8591Z" fill="#AA3967"/>
<path d="M123.828 15.6831C124.106 15.5443 124.384 15.3361 124.87 15.4055L124.661 16.0994C124.384 16.0301 124.175 15.9607 123.759 16.1688C123.342 16.377 123.203 16.7934 123.203 17.071C123.203 17.4179 123.411 17.4179 123.689 17.4179H124.314C124.523 17.4179 125.078 17.4179 125.078 18.1813C125.078 19.014 124.523 19.8467 123.759 20.2631C123.203 20.6101 122.856 20.5407 122.578 20.4713L122.856 19.7079C123.203 19.8467 123.481 19.8467 123.759 19.6385C124.175 19.361 124.453 18.9446 124.453 18.5282C124.453 18.1813 124.314 18.1119 123.689 18.1119C122.995 18.1119 122.717 17.9037 122.717 17.3485C122.647 16.7934 123.203 16.0301 123.828 15.6831Z" fill="#AA3967"/>
<path d="M129.037 11.3113C129.523 11.6582 129.662 12.4216 129.662 13.6013C129.662 14.5728 129.592 15.5443 129.245 16.4464C128.829 17.4873 128.273 17.9037 127.926 18.1119C127.648 18.2507 127.023 18.5282 126.606 17.9731C126.189 17.4179 126.189 16.377 126.189 15.9607C126.189 13.4625 127.023 12.0052 128.065 11.45C128.342 11.1725 128.759 11.1725 129.037 11.3113ZM127.926 17.2791C128.759 16.7934 128.898 15.2667 128.898 14.0176C128.898 12.144 128.551 11.797 127.926 12.144C127.44 12.4216 127.092 13.1155 126.953 13.8788C126.884 14.5034 126.815 15.0585 126.815 15.4749C126.815 15.7525 126.814 16.5158 127.023 17.071C127.231 17.3485 127.44 17.5567 127.926 17.2791Z" fill="#AA3967"/>
<path d="M132.718 8.74365L130.912 16.377L130.287 16.724L132.023 9.09062L132.718 8.74365Z" fill="#AA3967"/>
<path d="M136.121 9.22942C136.329 9.57639 136.468 10.1315 136.468 10.6867C136.468 12.2828 135.912 13.3931 135.218 13.8094C134.94 13.9482 134.593 14.0176 134.385 13.74C134.246 13.6012 134.246 13.6013 134.246 13.6013C134.246 13.6013 134.176 13.6706 134.176 13.74V15.8913L133.482 16.2382V10.3397L134.107 9.71518V10.6867C134.107 10.7561 134.176 10.7561 134.176 10.7561C134.176 10.7561 134.246 10.7561 134.246 10.6867C134.315 10.6173 134.523 9.57639 135.287 9.09063C135.565 8.81306 135.912 8.95185 136.121 9.22942ZM135.079 13.1849C135.426 12.9767 135.773 12.4215 135.773 11.0337C135.773 10.5479 135.704 9.4376 135.01 9.78457C134.454 10.1315 134.107 11.2419 134.107 12.0052C134.107 13.3931 134.593 13.4625 135.079 13.1849Z" fill="#AA3967"/>
<path d="M139.802 6.38428V7.63337C139.732 7.63337 139.663 7.70277 139.524 7.77216C139.038 8.04974 138.69 8.60489 138.413 9.22944V11.797L137.718 12.2134V7.84155L138.343 7.21701V8.67428C138.343 8.74368 138.343 8.74368 138.413 8.74368L138.482 8.67428C138.552 8.60489 138.69 8.18852 138.69 8.11913C139.246 7.00882 139.732 6.52307 139.802 6.38428Z" fill="#AA3967"/>
<path d="M143.343 4.51061L143.899 4.23303V8.32728C143.899 8.60486 143.83 9.02122 143.83 9.16001C143.83 9.22941 143.691 9.85395 143.205 10.3397C143.066 10.4785 142.788 10.7561 142.302 11.0337C142.163 11.103 141.746 11.3112 141.399 11.45V10.6867L141.677 10.5479C141.816 10.6173 141.885 10.7561 142.302 10.4785C142.649 10.2703 142.927 9.92335 142.927 9.92335C143.274 9.50698 143.274 8.95183 143.274 8.74365V8.1191C143.205 8.1191 143.205 8.1885 143.135 8.32728C143.066 8.53547 142.788 9.09062 142.232 9.3682C141.746 9.64577 141.399 9.50698 141.19 9.16001C140.982 8.81304 140.982 8.32728 140.982 7.84153C140.982 6.73122 141.538 5.62091 142.232 5.20455C142.857 4.85758 143.066 5.06576 143.274 5.34334C143.343 5.41273 143.343 5.41273 143.413 5.41273C143.413 5.34334 143.482 5.34334 143.482 5.27394L143.343 4.51061ZM142.371 8.53547C142.649 8.39668 143.274 7.84153 143.274 6.59243C143.274 5.55152 142.857 5.34334 142.371 5.62091C141.607 6.03728 141.607 7.28637 141.607 7.70274C141.538 7.91092 141.607 8.95183 142.371 8.53547Z" fill="#AA3967"/>
<path d="M271.686 18.8752C272.103 19.1528 273.284 20.0549 273.284 21.4428C273.284 21.651 273.214 21.9979 273.006 22.2061C272.867 22.4143 272.658 22.5531 272.033 22.7613L271.478 22.9001C271.2 22.9695 271.061 23.1776 270.992 23.247C270.922 23.3858 270.853 23.4552 270.853 23.6634L273.284 25.0513V25.7452L270.089 23.941C270.158 22.5531 270.575 22.2755 271.547 21.9979C272.033 21.8591 272.589 21.7204 272.589 21.0264C272.589 20.6101 272.381 19.9161 271.756 19.5691C271.408 19.361 270.922 19.2222 270.644 19.9161L270.089 19.2222C270.297 18.8752 270.506 18.667 270.853 18.667C271.131 18.5976 271.478 18.7364 271.686 18.8752Z" fill="#2C4FD6"/>
<path d="M282.312 24.9125V27.4107C282.312 27.4801 282.312 27.4801 282.381 27.5495C282.451 27.5495 282.52 27.4801 282.589 27.4107C282.867 27.1331 283.215 27.2025 283.492 27.3413C283.978 27.6188 284.187 28.174 284.187 28.7985V32.0601L283.562 31.7131V28.4516C283.562 28.174 283.492 27.8964 283.215 27.7576C283.076 27.6882 282.937 27.6882 282.798 27.6882C282.589 27.7576 282.451 27.9658 282.312 28.1046V30.9498L281.687 30.6028V24.9125H282.312Z" fill="#2C4FD6"/>
<path d="M291.479 33.8643V34.5582L289.674 33.4479V32.8234L291.479 33.8643Z" fill="#2C4FD6"/>
<path d="M298.007 43.1631C298.424 43.4406 299.605 44.3428 299.605 45.7306C299.605 45.9388 299.535 46.2858 299.327 46.494C299.188 46.7022 298.98 46.841 298.355 47.0491L297.799 47.1879C297.521 47.2573 297.382 47.4655 297.313 47.5349C297.243 47.6737 297.174 47.7431 297.174 47.9513L299.605 49.3391V50.0331L296.41 48.2288C296.479 46.8409 296.896 46.5634 297.868 46.2858C298.355 46.147 298.91 46.0082 298.91 45.3143C298.91 44.8979 298.702 44.204 298.077 43.857C297.73 43.6488 297.243 43.51 296.966 44.204L296.41 43.51C296.618 43.1631 296.827 42.9549 297.174 42.9549C297.452 42.8855 297.799 43.0937 298.007 43.1631Z" fill="#2C4FD6"/>
<path d="M301.619 36.0849C302.105 37.2646 302.591 38.3749 302.591 39.7628C302.591 41.1507 301.897 41.914 301.688 42.1222C301.619 42.1916 301.619 42.1916 301.549 42.261L300.924 41.914C300.994 41.8446 301.133 41.7058 301.202 41.6364C301.272 41.567 301.549 41.2201 301.549 41.1507C301.966 40.4567 301.966 39.7628 302.035 39.4852C302.035 39.0688 302.035 38.2361 301.271 36.5012C301.202 36.3625 300.994 35.8767 300.924 35.7379L301.619 36.0849Z" fill="#2C4FD6"/>
<path d="M276.617 23.4552L277.103 23.7328V27.4801C277.103 27.6882 277.034 28.0352 277.034 28.1046C277.034 28.174 276.895 28.5904 276.409 28.521C276.339 28.521 276.061 28.521 275.575 28.2434C275.436 28.174 275.089 27.9658 274.742 27.6188V26.8555L275.02 26.9943C275.089 27.2025 275.228 27.4107 275.645 27.6188C275.992 27.827 276.2 27.7576 276.2 27.7576C276.478 27.6882 276.478 27.2025 276.478 27.0637V26.4391V26.3698C276.409 26.3698 276.409 26.3698 276.339 26.4391C276.27 26.5085 275.992 26.7861 275.506 26.4391C275.02 26.1616 274.742 25.6064 274.534 25.1207C274.325 24.5655 274.325 24.0797 274.325 23.6634C274.325 22.6919 274.881 22.2061 275.506 22.5531C276.062 22.9 276.27 23.3164 276.478 23.7328C276.548 23.8716 276.548 23.8716 276.548 23.941C276.548 23.941 276.617 23.941 276.617 23.8716V23.4552ZM275.714 26.1616C275.923 26.3004 276.548 26.4391 276.548 25.3288C276.548 24.3573 276.2 23.7328 275.714 23.4552C275.02 23.0388 275.02 24.1491 274.95 24.5655C274.95 24.7737 275.02 25.7452 275.714 26.1616Z" fill="#2C4FD6"/>
<path d="M280.228 23.7328C279.881 23.941 279.534 24.5655 279.464 24.6349C279.326 24.8431 279.117 25.2594 279.117 26.1616C279.117 27.4801 279.742 28.9373 280.228 29.8395L279.603 29.4925C279.256 28.7985 278.978 28.0352 278.77 27.3413C278.701 26.9249 278.562 26.3698 278.562 25.9534C278.562 24.8431 278.77 24.1491 279.534 23.3164L280.228 23.7328Z" fill="#2C4FD6"/>
<path d="M303.286 33.448V34.0725L269.88 14.781L266.339 27.4107L263.838 17.9037L262.241 18.667L261.894 17.9731L264.116 16.9322L266.269 25.2595L269.464 13.9482L303.286 33.448Z" fill="#2C4FD6"/>
<path d="M287.451 37.1953V42.3998L288.423 43.0244V43.6489L285.576 41.9835V41.3589L286.687 41.9835L286.757 37.4728L285.507 36.7789V36.085L287.451 37.1953Z" fill="#2C4FD6"/>
<path d="M293.285 31.2968V33.7949C293.285 33.8643 293.285 33.8643 293.354 33.9337C293.354 33.9337 293.493 33.8643 293.563 33.7949C293.84 33.5174 294.188 33.5868 294.465 33.7255C294.952 34.0031 295.16 34.5583 295.16 35.1828V38.4443L294.535 38.0974V34.8359C294.535 34.5583 294.465 34.2807 294.188 34.1419C294.049 34.0725 293.91 34.0725 293.771 34.0725C293.563 34.1419 293.424 34.3501 293.285 34.4889V37.334L292.66 36.9871V31.2968H293.285Z" fill="#2C4FD6"/>
<path d="M246.476 6.31484L244.948 12.2133L243.698 11.5194L242.101 3.81665L243.142 4.4412L244.045 9.36818C244.045 9.50697 244.115 9.71515 244.115 9.92333C244.115 10.0621 244.115 10.2703 244.184 10.4091C244.184 10.4091 244.184 10.5479 244.254 10.5479L244.323 10.6173C244.392 10.6173 244.392 10.6173 244.392 10.5479C244.462 10.4785 244.462 10.2009 244.462 10.0621C244.462 9.92333 244.531 9.78454 244.531 9.64576L245.434 5.75969L246.476 6.31484Z" fill="#2C4FD6"/>
<path d="M249.67 13.6707V18.5977L250.573 19.1528V19.7774L247.934 18.2507V17.6261L248.976 18.2507V13.9482L247.865 13.2543V12.6298L249.67 13.6707Z" fill="#2C4FD6"/>
<path d="M252.101 14.9197V13.8788L257.727 17.1403V18.1812L252.101 14.9197Z" fill="#2C4FD6"/>
<path d="M252.101 11.1724L257.796 14.4339L257.727 15.4748L252.101 12.2133V11.1724Z" fill="#2C4FD6"/>
<path d="M130.287 126.644C131.607 125.881 132.51 126.089 133.065 127.13L132.093 128.379C131.676 127.685 131.329 127.269 130.357 127.824C129.801 128.101 129.037 128.934 129.037 129.836C129.037 130.738 129.662 130.738 129.94 130.669L131.607 130.6C131.885 130.6 132.51 130.6 132.857 131.155C132.996 131.294 133.135 131.571 133.135 132.334C133.135 133.237 132.857 134.208 132.301 135.041C131.607 136.151 130.912 136.568 130.426 136.776C129.871 137.053 129.037 137.331 128.482 137.123C127.926 136.914 127.718 136.568 127.509 136.221L128.551 134.902C128.829 135.527 129.384 136.221 130.496 135.527C131.19 135.11 132.024 134.139 131.954 133.098C131.954 132.612 131.815 132.126 130.912 132.196L129.384 132.265C128.829 132.265 128.273 132.196 127.995 131.779C127.857 131.641 127.718 131.224 127.718 130.6C127.857 129.073 128.968 127.407 130.287 126.644Z" fill="#294DD6"/>
<path d="M138.274 122.272V123.175L137.51 123.591V131.571L138.274 131.155V132.057L135.566 133.584V132.682L136.329 132.265L136.26 124.285L135.566 124.701V123.799L138.274 122.272Z" fill="#294DD6"/>
<path d="M146.955 117.276V127.061L145.497 127.893L142.997 122.966C142.649 122.342 142.372 121.44 142.302 121.301H142.233C142.163 121.44 142.163 121.44 142.163 121.509C142.163 121.787 142.233 123.244 142.233 123.313V129.836L141.26 130.391V120.607L142.788 119.705L145.288 124.562L145.636 125.326C145.705 125.465 145.913 126.089 145.983 126.228H146.052C146.122 126.158 146.122 126.158 146.122 126.02C146.122 125.881 146.052 125.256 146.052 125.118C146.052 124.493 146.052 124.007 146.052 123.66V117.901L146.955 117.276Z" fill="#294DD6"/>
<path d="M152.094 119.15V119.705C151.817 119.844 151.608 119.982 151.4 119.844C151.33 119.844 151.261 119.705 151.192 119.566C151.122 119.635 150.983 119.913 150.983 119.913C150.567 120.538 150.289 120.746 150.011 120.954C149.525 121.231 149.178 120.954 149.178 120.468C149.178 119.982 149.386 119.497 149.664 119.011C150.08 118.456 150.567 118.039 151.192 117.692V117.137C151.192 116.998 151.192 116.582 150.636 116.929C150.289 117.137 149.941 117.554 149.594 117.97L149.316 117.623C149.733 117.068 150.08 116.721 150.636 116.374C150.914 116.235 151.261 116.096 151.469 116.166C151.747 116.235 151.817 116.513 151.817 116.929V119.011C151.817 119.08 151.817 119.288 152.094 119.15ZM151.192 119.15V118.039C150.428 118.456 149.803 119.219 149.803 119.913C149.803 120.26 150.011 120.399 150.358 120.26C150.705 119.982 150.983 119.427 151.192 119.15Z" fill="#294DD6"/>
<path d="M153.344 121.856V120.815L159.178 117.415V118.525L153.344 121.856Z" fill="#294DD6"/>
<path d="M153.344 118.039L159.178 114.639V115.749L153.344 119.08V118.039Z" fill="#294DD6"/>
<path d="M165.776 115.333C165.776 115.333 165.845 115.333 165.776 115.333L165.845 116.235C165.359 116.513 164.943 116.652 164.665 116.443C164.595 116.374 164.387 116.235 164.387 115.958H164.317C164.248 116.027 163.97 116.513 163.97 116.582C163.276 117.692 162.859 117.97 162.303 118.317C161.47 118.803 160.845 118.386 160.845 117.484C160.845 116.652 161.192 115.749 161.748 114.986C162.373 114.015 163.345 113.321 164.317 112.696V111.794C164.317 111.516 164.317 110.822 163.345 111.378C162.72 111.725 162.095 112.418 161.609 113.112L161.123 112.488C161.887 111.586 162.442 110.961 163.415 110.406C163.831 110.128 164.456 109.92 164.804 110.059C165.22 110.198 165.359 110.614 165.359 111.308V114.847C165.29 115.194 165.29 115.611 165.776 115.333ZM164.248 115.333V113.459C162.998 114.223 161.817 115.402 161.817 116.652C161.817 117.207 162.165 117.554 162.72 117.207C163.415 116.79 163.97 115.888 164.248 115.333Z" fill="#294DD6"/>
<path d="M170.499 103.536L167.721 115.333L166.748 115.888L169.457 104.091L170.499 103.536Z" fill="#294DD6"/>
<path d="M173.624 104.507C173.902 104.369 174.735 103.952 175.152 104.438C175.36 104.646 175.429 104.716 175.568 104.993L174.666 106.034C174.596 105.757 174.318 105.132 173.624 105.548C172.929 105.965 172.374 107.144 172.374 108.602C172.374 109.157 172.443 109.92 172.582 110.337C172.721 110.753 173.068 111.169 173.763 110.822C174.388 110.475 174.666 109.643 174.804 108.879L175.707 108.81C175.499 110.059 174.804 111.239 173.763 111.794C171.471 113.112 171.401 110.059 171.401 109.643C171.401 108.949 171.401 107.908 172.026 106.52C172.513 105.34 173.207 104.785 173.624 104.507Z" fill="#294DD6"/>
<path d="M135.496 144.826C135.496 144.826 135.565 144.826 135.496 144.826L135.565 145.728C135.079 146.005 134.732 146.144 134.385 145.936C134.315 145.866 134.107 145.728 134.107 145.45C134.037 145.519 133.76 146.005 133.76 146.075C133.065 147.185 132.648 147.463 132.093 147.809C131.259 148.295 130.634 147.879 130.634 146.977C130.634 146.144 130.982 145.242 131.537 144.479C132.162 143.576 133.134 142.813 134.107 142.258V141.356C134.107 141.078 134.107 140.384 133.134 140.939C132.509 141.286 131.884 141.98 131.398 142.674L130.912 142.05C131.676 141.148 132.232 140.523 133.204 139.968C133.621 139.69 134.246 139.482 134.593 139.621C135.01 139.76 135.149 140.176 135.149 140.87V144.34C135.01 144.687 135.01 145.103 135.496 144.826ZM133.968 144.826V142.952C132.718 143.715 131.537 144.895 131.537 146.144C131.537 146.699 131.884 147.046 132.44 146.699C133.134 146.283 133.621 145.311 133.968 144.826Z" fill="#294DD6"/>
<path d="M140.635 135.943V138.719L143.066 137.331V138.441L140.635 139.829V142.605L139.732 143.16V140.384L137.301 141.772V140.662L139.732 139.274V136.498L140.635 135.943Z" fill="#294DD6"/>
<path d="M147.719 131.432C148.83 130.808 149.663 131.571 149.663 134C149.663 134.972 149.386 137.747 147.719 138.719C146.816 139.274 146.399 138.511 146.191 138.233C146.121 138.094 146.121 138.094 146.052 138.094L145.983 138.233V139.76L145.08 139.829V130.6L146.121 129.559V133.514C146.121 133.584 146.121 133.584 146.191 133.584L146.33 133.514C146.469 133.098 146.538 132.89 146.677 132.751C146.746 132.404 147.024 131.849 147.719 131.432ZM147.51 137.886C148.622 137.192 148.622 135.11 148.622 134.625C148.622 133.722 148.552 131.988 147.441 132.612C147.024 132.82 146.052 133.931 146.052 136.151C146.052 137.4 146.608 138.372 147.51 137.886Z" fill="#294DD6"/>
<path d="M154.803 127.755V130.53L157.233 129.142V130.253L154.803 131.641V134.486L153.9 134.971V132.196L151.469 133.584L151.4 132.543L153.9 131.085L153.83 128.31L154.803 127.755Z" fill="#294DD6"/>
<path d="M161.192 123.73C161.4 123.591 162.234 123.174 162.72 123.66C162.928 123.868 162.998 123.938 163.136 124.215L162.234 125.256C162.164 124.979 161.886 124.354 161.192 124.771C160.497 125.187 159.942 126.367 159.942 127.824C159.942 128.379 160.011 129.142 160.15 129.559C160.289 129.975 160.636 130.391 161.331 130.045C161.956 129.698 162.234 128.865 162.373 128.101L163.275 128.032C163.067 129.281 162.373 130.461 161.331 131.016C159.039 132.335 158.97 129.281 158.97 128.865C158.97 128.171 158.97 127.13 159.595 125.811C160.081 124.493 160.775 123.938 161.192 123.73Z" fill="#294DD6"/>
<path d="M164.943 123.313L170.776 119.982V121.093L164.943 124.424V123.313Z" fill="#294DD6"/>
<path d="M164.943 127.199V126.089L170.776 122.758V123.799L164.943 127.199Z" fill="#294DD6"/>
<path opacity="0.34" d="M69.0327 266.612L1.87518 227.405C-0.694449 225.878 -0.625 222.2 1.94463 220.743L20.5571 210.403C21.7377 209.778 23.1961 209.778 24.3768 210.472L94.4512 251.415C97.0208 252.942 96.9514 256.619 94.3818 258.077L78.7556 266.751C75.6999 268.416 72.0191 268.416 69.0327 266.612Z" fill="#CCCCCC"/>
<path d="M6.31987 153.361L17.154 147.046C15.4872 148.018 13.8899 149.336 12.362 150.863L1.52786 157.178C3.05575 155.651 4.65308 154.332 6.31987 153.361Z" fill="#2E8989"/>
<path d="M40.0724 201.382C40.7669 195.622 41.4614 189.793 42.2254 184.033C42.9199 178.204 43.6144 172.306 44.3089 166.476C44.7256 163.215 45.0728 159.884 45.4895 156.622C43.2671 157.941 40.9753 159.259 38.7529 160.509C37.5723 161.202 36.3222 161.896 35.1415 162.59C35.0026 162.66 34.8637 162.729 34.7248 162.799C34.5165 162.937 34.5859 163.215 34.5859 163.423C34.3776 165.158 34.1693 166.962 33.9609 168.697C33.1275 175.775 32.2941 182.853 31.3913 189.932C30.5579 197.079 29.655 204.157 28.7522 211.236C28.5439 213.04 28.3355 214.775 28.0577 216.579C27.9188 217.481 27.8494 218.383 27.7105 219.216C27.641 219.632 27.641 220.118 27.5021 220.534C27.3632 220.881 27.1549 221.298 27.016 221.645C26.4604 223.033 26.1131 224.49 25.9048 226.017C25.8353 226.364 25.8353 226.78 25.6964 227.127C25.4881 227.474 25.3492 227.821 25.1408 228.168C24.7936 228.792 24.3074 229.417 23.8213 229.972C23.3351 230.527 22.7796 231.013 22.1545 231.36C23.1268 230.805 24.0991 230.25 25.0714 229.694C26.8771 228.654 28.6133 227.613 30.419 226.572C31.4607 225.947 32.6414 225.392 33.6137 224.698C34.3082 224.212 34.8637 223.588 35.4193 222.894C35.6971 222.547 35.9055 222.2 36.1138 221.784C36.3222 221.437 36.6 221.02 36.7389 220.604C36.8778 220.187 36.8778 219.702 36.9472 219.285C37.0167 218.8 37.0861 218.383 37.225 217.897C37.4334 216.995 37.7112 216.093 38.0584 215.191C38.1973 214.775 38.4751 214.289 38.5446 213.873C38.614 213.317 38.6835 212.832 38.7529 212.277C38.8918 211.236 39.0307 210.195 39.1696 209.154C39.4474 207.072 39.7252 204.921 39.9335 202.839C39.9335 202.423 40.003 201.937 40.0724 201.382Z" fill="#3180FF"/>
<path d="M93.8956 239.41C93.8956 238.23 93.8261 236.981 93.7567 235.801C91.3259 237.189 88.8952 238.646 86.4645 240.034C85.3533 240.659 84.1727 241.353 83.0615 241.977C82.992 241.977 82.8531 242.047 82.8531 242.116C82.7837 242.185 82.8531 242.394 82.8531 242.463C82.8531 242.671 82.8531 242.949 82.9226 243.157C82.9226 243.643 82.992 244.059 82.992 244.545C83.0615 246.28 82.992 248.015 82.7837 249.749C82.367 253.219 81.2558 257.244 77.9917 259.118C80.214 257.799 82.4364 256.55 84.6588 255.231C85.8394 254.538 87.0895 253.844 88.2702 253.15C88.548 253.011 88.8952 252.803 89.173 252.595C90.3536 251.831 91.2565 250.721 91.8815 249.472C93.5483 246.418 93.8956 242.81 93.8956 239.41Z" fill="#3180FF"/>
<path d="M79.3111 242.949C80.3528 242.463 81.2556 242.047 82.4363 242.116C82.853 242.116 82.853 242.185 83.1308 241.977C83.8947 241.561 84.6587 241.075 85.4226 240.659C87.645 239.34 89.8674 238.091 92.0898 236.773C92.6454 236.426 93.2009 236.148 93.7565 235.801C93.1315 235.732 92.5064 235.732 91.9508 235.94C91.2564 236.148 90.7008 236.495 90.0063 236.703C89.2423 236.981 88.4784 237.12 87.7144 237.189C86.881 237.258 86.0477 237.328 85.2143 237.397C83.5475 237.536 81.8112 237.605 80.1445 237.675C79.7278 237.675 79.3111 237.744 78.8944 237.744C78.686 237.744 78.4777 237.744 78.2693 237.814C78.1999 237.814 78.061 237.883 77.9915 237.952C75.3524 239.479 72.7828 241.006 70.1437 242.532C69.2409 243.088 68.3381 243.573 67.4352 244.128C69.5187 243.99 71.6022 243.92 73.7551 243.781C74.7274 243.712 75.6997 243.643 76.7414 243.504C77.5748 243.435 78.4777 243.296 79.3111 242.949Z" fill="#3180FF"/>
<path d="M66.0462 240.589C66.5324 241.769 67.0185 242.879 67.4352 244.059C69.5881 242.81 71.7411 241.561 73.894 240.312C75.1441 239.618 76.3942 238.854 77.5748 238.161C77.7137 238.091 77.9221 237.952 78.061 237.883C78.1304 237.883 78.2693 237.814 78.2693 237.744C78.2693 237.675 78.1304 237.397 78.1304 237.328C77.9915 236.981 77.8526 236.564 77.7137 236.217C77.4359 235.454 77.1581 234.76 76.8109 234.066C75.6302 231.221 74.2412 228.307 73.4078 225.323C72.9912 223.935 72.8523 222.547 72.8523 221.09C72.8523 219.355 72.8523 217.62 72.8523 215.885C72.9217 209.084 73.1301 202.353 73.4078 195.553C73.6856 188.683 74.0329 181.882 74.3107 175.012C74.3107 174.179 74.3801 173.346 74.3801 172.444C72.2967 173.624 70.2826 174.804 68.1991 175.983C66.9491 176.677 65.699 177.441 64.4489 178.135C64.1711 178.273 63.8238 178.412 63.546 178.62C63.3377 178.759 63.4766 179.176 63.4766 179.384C63.4766 180.216 63.4071 181.119 63.4071 181.951C63.1293 188.474 62.8515 195.067 62.5737 201.59C62.296 208.182 62.0876 214.705 62.0182 221.298C62.0182 222.963 62.0182 224.559 62.0182 226.225C62.0182 227.613 62.0182 228.931 62.296 230.25C62.8515 233.025 64.0322 235.662 65.1434 238.23C65.4212 239.132 65.699 239.895 66.0462 240.589Z" fill="#3180FF"/>
<path d="M84.1725 175.428L95.076 169.113L95.0066 184.38L84.1725 190.695V175.428Z" fill="#3180FF"/>
<path d="M84.1726 175.428L84.1031 190.695L63.4767 178.829C62.8516 195.622 61.8793 211.583 61.9488 228.237C61.9488 232.54 65.4213 238.785 67.3658 244.128C70.9772 243.92 74.658 243.851 78.1305 243.365C79.5889 243.157 80.6307 241.838 82.8531 242.185C83.4781 251.692 81.6724 259.534 74.7275 260.158C71.6717 260.436 67.4353 259.118 63.4767 256.828C61.5321 255.717 59.657 254.329 57.9902 252.803C50.2119 245.516 48.2673 235.454 48.8923 226.919C50.1424 209.293 51.6008 191.736 52.9898 173.555L34.5857 162.937C32.2245 182.576 30.0021 201.659 27.5714 220.604C26.738 222.477 26.1129 224.629 25.8351 227.057C23.6822 231.568 20.4875 233.65 16.39 231.29C14.7232 230.319 12.9175 228.654 11.0424 226.155C4.93086 218.106 5.34756 212.554 9.86177 208.946C22.2932 199.022 26.1824 181.188 25.7657 158.704C23.5433 156.622 21.4598 155.096 19.5847 153.985C12.0147 149.614 6.59765 152.32 1.59729 157.316C2.36123 142.744 7.77829 136.082 17.7095 140.87C39.5861 151.418 61.671 163.562 84.1726 175.428Z" fill="#2C4FD6"/>
<path d="M26.2518 144.964C32.2244 147.948 38.1276 151.002 44.0308 154.055C49.934 157.108 55.7678 160.231 61.6015 163.354C67.5047 166.476 73.3385 169.599 79.2417 172.722C80.7001 173.485 82.228 174.318 83.6864 175.081C83.8948 175.22 84.1031 175.359 84.3115 175.289C84.4504 175.22 84.5198 175.151 84.6587 175.081C85.7699 174.457 86.8117 173.832 87.9229 173.208C90.2841 171.82 92.6454 170.501 95.0067 169.113C95.0761 169.113 95.0761 169.044 95.1456 169.044C91.6037 167.17 87.9923 165.297 84.4504 163.423C80.9085 161.549 77.2971 159.606 73.7552 157.733C70.1438 155.79 66.5324 153.916 62.9211 151.973C59.3792 150.099 55.7678 148.226 52.2259 146.352C48.6839 144.479 45.142 142.674 41.5307 140.87C37.9193 139.066 34.3079 137.262 30.6966 135.457C27.5713 133.931 24.2378 132.196 20.6958 133.098C19.3763 133.445 18.1957 134.208 17.0845 134.902C15.4177 135.874 13.7509 136.845 12.0147 137.817C10.7646 138.511 9.5145 139.274 8.26441 139.968C8.19496 140.037 8.12551 140.037 8.05606 140.107C10.1395 138.858 12.6397 138.927 14.8621 139.552C16.0427 139.898 17.1539 140.384 18.2651 140.939C19.5152 141.564 20.7653 142.189 22.0154 142.813C23.4738 143.576 24.8628 144.27 26.2518 144.964Z" fill="#3180FF"/>
</g>
<defs>
<clipPath id="clip0">
<rect width="391" height="268" fill="white"/>
</clipPath>
</defs>
</svg>
