<svg width="401" height="301" viewBox="0 0 401 301" fill="none" xmlns="http://www.w3.org/2000/svg">
<g clip-path="url(#clip0)">
<path d="M400.804 221.834L385.131 230.928C385.131 230.928 330.472 199.196 326.215 196.777C321.862 194.359 318.573 190.005 318.379 187.78C318.379 187.78 308.415 195.133 298.741 194.552C279.199 193.585 248.048 175.3 232.569 177.235C237.696 167.947 254.626 158.08 271.169 146.857L400.804 221.834Z" fill="#C1CFF4" fill-opacity="0.38"/>
<path d="M174.814 127.315C165.913 132.442 165.913 140.859 174.814 145.987C183.714 151.114 198.225 151.114 207.222 145.987C216.123 140.859 216.123 132.442 207.222 127.315C198.322 122.091 183.811 122.091 174.814 127.315Z" fill="#C1CFF4" fill-opacity="0.55"/>
<path d="M9.57744 204.033C1.16086 208.87 1.16086 216.706 9.57744 221.544C17.994 226.381 31.538 226.381 39.8578 221.544C48.2744 216.706 48.2744 208.87 39.8578 204.033C31.538 199.196 17.994 199.196 9.57744 204.033Z" fill="#C1CFF4" fill-opacity="0.34"/>
<path d="M399.353 114.255V219.318C399.353 219.899 399.159 220.189 398.869 220.383C398.579 220.576 394.902 222.704 394.902 222.704L395.483 219.028L255.69 138.15C254.723 137.57 254.046 136.312 254.046 135.248V32.8929L250.563 31.4417C250.563 31.4417 254.142 29.3134 254.433 29.2166C254.723 29.0231 255.207 29.0231 255.593 29.3134L321.282 67.237C322.249 67.8175 323.41 67.9142 323.894 67.624C324.474 67.3337 325.635 67.5272 326.506 68.011L338.308 74.783C339.276 75.3635 339.566 76.0407 338.985 76.3309C338.405 76.6212 338.792 77.2984 339.663 77.8788L397.514 111.255C398.675 111.836 399.353 113.19 399.353 114.255Z" fill="#FF9D4F"/>
<path d="M395.483 116.48V221.544C395.483 222.608 394.709 223.091 393.838 222.511L251.82 140.375C250.853 139.795 250.176 138.537 250.176 137.473V32.6027C250.176 31.5385 250.95 31.0548 251.82 31.6353L319.25 70.5263C320.217 71.1068 321.378 71.2035 321.862 70.9133C322.442 70.6231 323.603 70.8166 324.474 71.3003L332.89 76.1375C333.858 76.7179 334.148 77.3952 333.568 77.6854C332.987 77.9756 333.374 78.6528 334.245 79.2333L393.741 113.577C394.709 114.158 395.483 115.416 395.483 116.48Z" fill="#FF9A49"/>
<path d="M322.636 77.1049L320.411 78.3626C317.702 79.9105 307.254 79.5235 300.288 75.557L244.081 43.1478L253.852 37.4399L322.636 77.1049Z" fill="white"/>
<path d="M244.178 43.1478L300.385 75.557C307.35 79.5235 317.799 79.9105 320.507 78.3626L322.636 77.1049V176.945L320.411 178.202C317.702 179.75 307.254 179.363 300.288 175.397L244.081 142.988V43.1478H244.178Z" fill="#F2F8F9"/>
<path opacity="0.1" d="M244.178 43.1478L300.385 75.557C307.35 79.5235 317.799 79.9105 320.507 78.3626L322.636 77.1049V176.945L320.411 178.202C317.702 179.75 307.254 179.363 300.288 175.397L244.081 142.988V43.1478H244.178Z" fill="url(#paint0_linear)"/>
<path d="M300.385 84.8444C302.997 86.3923 306.093 87.3597 309.092 87.9402V89.9718C306.093 89.3914 302.997 88.4239 300.385 86.876L250.079 57.7561V55.7245L300.385 84.8444Z" fill="#D8EBFF"/>
<path d="M300.385 89.9718C302.997 91.5197 306.093 92.4872 309.092 93.0676V95.0993C306.093 94.5188 302.997 93.5514 300.385 92.0035L250.079 62.8835V60.8519L300.385 89.9718Z" fill="#D8EBFF"/>
<path d="M300.385 95.0993C302.997 96.6472 306.093 97.6146 309.092 98.1951V100.227C306.093 99.6463 302.997 98.6788 300.385 97.1309L250.079 68.011V65.9794L300.385 95.0993Z" fill="#D8EBFF"/>
<path d="M300.385 100.227C302.997 101.775 306.093 102.742 309.092 103.323V105.354C306.093 104.774 302.997 103.806 300.385 102.258L250.079 73.1384V71.1068L300.385 100.227Z" fill="#D8EBFF"/>
<path d="M300.385 105.257C302.997 106.805 306.093 107.773 309.092 108.353V110.385C306.093 109.804 302.997 108.837 300.385 107.289L250.079 78.1691V76.1375L300.385 105.257Z" fill="#D8EBFF"/>
<path d="M300.385 110.385C302.997 111.933 306.093 112.9 309.092 113.481V115.512C306.093 114.932 302.997 113.964 300.385 112.416L250.079 83.2965V81.2649L300.385 110.385Z" fill="#D8EBFF"/>
<path d="M300.385 115.512C302.997 117.06 306.093 118.028 309.092 118.608V120.64C306.093 120.059 302.997 119.092 300.385 117.544L250.079 88.424V86.3923L300.385 115.512Z" fill="#D8EBFF"/>
<path d="M300.385 120.64C302.997 122.188 306.093 123.155 309.092 123.736V125.767C306.093 125.187 302.997 124.219 300.385 122.671L250.079 93.5514V91.5198L300.385 120.64Z" fill="#D8EBFF"/>
<path d="M300.385 125.767C302.997 127.315 306.093 128.282 309.092 128.863V130.895C306.093 130.314 302.997 129.347 300.385 127.799L250.079 98.6788V96.6472L300.385 125.767Z" fill="#D8EBFF"/>
<path d="M300.385 130.798C302.997 132.346 306.093 133.313 309.092 133.894V135.925C306.093 135.345 302.997 134.377 300.385 132.829L250.079 103.709V101.678L300.385 130.798Z" fill="#D8EBFF"/>
<path d="M300.385 135.925C302.997 137.473 306.093 138.441 309.092 139.021V141.053C306.093 140.472 302.997 139.505 300.385 137.957L250.079 108.837V106.805L300.385 135.925Z" fill="#D8EBFF"/>
<path d="M300.385 141.053C302.997 142.601 306.093 143.568 309.092 144.148V146.18C306.093 145.6 302.997 144.632 300.385 143.084L250.079 113.964V111.933L300.385 141.053Z" fill="#D8EBFF"/>
<path d="M300.385 146.18C302.997 147.728 306.093 148.695 309.092 149.276V151.307C306.093 150.727 302.997 149.759 300.385 148.212L250.079 119.092V117.06L300.385 146.18Z" fill="#D8EBFF"/>
<path d="M300.385 151.211C302.997 152.759 306.093 153.726 309.092 154.307V156.338C306.093 155.758 302.997 154.79 300.385 153.242L250.079 124.122V122.091L300.385 151.211Z" fill="#D8EBFF"/>
<path d="M300.385 156.338C302.997 157.886 306.093 158.854 309.092 159.434V161.466C306.093 160.885 302.997 159.918 300.385 158.37L250.079 129.25V127.218L300.385 156.338Z" fill="#D8EBFF"/>
<path d="M300.385 161.466C302.997 163.014 306.093 163.981 309.092 164.561V166.593C306.093 166.013 302.997 165.045 300.385 163.497L250.079 134.377V132.346L300.385 161.466Z" fill="#D8EBFF"/>
<path d="M300.385 166.593C302.997 168.141 306.093 169.108 309.092 169.689V171.72C306.093 171.14 302.997 170.173 300.385 168.625L250.079 139.505V137.473L300.385 166.593Z" fill="#D8EBFF"/>
<path opacity="0.4" d="M300.385 75.5569C300.675 75.7504 300.869 75.8471 301.159 75.9439H301.256C297.289 131.185 279.295 152.372 244.178 139.505V43.1477L300.385 75.5569Z" fill="white"/>
<path d="M287.131 86.3923C271.653 83.5868 244.952 69.9459 234.407 71.397V171.237C244.952 169.689 271.749 183.33 287.131 186.232C303.384 189.231 312.962 184.974 320.701 178.106V78.2658C312.962 85.1347 303.287 89.3914 287.131 86.3923Z" fill="white"/>
<path d="M241.179 79.9105C248.918 81.3617 259.56 85.6184 269.621 89.1979V91.0361C259.56 87.4566 248.918 83.2966 241.179 81.7487V79.9105Z" fill="#D8EBFF"/>
<path d="M312.768 91.81V93.6481C306.286 96.9374 298.256 98.3886 287.131 96.2602C282.971 95.4863 278.037 93.9384 272.717 92.1002V90.2621C277.941 92.1002 282.971 93.6481 287.131 94.4221C298.256 96.4537 306.286 95.0993 312.768 91.81Z" fill="#D8EBFF"/>
<path d="M241.179 85.1346C248.918 86.6825 259.56 90.8425 269.621 94.4221V96.2602C259.56 92.6807 248.918 88.4239 241.179 86.9728V85.1346Z" fill="#D8EBFF"/>
<path d="M312.768 97.0342V98.8724C306.286 102.162 298.256 103.516 287.131 101.484C282.971 100.711 278.037 99.1626 272.717 97.3245V95.4863C277.941 97.3245 282.971 98.8724 287.131 99.6463C298.256 101.678 306.286 100.324 312.768 97.0342Z" fill="#D8EBFF"/>
<path d="M241.179 90.3589C248.918 91.9068 259.56 96.0668 269.621 99.6463V101.484C259.56 97.9049 248.918 93.6482 241.179 92.197V90.3589Z" fill="#D8EBFF"/>
<path d="M312.768 102.258V104.096C306.286 107.386 298.256 108.74 287.131 106.709C282.971 105.935 278.037 104.387 272.717 102.549V100.71C277.941 102.549 282.971 104.096 287.131 104.87C298.256 106.902 306.286 105.548 312.768 102.258Z" fill="#D8EBFF"/>
<path d="M241.179 95.583C248.918 97.0342 259.56 101.291 269.621 104.87V106.709C259.56 103.129 248.918 98.8723 241.179 97.4211V95.583Z" fill="#D8EBFF"/>
<path d="M312.768 107.483V109.321C306.286 112.61 298.256 113.964 287.131 111.933C282.971 111.159 278.037 109.611 272.717 107.773V105.935C277.941 107.773 282.971 109.321 287.131 110.095C298.256 112.126 306.286 110.772 312.768 107.483Z" fill="#D8EBFF"/>
<path d="M241.179 100.807C248.918 102.258 259.56 106.515 269.621 110.095V111.933C259.56 108.353 248.918 104.097 241.179 102.645V100.807Z" fill="#D8EBFF"/>
<path d="M312.768 112.707V114.545C306.286 117.834 298.256 119.285 287.131 117.157C282.971 116.383 278.037 114.835 272.717 112.997V111.159C277.941 112.997 282.971 114.545 287.131 115.319C298.256 117.35 306.286 115.996 312.768 112.707Z" fill="#D8EBFF"/>
<path d="M241.179 106.031C248.918 107.579 259.56 111.739 269.621 115.319V117.157C259.56 113.577 248.918 109.321 241.179 107.87V106.031Z" fill="#D8EBFF"/>
<path d="M312.768 117.931V119.769C306.286 123.058 298.256 124.413 287.131 122.381C282.971 121.607 278.037 120.059 272.717 118.221V116.383C277.941 118.221 282.971 119.769 287.131 120.543C298.256 122.575 306.286 121.22 312.768 117.931Z" fill="#D8EBFF"/>
<path d="M241.179 111.256C248.918 112.804 259.56 116.964 269.621 120.543V122.381C259.56 118.802 248.918 114.642 241.179 113.094V111.256Z" fill="#D8EBFF"/>
<path d="M312.768 123.155V124.993C306.286 128.283 298.256 129.637 287.131 127.605C282.971 126.831 278.037 125.283 272.717 123.445V121.607C277.941 123.445 282.971 124.993 287.131 125.767C298.256 127.799 306.286 126.444 312.768 123.155Z" fill="#D8EBFF"/>
<path d="M241.179 116.48C248.918 117.931 259.56 122.188 269.621 125.767V127.605C259.753 124.122 249.402 119.963 241.662 118.415C241.469 118.415 241.372 118.318 241.179 118.318V116.48Z" fill="#D8EBFF"/>
<path d="M312.768 128.379V130.217C306.286 133.507 298.256 134.861 287.131 132.829C282.971 132.055 278.037 130.508 272.717 128.669V126.831C277.941 128.669 282.971 130.217 287.131 130.991C298.256 133.023 306.286 131.668 312.768 128.379Z" fill="#D8EBFF"/>
<path d="M312.768 133.603C306.286 136.893 298.257 138.247 287.131 136.215C274.361 133.894 253.852 124.122 241.179 121.704V123.542C253.852 125.961 274.361 135.732 287.131 138.054C298.353 140.085 306.383 138.731 312.768 135.441V133.603Z" fill="#D8EBFF"/>
<path d="M312.768 138.828C306.286 142.117 298.257 143.471 287.131 141.44C274.361 139.118 253.852 129.347 241.179 126.928V128.766C253.852 131.185 274.361 140.956 287.131 143.278C298.353 145.309 306.383 143.955 312.768 140.666V138.828Z" fill="#D8EBFF"/>
<path d="M312.768 144.052C306.286 147.341 298.257 148.695 287.131 146.664C274.361 144.342 253.852 134.571 241.179 132.152V133.99C253.852 136.409 274.361 146.18 287.131 148.502C298.353 150.534 306.383 149.179 312.768 145.89V144.052Z" fill="#D8EBFF"/>
<path d="M312.768 149.276C306.286 152.565 298.257 153.92 287.131 151.888C274.361 149.566 253.852 139.795 241.179 137.376V139.215C253.852 141.633 274.361 151.404 287.131 153.726C298.353 155.758 306.383 154.403 312.768 151.114V149.276Z" fill="#D8EBFF"/>
<path d="M312.768 154.5C306.286 157.789 298.257 159.144 287.131 157.112C274.361 154.79 253.852 145.019 241.179 142.601V144.439C253.852 146.857 274.361 156.628 287.131 158.95C298.353 160.982 306.383 159.628 312.768 156.338V154.5Z" fill="#D8EBFF"/>
<path d="M312.768 159.724C306.286 163.014 298.257 164.368 287.131 162.336C274.361 160.014 253.852 150.243 241.179 147.825V149.663C253.852 152.081 274.361 161.853 287.131 164.174C298.353 166.206 306.383 164.852 312.768 161.562V159.724Z" fill="#D8EBFF"/>
<path d="M312.768 164.948C306.286 168.238 298.257 169.592 287.131 167.561C274.361 165.239 253.852 155.468 241.179 153.049V154.887C253.852 157.306 274.361 167.077 287.131 169.399C298.353 171.43 306.383 170.076 312.768 166.787V164.948Z" fill="#D8EBFF"/>
<path d="M312.768 170.173C306.286 173.462 298.257 174.816 287.131 172.785C274.361 170.463 253.852 160.692 241.179 158.273V160.111C253.852 162.53 274.361 172.301 287.131 174.623C298.353 176.654 306.383 175.3 312.768 172.011V170.173Z" fill="#D8EBFF"/>
<path d="M312.768 175.397C306.286 178.686 298.257 180.041 287.131 178.009C274.361 175.687 253.852 165.916 241.179 163.497V165.335C253.852 167.754 274.361 177.525 287.131 179.847C298.353 181.879 306.383 180.524 312.768 177.235V175.397Z" fill="#D8EBFF"/>
<path opacity="0.03" d="M305.996 153.629C302.707 171.624 290.034 179.944 280.747 180.814C271.459 181.685 260.721 176.558 254.046 175.397C265.268 179.267 278.134 184.587 287.132 186.232C303.384 189.231 312.962 184.974 320.701 178.106V78.2659C317.315 81.2649 313.639 83.7803 309.092 85.4249C309.092 100.033 309.092 136.796 305.996 153.629Z" fill="#344593"/>
<path d="M269.621 89.1979V127.605C259.753 124.122 249.402 119.963 241.662 118.415L241.179 118.221V79.9105C248.918 81.4584 259.56 85.6184 269.621 89.1979Z" fill="#D8EBFF"/>
<path d="M320.605 78.2658C317.896 79.8137 318.476 86.1021 325.442 90.0686L381.359 122.671L391.42 116.867L322.539 77.1049C322.636 77.1049 323.313 76.7179 320.605 78.2658Z" fill="white"/>
<path d="M391.517 116.867L381.455 122.671V222.511L391.517 216.706V116.867Z" fill="#DAE6EA"/>
<path d="M325.441 90.0686L327.957 91.5198L381.455 122.671V210.902V222.511L325.441 189.908C320.411 186.909 319.153 184.394 319.153 182.072V80.8779C319.153 84.5542 321.281 87.5533 325.441 90.0686Z" fill="#F2F8F9"/>
<g opacity="0.1">
<g opacity="0.1">
<g opacity="0.1">
<path opacity="0.1" d="M325.441 90.0686L327.957 91.5198L381.455 122.671V210.902V222.511L325.441 189.908C320.411 186.909 319.153 184.394 319.153 182.072V80.8779C319.153 84.5542 321.281 87.5533 325.441 90.0686Z" fill="url(#paint1_linear)"/>
</g>
</g>
</g>
<path d="M375.844 130.411L327.957 102.839L325.442 101.388V99.2593L327.957 100.71L375.844 128.282V130.411Z" fill="#D8EBFF"/>
<path d="M375.844 135.538L327.957 107.966L325.442 106.418V104.29L327.957 105.838L375.844 133.41V135.538Z" fill="#D8EBFF"/>
<path d="M375.844 140.666L327.957 112.997L325.442 111.546V109.417L327.957 110.869L375.844 138.537V140.666Z" fill="#D8EBFF"/>
<path d="M375.844 145.793L327.957 118.124L325.442 116.673V114.545L327.957 115.996L375.844 143.665V145.793Z" fill="#D8EBFF"/>
<path d="M375.844 150.824L327.957 123.252L325.442 121.801V119.672L327.957 121.123L375.844 148.695V150.824Z" fill="#D8EBFF"/>
<path d="M375.844 155.951L327.957 128.282L325.442 126.831V124.703L327.957 126.251L375.844 153.823V155.951Z" fill="#D8EBFF"/>
<path d="M375.844 161.079L327.957 133.41L325.442 131.959V129.83L327.957 131.281L375.844 158.95V161.079Z" fill="#D8EBFF"/>
<path d="M375.844 166.206L327.957 138.537L325.442 137.086V134.958L327.957 136.409L375.844 164.078V166.206Z" fill="#D8EBFF"/>
<path d="M375.844 171.237L327.957 143.665L325.442 142.214V140.085L327.957 141.536L375.844 169.108V171.237Z" fill="#D8EBFF"/>
<path d="M375.844 176.364L327.957 148.695L325.442 147.244V145.116L327.957 146.567L375.844 174.236V176.364Z" fill="#D8EBFF"/>
<path d="M375.844 181.492L327.957 153.823L325.442 152.372V150.243L327.957 151.694L375.844 179.363V181.492Z" fill="#D8EBFF"/>
<path d="M375.844 186.619L327.957 158.95L325.442 157.499V155.371L327.957 156.822L375.844 184.491V186.619Z" fill="#D8EBFF"/>
<path d="M375.844 191.65L327.957 164.078L325.442 162.627V160.498L327.957 161.949L375.844 189.521V191.65Z" fill="#D8EBFF"/>
<path d="M375.844 196.777L327.957 169.108L325.442 167.657V165.529L327.957 166.98L375.844 194.649V196.777Z" fill="#D8EBFF"/>
<path d="M375.844 201.905L327.957 174.236L325.442 172.785V170.656L327.957 172.107L375.844 199.776V201.905Z" fill="#D8EBFF"/>
<path d="M375.844 206.935L327.957 179.363L325.442 177.912V175.784L327.957 177.235L375.844 204.807V206.935Z" fill="#D8EBFF"/>
<path d="M375.844 212.063L327.957 184.491L325.442 182.943V180.814L327.957 182.362L375.844 209.934V212.063Z" fill="#D8EBFF"/>
<path d="M329.988 79.5234V81.2648L317.508 74.1058V73.6221L329.988 79.5234Z" fill="#FF9F52"/>
<path d="M318.186 74.4928L327.473 79.8138C328.15 80.2007 329.214 80.2975 329.698 80.0072C330.279 79.717 330.085 79.1365 329.408 78.7496L320.121 73.4287C319.443 73.0417 318.379 72.9449 317.895 73.2352C317.315 73.5254 317.412 74.1059 318.186 74.4928Z" fill="#FFE6D2"/>
<path d="M216.122 88.5208H166.106L171.717 134.474C172.008 137.183 173.846 139.795 177.328 141.827C184.971 146.18 197.257 146.18 204.803 141.827C208.286 139.795 210.221 137.183 210.414 134.474L216.122 88.5208Z" fill="#91BAFF"/>
<path d="M173.459 78.2659C183.23 72.6547 199.095 72.6547 208.866 78.2659C218.637 83.877 218.637 93.0677 208.866 98.6788C199.095 104.29 183.23 104.29 173.459 98.6788C163.688 93.0677 163.688 83.877 173.459 78.2659Z" fill="#5E9AFB"/>
<path d="M191.066 100.033C184.874 100.033 179.167 98.6788 174.813 96.1635C171.04 93.9384 168.912 91.2295 168.912 88.424C168.912 85.6184 171.04 82.9096 174.813 80.6845C179.07 78.1691 184.874 76.8147 191.066 76.8147C197.257 76.8147 202.965 78.1691 207.319 80.6845C211.092 82.9096 213.22 85.6184 213.22 88.424C213.22 91.2295 211.092 93.9384 207.319 96.1635C203.062 98.6788 197.257 100.033 191.066 100.033Z" fill="#7AA7F3"/>
<path d="M182.552 61.9154L174.716 43.8243L169.879 63.0764C170.556 71.7833 183.23 69.5582 182.552 61.9154Z" fill="#FFF5E6"/>
<path d="M174.716 43.7283L175.49 66.5598C171.621 68.011 170.266 67.4305 169.879 63.0771L174.716 43.7283Z" fill="#F2E2CC"/>
<path d="M174.716 43.7283L176.748 48.4687L175.877 47.6948L175.781 48.759L175.007 47.7915L174.523 48.8557L174.233 47.8883L173.362 49.1459L174.716 43.7283Z" fill="#3760FB"/>
<path d="M175.2 127.025L175.103 125.38L174.91 123.349L169.879 63.0771C169.976 64.8185 173.362 65.5924 175.394 65.4957C178.973 65.3989 182.649 63.5608 182.553 61.9161L187.486 121.704L187.777 125.574C187.486 123.058 174.91 124.509 175.2 127.025Z" fill="#FF9A48"/>
<path d="M175.103 125.38L174.91 123.348L169.879 63.077C169.976 64.8184 173.555 65.5924 175.394 65.4956L179.747 122.865L175.103 125.38Z" fill="#D56C18"/>
<path d="M176.167 137.763L175.2 127.025C175.103 125.961 177.328 125.09 179.94 124.606C183.423 124.026 187.68 124.122 187.873 125.477L188.744 135.635C189.324 139.118 182.843 141.149 178.876 140.182C177.425 139.892 176.361 139.118 176.167 137.763Z" fill="#4289FF"/>
<path d="M176.651 139.021C177.135 139.601 177.909 139.988 178.876 140.279C182.746 141.246 189.324 139.214 188.744 135.732L187.873 125.574C187.776 124.703 186.325 124.413 184.39 124.316L180.327 128.766L181.391 139.505C181.391 139.408 179.747 140.569 176.651 139.021Z" fill="#2875F4"/>
<path d="M187.486 121.607L187.777 125.38C187.873 126.444 185.551 128.089 182.939 128.573C179.457 129.153 175.297 128.283 175.2 126.831L175.007 124.123L174.91 123.155C175.103 124.606 179.263 124.703 182.746 124.123C185.261 123.639 187.486 122.865 187.486 121.801C187.486 121.704 187.486 121.607 187.486 121.607Z" fill="#3760FB"/>
<path d="M187.583 122.575C187.97 125.864 175.297 127.412 174.91 124.026L174.62 120.253C174.91 122.768 187.583 121.317 187.293 118.802L187.583 122.575Z" fill="#344593"/>
<path d="M187.002 115.222L187.293 118.898C187.68 121.994 175.103 123.639 174.619 120.543V120.446L174.329 116.77C174.813 120.446 187.389 118.898 187.002 115.222Z" fill="#3760FB"/>
<path opacity="0.3" d="M182.939 128.573C185.551 128.089 187.97 126.444 187.777 125.38L187.486 121.607V121.704L187.293 118.898L187.003 115.222C187.293 117.35 183.133 118.802 179.553 118.898L180.327 128.766C181.198 128.766 182.069 128.669 182.939 128.573Z" fill="white"/>
<path d="M187.1 116.189L193.678 134.764L199.773 115.899L187.1 116.189Z" fill="#F2E2CC"/>
<path d="M193.678 134.764L194.742 115.996L199.773 115.899L193.678 134.764Z" fill="#FFF5E6"/>
<path d="M193.678 134.764L191.937 129.927L192.711 130.798L192.904 129.83L193.581 130.798L194.162 129.734L194.452 130.798L195.323 129.54L193.678 134.764Z" fill="#3760FB"/>
<path d="M199.096 52.4352V54.0798V56.1114L199.773 115.899C198.419 117.447 196.484 118.221 194.452 118.511C191.356 118.898 188.261 117.834 187.1 116.189L186.422 56.9821V53.1124C186.616 55.6277 199.289 54.9505 199.096 52.4352Z" fill="#D56C18"/>
<path d="M199.096 54.1766V56.2083L199.773 115.996C198.418 117.544 196.484 118.318 194.452 118.608L194.258 56.4985L199.096 54.1766Z" fill="#FF9A48"/>
<path d="M199.193 58.8203V62.5933C199.193 63.6575 196.968 64.4315 194.259 64.625C190.679 65.0119 186.52 64.5282 186.52 63.077V60.2715V59.304C186.616 60.7552 190.776 61.1422 194.356 60.8519C196.871 60.5617 199.193 59.8845 199.29 58.9171C199.193 58.9171 199.193 58.9171 199.193 58.8203Z" fill="#3760FB"/>
<path d="M199.193 59.7878C199.289 62.3031 186.616 62.8836 186.52 60.3683V56.5952C186.616 59.1106 199.386 58.5301 199.193 56.0148V59.7878Z" fill="#344593"/>
<path d="M199.096 52.4352V56.1114C199.192 58.6268 187.003 59.2073 186.422 56.8854V56.7887V53.0156C186.616 55.6277 199.289 54.9505 199.096 52.4352Z" fill="#3760FB"/>
<path opacity="0.3" d="M199.095 52.4352V56.0147V56.1114V58.917V59.691V62.4965C199.095 63.5607 196.87 64.3347 194.162 64.5282V61.7226V60.7551V58.1431V57.9496V54.3701V53.7896L199.095 52.4352Z" fill="white"/>
<path d="M198.902 36.7627L199.096 52.4352C199.192 53.4994 196.871 54.2733 194.259 54.5636C190.679 54.9506 186.519 54.5636 186.422 53.1124L186.229 38.0204C185.939 34.5376 192.517 32.8929 196.387 34.1506C197.741 34.5376 198.805 35.4083 198.902 36.7627Z" fill="#4289FF"/>
<path d="M198.902 36.7627L199.096 52.4352C199.193 53.4994 196.871 54.2734 194.259 54.5636L193.678 38.9878C193.678 38.9878 197.258 38.4074 197.935 37.1497C198.612 35.892 197.838 34.8278 196.29 34.1506C197.741 34.5376 198.806 35.4083 198.902 36.7627Z" fill="#2875F4"/>
<path d="M206.127 34.0857L212.206 34.5161L212.568 29.4015L206.489 28.9711L206.127 34.0857Z" fill="#416285"/>
<path opacity="0.4" d="M201.769 122.35L204.085 122.514L209.959 39.5222L207.643 39.3582L201.769 122.35Z" fill="#EDF9FB"/>
<path d="M201.813 122.41L204.129 122.575L208.592 59.7519L206.276 59.5873L201.813 122.41Z" fill="#213866"/>
<path opacity="0.5" d="M210.801 28.9265L213.026 29.12L206.448 122.768L204.126 122.575L210.801 28.9265Z" fill="url(#paint2_linear)"/>
<path opacity="0.3" d="M208.479 28.8297L210.801 28.9265L204.126 122.575L201.804 122.381L208.479 28.8297Z" fill="url(#paint3_linear)"/>
<path opacity="0.2" d="M206.158 28.6362L208.479 28.8297L201.804 122.381L199.482 122.284L206.158 28.6362Z" fill="url(#paint4_linear)"/>
<path d="M213.51 49.3395L203.642 48.6622C203.642 48.6622 204.803 37.5367 205.287 33.1832C205.77 28.8297 209.156 17.027 209.156 17.027L212.349 17.2205C212.349 17.2205 213.316 23.7991 213.703 29.0232C213.897 30.8614 213.994 32.506 213.897 33.6669C213.897 38.2139 213.51 49.3395 213.51 49.3395Z" fill="#344593"/>
<path d="M213.413 50.5004C213.413 50.5004 212.639 61.7227 212.349 65.7859C212.059 69.8492 210.898 70.3329 210.124 69.5589L211.478 50.3069L213.413 50.5004Z" fill="#122571"/>
<path d="M211.478 49.146C211.478 49.146 213.316 40.1488 213.8 29.12C213.994 30.9581 214.09 32.6028 213.994 33.7637C213.897 38.2139 213.413 49.3395 213.413 49.3395L211.478 49.146Z" fill="#293A88"/>
<path d="M213.026 49.2428L204.029 48.5656C203.352 48.5656 202.771 49.0493 202.771 49.6297L214.187 50.4037C214.187 49.92 213.703 49.3395 213.026 49.2428Z" fill="#293A88"/>
<path d="M201.514 134.377L202.772 134.474C202.772 134.474 202.481 135.925 202.288 136.699C202.191 136.989 202.094 137.183 201.998 137.183C201.901 137.183 201.804 136.989 201.804 136.602C201.514 135.828 201.514 134.377 201.514 134.377Z" fill="#FBC242"/>
<path d="M202.965 134.474L204.513 130.411L205.384 125.961L203.933 125.864L204.126 122.575L201.804 122.381L201.611 125.67L200.063 125.574L200.353 130.121L201.224 134.377L202.965 134.474Z" fill="url(#paint5_linear)"/>
<g opacity="0.6">
<path opacity="0.5" d="M204.126 122.575L203.062 129.927L204.706 130.121L206.448 122.768L204.126 122.575Z" fill="url(#paint6_linear)"/>
<path opacity="0.2" d="M201.804 122.381V129.83L200.159 129.734L199.482 122.284L201.804 122.381Z" fill="url(#paint7_linear)"/>
<path opacity="0.3" d="M203.642 130.024L201.32 129.83L201.804 122.381L204.126 122.575L203.642 130.024Z" fill="url(#paint8_linear)"/>
</g>
<path d="M201.707 136.602C201.707 136.602 201.804 136.506 201.998 136.506C202.191 136.506 202.288 136.602 202.288 136.602C202.191 136.893 202.094 137.086 201.998 137.086C201.804 137.183 201.707 136.989 201.707 136.602Z" fill="#192138"/>
<path d="M165.042 259.564L70.7186 205.097L0 245.923L94.3238 300.39L165.042 259.564Z" fill="#ADC4FF" fill-opacity="0.5"/>
<path d="M165.042 256.662L70.7186 202.195L0 243.021L94.3238 297.488L165.042 256.662Z" fill="#FCFDFF"/>
<path d="M68.4936 212.256L57.2715 209.934L65.2043 205.387L68.4936 212.256Z" fill="#D3D3D3"/>
<path d="M147.339 255.501C148.403 256.081 148.403 257.145 147.242 257.823L123.927 271.27C122.766 271.947 120.928 271.947 119.864 271.367C118.8 270.786 118.8 269.722 119.96 269.045L143.275 255.597C144.436 254.92 146.274 254.92 147.339 255.501Z" fill="#C7DCFF"/>
<path d="M135.536 248.729C136.6 249.309 136.6 250.373 135.439 251.05L84.6496 280.364C83.4887 281.041 81.6506 281.041 80.5864 280.461C79.5222 279.88 79.5222 278.816 80.6832 278.139L131.473 248.825C132.634 248.051 134.472 248.051 135.536 248.729Z" fill="#C7DCFF"/>
<path d="M127.7 244.182C128.764 244.762 128.764 245.826 127.603 246.504L76.8134 275.817C75.6525 276.494 73.8144 276.494 72.7503 275.914C71.6861 275.333 71.6861 274.269 72.847 273.592L123.637 244.278C124.798 243.601 126.636 243.504 127.7 244.182Z" fill="#C7DCFF"/>
<path d="M119.864 239.635C120.928 240.215 120.928 241.279 119.767 241.957L68.9771 271.27C67.8162 271.947 65.9781 271.947 64.9139 271.367C63.8497 270.786 63.8497 269.722 65.0106 269.045L115.8 239.731C116.961 239.054 118.799 238.958 119.864 239.635Z" fill="#C7DCFF"/>
<path d="M108.061 232.766C109.125 233.346 109.125 234.411 107.964 235.088L57.0778 264.498C55.9169 265.175 54.0788 265.175 53.0147 264.595C51.9505 264.014 51.9505 262.95 53.1114 262.273L103.901 232.959C105.159 232.185 106.997 232.185 108.061 232.766Z" fill="#C7DCFF"/>
<path d="M100.225 228.316C101.289 228.896 101.289 229.96 100.128 230.637L49.3386 259.951C48.1777 260.628 46.3396 260.628 45.2754 260.048C44.2113 259.467 44.2113 258.403 45.3722 257.726L96.1619 228.316C97.3228 227.638 99.1609 227.638 100.225 228.316Z" fill="#C7DCFF"/>
<path d="M92.389 223.769C93.4531 224.349 93.4531 225.413 92.2922 226.09L41.4058 255.404C40.2449 256.081 38.4068 256.081 37.3426 255.501C36.2784 254.92 36.2784 253.856 37.4393 253.179L88.229 223.865C89.4867 223.188 91.2281 223.091 92.389 223.769Z" fill="#C7DCFF"/>
<path d="M80.5864 216.9C81.6506 217.48 81.6506 218.545 80.4897 219.222L29.6032 248.632C28.4423 249.309 26.6042 249.309 25.54 248.729C24.4759 248.148 24.4759 247.084 25.6368 246.407L76.4265 217.093C77.6841 216.319 79.5223 216.319 80.5864 216.9Z" fill="#C7DCFF"/>
<path d="M349.627 247.761C342.371 251.921 342.371 258.79 349.627 262.95C356.883 267.11 368.685 267.11 375.941 262.95C383.196 258.79 383.196 251.921 375.941 247.761C368.685 243.504 356.883 243.504 349.627 247.761Z" fill="#C1CFF4" fill-opacity="0.3"/>
<path d="M351.465 199.486C351.271 200.744 349.723 205.968 350.11 207.903C350.401 209.741 355.625 213.127 355.625 213.127L356.302 209.934L354.077 207.806C353.69 207.419 353.496 206.839 353.593 206.258L354.27 201.808L351.465 199.486Z" fill="#F0C6AA"/>
<path d="M356.399 196.197C356.689 192.617 353.4 192.907 352.626 194.165C351.852 195.423 350.304 203.646 350.207 204.42C350.207 204.42 351.852 206.742 354.174 205.871L356.399 196.197Z" fill="#AACAF9"/>
<path d="M354.754 251.534C354.754 251.534 354.658 252.115 354.561 252.792C354.464 253.372 354.367 254.05 355.044 254.243C355.625 254.437 356.399 254.34 356.786 253.856C357.27 253.179 357.56 252.405 358.237 251.728C358.914 251.147 359.785 250.373 359.978 249.406C360.172 248.535 360.075 247.955 359.495 247.858C358.721 247.761 357.463 248.438 356.883 248.825C356.399 249.212 354.754 251.534 354.754 251.534Z" fill="#2D2979"/>
<path d="M363.171 256.758C363.171 256.758 363.171 257.436 363.074 258.016C363.074 258.597 362.784 259.467 362.977 259.951C363.171 260.338 364.138 260.725 365.202 260.628C365.879 260.628 367.331 261.209 367.814 261.596C368.491 262.176 370.136 262.466 371.007 262.176C371.974 261.886 373.038 261.402 373.135 261.015C373.329 260.628 372.845 260.338 370.523 259.274C368.201 258.21 366.557 257.532 365.589 256.275L363.171 256.758Z" fill="#2D2979"/>
<path d="M354.27 239.345C354.657 236.345 355.238 234.507 355.238 234.507C355.238 234.507 354.948 230.347 354.754 226.478C354.561 222.221 354.367 216.9 354.27 215.836L368.008 218.932C368.008 218.932 367.137 235.378 367.04 237.506C366.847 239.635 366.75 242.634 366.46 245.439C366.17 248.922 365.88 256.662 365.88 256.662C364.428 257.532 363.074 257.242 363.074 257.242C363.074 257.242 361.913 247.568 361.72 245.149C361.429 241.763 362.3 238.958 362.3 238.958C362.3 238.958 361.913 234.701 361.623 231.218C361.333 228.122 360.946 226.187 360.946 224.736L360.655 224.543C360.655 224.543 360.365 230.638 360.268 232.766C360.075 234.894 359.785 237.023 359.204 240.989C358.721 244.472 357.366 251.631 357.366 251.631C355.915 252.502 354.851 251.728 354.851 251.728C354.851 251.728 353.884 242.344 354.27 239.345Z" fill="#C4D9FF"/>
<path d="M360.849 224.543C360.849 224.543 357.753 222.898 356.205 221.447C356.205 221.447 357.656 223.575 359.494 224.543C359.494 224.543 360.172 232.089 360.172 231.895L360.559 224.446L360.849 224.543Z" fill="#AACAF9"/>
<path d="M365.493 185.845C365.009 183.233 362.977 181.395 360.365 181.685C357.56 181.975 355.528 184.491 355.818 187.296C356.012 188.941 356.979 190.295 358.237 191.166C358.237 191.166 358.527 192.133 358.721 192.23C359.688 193.294 362.59 193.875 363.461 193.681C364.525 193.488 365.009 193.004 365.493 191.843C366.17 189.812 365.783 187.103 365.493 185.845Z" fill="#F0C6AA"/>
<path d="M362.493 193.681C362.493 193.681 362.397 194.455 362.3 194.939C362.203 195.423 362.203 195.713 363.267 196.293C364.235 196.874 361.719 198.228 360.075 198.035C358.43 197.938 356.592 196.874 356.108 195.81C355.528 194.649 355.625 193.198 356.302 193.294C357.366 193.391 358.14 193.585 358.237 193.294C358.333 193.101 358.43 191.65 358.43 191.65L362.493 193.681Z" fill="#F0C6AA"/>
<path d="M357.656 191.359C356.399 190.199 355.915 189.038 355.818 187.393C355.528 184.587 357.56 182.072 360.365 181.782C362.203 181.588 363.654 182.459 364.622 183.813C364.622 183.813 364.428 184.2 364.138 184.491C364.138 184.491 364.332 185.168 363.945 185.652C363.655 185.942 363.558 186.426 363.654 186.909C363.751 187.393 363.751 187.973 363.751 188.554C363.654 189.328 362.977 189.618 362.977 189.618C362.977 189.618 362.881 188.457 362.59 187.877C362.3 187.296 361.236 187.103 360.849 187.973C360.462 188.844 360.752 189.328 360.946 190.102C361.139 190.779 361.816 190.586 362.107 190.682C362.3 190.876 362.3 192.037 361.236 192.327C360.075 192.617 359.108 192.327 358.527 192.037C358.043 191.65 357.656 191.359 357.656 191.359Z" fill="#FFD7B0"/>
<path d="M364.138 184.297C364.138 184.297 365.492 184.394 366.653 183.04C367.911 181.685 367.234 180.331 365.686 180.911C364.235 181.492 361.719 181.201 360.559 181.008C359.301 180.911 356.012 181.588 356.399 184.2L364.138 184.297Z" fill="#FFD7B0"/>
<path d="M357.753 193.585C357.463 194.262 358.237 195.229 360.172 195.81C362.106 196.39 362.3 195.616 362.3 195.616C362.3 195.616 365.202 196.971 366.073 197.551C367.234 198.422 367.814 200.744 367.911 204.807C368.104 209.451 368.491 218.641 368.298 219.899C368.298 219.899 366.944 220.673 365.783 218.932C365.105 220.093 363.751 221.06 362.01 221.544C359.204 222.414 355.334 221.35 353.496 217.674C353.496 213.611 354.657 210.128 353.98 207.806C352.432 202.388 351.658 200.163 352.432 196.584C353.013 193.585 353.883 193.294 355.044 193.294C356.399 193.294 357.753 193.585 357.753 193.585Z" fill="#7FA8E6"/>
<path d="M358.237 193.198C358.624 193.681 360.075 194.842 362.3 194.939C362.687 194.842 362.977 195.713 363.171 196.1C363.171 196.1 362.203 196.874 359.978 196.39C357.753 195.81 356.979 194.165 357.173 193.585C357.173 193.488 357.946 192.714 358.237 193.198Z" fill="#AACAF9"/>
<path d="M372.458 209.451C370.136 210.031 369.556 208.58 369.266 207.322C368.492 204.42 368.105 201.711 367.621 200.066C366.944 198.132 366.266 197.841 365.299 197.454C364.138 196.971 363.267 197.938 363.558 200.453C364.041 203.356 364.622 205.484 365.686 208.967C365.976 209.838 366.653 211.482 367.621 212.256C368.782 213.224 370.62 213.224 373.329 212.546C374.49 212.256 375.747 211.579 377.972 210.515C378.553 210.225 379.036 210.031 380.197 209.547C381.358 209.064 382.519 208.096 383.1 207.322C383.68 206.452 383.777 206.065 383.68 205.871C383.487 205.581 383.293 205.678 382.906 206.065C382.616 206.452 382.132 207.032 381.262 207.612C381.262 207.612 382.036 206.839 382.422 206.355C382.809 205.871 383.1 205.291 383.293 204.904C383.487 204.42 383.1 203.743 382.713 204.033C382.422 204.42 382.229 204.71 381.649 205.484C381.068 206.161 380.584 206.548 380.584 206.548C380.584 206.548 381.165 205.774 381.552 205C381.939 204.226 381.939 203.839 381.939 203.549C381.939 203.259 381.552 202.969 381.165 203.452C380.875 203.936 380.681 204.613 379.907 205.387C379.423 205.968 378.94 206.258 378.94 206.065C378.94 205.871 379.23 205.581 379.423 205C379.617 204.42 379.423 203.646 379.036 203.646C378.65 203.549 378.746 203.549 378.456 204.226C378.166 204.904 377.779 205.291 377.392 206.161C377.102 206.935 377.005 207.226 376.424 207.806C375.844 208.193 374.586 208.87 372.458 209.451Z" fill="#F0C6AA"/>
<path d="M364.428 197.067C365.976 196.874 367.04 197.551 367.717 199.873C368.395 202.195 369.749 207.613 369.749 207.613C369.749 207.613 369.749 208.87 367.911 209.354C366.073 209.838 364.815 209.547 364.815 209.547C364.815 209.547 363.267 202.969 362.88 201.324C362.687 199.583 362.493 197.358 364.428 197.067Z" fill="#AACAF9"/>
<path d="M300.772 226.284C293.516 230.444 293.516 237.313 300.772 241.473C308.028 245.633 319.83 245.633 327.086 241.473C334.341 237.313 334.341 230.444 327.086 226.284C319.83 222.124 308.028 222.124 300.772 226.284Z" fill="#C1CFF4" fill-opacity="0.35"/>
<path d="M314.026 233.346C314.026 233.346 313.735 233.83 312.187 233.056C310.736 232.282 310.349 231.508 310.349 231.508C310.349 231.508 310.93 228.509 311.897 229.283C312.768 230.251 314.026 233.346 314.026 233.346Z" fill="#291D51"/>
<path d="M310.93 222.414C310.833 224.059 310.833 225.22 310.156 226.091C309.479 226.865 309.382 227.445 309.382 227.445C309.382 227.445 311.22 227.832 311.994 229.186C312.865 230.541 312.671 231.702 313.542 231.992C314.413 232.282 315.864 231.412 315.864 231.412C315.864 231.412 314.993 231.315 314.703 230.154C314.412 228.993 313.735 226.478 313.735 225.897C313.735 225.22 313.929 222.801 313.929 222.801L310.93 222.414Z" fill="#2D2979"/>
<path d="M310.64 226.478C311.414 226.574 312.574 227.542 312.865 228.509C313.155 229.477 313.735 230.734 314.219 231.121C314.703 231.411 315.67 231.121 316.444 231.121C317.218 231.218 317.702 231.605 317.702 232.185C317.702 232.185 315.09 233.153 314.412 233.443C313.639 233.733 313.058 233.733 312.574 232.089C312.091 230.541 311.994 229.573 311.413 230.638C310.833 231.605 310.543 234.024 310.543 234.024C310.543 234.024 309.866 234.217 309.672 233.54C309.672 233.54 309.769 232.476 309.672 231.508C309.575 230.541 308.801 229.283 308.995 228.122C309.092 227.058 309.769 226.381 310.64 226.478Z" fill="#2D2979"/>
<path d="M314.413 237.216C314.413 237.216 314.026 237.7 312.671 236.829C311.22 235.958 310.93 235.185 310.93 235.185C310.93 235.185 311.704 232.185 312.575 233.056C313.349 233.927 314.413 237.216 314.413 237.216Z" fill="#291D51"/>
<path d="M311.994 226.091C311.801 227.638 311.704 228.896 310.93 229.67C310.253 230.444 310.059 231.024 310.059 231.024C310.059 231.024 311.801 231.508 312.575 232.863C313.349 234.217 313.155 235.475 313.929 235.765C314.703 236.055 316.251 235.281 316.251 235.281C316.251 235.281 315.38 235.088 315.187 233.927C314.993 232.766 314.413 230.251 314.413 229.573C314.51 228.896 314.8 226.478 314.8 226.478L311.994 226.091Z" fill="#2D2979"/>
<path d="M311.413 230.154C312.187 230.347 313.252 231.315 313.542 232.282C313.832 233.25 314.316 234.604 314.799 234.991C315.283 235.378 316.251 235.088 317.025 235.184C317.798 235.281 318.282 235.668 318.282 236.249C318.282 236.249 315.67 237.119 314.896 237.313C314.122 237.603 313.445 237.506 313.155 235.862C312.768 234.217 312.671 233.346 312.091 234.314C311.51 235.281 311.027 237.603 311.027 237.603C311.027 237.603 310.349 237.797 310.156 237.119C310.156 237.119 310.349 236.055 310.349 235.088C310.349 234.12 309.672 232.863 309.866 231.702C309.866 230.541 310.64 229.96 311.413 230.154Z" fill="#2D2979"/>
<path d="M308.898 167.754C307.737 168.141 306.963 169.399 305.899 172.301C304.835 175.107 303.771 179.267 303.868 180.427C304.255 183.136 305.899 185.458 308.802 187.296L310.059 184.974C310.059 184.974 307.254 182.749 306.963 180.04C306.77 178.493 308.802 173.365 308.802 173.268C308.802 173.075 308.898 167.754 308.898 167.754Z" fill="#FFDABC"/>
<path d="M308.318 213.901C307.931 211.772 308.898 210.128 308.898 210.128C308.898 210.128 308.028 205.774 307.351 201.614C306.19 194.842 306.093 195.036 306.577 191.553C306.77 190.392 308.705 185.458 309.576 183.233L318.96 184.007C318.96 184.007 319.734 186.716 320.798 191.94C321.862 197.261 321.475 204.42 320.701 211.869C320.508 213.998 319.153 216.9 317.605 220.576C316.251 223.865 314.606 229.09 314.606 229.09C312.671 229.477 311.704 228.219 311.704 228.219C311.704 228.219 312.575 221.544 313.058 219.125C313.832 214.965 315.767 212.933 315.767 212.933C315.767 212.933 315.283 209.934 314.993 207.226C314.703 204.323 313.639 199.486 313.639 199.486C313.639 199.486 313.736 207.032 313.639 209.16C313.639 211.579 313.736 213.804 313.639 216.61C313.542 220.092 313.639 225.8 313.639 225.8C312.188 226.671 310.253 225.704 310.253 225.704C310.253 225.704 308.899 217.287 308.318 213.901Z" fill="#7FA8E6"/>
<path d="M308.028 194.165C309.866 196.1 313.155 196.487 313.155 196.487L313.639 199.486C313.736 201.905 313.736 205 313.639 207.709C313.639 207.709 312.768 200.26 311.897 199.099C311.027 197.938 308.608 195.906 308.028 194.165Z" fill="#6795D6"/>
<path d="M318.766 159.144C318.282 156.532 316.251 154.694 313.639 154.984C310.833 155.274 308.801 157.789 309.092 160.595C309.285 162.24 310.253 163.594 311.51 164.465C311.51 164.465 311.8 165.045 311.994 165.239C312.961 166.303 315.96 166.98 316.638 167.077C317.702 167.077 318.089 166.303 318.572 165.142C319.346 163.014 319.056 160.402 318.766 159.144Z" fill="#FFDABC"/>
<path d="M314.993 163.401C315.207 163.401 315.38 163.227 315.38 163.014C315.38 162.8 315.207 162.627 314.993 162.627C314.779 162.627 314.606 162.8 314.606 163.014C314.606 163.227 314.779 163.401 314.993 163.401Z" fill="#F2F2F2"/>
<path d="M315.67 166.4C315.67 166.4 315.477 167.464 315.574 168.334C315.574 168.818 315.477 169.108 316.541 169.689C317.508 170.269 314.993 171.624 313.348 171.43C311.704 171.333 309.866 170.269 309.382 169.205C308.802 168.044 308.608 167.754 309.576 167.657C311.607 167.56 311.801 167.851 311.897 167.173C311.994 166.883 312.091 165.142 312.091 165.142L315.67 166.4Z" fill="#FFDABC"/>
<path d="M310.93 164.658C309.672 163.497 309.188 162.336 309.092 160.692C308.801 157.886 310.833 155.371 313.639 155.081C315.477 154.887 316.928 155.758 317.895 157.112C317.895 157.112 317.702 157.499 317.411 157.789C317.411 157.789 317.605 158.467 317.218 158.95C316.928 159.241 316.831 159.724 316.928 160.208C317.024 160.692 317.024 161.272 317.024 161.853C316.928 162.627 316.251 162.917 316.251 162.917C316.251 162.917 316.154 161.756 315.864 161.175C315.573 160.595 314.509 160.401 314.122 161.272C313.735 162.143 313.929 162.723 314.219 163.401C314.606 164.078 315.09 163.884 315.38 163.981C315.573 164.174 315.573 165.335 314.509 165.626C313.348 165.916 312.381 165.626 311.8 165.335C311.413 164.948 310.93 164.658 310.93 164.658Z" fill="#180D2B"/>
<path d="M316.638 155.661C316.638 155.661 314.413 152.565 310.349 154.113C306.286 155.661 306.286 161.369 308.511 164.078C310.833 166.787 314.219 167.657 315.283 164.658C315.283 164.658 312.091 165.045 311.607 162.24C311.22 159.337 316.638 155.661 316.638 155.661Z" fill="#180D2B"/>
<path d="M316.638 155.661C317.315 155.564 319.347 155.951 319.25 157.983C319.25 159.627 318.089 160.885 316.638 161.272V155.661Z" fill="#180D2B"/>
<path d="M311.511 167.657C311.124 168.141 311.124 168.721 312.478 169.108C314.316 169.592 315.574 168.915 315.574 168.915C315.574 168.915 317.509 169.786 318.766 170.656C321.959 172.881 322.829 176.654 319.54 177.912C319.347 179.363 319.25 181.395 319.153 182.169C319.25 184.781 320.024 186.329 320.798 191.843C320.798 191.843 317.605 192.52 314.8 192.23C310.156 191.65 307.641 189.231 307.351 188.457C308.899 184.394 309.479 182.653 309.189 181.782C307.931 176.945 306.964 174.913 307.351 171.334C307.544 169.302 307.738 168.238 308.898 167.657C309.576 167.561 311.124 167.657 311.511 167.657Z" fill="#F27C1D"/>
<path d="M331.439 192.714C330.762 192.617 330.278 192.327 329.311 192.23C328.537 192.133 327.956 192.133 327.279 191.843C326.602 191.553 325.731 190.682 324.377 188.844C322.829 186.716 321.668 183.523 321.281 182.072C320.604 178.976 320.314 174.623 320.314 173.075C320.314 171.237 319.443 170.56 318.476 170.173C317.315 169.786 316.541 170.173 316.638 172.688C316.734 175.203 317.121 179.847 318.185 183.136C318.669 184.684 319.54 187.199 321.475 190.005C322.829 191.94 323.41 192.52 325.151 194.068C325.635 194.455 325.925 194.939 326.699 195.906C327.569 196.874 328.73 197.745 329.698 198.035C330.665 198.325 331.149 198.325 331.246 198.132C331.439 197.938 331.342 197.648 330.859 197.454C330.375 197.261 329.698 196.971 328.924 196.293C328.924 196.293 329.891 196.777 330.472 196.971C331.052 197.164 331.633 197.358 332.116 197.358C332.697 197.454 333.181 196.777 332.697 196.584C332.213 196.39 331.826 196.293 331.052 196.003C330.278 195.713 329.795 195.229 329.795 195.229C329.795 195.229 330.762 195.616 331.633 195.713C332.503 195.81 332.89 195.713 333.084 195.616C333.374 195.519 333.568 195.036 332.987 194.939C332.503 194.746 331.729 194.746 330.762 194.262C330.085 193.875 329.601 193.585 329.795 193.488C329.891 193.391 330.278 193.681 330.955 193.681C331.633 193.681 332.213 193.294 332.213 192.907C332.213 192.617 332.116 192.811 331.439 192.714Z" fill="#FFDABC"/>
<path d="M8.61008 212.546C8.70683 213.03 8.70683 213.514 8.90031 213.998C9.19054 214.772 9.96448 215.255 10.7384 215.642C11.6091 216.126 12.77 215.932 13.7374 215.932C14.0277 215.932 14.3179 215.932 14.6081 215.739C14.8983 215.545 14.9951 215.158 14.8983 214.868C14.8016 214.385 14.3179 214.191 14.0277 213.901C13.2537 213.32 12.4798 212.256 12.2863 211.192C12.1896 210.321 11.8993 208.29 12.1896 207.999L9.86773 206.355C9.67425 206.548 9.57751 206.742 9.28728 206.935C8.99705 207.129 8.70683 207.322 8.31986 207.419C8.02963 207.516 7.15895 207.806 7.06221 208.096C6.67524 209.16 7.44918 209.838 7.93289 210.708C8.22312 211.192 8.51334 211.869 8.61008 212.546Z" fill="#2D2979"/>
<path d="M33.5696 208.386C33.5696 208.386 33.4728 209.547 33.3761 210.031C33.3761 210.612 33.0859 211.482 33.2794 211.966C33.4728 212.353 34.7305 212.74 35.7947 212.74C36.4719 212.74 37.923 213.32 38.4067 213.707C39.0839 214.288 40.7285 214.578 41.5992 214.288C42.5666 213.998 43.6308 213.514 43.7275 213.127C43.921 212.74 43.4373 212.45 41.1155 211.385C39.9546 210.805 36.4719 208.87 36.5686 208.29L33.5696 208.386Z" fill="#2D2979"/>
<path d="M54.3693 163.788C53.6921 163.884 53.1117 163.691 52.241 163.884C51.467 164.078 50.8866 164.078 50.1126 164.078C49.3387 163.981 47.2104 162.53 45.469 161.079C43.4374 159.434 41.5026 156.822 40.9221 155.468C39.9547 153.146 38.4068 148.309 37.6329 146.761C36.9557 145.116 36.085 144.922 35.0208 144.826C33.8599 144.729 33.086 145.213 33.7632 147.631C34.5371 150.05 36.085 154.694 37.8264 157.596C38.697 159.047 40.2449 161.175 42.9537 163.304C44.7918 164.852 46.4364 165.722 48.5648 166.787C49.1452 167.077 49.5322 167.464 50.5964 168.141C51.6605 168.818 53.0149 169.399 54.0791 169.399C55.1433 169.495 55.5302 169.302 55.627 169.108C55.7237 168.818 55.5302 168.625 55.0465 168.528C54.5628 168.431 53.7889 168.431 52.8214 167.948C52.8214 167.948 53.8856 168.141 54.4661 168.238C55.0465 168.335 55.7237 168.335 56.1107 168.238C56.6911 168.141 56.9814 167.464 56.4976 167.367C56.0139 167.27 55.627 167.367 54.6595 167.174C53.7889 167.077 53.2084 166.787 53.2084 166.787C53.2084 166.787 54.1758 166.883 55.0465 166.787C55.9172 166.69 56.2074 166.496 56.4976 166.303C56.6911 166.109 56.7879 165.626 56.2074 165.626C55.627 165.626 54.9498 165.819 53.9823 165.529C53.2084 165.335 52.7247 165.142 52.8214 165.045C52.9182 164.948 53.4019 165.045 53.9823 164.948C54.5628 164.755 55.1432 164.271 54.9498 163.884C55.0465 163.497 54.9498 163.691 54.3693 163.788Z" fill="#FFDABC"/>
<path d="M35.5044 144.439C36.6653 144.149 37.7295 145.116 38.5034 146.761C39.1806 148.405 40.2448 152.082 40.8253 153.339C41.4057 154.597 41.5992 155.661 41.5992 155.661C41.5992 155.661 39.7611 157.499 37.4393 157.306C37.4393 157.306 35.6979 153.533 34.7305 150.34C33.8598 147.051 33.3761 145.019 35.5044 144.439Z" fill="#F27C1D"/>
<path d="M39.6644 156.435C40.8253 155.951 41.5025 155.081 41.5025 155.081L41.4058 154.694C41.4058 154.694 41.5993 154.694 42.083 155.661C42.5667 156.628 42.6635 157.306 42.47 157.499C41.5993 158.854 38.8905 159.724 38.31 159.047C37.9231 158.563 36.8589 157.209 37.1491 156.532L37.3426 157.015C37.3426 156.919 38.2133 156.919 39.6644 156.435Z" fill="#F27C1D"/>
<path d="M57.3682 199.679L68.4936 212.256L67.3326 195.423L57.3682 199.679Z" fill="#F2E2CC"/>
<path d="M68.4935 212.256L63.3661 197.164L67.3326 195.423L68.4935 212.256Z" fill="#FFF5E6"/>
<path d="M68.4936 212.256L65.5914 208.967L66.462 209.451L66.2686 208.58L67.1392 209.16L67.236 208.096L67.8164 208.87L68.1067 207.612L68.4936 212.256Z" fill="#191F34"/>
<path d="M42.47 135.345L43.0504 136.699L43.7276 138.247L67.3328 195.423C66.7523 197.067 65.4947 198.325 63.9468 199.099C61.625 200.357 58.8194 200.55 57.3683 199.583L33.8599 142.794L32.6023 139.795C33.5697 141.73 43.4374 137.28 42.47 135.345Z" fill="#E2863B"/>
<path d="M43.0504 136.699L43.7276 138.247L67.3327 195.423C66.7523 197.067 65.4946 198.325 63.9468 199.099L39.8579 139.892L43.0504 136.699Z" fill="#FF9A48"/>
<path d="M44.5985 140.375L45.8562 143.278C46.2431 144.148 44.5985 145.406 42.6637 146.47C39.9549 147.921 36.5689 148.889 36.0852 147.728L35.2145 145.6L34.9243 144.826C35.408 145.987 38.8907 144.922 41.5027 143.568C43.3409 142.504 44.8887 141.246 44.5985 140.375Z" fill="#A5CBFA"/>
<path d="M44.8885 141.053C45.7592 142.987 35.8914 147.438 35.0207 145.503L33.7631 142.6C34.6338 144.535 44.5015 140.085 43.6308 138.15L44.8885 141.053Z" fill="#344593"/>
<path d="M42.47 135.345L43.6309 138.247C44.5016 140.182 35.0208 144.535 33.8599 142.891C33.8599 142.891 33.8599 142.794 33.7632 142.794L32.6023 139.892C33.5697 141.73 43.4374 137.28 42.47 135.345Z" fill="#A5CBFA"/>
<path opacity="0.3" d="M42.4699 135.345L43.6308 138.15V138.247L44.5015 140.472L44.7918 141.149L45.7592 143.374C46.1462 144.245 44.5015 145.503 42.5667 146.567L41.696 144.342L41.4058 143.568L40.5351 141.44L40.4384 141.343L39.2774 138.537L39.084 138.054L42.4699 135.345Z" fill="white"/>
<path d="M37.3426 122.961L42.47 135.345C42.8569 136.215 41.309 137.473 39.2775 138.537C36.5687 139.988 33.1827 140.956 32.6022 139.892L27.6684 127.992C26.314 125.283 31.0544 121.994 34.4403 121.801C35.7947 121.607 36.8589 121.994 37.3426 122.961Z" fill="#2875F4"/>
<path d="M37.3427 122.962L42.47 135.345C42.857 136.215 41.3091 137.473 39.2775 138.537L33.9567 126.348C33.9567 126.348 36.5688 124.8 36.7622 123.542C36.859 122.284 35.8916 121.801 34.5372 121.704C35.7948 121.607 36.859 121.994 37.3427 122.962Z" fill="#4289FF"/>
<path d="M20.0255 191.65C20.0255 191.65 24.6691 172.494 24.9593 171.72L39.0837 169.108C39.0837 169.108 38.8902 186.619 38.5033 191.069C38.4065 192.52 36.6652 208.29 36.6652 208.29C35.1173 209.257 33.5694 208.386 33.5694 208.386C33.5694 208.386 32.7955 197.067 32.602 195.326C32.4085 193.101 32.9889 190.489 32.9889 190.489L32.215 178.009L31.7313 178.106C31.7313 178.106 27.2812 190.005 26.3137 192.037C25.83 193.101 25.2496 193.778 24.7659 194.649C23.9919 195.81 22.6375 197.067 20.4124 199.486C18.0906 202.098 11.8991 208.193 11.8991 208.193C10.2545 208.193 9.38382 206.645 9.38382 206.645C9.38382 206.645 14.4144 198.712 15.9623 196.003C17.6069 193.198 20.0255 191.65 20.0255 191.65Z" fill="#7FA8E6"/>
<path d="M31.7312 178.009C31.7312 178.009 34.9237 176.364 36.5683 174.913C36.5683 174.913 35.4074 176.461 34.1498 177.719C32.8921 178.976 32.8921 187.877 32.8921 187.877L32.2149 178.009H31.7312Z" fill="#6F89D1"/>
<path d="M28.6356 143.471C28.6356 143.471 28.8291 146.76 28.7324 147.147C28.6356 147.438 27.1845 148.405 26.7975 148.792C26.4105 149.179 29.1193 151.791 30.4737 152.468C31.8281 153.049 35.988 151.501 36.0848 149.373C36.1815 147.341 35.4076 145.6 34.7304 145.503C33.9565 145.309 28.6356 143.471 28.6356 143.471Z" fill="#FFDABC"/>
<path d="M34.1501 147.244C34.6338 146.857 34.0534 145.987 33.7632 145.406C32.4088 145.019 28.6358 143.471 28.6358 143.471C28.6358 143.471 28.6358 144.245 28.7326 144.729C28.7326 145.309 29.1195 145.987 29.6032 146.373C29.9902 146.664 30.4739 146.954 31.0544 147.244C31.6348 147.438 33.086 148.212 34.1501 147.244Z" fill="#912B40"/>
<path d="M28.2487 147.534C28.2487 147.534 31.3445 150.921 34.2467 151.501C35.3109 149.276 35.2141 146.761 33.6663 145.503C33.6663 145.503 35.0207 144.439 35.9881 144.632C35.9881 144.632 37.4392 145.406 38.1164 147.244C38.6969 149.179 39.3741 151.404 39.2773 154.984C39.1806 158.563 39.2773 169.302 39.2773 169.302C39.2773 169.302 38.7936 171.624 35.7946 173.268C32.6988 175.01 30.4738 175.106 28.4422 174.623C26.7008 174.236 25.3464 173.172 24.766 171.914C25.1529 169.592 25.9269 163.4 25.5399 160.305C25.1529 157.209 24.4757 154.887 24.2823 152.372C24.0888 149.856 24.5725 149.856 25.8301 148.986C27.5715 147.921 28.2487 147.534 28.2487 147.534Z" fill="#F5FBFB"/>
<path d="M33.6661 145.406C33.6661 145.406 35.601 147.438 36.5684 150.437C37.5358 153.339 37.826 157.789 37.9228 160.788C38.0195 163.787 38.3097 170.85 38.3097 170.85C38.3097 170.85 39.8576 169.786 39.7609 167.173C39.7609 167.173 39.5674 162.53 39.3739 158.37C39.2772 154.21 39.4706 150.727 38.5032 147.825C37.5358 144.922 35.7944 144.342 35.7944 144.342L33.6661 145.406Z" fill="#F27C1D"/>
<path d="M37.6327 156.435C37.6327 156.435 38.4067 152.372 38.2132 151.017C38.0197 149.76 36.8588 149.276 36.8588 149.276C36.8588 149.276 36.0849 145.987 35.6979 145.213C35.4077 144.439 32.9891 144.342 32.9891 144.342C32.9891 144.342 33.9565 145.503 35.0207 147.825C36.0849 150.147 37.149 152.565 37.6327 156.435Z" fill="#F27C1D"/>
<path d="M36.1817 138.537C35.7947 135.925 33.9566 133.99 31.2479 134.184C28.4423 134.377 26.2172 136.796 26.4107 139.602C26.5075 141.246 27.3782 142.697 28.6358 143.568C28.6358 143.568 28.926 144.535 29.0228 144.729C29.9902 145.793 32.7957 146.47 33.6664 146.374C34.7306 146.18 35.311 145.793 35.7947 144.632C36.6654 142.504 36.3752 139.795 36.1817 138.537Z" fill="#FFDABC"/>
<path d="M35.7945 136.409C34.7303 134.764 32.6987 133.7 30.4737 134.184C28.3453 134.667 26.604 136.506 26.4105 138.731C26.217 140.762 27.1844 142.407 28.6356 143.471C28.5388 143.278 27.2812 141.246 28.6356 140.859C28.829 141.149 28.9258 141.536 28.9258 141.923C28.9258 141.923 29.603 141.827 29.5062 141.053C29.5062 140.859 29.4095 140.666 29.4095 140.472C29.3127 139.892 29.4095 139.214 29.7965 138.731C30.0867 138.344 30.3769 137.667 30.1834 137.086C30.1834 137.086 31.9248 137.86 34.0531 137.376C34.9238 137.086 35.5043 136.699 35.7945 136.409Z" fill="#6D293D"/>
<path d="M28.6355 143.471C28.6355 143.471 28.5388 143.762 28.0551 143.762C27.0876 143.762 26.0235 142.117 26.7974 140.859C27.2811 140.085 28.3453 140.375 28.6355 140.859V143.471Z" fill="#FFDABC"/>
<path d="M28.7324 146.954C28.7324 148.018 31.5379 148.889 31.8281 154.694C32.2151 160.595 31.0542 174.623 31.0542 174.623C31.0542 174.623 26.4106 174.139 26.1203 170.85C26.1203 170.85 25.6366 173.075 23.605 172.978C23.605 172.978 23.8953 171.14 24.4757 167.947C25.1529 164.755 24.9594 160.111 24.5725 156.822C24.1855 153.533 23.2181 150.63 24.4757 149.469C25.9269 148.405 28.7324 146.954 28.7324 146.954Z" fill="#F27C1D"/>
<path d="M28.7323 145.89C28.7323 145.89 28.3453 145.793 28.1519 146.277C27.9584 146.567 27.1844 147.825 27.1844 147.825C27.1844 147.825 27.5714 148.986 28.8291 150.147C30.0867 151.307 30.8607 152.662 30.8607 152.662C30.8607 152.662 30.0867 155.177 29.99 155.758C29.8932 156.338 32.0216 158.757 32.0216 158.757C32.0216 158.757 32.5053 154.21 31.5378 151.501C30.5704 148.792 28.9258 147.148 28.8291 146.664C28.7323 146.47 28.7323 146.18 28.7323 145.89Z" fill="#F27C1D"/>
<path d="M47.3071 165.722C46.6299 165.916 46.0495 165.819 45.1788 166.109C44.4049 166.4 44.1146 166.496 43.3407 166.4C42.47 166.303 40.3417 165.335 38.4068 164.174C36.1818 162.82 33.7632 160.305 32.8925 159.047C31.1512 156.628 29.2163 152.662 28.3456 151.211C27.3782 149.76 26.5075 149.566 25.5401 149.566C24.3792 149.663 23.6053 150.727 24.6694 153.049C25.7336 155.371 28.0554 159.144 30.1837 161.853C31.2479 163.11 33.086 165.045 35.9883 166.787C38.0199 168.044 39.7612 168.625 42.083 169.399C42.6635 169.592 43.1472 169.882 44.2114 170.463C45.3723 170.947 46.7267 171.334 47.7909 171.237C48.855 171.14 49.1452 170.947 49.242 170.753C49.3387 170.463 49.1452 170.269 48.6615 170.269C48.1778 170.269 47.4039 170.366 46.4365 169.979C46.4365 169.979 47.5006 170.076 48.0811 170.076C48.7583 170.076 49.3387 169.979 49.7257 169.786C50.2094 169.592 50.4996 168.818 50.0159 168.818C49.5322 168.818 49.1452 168.915 48.1778 168.915C47.3071 168.915 46.7267 168.721 46.7267 168.721C46.7267 168.721 47.6941 168.625 48.5648 168.431C49.4355 168.238 49.7257 167.947 49.9192 167.754C50.1127 167.561 50.1127 167.077 49.5322 167.174C48.9518 167.174 48.3713 167.464 47.3071 167.464C46.5332 167.367 46.0495 167.27 46.1462 167.174C46.243 167.077 46.7267 167.174 47.3071 166.883C47.8876 166.593 48.2746 166.013 48.1778 165.722C47.8876 165.529 47.9843 165.626 47.3071 165.722Z" fill="#FFDABC"/>
<path d="M24.9596 149.469C26.0238 148.889 27.2814 149.663 28.3456 151.114C29.4098 152.565 31.1511 155.951 32.0218 157.015C32.8925 158.08 33.2795 159.047 33.2795 159.047C33.2795 159.047 31.8283 161.272 29.5065 161.466C29.5065 161.466 26.9912 158.176 25.4433 155.274C23.8954 152.372 23.0248 150.437 24.9596 149.469Z" fill="#F27C1D"/>
<path d="M31.5383 160.305C32.6024 159.627 32.9894 158.563 32.9894 158.563L32.7959 158.176C32.7959 158.176 32.9894 158.08 33.6666 158.95C34.3438 159.821 34.5373 160.401 34.4405 160.692C33.9568 162.24 31.4415 163.594 30.6676 163.014C30.1839 162.627 28.9262 161.466 29.023 160.788L29.3132 161.175C29.3132 161.272 30.1839 161.175 31.5383 160.305Z" fill="#F27C1D"/>
<path d="M113.285 187.006C106.03 191.166 106.03 198.035 113.285 202.195C120.541 206.355 132.344 206.355 139.599 202.195C146.855 198.035 146.855 191.166 139.599 187.006C132.247 182.846 120.541 182.846 113.285 187.006Z" fill="#C1CFF4" fill-opacity="0.35"/>
<path d="M234.697 252.889C227.441 257.049 227.441 263.917 234.697 268.077C241.952 272.237 253.755 272.237 261.011 268.077C268.266 263.917 268.266 257.049 261.011 252.889C253.658 248.632 241.952 248.632 234.697 252.889Z" fill="#C1CFF4" fill-opacity="0.29"/>
<path d="M127.99 186.909C127.99 186.909 127.894 187.49 127.603 187.973C127.41 188.457 127.12 189.328 127.12 189.715C127.12 190.199 128.087 190.876 128.667 191.069C129.345 191.263 130.215 192.133 130.506 192.617C130.989 193.391 132.344 194.068 133.214 194.165C134.182 194.165 135.246 194.165 135.536 193.778C135.826 193.391 135.536 193.004 133.795 191.263C132.053 189.618 130.893 188.554 130.409 187.199L127.99 186.909Z" fill="#2D2979"/>
<path d="M121.411 190.586C121.218 191.069 120.831 191.456 120.928 192.811C121.024 194.165 120.928 194.746 120.734 195.906C120.638 197.067 121.218 198.615 121.702 199.293C122.282 200.066 123.733 200.163 124.217 198.906C124.701 197.648 124.797 196.487 124.507 195.229C124.217 193.972 124.604 192.907 124.41 192.037C124.217 191.166 123.927 190.586 123.927 190.586H121.411Z" fill="#2D2979"/>
<path d="M120.057 152.081C118.413 156.241 119.961 162.433 120.154 165.819C120.348 169.205 120.638 173.075 120.638 173.075C120.638 173.075 119.574 176.654 119.67 179.363C119.767 182.266 121.412 190.586 121.412 190.586C121.412 190.586 122.476 191.359 123.927 190.586C123.927 190.586 124.314 183.426 124.798 180.04C125.185 176.558 125.378 174.042 125.668 172.011C126.152 169.495 126.829 157.886 126.829 157.886L127.216 157.983L128.377 171.333C128.377 171.333 127.507 173.268 127.507 174.816C127.507 176.945 127.894 186.909 127.894 186.909C127.894 186.909 129.054 188.167 130.602 187.296C130.602 187.296 132.731 173.268 133.021 171.624C133.311 170.173 133.892 155.661 133.118 151.114L120.057 152.081Z" fill="#C4D9FF"/>
<path d="M126.829 157.886C126.829 157.886 129.538 157.112 130.796 156.241C130.796 156.241 129.248 157.499 128.571 157.886C127.893 158.37 128.184 168.044 128.184 168.044L127.313 157.886H126.829Z" fill="#AACAF9"/>
<path d="M124.411 119.866C124.411 119.866 124.991 117.544 128.377 117.544C131.279 117.544 132.924 119.285 133.214 121.317C133.505 123.445 133.988 125.477 133.892 127.508C133.892 129.54 133.021 130.024 133.021 130.024C133.021 130.024 129.828 131.765 126.346 130.411C122.669 128.282 124.411 119.866 124.411 119.866Z" fill="#3A2C6D"/>
<path d="M143.856 153.823C143.179 153.726 142.695 153.339 141.728 153.339C140.857 153.242 140.373 153.242 139.599 152.952C138.922 152.662 137.955 151.694 136.6 149.856C135.052 147.728 134.085 145.116 133.601 143.665C132.634 140.472 132.827 136.796 132.924 135.345C132.924 133.507 133.021 132.055 132.053 131.668C130.892 131.281 129.828 131.378 129.345 134.087C128.861 136.602 129.248 141.053 130.215 144.342C130.699 145.987 131.376 148.018 133.504 150.727C135.149 152.855 135.73 153.436 137.568 155.08C138.051 155.564 138.342 155.951 139.116 156.919C139.986 157.886 141.147 158.757 142.115 159.047C143.082 159.337 143.566 159.337 143.662 159.144C143.856 158.95 143.759 158.66 143.275 158.467C142.792 158.273 142.115 157.983 141.341 157.306C141.341 157.306 142.308 157.789 142.888 158.08C143.469 158.37 144.049 158.467 144.533 158.563C145.114 158.66 145.597 157.983 145.21 157.789C144.727 157.596 144.34 157.499 143.469 157.112C142.695 156.725 142.211 156.338 142.211 156.338C142.211 156.338 143.179 156.725 144.049 156.822C144.92 156.919 145.307 156.822 145.501 156.725C145.791 156.628 145.984 156.145 145.404 155.951C144.92 155.758 144.146 155.758 143.179 155.274C142.502 154.887 142.018 154.597 142.211 154.5C142.308 154.403 142.695 154.693 143.372 154.693C144.049 154.693 144.63 154.307 144.63 153.92C144.63 153.726 144.533 153.92 143.856 153.823Z" fill="#F0C6AA"/>
<path d="M131.473 131.378C130.409 131.185 129.538 131.668 129.345 133.023C129.151 134.667 128.958 137.473 129.054 139.214C129.054 139.214 130.699 140.666 133.311 139.698C133.311 138.827 133.505 135.732 133.408 133.99C133.118 131.668 132.344 131.572 131.473 131.378Z" fill="#F5FBFB"/>
<path d="M123.927 144.342C124.217 144.826 124.12 145.503 123.25 146.76C122.379 148.018 121.315 149.373 120.057 151.985C120.541 152.855 121.702 154.693 124.798 155.177C129.151 155.854 132.924 154.016 133.408 152.759C133.408 152.759 133.408 151.501 133.214 148.889C133.021 147.147 132.924 145.89 132.73 144.342C132.44 142.891 123.927 144.342 123.927 144.342Z" fill="#F27C1D"/>
<path d="M124.894 127.799C124.894 127.799 125.088 131.668 124.991 131.959C124.894 132.249 123.443 132.539 123.056 132.829C122.669 133.12 125.185 137.086 126.442 137.667C127.7 138.247 131.666 136.796 131.956 134.861C132.247 133.023 130.796 131.959 130.312 131.475C129.925 131.378 129.344 131.475 129.248 131.475L129.151 129.347C127.41 128.669 124.894 127.799 124.894 127.799Z" fill="#F0C6AA"/>
<path d="M124.411 132.249C123.347 132.442 122.089 133.023 121.896 133.603C121.702 134.28 121.218 137.57 122.186 140.085C123.153 142.6 123.734 144.052 124.217 145.116C124.217 145.116 128.861 146.76 132.634 144.439C132.634 144.439 133.021 142.213 133.021 140.762C136.407 137.86 133.892 134.377 131.086 131.475C130.893 131.281 130.409 131.281 130.119 131.281C129.925 131.281 129.635 131.281 129.538 131.281C129.538 131.281 130.602 131.959 131.183 133.216C131.666 134.377 131.666 135.441 130.796 135.828C129.441 136.409 128.281 136.022 127.12 134.764C126.249 133.893 125.668 133.023 124.411 132.249Z" fill="#F27C1D"/>
<path d="M129.248 130.701L129.151 129.153L127.893 128.766L124.894 127.702C124.894 127.702 124.894 128.379 124.991 128.96C124.991 128.96 125.088 130.314 127.313 131.281C127.7 131.475 129.151 131.668 129.248 130.701Z" fill="#F28F8F"/>
<path d="M132.151 123.058C131.764 120.543 130.022 118.705 127.41 118.801C124.701 118.995 122.573 121.317 122.767 124.026C122.863 125.574 123.734 126.928 124.895 127.799C124.895 127.799 125.088 128.669 125.282 128.863C126.153 129.927 128.571 130.604 129.345 130.604C130.022 130.604 130.603 130.024 131.28 128.96C132.634 126.734 132.344 124.219 132.151 123.058Z" fill="#F0C6AA"/>
<path d="M132.054 121.801C131.28 119.188 128.764 118.318 126.636 118.802C124.508 119.188 122.863 120.833 122.766 123.252C122.67 125.187 123.637 126.831 124.991 127.799C124.895 127.605 123.637 125.67 124.991 125.283C125.185 125.574 125.282 126.444 125.282 126.831C125.282 126.831 125.862 126.928 125.862 126.154C125.862 125.961 125.765 125.283 125.765 125.09C125.669 124.509 125.765 124.413 126.152 123.929C126.443 123.542 126.539 123.445 126.346 122.768C126.346 122.768 128.861 123.155 129.442 120.833C130.119 122.091 131.763 122.091 132.054 121.801Z" fill="#3A2C6D"/>
<path d="M124.411 119.866C124.411 119.866 123.153 119.575 122.379 121.22C121.799 122.478 120.831 127.605 121.122 129.443C121.412 131.281 124.024 132.152 125.862 131.088C125.862 131.088 125.669 130.701 125.282 129.443C125.088 128.863 124.895 127.895 124.895 127.895L124.411 119.866Z" fill="#3A2C6D"/>
<path d="M124.895 127.799C124.895 127.799 124.798 128.089 124.314 128.089C123.443 128.089 122.379 126.444 123.056 125.38C123.54 124.703 124.508 124.896 124.895 125.38V127.799Z" fill="#F0C6AA"/>
<path d="M185.648 215.352C185.648 215.352 186.229 222.414 184.584 232.572C183.036 242.15 177.522 248.148 177.522 248.148L175.297 236.055C175.297 236.055 169.106 240.505 160.786 240.312C160.786 240.312 175.007 228.606 176.555 210.224L185.648 215.352Z" fill="#D86000"/>
<path d="M146.371 153.242C143.856 151.501 140.276 151.598 136.213 153.92C128.57 158.273 122.476 169.012 122.476 177.719C122.476 182.362 124.217 185.555 127.023 186.813L174.33 208.773L189.034 183.136L146.371 153.242Z" fill="#EDF3FF"/>
<path d="M247.564 211.676C245.048 211.095 241.953 210.902 238.47 212.933C238.18 213.127 237.89 213.32 237.503 213.514C232.375 216.803 228.119 222.898 225.99 229.186C225.12 231.702 224.636 234.314 224.636 236.732C224.636 240.796 225.99 243.795 228.119 245.343L185.552 215.449C183.811 214.288 182.746 212.063 182.746 208.87C182.746 202.195 187.39 194.068 193.195 190.779C195.807 189.231 198.225 189.038 200.063 189.812L247.564 211.676Z" fill="#EDF3FF"/>
<path d="M250.369 228.896C247.661 237.216 240.115 245.149 233.73 246.503C231.601 246.794 229.666 246.407 228.215 245.343C225.99 243.795 224.733 240.892 224.733 236.732C224.733 234.314 225.216 231.702 226.087 229.186L235.181 235.958C235.858 236.442 236.729 236.636 237.89 236.442C240.502 235.862 243.597 232.669 244.758 229.283L237.019 225.026C239.244 221.834 242.34 219.318 245.145 218.738C246.5 218.448 247.661 218.545 248.628 219.028L248.821 219.125C251.24 220.383 252.014 224.059 250.369 228.896Z" fill="#DDE6F8"/>
<path d="M244.661 229.283C243.5 232.669 240.501 235.958 237.793 236.442C236.632 236.636 235.761 236.442 235.084 235.958C233.826 234.991 233.439 232.766 234.407 229.96C234.987 228.219 235.858 226.574 236.922 225.026L244.661 229.283Z" fill="#B6C6E6"/>
<path d="M248.531 219.028C247.564 218.641 246.403 218.544 245.048 218.738C242.243 219.318 239.147 221.834 236.922 225.026C235.858 226.574 234.987 228.219 234.407 229.96C233.439 232.766 233.826 234.991 235.084 235.958L225.99 229.186C228.118 222.898 232.375 216.803 237.502 213.514L248.531 219.028Z" fill="#F4F8FF"/>
<path d="M189.034 183.233C187.1 181.975 184.391 182.072 181.392 183.813C175.587 187.103 170.944 195.229 170.944 201.905C170.944 205.484 172.298 207.903 174.33 208.87L185.648 215.449C183.907 214.288 182.843 212.063 182.843 208.87C182.843 208.193 182.843 207.612 182.94 206.935C183.617 201.324 187.196 195.229 191.646 191.843C192.13 191.456 192.711 191.069 193.291 190.779C195.903 189.231 198.322 188.941 200.257 189.812L189.034 183.233Z" fill="#F27C1D"/>
<path d="M174.33 208.87C174.33 208.87 164.365 216.61 156.239 220.673C156.239 220.673 163.495 222.801 171.621 220.673L173.169 231.605C173.169 231.605 181.199 223.575 184.585 214.868L174.33 208.87Z" fill="#FF9A48"/>
<path d="M249.885 225.026C250.466 224.736 250.95 224.349 251.82 224.059C252.594 223.769 252.884 223.672 253.465 223.188C254.045 222.608 255.206 220.479 255.98 218.351C256.948 215.836 257.238 212.45 257.141 210.999C256.948 207.999 256.077 203.743 255.883 202.001C255.69 200.26 256.27 199.583 257.141 199.002C258.109 198.325 259.366 198.712 259.947 201.131C260.527 203.549 261.108 207.999 261.011 211.482C261.011 213.127 260.624 215.836 259.463 219.028C258.592 221.253 257.625 222.801 256.27 224.833C255.883 225.413 255.787 225.897 255.206 226.961C254.626 228.122 253.755 229.186 252.884 229.767C252.014 230.347 251.627 230.444 251.433 230.251C251.24 230.057 251.24 229.864 251.627 229.477C252.014 229.186 252.691 228.703 253.175 227.832C253.175 227.832 252.401 228.509 251.917 228.896C251.433 229.283 250.853 229.573 250.466 229.767C249.982 229.96 249.305 229.477 249.692 229.186C250.079 228.896 250.466 228.703 251.143 228.122C251.82 227.639 252.207 227.058 252.207 227.058C252.207 227.058 251.337 227.639 250.563 228.025C249.789 228.412 249.402 228.412 249.112 228.316C248.821 228.316 248.531 227.929 249.015 227.542C249.499 227.252 250.176 227.058 250.95 226.381C251.53 225.897 251.82 225.413 251.724 225.413C251.53 225.413 251.24 225.704 250.659 225.897C250.079 226.091 249.305 225.897 249.305 225.51C249.208 225.22 249.305 225.22 249.885 225.026Z" fill="#F0C6AA"/>
<path d="M256.561 198.228C257.335 197.938 258.689 197.841 259.463 199.099C260.237 200.357 261.011 204.71 261.108 205.387C261.108 205.387 260.043 206.838 258.399 206.645L256.561 198.228Z" fill="#F27C1D"/>
<path d="M257.334 256.468C257.334 256.468 257.431 257.049 257.528 257.726C257.625 258.306 257.721 258.983 257.044 259.177C256.464 259.37 255.69 259.274 255.303 258.79C254.819 258.113 254.529 257.339 253.852 256.662C253.175 256.081 252.304 255.307 252.11 254.34C251.917 253.469 252.014 252.889 252.594 252.792C253.368 252.695 254.626 253.372 255.206 253.759C255.69 254.049 257.334 256.468 257.334 256.468Z" fill="#2D2979"/>
<path d="M248.434 261.596C248.434 261.596 248.434 262.273 248.531 262.853C248.531 263.434 248.821 264.304 248.628 264.788C248.434 265.175 247.467 265.562 246.403 265.465C245.725 265.465 244.274 266.046 243.791 266.433C243.113 267.013 241.469 267.303 240.598 267.013C239.631 266.723 238.567 266.239 238.47 265.852C238.276 265.465 238.76 265.175 241.082 264.111C243.404 263.047 245.048 262.369 246.016 261.112L248.434 261.596Z" fill="#2D2979"/>
<path d="M257.818 244.182C257.431 241.183 256.851 239.344 256.851 239.344C256.851 239.344 257.141 235.184 257.335 231.315C257.528 227.058 257.722 221.737 257.818 220.673L244.081 223.769C244.081 223.769 244.952 240.215 245.048 242.343C245.242 244.472 245.242 245.923 245.435 250.083C245.629 253.566 245.919 261.112 245.919 261.112C247.37 261.982 248.434 261.595 248.434 261.595C248.434 261.595 250.659 251.534 250.563 249.116C250.466 246.116 249.885 244.278 249.885 244.278C249.885 244.278 250.563 239.635 250.756 236.152C250.95 232.669 251.24 230.928 251.24 229.38L251.53 229.186C251.53 229.186 251.82 235.281 251.917 237.41C252.111 239.538 252.401 241.666 252.981 245.633C253.465 249.116 254.819 256.275 254.819 256.275C256.27 257.145 257.335 256.371 257.335 256.371C257.335 256.371 258.205 247.181 257.818 244.182Z" fill="#7FA8E6"/>
<path d="M251.24 229.477C251.24 229.477 254.336 227.832 255.884 226.381C255.884 226.381 254.433 228.509 252.594 229.477C252.594 229.477 251.917 237.023 251.917 236.829L251.53 229.38L251.24 229.477Z" fill="#6795D6"/>
<path d="M246.596 190.682C247.08 188.07 249.112 186.232 251.724 186.522C254.529 186.813 256.561 189.328 256.27 192.133C256.077 193.778 255.109 195.133 253.852 196.003C253.852 196.003 253.562 196.971 253.368 197.067C252.401 198.132 249.498 198.712 248.628 198.519C247.564 198.325 247.08 197.841 246.596 196.68C245.919 194.649 246.306 191.94 246.596 190.682Z" fill="#F0C6AA"/>
<path d="M249.595 198.615C249.595 198.615 249.692 199.389 249.789 199.873C249.885 200.357 249.885 200.647 248.821 201.227C247.854 201.808 250.369 203.162 252.014 202.969C253.658 202.872 255.497 201.808 255.98 200.744C256.561 199.583 256.464 198.132 255.787 198.228C254.723 198.325 253.949 198.518 253.852 198.228C253.755 198.035 253.658 196.584 253.658 196.584L249.595 198.615Z" fill="#F0C6AA"/>
<path d="M254.432 196.197C255.69 195.036 256.174 193.875 256.27 192.23C256.561 189.425 254.529 186.909 251.724 186.619C249.885 186.426 248.434 187.296 247.467 188.651C247.467 188.651 247.66 189.038 247.951 189.328C247.951 189.328 247.757 190.005 248.144 190.489C248.434 190.779 248.531 191.263 248.434 191.746C248.338 192.23 248.338 192.811 248.338 193.391C248.434 194.165 249.111 194.455 249.111 194.455C249.111 194.455 249.208 193.294 249.498 192.714C249.789 192.133 250.853 191.94 251.24 192.811C251.627 193.681 251.337 194.165 251.143 194.939C250.95 195.713 250.272 195.423 249.982 195.519C249.789 195.713 249.789 196.874 250.853 197.164C252.014 197.454 252.981 197.164 253.562 196.874C254.045 196.584 254.432 196.197 254.432 196.197Z" fill="#C9483A"/>
<path d="M247.951 189.231C247.951 189.231 246.597 189.328 245.436 187.973C244.178 186.619 244.855 185.265 246.403 185.845C247.854 186.425 250.369 186.135 251.53 185.942C252.788 185.845 256.077 186.522 255.69 189.134L247.951 189.231Z" fill="#C9483A"/>
<path d="M254.142 198.422C254.239 198.712 254.239 199.486 252.304 200.163C250.369 200.744 249.789 200.453 249.789 200.453C249.789 200.453 246.886 201.808 246.016 202.388C244.855 203.259 244.274 205.581 244.178 209.644C243.984 214.288 243.984 222.511 244.178 223.769C244.178 223.769 246.403 225.994 249.208 225.703C252.014 225.51 256.754 222.995 257.915 221.06C257.915 216.997 257.431 214.965 258.108 212.643C259.656 207.225 260.43 205 259.656 201.421C259.076 198.422 258.205 198.131 257.044 198.131C255.69 198.228 254.142 198.422 254.142 198.422Z" fill="#F5FBFB"/>
<path d="M230.537 225.026C231.214 224.93 231.795 224.736 232.665 224.736C233.536 224.736 233.826 224.736 234.503 224.446C235.277 224.156 236.922 222.414 238.373 220.673C240.018 218.641 241.469 215.449 241.856 213.998C242.63 211.095 243.21 206.742 243.597 205.097C243.984 203.356 244.758 202.969 245.726 202.679C246.886 202.292 247.951 203.065 247.757 205.581C247.564 208.096 246.693 212.45 245.435 215.739C244.855 217.287 243.694 219.705 241.566 222.414C240.018 224.252 238.567 225.413 236.728 226.961C236.245 227.348 235.955 227.832 235.084 228.703C234.213 229.573 232.956 230.347 231.988 230.637C231.021 230.928 230.537 230.831 230.44 230.637C230.247 230.444 230.44 230.154 230.827 229.96C231.311 229.767 232.085 229.573 232.859 228.896C232.859 228.896 231.891 229.283 231.311 229.477C230.73 229.67 230.15 229.767 229.666 229.767C229.086 229.767 228.602 229.186 229.086 228.993C229.57 228.799 229.957 228.799 230.827 228.509C231.601 228.219 232.182 227.832 232.182 227.832C232.182 227.832 231.214 228.122 230.343 228.219C229.473 228.316 229.086 228.122 228.892 228.025C228.699 227.929 228.505 227.445 229.086 227.348C229.57 227.251 230.343 227.251 231.311 226.864C231.988 226.574 232.472 226.284 232.278 226.187C232.182 226.091 231.698 226.284 231.117 226.284C230.44 226.284 229.86 225.8 229.956 225.51C229.86 224.93 229.86 225.026 230.537 225.026Z" fill="#F0C6AA"/>
<path d="M246.596 202.098C245.048 201.905 243.984 202.582 243.307 204.904C242.63 207.225 242.146 209.16 242.146 209.16C242.146 209.16 242.92 210.418 244.758 210.902C246.596 211.385 247.273 210.418 247.273 210.418C247.273 210.418 247.757 207.999 248.144 206.258C248.337 204.71 248.434 202.388 246.596 202.098Z" fill="#F27C1D"/>
<path d="M251.046 201.324C251.046 201.324 249.789 200.26 249.111 200.647L247.66 201.421C247.66 201.421 249.015 201.614 249.402 202.388C249.402 202.485 250.853 202.388 251.046 201.324Z" fill="#5D7ABA"/>
<path d="M256.851 200.163C256.851 200.163 256.561 198.422 255.69 198.228C254.819 198.035 254.142 198.422 254.142 198.422C254.142 198.422 254.819 199.486 254.916 200.26L256.851 200.163Z" fill="#5D7ABA"/>
<path d="M255.013 199.97C252.497 200.647 249.498 201.711 248.918 203.356C248.241 204.904 247.08 215.062 248.531 216.997C249.982 218.931 251.82 219.512 253.465 219.415C255.109 219.318 259.85 217.384 261.108 215.062C262.365 212.74 260.721 198.422 255.013 199.97Z" fill="#7FA8E6"/>
<path d="M254.142 212.74C254.142 212.74 254.432 216.126 254.529 216.997C254.626 217.771 259.27 215.739 260.237 214.288C260.817 213.32 260.43 210.418 260.237 209.838C260.043 209.16 254.723 211.676 254.142 212.74Z" fill="#6F89D1"/>
<path d="M249.015 202.969C248.918 203.065 248.918 203.162 248.821 203.259C248.144 204.807 246.983 214.965 248.434 216.9C249.402 218.157 250.466 218.835 251.433 219.125C252.594 219.318 253.175 218.351 253.175 216.9C253.078 215.449 252.498 209.838 251.82 206.548C251.24 203.259 249.982 202.582 249.015 202.969Z" fill="#6F89D1"/>
<path d="M251.917 206.548C252.014 207.225 252.594 208.386 254.916 207.903C257.238 207.419 259.463 206.355 260.043 205.581C260.043 205.581 259.656 207.032 256.754 208.193C253.949 209.257 252.111 209.16 251.917 206.548Z" fill="#5D7ABA"/>
<path d="M133.601 157.402C132.924 157.209 132.44 156.822 131.473 156.628C130.602 156.435 130.118 156.338 129.345 155.951C128.667 155.564 127.797 154.5 126.636 152.468C125.281 150.05 124.507 147.341 124.217 145.793C123.637 142.407 124.217 138.731 124.411 137.183C124.604 135.345 124.894 133.797 123.927 133.313C122.863 132.733 121.702 132.926 120.831 135.635C120.057 138.15 119.961 142.697 120.638 146.18C120.928 147.921 121.412 150.05 123.25 153.049C124.701 155.371 125.281 156.048 126.926 157.886C127.41 158.37 127.603 158.853 128.377 159.918C129.151 160.982 130.215 162.046 131.183 162.433C132.15 162.917 132.634 162.917 132.731 162.723C132.924 162.53 132.827 162.239 132.44 162.046C132.053 161.756 131.279 161.466 130.602 160.595C130.602 160.595 131.473 161.175 132.053 161.466C132.634 161.756 133.214 161.949 133.698 162.046C134.278 162.143 134.859 161.562 134.472 161.369C134.085 161.079 133.601 160.982 132.827 160.498C132.053 160.111 131.57 159.627 131.57 159.627C131.57 159.627 132.537 160.111 133.408 160.305C134.278 160.498 134.665 160.498 134.956 160.401C135.246 160.305 135.439 159.918 134.859 159.627C134.375 159.434 133.601 159.337 132.731 158.757C132.053 158.37 131.666 157.886 131.86 157.886C132.053 157.886 132.344 158.079 133.021 158.176C133.698 158.273 134.375 157.886 134.375 157.596C134.375 157.402 134.182 157.596 133.601 157.402Z" fill="#F0C6AA"/>
<path d="M123.25 132.829C122.476 132.442 121.218 133.216 120.831 134.571C120.444 136.215 119.864 139.118 119.864 140.859C119.864 140.859 121.412 142.504 124.12 141.827C124.217 140.956 124.701 137.86 124.701 136.022C124.798 133.894 124.217 133.216 123.25 132.829Z" fill="#F5FBFB"/>
</g>
<defs>
<linearGradient id="paint0_linear" x1="322.665" y1="111.079" x2="244.176" y2="111.079" gradientUnits="userSpaceOnUse">
<stop stop-color="#2B3D89"/>
<stop offset="0.0216393" stop-color="#30418C"/>
<stop offset="0.0467221" stop-color="#3E4E93"/>
<stop offset="0.0735325" stop-color="#5564A0"/>
<stop offset="0.1015" stop-color="#7681B3"/>
<stop offset="0.1305" stop-color="#A0A8CA"/>
<stop offset="0.1599" stop-color="#D2D6E6"/>
<stop offset="0.1828" stop-color="white"/>
</linearGradient>
<linearGradient id="paint1_linear" x1="318.827" y1="151.692" x2="356.809" y2="151.692" gradientUnits="userSpaceOnUse">
<stop stop-color="#2B3D89"/>
<stop offset="0.0275906" stop-color="#52609F"/>
<stop offset="0.0651244" stop-color="#7F8AB8"/>
<stop offset="0.1041" stop-color="#A7AECE"/>
<stop offset="0.1441" stop-color="#C7CBE0"/>
<stop offset="0.1853" stop-color="#E0E2ED"/>
<stop offset="0.2283" stop-color="#F1F2F7"/>
<stop offset="0.2742" stop-color="#FCFCFD"/>
<stop offset="0.328" stop-color="white"/>
</linearGradient>
<linearGradient id="paint2_linear" x1="198.939" y1="121.466" x2="218.242" y2="30.2326" gradientUnits="userSpaceOnUse">
<stop stop-color="#9AACBD"/>
<stop offset="0.0936659" stop-color="#ADBCCA"/>
<stop offset="0.3324" stop-color="#D9E0E6"/>
<stop offset="0.518" stop-color="#F5F7F8"/>
<stop offset="0.6263" stop-color="white"/>
<stop offset="0.6613" stop-color="#F3F5F7"/>
<stop offset="0.8158" stop-color="#C2CDD7"/>
<stop offset="0.9336" stop-color="#A4B4C3"/>
<stop offset="1" stop-color="#99ABBC"/>
</linearGradient>
<linearGradient id="paint3_linear" x1="196.637" y1="121.303" x2="215.94" y2="30.0695" gradientUnits="userSpaceOnUse">
<stop stop-color="#9AACBD"/>
<stop offset="0.0936659" stop-color="#ADBCCA"/>
<stop offset="0.3324" stop-color="#D9E0E6"/>
<stop offset="0.518" stop-color="#F5F7F8"/>
<stop offset="0.6263" stop-color="white"/>
<stop offset="0.6613" stop-color="#F3F5F7"/>
<stop offset="0.8158" stop-color="#C2CDD7"/>
<stop offset="0.9336" stop-color="#A4B4C3"/>
<stop offset="1" stop-color="#99ABBC"/>
</linearGradient>
<linearGradient id="paint4_linear" x1="194.335" y1="121.141" x2="213.638" y2="29.9066" gradientUnits="userSpaceOnUse">
<stop stop-color="#9AACBD"/>
<stop offset="0.0936659" stop-color="#ADBCCA"/>
<stop offset="0.3324" stop-color="#D9E0E6"/>
<stop offset="0.518" stop-color="#F5F7F8"/>
<stop offset="0.6263" stop-color="white"/>
<stop offset="0.6613" stop-color="#F3F5F7"/>
<stop offset="0.8158" stop-color="#C2CDD7"/>
<stop offset="0.9336" stop-color="#A4B4C3"/>
<stop offset="1" stop-color="#99ABBC"/>
</linearGradient>
<linearGradient id="paint5_linear" x1="200.933" y1="134.297" x2="203.446" y2="122.42" gradientUnits="userSpaceOnUse">
<stop stop-color="#E9AE4A"/>
<stop offset="0.1602" stop-color="#E7A740"/>
<stop offset="0.6898" stop-color="#E29325"/>
<stop offset="1" stop-color="#E08B1B"/>
</linearGradient>
<linearGradient id="paint6_linear" x1="203.699" y1="130.096" x2="205.308" y2="122.49" gradientUnits="userSpaceOnUse">
<stop stop-color="#9AACBD"/>
<stop offset="0.0936659" stop-color="#ADBCCA"/>
<stop offset="0.3324" stop-color="#D9E0E6"/>
<stop offset="0.518" stop-color="#F5F7F8"/>
<stop offset="0.6263" stop-color="white"/>
<stop offset="0.6613" stop-color="#F3F5F7"/>
<stop offset="0.8158" stop-color="#C2CDD7"/>
<stop offset="0.9336" stop-color="#A4B4C3"/>
<stop offset="1" stop-color="#99ABBC"/>
</linearGradient>
<linearGradient id="paint7_linear" x1="199.893" y1="129.705" x2="201.455" y2="122.323" gradientUnits="userSpaceOnUse">
<stop stop-color="#9AACBD"/>
<stop offset="0.0936659" stop-color="#ADBCCA"/>
<stop offset="0.3324" stop-color="#D9E0E6"/>
<stop offset="0.518" stop-color="#F5F7F8"/>
<stop offset="0.6263" stop-color="white"/>
<stop offset="0.6613" stop-color="#F3F5F7"/>
<stop offset="0.8158" stop-color="#C2CDD7"/>
<stop offset="0.9336" stop-color="#A4B4C3"/>
<stop offset="1" stop-color="#99ABBC"/>
</linearGradient>
<linearGradient id="paint8_linear" x1="201.913" y1="129.97" x2="203.508" y2="122.433" gradientUnits="userSpaceOnUse">
<stop stop-color="#9AACBD"/>
<stop offset="0.0936659" stop-color="#ADBCCA"/>
<stop offset="0.3324" stop-color="#D9E0E6"/>
<stop offset="0.518" stop-color="#F5F7F8"/>
<stop offset="0.6263" stop-color="white"/>
<stop offset="0.6613" stop-color="#F3F5F7"/>
<stop offset="0.8158" stop-color="#C2CDD7"/>
<stop offset="0.9336" stop-color="#A4B4C3"/>
<stop offset="1" stop-color="#99ABBC"/>
</linearGradient>
<clipPath id="clip0">
<rect width="400.803" height="300.39" fill="white"/>
</clipPath>
</defs>
</svg>
