<svg width="22" height="23" viewBox="0 0 22 23" fill="none" xmlns="http://www.w3.org/2000/svg">
<g clip-path="url(#clip0)">
<path d="M13.2962 16.6136C14.465 16.3478 15.5815 15.8858 16.5962 15.2478C17.3607 14.7363 17.566 13.7023 17.0545 12.9378C16.5632 12.2026 15.5842 11.9808 14.8225 12.4309C12.485 13.893 9.51497 13.893 7.17747 12.4309C6.40105 11.9414 5.37622 12.1742 4.8858 12.9488C4.8858 12.9506 4.8858 12.9525 4.88397 12.9534C4.39447 13.7298 4.6273 14.7555 5.40372 15.245L5.40555 15.2469C6.41847 15.884 7.53405 16.3469 8.70188 16.6109L5.52563 19.7871C4.87755 20.4242 4.86563 21.4646 5.49997 22.1127L5.52747 22.1402C5.8428 22.4647 6.26997 22.626 6.6953 22.626C7.12155 22.626 7.5478 22.4647 7.86405 22.1402L11 19.0199L14.1203 22.142C14.7803 22.7791 15.8345 22.7617 16.4725 22.1008C17.094 21.4564 17.094 20.4343 16.4725 19.7908L13.2962 16.6136ZM11 11.9826C14.135 11.979 16.6741 9.43979 16.6787 6.3057C16.6787 3.17529 14.1304 0.626953 11 0.626953C7.86955 0.626953 5.32122 3.17529 5.32122 6.30754C5.3258 9.44254 7.86588 11.9817 11 11.9835V11.9826ZM11 3.95537C12.298 3.9572 13.3494 5.00954 13.3503 6.30662C13.3503 7.60462 12.298 8.65604 11 8.65787C9.70288 8.65604 8.65147 7.60554 8.64872 6.30754C8.65055 5.00862 9.70288 3.9572 11 3.95445V3.95537Z" fill="#3760FB"/>
</g>
<defs>
<clipPath id="clip0">
<rect width="22" height="22" fill="white" transform="translate(0 0.626953)"/>
</clipPath>
</defs>
</svg>
