<svg width="1440" height="574" viewBox="0 0 1440 574" fill="none" xmlns="http://www.w3.org/2000/svg">
<rect width="1440" height="574" fill="#EFF5FF"/>
<mask id="mask0" mask-type="alpha" maskUnits="userSpaceOnUse" x="0" y="0" width="1440" height="574">
<rect width="1440" height="574" fill="#EFF5FF"/>
</mask>
<g mask="url(#mask0)">
<g opacity="0.12">
<path d="M719.999 348.581C732.171 334.838 747.223 328.817 765.547 332.351C790.153 337.063 804.027 358.266 799.97 384.574C796.567 406.694 775.887 422.138 752.72 420.306C739.37 419.259 729.03 412.977 719.999 403.553C719.999 385.229 719.999 366.905 719.999 348.581ZM755.469 391.904C765.285 392.297 771.96 386.538 772.484 376.983C773.007 366.905 767.117 359.968 757.301 359.444C747.746 358.921 740.417 365.596 740.155 375.151C739.762 384.836 745.914 391.511 755.469 391.904Z" fill="#A4C6FF"/>
<path d="M1144.07 41C1150.09 49.5076 1155.98 58.146 1156.76 69.0095C1158.2 86.9408 1152.84 102.124 1137.39 111.809C1121.29 121.887 1104.02 121.887 1087.92 111.809C1072.34 102.124 1067.11 86.8099 1068.55 69.0095C1069.33 58.146 1075.22 49.5076 1081.37 41C1102.18 41 1123.13 41 1144.07 41ZM1112.39 90.6056C1122.34 90.7365 1128.75 84.3231 1128.75 74.3758C1128.62 64.6903 1122.34 58.4078 1112.79 58.2769C1103.23 58.146 1096.69 64.4285 1096.43 73.9832C1096.29 83.9305 1102.45 90.4747 1112.39 90.6056Z" fill="#A4C6FF"/>
<path d="M781.516 41.001C785.573 52.388 786.227 63.9059 781.646 75.293C777.982 84.5859 770.259 88.5124 762.145 85.2403C754.815 82.3608 751.935 74.3768 755.077 65.4766C758.48 55.791 755.6 48.7232 746.438 44.6658C737.669 40.7392 730.994 43.3569 725.627 51.9954C724.188 54.2204 721.963 55.9219 719.999 57.8852C719.999 52.388 719.999 46.6291 719.999 41.001C740.548 41.001 760.967 41.001 781.516 41.001Z" fill="#A4C6FF"/>
<path d="M719.999 152.253C727.852 154.74 735.705 157.095 743.558 159.582C753.505 162.724 757.955 169.66 755.599 178.43C753.374 186.676 745.129 190.209 735.05 187.461C730.077 186.152 725.103 184.843 719.999 183.534C719.999 173.194 719.999 162.724 719.999 152.253Z" fill="#A4C6FF"/>
<path d="M1004.02 41C1003.89 46.8898 1004.02 52.6488 1003.76 58.5387C1003.37 68.3551 997.869 74.114 989.099 74.114C980.199 74.114 974.833 68.486 974.702 58.5387C974.571 52.7797 974.964 46.8898 975.225 41C984.78 41 994.466 41 1004.02 41Z" fill="#A4C6FF"/>
<path d="M1250.08 41C1247.07 48.3296 1242.1 52.1253 1235.56 51.4708C1229.01 50.9473 1224.04 48.0678 1222.6 41C1231.76 41 1240.92 41 1250.08 41Z" fill="#A4C6FF"/>
<path d="M1035.04 365.334C1047.34 367.559 1060.82 370.046 1074.31 372.533C1085.17 374.496 1096.16 376.59 1107.03 378.554C1121.16 381.171 1125.74 393.737 1116.32 404.862C1101.01 422.924 1085.43 440.986 1070.12 459.048C1062.66 467.818 1049.31 466.64 1045.12 456.038C1038.84 440.332 1033.34 424.233 1027.58 408.265C1024.83 400.543 1022.08 392.689 1019.6 384.836C1016.59 374.496 1023.39 365.334 1035.04 365.334ZM1063.7 420.961C1069.07 414.678 1073.52 409.443 1078.63 403.422C1070.77 401.982 1063.83 400.804 1056.11 399.365C1058.73 406.956 1061.09 413.369 1063.7 420.961Z" fill="#A4C6FF"/>
<path d="M818.163 667.025C805.467 667.549 797.745 658.125 801.54 647.654C810.048 624.095 818.817 600.666 827.979 577.369C831.906 567.291 845.125 564.804 852.193 573.05C868.685 592.421 884.784 612.184 900.621 632.079C906.903 640.063 902.584 652.628 892.637 654.46C867.376 659.172 841.984 663.099 818.163 667.025ZM838.319 633.78C846.565 632.341 853.109 631.163 860.832 629.854C855.465 623.571 851.146 618.336 846.303 612.446C843.424 619.907 841.199 626.189 838.319 633.78Z" fill="#A4C6FF"/>
<path d="M990.801 125.421C1000.88 125.552 1006.11 130.395 1007.69 139.949C1010.43 156.441 1013.18 173.063 1015.8 189.555C1016.85 196.23 1017.89 202.905 1019.07 209.581C1021.3 222.146 1011.22 231.308 999.308 226.988C976.404 218.743 953.499 210.104 930.855 201.335C918.552 196.492 916.72 183.273 926.929 174.765C945.384 159.451 963.969 144.269 982.555 129.348C985.566 127.123 989.23 126.206 990.801 125.421ZM982.293 167.828C976.011 173.063 970.775 177.383 964.755 182.487C972.215 185.367 978.629 187.723 985.958 190.471C984.78 182.749 983.733 176.074 982.293 167.828Z" fill="#A4C6FF"/>
<path d="M1362.38 185.759C1363.56 186.021 1366.05 186.545 1368.54 187.461C1390.53 195.707 1412.51 204.083 1434.5 212.591C1447.07 217.434 1449.03 230.915 1438.43 239.422C1420.37 254.082 1402.31 268.872 1384.24 283.531C1372.59 292.955 1360.42 288.504 1357.93 273.714C1354.14 251.202 1350.47 228.559 1346.94 206.047C1344.98 193.482 1350.47 185.759 1362.38 185.759ZM1383.72 245.574C1389.61 240.731 1394.98 236.412 1401 231.438C1393.67 228.559 1387.25 226.203 1379.79 223.323C1380.84 230.522 1381.76 236.281 1382.67 242.04C1382.8 242.825 1383.06 243.611 1383.72 245.574Z" fill="#A4C6FF"/>
<path d="M1352.7 563.364C1378.48 563.626 1397.07 582.604 1396.81 608.389C1396.55 633.911 1377.17 652.759 1351.65 652.366C1326.39 651.974 1307.67 632.995 1307.81 607.603C1307.81 582.081 1327.18 563.102 1352.7 563.364ZM1352.44 591.766C1342.62 591.635 1336.34 597.656 1336.21 607.342C1335.95 617.289 1342.23 623.964 1352.18 624.095C1361.73 624.226 1368.27 617.813 1368.54 608.389C1368.67 598.311 1362.38 591.766 1352.44 591.766Z" fill="#A4C6FF"/>
<path d="M979.021 618.205C979.021 592.944 997.869 573.966 1023.13 573.835C1048.65 573.704 1067.76 592.682 1067.89 618.205C1068.02 643.728 1048.91 662.968 1023.52 662.837C997.869 662.706 979.021 643.859 979.021 618.205ZM1023.52 602.237C1013.57 602.237 1006.9 608.781 1007.16 618.598C1007.29 628.152 1013.71 634.435 1023.26 634.566C1033.21 634.697 1039.62 628.283 1039.49 618.205C1039.36 608.52 1033.21 602.237 1023.52 602.237Z" fill="#A4C6FF"/>
<path d="M1221.29 320.833C1246.81 320.833 1265.66 339.288 1265.79 364.811C1266.05 390.333 1246.94 409.574 1221.29 409.574C1195.77 409.574 1176.79 390.857 1176.79 365.465C1176.79 339.681 1195.51 320.833 1221.29 320.833ZM1221.42 381.171C1231.11 381.171 1237.39 374.889 1237.52 365.334C1237.65 355.518 1230.98 348.843 1221.29 348.974C1211.74 349.105 1205.32 355.387 1205.19 364.942C1205.06 374.758 1211.47 381.171 1221.42 381.171Z" fill="#A4C6FF"/>
<path d="M1121.69 523.182C1121.82 499.361 1138.96 481.953 1164.35 479.859C1186.21 478.027 1205.85 493.471 1209.77 515.591C1211.47 525.407 1207.42 532.344 1198.91 534.046C1190.79 535.616 1184.38 530.774 1182.16 521.481C1179.41 510.094 1169.98 505.12 1159.38 509.701C1152.44 512.711 1149.83 517.423 1150.35 526.585C1150.87 536.925 1143.28 544.124 1133.6 542.292C1125.48 540.852 1121.56 534.569 1121.69 523.182Z" fill="#A4C6FF"/>
<path d="M1452.57 485.094C1470.23 486.403 1484.5 495.696 1492.09 513.497C1499.42 530.512 1496.02 546.349 1483.59 559.961C1477.3 566.898 1468.8 567.552 1462.64 562.055C1456.62 556.558 1456.49 548.443 1462.51 540.983C1469.06 532.868 1468.93 525.145 1461.99 518.47C1455.31 511.926 1447.59 511.795 1439.87 518.209C1432.67 524.229 1424.29 524.098 1418.8 518.078C1413.3 511.926 1414.09 503.549 1420.76 497.136C1429.27 489.283 1439.35 485.356 1452.57 485.094Z" fill="#A4C6FF"/>
<path d="M1233.2 227.512C1217.49 226.988 1203.75 219.004 1194.98 203.691C1186.74 189.293 1187.39 174.372 1196.16 160.237C1198.52 156.31 1202.97 152.776 1207.29 151.075C1212.65 148.981 1218.15 151.467 1221.55 156.441C1225.35 161.807 1224.95 167.305 1221.55 172.933C1215.92 182.356 1216.97 189.162 1224.69 195.314C1232.28 201.204 1240.27 200.549 1246.68 193.22C1253.62 185.367 1261.6 184.189 1268.28 189.948C1274.69 195.576 1274.69 204.083 1268.02 211.937C1259.25 222.015 1248.51 227.381 1233.2 227.512Z" fill="#A4C6FF"/>
<path d="M924.573 357.089C924.573 386.407 900.228 406.825 872.088 401.328C862.009 399.365 857.036 393.082 858.606 384.051C860.046 375.674 866.983 371.748 877.192 373.449C889.103 375.412 898.265 366.381 896.432 354.471C895.385 347.927 891.197 344.262 885.176 342.168C876.014 338.895 871.957 331.566 874.836 323.451C877.454 315.86 885.307 312.587 894.207 315.467C913.186 321.619 924.573 337.063 924.573 357.089Z" fill="#A4C6FF"/>
<path d="M1368.27 370.57C1371.15 366.774 1373.25 361.67 1377.04 359.444C1394.58 349.759 1412.38 340.597 1430.31 331.697C1437.91 327.901 1446.28 331.173 1449.69 338.372C1453.22 345.571 1450.47 353.816 1443.01 357.743C1426.13 366.643 1409.11 375.543 1391.96 384.182C1380.97 389.941 1369.45 383.135 1368.27 370.57Z" fill="#A4C6FF"/>
<path d="M838.842 156.965C844.209 157.226 849.051 159.844 851.407 165.734C858.868 184.32 866.328 202.905 873.527 221.622C876.406 229.213 872.611 236.936 865.281 239.815C857.951 242.695 849.837 239.815 846.695 232.355C838.973 213.638 831.382 194.791 824.445 175.812C820.911 166.127 827.979 156.965 838.842 156.965Z" fill="#A4C6FF"/>
<path d="M942.766 504.335C942.766 517.423 932.426 523.968 921.955 519.648C914.495 516.638 907.296 512.973 899.967 509.57C889.888 504.858 879.81 500.277 869.732 495.565C860.963 491.377 857.821 483.655 861.355 475.802C864.889 468.079 873.135 465.2 881.773 469.127C898.789 476.849 915.804 484.833 932.819 492.686C939.101 495.304 942.635 499.623 942.766 504.335Z" fill="#A4C6FF"/>
<path d="M1085.17 334.445C1078.76 333.267 1073.65 330.911 1072.21 325.414C1071.03 320.833 1070.64 314.158 1073.13 310.886C1085.69 294.525 1099.17 278.819 1112.65 263.113C1117.5 257.485 1126.66 257.746 1132.29 262.589C1138.05 267.563 1139.22 276.07 1133.99 282.615C1123.91 295.18 1113.44 307.483 1103.1 319.786C1100.61 322.797 1098.39 326.2 1095.38 328.686C1092.5 331.042 1088.57 332.482 1085.17 334.445Z" fill="#A4C6FF"/>
<path d="M1287.39 495.696C1287.39 504.335 1287.39 513.104 1287.39 521.743C1287.39 531.166 1281.89 537.841 1273.51 538.103C1265.14 538.496 1258.85 532.344 1258.33 522.79C1257.55 503.68 1256.89 484.571 1256.37 465.462C1256.11 456.038 1260.95 450.803 1269.46 450.148C1278.09 449.494 1283.98 453.944 1284.9 463.106C1285.95 473.969 1285.95 484.833 1286.47 495.696C1286.86 495.696 1287.13 495.696 1287.39 495.696Z" fill="#A4C6FF"/>
<path d="M1303.62 133.012C1294.06 133.012 1284.51 133.143 1274.82 133.012C1265.66 132.882 1259.51 127.123 1259.51 118.746C1259.38 110.5 1265.53 104.087 1274.56 104.087C1293.93 103.825 1313.3 103.825 1332.67 104.087C1341.57 104.218 1347.86 110.631 1347.73 118.746C1347.59 127.253 1341.7 132.882 1332.41 133.012C1322.86 133.143 1313.3 133.012 1303.62 133.012Z" fill="#A4C6FF"/>
<path d="M1023.26 525.669C1015.01 525.538 1008.99 519.387 1008.99 511.141C1008.99 503.026 1015.28 496.743 1023.39 496.613C1031.64 496.613 1038.31 503.419 1038.05 511.664C1037.79 519.648 1031.38 525.8 1023.26 525.669Z" fill="#A4C6FF"/>
<path d="M1273.38 281.044C1273.51 272.929 1280.06 266.647 1288.17 266.908C1296.29 267.039 1302.57 273.584 1302.44 281.698C1302.31 289.682 1295.5 296.096 1287.52 295.965C1279.66 295.703 1273.25 289.028 1273.38 281.044Z" fill="#A4C6FF"/>
<path d="M1347.86 441.117C1355.97 441.117 1362.52 447.4 1362.65 455.514C1362.65 463.368 1355.84 470.174 1347.99 470.174C1339.74 470.174 1333.46 463.891 1333.46 455.645C1333.46 447.138 1339.48 441.117 1347.86 441.117Z" fill="#A4C6FF"/>
<path d="M761.096 266.385C761.227 274.892 755.206 280.782 746.83 280.913C738.584 281.044 732.171 274.892 732.04 266.647C731.909 258.793 738.584 251.987 746.437 251.857C754.421 251.726 760.965 258.27 761.096 266.385Z" fill="#A4C6FF"/>
<path d="M999.309 311.017C999.309 319.524 993.419 325.414 984.912 325.414C976.666 325.414 970.252 319.132 970.252 311.017C970.252 303.033 976.797 296.489 984.781 296.358C993.026 296.358 999.309 302.771 999.309 311.017Z" fill="#A4C6FF"/>
<path d="M777.065 514.282C768.819 514.151 762.799 508 762.799 499.623C762.93 491.246 769.081 485.225 777.458 485.356C785.311 485.487 791.986 492.293 791.986 500.146C791.855 507.869 785.049 514.282 777.065 514.282Z" fill="#A4C6FF"/>
<path d="M884.129 72.1507C892.375 72.2816 898.396 78.4332 898.396 86.679C898.396 95.0557 891.59 101.6 883.475 101.338C875.622 101.076 869.208 94.1395 869.47 86.2864C869.47 78.1715 875.884 72.0198 884.129 72.1507Z" fill="#A4C6FF"/>
<path d="M1112.65 199.764C1104.54 199.764 1098.13 193.482 1098.13 185.498C1098.13 177.121 1104.67 170.577 1112.92 170.838C1120.9 170.969 1127.31 177.644 1127.18 185.498C1127.05 193.482 1120.64 199.764 1112.65 199.764Z" fill="#A4C6FF"/>
<path d="M1424.95 66.7844C1424.82 75.0302 1418.53 81.1818 1410.29 81.1818C1402.17 81.0509 1395.89 74.6376 1395.89 66.5227C1396.02 58.4077 1402.44 52.1252 1410.68 52.1252C1418.8 52.1252 1425.08 58.5386 1424.95 66.7844Z" fill="#A4C6FF"/>
<path d="M-65.3121 348.581C-53.1397 334.838 -38.0879 328.817 -19.7639 332.351C4.84256 337.063 18.7164 358.267 14.659 384.574C11.2559 406.694 -9.42396 422.139 -32.5907 420.306C-45.941 419.259 -56.281 412.977 -65.3121 403.553C-65.3121 385.229 -65.3121 366.905 -65.3121 348.581ZM-29.8421 391.904C-20.0257 392.297 -13.3505 386.538 -12.827 376.983C-12.3034 366.905 -18.1933 359.968 -28.0097 359.444C-37.5643 358.921 -44.8939 365.596 -45.1557 375.151C-45.5484 384.836 -39.3967 391.511 -29.8421 391.904Z" fill="#A4C6FF"/>
<path d="M358.758 41.0002C364.778 49.5078 370.668 58.1462 371.454 69.0097C372.893 86.9411 367.527 102.124 352.082 111.809C335.984 121.887 318.707 121.887 302.608 111.809C287.032 102.124 281.797 86.8102 283.237 69.0097C284.022 58.1462 289.912 49.5078 296.064 41.0002C316.874 41.0002 337.816 41.0002 358.758 41.0002ZM327.083 90.6059C337.031 90.7367 343.444 84.3234 343.444 74.3761C343.313 64.6905 337.031 58.408 327.476 58.2771C317.921 58.1462 311.377 64.4288 311.115 73.9834C310.984 83.9307 317.136 90.475 327.083 90.6059Z" fill="#A4C6FF"/>
<path d="M-3.79631 41.0017C0.261139 52.3887 0.915565 63.9067 -3.66543 75.2937C-7.33022 84.5866 -15.0525 88.5131 -23.1674 85.241C-30.497 82.3615 -33.3764 74.3775 -30.2352 65.4773C-26.8322 55.7918 -29.7116 48.724 -38.8736 44.6665C-47.643 40.7399 -54.3181 43.3576 -59.6844 51.9961C-61.1242 54.2211 -63.3492 55.9227 -65.3125 57.8859C-65.3125 52.3887 -65.3125 46.6298 -65.3125 41.0017C-44.7635 41.0017 -24.3453 41.0017 -3.79631 41.0017Z" fill="#A4C6FF"/>
<path d="M720.001 182.356C706.258 178.299 692.384 174.765 678.772 170.184C671.705 167.828 668.825 159.321 671.312 152.122C673.799 144.923 681.128 141.128 689.243 143.222C696.835 145.185 704.295 147.672 711.756 149.897C714.504 150.682 717.253 151.337 719.87 152.122C720.001 162.331 720.001 172.278 720.001 182.356Z" fill="#A4C6FF"/>
<path d="M218.709 41.0002C218.578 46.8901 218.709 52.6491 218.447 58.5389C218.055 68.3553 212.557 74.1143 203.788 74.1143C194.888 74.1143 189.522 68.4862 189.391 58.5389C189.26 52.7799 189.653 46.8901 189.914 41.0002C199.469 41.0002 209.154 41.0002 218.709 41.0002Z" fill="#A4C6FF"/>
<path d="M720 59.3242C704.948 63.7743 697.356 56.9683 699.058 41.0002C705.995 41.0002 713.063 41.0002 720 41.0002C720 47.1519 720 53.1726 720 59.3242Z" fill="#A4C6FF"/>
<path d="M720.002 400.935C709.138 390.203 709.531 360.622 720.002 351.199C720.002 367.821 720.002 384.313 720.002 400.935Z" fill="#A4C6FF"/>
<path d="M464.774 41.0002C461.764 48.3298 456.79 52.1255 450.246 51.4711C443.702 50.9475 438.728 48.0681 437.289 41.0002C446.45 41.0002 455.612 41.0002 464.774 41.0002Z" fill="#A4C6FF"/>
<path d="M249.731 365.334C262.034 367.56 275.515 370.046 288.996 372.533C299.86 374.496 310.854 376.591 321.718 378.554C335.853 381.172 340.434 393.737 331.011 404.862C315.697 422.924 300.122 440.986 284.808 459.048C277.348 467.818 263.997 466.64 259.809 456.038C253.526 440.332 248.029 424.233 242.27 408.265C239.522 400.543 236.773 392.69 234.286 384.836C231.276 374.496 238.082 365.334 249.731 365.334ZM278.395 420.961C283.761 414.678 288.211 409.443 293.316 403.422C285.462 401.982 278.525 400.804 270.803 399.365C273.421 406.956 275.777 413.369 278.395 420.961Z" fill="#A4C6FF"/>
<path d="M32.8521 667.025C20.1562 667.549 12.434 658.125 16.2296 647.654C24.7372 624.095 33.5065 600.667 42.6685 577.369C46.5951 567.291 59.8145 564.804 66.8823 573.05C83.3739 592.421 99.4728 612.184 115.31 632.079C121.592 640.063 117.273 652.628 107.326 654.46C82.0651 659.172 56.6733 663.099 32.8521 667.025ZM53.0085 633.781C61.2543 632.341 67.7985 631.163 75.5208 629.854C70.1545 623.571 65.8353 618.336 60.9925 612.446C58.113 619.907 55.888 626.189 53.0085 633.781Z" fill="#A4C6FF"/>
<path d="M205.49 125.421C215.569 125.552 220.804 130.395 222.375 139.949C225.123 156.441 227.872 173.063 230.49 189.555C231.537 196.23 232.584 202.905 233.762 209.581C235.987 222.146 225.909 231.308 213.998 226.988C191.093 218.743 168.188 210.104 145.545 201.335C133.242 196.492 131.409 183.273 141.618 174.765C160.073 159.451 178.659 144.269 197.245 129.348C200.255 127.123 203.92 126.206 205.49 125.421ZM196.983 167.828C190.7 173.063 185.465 177.383 179.444 182.487C186.905 185.367 193.318 187.723 200.648 190.471C199.47 182.749 198.423 176.074 196.983 167.828Z" fill="#A4C6FF"/>
<path d="M577.074 185.759C578.252 186.021 580.739 186.545 583.226 187.461C605.215 195.707 627.203 204.083 649.192 212.591C661.757 217.434 663.72 230.915 653.119 239.422C635.056 254.082 616.994 268.872 598.932 283.531C587.283 292.955 575.111 288.504 572.624 273.714C568.828 251.202 565.164 228.559 561.63 206.047C559.666 193.482 565.164 185.759 577.074 185.759ZM598.408 245.574C604.298 240.731 609.665 236.412 615.685 231.438C608.356 228.559 601.942 226.203 594.482 223.323C595.529 230.522 596.445 236.281 597.361 242.04C597.492 242.825 597.754 243.611 598.408 245.574Z" fill="#A4C6FF"/>
<path d="M567.388 563.364C593.173 563.626 611.759 582.605 611.497 608.389C611.235 633.912 591.864 652.759 566.341 652.367C541.08 651.974 522.364 632.996 522.495 607.604C522.495 582.081 541.866 563.103 567.388 563.364ZM567.127 591.767C557.31 591.636 551.028 597.657 550.897 607.342C550.635 617.289 556.918 623.965 566.865 624.095C576.42 624.226 582.964 617.813 583.226 608.389C583.356 598.311 577.074 591.767 567.127 591.767Z" fill="#A4C6FF"/>
<path d="M193.711 618.205C193.711 592.944 212.558 573.966 237.819 573.835C263.342 573.704 282.451 592.683 282.582 618.205C282.713 643.728 263.603 662.968 238.212 662.837C212.558 662.706 193.711 643.859 193.711 618.205ZM238.212 602.237C228.264 602.237 221.589 608.782 221.851 618.598C221.982 628.153 228.395 634.435 237.95 634.566C247.897 634.697 254.311 628.283 254.18 618.205C254.049 608.52 247.897 602.237 238.212 602.237Z" fill="#A4C6FF"/>
<path d="M435.98 320.833C461.502 320.833 480.35 339.288 480.481 364.811C480.743 390.334 461.633 409.574 435.98 409.574C410.457 409.574 391.479 390.857 391.479 365.465C391.479 339.681 410.195 320.833 435.98 320.833ZM436.111 381.172C445.796 381.172 452.079 374.889 452.21 365.335C452.34 355.518 445.665 348.843 435.98 348.974C426.425 349.105 420.012 355.387 419.881 364.942C419.75 374.758 426.163 381.172 436.111 381.172Z" fill="#A4C6FF"/>
<path d="M336.375 523.182C336.506 499.361 353.652 481.953 379.044 479.859C400.902 478.027 420.535 493.471 424.461 515.591C426.163 525.407 422.105 532.344 413.598 534.046C405.483 535.617 399.069 530.774 396.844 521.481C394.096 510.094 384.672 505.12 374.07 509.701C367.133 512.712 364.516 517.423 365.039 526.585C365.563 536.925 357.971 544.124 348.286 542.292C340.171 540.852 336.244 534.569 336.375 523.182Z" fill="#A4C6FF"/>
<path d="M667.255 485.095C684.925 486.404 699.191 495.696 706.783 513.497C714.112 530.512 710.709 546.349 698.275 559.961C691.993 566.898 683.485 567.553 677.334 562.055C671.313 556.558 671.182 548.443 677.203 540.983C683.747 532.868 683.616 525.146 676.679 518.471C670.004 511.926 662.282 511.795 654.56 518.209C647.361 524.23 638.984 524.099 633.487 518.078C627.99 511.926 628.775 503.55 635.45 497.136C643.958 489.283 654.036 485.356 667.255 485.095Z" fill="#A4C6FF"/>
<path d="M447.891 227.512C432.185 226.988 418.442 219.004 409.672 203.691C401.426 189.293 402.081 174.372 410.85 160.237C413.206 156.31 417.656 152.776 421.975 151.075C427.342 148.981 432.839 151.467 436.242 156.441C440.038 161.807 439.645 167.305 436.242 172.933C430.614 182.356 431.661 189.162 439.383 195.314C446.975 201.204 454.959 200.549 461.372 193.22C468.309 185.367 476.293 184.189 482.968 189.948C489.382 195.576 489.382 204.083 482.706 211.937C473.937 222.015 463.204 227.381 447.891 227.512Z" fill="#A4C6FF"/>
<path d="M139.262 357.089C139.262 386.407 114.917 406.825 86.7766 401.328C76.6984 399.365 71.7248 393.082 73.2954 384.051C74.7351 375.674 81.6721 371.748 91.8811 373.449C103.792 375.413 112.954 366.382 111.121 354.471C110.074 347.927 105.886 344.262 99.8651 342.168C90.7032 338.896 86.6457 331.566 89.5252 323.451C92.1429 315.86 99.996 312.588 108.896 315.467C127.875 321.619 139.262 337.063 139.262 357.089Z" fill="#A4C6FF"/>
<path d="M582.965 370.57C585.844 366.774 587.938 361.67 591.734 359.445C609.273 349.759 627.073 340.597 645.004 331.697C652.596 327.901 660.972 331.174 664.375 338.372C667.909 345.571 665.161 353.817 657.7 357.743C640.816 366.644 623.801 375.544 606.655 384.182C595.66 389.941 584.143 383.135 582.965 370.57Z" fill="#A4C6FF"/>
<path d="M53.5312 156.965C58.8975 157.227 63.7403 159.844 66.0963 165.734C73.5567 184.32 81.0172 202.906 88.2159 221.622C91.0954 229.214 87.2997 236.936 79.9701 239.815C72.6405 242.695 64.5256 239.815 61.3844 232.355C53.6621 213.638 46.0708 194.791 39.1338 175.812C35.5999 166.127 42.6677 156.965 53.5312 156.965Z" fill="#A4C6FF"/>
<path d="M157.457 504.335C157.457 517.423 147.117 523.968 136.646 519.648C129.186 516.638 121.987 512.973 114.657 509.57C104.579 504.858 94.5008 500.277 84.4226 495.566C75.6533 491.377 72.5121 483.655 76.046 475.802C79.5799 468.08 87.8257 465.2 96.4641 469.127C113.479 476.849 130.494 484.833 147.509 492.686C153.792 495.304 157.326 499.623 157.457 504.335Z" fill="#A4C6FF"/>
<path d="M299.859 334.445C293.445 333.267 288.341 330.911 286.901 325.414C285.723 320.833 285.331 314.158 287.817 310.886C300.382 294.525 313.864 278.819 327.345 263.113C332.188 257.485 341.35 257.746 346.978 262.589C352.737 267.563 353.915 276.07 348.679 282.615C338.601 295.18 328.13 307.483 317.79 319.786C315.303 322.797 313.078 326.2 310.068 328.686C307.188 331.042 303.262 332.482 299.859 334.445Z" fill="#A4C6FF"/>
<path d="M502.075 495.696C502.075 504.335 502.075 513.104 502.075 521.743C502.075 531.166 496.578 537.842 488.201 538.103C479.825 538.496 473.542 532.344 473.019 522.79C472.233 503.68 471.579 484.571 471.055 465.462C470.793 456.038 475.636 450.803 484.144 450.148C492.782 449.494 498.672 453.944 499.588 463.106C500.635 473.969 500.635 484.833 501.159 495.696C501.552 495.696 501.813 495.696 502.075 495.696Z" fill="#A4C6FF"/>
<path d="M518.306 133.013C508.752 133.013 499.197 133.144 489.512 133.013C480.35 132.882 474.198 127.123 474.198 118.746C474.067 110.5 480.219 104.087 489.25 104.087C508.621 103.825 527.992 103.825 547.363 104.087C556.263 104.218 562.546 110.631 562.415 118.746C562.284 127.254 556.394 132.882 547.101 133.013C537.547 133.144 527.992 133.013 518.306 133.013Z" fill="#A4C6FF"/>
<path d="M237.95 525.669C229.705 525.538 223.684 519.387 223.684 511.141C223.684 503.026 229.966 496.744 238.081 496.613C246.327 496.613 253.002 503.419 252.74 511.664C252.479 519.648 246.065 525.8 237.95 525.669Z" fill="#A4C6FF"/>
<path d="M488.07 281.044C488.201 272.929 494.746 266.647 502.861 266.909C510.975 267.04 517.258 273.584 517.127 281.699C516.996 289.683 510.19 296.096 502.206 295.965C494.353 295.703 487.939 289.028 488.07 281.044Z" fill="#A4C6FF"/>
<path d="M562.544 441.117C570.659 441.117 577.204 447.4 577.334 455.515C577.334 463.368 570.528 470.174 562.675 470.174C554.429 470.174 548.147 463.891 548.147 455.645C548.147 447.138 554.168 441.117 562.544 441.117Z" fill="#A4C6FF"/>
<path d="M213.999 311.017C213.999 319.524 208.109 325.414 199.601 325.414C191.356 325.414 184.942 319.132 184.942 311.017C184.942 303.033 191.487 296.489 199.471 296.358C207.716 296.358 213.999 302.771 213.999 311.017Z" fill="#A4C6FF"/>
<path d="M-8.24367 514.282C-16.4895 514.152 -22.5102 508 -22.5102 499.623C-22.3793 491.247 -16.2277 485.226 -7.85101 485.357C0.00211906 485.488 6.67728 492.294 6.67728 500.147C6.54639 507.869 -0.259657 514.282 -8.24367 514.282Z" fill="#A4C6FF"/>
<path d="M98.8206 72.151C107.066 72.2819 113.087 78.4335 113.087 86.6793C113.087 95.0559 106.281 101.6 98.1662 101.338C90.3131 101.077 83.8997 94.1397 84.1614 86.2866C84.1614 78.1717 90.5748 72.0201 98.8206 72.151Z" fill="#A4C6FF"/>
<path d="M327.344 199.764C319.229 199.764 312.815 193.482 312.815 185.498C312.815 177.121 319.36 170.577 327.605 170.838C335.589 170.969 342.003 177.644 341.872 185.498C341.741 193.482 335.328 199.764 327.344 199.764Z" fill="#A4C6FF"/>
<path d="M639.636 66.7847C639.505 75.0305 633.223 81.1821 624.977 81.1821C616.862 81.0512 610.58 74.6378 610.58 66.5229C610.71 58.408 617.124 52.1255 625.37 52.1255C633.484 52.1255 639.767 58.5389 639.636 66.7847Z" fill="#A4C6FF"/>
</g>
</g>
</svg>
