<svg width="48" height="48" viewBox="0 0 48 48" fill="none" xmlns="http://www.w3.org/2000/svg">
<path d="M47.9996 24.0773C47.9996 37.183 37.1079 48.0367 23.9274 47.9999C10.8208 47.926 -0.218243 37.183 0.00327713 23.5605C0.187877 10.8978 10.8947 -0.325061 24.6289 0.00719562C37.1817 0.302535 48.0731 10.824 47.9996 24.0773Z" fill="#FEF7E7"/>
<path d="M35.4521 19.2435C36.2644 19.9081 36.3013 20.8312 36.3013 21.7543C36.3013 26.0743 36.3382 30.3573 36.3013 34.6773C36.2644 37.3727 34.8982 38.7758 32.2029 38.7758C26.8121 38.8127 21.3845 38.8127 15.9569 38.7758C13.2984 38.7758 11.8584 37.2989 11.8584 34.6404C11.8215 27.9943 11.8215 21.3481 11.8584 14.7389C11.8584 12.3389 13.2246 10.7882 15.5138 10.7512C18.9476 10.6774 22.3814 10.7143 25.8521 10.7143C26.4798 10.7143 27.0706 10.862 27.4768 11.3789C26.4429 12.4128 26.4429 13.2251 27.7352 14.1851C29.729 15.662 31.2798 17.582 33.0521 19.2804C33.9013 20.2035 34.6398 20.2404 35.4521 19.2435Z" fill="#FBB725"/>
<path d="M35.4493 19.2437C35.0801 20.9421 34.4155 21.1637 33.197 20.056C30.9447 17.9883 28.9878 15.6621 26.5878 13.7791C25.4063 12.856 25.7017 12.1914 27.474 11.416C27.5847 11.4529 27.6586 11.4898 27.7324 11.6006C28.397 11.7114 28.9878 11.9698 29.5047 12.4498C31.1663 14.1483 32.8647 15.8098 34.5262 17.4714C35.0062 17.9513 35.1539 18.616 35.4493 19.2437Z" fill="#FBA307"/>
<path d="M35.4473 19.2065C32.9735 16.5481 30.5366 13.8896 27.7305 11.5635C29.1335 11.6004 30.5735 11.5266 31.9397 11.7112C34.192 12.0066 35.3366 13.4096 35.4473 15.6989C35.4473 16.8804 35.4104 18.025 35.4473 19.2065Z" fill="#FEDB2F"/>
<path d="M29.7266 20.6836H18.2806C17.5669 20.6836 16.9883 21.2622 16.9883 21.9759C16.9883 22.6896 17.5669 23.2682 18.2806 23.2682H29.7266C30.4403 23.2682 31.0189 22.6896 31.0189 21.9759C31.0189 21.2622 30.4403 20.6836 29.7266 20.6836Z" fill="#F78200"/>
<path d="M24.5575 25.8535H18.2806C17.5669 25.8535 16.9883 26.4321 16.9883 27.1458C16.9883 27.8595 17.5669 28.4381 18.2806 28.4381H24.5575C25.2712 28.4381 25.8498 27.8595 25.8498 27.1458C25.8498 26.4321 25.2712 25.8535 24.5575 25.8535Z" fill="#F78200"/>
</svg>
