<svg width="48" height="48" viewBox="0 0 48 48" fill="none" xmlns="http://www.w3.org/2000/svg">
<path d="M47.9985 24.1846C47.9985 37.0703 37.2544 48.1099 23.852 47.9992C10.5972 47.8884 -0.0730847 37.1072 0.000377055 23.8523C0.0746007 10.745 10.9664 -0.0730959 24.1473 0.000372008C37.1437 0.111513 48.1462 10.9296 47.9985 24.1846Z" fill="#EFF7FE"/>
<path d="M33.2308 14.4C35.557 14.9538 36.5539 16.0614 36.5539 18.3137C36.5908 23.1504 36.5908 28.0241 36.5539 32.8609C36.5169 35.3347 35.0031 36.8854 32.5293 36.9223C26.7693 36.9961 20.9725 36.9592 15.2125 36.9223C12.6648 36.8854 11.1141 35.2977 11.1141 32.7132C11.0771 26.6211 11.1141 20.5659 11.1141 14.4738C11.3356 14.363 11.5202 14.4 11.7048 14.5477C12.2218 15.323 13.0341 15.3599 13.8094 15.3599C17.4648 15.3969 21.1571 15.3599 24.8124 15.3599C25.8463 15.3599 26.7324 15.0646 27.397 14.2892C29.3539 14.2892 31.3108 14.1415 33.2308 14.4Z" fill="#379FFE"/>
<path d="M11.4438 14.4368H11.2961L11.1484 14.4737C11.2592 12.1476 11.85 11.5199 14.1023 11.5199C17.0192 11.5199 19.973 11.5569 22.8899 11.5199C24.0714 11.5199 25.3268 11.7045 25.8806 12.5907C26.9883 14.4368 28.6129 14.0675 30.2006 14.1414C31.2344 14.1783 32.2683 13.846 33.2652 14.3998C31.2714 14.4368 29.3144 14.4737 27.3206 14.5106C26.7668 14.9906 26.1022 15.0644 25.4376 15.0644C21.413 15.1014 17.3884 15.1014 13.3638 15.0644C12.6253 14.9906 11.9607 14.9167 11.4438 14.4368Z" fill="#79DEFE"/>
<path d="M11.4455 14.4369C16.7254 14.4369 22.0054 14.4739 27.3223 14.4739C27.3961 15.5077 26.9161 15.9138 25.9192 15.9138C21.5254 15.9138 17.0947 15.8769 12.7009 15.9138C11.5193 15.9507 11.3716 15.3231 11.4455 14.4369Z" fill="#1D90FE"/>
<path d="M30.4632 20.7137H26.0324C25.5226 20.7137 25.1094 21.1269 25.1094 21.6367C25.1094 22.1465 25.5226 22.5598 26.0324 22.5598H30.4632C30.973 22.5598 31.3862 22.1465 31.3862 21.6367C31.3862 21.1269 30.973 20.7137 30.4632 20.7137Z" fill="#0A5DFE"/>
<path d="M21.9697 29.2059H17.539C17.0292 29.2059 16.6159 29.6192 16.6159 30.129C16.6159 30.6388 17.0292 31.052 17.539 31.052H21.9697C22.4795 31.052 22.8928 30.6388 22.8928 30.129C22.8928 29.6192 22.4795 29.2059 21.9697 29.2059Z" fill="#0A5DFE"/>
<path d="M21.9697 26.2523H17.539C17.0292 26.2523 16.6159 26.6656 16.6159 27.1754C16.6159 27.6852 17.0292 28.0984 17.539 28.0984H21.9697C22.4795 28.0984 22.8928 27.6852 22.8928 27.1754C22.8928 26.6656 22.4795 26.2523 21.9697 26.2523Z" fill="#0A5DFE"/>
<path d="M30.4661 29.5656L27.3331 26.4327C26.9726 26.0722 26.3881 26.0722 26.0276 26.4327C25.6672 26.7932 25.6672 27.3776 26.0276 27.7381L29.1606 30.871C29.5211 31.2315 30.1056 31.2315 30.4661 30.871C30.8265 30.5106 30.8265 29.9261 30.4661 29.5656Z" fill="#0A5DFE"/>
<path d="M26.0248 29.5656L29.1578 26.4327C29.5183 26.0722 30.1028 26.0722 30.4633 26.4327C30.8237 26.7932 30.8237 27.3776 30.4633 27.7381L27.3303 30.871C26.9698 31.2315 26.3853 31.2315 26.0248 30.871C25.6644 30.5106 25.6644 29.9261 26.0248 29.5656Z" fill="#0A5DFE"/>
<path d="M21.9677 20.7135H17.537C17.0272 20.7135 16.6139 21.1267 16.6139 21.6365C16.6139 22.1463 17.0272 22.5596 17.537 22.5596H21.9677C22.4775 22.5596 22.8908 22.1463 22.8908 21.6365C22.8908 21.1267 22.4775 20.7135 21.9677 20.7135Z" fill="#0A5DFE"/>
<path d="M20.6751 23.8523V19.4217C20.6751 18.9119 20.2619 18.4986 19.7521 18.4986C19.2423 18.4986 18.829 18.9119 18.829 19.4217V23.8523C18.829 24.3621 19.2423 24.7754 19.7521 24.7754C20.2619 24.7754 20.6751 24.3621 20.6751 23.8523Z" fill="#0A5DFE"/>
</svg>
