<svg width="1440" height="1308" viewBox="0 0 1440 1308" fill="none" xmlns="http://www.w3.org/2000/svg">
<rect width="1440" height="1308" fill="#EFF5FF"/>
<mask id="mask0" mask-type="alpha" maskUnits="userSpaceOnUse" x="0" y="0" width="1440" height="1308">
<rect width="1440" height="1308" fill="#EFF5FF"/>
</mask>
<g mask="url(#mask0)">
<g opacity="0.12">
<path d="M719.999 290.581C732.171 276.838 747.223 270.817 765.547 274.351C790.153 279.063 804.027 300.266 799.97 326.574C796.567 348.694 775.887 364.139 752.72 362.306C739.37 361.259 729.03 354.977 719.999 345.553C719.999 327.229 719.999 308.905 719.999 290.581ZM755.469 333.904C765.285 334.297 771.96 328.538 772.484 318.983C773.007 308.905 767.117 301.968 757.301 301.444C747.746 300.921 740.417 307.596 740.155 317.151C739.762 326.836 745.914 333.511 755.469 333.904Z" fill="#B3CFFE"/>
<path d="M1144.07 -17C1150.09 -8.49244 1155.98 0.146008 1156.76 11.0095C1158.2 28.9408 1152.84 44.1236 1137.39 53.8091C1121.29 63.8873 1104.02 63.8873 1087.92 53.8091C1072.34 44.1236 1067.11 28.8099 1068.55 11.0095C1069.33 0.146008 1075.22 -8.49244 1081.37 -17C1102.18 -17 1123.13 -17 1144.07 -17ZM1112.39 32.6056C1122.34 32.7365 1128.75 26.3231 1128.75 16.3758C1128.62 6.69028 1122.34 0.407778 1112.79 0.276894C1103.23 0.146008 1096.69 6.42851 1096.43 15.9832C1096.29 25.9305 1102.45 32.4747 1112.39 32.6056Z" fill="#B3CFFE"/>
<path d="M781.516 -16.9991C785.573 -5.61201 786.227 5.90591 781.646 17.293C777.982 26.5858 770.259 30.5124 762.145 27.2402C754.815 24.3608 751.935 16.3768 755.077 7.47654C758.48 -2.20899 755.6 -9.27681 746.438 -13.3343C737.669 -17.2608 730.994 -14.6431 725.627 -6.00467C724.188 -3.77962 721.963 -2.0781 719.999 -0.114822C719.999 -5.61201 719.999 -11.371 719.999 -16.9991C740.548 -16.9991 760.967 -16.9991 781.516 -16.9991Z" fill="#B3CFFE"/>
<path d="M719.999 746.062C743.951 738.34 763.714 743.576 776.672 760.983C778.112 762.816 779.159 764.91 781.384 768.313C760.05 768.313 740.024 768.313 719.999 768.313C719.999 760.853 719.999 753.523 719.999 746.062Z" fill="#B3CFFE"/>
<path d="M719.999 94.2527C727.852 96.7395 735.705 99.0955 743.558 101.582C753.505 104.724 757.955 111.66 755.599 120.43C753.374 128.676 745.129 132.21 735.05 129.461C730.077 128.152 725.103 126.843 719.999 125.534C719.999 115.194 719.999 104.724 719.999 94.2527Z" fill="#B3CFFE"/>
<path d="M1004.02 -17C1003.89 -11.1102 1004.02 -5.35119 1003.76 0.53866C1003.37 10.3551 997.869 16.114 989.099 16.114C980.199 16.114 974.833 10.486 974.702 0.53866C974.571 -5.2203 974.964 -11.1102 975.225 -17C984.78 -17 994.466 -17 1004.02 -17Z" fill="#B3CFFE"/>
<path d="M719.999 569.367C728.899 570.938 734.92 577.482 732.956 585.466C729.161 600.649 724.449 615.701 719.999 630.883C719.999 610.334 719.999 589.916 719.999 569.367Z" fill="#B3CFFE"/>
<path d="M1035.04 307.334C1047.34 309.559 1060.82 312.046 1074.31 314.533C1085.17 316.496 1096.16 318.59 1107.03 320.554C1121.16 323.171 1125.74 335.737 1116.32 346.862C1101.01 364.924 1085.43 382.986 1070.12 401.048C1062.66 409.818 1049.31 408.64 1045.12 398.038C1038.84 382.332 1033.34 366.233 1027.58 350.265C1024.83 342.543 1022.08 334.689 1019.6 326.836C1016.59 316.496 1023.39 307.334 1035.04 307.334ZM1063.7 362.961C1069.07 356.678 1073.52 351.443 1078.63 345.422C1070.77 343.982 1063.83 342.804 1056.11 341.365C1058.73 348.956 1061.09 355.369 1063.7 362.961Z" fill="#B3CFFE"/>
<path d="M818.163 609.025C805.467 609.549 797.745 600.125 801.54 589.654C810.048 566.095 818.817 542.666 827.979 519.369C831.906 509.291 845.125 506.804 852.193 515.05C868.685 534.421 884.784 554.184 900.621 574.079C906.903 582.063 902.584 594.628 892.637 596.46C867.376 601.172 841.984 605.099 818.163 609.025ZM838.319 575.78C846.565 574.341 853.109 573.163 860.832 571.854C855.465 565.571 851.146 560.336 846.303 554.446C843.424 561.907 841.199 568.189 838.319 575.78Z" fill="#B3CFFE"/>
<path d="M990.801 67.4212C1000.88 67.5521 1006.11 72.3948 1007.69 81.9495C1010.43 98.441 1013.18 115.064 1015.8 131.555C1016.85 138.23 1017.89 144.905 1019.07 151.581C1021.3 164.146 1011.22 173.308 999.308 168.988C976.404 160.743 953.499 152.104 930.855 143.335C918.552 138.492 916.72 125.273 926.929 116.765C945.384 101.451 963.969 86.2687 982.555 71.3477C985.566 69.1227 989.23 68.2065 990.801 67.4212ZM982.293 109.828C976.011 115.064 970.775 119.383 964.755 124.487C972.215 127.367 978.629 129.723 985.958 132.471C984.78 124.749 983.733 118.074 982.293 109.828Z" fill="#B3CFFE"/>
<path d="M1333.46 663.997C1333.59 653.134 1342.75 646.066 1352.83 649.6C1376.52 657.846 1399.95 666.484 1423.38 675.384C1433.72 679.311 1435.94 692.923 1427.57 700.122C1408.85 716.09 1390 731.927 1371.02 747.502C1361.21 755.486 1348.9 751.167 1346.55 738.864C1341.97 714.912 1337.91 690.829 1333.72 666.877C1333.59 665.699 1333.59 664.521 1333.46 663.997ZM1367.23 686.248C1368.67 694.232 1369.71 700.907 1371.15 708.629C1377.31 703.525 1382.41 699.075 1388.56 693.97C1381.1 691.222 1374.82 688.996 1367.23 686.248Z" fill="#B3CFFE"/>
<path d="M1362.38 127.759C1363.56 128.021 1366.05 128.545 1368.54 129.461C1390.53 137.707 1412.51 146.083 1434.5 154.591C1447.07 159.434 1449.03 172.915 1438.43 181.422C1420.37 196.082 1402.31 210.872 1384.24 225.531C1372.59 234.955 1360.42 230.504 1357.93 215.714C1354.14 193.202 1350.47 170.559 1346.94 148.047C1344.98 135.482 1350.47 127.759 1362.38 127.759ZM1383.72 187.574C1389.61 182.731 1394.98 178.412 1401 173.438C1393.67 170.559 1387.25 168.203 1379.79 165.324C1380.84 172.522 1381.76 178.281 1382.67 184.04C1382.8 184.825 1383.06 185.611 1383.72 187.574Z" fill="#B3CFFE"/>
<path d="M1352.7 505.364C1378.48 505.626 1397.07 524.604 1396.81 550.389C1396.55 575.911 1377.17 594.759 1351.65 594.366C1326.39 593.974 1307.67 574.995 1307.81 549.603C1307.81 524.081 1327.18 505.102 1352.7 505.364ZM1352.44 533.766C1342.62 533.635 1336.34 539.656 1336.21 549.342C1335.95 559.289 1342.23 565.964 1352.18 566.095C1361.73 566.226 1368.27 559.813 1368.54 550.389C1368.67 540.311 1362.38 533.766 1352.44 533.766Z" fill="#B3CFFE"/>
<path d="M979.021 560.205C979.021 534.944 997.869 515.966 1023.13 515.835C1048.65 515.704 1067.76 534.682 1067.89 560.205C1068.02 585.728 1048.91 604.968 1023.52 604.837C997.869 604.706 979.021 585.859 979.021 560.205ZM1023.52 544.237C1013.57 544.237 1006.9 550.781 1007.16 560.598C1007.29 570.152 1013.71 576.435 1023.26 576.566C1033.21 576.697 1039.62 570.283 1039.49 560.205C1039.36 550.52 1033.21 544.237 1023.52 544.237Z" fill="#B3CFFE"/>
<path d="M1221.29 262.833C1246.81 262.833 1265.66 281.288 1265.79 306.811C1266.05 332.333 1246.94 351.574 1221.29 351.574C1195.77 351.574 1176.79 332.857 1176.79 307.465C1176.79 281.681 1195.51 262.833 1221.29 262.833ZM1221.42 323.171C1231.11 323.171 1237.39 316.889 1237.52 307.334C1237.65 297.518 1230.98 290.843 1221.29 290.974C1211.74 291.105 1205.32 297.387 1205.19 306.942C1205.06 316.758 1211.47 323.171 1221.42 323.171Z" fill="#B3CFFE"/>
<path d="M1121.69 465.182C1121.82 441.361 1138.96 423.953 1164.35 421.859C1186.21 420.027 1205.85 435.471 1209.77 457.591C1211.47 467.407 1207.42 474.344 1198.91 476.046C1190.79 477.616 1184.38 472.774 1182.16 463.481C1179.41 452.094 1169.98 447.12 1159.38 451.701C1152.44 454.711 1149.83 459.423 1150.35 468.585C1150.87 478.925 1143.28 486.124 1133.6 484.292C1125.48 482.852 1121.56 476.569 1121.69 465.182Z" fill="#B3CFFE"/>
<path d="M1452.57 427.095C1470.23 428.403 1484.5 437.696 1492.09 455.497C1499.42 472.512 1496.02 488.349 1483.59 501.961C1477.3 508.898 1468.8 509.552 1462.64 504.055C1456.62 498.558 1456.49 490.443 1462.51 482.983C1469.06 474.868 1468.93 467.146 1461.99 460.47C1455.31 453.926 1447.59 453.795 1439.87 460.209C1432.67 466.229 1424.29 466.098 1418.8 460.078C1413.3 453.926 1414.09 445.549 1420.76 439.136C1429.27 431.283 1439.35 427.356 1452.57 427.095Z" fill="#B3CFFE"/>
<path d="M1265.14 646.851C1264.22 663.474 1256.11 677.217 1240.27 685.724C1225.87 693.316 1211.21 692.138 1197.34 683.761C1189.48 679.049 1187.13 670.542 1191.45 663.605C1195.77 656.668 1203.62 654.966 1211.47 659.155C1220.77 664.128 1228.49 662.558 1233.59 654.705C1238.96 646.459 1237.65 639.26 1229.54 632.454C1222.21 626.302 1220.77 618.449 1225.74 611.905C1230.71 605.361 1239.22 604.314 1246.68 609.811C1258.59 618.711 1265.27 630.36 1265.14 646.851Z" fill="#B3CFFE"/>
<path d="M1233.2 169.512C1217.49 168.988 1203.75 161.004 1194.98 145.691C1186.74 131.293 1187.39 116.372 1196.16 102.237C1198.52 98.3101 1202.97 94.7762 1207.29 93.0747C1212.65 90.9806 1218.15 93.4674 1221.55 98.441C1225.35 103.807 1224.95 109.305 1221.55 114.933C1215.92 124.356 1216.97 131.162 1224.69 137.314C1232.28 143.204 1240.27 142.549 1246.68 135.22C1253.62 127.367 1261.6 126.189 1268.28 131.948C1274.69 137.576 1274.69 146.083 1268.02 153.936C1259.25 164.015 1248.51 169.381 1233.2 169.512Z" fill="#B3CFFE"/>
<path d="M924.573 299.089C924.573 328.407 900.228 348.825 872.088 343.328C862.009 341.364 857.036 335.082 858.606 326.051C860.046 317.674 866.983 313.748 877.192 315.449C889.103 317.412 898.265 308.381 896.432 296.471C895.385 289.927 891.197 286.262 885.176 284.168C876.014 280.895 871.957 273.566 874.836 265.451C877.454 257.86 885.307 254.587 894.207 257.467C913.186 263.619 924.573 279.063 924.573 299.089Z" fill="#B3CFFE"/>
<path d="M1368.27 312.57C1371.15 308.774 1373.25 303.67 1377.04 301.444C1394.58 291.759 1412.38 282.597 1430.31 273.697C1437.91 269.901 1446.28 273.173 1449.69 280.372C1453.22 287.571 1450.47 295.816 1443.01 299.743C1426.13 308.643 1409.11 317.543 1391.96 326.182C1380.97 331.941 1369.45 325.135 1368.27 312.57Z" fill="#B3CFFE"/>
<path d="M868.03 723.419C860.177 723.419 854.68 719.362 852.717 712.818C850.884 706.666 853.24 699.729 859.13 696.457C876.669 686.771 894.338 677.217 912.139 668.055C919.73 664.128 928.238 667.27 931.771 674.206C935.436 681.274 932.949 689.782 925.489 693.839C908.343 703.263 890.935 712.425 873.658 721.587C871.695 722.634 869.208 723.027 868.03 723.419Z" fill="#B3CFFE"/>
<path d="M838.842 98.9645C844.209 99.2263 849.051 101.844 851.407 107.734C858.868 126.32 866.328 144.905 873.527 163.622C876.406 171.213 872.611 178.936 865.281 181.815C857.951 184.695 849.837 181.815 846.695 174.355C838.973 155.638 831.382 136.79 824.445 117.812C820.911 108.127 827.979 98.9645 838.842 98.9645Z" fill="#B3CFFE"/>
<path d="M942.766 446.335C942.766 459.423 932.426 465.968 921.955 461.648C914.495 458.638 907.296 454.973 899.967 451.57C889.888 446.858 879.81 442.277 869.732 437.565C860.963 433.377 857.821 425.655 861.355 417.802C864.889 410.079 873.135 407.2 881.773 411.127C898.789 418.849 915.804 426.833 932.819 434.686C939.101 437.304 942.635 441.623 942.766 446.335Z" fill="#B3CFFE"/>
<path d="M1093.02 637.035C1096.03 637.166 1100.22 639.784 1102.97 644.757C1112 661.903 1121.16 678.918 1129.93 696.195C1134.12 704.31 1131.5 712.687 1124.44 716.482C1117.11 720.409 1108.6 717.66 1104.15 709.415C1095.25 692.792 1086.22 676.039 1077.58 659.155C1071.95 648.16 1078.63 636.773 1093.02 637.035Z" fill="#B3CFFE"/>
<path d="M1085.17 276.445C1078.76 275.267 1073.65 272.911 1072.21 267.414C1071.03 262.833 1070.64 256.158 1073.13 252.886C1085.69 236.525 1099.17 220.819 1112.65 205.113C1117.5 199.485 1126.66 199.746 1132.29 204.589C1138.05 209.563 1139.22 218.07 1133.99 224.615C1123.91 237.18 1113.44 249.483 1103.1 261.786C1100.61 264.797 1098.39 268.2 1095.38 270.686C1092.5 273.042 1088.57 274.482 1085.17 276.445Z" fill="#B3CFFE"/>
<path d="M1287.39 437.696C1287.39 446.335 1287.39 455.104 1287.39 463.743C1287.39 473.166 1281.89 479.841 1273.51 480.103C1265.14 480.496 1258.85 474.344 1258.33 464.79C1257.55 445.68 1256.89 426.571 1256.37 407.462C1256.11 398.038 1260.95 392.803 1269.46 392.148C1278.09 391.494 1283.98 395.944 1284.9 405.106C1285.95 415.969 1285.95 426.833 1286.47 437.696C1286.86 437.696 1287.13 437.696 1287.39 437.696Z" fill="#B3CFFE"/>
<path d="M1303.62 75.0125C1294.06 75.0125 1284.51 75.1434 1274.82 75.0125C1265.66 74.8816 1259.51 69.1227 1259.51 60.746C1259.38 52.5002 1265.53 46.0868 1274.56 46.0868C1293.93 45.8251 1313.3 45.8251 1332.67 46.0868C1341.57 46.2177 1347.86 52.6311 1347.73 60.746C1347.59 69.2536 1341.7 74.8816 1332.41 75.0125C1322.86 75.1434 1313.3 75.0125 1303.62 75.0125Z" fill="#B3CFFE"/>
<path d="M1003.76 767.92C993.942 767.92 984.911 767.92 974.702 767.92C974.702 761.507 974.702 755.094 974.702 748.68C974.702 741.874 974.571 735.199 974.833 728.393C975.094 719.624 980.722 713.603 988.706 713.21C996.821 712.949 1003.5 718.969 1003.76 727.869C1004.02 740.958 1003.76 754.047 1003.76 767.92Z" fill="#B3CFFE"/>
<path d="M768.557 699.729C760.312 699.729 753.898 693.577 753.898 685.463C753.767 677.348 760.181 670.934 768.296 670.803C776.28 670.672 782.955 677.086 783.086 685.201C783.086 693.054 776.672 699.598 768.557 699.729Z" fill="#B3CFFE"/>
<path d="M1023.26 467.669C1015.01 467.538 1008.99 461.387 1008.99 453.141C1008.99 445.026 1015.28 438.743 1023.39 438.613C1031.64 438.613 1038.31 445.419 1038.05 453.664C1037.79 461.648 1031.38 467.8 1023.26 467.669Z" fill="#B3CFFE"/>
<path d="M1273.38 223.044C1273.51 214.929 1280.06 208.647 1288.17 208.908C1296.29 209.039 1302.57 215.584 1302.44 223.698C1302.31 231.682 1295.5 238.096 1287.52 237.965C1279.66 237.703 1273.25 231.028 1273.38 223.044Z" fill="#B3CFFE"/>
<path d="M989.361 655.097C989.491 646.982 995.643 640.831 1003.89 640.831C1011.87 640.831 1018.42 647.244 1018.55 655.097C1018.68 663.212 1011.61 670.018 1003.5 669.756C995.381 669.625 989.361 663.343 989.361 655.097Z" fill="#B3CFFE"/>
<path d="M1347.86 383.117C1355.97 383.117 1362.52 389.4 1362.65 397.514C1362.65 405.368 1355.84 412.174 1347.99 412.174C1339.74 412.174 1333.46 405.891 1333.46 397.645C1333.46 389.138 1339.48 383.117 1347.86 383.117Z" fill="#B3CFFE"/>
<path d="M761.096 208.385C761.227 216.892 755.206 222.782 746.83 222.913C738.584 223.044 732.171 216.892 732.04 208.647C731.909 200.793 738.584 193.987 746.437 193.857C754.421 193.726 760.965 200.27 761.096 208.385Z" fill="#B3CFFE"/>
<path d="M999.309 253.017C999.309 261.524 993.419 267.414 984.912 267.414C976.666 267.414 970.252 261.132 970.252 253.017C970.252 245.033 976.797 238.489 984.781 238.358C993.026 238.358 999.309 244.771 999.309 253.017Z" fill="#B3CFFE"/>
<path d="M777.065 456.282C768.819 456.151 762.799 450 762.799 441.623C762.93 433.246 769.081 427.225 777.458 427.356C785.311 427.487 791.986 434.293 791.986 442.146C791.855 449.869 785.049 456.282 777.065 456.282Z" fill="#B3CFFE"/>
<path d="M1173.65 545.284C1181.89 545.415 1187.78 551.698 1187.65 560.074C1187.52 568.32 1181.11 574.472 1172.99 574.21C1164.88 573.948 1158.47 567.273 1158.73 559.289C1158.86 551.305 1165.4 545.153 1173.65 545.284Z" fill="#B3CFFE"/>
<path d="M884.129 14.1507C892.375 14.2816 898.396 20.4332 898.396 28.679C898.396 37.0557 891.59 43.6 883.475 43.3382C875.622 43.0764 869.208 36.1395 869.47 28.2864C869.47 20.1715 875.884 14.0198 884.129 14.1507Z" fill="#B3CFFE"/>
<path d="M1112.65 141.764C1104.54 141.764 1098.13 135.482 1098.13 127.498C1098.13 119.121 1104.67 112.577 1112.92 112.838C1120.9 112.969 1127.31 119.644 1127.18 127.498C1127.05 135.482 1120.64 141.764 1112.65 141.764Z" fill="#B3CFFE"/>
<path d="M1424.95 8.78448C1424.82 17.0303 1418.53 23.1819 1410.29 23.1819C1402.17 23.051 1395.89 16.6376 1395.89 8.52271C1396.02 0.40781 1402.44 -5.87469 1410.68 -5.87469C1418.8 -5.87469 1425.08 0.538696 1424.95 8.78448Z" fill="#B3CFFE"/>
<path d="M1140.93 767.92C1122.08 767.92 1103.49 767.92 1084.91 767.92C1091.58 755.617 1127.97 752.345 1140.93 767.92Z" fill="#B3CFFE"/>
<path d="M1222.21 767.659C1220.5 761.376 1222.47 756.403 1227.31 752.607C1232.28 748.811 1237.91 748.419 1243.28 751.56C1249.04 754.963 1251.52 760.329 1249.95 767.659C1241.05 767.659 1232.02 767.659 1222.21 767.659Z" fill="#B3CFFE"/>
<path d="M1219.2 781.271C1217.76 781.14 1216.97 781.14 1216.32 781.14C1216.71 780.878 1217.1 780.485 1217.63 780.355C1217.89 780.224 1218.15 780.616 1219.2 781.271Z" fill="#B3CFFE"/>
<path d="M-65.3121 290.581C-53.1397 276.838 -38.0879 270.817 -19.7639 274.351C4.84256 279.063 18.7164 300.266 14.659 326.574C11.2559 348.694 -9.42396 364.139 -32.5907 362.306C-45.941 361.259 -56.281 354.977 -65.3121 345.553C-65.3121 327.229 -65.3121 308.905 -65.3121 290.581ZM-29.8421 333.904C-20.0257 334.297 -13.3505 328.538 -12.827 318.983C-12.3034 308.905 -18.1933 301.968 -28.0097 301.444C-37.5643 300.921 -44.8939 307.596 -45.1557 317.151C-45.5484 326.836 -39.3967 333.511 -29.8421 333.904Z" fill="#B3CFFE"/>
<path d="M358.758 -16.9998C364.778 -8.49229 370.668 0.146156 371.454 11.0097C372.893 28.941 367.527 44.1237 352.082 53.8092C335.984 63.8874 318.707 63.8874 302.608 53.8092C287.032 44.1237 281.797 28.8101 283.237 11.0097C284.022 0.146156 289.912 -8.49229 296.064 -16.9998C316.874 -16.9998 337.816 -16.9998 358.758 -16.9998ZM327.083 32.6058C337.031 32.7367 343.444 26.3233 343.444 16.376C343.313 6.69043 337.031 0.407928 327.476 0.277042C317.921 0.146156 311.377 6.42866 311.115 15.9833C310.984 25.9306 317.136 32.4749 327.083 32.6058Z" fill="#B3CFFE"/>
<path d="M719.999 636.119C718.821 639.129 717.774 642.139 716.596 645.019C713.716 652.741 706.779 656.406 698.926 654.443C691.597 652.61 686.623 645.019 688.717 637.166C693.822 617.664 699.188 598.162 704.816 578.791C706.779 571.985 712.146 569.105 719.999 569.236C719.999 591.618 719.999 613.868 719.999 636.119Z" fill="#B3CFFE"/>
<path d="M-3.79631 -16.9984C0.261139 -5.61141 0.915565 5.90652 -3.66543 17.2936C-7.33022 26.5864 -15.0525 30.513 -23.1674 27.2409C-30.497 24.3614 -33.3764 16.3774 -30.2352 7.47714C-26.8322 -2.20838 -29.7116 -9.2762 -38.8736 -13.3336C-47.643 -17.2602 -54.3181 -14.6425 -59.6844 -6.00406C-61.1242 -3.77901 -63.3492 -2.0775 -65.3125 -0.114216C-65.3125 -5.61141 -65.3125 -11.3704 -65.3125 -16.9984C-44.7635 -16.9984 -24.3453 -16.9984 -3.79631 -16.9984Z" fill="#B3CFFE"/>
<path d="M720.001 124.356C706.258 120.299 692.384 116.765 678.772 112.184C671.705 109.828 668.825 101.32 671.312 94.1218C673.799 86.9231 681.128 83.1274 689.243 85.2216C696.835 87.1848 704.295 89.6717 711.756 91.8967C714.504 92.682 717.253 93.3365 719.87 94.1218C720.001 104.331 720.001 114.278 720.001 124.356Z" fill="#B3CFFE"/>
<path d="M218.709 -16.9998C218.578 -11.11 218.709 -5.35104 218.447 0.538811C218.055 10.3552 212.557 16.1142 203.788 16.1142C194.888 16.1142 189.522 10.4861 189.391 0.538811C189.26 -5.22015 189.653 -11.11 189.914 -16.9998C199.469 -16.9998 209.154 -16.9998 218.709 -16.9998Z" fill="#B3CFFE"/>
<path d="M720 1.32413C704.948 5.77423 697.356 -1.03181 699.058 -16.9998C705.995 -16.9998 713.063 -16.9998 720 -16.9998C720 -10.8482 720 -4.82749 720 1.32413Z" fill="#B3CFFE"/>
<path d="M720.002 342.935C709.138 332.202 709.531 302.622 720.002 293.199C720.002 309.821 720.002 326.313 720.002 342.935Z" fill="#B3CFFE"/>
<path d="M720.001 768.313C713.719 768.313 707.436 768.313 699.583 768.313C704.557 758.628 709.923 750.775 720.001 747.372C720.001 754.309 720.001 761.377 720.001 768.313Z" fill="#B3CFFE"/>
<path d="M249.731 307.334C262.034 309.56 275.515 312.046 288.996 314.533C299.86 316.496 310.854 318.591 321.718 320.554C335.853 323.172 340.434 335.737 331.011 346.862C315.697 364.924 300.122 382.986 284.808 401.048C277.348 409.818 263.997 408.64 259.809 398.038C253.526 382.332 248.029 366.233 242.27 350.265C239.522 342.543 236.773 334.69 234.286 326.836C231.276 316.496 238.082 307.334 249.731 307.334ZM278.395 362.961C283.761 356.678 288.211 351.443 293.316 345.422C285.462 343.982 278.525 342.804 270.803 341.365C273.421 348.956 275.777 355.369 278.395 362.961Z" fill="#B3CFFE"/>
<path d="M32.8521 609.025C20.1562 609.549 12.434 600.125 16.2296 589.654C24.7372 566.095 33.5065 542.666 42.6685 519.369C46.5951 509.291 59.8145 506.804 66.8823 515.05C83.3739 534.421 99.4728 554.184 115.31 574.079C121.592 582.063 117.273 594.628 107.326 596.46C82.0651 601.172 56.6733 605.099 32.8521 609.025ZM53.0085 575.78C61.2543 574.341 67.7985 573.163 75.5208 571.854C70.1545 565.571 65.8353 560.336 60.9925 554.446C58.113 561.907 55.888 568.189 53.0085 575.78Z" fill="#B3CFFE"/>
<path d="M205.49 67.4211C215.569 67.552 220.804 72.3948 222.375 81.9494C225.123 98.441 227.872 115.063 230.49 131.555C231.537 138.23 232.584 144.905 233.762 151.581C235.987 164.146 225.909 173.308 213.998 168.988C191.093 160.743 168.188 152.104 145.545 143.335C133.242 138.492 131.409 125.273 141.618 116.765C160.073 101.451 178.659 86.2686 197.245 71.3477C200.255 69.1226 203.92 68.2064 205.49 67.4211ZM196.983 109.828C190.7 115.063 185.465 119.383 179.444 124.487C186.905 127.367 193.318 129.723 200.648 132.471C199.47 124.749 198.423 118.074 196.983 109.828Z" fill="#B3CFFE"/>
<path d="M548.147 663.998C548.278 653.134 557.44 646.066 567.518 649.6C591.208 657.846 614.637 666.484 638.065 675.385C648.405 679.311 650.63 692.923 642.254 700.122C623.537 716.09 604.689 731.927 585.711 747.503C575.895 755.487 563.591 751.168 561.236 738.864C556.655 714.912 552.597 690.829 548.409 666.877C548.278 665.699 548.278 664.521 548.147 663.998ZM581.915 686.248C583.355 694.232 584.402 700.907 585.842 708.63C591.994 703.525 597.098 699.075 603.25 693.971C595.789 691.222 589.507 688.997 581.915 686.248Z" fill="#B3CFFE"/>
<path d="M577.074 127.759C578.252 128.021 580.739 128.545 583.226 129.461C605.215 137.707 627.203 146.083 649.192 154.591C661.757 159.434 663.72 172.915 653.119 181.422C635.056 196.082 616.994 210.872 598.932 225.531C587.283 234.955 575.111 230.504 572.624 215.714C568.828 193.202 565.164 170.559 561.63 148.047C559.666 135.482 565.164 127.759 577.074 127.759ZM598.408 187.574C604.298 182.731 609.665 178.412 615.685 173.438C608.356 170.559 601.942 168.203 594.482 165.323C595.529 172.522 596.445 178.281 597.361 184.04C597.492 184.825 597.754 185.611 598.408 187.574Z" fill="#B3CFFE"/>
<path d="M567.388 505.364C593.173 505.626 611.759 524.605 611.497 550.389C611.235 575.912 591.864 594.759 566.341 594.367C541.08 593.974 522.364 574.995 522.495 549.604C522.495 524.081 541.866 505.103 567.388 505.364ZM567.127 533.767C557.31 533.636 551.028 539.656 550.897 549.342C550.635 559.289 556.918 565.964 566.865 566.095C576.42 566.226 582.964 559.813 583.226 550.389C583.356 540.311 577.074 533.767 567.127 533.767Z" fill="#B3CFFE"/>
<path d="M193.711 560.205C193.711 534.944 212.558 515.966 237.819 515.835C263.342 515.704 282.451 534.683 282.582 560.205C282.713 585.728 263.603 604.968 238.212 604.837C212.558 604.706 193.711 585.859 193.711 560.205ZM238.212 544.237C228.264 544.237 221.589 550.782 221.851 560.598C221.982 570.153 228.395 576.435 237.95 576.566C247.897 576.697 254.311 570.283 254.18 560.205C254.049 550.52 247.897 544.237 238.212 544.237Z" fill="#B3CFFE"/>
<path d="M435.98 262.833C461.502 262.833 480.35 281.288 480.481 306.811C480.743 332.334 461.633 351.574 435.98 351.574C410.457 351.574 391.479 332.857 391.479 307.465C391.479 281.681 410.195 262.833 435.98 262.833ZM436.111 323.172C445.796 323.172 452.079 316.889 452.21 307.334C452.34 297.518 445.665 290.843 435.98 290.974C426.425 291.105 420.012 297.387 419.881 306.942C419.75 316.758 426.163 323.172 436.111 323.172Z" fill="#B3CFFE"/>
<path d="M336.375 465.182C336.506 441.361 353.652 423.953 379.044 421.859C400.902 420.027 420.535 435.471 424.461 457.591C426.163 467.407 422.105 474.344 413.598 476.046C405.483 477.617 399.069 472.774 396.844 463.481C394.096 452.094 384.672 447.12 374.07 451.701C367.133 454.712 364.516 459.423 365.039 468.585C365.563 478.925 357.971 486.124 348.286 484.292C340.171 482.852 336.244 476.569 336.375 465.182Z" fill="#B3CFFE"/>
<path d="M667.255 427.095C684.925 428.403 699.191 437.696 706.783 455.497C714.112 472.512 710.709 488.349 698.275 501.961C691.993 508.898 683.485 509.553 677.334 504.055C671.313 498.558 671.182 490.443 677.203 482.983C683.747 474.868 683.616 467.146 676.679 460.47C670.004 453.926 662.282 453.795 654.56 460.209C647.361 466.229 638.984 466.099 633.487 460.078C627.99 453.926 628.775 445.549 635.45 439.136C643.958 431.283 654.036 427.356 667.255 427.095Z" fill="#B3CFFE"/>
<path d="M479.827 646.852C478.911 663.474 470.796 677.217 454.959 685.725C440.561 693.316 425.902 692.138 412.028 683.761C404.175 679.049 401.819 670.542 406.138 663.605C410.458 656.668 418.311 654.966 426.164 659.155C435.457 664.128 443.179 662.558 448.283 654.705C453.65 646.459 452.341 639.26 444.226 632.454C436.896 626.303 435.457 618.449 440.43 611.905C445.404 605.361 453.912 604.314 461.372 609.811C473.283 618.711 479.958 630.36 479.827 646.852Z" fill="#B3CFFE"/>
<path d="M447.891 169.512C432.185 168.988 418.442 161.004 409.672 145.691C401.426 131.293 402.081 116.372 410.85 102.237C413.206 98.3102 417.656 94.7763 421.975 93.0748C427.342 90.9806 432.839 93.4674 436.242 98.4411C440.038 103.807 439.645 109.305 436.242 114.933C430.614 124.356 431.661 131.162 439.383 137.314C446.975 143.204 454.959 142.549 461.372 135.22C468.309 127.367 476.293 126.189 482.968 131.948C489.382 137.576 489.382 146.083 482.706 153.937C473.937 164.015 463.204 169.381 447.891 169.512Z" fill="#B3CFFE"/>
<path d="M139.262 299.089C139.262 328.407 114.917 348.825 86.7766 343.328C76.6984 341.365 71.7248 335.082 73.2954 326.051C74.7351 317.674 81.6721 313.748 91.8811 315.449C103.792 317.413 112.954 308.381 111.121 296.471C110.074 289.927 105.886 286.262 99.8651 284.168C90.7032 280.896 86.6457 273.566 89.5252 265.451C92.1429 257.86 99.996 254.588 108.896 257.467C127.875 263.619 139.262 279.063 139.262 299.089Z" fill="#B3CFFE"/>
<path d="M582.965 312.57C585.844 308.774 587.938 303.67 591.734 301.445C609.273 291.759 627.073 282.597 645.004 273.697C652.596 269.901 660.972 273.174 664.375 280.372C667.909 287.571 665.161 295.817 657.7 299.743C640.816 308.643 623.801 317.544 606.655 326.182C595.66 331.941 584.143 325.135 582.965 312.57Z" fill="#B3CFFE"/>
<path d="M82.72 723.42C74.8669 723.42 69.3697 719.362 67.4064 712.818C65.574 706.666 67.93 699.729 73.8198 696.457C91.3585 686.772 109.028 677.217 126.828 668.055C134.42 664.128 142.927 667.27 146.461 674.207C150.126 681.274 147.639 689.782 140.179 693.839C123.033 703.263 105.625 712.425 88.3481 721.587C86.3848 722.634 83.898 723.027 82.72 723.42Z" fill="#B3CFFE"/>
<path d="M53.5312 98.9647C58.8975 99.2264 63.7403 101.844 66.0963 107.734C73.5567 126.32 81.0172 144.905 88.2159 163.622C91.0954 171.213 87.2997 178.936 79.9701 181.815C72.6405 184.695 64.5256 181.815 61.3844 174.355C53.6621 155.638 46.0708 136.791 39.1338 117.812C35.5999 108.127 42.6677 98.9647 53.5312 98.9647Z" fill="#B3CFFE"/>
<path d="M157.457 446.335C157.457 459.423 147.117 465.968 136.646 461.648C129.186 458.638 121.987 454.973 114.657 451.57C104.579 446.858 94.5008 442.277 84.4226 437.565C75.6533 433.377 72.5121 425.655 76.046 417.802C79.5799 410.079 87.8257 407.2 96.4641 411.127C113.479 418.849 130.494 426.833 147.509 434.686C153.792 437.304 157.326 441.623 157.457 446.335Z" fill="#B3CFFE"/>
<path d="M307.713 637.035C310.723 637.166 314.912 639.784 317.66 644.757C326.691 661.903 335.853 678.919 344.623 696.195C348.811 704.31 346.193 712.687 339.125 716.483C331.796 720.409 323.288 717.661 318.838 709.415C309.938 692.792 300.907 676.039 292.269 659.155C286.64 648.16 293.316 636.773 307.713 637.035Z" fill="#B3CFFE"/>
<path d="M299.859 276.445C293.445 275.267 288.341 272.911 286.901 267.414C285.723 262.833 285.331 256.158 287.817 252.886C300.382 236.525 313.864 220.819 327.345 205.113C332.188 199.485 341.35 199.746 346.978 204.589C352.737 209.563 353.915 218.07 348.679 224.615C338.601 237.18 328.13 249.483 317.79 261.786C315.303 264.797 313.078 268.2 310.068 270.686C307.188 273.042 303.262 274.482 299.859 276.445Z" fill="#B3CFFE"/>
<path d="M502.075 437.696C502.075 446.335 502.075 455.104 502.075 463.742C502.075 473.166 496.578 479.841 488.201 480.103C479.825 480.496 473.542 474.344 473.019 464.79C472.233 445.68 471.579 426.571 471.055 407.462C470.793 398.038 475.636 392.803 484.144 392.148C492.782 391.494 498.672 395.944 499.588 405.106C500.635 415.969 500.635 426.833 501.159 437.696C501.552 437.696 501.813 437.696 502.075 437.696Z" fill="#B3CFFE"/>
<path d="M518.306 75.0125C508.752 75.0125 499.197 75.1434 489.512 75.0125C480.35 74.8816 474.198 69.1226 474.198 60.746C474.067 52.5002 480.219 46.0868 489.25 46.0868C508.621 45.825 527.992 45.825 547.363 46.0868C556.263 46.2177 562.546 52.6311 562.415 60.746C562.284 69.2535 556.394 74.8816 547.101 75.0125C537.547 75.1434 527.992 75.0125 518.306 75.0125Z" fill="#B3CFFE"/>
<path d="M218.448 767.92C208.631 767.92 199.6 767.92 189.391 767.92C189.391 761.507 189.391 755.094 189.391 748.68C189.391 741.874 189.26 735.199 189.522 728.393C189.784 719.624 195.412 713.603 203.396 713.21C211.511 712.949 218.186 718.969 218.448 727.869C218.709 740.958 218.448 754.047 218.448 767.92Z" fill="#B3CFFE"/>
<path d="M237.95 467.669C229.705 467.538 223.684 461.387 223.684 453.141C223.684 445.026 229.966 438.743 238.081 438.613C246.327 438.613 253.002 445.419 252.74 453.664C252.479 461.648 246.065 467.8 237.95 467.669Z" fill="#B3CFFE"/>
<path d="M488.07 223.044C488.201 214.929 494.746 208.647 502.861 208.909C510.975 209.039 517.258 215.584 517.127 223.699C516.996 231.683 510.19 238.096 502.206 237.965C494.353 237.703 487.939 231.028 488.07 223.044Z" fill="#B3CFFE"/>
<path d="M204.049 655.097C204.18 646.982 210.331 640.831 218.577 640.831C226.561 640.831 233.105 647.244 233.236 655.097C233.367 663.212 226.299 670.018 218.184 669.756C210.07 669.625 204.049 663.343 204.049 655.097Z" fill="#B3CFFE"/>
<path d="M562.544 383.117C570.659 383.117 577.204 389.4 577.334 397.514C577.334 405.368 570.528 412.174 562.675 412.174C554.429 412.174 548.147 405.891 548.147 397.645C548.147 389.138 554.168 383.117 562.544 383.117Z" fill="#B3CFFE"/>
<path d="M213.999 253.017C213.999 261.524 208.109 267.414 199.601 267.414C191.356 267.414 184.942 261.132 184.942 253.017C184.942 245.033 191.487 238.489 199.471 238.358C207.716 238.358 213.999 244.771 213.999 253.017Z" fill="#B3CFFE"/>
<path d="M-8.24367 456.282C-16.4895 456.151 -22.5102 450 -22.5102 441.623C-22.3793 433.246 -16.2277 427.226 -7.85101 427.357C0.00211906 427.488 6.67728 434.294 6.67728 442.147C6.54639 449.869 -0.259657 456.282 -8.24367 456.282Z" fill="#B3CFFE"/>
<path d="M388.336 545.284C396.582 545.415 402.472 551.698 402.341 560.074C402.21 568.32 395.797 574.472 387.682 574.21C379.567 573.948 373.153 567.273 373.415 559.289C373.546 551.305 380.09 545.153 388.336 545.284Z" fill="#B3CFFE"/>
<path d="M98.8206 14.1509C107.066 14.2817 113.087 20.4334 113.087 28.6791C113.087 37.0558 106.281 43.6001 98.1662 43.3383C90.3131 43.0765 83.8997 36.1396 84.1614 28.2865C84.1614 20.1716 90.5748 14.02 98.8206 14.1509Z" fill="#B3CFFE"/>
<path d="M327.344 141.764C319.229 141.764 312.815 135.482 312.815 127.498C312.815 119.121 319.36 112.577 327.605 112.838C335.589 112.969 342.003 119.644 341.872 127.498C341.741 135.482 335.328 141.764 327.344 141.764Z" fill="#B3CFFE"/>
<path d="M639.636 8.78454C639.505 17.0303 633.223 23.182 624.977 23.182C616.862 23.0511 610.58 16.6377 610.58 8.52277C610.71 0.407871 617.124 -5.87463 625.37 -5.87463C633.484 -5.87463 639.767 0.538757 639.636 8.78454Z" fill="#B3CFFE"/>
<path d="M355.614 767.92C336.766 767.92 318.18 767.92 299.595 767.92C306.27 755.617 342.656 752.345 355.614 767.92Z" fill="#B3CFFE"/>
<path d="M436.896 767.659C435.195 761.376 437.158 756.403 442.001 752.607C446.975 748.811 452.603 748.419 457.969 751.56C463.728 754.963 466.215 760.329 464.644 767.659C455.744 767.659 446.713 767.659 436.896 767.659Z" fill="#B3CFFE"/>
<path d="M433.886 781.271C432.446 781.14 431.661 781.14 431.006 781.14C431.399 780.878 431.792 780.486 432.315 780.355C432.577 780.224 432.839 780.616 433.886 781.271Z" fill="#B3CFFE"/>
</g>
<g opacity="0.12">
<path d="M719.999 1075.58C732.171 1061.84 747.223 1055.82 765.547 1059.35C790.153 1064.06 804.027 1085.27 799.97 1111.57C796.567 1133.69 775.887 1149.14 752.72 1147.31C739.37 1146.26 729.03 1139.98 719.999 1130.55C719.999 1112.23 719.999 1093.9 719.999 1075.58ZM755.469 1118.9C765.285 1119.3 771.96 1113.54 772.484 1103.98C773.007 1093.9 767.117 1086.97 757.301 1086.44C747.746 1085.92 740.417 1092.6 740.155 1102.15C739.762 1111.84 745.914 1118.51 755.469 1118.9Z" fill="#B3CFFE"/>
<path d="M1144.07 768C1150.09 776.508 1155.98 785.146 1156.76 796.01C1158.2 813.941 1152.84 829.124 1137.39 838.809C1121.29 848.887 1104.02 848.887 1087.92 838.809C1072.34 829.124 1067.11 813.81 1068.55 796.01C1069.33 785.146 1075.22 776.508 1081.37 768C1102.18 768 1123.13 768 1144.07 768ZM1112.39 817.606C1122.34 817.737 1128.75 811.323 1128.75 801.376C1128.62 791.69 1122.34 785.408 1112.79 785.277C1103.23 785.146 1096.69 791.429 1096.43 800.983C1096.29 810.93 1102.45 817.475 1112.39 817.606Z" fill="#B3CFFE"/>
<path d="M781.516 768.001C785.573 779.388 786.227 790.906 781.646 802.293C777.982 811.586 770.259 815.512 762.145 812.24C754.815 809.361 751.935 801.377 755.077 792.477C758.48 782.791 755.6 775.723 746.438 771.666C737.669 767.739 730.994 770.357 725.627 778.995C724.188 781.22 721.963 782.922 719.999 784.885C719.999 779.388 719.999 773.629 719.999 768.001C740.548 768.001 760.967 768.001 781.516 768.001Z" fill="#B3CFFE"/>
<path d="M719.999 879.253C727.852 881.74 735.705 884.095 743.558 886.582C753.505 889.724 757.955 896.66 755.599 905.43C753.374 913.676 745.129 917.21 735.05 914.461C730.077 913.152 725.103 911.843 719.999 910.534C719.999 900.194 719.999 889.724 719.999 879.253Z" fill="#B3CFFE"/>
<path d="M1004.02 768C1003.89 773.89 1004.02 779.649 1003.76 785.539C1003.37 795.355 997.869 801.114 989.099 801.114C980.199 801.114 974.833 795.486 974.702 785.539C974.571 779.78 974.964 773.89 975.225 768C984.78 768 994.466 768 1004.02 768Z" fill="#B3CFFE"/>
<path d="M1250.08 768C1247.07 775.33 1242.1 779.125 1235.56 778.471C1229.01 777.947 1224.04 775.068 1222.6 768C1231.76 768 1240.92 768 1250.08 768Z" fill="#B3CFFE"/>
<path d="M1035.04 1092.33C1047.34 1094.56 1060.82 1097.05 1074.31 1099.53C1085.17 1101.5 1096.16 1103.59 1107.03 1105.55C1121.16 1108.17 1125.74 1120.74 1116.32 1131.86C1101.01 1149.92 1085.43 1167.99 1070.12 1186.05C1062.66 1194.82 1049.31 1193.64 1045.12 1183.04C1038.84 1167.33 1033.34 1151.23 1027.58 1135.26C1024.83 1127.54 1022.08 1119.69 1019.6 1111.84C1016.59 1101.5 1023.39 1092.33 1035.04 1092.33ZM1063.7 1147.96C1069.07 1141.68 1073.52 1136.44 1078.63 1130.42C1070.77 1128.98 1063.83 1127.8 1056.11 1126.36C1058.73 1133.96 1061.09 1140.37 1063.7 1147.96Z" fill="#B3CFFE"/>
<path d="M818.163 1394.03C805.467 1394.55 797.745 1385.13 801.54 1374.65C810.048 1351.09 818.817 1327.67 827.979 1304.37C831.906 1294.29 845.125 1291.8 852.193 1300.05C868.685 1319.42 884.784 1339.18 900.621 1359.08C906.903 1367.06 902.584 1379.63 892.637 1381.46C867.376 1386.17 841.984 1390.1 818.163 1394.03ZM838.319 1360.78C846.565 1359.34 853.109 1358.16 860.832 1356.85C855.465 1350.57 851.146 1345.34 846.303 1339.45C843.424 1346.91 841.199 1353.19 838.319 1360.78Z" fill="#B3CFFE"/>
<path d="M990.801 852.421C1000.88 852.552 1006.11 857.395 1007.69 866.949C1010.43 883.441 1013.18 900.064 1015.8 916.555C1016.85 923.23 1017.89 929.905 1019.07 936.581C1021.3 949.146 1011.22 958.308 999.308 953.988C976.404 945.743 953.499 937.104 930.855 928.335C918.552 923.492 916.72 910.273 926.929 901.765C945.384 886.451 963.969 871.269 982.555 856.348C985.566 854.123 989.23 853.206 990.801 852.421ZM982.293 894.828C976.011 900.064 970.775 904.383 964.755 909.487C972.215 912.367 978.629 914.723 985.958 917.471C984.78 909.749 983.733 903.074 982.293 894.828Z" fill="#B3CFFE"/>
<path d="M1362.38 912.759C1363.56 913.021 1366.05 913.545 1368.54 914.461C1390.53 922.707 1412.51 931.083 1434.5 939.591C1447.07 944.434 1449.03 957.915 1438.43 966.422C1420.37 981.082 1402.31 995.872 1384.24 1010.53C1372.59 1019.95 1360.42 1015.5 1357.93 1000.71C1354.14 978.202 1350.47 955.559 1346.94 933.047C1344.98 920.482 1350.47 912.759 1362.38 912.759ZM1383.72 972.574C1389.61 967.731 1394.98 963.412 1401 958.438C1393.67 955.559 1387.25 953.203 1379.79 950.324C1380.84 957.522 1381.76 963.281 1382.67 969.04C1382.8 969.825 1383.06 970.611 1383.72 972.574Z" fill="#B3CFFE"/>
<path d="M1352.7 1290.36C1378.48 1290.63 1397.07 1309.6 1396.81 1335.39C1396.55 1360.91 1377.17 1379.76 1351.65 1379.37C1326.39 1378.97 1307.67 1360 1307.81 1334.6C1307.81 1309.08 1327.18 1290.1 1352.7 1290.36ZM1352.44 1318.77C1342.62 1318.64 1336.34 1324.66 1336.21 1334.34C1335.95 1344.29 1342.23 1350.96 1352.18 1351.1C1361.73 1351.23 1368.27 1344.81 1368.54 1335.39C1368.67 1325.31 1362.38 1318.77 1352.44 1318.77Z" fill="#B3CFFE"/>
<path d="M979.021 1345.21C979.021 1319.94 997.869 1300.97 1023.13 1300.83C1048.65 1300.7 1067.76 1319.68 1067.89 1345.21C1068.02 1370.73 1048.91 1389.97 1023.52 1389.84C997.869 1389.71 979.021 1370.86 979.021 1345.21ZM1023.52 1329.24C1013.57 1329.24 1006.9 1335.78 1007.16 1345.6C1007.29 1355.15 1013.71 1361.43 1023.26 1361.57C1033.21 1361.7 1039.62 1355.28 1039.49 1345.21C1039.36 1335.52 1033.21 1329.24 1023.52 1329.24Z" fill="#B3CFFE"/>
<path d="M1221.29 1047.83C1246.81 1047.83 1265.66 1066.29 1265.79 1091.81C1266.05 1117.33 1246.94 1136.57 1221.29 1136.57C1195.77 1136.57 1176.79 1117.86 1176.79 1092.47C1176.79 1066.68 1195.51 1047.83 1221.29 1047.83ZM1221.42 1108.17C1231.11 1108.17 1237.39 1101.89 1237.52 1092.33C1237.65 1082.52 1230.98 1075.84 1221.29 1075.97C1211.74 1076.1 1205.32 1082.39 1205.19 1091.94C1205.06 1101.76 1211.47 1108.17 1221.42 1108.17Z" fill="#B3CFFE"/>
<path d="M1121.69 1250.18C1121.82 1226.36 1138.96 1208.95 1164.35 1206.86C1186.21 1205.03 1205.85 1220.47 1209.77 1242.59C1211.47 1252.41 1207.42 1259.34 1198.91 1261.05C1190.79 1262.62 1184.38 1257.77 1182.16 1248.48C1179.41 1237.09 1169.98 1232.12 1159.38 1236.7C1152.44 1239.71 1149.83 1244.42 1150.35 1253.59C1150.87 1263.93 1143.28 1271.12 1133.6 1269.29C1125.48 1267.85 1121.56 1261.57 1121.69 1250.18Z" fill="#B3CFFE"/>
<path d="M1452.57 1212.09C1470.23 1213.4 1484.5 1222.7 1492.09 1240.5C1499.42 1257.51 1496.02 1273.35 1483.59 1286.96C1477.3 1293.9 1468.8 1294.55 1462.64 1289.06C1456.62 1283.56 1456.49 1275.44 1462.51 1267.98C1469.06 1259.87 1468.93 1252.15 1461.99 1245.47C1455.31 1238.93 1447.59 1238.8 1439.87 1245.21C1432.67 1251.23 1424.29 1251.1 1418.8 1245.08C1413.3 1238.93 1414.09 1230.55 1420.76 1224.14C1429.27 1216.28 1439.35 1212.36 1452.57 1212.09Z" fill="#B3CFFE"/>
<path d="M1233.2 954.512C1217.49 953.988 1203.75 946.004 1194.98 930.691C1186.74 916.293 1187.39 901.372 1196.16 887.237C1198.52 883.31 1202.97 879.776 1207.29 878.075C1212.65 875.981 1218.15 878.467 1221.55 883.441C1225.35 888.807 1224.95 894.305 1221.55 899.933C1215.92 909.356 1216.97 916.162 1224.69 922.314C1232.28 928.204 1240.27 927.549 1246.68 920.22C1253.62 912.367 1261.6 911.189 1268.28 916.948C1274.69 922.576 1274.69 931.083 1268.02 938.936C1259.25 949.015 1248.51 954.381 1233.2 954.512Z" fill="#B3CFFE"/>
<path d="M924.573 1084.09C924.573 1113.41 900.228 1133.82 872.088 1128.33C862.009 1126.36 857.036 1120.08 858.606 1111.05C860.046 1102.67 866.983 1098.75 877.192 1100.45C889.103 1102.41 898.265 1093.38 896.432 1081.47C895.385 1074.93 891.197 1071.26 885.176 1069.17C876.014 1065.9 871.957 1058.57 874.836 1050.45C877.454 1042.86 885.307 1039.59 894.207 1042.47C913.186 1048.62 924.573 1064.06 924.573 1084.09Z" fill="#B3CFFE"/>
<path d="M1368.27 1097.57C1371.15 1093.77 1373.25 1088.67 1377.04 1086.44C1394.58 1076.76 1412.38 1067.6 1430.31 1058.7C1437.91 1054.9 1446.28 1058.17 1449.69 1065.37C1453.22 1072.57 1450.47 1080.82 1443.01 1084.74C1426.13 1093.64 1409.11 1102.54 1391.96 1111.18C1380.97 1116.94 1369.45 1110.13 1368.27 1097.57Z" fill="#B3CFFE"/>
<path d="M838.842 883.965C844.209 884.226 849.051 886.844 851.407 892.734C858.868 911.32 866.328 929.905 873.527 948.622C876.406 956.213 872.611 963.936 865.281 966.815C857.951 969.695 849.837 966.815 846.695 959.355C838.973 940.638 831.382 921.79 824.445 902.812C820.911 893.127 827.979 883.965 838.842 883.965Z" fill="#B3CFFE"/>
<path d="M942.766 1231.33C942.766 1244.42 932.426 1250.97 921.955 1246.65C914.495 1243.64 907.296 1239.97 899.967 1236.57C889.888 1231.86 879.81 1227.28 869.732 1222.57C860.963 1218.38 857.821 1210.65 861.355 1202.8C864.889 1195.08 873.135 1192.2 881.773 1196.13C898.789 1203.85 915.804 1211.83 932.819 1219.69C939.101 1222.3 942.635 1226.62 942.766 1231.33Z" fill="#B3CFFE"/>
<path d="M1085.17 1061.45C1078.76 1060.27 1073.65 1057.91 1072.21 1052.41C1071.03 1047.83 1070.64 1041.16 1073.13 1037.89C1085.69 1021.53 1099.17 1005.82 1112.65 990.113C1117.5 984.485 1126.66 984.746 1132.29 989.589C1138.05 994.563 1139.22 1003.07 1133.99 1009.61C1123.91 1022.18 1113.44 1034.48 1103.1 1046.79C1100.61 1049.8 1098.39 1053.2 1095.38 1055.69C1092.5 1058.04 1088.57 1059.48 1085.17 1061.45Z" fill="#B3CFFE"/>
<path d="M1287.39 1222.7C1287.39 1231.33 1287.39 1240.1 1287.39 1248.74C1287.39 1258.17 1281.89 1264.84 1273.51 1265.1C1265.14 1265.5 1258.85 1259.34 1258.33 1249.79C1257.55 1230.68 1256.89 1211.57 1256.37 1192.46C1256.11 1183.04 1260.95 1177.8 1269.46 1177.15C1278.09 1176.49 1283.98 1180.94 1284.9 1190.11C1285.95 1200.97 1285.95 1211.83 1286.47 1222.7C1286.86 1222.7 1287.13 1222.7 1287.39 1222.7Z" fill="#B3CFFE"/>
<path d="M1303.62 860.013C1294.06 860.013 1284.51 860.143 1274.82 860.013C1265.66 859.882 1259.51 854.123 1259.51 845.746C1259.38 837.5 1265.53 831.087 1274.56 831.087C1293.93 830.825 1313.3 830.825 1332.67 831.087C1341.57 831.218 1347.86 837.631 1347.73 845.746C1347.59 854.254 1341.7 859.882 1332.41 860.013C1322.86 860.143 1313.3 860.013 1303.62 860.013Z" fill="#B3CFFE"/>
<path d="M1023.26 1252.67C1015.01 1252.54 1008.99 1246.39 1008.99 1238.14C1008.99 1230.03 1015.28 1223.74 1023.39 1223.61C1031.64 1223.61 1038.31 1230.42 1038.05 1238.66C1037.79 1246.65 1031.38 1252.8 1023.26 1252.67Z" fill="#B3CFFE"/>
<path d="M1273.38 1008.04C1273.51 999.929 1280.06 993.647 1288.17 993.908C1296.29 994.039 1302.57 1000.58 1302.44 1008.7C1302.31 1016.68 1295.5 1023.1 1287.52 1022.96C1279.66 1022.7 1273.25 1016.03 1273.38 1008.04Z" fill="#B3CFFE"/>
<path d="M1347.86 1168.12C1355.97 1168.12 1362.52 1174.4 1362.65 1182.51C1362.65 1190.37 1355.84 1197.17 1347.99 1197.17C1339.74 1197.17 1333.46 1190.89 1333.46 1182.65C1333.46 1174.14 1339.48 1168.12 1347.86 1168.12Z" fill="#B3CFFE"/>
<path d="M761.096 993.385C761.227 1001.89 755.206 1007.78 746.83 1007.91C738.584 1008.04 732.171 1001.89 732.04 993.647C731.909 985.793 738.584 978.987 746.437 978.857C754.421 978.726 760.965 985.27 761.096 993.385Z" fill="#B3CFFE"/>
<path d="M999.309 1038.02C999.309 1046.52 993.419 1052.41 984.912 1052.41C976.666 1052.41 970.252 1046.13 970.252 1038.02C970.252 1030.03 976.797 1023.49 984.781 1023.36C993.026 1023.36 999.309 1029.77 999.309 1038.02Z" fill="#B3CFFE"/>
<path d="M777.065 1241.28C768.819 1241.15 762.799 1235 762.799 1226.62C762.93 1218.25 769.081 1212.23 777.458 1212.36C785.311 1212.49 791.986 1219.29 791.986 1227.15C791.855 1234.87 785.049 1241.28 777.065 1241.28Z" fill="#B3CFFE"/>
<path d="M884.129 799.151C892.375 799.282 898.396 805.433 898.396 813.679C898.396 822.056 891.59 828.6 883.475 828.338C875.622 828.076 869.208 821.139 869.47 813.286C869.47 805.171 875.884 799.02 884.129 799.151Z" fill="#B3CFFE"/>
<path d="M1112.65 926.764C1104.54 926.764 1098.13 920.482 1098.13 912.498C1098.13 904.121 1104.67 897.577 1112.92 897.838C1120.9 897.969 1127.31 904.644 1127.18 912.498C1127.05 920.482 1120.64 926.764 1112.65 926.764Z" fill="#B3CFFE"/>
<path d="M1424.95 793.784C1424.82 802.03 1418.53 808.182 1410.29 808.182C1402.17 808.051 1395.89 801.638 1395.89 793.523C1396.02 785.408 1402.44 779.125 1410.68 779.125C1418.8 779.125 1425.08 785.539 1424.95 793.784Z" fill="#B3CFFE"/>
<path d="M-65.3121 1075.58C-53.1397 1061.84 -38.0879 1055.82 -19.7639 1059.35C4.84256 1064.06 18.7164 1085.27 14.659 1111.57C11.2559 1133.69 -9.42396 1149.14 -32.5907 1147.31C-45.941 1146.26 -56.281 1139.98 -65.3121 1130.55C-65.3121 1112.23 -65.3121 1093.9 -65.3121 1075.58ZM-29.8421 1118.9C-20.0257 1119.3 -13.3505 1113.54 -12.827 1103.98C-12.3034 1093.9 -18.1933 1086.97 -28.0097 1086.44C-37.5643 1085.92 -44.8939 1092.6 -45.1557 1102.15C-45.5484 1111.84 -39.3967 1118.51 -29.8421 1118.9Z" fill="#B3CFFE"/>
<path d="M358.758 768C364.778 776.508 370.668 785.146 371.454 796.01C372.893 813.941 367.527 829.124 352.082 838.809C335.984 848.887 318.707 848.887 302.608 838.809C287.032 829.124 281.797 813.81 283.237 796.01C284.022 785.146 289.912 776.508 296.064 768C316.874 768 337.816 768 358.758 768ZM327.083 817.606C337.031 817.737 343.444 811.323 343.444 801.376C343.313 791.69 337.031 785.408 327.476 785.277C317.921 785.146 311.377 791.429 311.115 800.983C310.984 810.931 317.136 817.475 327.083 817.606Z" fill="#B3CFFE"/>
<path d="M-3.79631 768.002C0.261139 779.389 0.915565 790.907 -3.66543 802.294C-7.33022 811.586 -15.0525 815.513 -23.1674 812.241C-30.497 809.361 -33.3764 801.377 -30.2352 792.477C-26.8322 782.792 -29.7116 775.724 -38.8736 771.666C-47.643 767.74 -54.3181 770.357 -59.6844 778.996C-61.1242 781.221 -63.3492 782.923 -65.3125 784.886C-65.3125 779.389 -65.3125 773.63 -65.3125 768.002C-44.7635 768.002 -24.3453 768.002 -3.79631 768.002Z" fill="#B3CFFE"/>
<path d="M720.001 909.356C706.258 905.299 692.384 901.765 678.772 897.184C671.705 894.828 668.825 886.32 671.312 879.122C673.799 871.923 681.128 868.127 689.243 870.222C696.835 872.185 704.295 874.672 711.756 876.897C714.504 877.682 717.253 878.336 719.87 879.122C720.001 889.331 720.001 899.278 720.001 909.356Z" fill="#B3CFFE"/>
<path d="M218.709 768C218.578 773.89 218.709 779.649 218.447 785.539C218.055 795.355 212.557 801.114 203.788 801.114C194.888 801.114 189.522 795.486 189.391 785.539C189.26 779.78 189.653 773.89 189.914 768C199.469 768 209.154 768 218.709 768Z" fill="#B3CFFE"/>
<path d="M720 786.324C704.948 790.774 697.356 783.968 699.058 768C705.995 768 713.063 768 720 768C720 774.152 720 780.173 720 786.324Z" fill="#B3CFFE"/>
<path d="M720.002 1127.94C709.138 1117.2 709.531 1087.62 720.002 1078.2C720.002 1094.82 720.002 1111.31 720.002 1127.94Z" fill="#B3CFFE"/>
<path d="M464.774 768C461.764 775.33 456.79 779.125 450.246 778.471C443.702 777.947 438.728 775.068 437.289 768C446.45 768 455.612 768 464.774 768Z" fill="#B3CFFE"/>
<path d="M249.731 1092.33C262.034 1094.56 275.515 1097.05 288.996 1099.53C299.86 1101.5 310.854 1103.59 321.718 1105.55C335.853 1108.17 340.434 1120.74 331.011 1131.86C315.697 1149.92 300.122 1167.99 284.808 1186.05C277.348 1194.82 263.997 1193.64 259.809 1183.04C253.526 1167.33 248.029 1151.23 242.27 1135.26C239.522 1127.54 236.773 1119.69 234.286 1111.84C231.276 1101.5 238.082 1092.33 249.731 1092.33ZM278.395 1147.96C283.761 1141.68 288.211 1136.44 293.316 1130.42C285.462 1128.98 278.525 1127.8 270.803 1126.36C273.421 1133.96 275.777 1140.37 278.395 1147.96Z" fill="#B3CFFE"/>
<path d="M32.8521 1394.03C20.1562 1394.55 12.434 1385.13 16.2296 1374.65C24.7372 1351.09 33.5065 1327.67 42.6685 1304.37C46.5951 1294.29 59.8145 1291.8 66.8823 1300.05C83.3739 1319.42 99.4728 1339.18 115.31 1359.08C121.592 1367.06 117.273 1379.63 107.326 1381.46C82.0651 1386.17 56.6733 1390.1 32.8521 1394.03ZM53.0085 1360.78C61.2543 1359.34 67.7985 1358.16 75.5208 1356.85C70.1545 1350.57 65.8353 1345.34 60.9925 1339.45C58.113 1346.91 55.888 1353.19 53.0085 1360.78Z" fill="#B3CFFE"/>
<path d="M205.49 852.421C215.569 852.552 220.804 857.395 222.375 866.949C225.123 883.441 227.872 900.063 230.49 916.555C231.537 923.23 232.584 929.905 233.762 936.581C235.987 949.146 225.909 958.308 213.998 953.988C191.093 945.743 168.188 937.104 145.545 928.335C133.242 923.492 131.409 910.273 141.618 901.765C160.073 886.451 178.659 871.269 197.245 856.348C200.255 854.123 203.92 853.206 205.49 852.421ZM196.983 894.828C190.7 900.063 185.465 904.383 179.444 909.487C186.905 912.367 193.318 914.723 200.648 917.471C199.47 909.749 198.423 903.074 196.983 894.828Z" fill="#B3CFFE"/>
<path d="M577.074 912.759C578.252 913.021 580.739 913.545 583.226 914.461C605.215 922.707 627.203 931.083 649.192 939.591C661.757 944.434 663.72 957.915 653.119 966.422C635.056 981.082 616.994 995.872 598.932 1010.53C587.283 1019.95 575.111 1015.5 572.624 1000.71C568.828 978.202 565.164 955.559 561.63 933.047C559.666 920.482 565.164 912.759 577.074 912.759ZM598.408 972.574C604.298 967.731 609.665 963.412 615.685 958.438C608.356 955.559 601.942 953.203 594.482 950.323C595.529 957.522 596.445 963.281 597.361 969.04C597.492 969.825 597.754 970.611 598.408 972.574Z" fill="#B3CFFE"/>
<path d="M567.388 1290.36C593.173 1290.63 611.759 1309.6 611.497 1335.39C611.235 1360.91 591.864 1379.76 566.341 1379.37C541.08 1378.97 522.364 1360 522.495 1334.6C522.495 1309.08 541.866 1290.1 567.388 1290.36ZM567.127 1318.77C557.31 1318.64 551.028 1324.66 550.897 1334.34C550.635 1344.29 556.918 1350.96 566.865 1351.1C576.42 1351.23 582.964 1344.81 583.226 1335.39C583.356 1325.31 577.074 1318.77 567.127 1318.77Z" fill="#B3CFFE"/>
<path d="M193.711 1345.21C193.711 1319.94 212.558 1300.97 237.819 1300.84C263.342 1300.7 282.451 1319.68 282.582 1345.21C282.713 1370.73 263.603 1389.97 238.212 1389.84C212.558 1389.71 193.711 1370.86 193.711 1345.21ZM238.212 1329.24C228.264 1329.24 221.589 1335.78 221.851 1345.6C221.982 1355.15 228.395 1361.44 237.95 1361.57C247.897 1361.7 254.311 1355.28 254.18 1345.21C254.049 1335.52 247.897 1329.24 238.212 1329.24Z" fill="#B3CFFE"/>
<path d="M435.98 1047.83C461.502 1047.83 480.35 1066.29 480.481 1091.81C480.743 1117.33 461.633 1136.57 435.98 1136.57C410.457 1136.57 391.479 1117.86 391.479 1092.47C391.479 1066.68 410.195 1047.83 435.98 1047.83ZM436.111 1108.17C445.796 1108.17 452.079 1101.89 452.21 1092.33C452.34 1082.52 445.665 1075.84 435.98 1075.97C426.425 1076.1 420.012 1082.39 419.881 1091.94C419.75 1101.76 426.163 1108.17 436.111 1108.17Z" fill="#B3CFFE"/>
<path d="M336.375 1250.18C336.506 1226.36 353.652 1208.95 379.044 1206.86C400.902 1205.03 420.535 1220.47 424.461 1242.59C426.163 1252.41 422.105 1259.34 413.598 1261.05C405.483 1262.62 399.069 1257.77 396.844 1248.48C394.096 1237.09 384.672 1232.12 374.07 1236.7C367.133 1239.71 364.516 1244.42 365.039 1253.59C365.563 1263.93 357.971 1271.12 348.286 1269.29C340.171 1267.85 336.244 1261.57 336.375 1250.18Z" fill="#B3CFFE"/>
<path d="M667.255 1212.09C684.925 1213.4 699.191 1222.7 706.783 1240.5C714.112 1257.51 710.709 1273.35 698.275 1286.96C691.993 1293.9 683.485 1294.55 677.334 1289.06C671.313 1283.56 671.182 1275.44 677.203 1267.98C683.747 1259.87 683.616 1252.15 676.679 1245.47C670.004 1238.93 662.282 1238.8 654.56 1245.21C647.361 1251.23 638.984 1251.1 633.487 1245.08C627.99 1238.93 628.775 1230.55 635.45 1224.14C643.958 1216.28 654.036 1212.36 667.255 1212.09Z" fill="#B3CFFE"/>
<path d="M447.891 954.512C432.185 953.988 418.442 946.004 409.672 930.691C401.426 916.293 402.081 901.372 410.85 887.237C413.206 883.31 417.656 879.776 421.975 878.075C427.342 875.981 432.839 878.467 436.242 883.441C440.038 888.807 439.645 894.305 436.242 899.933C430.614 909.356 431.661 916.162 439.383 922.314C446.975 928.204 454.959 927.549 461.372 920.22C468.309 912.367 476.293 911.189 482.968 916.948C489.382 922.576 489.382 931.083 482.706 938.937C473.937 949.015 463.204 954.381 447.891 954.512Z" fill="#B3CFFE"/>
<path d="M139.262 1084.09C139.262 1113.41 114.917 1133.82 86.7766 1128.33C76.6984 1126.36 71.7248 1120.08 73.2954 1111.05C74.7351 1102.67 81.6721 1098.75 91.8811 1100.45C103.792 1102.41 112.954 1093.38 111.121 1081.47C110.074 1074.93 105.886 1071.26 99.8651 1069.17C90.7032 1065.9 86.6457 1058.57 89.5252 1050.45C92.1429 1042.86 99.996 1039.59 108.896 1042.47C127.875 1048.62 139.262 1064.06 139.262 1084.09Z" fill="#B3CFFE"/>
<path d="M582.965 1097.57C585.844 1093.77 587.938 1088.67 591.734 1086.44C609.273 1076.76 627.073 1067.6 645.004 1058.7C652.596 1054.9 660.972 1058.17 664.375 1065.37C667.909 1072.57 665.161 1080.82 657.7 1084.74C640.816 1093.64 623.801 1102.54 606.655 1111.18C595.66 1116.94 584.143 1110.13 582.965 1097.57Z" fill="#B3CFFE"/>
<path d="M53.5312 883.965C58.8975 884.226 63.7403 886.844 66.0963 892.734C73.5567 911.32 81.0172 929.905 88.2159 948.622C91.0954 956.213 87.2997 963.936 79.9701 966.815C72.6405 969.695 64.5256 966.815 61.3844 959.355C53.6621 940.638 46.0708 921.791 39.1338 902.812C35.5999 893.127 42.6677 883.965 53.5312 883.965Z" fill="#B3CFFE"/>
<path d="M157.457 1231.33C157.457 1244.42 147.117 1250.97 136.646 1246.65C129.186 1243.64 121.987 1239.97 114.657 1236.57C104.579 1231.86 94.5008 1227.28 84.4226 1222.57C75.6533 1218.38 72.5121 1210.65 76.046 1202.8C79.5799 1195.08 87.8257 1192.2 96.4641 1196.13C113.479 1203.85 130.494 1211.83 147.509 1219.69C153.792 1222.3 157.326 1226.62 157.457 1231.33Z" fill="#B3CFFE"/>
<path d="M299.859 1061.45C293.445 1060.27 288.341 1057.91 286.901 1052.41C285.723 1047.83 285.331 1041.16 287.817 1037.89C300.382 1021.53 313.864 1005.82 327.345 990.113C332.188 984.485 341.35 984.746 346.978 989.589C352.737 994.563 353.915 1003.07 348.679 1009.61C338.601 1022.18 328.13 1034.48 317.79 1046.79C315.303 1049.8 313.078 1053.2 310.068 1055.69C307.188 1058.04 303.262 1059.48 299.859 1061.45Z" fill="#B3CFFE"/>
<path d="M502.075 1222.7C502.075 1231.33 502.075 1240.1 502.075 1248.74C502.075 1258.17 496.578 1264.84 488.201 1265.1C479.825 1265.5 473.542 1259.34 473.019 1249.79C472.233 1230.68 471.579 1211.57 471.055 1192.46C470.793 1183.04 475.636 1177.8 484.144 1177.15C492.782 1176.49 498.672 1180.94 499.588 1190.11C500.635 1200.97 500.635 1211.83 501.159 1222.7C501.552 1222.7 501.813 1222.7 502.075 1222.7Z" fill="#B3CFFE"/>
<path d="M518.306 860.012C508.752 860.012 499.197 860.143 489.512 860.012C480.35 859.882 474.198 854.123 474.198 845.746C474.067 837.5 480.219 831.087 489.25 831.087C508.621 830.825 527.992 830.825 547.363 831.087C556.263 831.218 562.546 837.631 562.415 845.746C562.284 854.254 556.394 859.882 547.101 860.012C537.547 860.143 527.992 860.012 518.306 860.012Z" fill="#B3CFFE"/>
<path d="M237.95 1252.67C229.705 1252.54 223.684 1246.39 223.684 1238.14C223.684 1230.03 229.966 1223.74 238.081 1223.61C246.327 1223.61 253.002 1230.42 252.74 1238.66C252.479 1246.65 246.065 1252.8 237.95 1252.67Z" fill="#B3CFFE"/>
<path d="M488.07 1008.04C488.201 999.929 494.746 993.647 502.861 993.909C510.975 994.039 517.258 1000.58 517.127 1008.7C516.996 1016.68 510.19 1023.1 502.206 1022.97C494.353 1022.7 487.939 1016.03 488.07 1008.04Z" fill="#B3CFFE"/>
<path d="M562.544 1168.12C570.659 1168.12 577.204 1174.4 577.334 1182.51C577.334 1190.37 570.528 1197.17 562.675 1197.17C554.429 1197.17 548.147 1190.89 548.147 1182.65C548.147 1174.14 554.168 1168.12 562.544 1168.12Z" fill="#B3CFFE"/>
<path d="M213.999 1038.02C213.999 1046.52 208.109 1052.41 199.601 1052.41C191.356 1052.41 184.942 1046.13 184.942 1038.02C184.942 1030.03 191.487 1023.49 199.471 1023.36C207.716 1023.36 213.999 1029.77 213.999 1038.02Z" fill="#B3CFFE"/>
<path d="M-8.24367 1241.28C-16.4895 1241.15 -22.5102 1235 -22.5102 1226.62C-22.3793 1218.25 -16.2277 1212.23 -7.85101 1212.36C0.00211906 1212.49 6.67728 1219.29 6.67728 1227.15C6.54639 1234.87 -0.259657 1241.28 -8.24367 1241.28Z" fill="#B3CFFE"/>
<path d="M98.8206 799.151C107.066 799.282 113.087 805.433 113.087 813.679C113.087 822.056 106.281 828.6 98.1662 828.338C90.3131 828.077 83.8997 821.14 84.1614 813.286C84.1614 805.172 90.5748 799.02 98.8206 799.151Z" fill="#B3CFFE"/>
<path d="M327.344 926.764C319.229 926.764 312.815 920.482 312.815 912.498C312.815 904.121 319.36 897.577 327.605 897.838C335.589 897.969 342.003 904.644 341.872 912.498C341.741 920.482 335.328 926.764 327.344 926.764Z" fill="#B3CFFE"/>
<path d="M639.636 793.785C639.505 802.03 633.223 808.182 624.977 808.182C616.862 808.051 610.58 801.638 610.58 793.523C610.71 785.408 617.124 779.125 625.37 779.125C633.484 779.125 639.767 785.539 639.636 793.785Z" fill="#B3CFFE"/>
</g>
</g>
</svg>
