<svg width="26" height="27" viewBox="0 0 26 27" fill="none" xmlns="http://www.w3.org/2000/svg">
<g clip-path="url(#clip0)">
<path d="M25.7681 19.4413C25.6983 19.3243 25.266 18.385 23.1858 16.4543C21.0082 14.4327 21.3007 14.7609 23.9236 11.2653C25.5211 9.13639 26.1598 7.8363 25.9599 7.2805C25.7698 6.75071 24.5948 6.89048 24.5948 6.89048L20.688 6.91323C20.688 6.91323 20.3988 6.87422 20.1826 7.00261C19.973 7.12937 19.8381 7.42189 19.8381 7.42189C19.8381 7.42189 19.2189 9.06976 18.3934 10.4706C16.6528 13.4267 15.9557 13.5827 15.6713 13.3991C15.0099 12.9717 15.1756 11.6797 15.1756 10.7631C15.1756 7.89805 15.6095 6.70359 14.3289 6.39481C13.9031 6.29243 13.5911 6.22418 12.5039 6.2128C11.1096 6.19817 9.9281 6.21767 9.26018 6.54432C8.81489 6.76209 8.47199 7.248 8.68163 7.27563C8.94003 7.30976 9.52507 7.43327 9.83547 7.8558C10.2369 8.40021 10.2222 9.62555 10.2222 9.62555C10.2222 9.62555 10.453 12.9977 9.68433 13.417C9.15617 13.7046 8.43299 13.1179 6.881 10.4349C6.08632 9.06164 5.48502 7.54215 5.48502 7.54215C5.48502 7.54215 5.36964 7.25938 5.16325 7.10824C4.91298 6.9246 4.56195 6.8661 4.56195 6.8661L0.846928 6.88885C0.846928 6.88885 0.289512 6.9051 0.084747 7.14724C-0.0972665 7.36339 0.0701209 7.80867 0.0701209 7.80867C0.0701209 7.80867 2.97909 14.613 6.27158 18.0437C9.29268 21.1883 12.7217 20.9819 12.7217 20.9819H14.2753C14.2753 20.9819 14.745 20.9299 14.9839 20.6715C15.2049 20.4342 15.1967 19.9889 15.1967 19.9889C15.1967 19.9889 15.1659 17.9039 16.1344 17.5968C17.0884 17.2945 18.3137 19.6119 19.6122 20.5041C20.5938 21.1785 21.3397 21.0307 21.3397 21.0307L24.8126 20.9819C24.8126 20.9819 26.6295 20.8698 25.7681 19.4413Z" fill="#3760FB"/>
</g>
<defs>
<clipPath id="clip0">
<rect width="26" height="26" fill="white" transform="translate(0 0.626953)"/>
</clipPath>
</defs>
</svg>
