<svg xmlns="http://www.w3.org/2000/svg" viewBox="0 0 85.11 48.11"><defs><style>.cls-1{fill:#f15940;}</style></defs><title>Asset 58</title><g id="Layer_2" data-name="Layer 2"><g id="Layer_1-2" data-name="Layer 1"><path class="cls-1" d="M0,0A122.74,122.74,0,0,1,24.89,4a116.85,116.85,0,0,1,23.59,9,92.35,92.35,0,0,1,10.86,6.48c1.76,1.15,3.41,2.48,5.09,3.76s3.27,2.68,4.79,4.15A80.74,80.74,0,0,1,84.85,47.25a.48.48,0,1,1-.83.47h0a80,80,0,0,0-15.28-19.8c-1.49-1.47-3.11-2.8-4.71-4.16S60.74,21.13,59,20a91.92,91.92,0,0,0-10.74-6.55A117.21,117.21,0,0,0,24.83,4.26,123,123,0,0,0,0,0Z"/><path class="cls-1" d="M72.36,40.87l11.72,5.9a46.56,46.56,0,0,0-2.46-13.41c-.21-.6.71-1,.92-.39a47.84,47.84,0,0,1,2.57,14.56c0,.34-.31.72-.68.53L72,41.8C71.41,41.51,71.78,40.58,72.36,40.87Z"/></g></g></svg>