<svg xmlns="http://www.w3.org/2000/svg" viewBox="0 0 89.13 61.99"><defs><style>.cls-1{fill:#f15940;}</style></defs><title>Asset 59</title><g id="Layer_2" data-name="Layer 2"><g id="Layer_1-2" data-name="Layer 1"><path class="cls-1" d="M89.13,0a109.19,109.19,0,0,0-13.6,3.09c-4.46,1.29-8.87,2.8-13.18,4.52A133.48,133.48,0,0,0,37.72,20.53,117.85,117.85,0,0,0,26.65,29c-.9.73-1.73,1.54-2.6,2.31s-1.71,1.56-2.52,2.39l-2.46,2.46-2.35,2.56c-.8.84-1.54,1.74-2.28,2.63s-1.5,1.76-2.2,2.69c-1.38,1.85-2.83,3.67-4.09,5.62a110.16,110.16,0,0,0-7,12v0a.49.49,0,0,1-.65.2.48.48,0,0,1-.2-.64h0a111.17,111.17,0,0,1,7.21-12c1.29-2,2.76-3.77,4.17-5.63.71-.92,1.5-1.79,2.24-2.68s1.5-1.79,2.31-2.63l2.39-2.56,2.5-2.45c.82-.83,1.69-1.61,2.56-2.38s1.72-1.58,2.63-2.31a119.65,119.65,0,0,1,11.19-8.36A133.39,133.39,0,0,1,62.26,7.39Q68.77,4.86,75.5,3A109.24,109.24,0,0,1,89.13,0Z"/><path class="cls-1" d="M12.75,54.76,1,60.66A46.62,46.62,0,0,1,3.49,47.24c.21-.6-.71-1-.92-.38A47.79,47.79,0,0,0,0,61.42c0,.34.31.71.68.52l12.45-6.26C13.7,55.39,13.33,54.47,12.75,54.76Z"/></g></g></svg>