<svg xmlns="http://www.w3.org/2000/svg" viewBox="0 0 74.5 70.11"><defs><style>.cls-1{fill:#f15940;}</style></defs><title>Asset 56</title><g id="Layer_2" data-name="Layer 2"><g id="Layer_1-2" data-name="Layer 1"><path class="cls-1" d="M74.5,0C69.47,6.85,64,13.39,58.37,19.74S46.81,32.2,40.67,38.08c-3,3-6.23,5.8-9.38,8.66l-4.85,4.14L24,53l-2.5,2-5,4-5.15,3.78L8.8,64.57,6.15,66.35.86,69.93a.51.51,0,0,1-.7-.14A.5.5,0,0,1,.3,69.1h0l5.31-3.5,2.65-1.75L10.86,62,16,58.25l5-3.9,2.51-2,2.44-2,4.88-4.08c3.17-2.83,6.38-5.6,9.44-8.55,6.19-5.81,12.17-11.86,17.87-18.15S69.4,6.8,74.5,0Z"/><path class="cls-1" d="M14,66,1.2,68.93A46.68,46.68,0,0,1,6.82,56.51c.35-.54-.45-1.15-.8-.6A47.46,47.46,0,0,0,0,69.42c-.09.33.13.77.54.68L14.14,67C14.77,66.87,14.63,65.88,14,66Z"/></g></g></svg>