<svg xmlns="http://www.w3.org/2000/svg" viewBox="0 0 61.11 57.38"><defs><style>.cls-1{fill:#f15940;}</style></defs><title>Asset 57</title><g id="Layer_2" data-name="Layer 2"><g id="Layer_1-2" data-name="Layer 1"><path class="cls-1" d="M0,0A40.31,40.31,0,0,1,10.13,3.24c1.65.67,3.19,1.58,4.78,2.37S18,7.43,19.49,8.35A95.9,95.9,0,0,1,35.85,22a140.15,140.15,0,0,1,13.67,16.4c2,2.93,4,5.91,5.93,8.89l5.4,9.21A.48.48,0,1,1,60,57h0l0,0-5.28-9.23c-1.92-3-3.82-6-5.8-8.92A142.38,142.38,0,0,0,35.51,22.34,95.36,95.36,0,0,0,19.36,8.55c-1.51-.93-3-1.89-4.54-2.78S11.72,4,10.08,3.35A40.22,40.22,0,0,0,0,0Z"/><path class="cls-1" d="M48.36,50.14,60.08,56a46.56,46.56,0,0,0-2.46-13.41c-.21-.61.71-1,.92-.39A47.79,47.79,0,0,1,61.11,56.8c0,.34-.31.72-.69.53L48,51.07C47.41,50.78,47.78,49.85,48.36,50.14Z"/></g></g></svg>