<svg id="Layer_1" data-name="Layer 1" xmlns="http://www.w3.org/2000/svg" xmlns:xlink="http://www.w3.org/1999/xlink" viewBox="0 0 96 95.17"><defs><style>.cls-1{fill:url(#linear-gradient);}.cls-2{fill:url(#linear-gradient-2);}.cls-3{fill:#002e6d;}.cls-4{fill:#e1251b;}.cls-4,.cls-5{fill-rule:evenodd;}.cls-5{fill:#ee5f46;}</style><linearGradient id="linear-gradient" x1="14.2" y1="13.79" x2="81.8" y2="81.38" gradientUnits="userSpaceOnUse"><stop offset="0" stop-color="#868686"/><stop offset="0.15" stop-color="#d9d9d9"/><stop offset="0.3" stop-color="#f0f0f0"/><stop offset="0.45" stop-color="#cfcfcf"/><stop offset="0.6" stop-color="#bcbcbb"/><stop offset="0.85" stop-color="#d9d9d9"/><stop offset="1" stop-color="#a7a6a6"/></linearGradient><linearGradient id="linear-gradient-2" x1="2.64" y1="47.59" x2="93.36" y2="47.59" gradientUnits="userSpaceOnUse"><stop offset="0" stop-color="#868686"/><stop offset="0.15" stop-color="#cfcfcf"/><stop offset="0.3" stop-color="#f0f0f0"/><stop offset="0.39" stop-color="#ccc"/><stop offset="0.45" stop-color="#bcbcbb"/><stop offset="0.6" stop-color="#a7a6a6"/><stop offset="0.85" stop-color="#c6c6c5"/><stop offset="0.89" stop-color="#bcbcbb"/><stop offset="0.97" stop-color="#a0a09f"/><stop offset="1" stop-color="#929191"/></linearGradient></defs><title>kleimArtboard 4</title><ellipse class="cls-1" cx="48" cy="47.59" rx="48" ry="47.59"/><path class="cls-2" d="M48,92.92A45.34,45.34,0,1,1,93.36,47.59,45.4,45.4,0,0,1,48,92.92ZM48,3.06A44.53,44.53,0,1,0,92.55,47.59,44.58,44.58,0,0,0,48,3.06Z"/><path class="cls-3" d="M25.38,39c-1.12,2.9-3.69,4.35-7.5,2.88l-2-.77c-3.85-1.48-4.75-4.26-3.63-7.17s3.65-4.37,7.5-2.88l2,.76C25.56,33.28,26.5,36.08,25.38,39Zm-6.32-.19c2.09.81,3.28.48,3.77-.8s-.17-2.31-2.26-3.12l-2-.77c-2.09-.8-3.28-.47-3.77.8S15,37.23,17.07,38Z"/><path class="cls-3" d="M28.12,23.7,26.53,16l2.37-2,8.72,10.51-2.38,2-4.93-5.95,1.32,6-1.36,1.12-5.57-2.4,4.89,5.9-2.38,2L18.49,22.68l2.35-1.95Z"/><path class="cls-3" d="M44.2,9.51l.59,2.67-5.21,1.17.54,2.43,4.64-1,.6,2.67-4.64,1,.65,2.89,5.21-1.16.6,2.66-8.43,1.89-3-13.33Z"/><path class="cls-3" d="M58.07,13.45l-5.29-.79L51.17,23.47,47.92,23l2-13.52,8.54,1.27Z"/><path class="cls-3" d="M54.47,23.29l10.85-9.56,2.77,1.56L65.52,29.53,62.46,27.8,63,25.41,59.3,23.33,57.53,25Zm6.91-1.92,2.19,1.24.9-4.14Z"/><path class="cls-3" d="M69.85,24.92l3.41,3.84-2,1.74-3.4-3.85Z"/><path class="cls-3" d="M77.5,33.15l.43,1a1.41,1.41,0,0,0,1.92.9,1.32,1.32,0,0,0,.66-1.87,1.4,1.4,0,0,0-1.68-.84l-1.13-2.6a4.22,4.22,0,0,1,5.36,2.56c1,2.38.11,4.88-1.73,5.67a3.32,3.32,0,0,1-3.4-.47,3.52,3.52,0,0,1-2.17,3.1c-2.07.9-4.34.2-5.54-2.57s-.34-5,1.73-6l1.13,2.6a1.54,1.54,0,0,0-.45,2.1,1.46,1.46,0,0,0,2.05.8c.92-.41,1.22-1.16.74-2.27l-.43-1Z"/><path class="cls-3" d="M10.9,56.07,15.32,55l-.11-.47A2.84,2.84,0,0,0,15,54a1.24,1.24,0,0,0-.32-.41,1.47,1.47,0,0,0-.56-.28,2.43,2.43,0,0,0-.85-.08l-3.08.08L10,52.24l3.29-.06a3.9,3.9,0,0,1,1.33.15,1.59,1.59,0,0,1,.89.66,1.54,1.54,0,0,1,.46-.88A3.89,3.89,0,0,1,17,51.36L19.69,50l.24,1L17.3,52.38a2.36,2.36,0,0,0-.69.49,1.47,1.47,0,0,0-.33.51,1.2,1.2,0,0,0-.08.49,2.12,2.12,0,0,0,.07.45l.1.41,4.21-1,.27,1.1-4.21,1,.1.42a2,2,0,0,0,.15.43,1.11,1.11,0,0,0,.29.4,1.67,1.67,0,0,0,.53.3,2.22,2.22,0,0,0,.84.11l3,0,.24,1-3,.05a3.75,3.75,0,0,1-1.31-.17,1.46,1.46,0,0,1-.81-.57,1.6,1.6,0,0,1-.48,1,4.2,4.2,0,0,1-1.11.74L12.1,61l-.26-1.1,2.76-1.34a3.2,3.2,0,0,0,.72-.47,1.44,1.44,0,0,0,.37-.51,1.15,1.15,0,0,0,.09-.51,3,3,0,0,0-.07-.51l-.12-.47-4.42,1.08Z"/><path class="cls-3" d="M21.47,63.74,14.13,65,13.61,64l8.7-4.87.53,1-6.15,3.45,0,0,7.38-1.27.52.93-8.69,4.88-.54-1,6.11-3.43Z"/><path class="cls-3" d="M26.71,65.85a3.27,3.27,0,0,1,.66,1.07,1.91,1.91,0,0,1,.07,1,2.24,2.24,0,0,1-.45.9,5.68,5.68,0,0,1-.88.9,5.93,5.93,0,0,1-.95.7,2.6,2.6,0,0,1-1,.33,1.88,1.88,0,0,1-1-.19,3.21,3.21,0,0,1-1.05-.85l-.53-.62-3,2.63-.74-.86,7.54-6.52ZM22.4,68.38l.51.58a1.68,1.68,0,0,0,.66.52,1.14,1.14,0,0,0,.62.09,1.42,1.42,0,0,0,.59-.24,5.77,5.77,0,0,0,.59-.45,5.43,5.43,0,0,0,.54-.53,1.79,1.79,0,0,0,.34-.57,1.09,1.09,0,0,0,0-.62,1.68,1.68,0,0,0-.41-.7l-.52-.61Z"/><path class="cls-3" d="M25.76,78.43l2.8-3.65-1.84-1.41L23.92,77l-.9-.68,6.07-7.91.89.68-2.66,3.48L29.16,74l2.67-3.48.89.69-6.06,7.91Z"/><path class="cls-3" d="M29.66,81l4-9.13,1,.46L33.09,76l.74.33A3.39,3.39,0,0,1,35,77.1a1.89,1.89,0,0,1,.48.87,2.08,2.08,0,0,1,0,1,6.78,6.78,0,0,1-.37,1.1,7.72,7.72,0,0,1-.61,1.12,2.55,2.55,0,0,1-.75.72,1.81,1.81,0,0,1-1,.25,3.14,3.14,0,0,1-1.22-.3Zm1.46-.53.74.32a1.74,1.74,0,0,0,.79.19,1.07,1.07,0,0,0,.59-.2,1.71,1.71,0,0,0,.44-.48,5.41,5.41,0,0,0,.35-.68,4,4,0,0,0,.25-.68,1.35,1.35,0,0,0,0-.63,1.15,1.15,0,0,0-.26-.56,2,2,0,0,0-.7-.47L32.66,77Zm3.42,2.68,4-9.12,1,.45-4,9.13Z"/><path class="cls-3" d="M39,84.54l1.87-9.79,4.19.8-.19,1L41.78,76l-.63,3.27,2.67.51-.19,1L41,80.29l-.66,3.43,3.08.59-.19,1Z"/><path class="cls-3" d="M49.78,85.59l-1-9.92,1.12-.12.46,4.32.51-.05.44-.09a1.36,1.36,0,0,0,.44-.24,1.69,1.69,0,0,0,.37-.48,2.61,2.61,0,0,0,.22-.82l.38-2.93,1-.11-.35,3A4,4,0,0,1,53,79.39a1.57,1.57,0,0,1-.68.73,1.57,1.57,0,0,1,.93.61,4.2,4.2,0,0,1,.59,1.2l1,3.12-1.13.12-1-2.93a3.26,3.26,0,0,0-.37-.77A1.39,1.39,0,0,0,52,81a1.17,1.17,0,0,0-.5-.16,2.18,2.18,0,0,0-.51,0l-.57.06.48,4.53Z"/><path class="cls-3" d="M59,76.59,58.8,84l-1,.34-3.15-9.46,1-.35,2.22,6.69H58l.13-7.48,1-.34,3.15,9.46-1,.34L59,76.58Z"/><path class="cls-3" d="M62.13,71.69a2.1,2.1,0,0,1,1.78-.29,2.52,2.52,0,0,1,1.27,1.16l-.88.74a1.87,1.87,0,0,0-.72-.79,1,1,0,0,0-.94.1.92.92,0,0,0-.4.41,1.1,1.1,0,0,0-.09.51,1.49,1.49,0,0,0,.11.54,3.19,3.19,0,0,0,.24.49L65,78.91a2.22,2.22,0,0,0,.27.38,1.4,1.4,0,0,0,.37.32,1.23,1.23,0,0,0,.46.14,1,1,0,0,0,.55-.15,1,1,0,0,0,.54-.71,1.81,1.81,0,0,0-.3-1.08L68,77.4a2.48,2.48,0,0,1,.33,1.74,2.14,2.14,0,0,1-1.13,1.35,2.16,2.16,0,0,1-1.78.3,2.61,2.61,0,0,1-1.37-1.26L61.6,75.26a5.09,5.09,0,0,1-.44-1,2.47,2.47,0,0,1-.16-1,1.79,1.79,0,0,1,.28-.89A2.32,2.32,0,0,1,62.13,71.69Z"/><path class="cls-3" d="M69.56,72.58A19.66,19.66,0,0,1,71,74.33a6.14,6.14,0,0,1,.75,1.32A2.5,2.5,0,0,1,72,76.72a4,4,0,0,1-.25,1l-.93-.26a6.52,6.52,0,0,0,.12-.73A2,2,0,0,0,70.8,76a3.25,3.25,0,0,0-.44-.91,10.37,10.37,0,0,0-1-1.21l-3.92-4.34,3.09-2.78,6.67,7.4L74.4,75l-6-6.62-1.49,1.34Z"/><path class="cls-3" d="M78,66.47a3.47,3.47,0,0,1,1.36,1.63A2,2,0,0,1,78.86,70a2.09,2.09,0,0,1-1.57,1,2.85,2.85,0,0,1-1.75-.63l-4-2.89a6.34,6.34,0,0,1-.78-.68,2.54,2.54,0,0,1-.52-.81,1.82,1.82,0,0,1-.1-.93A2.55,2.55,0,0,1,70.66,64a3.06,3.06,0,0,1,.87-.84,1.69,1.69,0,0,1,.88-.22,2.34,2.34,0,0,1,.9.25,7.92,7.92,0,0,1,.94.59Zm-4.53-1.91a4.92,4.92,0,0,0-.45-.28,1.51,1.51,0,0,0-.49-.17,1.09,1.09,0,0,0-.5.06,1.12,1.12,0,0,0-.49.42,1,1,0,0,0-.22.66,1.25,1.25,0,0,0,.19.56,2,2,0,0,0,.41.47l.42.33,3.9,2.84a3,3,0,0,0,.4.24,1.42,1.42,0,0,0,.47.13,1.06,1.06,0,0,0,.49-.08,1.3,1.3,0,0,0,.68-.95,1,1,0,0,0-.09-.5,1.42,1.42,0,0,0-.3-.45,4.15,4.15,0,0,0-.44-.38Z"/><path class="cls-3" d="M74.63,59.39l8.07,3.79-.48,1-8.08-3.79-.71,1.53-1-.44,1.92-4.09.94.45Z"/><path class="cls-3" d="M84.49,58.85l-9.74-2.11.24-1.1,3.93.85.17-.8a3.58,3.58,0,0,1,.49-1.25,1.87,1.87,0,0,1,.76-.65,2.33,2.33,0,0,1,1-.19,6.05,6.05,0,0,1,1.15.15,7.71,7.71,0,0,1,1.22.37,2.48,2.48,0,0,1,.86.59,1.86,1.86,0,0,1,.43.89,3.05,3.05,0,0,1,0,1.26Zm1.13-5.22-9.74-2.11.24-1.11,9.74,2.11Zm-1.94,3.89.17-.79a1.73,1.73,0,0,0,0-.81,1,1,0,0,0-.31-.54,1.63,1.63,0,0,0-.56-.33,4.12,4.12,0,0,0-.73-.21,5.05,5.05,0,0,0-.72-.11,1.48,1.48,0,0,0-.63.07,1.11,1.11,0,0,0-.49.38,1.9,1.9,0,0,0-.32.77l-.17.76Z"/><path class="cls-4" d="M45,45.93c-1.94-5.16-4-7.85-8.21-7.38,1.36-2.9,6.92-4,10.16-.33A12.39,12.39,0,0,0,45,45.93Z"/><path class="cls-4" d="M44.46,43.12C43,40,41.09,38,38,37.88a5.51,5.51,0,0,1,3.77-1.38,6.07,6.07,0,0,1,4.34,1.79A11.82,11.82,0,0,0,44.46,43.12Z"/><path class="cls-5" d="M40.24,35.52c-4.57.68-6.7,4.79-3.43,8.6,3.42,4,8.41,3.87,11.77,8.31C50.5,55,50.83,57,46.41,57.25c-4.91.31-9.9-3.08-6-8.29a4.48,4.48,0,0,0-1.56,6.82c-11-1.89-12.11-21.58,1.42-20.26Zm4.23,18.13a.95.95,0,1,0,1,1A.95.95,0,0,0,44.47,53.65Z"/><path class="cls-5" d="M45.77,56.64c-2.65,0-5-1.1-5.82-2.74-.65-1.3-.33-2.88.93-4.57l-.77-.94a4.85,4.85,0,0,0-2.74,3.38,5.27,5.27,0,0,0,.19,3c-4.62-1.57-7-6.7-6.58-11.22.26-3.05,1.89-6.28,5.62-7.24a5.35,5.35,0,0,0-1.69,2.29,5.84,5.84,0,0,0,1.43,5.88,16.6,16.6,0,0,0,5.81,4c2.19,1.07,4.26,2.08,5.93,4.29,1.26,1.66,1.32,2.45,1.15,2.82-.25.54-1.26.89-2.86,1ZM44.47,53a1.57,1.57,0,1,0,1.58,1.57A1.57,1.57,0,0,0,44.47,53Z"/><path class="cls-5" d="M52.82,56.67C59.67,53,61.59,45.14,57.52,43c2-.67,4.21.95,5.22,2.74a4.44,4.44,0,0,0-3-3.48,3.74,3.74,0,0,0-4.43,1.47c1.36-5-3.33-5-3.33-5a3.69,3.69,0,0,1,2.7,2.64c.66,2.4-2.26,5.08-4.79,6.72-4,2.62-4.45-2-3.35-6.2,2.32-9,14.24-11.66,18.31-3,3,6.33-1.85,16.06-12,17.84ZM50.33,42.92a.95.95,0,1,0,.94.94A.95.95,0,0,0,50.33,42.92Z"/><path class="cls-5" d="M56.16,55.06a11.79,11.79,0,0,0,4.1-8.16,5.3,5.3,0,0,0-1.09-3.39,5.34,5.34,0,0,1,3,2.5l1.15-.47a5.07,5.07,0,0,0-3.45-3.92,5.29,5.29,0,0,0-1.52-.23,4.28,4.28,0,0,0-2.22.59,3.78,3.78,0,0,0-.74-2.36A4.71,4.71,0,0,0,52,38.05l-.18,1.22a3.12,3.12,0,0,1,2.28,2.2c.53,1.94-2,4.39-4.53,6a3.33,3.33,0,0,1-1.69.67.81.81,0,0,1-.7-.35c-.68-.88-.69-3.23,0-5.84a10.3,10.3,0,0,1,9.68-7.83,8.09,8.09,0,0,1,7.47,4.93,10.54,10.54,0,0,1-.59,9.22A14.52,14.52,0,0,1,56.16,55.06ZM50.33,42.29a1.57,1.57,0,1,0,1.57,1.57A1.57,1.57,0,0,0,50.33,42.29Z"/><path class="cls-4" d="M43.77,66.05c2.56-3.49-.91-6.75-5.61-9.42,8.94,3.67,18,2.19,23.1-2.52C55.19,60.34,50.72,63,43.77,66.05Z"/><path class="cls-4" d="M45.11,64.76a4.23,4.23,0,0,0,.06-2,7.88,7.88,0,0,0-3-4.17,26.15,26.15,0,0,0,6.06.73,22.14,22.14,0,0,0,8.1-1.47A47.11,47.11,0,0,1,45.11,64.76Z"/></svg>