<svg id="Layer_1" data-name="Layer 1" xmlns="http://www.w3.org/2000/svg" xmlns:xlink="http://www.w3.org/1999/xlink" viewBox="0 0 96 95.17"><defs><style>.cls-1{fill:url(#linear-gradient);}.cls-2,.cls-4{fill:#002e6d;}.cls-3{fill:#ee5f46;}.cls-4{stroke:#002e6d;stroke-miterlimit:10;stroke-width:0.57px;}.cls-5{fill:url(#linear-gradient-2);}</style><linearGradient id="linear-gradient" x1="14.2" y1="13.79" x2="81.8" y2="81.38" gradientUnits="userSpaceOnUse"><stop offset="0" stop-color="#868686"/><stop offset="0.15" stop-color="#d9d9d9"/><stop offset="0.3" stop-color="#f0f0f0"/><stop offset="0.45" stop-color="#cfcfcf"/><stop offset="0.6" stop-color="#bcbcbb"/><stop offset="0.85" stop-color="#d9d9d9"/><stop offset="1" stop-color="#a7a6a6"/></linearGradient><linearGradient id="linear-gradient-2" x1="2.85" y1="47.59" x2="93.15" y2="47.59" gradientUnits="userSpaceOnUse"><stop offset="0" stop-color="#868686"/><stop offset="0.15" stop-color="#cfcfcf"/><stop offset="0.3" stop-color="#f0f0f0"/><stop offset="0.39" stop-color="#ccc"/><stop offset="0.45" stop-color="#bcbcbb"/><stop offset="0.6" stop-color="#a7a6a6"/><stop offset="0.85" stop-color="#c6c6c5"/><stop offset="0.89" stop-color="#bcbcbb"/><stop offset="0.97" stop-color="#a0a09f"/><stop offset="1" stop-color="#929191"/></linearGradient></defs><title>kleimArtboard 5</title><ellipse class="cls-1" cx="48" cy="47.59" rx="48" ry="47.59"/><path class="cls-2" d="M18,24.62a3,3,0,0,1,1.88-1.36,2.63,2.63,0,0,1,2,.53l.12.09.12.1-.95,2a1.7,1.7,0,0,0-.81-.32.67.67,0,0,0-.73.6.6.6,0,0,0,0,.3.73.73,0,0,0,.17.26A1.17,1.17,0,0,0,20,27l4.72,3.4a.91.91,0,0,0,.43.17c.16,0,.32-.09.48-.31a.6.6,0,0,0,.07-.61,1.53,1.53,0,0,0-.58-.69l1.52-1.62A3.24,3.24,0,0,1,28,29.21a2.71,2.71,0,0,1-.58,2.22,3,3,0,0,1-1.89,1.4,3,3,0,0,1-2.17-.7l-4.65-3.34a3.2,3.2,0,0,1-1.34-1.87A2.84,2.84,0,0,1,18,24.62Z"/><path class="cls-2" d="M32.33,22.52a2.9,2.9,0,0,1,.83,2.15,3,3,0,0,1-1.22,1.94q-2.24,1.86-4.08-.35l-3.75-4.5a2.81,2.81,0,0,1-.81-2.16,3.09,3.09,0,0,1,1.19-1.9,3.07,3.07,0,0,1,2.15-.88A2.92,2.92,0,0,1,28.58,18Zm-5.54-3.1a.72.72,0,0,0-.5-.3.7.7,0,0,0-.46.18.72.72,0,0,0-.26.43.65.65,0,0,0,.2.54l3.87,4.63a.67.67,0,0,0,.5.3A.75.75,0,0,0,30.6,25a.68.68,0,0,0,.26-.42.69.69,0,0,0-.2-.54Z"/><path class="cls-2" d="M36.24,23.45l.87,2-1.68.74L33.78,22.4l.59-.4a2.71,2.71,0,0,0,.09-1.43,10,10,0,0,0-.4-1.32L31.59,13l4.86-2.14,3.76,8.55.8-.35L42.72,23,41,23.71l-.87-2ZM36,18.65A13.46,13.46,0,0,1,36.42,20a3.27,3.27,0,0,1,.1,1.07l1.69-.74-2.9-6.6-1.11.49Z"/><path class="cls-2" d="M42.73,20.93,41.05,9.64l5.17-.77L46.54,11l-3,.44.36,2.4,2.59-.39.32,2.11-2.6.39.39,2.56,3-.44.32,2.11Z"/><path class="cls-2" d="M52.56,9a4.89,4.89,0,0,1,1.29.29,2.43,2.43,0,0,1,.94.66,2.7,2.7,0,0,1,.55,1.14,5.45,5.45,0,0,1,.08,1.71,4.49,4.49,0,0,1-1,2.66,2.81,2.81,0,0,1-2.47.75l-.53,0-.37,4.16-2.22-.2,1-11.37Zm-.66,2.09-.27,3,.38,0a2,2,0,0,0,.42,0,.91.91,0,0,0,.39-.2,1.23,1.23,0,0,0,.3-.46,2.59,2.59,0,0,0,.17-.8,1.5,1.5,0,0,0-.2-1.09,1.09,1.09,0,0,0-.78-.39Z"/><path class="cls-2" d="M65,18.34a2.21,2.21,0,0,1,.62,1,3,3,0,0,1,0,1.38l-.86,3.91-2.05-.89.75-3.23c.05-.22.09-.42.12-.61a1.49,1.49,0,0,0,0-.51.93.93,0,0,0-.16-.41.88.88,0,0,0-.39-.3l-.27-.11L60.82,23l-2-.89,1.91-4.37-.27-.12a.77.77,0,0,0-.89.08,3.83,3.83,0,0,0-.72.86l-1.86,2.75-2-.89,2.28-3.3a2.92,2.92,0,0,1,1-.95,2.38,2.38,0,0,1,1.14-.24l0-.06a2.3,2.3,0,0,1-.5-1,2.75,2.75,0,0,1,0-1.39L59.6,10l1.95.84L60.84,14a2.62,2.62,0,0,0-.06,1.16.86.86,0,0,0,.47.63l.21.09,1.88-4.3,2,.89-1.87,4.3.21.09a.82.82,0,0,0,.78-.08,2.59,2.59,0,0,0,.82-.83l1.82-2.66,1.94.85-2,2.91a2.85,2.85,0,0,1-1,1,2.13,2.13,0,0,1-1,.29Z"/><path class="cls-2" d="M71.94,23.56l-5.33,3.21L65,25.29l7.73-8.4,1.62,1.48-4.1,4.46,0,0,5.37-3.28,1.64,1.51L69.58,29.5,67.93,28l4-4.4Z"/><path class="cls-2" d="M79.93,28.23l-7.75,5.12L71,31.49l7.74-5.12-1-1.47,1.78-1.17,3.17,4.79L80.9,29.69Z"/><path class="cls-2" d="M21.93,64.92l-2.05.28-2.45.24L17.19,65l1.53-1.94,1.34-1.57,0,0-5.68,3.1-.51-.93,8.2-4.47.51.94-2,2.37L19,64.31l0,0L21.45,64l3-.41.52,1L16.8,69l-.51-.93L22,65Z"/><path class="cls-2" d="M25.52,69.44,19,71.87l-.64-.76,7.12-6,.66.78-5,4.26,0,0,6.55-2.49.65.77-7.12,6-.66-.78,5-4.23Z"/><path class="cls-2" d="M23,76.21l6-7.17.82.67-2.6,3.13.37.31a3.53,3.53,0,0,0,.35.24,1.25,1.25,0,0,0,.44.13,1.4,1.4,0,0,0,.56-.06,2.18,2.18,0,0,0,.7-.39l2.22-1.66.74.62L30.3,73.74a3.46,3.46,0,0,1-1.08.6,1.39,1.39,0,0,1-.92,0,1.52,1.52,0,0,1,.19,1,3.91,3.91,0,0,1-.42,1.18L26.66,79.3l-.81-.68,1.34-2.55a3.14,3.14,0,0,0,.27-.75,1.41,1.41,0,0,0,0-.58,1.35,1.35,0,0,0-.22-.45,3.51,3.51,0,0,0-.33-.34l-.42-.34-2.72,3.28Z"/><path class="cls-2" d="M34.68,73.27a3,3,0,0,1,.92.74,1.75,1.75,0,0,1,.36.83,2,2,0,0,1-.12.94,5.54,5.54,0,0,1-.49,1.07,7.26,7.26,0,0,1-.63.91,2.24,2.24,0,0,1-.76.59,1.83,1.83,0,0,1-.94.15,3,3,0,0,1-1.18-.43l-.67-.38L29.3,80.94l-.92-.52L33,72.32Zm-3,3.57.63.36a1.66,1.66,0,0,0,.74.25,1.1,1.1,0,0,0,.58-.12,1.27,1.27,0,0,0,.45-.39c.13-.17.25-.36.38-.57s.22-.44.31-.65a1.49,1.49,0,0,0,.12-.6,1,1,0,0,0-.18-.55,1.64,1.64,0,0,0-.58-.5l-.65-.37Z"/><path class="cls-2" d="M38.88,82.52a3.16,3.16,0,0,1-1.12,1.64,1.9,1.9,0,0,1-1.8.07,1.93,1.93,0,0,1-1.32-1.16,2.62,2.62,0,0,1,.1-1.73L36.32,77a5.43,5.43,0,0,1,.41-.88,2.26,2.26,0,0,1,.59-.67,1.73,1.73,0,0,1,.81-.34,2.43,2.43,0,0,1,1.1.17,2.93,2.93,0,0,1,1,.56,1.5,1.5,0,0,1,.42.74,2.12,2.12,0,0,1,0,.87,6.66,6.66,0,0,1-.28,1ZM39.42,78a3.36,3.36,0,0,0,.14-.48,1.31,1.31,0,0,0,0-.48.86.86,0,0,0-.19-.44,1,1,0,0,0-.5-.33.9.9,0,0,0-.64,0,1.23,1.23,0,0,0-.46.32,2.3,2.3,0,0,0-.32.49l-.19.47-1.54,4.24a2.33,2.33,0,0,0-.11.42,1.14,1.14,0,0,0,0,.45.9.9,0,0,0,.19.42,1,1,0,0,0,.47.31.94.94,0,0,0,.56.06.9.9,0,0,0,.43-.2,1.52,1.52,0,0,0,.32-.39,3.22,3.22,0,0,0,.23-.5Z"/><path class="cls-2" d="M41.47,83.69c-.1.74.17,1.16.8,1.27a.83.83,0,0,0,.53,0,.93.93,0,0,0,.37-.28,1.5,1.5,0,0,0,.23-.41,2.62,2.62,0,0,0,.11-.42l.37-2-2.13-.38.18-1,2.13.39.31-1.72a2,2,0,0,0-.06-1,.89.89,0,0,0-.75-.52.86.86,0,0,0-.79.2,1.55,1.55,0,0,0-.42.78l-1-.42a2.25,2.25,0,0,1,.85-1.28,2.1,2.1,0,0,1,1.59-.23,2.18,2.18,0,0,1,1,.4,1.8,1.8,0,0,1,.52.69,2.12,2.12,0,0,1,.14.84,6.4,6.4,0,0,1-.09.88l-.84,4.69a2.41,2.41,0,0,1-.81,1.54,2,2,0,0,1-1.66.31,2.08,2.08,0,0,1-1.37-.74,2.12,2.12,0,0,1-.35-1.45Z"/><path class="cls-2" d="M48.28,81.74c0,.86-.06,1.57-.13,2.13a5.87,5.87,0,0,1-.32,1.38,2.33,2.33,0,0,1-.56.85,3.53,3.53,0,0,1-.84.57L46,85.9a6.37,6.37,0,0,0,.54-.43,2.13,2.13,0,0,0,.43-.57A3.17,3.17,0,0,0,47.2,84a9,9,0,0,0,.11-1.44l.09-5.47,3.89.07-.15,9.33-1.06,0,.14-8.35-1.88,0Z"/><path class="cls-2" d="M53.56,86.22,52.06,77,56,76.37l.16,1-2.9.48.51,3.08,2.51-.41.16,1-2.52.41.53,3.23,2.9-.48.16,1Z"/><path class="cls-2" d="M62.1,77.27v2.06L62,81.8l-.46.17-1.7-1.78-1.37-1.55-.06,0,2.28,6-1,.37-3.29-8.73,1-.38,2.06,2.33,1.61,1.83h0V74.57l1-.38,3.29,8.73-1,.37-2.28-6.05Z"/><path class="cls-2" d="M67.68,81.67l-4.9-7.94,3.4-2.1.51.83L64.19,74l1.64,2.65L68,75.33l.52.83L66.35,77.5l1.72,2.78,2.49-1.54.52.83Z"/><path class="cls-2" d="M75.15,76.22,72.32,73l-1.64,1.43,2.84,3.24-.8.7-6.15-7,.8-.7,2.7,3.09,1.64-1.44L69,69.2l.8-.7,6.15,7Z"/><path class="cls-2" d="M72.57,66.75,79,72.08l-.68.82-6.43-5.33-1,1.22-.75-.63,2.69-3.25.76.62Z"/><path class="cls-2" d="M81.28,69.16l-8.17-4.51.51-.93,3.3,1.82.37-.67a3.35,3.35,0,0,1,.78-1,1.76,1.76,0,0,1,.85-.38,2.11,2.11,0,0,1,.92.1,5.66,5.66,0,0,1,1,.44,6,6,0,0,1,1,.66,2.31,2.31,0,0,1,.62.76,1.74,1.74,0,0,1,.15.91,2.89,2.89,0,0,1-.39,1.12Zm2.42-4.38-8.17-4.51.51-.93,8.17,4.51Zm-2.79,3,.37-.65a1.77,1.77,0,0,0,.24-.73,1,1,0,0,0-.14-.56,1.34,1.34,0,0,0-.41-.45,5.16,5.16,0,0,0-.6-.39c-.22-.11-.42-.21-.62-.29a1.32,1.32,0,0,0-.58-.1,1.09,1.09,0,0,0-.55.2,1.87,1.87,0,0,0-.49.61l-.35.63Z"/><path class="cls-3" d="M33.1,33.85a.81.81,0,1,1,0-1.62.81.81,0,1,1,0,1.62Z"/><path class="cls-3" d="M36.68,31.61a.95.95,0,1,1,1-.94A.95.95,0,0,1,36.68,31.61Z"/><circle class="cls-3" cx="40.65" cy="29.01" r="1.08"/><path class="cls-3" d="M44.86,29.36a1.22,1.22,0,0,1,0-2.44,1.22,1.22,0,0,1,0,2.44Z"/><path class="cls-3" d="M49.16,29.41a1.36,1.36,0,1,1,1.36-1.36A1.36,1.36,0,0,1,49.16,29.41Z"/><circle class="cls-3" cx="53.41" cy="28.76" r="1.49"/><path class="cls-3" d="M57.44,31.87a1.63,1.63,0,1,1,1.63-1.63A1.62,1.62,0,0,1,57.44,31.87Z"/><path class="cls-3" d="M61.12,34.23a1.76,1.76,0,1,1,1.76-1.76A1.76,1.76,0,0,1,61.12,34.23Z"/><circle class="cls-3" cx="64.3" cy="35.36" r="1.9"/><path class="cls-3" d="M61.51,64.63a.95.95,0,1,1-.95.94A.95.95,0,0,1,61.51,64.63Z"/><path class="cls-3" d="M57.54,66.14a1.09,1.09,0,1,1-1.09,1.09A1.08,1.08,0,0,1,57.54,66.14Z"/><path class="cls-3" d="M53.33,66.88a1.22,1.22,0,0,1,0,2.44,1.22,1.22,0,0,1,0-2.44Z"/><path class="cls-3" d="M49,66.83a1.36,1.36,0,1,1-1.36,1.36A1.36,1.36,0,0,1,49,66.83Z"/><path class="cls-3" d="M44.78,66a1.49,1.49,0,1,1-1.49,1.49A1.49,1.49,0,0,1,44.78,66Z"/><path class="cls-3" d="M40.75,64.37A1.63,1.63,0,1,1,39.12,66,1.62,1.62,0,0,1,40.75,64.37Z"/><path class="cls-3" d="M37.07,62a1.76,1.76,0,1,1-1.76,1.76A1.76,1.76,0,0,1,37.07,62Z"/><path class="cls-3" d="M33.88,59A1.9,1.9,0,1,1,32,60.88,1.9,1.9,0,0,1,33.88,59Z"/><path class="cls-4" d="M16.3,37.54a3.8,3.8,0,0,1,1.41.26,6.38,6.38,0,0,1,1.11.55,4.55,4.55,0,0,1,1,.78,4.84,4.84,0,0,1,.38-.58,4.17,4.17,0,0,1,.39-.42,2.73,2.73,0,0,1,.44-.34h.54v4.62h-.87a8.72,8.72,0,0,0-.86-2.12,5.75,5.75,0,0,0-1.22-1.47,2.8,2.8,0,0,0-1.87-.67,2.46,2.46,0,0,0-1.29.4,3.47,3.47,0,0,0-1.13,1.37,9.51,9.51,0,0,0-.79,2.55,23.1,23.1,0,0,0-.29,4,21.91,21.91,0,0,0,.3,4,8.45,8.45,0,0,0,.86,2.54,3.28,3.28,0,0,0,1.29,1.36,3.31,3.31,0,0,0,1.6.41,3.22,3.22,0,0,0,1.51-.38,4.47,4.47,0,0,0,1.29-1A5.09,5.09,0,0,0,21,51.83a4.47,4.47,0,0,0,.34-1.75h.55a5.43,5.43,0,0,1-.38,2,5.3,5.3,0,0,1-1.06,1.66,5.4,5.4,0,0,1-1.6,1.15,4.78,4.78,0,0,1-2,.42,7.91,7.91,0,0,1-3.11-.58A6.15,6.15,0,0,1,11.37,53a7.62,7.62,0,0,1-1.48-2.78,14.28,14.28,0,0,1,0-7.6,8,8,0,0,1,1.42-2.78,6.13,6.13,0,0,1,2.19-1.72A6.64,6.64,0,0,1,16.3,37.54Z"/><path class="cls-4" d="M27.47,42.41a6.47,6.47,0,0,1,2.33.39,4.82,4.82,0,0,1,1.72,1.09,4.46,4.46,0,0,1,1.06,1.65A5.74,5.74,0,0,1,33,47.65v6.57l1.31.36V55h-2A2.47,2.47,0,0,1,31,54.67a2.9,2.9,0,0,1-.77-.62,2.75,2.75,0,0,1-.48-.93,4,4,0,0,1-.72,1.1,3.78,3.78,0,0,1-1,.75,3,3,0,0,1-1.47.34,5.58,5.58,0,0,1-1.78-.25,3.49,3.49,0,0,1-1.26-.71,2.94,2.94,0,0,1-.76-1A3.25,3.25,0,0,1,22.54,52a4.88,4.88,0,0,1,.11-1,5.55,5.55,0,0,1,.26-.84,5.43,5.43,0,0,1,.4-.8c.61-.16,1.26-.31,2-.44s1.24-.22,2-.33,1.47-.17,2.21-.2v-.73a13.74,13.74,0,0,0-.16-2.34,4.72,4.72,0,0,0-.47-1.46,1.68,1.68,0,0,0-.76-.74,2.38,2.38,0,0,0-1-.21,2,2,0,0,0-.44,0l-.35.08-.3.12v3.65l-.29.08-.27,0-.32,0a1.51,1.51,0,0,1-1.19-.5,1.93,1.93,0,0,1-.45-1.33,2.18,2.18,0,0,1,.23-1,2.38,2.38,0,0,1,.72-.85,4.11,4.11,0,0,1,1.26-.61A6.55,6.55,0,0,1,27.47,42.41Zm-.88,6.82a4.91,4.91,0,0,0-.22.73c-.05.23-.11.49-.15.8a7.91,7.91,0,0,0-.07,1,3.87,3.87,0,0,0,.41,2.07,1.11,1.11,0,0,0,.91.61,1.29,1.29,0,0,0,.86-.3,3.17,3.17,0,0,0,.61-.67,6,6,0,0,0,.5-1V49c-.34,0-.67,0-1,0s-.64,0-.92.09Z"/><path class="cls-4" d="M58,37.91v.36l-1.31.37V54.22l1.31.36V55H51.79v-.37l1.31-.36V41L48,55.19H47.3L40.61,41v12.9l1.76.73V55H38.2v-.37L40,53.85V38.64l-1.32-.37v-.36h2.74a3.13,3.13,0,0,1,1.07.16,2.82,2.82,0,0,1,.81.42,2.7,2.7,0,0,1,.61.65,6.61,6.61,0,0,1,.47.84l4.77,10.15L52.77,40a4.33,4.33,0,0,1,.41-.89,2.31,2.31,0,0,1,.56-.64,2.21,2.21,0,0,1,.81-.41,4.42,4.42,0,0,1,1.18-.13Z"/><path class="cls-4" d="M63.81,42.66a7.13,7.13,0,0,1,1.93.24,4.2,4.2,0,0,1,1.36.61,2.59,2.59,0,0,1,.46-.73,2.47,2.47,0,0,1,.65-.5,2,2,0,0,1,1-.23,1.6,1.6,0,0,1,1.25.57,2.16,2.16,0,0,1,.5,1.5,1.72,1.72,0,0,1-.35,1.15,1.05,1.05,0,0,1-.85.43h-.31l-.24,0L69,45.58V42.66a1,1,0,0,0-.63.19,2.5,2.5,0,0,0-.44.41,2.3,2.3,0,0,0-.35.61,3.45,3.45,0,0,1,.83,1.27,4.24,4.24,0,0,1,.26,1.53,4.19,4.19,0,0,1-.29,1.61,3.53,3.53,0,0,1-.89,1.27,4.15,4.15,0,0,1-1.5.83,6.57,6.57,0,0,1-2.14.31,7,7,0,0,1-1.55-.17A6.29,6.29,0,0,1,61,50.08l-.44.24a2.07,2.07,0,0,0-.31.27.48.48,0,0,0-.13.34.71.71,0,0,0,.34.61,2.75,2.75,0,0,0,1.41.24H66a3.27,3.27,0,0,1,2.58,1,4.33,4.33,0,0,1,.93,3,4.26,4.26,0,0,1-.34,1.72,3.74,3.74,0,0,1-1,1.38,5.07,5.07,0,0,1-1.81.94,8.86,8.86,0,0,1-2.62.34,11.92,11.92,0,0,1-2.6-.24,5.65,5.65,0,0,1-1.69-.63,2.55,2.55,0,0,1-.91-.87,1.87,1.87,0,0,1-.27-.93,1.9,1.9,0,0,1,.45-1.33,1.53,1.53,0,0,1,1.19-.5l.36,0,.28,0,.24,0v3.41a5.33,5.33,0,0,0,.83.24,7.7,7.7,0,0,0,.86.17,7,7,0,0,0,1.05.08,9.73,9.73,0,0,0,2.42-.26,5.18,5.18,0,0,0,1.58-.66,2.4,2.4,0,0,0,.88-.92,2.33,2.33,0,0,0,.26-1.09,1.38,1.38,0,0,0-.13-.6,1.27,1.27,0,0,0-.44-.52,2.56,2.56,0,0,0-.81-.34A5.45,5.45,0,0,0,66,55.19H61.84a3.59,3.59,0,0,1-2.56-.79,2.51,2.51,0,0,1-.83-1.89,2.23,2.23,0,0,1,.31-1.22,3.53,3.53,0,0,1,.72-.84,3.86,3.86,0,0,1,1.05-.61,3.3,3.3,0,0,1-1.19-1.35A4.54,4.54,0,0,1,59,46.67a4.15,4.15,0,0,1,.3-1.6,3.41,3.41,0,0,1,.89-1.27,4,4,0,0,1,1.5-.84A6.8,6.8,0,0,1,63.81,42.66Zm0,7.54a1.22,1.22,0,0,0,.62-.16,1.18,1.18,0,0,0,.48-.56,4,4,0,0,0,.32-1.08,10.23,10.23,0,0,0,.12-1.73,10.39,10.39,0,0,0-.12-1.73,4.24,4.24,0,0,0-.32-1.08,1.23,1.23,0,0,0-.48-.56,1.33,1.33,0,0,0-.62-.16,1.29,1.29,0,0,0-.61.16,1.23,1.23,0,0,0-.48.56,4.24,4.24,0,0,0-.32,1.08,10.39,10.39,0,0,0-.12,1.73,10.23,10.23,0,0,0,.12,1.73,4,4,0,0,0,.32,1.08,1.15,1.15,0,0,0,1.09.72Z"/><path class="cls-4" d="M75.42,38.27v-.36h6.25v.36l-1.32.37V54.22l1.32.36V55H75.42v-.37l1.32-.36V38.64Z"/><path class="cls-5" d="M48,92.73A45.14,45.14,0,1,1,93.15,47.59,45.19,45.19,0,0,1,48,92.73ZM48,3.4A44.19,44.19,0,1,0,92.2,47.59,44.24,44.24,0,0,0,48,3.4Z"/></svg>