<svg id="Layer_1" data-name="Layer 1" xmlns="http://www.w3.org/2000/svg" xmlns:xlink="http://www.w3.org/1999/xlink" viewBox="0 0 97.11 96.88"><defs><style>.cls-1{fill:url(#linear-gradient);}.cls-2{fill:#e1251b;}.cls-2,.cls-3{fill-rule:evenodd;}.cls-3{fill:#ee5f46;}.cls-4{fill:#002e6d;}.cls-5{fill:url(#linear-gradient-2);}</style><linearGradient id="linear-gradient" x1="15.33" y1="14.44" x2="82.93" y2="82.03" gradientUnits="userSpaceOnUse"><stop offset="0" stop-color="#868686"/><stop offset="0.15" stop-color="#d9d9d9"/><stop offset="0.3" stop-color="#f0f0f0"/><stop offset="0.45" stop-color="#cfcfcf"/><stop offset="0.6" stop-color="#bcbcbb"/><stop offset="0.85" stop-color="#d9d9d9"/><stop offset="1" stop-color="#a7a6a6"/></linearGradient><linearGradient id="linear-gradient-2" x1="3.86" y1="48.23" x2="94.4" y2="48.23" gradientUnits="userSpaceOnUse"><stop offset="0" stop-color="#868686"/><stop offset="0.15" stop-color="#cfcfcf"/><stop offset="0.3" stop-color="#f0f0f0"/><stop offset="0.39" stop-color="#ccc"/><stop offset="0.45" stop-color="#bcbcbb"/><stop offset="0.6" stop-color="#a7a6a6"/><stop offset="0.85" stop-color="#c6c6c5"/><stop offset="0.89" stop-color="#bcbcbb"/><stop offset="0.97" stop-color="#a0a09f"/><stop offset="1" stop-color="#929191"/></linearGradient></defs><title>kleimArtboard 2</title><ellipse class="cls-1" cx="49.13" cy="48.23" rx="48" ry="47.59"/><path class="cls-2" d="M42.17,66.65c8.55,7,24.31-1.75,17.51-17.59a16.51,16.51,0,0,1,6.95,9.7,9.74,9.74,0,0,0-3-2.51c.83,16-20.11,21.15-26.89,7.47a14.77,14.77,0,0,1-.27-10.86c2.69-8,15-14.88,14.29-20.7-.53-3.34-4.46-2.16-4.21.78a5.66,5.66,0,0,0,2,3.38l-1.63,2c-1.52-1.56-2.76-2.82-3-5.16-.52-6.2,8.29-8,9.33-1.43,1.41,8.85-15.65,15.19-15.2,26.56A11,11,0,0,0,42.17,66.65Z"/><path class="cls-2" d="M49.19,70.64A12.64,12.64,0,0,1,37.56,63.3a13.78,13.78,0,0,1-.23-10.11C38.54,49.63,41.8,46.25,45,43c3.69-3.81,7.18-7.41,6.73-11a3,3,0,0,0-2.88-2.85,3.18,3.18,0,0,0-2.32,1A3.59,3.59,0,0,0,45.57,33a5.53,5.53,0,0,0,1.71,3.35l-.42.51a6,6,0,0,1-1.94-3.81,4,4,0,0,1,4-4.54c1.83,0,3.13,1.25,3.46,3.34C53,35.66,49.49,39.21,45.8,43c-4.17,4.25-8.9,9.06-8.65,15.36A11.92,11.92,0,0,0,49.09,70h0a13.31,13.31,0,0,0,11-5.94c2.25-3.41,2.78-7.65,1.59-12.2a15,15,0,0,1,2.71,3.7l-.33-.19-1.49-.78.09,1.67a13.31,13.31,0,0,1-3.52,10.14,13.74,13.74,0,0,1-9.93,4.2Z"/><path class="cls-2" d="M56.6,63.91a6,6,0,0,1-5.6.71q4.35,0,3-9.75a10.54,10.54,0,0,1,3,4.74c.91-.7,1.72-2.48,2.41-5.33Q61.34,60,56.6,63.91Z"/><path class="cls-2" d="M54.14,64c.86-1.26,1.22-3.23,1.1-6a10,10,0,0,1,.81,1.92l.41,1.29,1.08-.82a5.1,5.1,0,0,0,1.35-1.75A7.67,7.67,0,0,1,56,63.17,5.66,5.66,0,0,1,54.14,64Z"/><path class="cls-3" d="M48.15,45.13c-.36,2.56.4,4,2.3,4.48a4.31,4.31,0,0,1-1.19-4.93q1.8-3.47,9.67-4c.94,0,1.35.47,1,1.5a22.27,22.27,0,0,1-6,9.31q-.87,4.8-2.91,6.2a2.56,2.56,0,0,1-.92-2.65c1.43-1.19,2.19-2.08,2.28-2.65-3,1.62-5.06,5-4.94,8,.2,5.26,7.27,6.64,10.73,2.56-4.92,6.92-17,5.24-18-3.06-.57-4.85,2.61-11,7.88-14.78Zm-1.5,8.67a9.19,9.19,0,0,1,4.78-3.17,7.46,7.46,0,0,0-6.63,4,5.73,5.73,0,0,0,5.14-1.19,7.75,7.75,0,0,1-3.29.36Zm7-10.44a.79.79,0,1,0,.78.79A.79.79,0,0,0,53.64,43.36Z"/><path class="cls-3" d="M49.54,66.33c-3.64,0-7.8-2-8.32-6.53-.48-4.1,1.91-9.09,6-12.66A3.7,3.7,0,0,0,49,50a8.56,8.56,0,0,0-5,4.11l-.7,1.19,1.36.23a9.84,9.84,0,0,0,1.66.15,7,7,0,0,0,1.62-.18,9,9,0,0,0-1.36,4.91,6,6,0,0,0,5,5.69A10.5,10.5,0,0,1,49.54,66.33Zm1.64-10a1.67,1.67,0,0,1-.12-.79,14.3,14.3,0,0,0,1.16-1.08A6.52,6.52,0,0,1,51.18,56.34ZM49.7,52.52l-.34.09a11.07,11.07,0,0,1,2.37-1.08l-.31-1.85a6.34,6.34,0,0,0-.76,0l.42-.83A3.39,3.39,0,0,1,50.14,45a4.61,4.61,0,0,1,2.07-1.87,1.73,1.73,0,0,0-.32,1A1.75,1.75,0,1,0,54,42.45a23.24,23.24,0,0,1,5-.8h.15c0,.05,0,.14-.07.27a21.46,21.46,0,0,1-5.73,8.89l0,0L52,51.57A10.28,10.28,0,0,0,50,53Z"/><path class="cls-4" d="M22.11,45.25,24.6,46l-.66,2.12-4.75-1.49.11-.87a3.34,3.34,0,0,0-1.23-1.22,12.15,12.15,0,0,0-1.52-.68L8.93,41.17,10.86,35l10.76,3.39.31-1L26.83,39l-.67,2.12-2.49-.78Zm-4.56-3.6a11.51,11.51,0,0,1,1.54.67,3.46,3.46,0,0,1,1.06.77L20.82,41l-8.3-2.62-.44,1.4Z"/><path class="cls-4" d="M21.46,30,26.1,35.9l-1.53,2.15L13.34,30l1.54-2.16,6,4.25,0,0-4.73-6,1.57-2.2,11.23,8-1.57,2.2-5.87-4.2Z"/><path class="cls-4" d="M29.12,22.7a2.73,2.73,0,0,1,1.41-.07,3.43,3.43,0,0,1,1.44.81l3.66,3.18L33.5,28.28l-3-2.66-.58-.48a2,2,0,0,0-.53-.31,1.06,1.06,0,0,0-.52-.07.93.93,0,0,0-.54.24l-.28.22,3.55,4.55-2.13,1.66L21,20.54l2.12-1.66,3.49,4.46.22-.17a1,1,0,0,0,.36-.87A3.11,3.11,0,0,0,26.75,21L25,17.48l2-1.57,1.93,3.82a3.38,3.38,0,0,1,.45,1.63,2.54,2.54,0,0,1-.3,1.27Z"/><path class="cls-4" d="M39.41,22.35l-1.89.71.56,2.67-2.67,1L33,12.91l3.08-1.16,7.36,12-2.66,1Zm-3-4L37,20.56l1.17-.45-1-2-1.27-2.51-.11,0Z"/><path class="cls-4" d="M43.35,23.77l.45-4.48a2.94,2.94,0,0,1,.34-1.17,2,2,0,0,1,.74-.82,2.73,2.73,0,0,1-1.31-1.19,4.64,4.64,0,0,1-.49-1.93,5.27,5.27,0,0,1,.18-1.83A3.51,3.51,0,0,1,44,11a3.42,3.42,0,0,1,1.2-.89,4.58,4.58,0,0,1,1.56-.37L50,9.51l.91,13.77-2.7.17-.37-5.62-.31,0a1,1,0,0,0-.84.59,3.86,3.86,0,0,0-.33,1.32l-.34,3.84ZM47,12.29a1.36,1.36,0,0,0-1.08.5A1.81,1.81,0,0,0,45.66,14a1.78,1.78,0,0,0,.18.74,1.15,1.15,0,0,0,.39.4,1.22,1.22,0,0,0,.51.16h.55l.42,0-.2-3Z"/><path class="cls-4" d="M62.58,11.87a5.71,5.71,0,0,1,1.42.71,2.92,2.92,0,0,1,.93,1.05,3.25,3.25,0,0,1,.32,1.49,6.89,6.89,0,0,1-.4,2A5.39,5.39,0,0,1,62.94,20a3.37,3.37,0,0,1-3.13.18l-.6-.2-1.63,4.78L55,23.87l4.45-13.06ZM61.2,14.12,60,17.52l.44.15a2.11,2.11,0,0,0,.5.1,1.06,1.06,0,0,0,.51-.12,1.49,1.49,0,0,0,.49-.46,3.28,3.28,0,0,0,.43-.88A1.84,1.84,0,0,0,62.48,15a1.28,1.28,0,0,0-.81-.67Z"/><path class="cls-4" d="M62,26l8.57-10.81,2.11,1.68-3.15,4,.54.44a3.46,3.46,0,0,1,1.59,2.66A5.14,5.14,0,0,1,70.37,27a6.28,6.28,0,0,1-1.47,1.39,3.75,3.75,0,0,1-1.49.58A3.2,3.2,0,0,1,66,28.82a4.36,4.36,0,0,1-1.34-.75Zm4.1,0a1.25,1.25,0,0,0,1,.27,2.19,2.19,0,0,0,1.15-.86,2.75,2.75,0,0,0,.49-.82,1.22,1.22,0,0,0,.08-.6.93.93,0,0,0-.21-.46,2.38,2.38,0,0,0-.36-.35L68,22.86l-2.22,2.8Zm2.33,5.14L77,20.29,79.14,22,70.57,32.78Z"/><path class="cls-4" d="M70.74,33.53l11.65-7.38,3.39,5.34-2.17,1.38-2-3.06-2.11,1.33.37.59a3.45,3.45,0,0,1,.63,3,5.06,5.06,0,0,1-2.25,2.46,5.93,5.93,0,0,1-1.85.83,3.6,3.6,0,0,1-1.59.06,3.09,3.09,0,0,1-1.31-.61,4.55,4.55,0,0,1-1-1.15Zm3.89,1.32a1.22,1.22,0,0,0,.89.6A2.19,2.19,0,0,0,76.89,35a3,3,0,0,0,.73-.61,1.15,1.15,0,0,0,.28-.55,1,1,0,0,0-.05-.5,2.38,2.38,0,0,0-.23-.45l-.24-.39-3,1.91Z"/><path class="cls-4" d="M78.5,43.52l-.56-2-2.7.35-.8-2.75,14-1.31L89.34,41,76.82,47.39,76,44.66Zm4.17-2.63-2.19.34.35,1.2,2-.86,2.61-1.06,0-.11Z"/><path class="cls-4" d="M10.46,54.15l-.16-.95L13,52.73l.14.4a1,1,0,0,0,.36.25,1.89,1.89,0,0,0,.56.15,4.66,4.66,0,0,0,.85,0c.34,0,.74-.07,1.2-.13l5.69-.83.7,4L14,58.05l.09.47L11.32,59l-.17-.94,1.8-.32-.69-3.91ZM13.77,57l7.57-1.34-.35-2-4.82.7a12.11,12.11,0,0,1-1.71.15,3.29,3.29,0,0,1-1.16-.21Z"/><path class="cls-4" d="M18.24,64.91a3.32,3.32,0,0,1-2,.31,1.94,1.94,0,0,1-1.31-1.29,2,2,0,0,1-.06-1.8A2.72,2.72,0,0,1,16.23,61l4.33-1.85a4.79,4.79,0,0,1,1-.31,2.6,2.6,0,0,1,.92,0,1.77,1.77,0,0,1,.81.38,2.35,2.35,0,0,1,.65.93,2.8,2.8,0,0,1,.26,1.13,1.48,1.48,0,0,1-.25.83,2,2,0,0,1-.65.61,6.85,6.85,0,0,1-.94.48ZM22,62.1a3.19,3.19,0,0,0,.45-.23,1.32,1.32,0,0,0,.38-.32.93.93,0,0,0,.2-.45,1.15,1.15,0,0,0-.1-.6.92.92,0,0,0-.44-.5,1.31,1.31,0,0,0-.56-.12,2.45,2.45,0,0,0-.59.11l-.48.19L16.65,62a1.86,1.86,0,0,0-.39.21,1.29,1.29,0,0,0-.34.32,1,1,0,0,0-.17.44,1,1,0,0,0,.09.56,1.1,1.1,0,0,0,.35.47,1.07,1.07,0,0,0,.46.17,1.49,1.49,0,0,0,.51,0A2.85,2.85,0,0,0,17.7,64Z"/><path class="cls-4" d="M23,66.68l.45.63A3.49,3.49,0,0,1,24,68.46a1.93,1.93,0,0,1,0,1,2.21,2.21,0,0,1-.51.81,7.11,7.11,0,0,1-.85.72,6.53,6.53,0,0,1-1.05.62,2.2,2.2,0,0,1-1,.22,1.8,1.8,0,0,1-.91-.26,3,3,0,0,1-.86-.85l-1.12-1.59,7.81-5.53,2.22,3.14-.82.58L25.29,65Zm-3.81,2.7.44.62a1.69,1.69,0,0,0,.56.55,1,1,0,0,0,.58.12,1.38,1.38,0,0,0,.6-.18,4.49,4.49,0,0,0,.62-.38,5.29,5.29,0,0,0,.55-.44,1.48,1.48,0,0,0,.35-.49,1.16,1.16,0,0,0,.06-.59,1.88,1.88,0,0,0-.34-.73l-.43-.6Z"/><path class="cls-4" d="M22.59,75.41l6.23-7.26.82.7-2.51,2.93.59.51a3.52,3.52,0,0,1,.83,1,1.89,1.89,0,0,1,.2.93,2.25,2.25,0,0,1-.29.91,6.34,6.34,0,0,1-.65.9,7,7,0,0,1-.87.86,2.45,2.45,0,0,1-.89.46,1.81,1.81,0,0,1-.95,0,2.74,2.74,0,0,1-1-.62Zm1.49-.08.58.5a1.73,1.73,0,0,0,.68.39,1.07,1.07,0,0,0,.59,0,1.51,1.51,0,0,0,.54-.32,4.29,4.29,0,0,0,.51-.53,5,5,0,0,0,.42-.55,1.26,1.26,0,0,0,.22-.56,1.12,1.12,0,0,0-.08-.59A2,2,0,0,0,27,73l-.56-.48Zm2.39,3.4,6.23-7.26.82.71-6.23,7.26Z"/><path class="cls-4" d="M36.57,74.93l-3.91,7.62-1-.5,3.92-7.62-1.44-.73.46-.9,3.84,2-.46.89Z"/><path class="cls-4" d="M39.85,85.25l.2-2.16-2-.62-1,1.92-1-.3,4.7-8.58,1,.3-.8,9.75Zm.73-7.72-1,2-1.08,2,1.68.51.21-2.31.27-2.21Z"/><path class="cls-4" d="M50.91,81.36a1.26,1.26,0,0,1,.87.76A4.15,4.15,0,0,1,52,83.54a3.15,3.15,0,0,1-.58,2.16,2.41,2.41,0,0,1-1.88.7l-1.84,0-.16-9.56,2,0a2.08,2.08,0,0,1,1.75.63,2.94,2.94,0,0,1,.54,1.86,2.78,2.78,0,0,1-.2,1.21,1.75,1.75,0,0,1-.76.77Zm-.08-2a1.72,1.72,0,0,0-.34-1.12,1.3,1.3,0,0,0-1.08-.37h-.74l0,3.05h.73a1.32,1.32,0,0,0,1.07-.42A1.68,1.68,0,0,0,50.83,79.33ZM51,83.45a2.13,2.13,0,0,0-.31-1.21,1.29,1.29,0,0,0-1.14-.4h-.79l.06,3.59.85,0a1.31,1.31,0,0,0,.71-.17,1.06,1.06,0,0,0,.41-.43A2,2,0,0,0,51,84.2,4.61,4.61,0,0,0,51,83.45Z"/><path class="cls-4" d="M62.59,81.22a3.28,3.28,0,0,1,.17,2,2,2,0,0,1-1.38,1.21,2,2,0,0,1-1.8-.06,2.74,2.74,0,0,1-1-1.45L57,78.5a6,6,0,0,1-.24-1,2.36,2.36,0,0,1,0-.92,1.76,1.76,0,0,1,.43-.79,2.52,2.52,0,0,1,1-.58,2.82,2.82,0,0,1,1.14-.18,1.54,1.54,0,0,1,.81.31,2.07,2.07,0,0,1,.57.69,6.42,6.42,0,0,1,.41,1Zm-2.52-4a4.73,4.73,0,0,0-.2-.47,1.71,1.71,0,0,0-.29-.4,1,1,0,0,0-.44-.23,1.12,1.12,0,0,0-.61.06.93.93,0,0,0-.53.4,1.29,1.29,0,0,0-.15.55,1.71,1.71,0,0,0,.07.59c0,.2.1.37.14.5l1.52,4.37a1.76,1.76,0,0,0,.18.4,1.31,1.31,0,0,0,.3.36.93.93,0,0,0,.42.21,1,1,0,0,0,.57-.06,1,1,0,0,0,.49-.31,1.06,1.06,0,0,0,.21-.44,1.51,1.51,0,0,0,0-.52,3.58,3.58,0,0,0-.14-.54Z"/><path class="cls-4" d="M66.83,82l-5-8.15.92-.57,2.18,3.55.42-.26a2.11,2.11,0,0,0,.35-.26A1,1,0,0,0,66,76a1.5,1.5,0,0,0,.12-.56,2.36,2.36,0,0,0-.14-.8L65,71.9l.84-.52.93,2.72A3.45,3.45,0,0,1,67,75.34a1.42,1.42,0,0,1-.27.9,1.59,1.59,0,0,1,1,.15,3.93,3.93,0,0,1,1,.8L71,79.45,70.1,80l-2-2.14a3,3,0,0,0-.64-.51,1.29,1.29,0,0,0-.56-.19,1.17,1.17,0,0,0-.5.07,2,2,0,0,0-.44.21l-.47.29,2.3,3.72Z"/><path class="cls-4" d="M73.59,77.34,67,70.42l3-2.82.69.73L68.46,70.4l2.21,2.31,1.88-1.79.69.72-1.88,1.8,2.32,2.43,2.17-2.08.69.73Z"/><path class="cls-4" d="M80.81,68.84l-2-.83-1.19,1.76,1.53,1.55-.59.86-6.78-7.05.57-.84L81.41,68Zm-7.15-3,1.62,1.58,1.6,1.63,1-1.45-2.14-.89-2-.92Z"/><path class="cls-4" d="M84.18,61.83l-4.11-1.61-.81,2.07,4.11,1.61-.4,1-8.9-3.5.39-1,3.92,1.53.81-2.06-3.92-1.54.4-1,8.9,3.5Z"/><path class="cls-4" d="M85.53,57.19l-9.44-1.55.66-4,1,.16-.49,3,3.16.52.43-2.57,1,.17-.43,2.56,3.31.55.49-3,1,.16Z"/><path class="cls-5" d="M49.13,93.49A45.26,45.26,0,1,1,94.4,48.23,45.32,45.32,0,0,1,49.13,93.49Zm0-89.33A44.07,44.07,0,1,0,93.21,48.23,44.12,44.12,0,0,0,49.13,4.16Z"/></svg>