<svg id="Layer_1" data-name="Layer 1" xmlns="http://www.w3.org/2000/svg" xmlns:xlink="http://www.w3.org/1999/xlink" viewBox="0 0 736.94 410.85"><defs><style>.cls-1,.cls-2,.cls-4,.cls-7{fill:none;}.cls-10,.cls-11,.cls-12,.cls-13,.cls-14,.cls-2,.cls-4,.cls-6,.cls-7,.cls-8,.cls-9{stroke:#01336e;stroke-miterlimit:10;}.cls-2{stroke-width:1.44px;}.cls-3{clip-path:url(#clip-path);}.cls-4{stroke-width:1.5px;}.cls-5{fill:#01336e;}.cls-6{fill:#ebf2f5;}.cls-14,.cls-6{stroke-width:1.32px;}.cls-7{stroke-width:1.25px;}.cls-10,.cls-11,.cls-12,.cls-13,.cls-14,.cls-16,.cls-8,.cls-9{fill:#00adb5;}.cls-8{stroke-width:1.35px;}.cls-9{stroke-width:1.17px;}.cls-10{stroke-width:1.32px;}.cls-11{stroke-width:1.25px;}.cls-12{stroke-width:1.1px;}.cls-13{stroke-width:0.99px;}.cls-15{fill:#fff;}</style><clipPath id="clip-path"><path class="cls-1" d="M734.25,179c0-9.62-14-25.67-109.34-42.53L596.55,130c-10.23-2.78-23.76-8.57-32.23-14.93l-13.64-13c-2.16-2.25-6.32-2-8.71,0l-22.09,15.25-12,3.83S2.46,103.94,2.46,181.87A6.36,6.36,0,0,0,3,183.73S62.84,410.12,373.12,410.12c189.66,0,314.65-92.5,358.13-219.54A20.94,20.94,0,0,0,734.25,179Z"/></clipPath></defs><title>otvetArtboard 20</title><path class="cls-2" d="M2.46,181.87S62.84,410.12,373.12,410.12,734.25,179,734.25,179"/><g class="cls-3"><path class="cls-4" d="M57,102.1c-2.15,2-104.32,123.31-112.33,129.56s-44.68,41.89-55.79,58.69c-6.08,9.2-73.34,81.3-75.15,82"/><path class="cls-4" d="M75.22,102.1c-2.15,2-104.32,123.31-112.33,129.56s-44.68,41.89-55.78,58.69c-6.08,9.2-73.35,81.3-75.16,82"/><path class="cls-4" d="M93.44,102.1c-2.15,2-104.32,123.31-112.33,129.56s-44.68,41.89-55.79,58.69c-6.08,9.2-73.34,81.3-75.15,82"/><path class="cls-4" d="M111.65,102.1C109.5,104.06,7.33,225.41-.67,231.66s-44.68,41.89-55.79,58.69c-6.08,9.2-73.35,81.3-75.16,82"/><path class="cls-4" d="M129.87,102.1c-2.15,2-104.32,123.31-112.33,129.56s-44.68,41.89-55.79,58.69c-6.08,9.2-73.34,81.3-75.15,82"/><path class="cls-4" d="M148.08,102.1c-2.15,2-104.32,123.31-112.32,129.56S-8.92,273.55-20,290.35c-6.08,9.2-73.35,81.3-75.16,82"/><path class="cls-4" d="M166.3,102.1C164.15,104.06,62,225.41,54,231.66S9.29,273.55-1.81,290.35c-6.08,9.2-73.35,81.3-75.16,82"/><path class="cls-4" d="M184.51,102.1c-2.15,2-104.32,123.31-112.32,129.56S27.51,273.55,16.4,290.35c-6.08,9.2-73.35,81.3-75.15,82"/><path class="cls-4" d="M202.73,102.1c-2.15,2-104.32,123.31-112.33,129.56s-44.68,41.89-55.78,58.69c-6.08,9.2-73.35,81.3-75.16,82"/><path class="cls-4" d="M220.94,102.1c-2.15,2-104.32,123.31-112.32,129.56s-44.68,41.89-55.79,58.69c-6.08,9.2-73.35,81.3-75.15,82"/><path class="cls-4" d="M239.16,102.1c-2.15,2-104.32,123.31-112.33,129.56s-44.68,41.89-55.78,58.69c-6.08,9.2-73.35,81.3-75.16,82"/><path class="cls-4" d="M257.37,102.1c-2.14,2-104.32,123.31-112.32,129.56s-44.68,41.89-55.79,58.69c-6.08,9.2-73.35,81.3-75.15,82"/><path class="cls-4" d="M275.59,102.1c-2.15,2-104.32,123.31-112.33,129.56s-44.68,41.89-55.78,58.69c-6.08,9.2-73.35,81.3-75.16,82"/><path class="cls-4" d="M293.81,102.1c-2.15,2-104.33,123.31-112.33,129.56s-44.68,41.89-55.79,58.69c-6.08,9.2-73.35,81.3-75.15,82"/><path class="cls-4" d="M312,102.1c-2.15,2-104.32,123.31-112.33,129.56S155,273.55,143.91,290.35c-6.08,9.2-73.35,81.3-75.16,82"/><path class="cls-4" d="M330.24,102.1c-2.15,2-104.33,123.31-112.33,129.56s-44.68,41.89-55.79,58.69c-6.08,9.2-73.34,81.3-75.15,82"/><path class="cls-4" d="M348.45,102.1c-2.15,2-104.32,123.31-112.33,129.56s-44.68,41.89-55.78,58.69c-6.08,9.2-73.35,81.3-75.16,82"/><path class="cls-4" d="M366.67,102.1c-2.15,2-104.32,123.31-112.33,129.56s-44.68,41.89-55.79,58.69c-6.08,9.2-73.34,81.3-75.15,82"/><path class="cls-4" d="M384.88,102.1c-2.15,2-104.32,123.31-112.33,129.56s-44.68,41.89-55.78,58.69c-6.08,9.2-73.35,81.3-75.16,82"/><path class="cls-4" d="M403.1,102.1c-2.15,2-104.32,123.31-112.33,129.56S246.09,273.55,235,290.35c-6.08,9.2-73.34,81.3-75.15,82"/><path class="cls-4" d="M421.31,102.1C419.16,104.06,317,225.41,309,231.66s-44.69,41.89-55.79,58.69c-6.08,9.2-73.35,81.3-75.16,82"/><path class="cls-4" d="M439.53,102.1c-2.15,2-104.32,123.31-112.33,129.56s-44.68,41.89-55.79,58.69c-6.08,9.2-105.74,114.39-107.54,115.11"/><path class="cls-4" d="M457.74,102.1c-2.15,2-104.32,123.31-112.32,129.56s-44.68,41.89-55.79,58.69c-6.08,9.2-105.74,114.39-107.55,115.11"/><path class="cls-4" d="M476,102.1c-2.15,2-104.32,123.31-112.33,129.56S319,273.55,307.85,290.35c-6.08,9.2-105.75,114.39-107.55,115.11"/><path class="cls-4" d="M494.17,102.1c-2.15,2-104.32,123.31-112.32,129.56s-44.68,41.89-55.79,58.69c-6.08,9.2-105.74,114.39-107.55,115.11"/><path class="cls-4" d="M512.39,102.1c-2.15,2-104.32,123.31-112.33,129.56s-44.68,41.89-55.78,58.69c-6.08,9.2-105.75,114.39-107.55,115.11"/><path class="cls-4" d="M530.6,102.1c-2.15,2-104.32,123.31-112.32,129.56s-44.68,41.89-55.79,58.69c-6.08,9.2-105.74,114.39-107.55,115.11"/><path class="cls-4" d="M548.82,102.1c-2.15,2-104.32,123.31-112.33,129.56s-44.68,41.89-55.78,58.69c-6.08,9.2-105.75,114.39-107.55,115.11"/><path class="cls-4" d="M567,102.1c-2.14,2-104.32,123.31-112.32,129.56S410,273.55,398.92,290.35c-6.08,9.2-126.83,137.3-128.64,138"/><path class="cls-4" d="M585.25,102.1c-2.15,2-104.32,123.31-112.33,129.56s-44.68,41.89-55.78,58.69c-6.08,9.2-129.3,140.3-131.11,141"/><path class="cls-4" d="M603.47,102.1c-2.15,2-104.33,123.31-112.33,129.56s-44.68,41.89-55.79,58.69C429.27,299.55,319.84,416.9,318,417.62"/><path class="cls-4" d="M621.68,102.1c-2.15,2-104.32,123.31-112.33,129.56s-44.68,41.89-55.78,58.69c-6.08,9.2-118.23,129.55-120,130.27"/><path class="cls-4" d="M639.9,102.1c-2.15,2-104.33,123.31-112.33,129.56s-44.68,41.89-55.79,58.69c-6.08,9.2-118.23,129.55-120,130.27"/><path class="cls-4" d="M658.11,102.1c-2.15,2-104.32,123.31-112.33,129.56S501.1,273.55,490,290.35c-6.08,9.2-118.23,129.55-120,130.27"/><path class="cls-4" d="M676.33,102.1C674.18,104.06,572,225.41,564,231.66s-44.68,41.89-55.79,58.69c-6.08,9.2-118.22,129.55-120,130.27"/><path class="cls-4" d="M694.54,102.1c-2.15,2-104.32,123.31-112.33,129.56s-44.68,41.89-55.78,58.69c-6.08,9.2-118.23,129.55-120,130.27"/><path class="cls-4" d="M712.76,102.1c-2.15,2-104.32,123.31-112.33,129.56s-44.68,41.89-55.79,58.69c-6.08,9.2-118.22,129.55-120,130.27"/><path class="cls-4" d="M731,102.1c-2.15,2-104.32,123.31-112.33,129.56S574,273.55,562.86,290.35c-6.08,9.2-118.23,129.55-120,130.27"/><path class="cls-4" d="M749.19,102.1c-2.15,2-104.32,123.31-112.33,129.56s-44.68,41.89-55.79,58.69C575,299.55,462.85,419.9,461,420.62"/><path class="cls-4" d="M767.4,102.1c-2.15,2-104.32,123.31-112.32,129.56s-44.68,41.89-55.79,58.69c-6.08,9.2-118.23,129.55-120,130.27"/><path class="cls-4" d="M785.62,102.1c-2.15,2-104.32,123.31-112.33,129.56s-44.68,41.89-55.78,58.69c-6.08,9.2-118.23,129.55-120,130.27"/><path class="cls-4" d="M803.83,102.1c-2.15,2-104.32,123.31-112.32,129.56s-44.68,41.89-55.79,58.69c-6.08,9.2-93.38,102.55-95.19,103.27"/><path class="cls-4" d="M822.05,102.1c-2.15,2-104.32,123.31-112.33,129.56S665,273.55,653.94,290.35c-6.08,9.2-73.35,81.3-75.16,82"/><path class="cls-4" d="M840.26,102.1c-2.15,2-104.32,123.31-112.32,129.56s-45.39,38.23-56.5,55c-6.08,9.2-72.64,85-74.44,85.68"/><path class="cls-4" d="M858.48,102.1c-2.15,2-104.32,123.31-112.33,129.56s-44.68,41.89-55.78,58.69c-6.08,9.2-73.35,81.3-75.16,82"/><path class="cls-4" d="M876.69,102.1c-2.15,2-104.32,123.31-112.32,129.56s-44.68,41.89-55.79,58.69c-6.08,9.2-73.35,81.3-75.15,82"/><path class="cls-4" d="M894.91,102.1c-2.15,2-104.32,123.31-112.33,129.56s-44.68,41.89-55.78,58.69c-6.08,9.2-73.35,81.3-75.16,82"/><path class="cls-4" d="M651.64,102.1c2.15,2,104.32,123.31,112.33,129.56s44.68,41.89,55.78,58.69c6.08,9.2,73.35,81.3,75.16,82"/><path class="cls-4" d="M633.43,102.1c2.15,2,104.32,123.31,112.32,129.56s44.68,41.89,55.79,58.69c6.08,9.2,73.35,81.3,75.15,82"/><path class="cls-4" d="M615.21,102.1c2.15,2,104.32,123.31,112.33,129.56s44.68,41.89,55.78,58.69c6.08,9.2,73.35,81.3,75.16,82"/><path class="cls-4" d="M597,102.1c2.15,2,104.32,123.31,112.32,129.56s44.68,41.89,55.79,58.69c6.08,9.2,73.35,81.3,75.15,82"/><path class="cls-4" d="M578.78,102.1c2.15,2,104.32,123.31,112.33,129.56s44.68,41.89,55.78,58.69c6.08,9.2,73.35,81.3,75.16,82"/><path class="cls-4" d="M560.57,102.1c2.14,2,104.32,123.31,112.32,129.56s44.68,41.89,55.79,58.69c6.08,9.2,73.35,81.3,75.15,82"/><path class="cls-4" d="M541.89,101.29c2.15,2,104.78,124.12,112.79,130.37s44.68,41.89,55.78,58.69c6.08,9.2,73.35,81.3,75.16,82"/><path class="cls-4" d="M524.13,102.1c2.15,2,104.33,123.31,112.33,129.56s44.68,41.89,55.79,58.69c6.08,9.2,73.34,81.3,75.15,82"/><path class="cls-4" d="M505.92,102.1c2.15,2,104.32,123.31,112.33,129.56s44.68,41.89,55.78,58.69c6.08,9.2,73.35,81.3,75.16,82"/><path class="cls-4" d="M487.7,102.1c2.15,2,104.33,123.31,112.33,129.56s44.68,41.89,55.79,58.69c6.08,9.2,73.34,81.3,75.15,82"/><path class="cls-4" d="M469.49,102.1c2.15,2,104.32,123.31,112.33,129.56s44.68,41.89,55.78,58.69c6.08,9.2,73.35,81.3,75.16,82"/><path class="cls-4" d="M451.27,102.1c2.15,2,104.32,123.31,112.33,129.56s44.68,41.89,55.79,58.69c6.08,9.2,73.34,81.3,75.15,82"/><path class="cls-4" d="M433.06,102.1c2.15,2,104.32,123.31,112.33,129.56s44.68,41.89,55.78,58.69c6.08,9.2,73.35,81.3,75.16,82"/><path class="cls-4" d="M414.84,102.1c2.15,2,104.32,123.31,112.33,129.56s44.68,41.89,55.79,58.69c6.08,9.2,73.34,81.3,75.15,82"/><path class="cls-4" d="M396.63,102.1c2.15,2,104.32,123.31,112.32,129.56s44.68,41.89,55.79,58.69c6.08,9.2,73.35,81.3,75.16,82"/><path class="cls-4" d="M378.41,102.1c2.15,2,104.32,123.31,112.33,129.56s44.68,41.89,55.79,58.69c6.08,9.2,73.34,81.3,75.15,82"/><path class="cls-4" d="M360.2,102.1c2.15,2,104.32,123.31,112.32,129.56s44.68,41.89,55.79,58.69c6.08,9.2,73.35,81.3,75.16,82"/><path class="cls-4" d="M342,102.1c2.15,2,104.32,123.31,112.33,129.56s44.68,41.89,55.78,58.69c6.08,9.2,73.35,81.3,75.16,82"/><path class="cls-4" d="M323.77,102.1c2.15,2,104.32,123.31,112.32,129.56s44.68,41.89,55.79,58.69c6.08,9.2,73.35,81.3,75.15,82"/><path class="cls-4" d="M305.55,102.1c2.15,2,104.32,123.31,112.33,129.56s44.68,41.89,55.78,58.69c6.08,9.2,97.05,105.72,98.86,106.44"/><path class="cls-4" d="M287.34,102.1c2.15,2,104.32,123.31,112.32,129.56s44.68,41.89,55.79,58.69c6.08,9.2,97,105.72,98.85,106.44"/><path class="cls-4" d="M269.12,102.1c2.15,2,104.32,123.31,112.33,129.56s44.68,41.89,55.78,58.69c6.08,9.2,97,105.72,98.86,106.44"/><path class="cls-4" d="M250.91,102.1c2.14,2,104.32,123.31,112.32,129.56s44.68,41.89,55.79,58.69c6.08,9.2,97,105.72,98.85,106.44"/><path class="cls-4" d="M232.69,102.1c2.15,2,104.32,123.31,112.33,129.56s44.68,41.89,55.78,58.69c6.08,9.2,101.17,110,103,110.77"/><path class="cls-4" d="M214.47,102.1c2.15,2,104.33,123.31,112.33,129.56s44.68,41.89,55.79,58.69c6.08,9.2,102.09,112,103.89,112.77"/><path class="cls-4" d="M196.26,102.1c2.15,2,104.32,123.31,112.33,129.56s44.68,41.89,55.78,58.69c6.08,9.2,110,119,111.84,119.77"/><path class="cls-4" d="M178,102.1c2.15,2,104.33,123.31,112.33,129.56s44.68,41.89,55.79,58.69c6.08,9.2,111.07,119,112.88,119.77"/><path class="cls-4" d="M159.83,102.1c2.15,2,104.32,123.31,112.33,129.56s44.68,41.89,55.78,58.69c6.08,9.2,113.78,124,115.59,124.77"/><path class="cls-4" d="M141.61,102.1c2.15,2,104.32,123.31,112.33,129.56s44.68,41.89,55.79,58.69c6.08,9.2,111.86,121.72,113.67,122.44"/><path class="cls-4" d="M123.4,102.1c2.15,2,104.32,123.31,112.33,129.56s44.68,41.89,55.78,58.69c6.08,9.2,111.87,121.72,113.67,122.44"/><path class="cls-4" d="M105.18,102.1c2.15,2,104.32,123.31,112.33,129.56s44.68,41.89,55.79,58.69c6.08,9.2,111.86,121.72,113.67,122.44"/><path class="cls-4" d="M87,102.1c2.15,2,104.32,123.31,112.32,129.56s44.68,41.89,55.79,58.69c6.08,9.2,111.87,121.72,113.67,122.44"/><path class="cls-4" d="M68.75,102.1c2.15,2,104.32,123.31,112.33,129.56s44.68,41.89,55.79,58.69c6.08,9.2,111.86,121.72,113.67,122.44"/><path class="cls-4" d="M50.54,102.1c2.15,2,104.32,123.31,112.32,129.56s44.68,41.89,55.79,58.69c6.08,9.2,111.87,121.72,113.67,122.44"/><path class="cls-4" d="M32.32,102.1c2.15,2,104.32,123.31,112.33,129.56s44.68,41.89,55.78,58.69c6.08,9.2,111.87,121.72,113.68,122.44"/><path class="cls-4" d="M14.11,102.1c2.15,2,104.32,123.31,112.32,129.56s44.68,41.89,55.79,58.69c6.08,9.2,111.87,121.72,113.67,122.44"/><path class="cls-4" d="M-4.11,102.1c2.15,2,104.32,123.31,112.33,129.56S152.9,273.55,164,290.35c6.08,9.2,111.87,121.72,113.68,122.44"/><path class="cls-4" d="M-22.32,102.1C-20.17,104.06,82,225.41,90,231.66s44.68,41.89,55.79,58.69c6.08,9.2,111.86,121.72,113.67,122.44"/><path class="cls-4" d="M-40.54,102.1c2.15,2,104.32,123.31,112.33,129.56s44.68,41.89,55.78,58.69c6.08,9.2,111.87,121.72,113.68,122.44"/><path class="cls-4" d="M-58.75,102.1c2.14,2,104.32,123.31,112.32,129.56s44.68,41.89,55.79,58.69c6.08,9.2,98.3,108.39,100.11,109.11"/><path class="cls-4" d="M-77,102.1c2.15,2,104.32,123.31,112.33,129.56S80,273.55,91.14,290.35c6.08,9.2,73.35,81.3,75.16,82"/><path class="cls-4" d="M-95.19,102.1c2.15,2,104.33,123.31,112.33,129.56s44.68,41.89,55.79,58.69c6.08,9.2,73.35,81.3,75.15,82"/><path class="cls-4" d="M-113.4,102.1c2.15,2,104.32,123.31,112.33,129.56s44.68,41.89,55.78,58.69c6.08,9.2,73.35,81.3,75.16,82"/><path class="cls-4" d="M-131.62,102.1c2.15,2,104.33,123.31,112.33,129.56s44.68,41.89,55.79,58.69c6.08,9.2,73.34,81.3,75.15,82"/><path class="cls-4" d="M-149.83,102.1c2.15,2,104.32,123.31,112.33,129.56s44.68,41.89,55.78,58.69c6.08,9.2,73.35,81.3,75.16,82"/><path class="cls-4" d="M-168,102.1c2.15,2,104.32,123.31,112.33,129.56S-11,273.55.07,290.35c6.08,9.2,73.34,81.3,75.15,82"/><path class="cls-4" d="M-186.26,102.1c2.15,2,104.32,123.31,112.33,129.56s44.68,41.89,55.78,58.69c6.08,9.2,73.35,81.3,75.16,82"/></g><path class="cls-5" d="M639.69,120.14c-5.46.62-10.71-1.09-16.15-1.06-2.85,0-5.71.21-8.58.4A263.82,263.82,0,0,1,628.8,96.93c.48-.7-.42-1.49-1-1q-5.84,0-11.67,0a.67.67,0,0,0,.09-.38c-.08-1.89-.41-4-2.16-5.06-.73-.45-.58-.25-.66-1.16a2.41,2.41,0,0,0-.2-.92,2,2,0,0,0-1.64-1.15c-2.05-.17-2.1,2-3,3.21a7.6,7.6,0,0,0-1.45,5.43s0,0,0,.06H605a11.34,11.34,0,0,0-1.2-4.88c-.55-1.1-1.4-2.77-2.84-2.74s-2.44,1.4-3,2.5a9,9,0,0,0-.61,5.21c-4.06,0-8.12.07-12.17.14a.61.61,0,0,0-.56.86c-.14.21-.3.42-.45.63a.57.57,0,0,0-.31-.08l-7.92-.1q-5.1-31.6-11.3-63s0-.06,0-.1c.72-2.86,3.21-4.79.27-7.61-2.09-2-5.1-3.5-7.48-5.12l-7.73-5.25a.7.7,0,0,0-.72-.06.78.78,0,0,0-.57-.06l-.38.11c-.09-5.24-.2-10.48-.36-15.72,0-.93-1.46-.74-1.44.18q.43,14,.52,28.09a.67.67,0,0,0-.21.57c.07.75.15,1.51.22,2.26q.13,30.09-1.29,60.16c-.35,1.28-.73,2.56-1.07,3.84-.16.58.4.86.87.73l0,.61-13.31-.17a.66.66,0,0,0-.13-.28.73.73,0,0,0,.14-.45q-.31-8.55-.62-17.08a.62.62,0,0,0-.76-.6.93.93,0,0,0-.24,0c-4,.1-8,0-11.94-.25a.66.66,0,0,0-.57-.19l-.5.06a11.25,11.25,0,0,1-.13-3.84.64.64,0,0,0-.24-.61.54.54,0,0,0-.51-.27l-5.59-.09a.73.73,0,0,0,.2-.54l-.21-5.18a27.76,27.76,0,0,0-.2-5.17c-.53-2.11-3.45-1.53-5.18-1.63s-2.79.15-3,1.93a25.39,25.39,0,0,0,.29,4.6c.14,1.92.27,3.83.41,5.75,0,0,0,.08,0,.13l-2.39,0a.66.66,0,0,0-.15,0,42,42,0,0,0-6.54-8.53.55.55,0,0,0-.81,0L470,62.63a.74.74,0,0,0-.61,1.23q0,13.33.1,26.66l-.92-.15a13.4,13.4,0,0,1-1.42-4.63.66.66,0,0,0-.58-.59.77.77,0,0,0-.24-.06,145.9,145.9,0,0,1-30.68-4.59.68.68,0,0,0-.35,0,.67.67,0,0,0-.66.95c6.15,12.23,13.19,26.41,19.33,38.65.42.82,1.76.28,1.34-.55-3.31-6.59-7.52-15.14-10.83-21.73a735.65,735.65,0,0,0,74.95,3.57.58.58,0,0,0,.19,0l.72.77a.66.66,0,0,0,.24.17.57.57,0,0,0,.5.24l18,.32a65,65,0,0,1-31.35,16.89c-.9.2-.73,1.64.18,1.44a66.73,66.73,0,0,0,28.22-13.71c1.74-1.44,3.34-3,5-4.59h.12a.77.77,0,0,0,.78-.78,5.58,5.58,0,0,1,6-.24,26.8,26.8,0,0,1,3.37,3.12,122.67,122.67,0,0,0,12.94,10.12,126.34,126.34,0,0,0,60.59,21.34c.92.07,1.12-1.36.19-1.43a125.3,125.3,0,0,1-46.77-13.3c4.39.15,8.46-.66,12.93-1,3-.27,6,.65,9,.76,2.3.08,4.61-.05,6.9-.12,5.76-.16,11.69-1,17.42-.78,5.14.16,10.08,1.62,15.26,1A.72.72,0,0,0,639.69,120.14ZM609.8,91.25a3.8,3.8,0,0,0,.71-.83c.07-.2.13-.41.19-.63-.06-.77.34-.78,1.19,0,.15.28,0,.71.19,1a2,2,0,0,0,.76.61c1.64,1.1,1.89,2.35,2,4.26a.65.65,0,0,0,.05.2l-6.32,0a.93.93,0,0,0,0-.24C608.53,93.88,608.63,92.61,609.8,91.25Zm-10.95,1.41c.25-1.12,1.38-3.74,2.89-2.32,1.34,1.27,1.79,3.74,1.86,5.58l-4.77,0A9.44,9.44,0,0,1,598.85,92.66ZM585.8,97.85a.73.73,0,0,0,.11-.3q20.46-.35,40.9-.23c-1,1.49-2,3-3,4.51h0a321.89,321.89,0,0,1-41.67.2A18.49,18.49,0,0,0,585.8,97.85Zm-11.3-.43-9.36-.12s0-.07,0-.11q-4.9-17.88-9.17-35.92,3.75-12,7.82-23.86Q569.65,67.34,574.5,97.42Zm-20-36.26c-.68,2.17-1.36,4.34-2,6.52q-2.34-16.64-4-33.34Q551.31,47.78,554.49,61.16Zm-5.76-32.48,14,7.2q-3.88,11.26-7.45,22.64Q551.84,43.64,548.73,28.68Zm6.4,35.21q4,16.76,8.54,33.39l-6.49-.08C555.62,88.5,554.24,79.77,553,71,553.68,68.64,554.39,66.26,555.13,63.89Zm-6.2-46.33,11.46,7.79c2.33,1.59,5.11,2.57,4,6.17-.36,1.15-1,1.91-1.21,2.94l-15-7.69c0-3-.08-6-.12-8.95Zm-.76,27.85q1.44,12.83,3.3,25.61-2.21,7.32-4.28,14.68Q548,65.55,548.17,45.41ZM546.9,92q2.45-8.88,5.08-17.7c1.14,7.63,2.37,15.25,3.74,22.85l-9.05-.11C546.76,95.39,546.82,93.71,546.9,92Zm-17-12.16q.2,5.31.38,10.6c-1.48.1-2.95.16-4.44.14-2,0-2.05-.26-2.2-2.16L523,79.92s0,0,0-.08C525.29,79.9,527.59,79.92,529.9,79.87Zm-13-.33c1.58.12,3.17.18,4.75.23a.74.74,0,0,0,0,.34l.51,6.82c.1,1.27-.18,3.31.55,4.38.53.76,1.38.69,2.23.72,1.82.07,3.66,0,5.48-.12l.15,4.42a.71.71,0,0,0,.09.28.62.62,0,0,0-.05.25l-12.66-.16a.74.74,0,0,0-.5.18L516,95.41a.74.74,0,0,0-.85-.18l-.1,0a342.64,342.64,0,0,1-44.17-4.47.6.6,0,0,0,.05-.24l-.06-14.93c2.42,0,4.82.14,7.22.36q0,6.73,0,13.47a.71.71,0,0,0,.62.62,90.21,90.21,0,0,0,10.27.13.74.74,0,0,0,.62-.81,85.34,85.34,0,0,1-.2-11.86l6,1s0,0,0,.07A49.24,49.24,0,0,1,495.16,89a.73.73,0,0,0,.62.81l6.61.5c1,.08,2.77.59,3.65-.08s.65-2.79.69-3.86l.26-6.64A57.31,57.31,0,0,0,516.87,79.54Zm-28.74,9.2c-2,.07-3.91.1-5.87,0-2.61-.08-2.73-.26-2.74-2.79,0-3.3,0-6.61,0-9.91,2.83.31,5.65.73,8.47,1.18A86.38,86.38,0,0,0,488.13,88.74Zm8.77-10.07c2.88.43,5.76.79,8.65,1-.05,1.49-.11,3-.17,4.47,0,.85.34,4-.18,4.58-.65.79-3.39.14-4.28.08l-4.25-.33A50.94,50.94,0,0,0,496.9,78.67Zm19-.47c-15.13,1.49-29.88-4.07-45-4.06l0-7,13.37,1.23c2.1.19,4.29.2,6.36.58,4,.75,4.28,2.22,6.13,4.87,1.66,2.4,3.6,3.06,6.45,3.13,4.18.1,8.37,0,12.55-.14A10.83,10.83,0,0,0,515.86,78.2Zm-12-15.12c.6-1.42,1.93-.89,3.06-.81s2.11-.35,2.28,1.12c.11,1,.08,2,.12,3q.12,3.24.26,6.47a.63.63,0,0,0,.11.35l-5.19-.08a.74.74,0,0,0,.05-.34q-.21-3.09-.44-6.19C504.07,65.79,503.57,63.84,503.88,63.08ZM493.37,66h.09a40.46,40.46,0,0,1,6.07,8.06.55.55,0,0,0,.65.29.56.56,0,0,0,.42.17l15.07.23c0,.21,0,.43,0,.64-4.36.09-9.23.73-13.54.11-5-.7-4.33-5.41-8.13-7.33-2.83-1.42-7.22-1-10.31-1.29L470.83,65.7V64.15Zm-27.56,20.5c.05.29.11.59.17.88a133.7,133.7,0,0,1-28.89-4.27l-.45-.89A147.34,147.34,0,0,0,465.81,86.51ZM444.4,96.37a.69.69,0,0,0-.56.19q-3-5.88-5.9-11.75a133.69,133.69,0,0,0,28.43,4,14.71,14.71,0,0,0,1,2.32.74.74,0,0,0,.36.32.67.67,0,0,0,.45.27,343.31,343.31,0,0,0,46.68,4.88.78.78,0,0,0,.28,0l3.18,3.38A729.72,729.72,0,0,1,444.4,96.37Zm106.9,5.41a.68.68,0,0,0-.62.3c-.85-.71-1.71-1.39-2.61-2-3.11-2.16-5.32-.7-7.53,1.39l-19.18-.34-2.8-3,64.6.82a16.86,16.86,0,0,1-3,2.79s0,0-.06.07h0Q565.68,102.41,551.3,101.78Zm62,17.81c-1.62.11-3.25.21-4.86.25a84,84,0,0,1-9.25.09c-2.09-.17-4.13-.74-6.23-.79a43.33,43.33,0,0,0-7,.92,37,37,0,0,1-9.81.06.68.68,0,0,0-.57.18,122.27,122.27,0,0,1-15.18-9.74c-3-2.21-5.61-4.88-8.39-7.32q13.71.56,27.44,0a1.05,1.05,0,0,0,.21.06,325.6,325.6,0,0,0,43.17,0q-5,7.83-9.47,16A.66.66,0,0,0,613.32,119.59Z"/><path class="cls-2" d="M507.9,121.19S2.46,103.94,2.46,181.87c0,0,.13,3.33,5.16,8.45,16.85,17.18,88.71,54.57,395.07,54.57,334,0,331.56-56.28,331.56-65.91s-14-26.34-109.35-43.2"/><path class="cls-6" d="M506.74,136.45S2.46,116.37,2.46,181.87c0,0,.13,4.14,5.16,8.45,16.85,14.44,77.68,54.57,395.07,54.57,334,0,331.56-57.36,331.56-65.44s-17.72-17.2-113-31.37Z"/><line class="cls-7" x1="550.03" y1="140.85" x2="545.19" y2="100.5"/><rect class="cls-8" x="21.88" y="201.62" width="19.35" height="7.87" rx="3.79" ry="3.79" transform="translate(76.25 2.45) rotate(21.14)"/><rect class="cls-9" x="2.42" y="188.11" width="14.4" height="7.87" rx="3.34" ry="3.34" transform="translate(124.22 37.64) rotate(39.45)"/><rect class="cls-9" x="-0.83" y="168.41" width="14.4" height="7.87" rx="3.34" ry="3.34" transform="translate(158.8 253) rotate(120)"/><rect class="cls-9" x="17.15" y="151.57" width="14.4" height="7.87" rx="3.34" ry="3.34" transform="translate(123.18 278.01) rotate(150)"/><rect class="cls-10" x="39.17" y="143.43" width="18.38" height="7.87" rx="3.79" ry="3.79" transform="translate(138.49 273.59) rotate(162.64)"/><rect class="cls-10" x="67.46" y="136.14" width="18.38" height="7.87" rx="3.79" ry="3.79" transform="translate(175.46 265.51) rotate(170.46)"/><rect class="cls-10" x="97.95" y="130.37" width="18.38" height="7.87" rx="3.79" ry="3.79" transform="translate(235.06 248.99) rotate(170.46)"/><rect class="cls-10" x="129.97" y="126.04" width="18.38" height="7.87" rx="3.79" ry="3.79" transform="translate(288.66 247.91) rotate(175.22)"/><rect class="cls-10" x="160.37" y="122.97" width="18.38" height="7.87" rx="3.79" ry="3.79" transform="translate(349.09 239.26) rotate(175.22)"/><rect class="cls-10" x="193.3" y="120.75" width="18.38" height="7.87" rx="3.79" ry="3.79" transform="translate(414.66 232.08) rotate(175.22)"/><rect class="cls-10" x="224.24" y="118.59" width="18.38" height="7.87" rx="3.79" ry="3.79" transform="translate(471 236.81) rotate(178)"/><rect class="cls-10" x="257.35" y="117.43" width="18.38" height="7.87" rx="3.79" ry="3.79" transform="translate(537.16 233.34) rotate(178)"/><rect class="cls-10" x="289.73" y="116.3" width="18.38" height="7.87" rx="3.79" ry="3.79" transform="translate(601.86 229.94) rotate(178)"/><rect class="cls-10" x="320.64" y="115.63" width="18.38" height="7.87" rx="3.79" ry="3.79" transform="translate(659.66 239.12) rotate(-180)"/><rect class="cls-10" x="351.19" y="114.65" width="18.38" height="7.87" rx="3.79" ry="3.79" transform="translate(720.75 237.18) rotate(-180)"/><rect class="cls-10" x="384.98" y="114.65" width="18.38" height="7.87" rx="3.79" ry="3.79" transform="translate(788.34 237.18) rotate(-180)"/><rect class="cls-10" x="416.19" y="114.65" width="18.38" height="7.87" rx="3.79" ry="3.79" transform="translate(850.75 237.18) rotate(-180)"/><rect class="cls-10" x="447.6" y="115.63" width="18.38" height="7.87" rx="3.79" ry="3.79" transform="translate(913.59 239.12) rotate(-180)"/><rect class="cls-10" x="479.14" y="115.63" width="18.38" height="7.87" rx="3.79" ry="3.79" transform="translate(976.66 239.12) rotate(180)"/><rect class="cls-11" x="506.56" y="115.05" width="16.43" height="7.87" rx="3.59" ry="3.59" transform="translate(1033.17 16.93) rotate(155.85)"/><rect class="cls-11" x="558.34" y="112.16" width="16.43" height="7.87" rx="3.59" ry="3.59" transform="translate(97.1 -221.65) rotate(24.15)"/><rect class="cls-11" x="580.22" y="122.73" width="16.43" height="7.87" rx="3.59" ry="3.59" transform="translate(103.34 -229.68) rotate(24.15)"/><rect class="cls-11" x="604.21" y="129.25" width="16.43" height="7.87" rx="3.59" ry="3.59" transform="translate(24.24 -83.23) rotate(7.93)"/><rect class="cls-11" x="629.74" y="133.48" width="16.43" height="7.87" rx="3.94" ry="3.94" transform="matrix(0.99, 0.14, -0.14, 0.99, 25.06, -86.71)"/><rect class="cls-11" x="654.38" y="138.8" width="16.43" height="7.87" rx="3.94" ry="3.94" transform="translate(60.77 -169.05) rotate(15.23)"/><rect class="cls-11" x="678.83" y="144.75" width="16.43" height="7.87" rx="3.94" ry="3.94" transform="translate(63.19 -175.26) rotate(15.23)"/><rect class="cls-11" x="701.02" y="152.96" width="16.43" height="7.87" rx="3.94" ry="3.94" transform="translate(126.28 -276.46) rotate(24.15)"/><rect class="cls-11" x="720.23" y="165.75" width="16.43" height="7.87" rx="3.94" ry="3.94" transform="translate(408.06 -506.17) rotate(51.52)"/><rect class="cls-12" x="725.09" y="183.66" width="12.91" height="7.87" rx="3.5" ry="3.5" transform="translate(1140.27 -447.45) rotate(108.38)"/><rect class="cls-13" x="527.05" y="105.07" width="10.27" height="7.87" rx="3.94" ry="3.94" transform="translate(1010.86 -147.84) rotate(140.21)"/><rect class="cls-13" x="546.91" y="99.63" width="10.27" height="7.87" rx="3.94" ry="3.94" transform="translate(200.3 -334.34) rotate(40.6)"/><rect class="cls-8" x="50.39" y="211.49" width="19.35" height="7.87" rx="3.79" ry="3.79" transform="translate(68.17 -8.07) rotate(17.66)"/><rect class="cls-8" x="79.65" y="218.63" width="19.35" height="7.87" rx="3.79" ry="3.79" transform="translate(71.71 -16.61) rotate(17.66)"/><rect class="cls-8" x="111.93" y="225.14" width="19.35" height="7.87" rx="3.79" ry="3.79" transform="translate(40.26 -17.19) rotate(9.68)"/><rect class="cls-8" x="145.11" y="229.29" width="19.35" height="7.87" rx="3.79" ry="3.79" transform="translate(16.23 -9.99) rotate(3.9)"/><rect class="cls-8" x="178.66" y="232.72" width="19.35" height="7.87" rx="3.79" ry="3.79" transform="translate(16.54 -12.27) rotate(3.9)"/><rect class="cls-8" x="211.49" y="234.96" width="19.35" height="7.87" rx="3.79" ry="3.79" transform="translate(16.77 -14.5) rotate(3.9)"/><rect class="cls-8" x="244.84" y="237.23" width="19.35" height="7.87" rx="3.79" ry="3.79" transform="translate(17.01 -16.76) rotate(3.9)"/><rect class="cls-8" x="280.05" y="238.5" width="19.35" height="7.87" rx="3.79" ry="3.79"/><rect class="cls-8" x="316.49" y="239.76" width="19.35" height="7.87" rx="3.79" ry="3.79"/><rect class="cls-8" x="349.86" y="240.95" width="19.35" height="7.87" rx="3.79" ry="3.79"/><rect class="cls-8" x="383.33" y="239.76" width="19.35" height="7.87" rx="3.79" ry="3.79"/><rect class="cls-8" x="416.53" y="239.76" width="19.35" height="7.87" rx="3.79" ry="3.79"/><rect class="cls-8" x="449.36" y="239.76" width="19.35" height="7.87" rx="3.79" ry="3.79"/><rect class="cls-8" x="483.46" y="238.5" width="19.35" height="7.87" rx="3.79" ry="3.79"/><rect class="cls-8" x="516.11" y="237.02" width="19.35" height="7.87" rx="3.79" ry="3.79"/><rect class="cls-8" x="548.8" y="235.82" width="19.35" height="7.87" rx="3.79" ry="3.79" transform="translate(-24.72 68.7) rotate(-6.89)"/><rect class="cls-8" x="584.87" y="232.38" width="19.35" height="7.87" rx="3.79" ry="3.79" transform="translate(-24.05 73) rotate(-6.89)"/><rect class="cls-8" x="617.44" y="226.97" width="19.35" height="7.87" rx="3.79" ry="3.79" transform="translate(-23.16 76.87) rotate(-6.89)"/><rect class="cls-8" x="649.19" y="221.19" width="19.35" height="7.87" rx="3.79" ry="3.79" transform="translate(-32.72 144.51) rotate(-12.22)"/><rect class="cls-8" x="679.22" y="212.9" width="19.35" height="7.87" rx="3.79" ry="3.79" transform="translate(-33.3 221.48) rotate(-17.84)"/><rect class="cls-8" x="705.92" y="200.87" width="19.35" height="7.87" rx="3.79" ry="3.79" transform="translate(-6.53 385.24) rotate(-30)"/><path class="cls-5" d="M625.81,125.32a5.67,5.67,0,0,1-5.81-1.55.7.7,0,0,0-.72-.1,10,10,0,0,1-5,1.14c-1.35-.09-3-1.34-4.13-1.27-2.53.14-4.76,1.42-7.51,1.29-.92,0-1.12,1.39-.19,1.43,2.37.11,4.35-.52,6.61-.87s4.52,1.06,6.89.81a25.53,25.53,0,0,1,2.87-.71,6.59,6.59,0,0,1,2.5,1,7,7,0,0,0,5,.16C627.25,126.4,626.7,125.07,625.81,125.32Z"/><path class="cls-5" d="M642.39,130.59c-2.26,1.15-4.35-1.24-6.62-.84-3,.53-6.22,2.33-8.94-.2-.68-.64-1.57.5-.89,1.13,1.87,1.75,5.23,2.15,7.66,1.47.6-.17,1.21-.67,1.82-.8,2.12-.45,2.77.49,4.5.9a3.89,3.89,0,0,0,3-.32C643.76,131.51,643.22,130.17,642.39,130.59Z"/><line class="cls-4" x1="525.66" y1="138.37" x2="545.19" y2="100.5"/><circle class="cls-6" cx="545.19" cy="104.31" r="15.11"/><circle class="cls-6" cx="540.95" cy="111.83" r="15.11"/><circle class="cls-6" cx="536.71" cy="119.34" r="15.11"/><circle class="cls-6" cx="532.48" cy="126.85" r="15.11"/><circle class="cls-6" cx="528.24" cy="134.36" r="15.11"/><circle class="cls-6" cx="524" cy="141.87" r="15.11"/><circle class="cls-6" cx="519.76" cy="149.38" r="15.11"/><circle class="cls-6" cx="515.52" cy="156.9" r="15.11"/><circle class="cls-6" cx="511.28" cy="164.41" r="15.11"/><circle class="cls-6" cx="507.04" cy="171.92" r="15.11"/><circle class="cls-14" cx="502.8" cy="179.43" r="15.11"/><path class="cls-5" d="M306.92,173.11c.33-.33.82-.19,1.87.38,1.39.76,8.23,4.67,9,4.77a15.49,15.49,0,0,0,4,.46c1.29-.2,18-4.1,21.24-4.53a4.92,4.92,0,0,1,.19-1.88c.3-.79,1.59-4.67,1.59-4.67,2.27,0,6,5.75,6,5.75s9.1-.1,13.13.8,12.41,3.14,12.41,3.14a35.26,35.26,0,0,1,3.34,1.29v.6l-.29.53s.66.13.69.26.23,1.36-6.22,3.77-6.45,1.86-6.68,1.62c0,0-17.64,2.95-32,.27,0,0-4.73,1.39-6,.79s-2-1.25-5.09-2.81-6.73-1.06-10.66,1.56c-.49.36-2.74,1.78-2.94,1.88s-2,.93-2.12,1a10.15,10.15,0,0,1-2.35,1.09c-.2-.13-.23-.3,0-.73,2.1-3.75,5.74-7.11,4.83-8.44a31.76,31.76,0,0,0-2-3.4S306.58,173.44,306.92,173.11Z"/><circle class="cls-15" cx="369.91" cy="178.76" r="1.26"/><path class="cls-15" d="M366.18,184.08c-1.82-2.93-.75-6.57-.7-6.72l.93.28s-1,3.38.59,5.93Z"/><path class="cls-5" d="M356.41,197.65c.27-.38.78-.33,1.91,0,1.51.48,9,3,9.77,3a15.84,15.84,0,0,0,4.05-.31c1.23-.44,16.93-7.45,20-8.48A5,5,0,0,1,392,190c.15-.83.68-4.89.68-4.89,2.23-.43,6.94,4.52,6.94,4.52s8.92-1.82,13.05-1.7,12.78.73,12.78.73a35,35,0,0,1,3.53.63l.11.59-.19.58s.67,0,.73.12.48,1.29-5.39,4.89-6,3-6.26,2.85c0,0-16.76,6.24-31.36,6.33,0,0-4.39,2.26-5.77,1.92s-2.19-.86-5.53-1.8-6.81.23-10.17,3.55c-.42.45-2.36,2.27-2.53,2.41l-1.89,1.4c-.14.13-1.88,1.61-2.1,1.52s-.28-.25-.1-.72c1.34-4.08,4.28-8.07,3.14-9.2a31.23,31.23,0,0,0-2.63-3S356.15,198,356.41,197.65Z"/><circle class="cls-15" cx="419.34" cy="191.27" r="1.26"/><path class="cls-15" d="M416.68,197.2c-2.34-2.53-2-6.3-2-6.46l1,.1s-.33,3.5,1.71,5.7Z"/><path class="cls-5" d="M339,222.68c.28-.38.79-.31,1.91.1,1.48.54,8.84,3.37,9.64,3.34a15.52,15.52,0,0,0,4.06-.15c1.25-.39,17.21-6.77,20.32-7.68a4.86,4.86,0,0,1-.09-1.88c.17-.83.87-4.87.87-4.87,2.24-.34,6.75,4.8,6.75,4.8s9-1.47,13.11-1.2,12.74,1.23,12.74,1.23a35,35,0,0,1,3.5.78l.09.59-.22.56s.68,0,.73.16.43,1.31-5.58,4.67-6.1,2.8-6.36,2.61c0,0-17,5.57-31.59,5.09,0,0-4.47,2.08-5.84,1.69s-2.15-.94-5.46-2-6.81,0-10.3,3.14c-.43.44-2.44,2.18-2.62,2.31s-1.79,1.21-1.94,1.33-1.94,1.54-2.16,1.44-.27-.26-.07-.73c1.5-4,4.59-7.89,3.5-9.07a31.77,31.77,0,0,0-2.51-3.06S338.76,223.06,339,222.68Z"/><circle class="cls-15" cx="402.17" cy="218.76" r="1.26"/><path class="cls-15" d="M399.28,224.59c-2.24-2.63-1.73-6.38-1.71-6.54l1,.14s-.46,3.48,1.49,5.76Z"/><path class="cls-5" d="M187.18,202.76c.33-.33.83-.19,1.87.38,1.39.77,8.24,4.67,9,4.77a15.55,15.55,0,0,0,4,.46c1.29-.2,18-4.1,21.24-4.53a4.92,4.92,0,0,1,.19-1.88c.3-.79,1.6-4.67,1.6-4.67,2.26,0,5.95,5.75,5.95,5.75s9.1-.09,13.14.8,12.4,3.14,12.4,3.14a35.43,35.43,0,0,1,3.35,1.29v.6l-.3.53s.66.13.69.26.24,1.36-6.22,3.77-6.45,1.86-6.68,1.63c0,0-17.64,2.94-32,.26,0,0-4.73,1.39-6,.79s-2-1.25-5.09-2.81-6.73-1.06-10.66,1.56c-.49.36-2.74,1.78-2.94,1.88s-2,.93-2.12,1a10,10,0,0,1-2.35,1.09c-.2-.13-.23-.3,0-.73,2.09-3.75,5.73-7.11,4.83-8.43a32.49,32.49,0,0,0-2-3.41S186.84,203.09,187.18,202.76Z"/><circle class="cls-15" cx="250.17" cy="208.41" r="1.26"/><path class="cls-15" d="M246.44,213.73c-1.82-2.93-.75-6.56-.7-6.72l.93.28s-1,3.38.59,5.93Z"/><path class="cls-5" d="M427.3,212.47c.24-.41.75-.4,1.91-.13,1.54.36,9.19,2.28,10,2.16a15.58,15.58,0,0,0,4-.64c1.19-.54,16.27-8.81,19.24-10.08a5.07,5.07,0,0,1-.32-1.86c.07-.85.28-4.93.28-4.93,2.18-.61,7.28,3.94,7.28,3.94s8.74-2.55,12.87-2.77,12.79-.32,12.79-.32a34.2,34.2,0,0,1,3.57.35l.16.57-.14.59s.67,0,.74.07.58,1.24-5,5.31-5.71,3.52-6,3.36c0,0-16.19,7.58-30.74,8.86,0,0-4.19,2.61-5.59,2.39s-2.25-.67-5.66-1.34-6.77.79-9.84,4.37c-.38.48-2.17,2.46-2.33,2.6s-1.63,1.42-1.77,1.56-1.74,1.76-2,1.69-.31-.23-.17-.71c1-4.18,3.61-8.4,2.38-9.43a32.53,32.53,0,0,0-2.86-2.74S427.07,212.88,427.3,212.47Z"/><circle class="cls-15" cx="489.5" cy="200.96" r="1.26"/><path class="cls-15" d="M487.33,207.09c-2.54-2.33-2.49-6.12-2.48-6.28l1,0s0,3.51,2.17,5.54Z"/><path class="cls-5" d="M276.65,207.25c.33-.33.83-.18,1.87.39,1.39.76,8.24,4.66,9,4.76a15.89,15.89,0,0,0,4,.47c1.29-.2,18-4.11,21.24-4.54a4.87,4.87,0,0,1,.19-1.87c.3-.8,1.6-4.68,1.6-4.68,2.26,0,5.95,5.76,5.95,5.76s9.1-.1,13.14.79,12.4,3.15,12.4,3.15a32.9,32.9,0,0,1,3.35,1.29v.59l-.3.53s.66.13.69.27.23,1.35-6.22,3.77-6.45,1.85-6.68,1.62c0,0-17.64,2.94-32,.26,0,0-4.73,1.39-6,.8s-2-1.25-5.09-2.81-6.73-1.07-10.66,1.55c-.49.37-2.74,1.79-2.94,1.89s-1.95.92-2.12,1-2.15,1.23-2.35,1.09-.23-.29,0-.72c2.1-3.75,5.74-7.12,4.84-8.44a32.49,32.49,0,0,0-2-3.41S276.31,207.58,276.65,207.25Z"/><circle class="cls-15" cx="339.64" cy="212.9" r="1.26"/><path class="cls-15" d="M335.91,218.23c-1.82-2.93-.75-6.57-.7-6.72l.93.28s-1,3.37.59,5.92Z"/><path class="cls-5" d="M601.59,201.14c-.24-.4-.76-.38-1.91-.08-1.53.4-9.12,2.53-9.91,2.44a16,16,0,0,1-4-.53c-1.21-.51-16.5-8.36-19.51-9.55a5.09,5.09,0,0,0,.27-1.87c-.1-.84-.42-4.92-.42-4.92-2.19-.55-7.17,4.14-7.17,4.14s-8.8-2.3-12.94-2.41-12.8,0-12.8,0a34.06,34.06,0,0,0-3.55.44l-.15.58.16.59s-.67,0-.73.08-.56,1.26,5.12,5.17,5.81,3.36,6.09,3.19c0,0,16.39,7.14,31,8,0,0,4.26,2.49,5.65,2.23s2.24-.73,5.63-1.5,6.78.6,10,4.09c.39.48,2.23,2.4,2.4,2.55s1.67,1.37,1.8,1.51,1.79,1.71,2,1.63.3-.24.14-.72c-1.12-4.15-3.83-8.29-2.64-9.36a31.74,31.74,0,0,1,2.79-2.81S601.84,201.54,601.59,201.14Z"/><circle class="cls-15" cx="539.1" cy="191.35" r="1.26"/><path class="cls-15" d="M541.44,197.42c2.47-2.4,2.32-6.19,2.31-6.35l-1,.05s.13,3.51-2,5.6Z"/><path class="cls-5" d="M671.64,186.93c-.3-.36-.81-.25-1.89.23-1.45.65-8.59,4-9.39,4a15.41,15.41,0,0,1-4.06.14c-1.27-.3-17.64-5.54-20.81-6.22a4.83,4.83,0,0,0,0-1.89c-.23-.81-1.21-4.79-1.21-4.79-2.26-.18-6.4,5.26-6.4,5.26s-9.06-.83-13.16-.26-12.62,2.13-12.62,2.13a35.08,35.08,0,0,0-3.43,1l0,.59.25.55s-.67.08-.71.21-.34,1.34,5.9,4.26,6.28,2.37,6.53,2.16c0,0,17.34,4.35,31.87,2.83,0,0,4.6,1.77,5.94,1.28s2.08-1.09,5.3-2.4,6.79-.51,10.5,2.41c.46.4,2.59,2,2.78,2.12s1.87,1.08,2,1.19a10.15,10.15,0,0,0,2.25,1.28c.21-.12.26-.28,0-.73-1.79-3.91-5.15-7.55-4.14-8.8a32.41,32.41,0,0,1,2.29-3.23S672,187.28,671.64,186.93Z"/><circle class="cls-15" cx="608.4" cy="187.49" r="1.26"/><path class="cls-15" d="M611.69,193.1c2-2.77,1.28-6.49,1.24-6.64l-.95.2s.71,3.45-1.07,5.86Z"/><path class="cls-5" d="M579.37,222.14c-.2-.43-.72-.46-1.89-.28-1.57.25-9.33,1.59-10.12,1.41a15.56,15.56,0,0,1-4-.94c-1.14-.62-15.56-10-18.43-11.49a4.94,4.94,0,0,0,.46-1.83c0-.85.09-4.94.09-4.94-2.13-.77-7.56,3.39-7.56,3.39s-8.52-3.19-12.62-3.73-12.74-1.26-12.74-1.26-3.53-.05-3.58.07l-.2.56.1.6s-.67-.1-.75,0-.67,1.19,4.57,5.66,5.44,3.94,5.73,3.8c0,0,15.58,8.77,30,11.14,0,0,4,2.91,5.39,2.79s2.3-.5,5.75-.91,6.68,1.29,9.49,5.09c.34.51,2,2.61,2.12,2.78s1.52,1.53,1.65,1.68,1.6,1.88,1.83,1.83.32-.2.22-.7c-.69-4.24-3-8.64-1.67-9.58a32.86,32.86,0,0,1,3.06-2.51S579.57,222.56,579.37,222.14Z"/><circle class="cls-15" cx="518.21" cy="206.01" r="1.26"/><path class="cls-15" d="M519.91,212.29c2.71-2.14,2.94-5.92,3-6.08l-1-.05s-.22,3.5-2.58,5.36Z"/><path class="cls-5" d="M438.65,183.32c.27-.38.78-.32,1.9.07,1.5.52,8.91,3.23,9.71,3.19a15.34,15.34,0,0,0,4.05-.21c1.24-.41,17.1-7.06,20.19-8a5,5,0,0,1-.12-1.88c.16-.83.79-4.87.79-4.87,2.23-.38,6.83,4.68,6.83,4.68s9-1.61,13.09-1.41,12.75,1,12.75,1a34.72,34.72,0,0,1,3.51.72l.1.59-.2.57s.67,0,.73.14.45,1.3-5.51,4.76-6.05,2.9-6.32,2.71c0,0-16.89,5.85-31.5,5.6,0,0-4.43,2.16-5.8,1.79s-2.17-.91-5.5-1.93-6.81.07-10.24,3.31c-.43.44-2.41,2.22-2.59,2.35s-1.77,1.24-1.92,1.37-1.91,1.56-2.13,1.46-.28-.25-.09-.72c1.44-4.05,4.46-8,3.35-9.12a30.88,30.88,0,0,0-2.55-3S438.37,183.7,438.65,183.32Z"/><circle class="cls-15" cx="501.7" cy="178.39" r="1.26"/><path class="cls-15" d="M498.91,184.26c-2.28-2.58-1.84-6.35-1.82-6.51l1,.12s-.41,3.5,1.57,5.75Z"/><path class="cls-16" d="M349.86,73l.63-3.64c.43,0,1.63.29,3.61.71s3.75.74,5.31,1a31.7,31.7,0,0,0,4.17.32A8.41,8.41,0,0,0,370.67,68,12.78,12.78,0,0,0,373.25,60,15,15,0,0,0,369,49.37q-4.25-4.48-12.25-4.48a17.23,17.23,0,0,0-1.9.08V41.08a20,20,0,0,0,2.22.08q7.2,0,11.77-2.53a8.6,8.6,0,0,0,4.56-8.09A9.48,9.48,0,0,0,371,23.8a8.11,8.11,0,0,0-6.19-2.54c-1.16,0-2.41.07-3.76.2s-2.82.31-4.4.52l-3,.39L352.4,18.8q.94-.23,3.09-.87c1.43-.42,2.55-.74,3.37-.95a29.67,29.67,0,0,1,3.13-.59,24.16,24.16,0,0,1,3.57-.28,12,12,0,0,1,9.67,4.24Q378.8,24.6,378.8,32a12.51,12.51,0,0,1-2.26,7.69,10,10,0,0,1-6.86,3.72,14.29,14.29,0,0,1,7.26,6.23,20,20,0,0,1,2.49,10.18,20.48,20.48,0,0,1-3.17,11.54q-3.17,4.8-9.59,4.8A43.7,43.7,0,0,1,349.86,73Z"/></svg>