<svg id="Layer_1" data-name="Layer 1" xmlns="http://www.w3.org/2000/svg" xmlns:xlink="http://www.w3.org/1999/xlink" viewBox="0 0 736.94 393.98"><defs><style>.cls-1,.cls-2,.cls-5,.cls-7{fill:none;}.cls-10,.cls-11,.cls-12,.cls-13,.cls-2,.cls-5,.cls-6,.cls-7,.cls-8,.cls-9{stroke:#01336e;stroke-miterlimit:10;}.cls-2{stroke-width:1.44px;}.cls-3{fill:#01336e;}.cls-4{clip-path:url(#clip-path);}.cls-5{stroke-width:1.5px;}.cls-6{fill:#ebf2f5;stroke-width:1.32px;}.cls-7{stroke-width:1.25px;}.cls-10,.cls-11,.cls-12,.cls-13,.cls-15,.cls-8,.cls-9{fill:#00adb5;}.cls-8{stroke-width:1.35px;}.cls-9{stroke-width:1.17px;}.cls-10{stroke-width:1.32px;}.cls-11{stroke-width:1.25px;}.cls-12{stroke-width:1.1px;}.cls-13{stroke-width:0.99px;}.cls-14{fill:#fff;}</style><clipPath id="clip-path"><path class="cls-1" d="M734.25,179c0-9.62-14-25.67-109.34-42.53L596.55,130c-10.23-2.78-23.76-8.57-32.23-14.93l-13.64-13c-2.16-2.25-6.32-2-8.71,0l-22.09,15.25-12,3.83S2.46,103.94,2.46,181.87A6.36,6.36,0,0,0,3,183.73L39.6,318s24,54.36,334.34,54.36,324.71-55.8,324.71-55.8l32.6-126A20.94,20.94,0,0,0,734.25,179Z"/></clipPath></defs><title>otvetArtboard 18</title><path class="cls-2" d="M2.46,181.87,39.6,318s24,54.36,334.34,54.36,324.71-55.8,324.71-55.8L734.25,179"/><path class="cls-3" d="M546.93,376.42a18.54,18.54,0,0,0,4.22-11.65c0-.92-1.42-1.12-1.43-.19a17.23,17.23,0,0,1-4.22,11.3,5.64,5.64,0,0,0-2.19-.14l-3-10.51c-.26-.89-1.59-.34-1.34.54l3,10.37a4.66,4.66,0,0,0-2,1.79.77.77,0,0,0,.28,1.08c0,.13,0,.25,0,.37-22.16,7.21-45.61,7.16-68.66,7a0,0,0,0,0,0,0,3.89,3.89,0,0,0-.94-1.85,4,4,0,0,0-1.33-.94c2.39-4.09,4.28-8.48,3-13.28-.23-.88-1.66-.71-1.43.19,1.19,4.54-.63,8.69-2.92,12.54a1,1,0,0,0-.08.2,4.88,4.88,0,0,0-1.65.19A32.26,32.26,0,0,0,456.47,370c-.72-.59-1.61.54-.89,1.13a30.88,30.88,0,0,1,9.3,12.83v0a6.15,6.15,0,0,0-.62.42.73.73,0,0,0-.2.27,3.3,3.3,0,0,0-1,2.36,452.4,452.4,0,0,1-75.32,2.71,4.92,4.92,0,0,0-1.47-3.06c-.06-.06-.13-.09-.19-.15a103.29,103.29,0,0,0,5.21-13.83c.26-.88-1.07-1.45-1.33-.56a103.69,103.69,0,0,1-5.13,13.64,4.72,4.72,0,0,0-3.06-.1c-2.87-4.65-3.76-10.23-7.73-14.21-.65-.66-1.54.48-.89,1.13,3.74,3.76,4.67,9.24,7.32,13.69a4.43,4.43,0,0,0-.6.47.76.76,0,0,0-.12,1,3.56,3.56,0,0,0-.62,1.49q-38.68,1.08-77.37-.1a.76.76,0,0,0-.16,0,3.47,3.47,0,0,0-1.5-2.89,2.69,2.69,0,0,0-.38-.19q2.42-7,4.84-14c.3-.87-1-1.44-1.33-.56q-2.46,7.14-4.94,14.27a3.46,3.46,0,0,0-.84.16.7.7,0,0,0-.14-.27,119.83,119.83,0,0,1-10.71-15.8c-.46-.81-1.61.06-1.16.86a118.39,118.39,0,0,0,10.72,15.81l.09.08a3.21,3.21,0,0,0-.62.7,2.31,2.31,0,0,0-1,.57.65.65,0,0,0-.29-.06,506,506,0,0,1-72-4.47,3.3,3.3,0,0,0-1.76-3.29,48.72,48.72,0,0,1,6.5-11.67c.56-.74-.57-1.64-1.13-.89a49.81,49.81,0,0,0-6.72,12.05,8.5,8.5,0,0,0-2.42,0A77.71,77.71,0,0,0,210,365.06c-.47-.79-1.62.08-1.15.87a76.21,76.21,0,0,1,6.54,14,2.49,2.49,0,0,0-1.75,1.46.62.62,0,0,0-.29.25,4,4,0,0,0-.34.69,217.27,217.27,0,0,1-50.3-7.66.79.79,0,0,0-.95.49,5.25,5.25,0,0,0-1.3-3.47A98.06,98.06,0,0,1,166,361.53c.49-.78-.64-1.68-1.13-.89a103.63,103.63,0,0,0-5.5,10c-.12-.08-.23-.17-.36-.24a4.88,4.88,0,0,0-2.61-.57.75.75,0,0,0,.1-.46q-.66-5.16-1.09-10.33c-.07-.93-1.5-.74-1.43.19q.43,5.17,1.09,10.33a.65.65,0,0,0,.25.45,5.72,5.72,0,0,0-2.85,1.83,453.51,453.51,0,0,1-47.25-11.2h0a4.55,4.55,0,0,0-1.1-4.09,4.11,4.11,0,0,0-.55-.48l0,0a36.65,36.65,0,0,1,3-5.12c.54-.76-.59-1.65-1.13-.89a37.93,37.93,0,0,0-3.16,5.31,5.08,5.08,0,0,0-1.64-.32.65.65,0,0,0,0-.31,24.38,24.38,0,0,0-2.48-7.43c-.43-.81-1.77-.28-1.34.55a22.94,22.94,0,0,1,2.39,7.06.73.73,0,0,0,.09.22,7,7,0,0,0-2.5,1,.63.63,0,0,0-.16.95,3.21,3.21,0,0,0-.62,1.22,248.45,248.45,0,0,1-22.73-10.94,3.3,3.3,0,0,0,.18-.32,3.62,3.62,0,0,0-.91-4.22,4.75,4.75,0,0,0,1.92-1.8c.47-.79-.66-1.69-1.13-.89a3.66,3.66,0,0,1-2.19,1.7l-.1.05-.34-.11c-.17-1.25-.35-2.5-.52-3.75a.72.72,0,0,0-1.43.18c.15,1.07.29,2.13.44,3.19-2.32-.33-4.75.39-5.24,2.33a63.87,63.87,0,0,1-15.61-10.51,4.18,4.18,0,0,0-.54-3.9,4.62,4.62,0,0,0-.73-.79L48.44,327c.61-.7-.52-1.59-1.14-.9l-1.42,1.62a5.31,5.31,0,0,0-.56-.2c0-1.19,0-2.38,0-3.57,0-.92-1.43-.73-1.43.19s0,2.08,0,3.12a6.23,6.23,0,0,0-1.49.1c-.08-.5-.62-.91-1.1-.49-3.56,3.16,1.89,10.08,5.87,7.73a2.55,2.55,0,0,0,.31-.24,64.84,64.84,0,0,0,16,10.74c-.38,1.79,1.14,3.59,3,4.14s4.36.53,5.88-.73A248.68,248.68,0,0,0,96,359.86a4.12,4.12,0,0,0,.87,1.89c1.61,2,4.9,2.77,7,1.09a3.8,3.8,0,0,0,.78-.88l.06,0a456.68,456.68,0,0,0,48.83,11.52c0,3.14,6.39,7,8,2.88a4,4,0,0,0,.22-.89.55.55,0,0,0,.42.46,218.87,218.87,0,0,0,50.73,7.76c.6,2.95,6.85,4.06,8.92,1A510.52,510.52,0,0,0,294,389.26a3.14,3.14,0,0,0,1.12,2.9,4.25,4.25,0,0,0,5.77-.61,3.25,3.25,0,0,0,.57-1.05.65.65,0,0,0,.2.05q38.79,1.18,77.59.1a4,4,0,0,0,1.11,2,4.82,4.82,0,0,0,6.47.09,3.51,3.51,0,0,0,.88-1.61,454.29,454.29,0,0,0,75.75-2.72,3.49,3.49,0,0,0,.73,1.08,4.92,4.92,0,0,0,6.11.52,3.44,3.44,0,0,0,1.31-2.27c23.12.19,46.57.2,68.8-6.95,1.07,3.41,6.59,4.27,8.51.26C549.91,378.92,548.73,377.34,546.93,376.42Zm-500.61-43c-2,1-5.13-2.17-4.74-4.34h.07a4.14,4.14,0,0,1,4.3.34C47.05,330.3,48,332.59,46.32,333.44ZM72,346.67c-1.46,3.23-9.18.65-6.63-2.12a.6.6,0,0,0,.09-.77C66.7,341.9,73.93,342.46,72,346.67Zm31.42,14.41c-2.44,4-8.56-1.93-5.09-3.58a.7.7,0,0,0,.41-.76,3.89,3.89,0,0,1,3.69.33A3,3,0,0,1,103.44,361.08Zm52.1,11.63a.66.66,0,0,0-.1-1.17,3.64,3.64,0,0,1,4.68,2.28C162.18,379.68,152.61,374.58,155.54,372.71Zm65.17,11.06c-1.08,2.12-5.83,1.43-6.37-.26a.78.78,0,0,0,.11-.91.93.93,0,0,1,.05-.1,0,0,0,0,1,0,0,.71.71,0,0,0,.52-.75c0-.54,3.28-.84,3.76-.78C220.18,381.12,221.48,382.26,220.71,383.77Zm79.22,6.59a2.76,2.76,0,0,1-3,1.12c-1.17-.32-2.28-2.07-.93-2.7a.65.65,0,0,0,.79-.41,1.87,1.87,0,0,1,1.86-1.15.85.85,0,0,0,.31.06,1.14,1.14,0,0,1,.26.09A2.17,2.17,0,0,1,299.93,390.36Zm86.43.12a3.14,3.14,0,0,1-.12.51c-.61,1.77-3.18,1.91-4.54,1a2.35,2.35,0,0,1,0-4.06.57.57,0,0,0,.26-.76,3.13,3.13,0,0,1,2.56,0,3.34,3.34,0,0,1,1.83,3.17A.71.71,0,0,0,386.36,390.48Zm83-1.59c-2.18,1.71-6.82-1.24-4.18-3.35a.48.48,0,0,0,.09-.11,3.15,3.15,0,0,1,3.84-.29A2.37,2.37,0,0,1,469.4,388.89ZM547.74,380c-.69,3.77-7.26,2.85-6-1.26a.76.76,0,0,0-.09-.63,3.21,3.21,0,0,1,2.79-1,5.23,5.23,0,0,1,.8.17.82.82,0,0,0,.54.18C546.94,377.88,548,378.7,547.74,380Z"/><path class="cls-3" d="M696.33,323.86a3.1,3.1,0,0,0-4.58,1.29.62.62,0,0,0,.22.82c-.48,1.53-.87,3.55.2,4.83-3.42,4.6-8.86,7.21-13.74,10q-8.85,5-17.91,9.68a3.81,3.81,0,0,0-2.15-2.67c.07-1.63.15-3.27.23-4.91,0-.92-1.39-1.12-1.43-.19l-.23,4.91a3.6,3.6,0,0,0-2.16.95A7.91,7.91,0,0,0,652,344.1a.72.72,0,0,0-.9,1.13,6.44,6.44,0,0,1,2.43,4.27.65.65,0,0,0,.18.37,10.25,10.25,0,0,0-1,2.27.83.83,0,0,0,0,.27.67.67,0,0,0-.08.17,3.52,3.52,0,0,0,0,1A132.18,132.18,0,0,1,606,367.7v-.12a2.82,2.82,0,0,0-2.66-2.85,32.08,32.08,0,0,0,1.5-7.66c.06-.92-1.37-1.12-1.43-.19a30.65,30.65,0,0,1-1.59,7.87,10.12,10.12,0,0,0-1.09.25,15.75,15.75,0,0,0-2.56-7.45c-.51-.78-1.66.09-1.15.86a14.42,14.42,0,0,1,2.34,7.36,4.89,4.89,0,0,0-2.65,3.35A213.89,213.89,0,0,1,550,378.58c-.93.08-.74,1.51.18,1.43a216,216,0,0,0,46.61-9.42c.66,2,3.4,2.2,5.25,2.05a4.13,4.13,0,0,0,3.79-3.47A133.35,133.35,0,0,0,652.92,355a3.74,3.74,0,0,0,3,2,4.67,4.67,0,0,0,4.76-4.23,4.46,4.46,0,0,0,0-.82s.06,0,.08,0q9.34-4.82,18.47-10c5-2.86,10.57-5.55,14.06-10.31,1.79.65,3.71-.78,4.41-2.41A4.37,4.37,0,0,0,696.33,323.86Zm-91.84,44.8a2.85,2.85,0,0,1-3.08,2.57c-1,0-2.75.07-3.21-1.08l.13,0c.71-.23.49-1.13-.09-1.32a4.64,4.64,0,0,1,3-2.29.75.75,0,0,0,.46-.34l.43-.1a.69.69,0,0,0,.68-.07,2,2,0,0,1,.79.15C604.61,366.6,604.63,367.73,604.49,368.66ZM657,355.43a2.29,2.29,0,0,1-3.07-2.34.76.76,0,0,0,.26-1.08,4.35,4.35,0,0,1,2.13-2.8c1.79-.76,2.87,1,2.94,2.59A3.49,3.49,0,0,1,657,355.43Zm39.39-26.77c-.42.95-1.45,1.94-2.5,1.56a.79.79,0,0,0-.69-.47c-.72-.89-.22-2.38.11-3.37a.73.73,0,0,0-.21-.78,1.74,1.74,0,0,1,2.9-.09A3,3,0,0,1,696.43,328.66Z"/><g class="cls-4"><path class="cls-5" d="M57,102.1c-2.15,2-104.32,123.31-112.33,129.56s-44.68,41.89-55.79,58.69c-6.08,9.2-73.34,81.3-75.15,82"/><path class="cls-5" d="M75.22,102.1c-2.15,2-104.32,123.31-112.33,129.56s-44.68,41.89-55.78,58.69c-6.08,9.2-73.35,81.3-75.16,82"/><path class="cls-5" d="M93.44,102.1c-2.15,2-104.32,123.31-112.33,129.56s-44.68,41.89-55.79,58.69c-6.08,9.2-73.34,81.3-75.15,82"/><path class="cls-5" d="M111.65,102.1C109.5,104.06,7.33,225.41-.67,231.66s-44.68,41.89-55.79,58.69c-6.08,9.2-73.35,81.3-75.16,82"/><path class="cls-5" d="M129.87,102.1c-2.15,2-104.32,123.31-112.33,129.56s-44.68,41.89-55.79,58.69c-6.08,9.2-73.34,81.3-75.15,82"/><path class="cls-5" d="M148.08,102.1c-2.15,2-104.32,123.31-112.32,129.56S-8.92,273.55-20,290.35c-6.08,9.2-73.35,81.3-75.16,82"/><path class="cls-5" d="M166.3,102.1C164.15,104.06,62,225.41,54,231.66S9.29,273.55-1.81,290.35c-6.08,9.2-73.35,81.3-75.16,82"/><path class="cls-5" d="M184.51,102.1c-2.15,2-104.32,123.31-112.32,129.56S27.51,273.55,16.4,290.35c-6.08,9.2-73.35,81.3-75.15,82"/><path class="cls-5" d="M202.73,102.1c-2.15,2-104.32,123.31-112.33,129.56s-44.68,41.89-55.78,58.69c-6.08,9.2-73.35,81.3-75.16,82"/><path class="cls-5" d="M220.94,102.1c-2.15,2-104.32,123.31-112.32,129.56s-44.68,41.89-55.79,58.69c-6.08,9.2-73.35,81.3-75.15,82"/><path class="cls-5" d="M239.16,102.1c-2.15,2-104.32,123.31-112.33,129.56s-44.68,41.89-55.78,58.69c-6.08,9.2-73.35,81.3-75.16,82"/><path class="cls-5" d="M257.37,102.1c-2.14,2-104.32,123.31-112.32,129.56s-44.68,41.89-55.79,58.69c-6.08,9.2-73.35,81.3-75.15,82"/><path class="cls-5" d="M275.59,102.1c-2.15,2-104.32,123.31-112.33,129.56s-44.68,41.89-55.78,58.69c-6.08,9.2-73.35,81.3-75.16,82"/><path class="cls-5" d="M293.81,102.1c-2.15,2-104.33,123.31-112.33,129.56s-44.68,41.89-55.79,58.69c-6.08,9.2-73.35,81.3-75.15,82"/><path class="cls-5" d="M312,102.1c-2.15,2-104.32,123.31-112.33,129.56S155,273.55,143.91,290.35c-6.08,9.2-73.35,81.3-75.16,82"/><path class="cls-5" d="M330.24,102.1c-2.15,2-104.33,123.31-112.33,129.56s-44.68,41.89-55.79,58.69c-6.08,9.2-73.34,81.3-75.15,82"/><path class="cls-5" d="M348.45,102.1c-2.15,2-104.32,123.31-112.33,129.56s-44.68,41.89-55.78,58.69c-6.08,9.2-73.35,81.3-75.16,82"/><path class="cls-5" d="M366.67,102.1c-2.15,2-104.32,123.31-112.33,129.56s-44.68,41.89-55.79,58.69c-6.08,9.2-73.34,81.3-75.15,82"/><path class="cls-5" d="M384.88,102.1c-2.15,2-104.32,123.31-112.33,129.56s-44.68,41.89-55.78,58.69c-6.08,9.2-73.35,81.3-75.16,82"/><path class="cls-5" d="M403.1,102.1c-2.15,2-104.32,123.31-112.33,129.56S246.09,273.55,235,290.35c-6.08,9.2-73.34,81.3-75.15,82"/><path class="cls-5" d="M421.31,102.1C419.16,104.06,317,225.41,309,231.66s-44.69,41.89-55.79,58.69c-6.08,9.2-73.35,81.3-75.16,82"/><path class="cls-5" d="M439.53,102.1c-2.15,2-104.32,123.31-112.33,129.56s-44.68,41.89-55.79,58.69c-6.08,9.2-73.34,81.3-75.15,82"/><path class="cls-5" d="M457.74,102.1c-2.15,2-104.32,123.31-112.32,129.56s-44.68,41.89-55.79,58.69c-6.08,9.2-73.35,81.3-75.16,82"/><path class="cls-5" d="M476,102.1c-2.15,2-104.32,123.31-112.33,129.56S319,273.55,307.85,290.35c-6.08,9.2-73.35,81.3-75.16,82"/><path class="cls-5" d="M494.17,102.1c-2.15,2-104.32,123.31-112.32,129.56s-44.68,41.89-55.79,58.69c-6.08,9.2-73.35,81.3-75.15,82"/><path class="cls-5" d="M512.39,102.1c-2.15,2-104.32,123.31-112.33,129.56s-44.68,41.89-55.78,58.69c-6.08,9.2-73.35,81.3-75.16,82"/><path class="cls-5" d="M530.6,102.1c-2.15,2-104.32,123.31-112.32,129.56s-44.68,41.89-55.79,58.69c-6.08,9.2-73.35,81.3-75.15,82"/><path class="cls-5" d="M548.82,102.1c-2.15,2-104.32,123.31-112.33,129.56s-44.68,41.89-55.78,58.69c-6.08,9.2-73.35,81.3-75.16,82"/><path class="cls-5" d="M567,102.1c-2.14,2-104.32,123.31-112.32,129.56S410,273.55,398.92,290.35c-6.08,9.2-73.35,81.3-75.15,82"/><path class="cls-5" d="M585.25,102.1c-2.15,2-104.32,123.31-112.33,129.56s-44.68,41.89-55.78,58.69c-6.08,9.2-73.35,81.3-75.16,82"/><path class="cls-5" d="M603.47,102.1c-2.15,2-104.33,123.31-112.33,129.56s-44.68,41.89-55.79,58.69c-6.08,9.2-73.35,81.3-75.15,82"/><path class="cls-5" d="M621.68,102.1c-2.15,2-104.32,123.31-112.33,129.56s-44.68,41.89-55.78,58.69c-6.08,9.2-73.35,81.3-75.16,82"/><path class="cls-5" d="M639.9,102.1c-2.15,2-104.33,123.31-112.33,129.56s-44.68,41.89-55.79,58.69c-6.08,9.2-73.34,81.3-75.15,82"/><path class="cls-5" d="M658.11,102.1c-2.15,2-104.32,123.31-112.33,129.56S501.1,273.55,490,290.35c-6.08,9.2-73.35,81.3-75.16,82"/><path class="cls-5" d="M676.33,102.1C674.18,104.06,572,225.41,564,231.66s-44.68,41.89-55.79,58.69c-6.08,9.2-73.34,81.3-75.15,82"/><path class="cls-5" d="M694.54,102.1c-2.15,2-104.32,123.31-112.33,129.56s-44.68,41.89-55.78,58.69c-6.08,9.2-73.35,81.3-75.16,82"/><path class="cls-5" d="M712.76,102.1c-2.15,2-104.32,123.31-112.33,129.56s-44.68,41.89-55.79,58.69c-6.08,9.2-73.34,81.3-75.15,82"/><path class="cls-5" d="M731,102.1c-2.15,2-104.32,123.31-112.33,129.56S574,273.55,562.86,290.35c-6.08,9.2-73.35,81.3-75.16,82"/><path class="cls-5" d="M749.19,102.1c-2.15,2-104.32,123.31-112.33,129.56s-44.68,41.89-55.79,58.69c-6.08,9.2-73.34,81.3-75.15,82"/><path class="cls-5" d="M767.4,102.1c-2.15,2-104.32,123.31-112.32,129.56s-44.68,41.89-55.79,58.69c-6.08,9.2-73.35,81.3-75.16,82"/><path class="cls-5" d="M785.62,102.1c-2.15,2-104.32,123.31-112.33,129.56s-44.68,41.89-55.78,58.69c-6.08,9.2-73.35,81.3-75.16,82"/><path class="cls-5" d="M803.83,102.1c-2.15,2-104.32,123.31-112.32,129.56s-44.68,41.89-55.79,58.69c-6.08,9.2-73.35,81.3-75.15,82"/><path class="cls-5" d="M822.05,102.1c-2.15,2-104.32,123.31-112.33,129.56S665,273.55,653.94,290.35c-6.08,9.2-73.35,81.3-75.16,82"/><path class="cls-5" d="M840.26,102.1c-2.15,2-104.32,123.31-112.32,129.56s-44.68,41.89-55.79,58.69c-6.08,9.2-73.35,81.3-75.15,82"/><path class="cls-5" d="M858.48,102.1c-2.15,2-104.32,123.31-112.33,129.56s-44.68,41.89-55.78,58.69c-6.08,9.2-73.35,81.3-75.16,82"/><path class="cls-5" d="M876.69,102.1c-2.15,2-104.32,123.31-112.32,129.56s-44.68,41.89-55.79,58.69c-6.08,9.2-73.35,81.3-75.15,82"/><path class="cls-5" d="M894.91,102.1c-2.15,2-104.32,123.31-112.33,129.56s-44.68,41.89-55.78,58.69c-6.08,9.2-73.35,81.3-75.16,82"/><path class="cls-5" d="M651.64,102.1c2.15,2,104.32,123.31,112.33,129.56s44.68,41.89,55.78,58.69c6.08,9.2,73.35,81.3,75.16,82"/><path class="cls-5" d="M633.43,102.1c2.15,2,104.32,123.31,112.32,129.56s44.68,41.89,55.79,58.69c6.08,9.2,73.35,81.3,75.15,82"/><path class="cls-5" d="M615.21,102.1c2.15,2,104.32,123.31,112.33,129.56s44.68,41.89,55.78,58.69c6.08,9.2,73.35,81.3,75.16,82"/><path class="cls-5" d="M597,102.1c2.15,2,104.32,123.31,112.32,129.56s44.68,41.89,55.79,58.69c6.08,9.2,73.35,81.3,75.15,82"/><path class="cls-5" d="M578.78,102.1c2.15,2,104.32,123.31,112.33,129.56s44.68,41.89,55.78,58.69c6.08,9.2,73.35,81.3,75.16,82"/><path class="cls-5" d="M560.57,102.1c2.14,2,104.32,123.31,112.32,129.56s44.68,41.89,55.79,58.69c6.08,9.2,73.35,81.3,75.15,82"/><path class="cls-5" d="M541.89,101.29c2.15,2,104.78,124.12,112.79,130.37s44.68,41.89,55.78,58.69c6.08,9.2,73.35,81.3,75.16,82"/><path class="cls-5" d="M524.13,102.1c2.15,2,104.33,123.31,112.33,129.56s44.68,41.89,55.79,58.69c6.08,9.2,73.34,81.3,75.15,82"/><path class="cls-5" d="M505.92,102.1c2.15,2,104.32,123.31,112.33,129.56s44.68,41.89,55.78,58.69c6.08,9.2,73.35,81.3,75.16,82"/><path class="cls-5" d="M487.7,102.1c2.15,2,104.33,123.31,112.33,129.56s44.68,41.89,55.79,58.69c6.08,9.2,73.34,81.3,75.15,82"/><path class="cls-5" d="M469.49,102.1c2.15,2,104.32,123.31,112.33,129.56s44.68,41.89,55.78,58.69c6.08,9.2,73.35,81.3,75.16,82"/><path class="cls-5" d="M451.27,102.1c2.15,2,104.32,123.31,112.33,129.56s44.68,41.89,55.79,58.69c6.08,9.2,73.34,81.3,75.15,82"/><path class="cls-5" d="M433.06,102.1c2.15,2,104.32,123.31,112.33,129.56s44.68,41.89,55.78,58.69c6.08,9.2,73.35,81.3,75.16,82"/><path class="cls-5" d="M414.84,102.1c2.15,2,104.32,123.31,112.33,129.56s44.68,41.89,55.79,58.69c6.08,9.2,73.34,81.3,75.15,82"/><path class="cls-5" d="M396.63,102.1c2.15,2,104.32,123.31,112.32,129.56s44.68,41.89,55.79,58.69c6.08,9.2,73.35,81.3,75.16,82"/><path class="cls-5" d="M378.41,102.1c2.15,2,104.32,123.31,112.33,129.56s44.68,41.89,55.79,58.69c6.08,9.2,73.34,81.3,75.15,82"/><path class="cls-5" d="M360.2,102.1c2.15,2,104.32,123.31,112.32,129.56s44.68,41.89,55.79,58.69c6.08,9.2,73.35,81.3,75.16,82"/><path class="cls-5" d="M342,102.1c2.15,2,104.32,123.31,112.33,129.56s44.68,41.89,55.78,58.69c6.08,9.2,73.35,81.3,75.16,82"/><path class="cls-5" d="M323.77,102.1c2.15,2,104.32,123.31,112.32,129.56s44.68,41.89,55.79,58.69c6.08,9.2,73.35,81.3,75.15,82"/><path class="cls-5" d="M305.55,102.1c2.15,2,104.32,123.31,112.33,129.56s44.68,41.89,55.78,58.69c6.08,9.2,73.35,81.3,75.16,82"/><path class="cls-5" d="M287.34,102.1c2.15,2,104.32,123.31,112.32,129.56s44.68,41.89,55.79,58.69c6.08,9.2,73.35,81.3,75.15,82"/><path class="cls-5" d="M269.12,102.1c2.15,2,104.32,123.31,112.33,129.56s44.68,41.89,55.78,58.69c6.08,9.2,73.35,81.3,75.16,82"/><path class="cls-5" d="M250.91,102.1c2.14,2,104.32,123.31,112.32,129.56s44.68,41.89,55.79,58.69c6.08,9.2,73.35,81.3,75.15,82"/><path class="cls-5" d="M232.69,102.1c2.15,2,104.32,123.31,112.33,129.56s44.68,41.89,55.78,58.69c6.08,9.2,73.35,81.3,75.16,82"/><path class="cls-5" d="M214.47,102.1c2.15,2,104.33,123.31,112.33,129.56s44.68,41.89,55.79,58.69c6.08,9.2,73.35,81.3,75.15,82"/><path class="cls-5" d="M196.26,102.1c2.15,2,104.32,123.31,112.33,129.56s44.68,41.89,55.78,58.69c6.08,9.2,73.35,81.3,75.16,82"/><path class="cls-5" d="M178,102.1c2.15,2,104.33,123.31,112.33,129.56s44.68,41.89,55.79,58.69c6.08,9.2,73.34,81.3,75.15,82"/><path class="cls-5" d="M159.83,102.1c2.15,2,104.32,123.31,112.33,129.56s44.68,41.89,55.78,58.69c6.08,9.2,73.35,81.3,75.16,82"/><path class="cls-5" d="M141.61,102.1c2.15,2,104.32,123.31,112.33,129.56s44.68,41.89,55.79,58.69c6.08,9.2,73.34,81.3,75.15,82"/><path class="cls-5" d="M123.4,102.1c2.15,2,104.32,123.31,112.33,129.56s44.68,41.89,55.78,58.69c6.08,9.2,73.35,81.3,75.16,82"/><path class="cls-5" d="M105.18,102.1c2.15,2,104.32,123.31,112.33,129.56s44.68,41.89,55.79,58.69c6.08,9.2,73.34,81.3,75.15,82"/><path class="cls-5" d="M87,102.1c2.15,2,104.32,123.31,112.32,129.56s44.68,41.89,55.79,58.69c6.08,9.2,73.35,81.3,75.16,82"/><path class="cls-5" d="M68.75,102.1c2.15,2,104.32,123.31,112.33,129.56s44.68,41.89,55.79,58.69c6.08,9.2,73.34,81.3,75.15,82"/><path class="cls-5" d="M50.54,102.1c2.15,2,104.32,123.31,112.32,129.56s44.68,41.89,55.79,58.69c6.08,9.2,73.35,81.3,75.16,82"/><path class="cls-5" d="M32.32,102.1c2.15,2,104.32,123.31,112.33,129.56s44.68,41.89,55.78,58.69c6.08,9.2,73.35,81.3,75.16,82"/><path class="cls-5" d="M14.11,102.1c2.15,2,104.32,123.31,112.32,129.56s44.68,41.89,55.79,58.69c6.08,9.2,73.35,81.3,75.15,82"/><path class="cls-5" d="M-4.11,102.1c2.15,2,104.32,123.31,112.33,129.56S152.9,273.55,164,290.35c6.08,9.2,73.35,81.3,75.16,82"/><path class="cls-5" d="M-22.32,102.1C-20.17,104.06,82,225.41,90,231.66s44.68,41.89,55.79,58.69c6.08,9.2,73.35,81.3,75.15,82"/><path class="cls-5" d="M-40.54,102.1c2.15,2,104.32,123.31,112.33,129.56s44.68,41.89,55.78,58.69c6.08,9.2,73.35,81.3,75.16,82"/><path class="cls-5" d="M-58.75,102.1c2.14,2,104.32,123.31,112.32,129.56s44.68,41.89,55.79,58.69c6.08,9.2,73.35,81.3,75.15,82"/><path class="cls-5" d="M-77,102.1c2.15,2,104.32,123.31,112.33,129.56S80,273.55,91.14,290.35c6.08,9.2,73.35,81.3,75.16,82"/><path class="cls-5" d="M-95.19,102.1c2.15,2,104.33,123.31,112.33,129.56s44.68,41.89,55.79,58.69c6.08,9.2,73.35,81.3,75.15,82"/><path class="cls-5" d="M-113.4,102.1c2.15,2,104.32,123.31,112.33,129.56s44.68,41.89,55.78,58.69c6.08,9.2,73.35,81.3,75.16,82"/><path class="cls-5" d="M-131.62,102.1c2.15,2,104.33,123.31,112.33,129.56s44.68,41.89,55.79,58.69c6.08,9.2,73.34,81.3,75.15,82"/><path class="cls-5" d="M-149.83,102.1c2.15,2,104.32,123.31,112.33,129.56s44.68,41.89,55.78,58.69c6.08,9.2,73.35,81.3,75.16,82"/><path class="cls-5" d="M-168,102.1c2.15,2,104.32,123.31,112.33,129.56S-11,273.55.07,290.35c6.08,9.2,73.34,81.3,75.15,82"/><path class="cls-5" d="M-186.26,102.1c2.15,2,104.32,123.31,112.33,129.56s44.68,41.89,55.78,58.69c6.08,9.2,73.35,81.3,75.16,82"/></g><path class="cls-3" d="M639.69,120.14c-5.46.62-10.71-1.09-16.15-1.06-2.85,0-5.71.21-8.58.4A263.82,263.82,0,0,1,628.8,96.93c.48-.7-.42-1.49-1-1q-5.84,0-11.67,0a.67.67,0,0,0,.09-.38c-.08-1.89-.41-4-2.16-5.06-.73-.45-.58-.25-.66-1.16a2.41,2.41,0,0,0-.2-.92,2,2,0,0,0-1.64-1.15c-2.05-.17-2.1,2-3,3.21a7.6,7.6,0,0,0-1.45,5.43s0,0,0,.06H605a11.34,11.34,0,0,0-1.2-4.88c-.55-1.1-1.4-2.77-2.84-2.74s-2.44,1.4-3,2.5a9,9,0,0,0-.61,5.21c-4.06,0-8.12.07-12.17.14a.61.61,0,0,0-.56.86c-.14.21-.3.42-.45.63a.57.57,0,0,0-.31-.08l-7.92-.1q-5.1-31.6-11.3-63s0-.06,0-.1c.72-2.86,3.21-4.79.27-7.61-2.09-2-5.1-3.5-7.48-5.12l-7.73-5.25a.7.7,0,0,0-.72-.06.78.78,0,0,0-.57-.06l-.38.11c-.09-5.24-.2-10.48-.36-15.72,0-.93-1.46-.74-1.44.18q.43,14,.52,28.09a.67.67,0,0,0-.21.57c.07.75.15,1.51.22,2.26q.13,30.09-1.29,60.16c-.35,1.28-.73,2.56-1.07,3.84-.16.58.4.86.87.73l0,.61-13.31-.17a.66.66,0,0,0-.13-.28.73.73,0,0,0,.14-.45q-.31-8.55-.62-17.08a.62.62,0,0,0-.76-.6.93.93,0,0,0-.24,0c-4,.1-8,0-11.94-.25a.66.66,0,0,0-.57-.19l-.5.06a11.25,11.25,0,0,1-.13-3.84.64.64,0,0,0-.24-.61.54.54,0,0,0-.51-.27l-5.59-.09a.73.73,0,0,0,.2-.54l-.21-5.18a27.76,27.76,0,0,0-.2-5.17c-.53-2.11-3.45-1.53-5.18-1.63s-2.79.15-3,1.93a25.39,25.39,0,0,0,.29,4.6c.14,1.92.27,3.83.41,5.75,0,0,0,.08,0,.13l-2.39,0a.66.66,0,0,0-.15,0,42,42,0,0,0-6.54-8.53.55.55,0,0,0-.81,0L470,62.63a.74.74,0,0,0-.61,1.23q0,13.33.1,26.66l-.92-.15a13.4,13.4,0,0,1-1.42-4.63.66.66,0,0,0-.58-.59.77.77,0,0,0-.24-.06,145.9,145.9,0,0,1-30.68-4.59.68.68,0,0,0-.35,0,.67.67,0,0,0-.66.95c6.15,12.23,13.19,26.41,19.33,38.65.42.82,1.76.28,1.34-.55-3.31-6.59-7.52-15.14-10.83-21.73a735.65,735.65,0,0,0,74.95,3.57.58.58,0,0,0,.19,0l.72.77a.66.66,0,0,0,.24.17.57.57,0,0,0,.5.24l18,.32a65,65,0,0,1-31.35,16.89c-.9.2-.73,1.64.18,1.44a66.73,66.73,0,0,0,28.22-13.71c1.74-1.44,3.34-3,5-4.59h.12a.77.77,0,0,0,.78-.78,5.58,5.58,0,0,1,6-.24,26.8,26.8,0,0,1,3.37,3.12,122.67,122.67,0,0,0,12.94,10.12,126.34,126.34,0,0,0,60.59,21.34c.92.07,1.12-1.36.19-1.43a125.3,125.3,0,0,1-46.77-13.3c4.39.15,8.46-.66,12.93-1,3-.27,6,.65,9,.76,2.3.08,4.61-.05,6.9-.12,5.76-.16,11.69-1,17.42-.78,5.14.16,10.08,1.62,15.26,1A.72.72,0,0,0,639.69,120.14ZM609.8,91.25a3.8,3.8,0,0,0,.71-.83c.07-.2.13-.41.19-.63-.06-.77.34-.78,1.19,0,.15.28,0,.71.19,1a2,2,0,0,0,.76.61c1.64,1.1,1.89,2.35,2,4.26a.65.65,0,0,0,.05.2l-6.32,0a.93.93,0,0,0,0-.24C608.53,93.88,608.63,92.61,609.8,91.25Zm-10.95,1.41c.25-1.12,1.38-3.74,2.89-2.32,1.34,1.27,1.79,3.74,1.86,5.58l-4.77,0A9.44,9.44,0,0,1,598.85,92.66ZM585.8,97.85a.73.73,0,0,0,.11-.3q20.46-.35,40.9-.23c-1,1.49-2,3-3,4.51h0a321.89,321.89,0,0,1-41.67.2A18.49,18.49,0,0,0,585.8,97.85Zm-11.3-.43-9.36-.12s0-.07,0-.11q-4.9-17.88-9.17-35.92,3.75-12,7.82-23.86Q569.65,67.34,574.5,97.42Zm-20-36.26c-.68,2.17-1.36,4.34-2,6.52q-2.34-16.64-4-33.34Q551.31,47.78,554.49,61.16Zm-5.76-32.48,14,7.2q-3.88,11.26-7.45,22.64Q551.84,43.64,548.73,28.68Zm6.4,35.21q4,16.76,8.54,33.39l-6.49-.08C555.62,88.5,554.24,79.77,553,71,553.68,68.64,554.39,66.26,555.13,63.89Zm-6.2-46.33,11.46,7.79c2.33,1.59,5.11,2.57,4,6.17-.36,1.15-1,1.91-1.21,2.94l-15-7.69c0-3-.08-6-.12-8.95Zm-.76,27.85q1.44,12.83,3.3,25.61-2.21,7.32-4.28,14.68Q548,65.55,548.17,45.41ZM546.9,92q2.45-8.88,5.08-17.7c1.14,7.63,2.37,15.25,3.74,22.85l-9.05-.11C546.76,95.39,546.82,93.71,546.9,92Zm-17-12.16q.2,5.31.38,10.6c-1.48.1-2.95.16-4.44.14-2,0-2.05-.26-2.2-2.16L523,79.92s0,0,0-.08C525.29,79.9,527.59,79.92,529.9,79.87Zm-13-.33c1.58.12,3.17.18,4.75.23a.74.74,0,0,0,0,.34l.51,6.82c.1,1.27-.18,3.31.55,4.38.53.76,1.38.69,2.23.72,1.82.07,3.66,0,5.48-.12l.15,4.42a.71.71,0,0,0,.09.28.62.62,0,0,0-.05.25l-12.66-.16a.74.74,0,0,0-.5.18L516,95.41a.74.74,0,0,0-.85-.18l-.1,0a342.64,342.64,0,0,1-44.17-4.47.6.6,0,0,0,.05-.24l-.06-14.93c2.42,0,4.82.14,7.22.36q0,6.73,0,13.47a.71.71,0,0,0,.62.62,90.21,90.21,0,0,0,10.27.13.74.74,0,0,0,.62-.81,85.34,85.34,0,0,1-.2-11.86l6,1s0,0,0,.07A49.24,49.24,0,0,1,495.16,89a.73.73,0,0,0,.62.81l6.61.5c1,.08,2.77.59,3.65-.08s.65-2.79.69-3.86l.26-6.64A57.31,57.31,0,0,0,516.87,79.54Zm-28.74,9.2c-2,.07-3.91.1-5.87,0-2.61-.08-2.73-.26-2.74-2.79,0-3.3,0-6.61,0-9.91,2.83.31,5.65.73,8.47,1.18A86.38,86.38,0,0,0,488.13,88.74Zm8.77-10.07c2.88.43,5.76.79,8.65,1-.05,1.49-.11,3-.17,4.47,0,.85.34,4-.18,4.58-.65.79-3.39.14-4.28.08l-4.25-.33A50.94,50.94,0,0,0,496.9,78.67Zm19-.47c-15.13,1.49-29.88-4.07-45-4.06l0-7,13.37,1.23c2.1.19,4.29.2,6.36.58,4,.75,4.28,2.22,6.13,4.87,1.66,2.4,3.6,3.06,6.45,3.13,4.18.1,8.37,0,12.55-.14A10.83,10.83,0,0,0,515.86,78.2Zm-12-15.12c.6-1.42,1.93-.89,3.06-.81s2.11-.35,2.28,1.12c.11,1,.08,2,.12,3q.12,3.24.26,6.47a.63.63,0,0,0,.11.35l-5.19-.08a.74.74,0,0,0,.05-.34q-.21-3.09-.44-6.19C504.07,65.79,503.57,63.84,503.88,63.08ZM493.37,66h.09a40.46,40.46,0,0,1,6.07,8.06.55.55,0,0,0,.65.29.56.56,0,0,0,.42.17l15.07.23c0,.21,0,.43,0,.64-4.36.09-9.23.73-13.54.11-5-.7-4.33-5.41-8.13-7.33-2.83-1.42-7.22-1-10.31-1.29L470.83,65.7V64.15Zm-27.56,20.5c.05.29.11.59.17.88a133.7,133.7,0,0,1-28.89-4.27l-.45-.89A147.34,147.34,0,0,0,465.81,86.51ZM444.4,96.37a.69.69,0,0,0-.56.19q-3-5.88-5.9-11.75a133.69,133.69,0,0,0,28.43,4,14.71,14.71,0,0,0,1,2.32.74.74,0,0,0,.36.32.67.67,0,0,0,.45.27,343.31,343.31,0,0,0,46.68,4.88.78.78,0,0,0,.28,0l3.18,3.38A729.72,729.72,0,0,1,444.4,96.37Zm106.9,5.41a.68.68,0,0,0-.62.3c-.85-.71-1.71-1.39-2.61-2-3.11-2.16-5.32-.7-7.53,1.39l-19.18-.34-2.8-3,64.6.82a16.86,16.86,0,0,1-3,2.79s0,0-.06.07h0Q565.68,102.41,551.3,101.78Zm62,17.81c-1.62.11-3.25.21-4.86.25a84,84,0,0,1-9.25.09c-2.09-.17-4.13-.74-6.23-.79a43.33,43.33,0,0,0-7,.92,37,37,0,0,1-9.81.06.68.68,0,0,0-.57.18,122.27,122.27,0,0,1-15.18-9.74c-3-2.21-5.61-4.88-8.39-7.32q13.71.56,27.44,0a1.05,1.05,0,0,0,.21.06,325.6,325.6,0,0,0,43.17,0q-5,7.83-9.47,16A.66.66,0,0,0,613.32,119.59Z"/><path class="cls-2" d="M507.9,121.19S2.46,103.94,2.46,181.87c0,0,.13,3.33,5.16,8.45,16.85,17.18,88.71,54.57,395.07,54.57,334,0,331.56-56.28,331.56-65.91s-14-26.34-109.35-43.2"/><path class="cls-6" d="M506.74,136.45S2.46,116.37,2.46,181.87c0,0,.13,4.14,5.16,8.45,16.85,14.44,77.68,54.57,395.07,54.57,334,0,331.56-57.36,331.56-65.44s-17.72-17.2-113-31.37Z"/><path class="cls-7" d="M492.75,270.31s-453.3-20.08-453.3,45.42"/><line class="cls-7" x1="511.62" y1="242.51" x2="492.75" y2="270.31"/><line class="cls-7" x1="550.03" y1="140.85" x2="545.19" y2="100.5"/><path class="cls-7" d="M698.65,316.57c0-8.09-17.32-20.46-103-34.63l-29.09-3.29-3.77-40.15"/><rect class="cls-8" x="21.88" y="201.62" width="19.35" height="7.87" rx="3.79" ry="3.79" transform="translate(76.25 2.45) rotate(21.14)"/><rect class="cls-9" x="2.42" y="188.11" width="14.4" height="7.87" rx="3.34" ry="3.34" transform="translate(124.22 37.64) rotate(39.45)"/><rect class="cls-9" x="-0.83" y="168.41" width="14.4" height="7.87" rx="3.34" ry="3.34" transform="translate(158.8 253) rotate(120)"/><rect class="cls-9" x="17.15" y="151.57" width="14.4" height="7.87" rx="3.34" ry="3.34" transform="translate(123.18 278.01) rotate(150)"/><rect class="cls-10" x="39.17" y="143.43" width="18.38" height="7.87" rx="3.79" ry="3.79" transform="translate(138.49 273.59) rotate(162.64)"/><rect class="cls-10" x="67.46" y="136.14" width="18.38" height="7.87" rx="3.79" ry="3.79" transform="translate(175.46 265.51) rotate(170.46)"/><rect class="cls-10" x="97.95" y="130.37" width="18.38" height="7.87" rx="3.79" ry="3.79" transform="translate(235.06 248.99) rotate(170.46)"/><rect class="cls-10" x="129.97" y="126.04" width="18.38" height="7.87" rx="3.79" ry="3.79" transform="translate(288.66 247.91) rotate(175.22)"/><rect class="cls-10" x="160.37" y="122.97" width="18.38" height="7.87" rx="3.79" ry="3.79" transform="translate(349.09 239.26) rotate(175.22)"/><rect class="cls-10" x="193.3" y="120.75" width="18.38" height="7.87" rx="3.79" ry="3.79" transform="translate(414.66 232.08) rotate(175.22)"/><rect class="cls-10" x="224.24" y="118.59" width="18.38" height="7.87" rx="3.79" ry="3.79" transform="translate(471 236.81) rotate(178)"/><rect class="cls-10" x="257.35" y="117.43" width="18.38" height="7.87" rx="3.79" ry="3.79" transform="translate(537.16 233.34) rotate(178)"/><rect class="cls-10" x="289.73" y="116.3" width="18.38" height="7.87" rx="3.79" ry="3.79" transform="translate(601.86 229.94) rotate(178)"/><rect class="cls-10" x="320.64" y="115.63" width="18.38" height="7.87" rx="3.79" ry="3.79" transform="translate(659.66 239.12) rotate(180)"/><rect class="cls-10" x="351.19" y="114.65" width="18.38" height="7.87" rx="3.79" ry="3.79" transform="translate(720.75 237.18) rotate(180)"/><rect class="cls-10" x="384.98" y="114.65" width="18.38" height="7.87" rx="3.79" ry="3.79" transform="translate(788.34 237.18) rotate(180)"/><rect class="cls-10" x="416.19" y="114.65" width="18.38" height="7.87" rx="3.79" ry="3.79" transform="translate(850.75 237.18) rotate(180)"/><rect class="cls-10" x="447.6" y="115.63" width="18.38" height="7.87" rx="3.79" ry="3.79" transform="translate(913.59 239.12) rotate(-180)"/><rect class="cls-10" x="479.14" y="115.63" width="18.38" height="7.87" rx="3.79" ry="3.79" transform="translate(976.66 239.12) rotate(-180)"/><rect class="cls-11" x="506.56" y="115.05" width="16.43" height="7.87" rx="3.59" ry="3.59" transform="translate(1033.17 16.93) rotate(155.85)"/><rect class="cls-11" x="558.34" y="112.16" width="16.43" height="7.87" rx="3.59" ry="3.59" transform="translate(97.1 -221.65) rotate(24.15)"/><rect class="cls-11" x="580.22" y="122.73" width="16.43" height="7.87" rx="3.59" ry="3.59" transform="translate(103.34 -229.68) rotate(24.15)"/><rect class="cls-11" x="604.21" y="129.25" width="16.43" height="7.87" rx="3.59" ry="3.59" transform="translate(24.24 -83.23) rotate(7.93)"/><rect class="cls-11" x="629.74" y="133.48" width="16.43" height="7.87" rx="3.94" ry="3.94" transform="translate(25.06 -86.71) rotate(7.93)"/><rect class="cls-11" x="654.38" y="138.8" width="16.43" height="7.87" rx="3.94" ry="3.94" transform="translate(60.77 -169.05) rotate(15.23)"/><rect class="cls-11" x="678.83" y="144.75" width="16.43" height="7.87" rx="3.94" ry="3.94" transform="translate(63.19 -175.26) rotate(15.23)"/><rect class="cls-11" x="701.02" y="152.96" width="16.43" height="7.87" rx="3.94" ry="3.94" transform="translate(126.28 -276.46) rotate(24.15)"/><rect class="cls-11" x="720.23" y="165.75" width="16.43" height="7.87" rx="3.94" ry="3.94" transform="translate(408.06 -506.17) rotate(51.52)"/><rect class="cls-12" x="725.09" y="183.66" width="12.91" height="7.87" rx="3.5" ry="3.5" transform="translate(1140.27 -447.45) rotate(108.38)"/><rect class="cls-13" x="527.05" y="105.07" width="10.27" height="7.87" rx="3.94" ry="3.94" transform="translate(1010.86 -147.84) rotate(140.21)"/><rect class="cls-13" x="546.91" y="99.63" width="10.27" height="7.87" rx="3.94" ry="3.94" transform="translate(200.3 -334.34) rotate(40.6)"/><rect class="cls-8" x="50.39" y="211.49" width="19.35" height="7.87" rx="3.79" ry="3.79" transform="translate(68.17 -8.07) rotate(17.66)"/><rect class="cls-8" x="79.65" y="218.63" width="19.35" height="7.87" rx="3.79" ry="3.79" transform="translate(71.71 -16.61) rotate(17.66)"/><rect class="cls-8" x="111.93" y="225.14" width="19.35" height="7.87" rx="3.79" ry="3.79" transform="matrix(0.99, 0.17, -0.17, 0.99, 40.26, -17.19)"/><rect class="cls-8" x="145.11" y="229.29" width="19.35" height="7.87" rx="3.79" ry="3.79" transform="translate(16.23 -9.99) rotate(3.9)"/><rect class="cls-8" x="178.66" y="232.72" width="19.35" height="7.87" rx="3.79" ry="3.79" transform="translate(16.54 -12.27) rotate(3.9)"/><rect class="cls-8" x="211.49" y="234.96" width="19.35" height="7.87" rx="3.79" ry="3.79" transform="translate(16.77 -14.5) rotate(3.9)"/><rect class="cls-8" x="244.84" y="237.23" width="19.35" height="7.87" rx="3.79" ry="3.79" transform="translate(17.01 -16.76) rotate(3.9)"/><rect class="cls-8" x="280.05" y="238.5" width="19.35" height="7.87" rx="3.79" ry="3.79"/><rect class="cls-8" x="316.49" y="239.76" width="19.35" height="7.87" rx="3.79" ry="3.79"/><rect class="cls-8" x="349.86" y="240.95" width="19.35" height="7.87" rx="3.79" ry="3.79"/><rect class="cls-8" x="383.33" y="239.76" width="19.35" height="7.87" rx="3.79" ry="3.79"/><rect class="cls-8" x="416.53" y="239.76" width="19.35" height="7.87" rx="3.79" ry="3.79"/><rect class="cls-8" x="449.36" y="239.76" width="19.35" height="7.87" rx="3.79" ry="3.79"/><rect class="cls-8" x="483.46" y="238.5" width="19.35" height="7.87" rx="3.79" ry="3.79"/><rect class="cls-8" x="516.11" y="237.02" width="19.35" height="7.87" rx="3.79" ry="3.79"/><rect class="cls-8" x="548.8" y="235.82" width="19.35" height="7.87" rx="3.79" ry="3.79" transform="translate(-24.72 68.7) rotate(-6.89)"/><rect class="cls-8" x="584.87" y="232.38" width="19.35" height="7.87" rx="3.79" ry="3.79" transform="translate(-24.05 73) rotate(-6.89)"/><rect class="cls-8" x="617.44" y="226.97" width="19.35" height="7.87" rx="3.79" ry="3.79" transform="translate(-23.16 76.87) rotate(-6.89)"/><rect class="cls-8" x="649.19" y="221.19" width="19.35" height="7.87" rx="3.79" ry="3.79" transform="translate(-32.72 144.51) rotate(-12.22)"/><rect class="cls-8" x="679.22" y="212.9" width="19.35" height="7.87" rx="3.79" ry="3.79" transform="matrix(0.95, -0.31, 0.31, 0.95, -33.3, 221.48)"/><rect class="cls-8" x="705.92" y="200.87" width="19.35" height="7.87" rx="3.79" ry="3.79" transform="translate(-6.53 385.24) rotate(-30)"/><path class="cls-3" d="M625.81,125.32a5.67,5.67,0,0,1-5.81-1.55.7.7,0,0,0-.72-.1,10,10,0,0,1-5,1.14c-1.35-.09-3-1.34-4.13-1.27-2.53.14-4.76,1.42-7.51,1.29-.92,0-1.12,1.39-.19,1.43,2.37.11,4.35-.52,6.61-.87s4.52,1.06,6.89.81a25.53,25.53,0,0,1,2.87-.71,6.59,6.59,0,0,1,2.5,1,7,7,0,0,0,5,.16C627.25,126.4,626.7,125.07,625.81,125.32Z"/><path class="cls-3" d="M642.39,130.59c-2.26,1.15-4.35-1.24-6.62-.84-3,.53-6.22,2.33-8.94-.2-.68-.64-1.57.5-.89,1.13,1.87,1.75,5.23,2.15,7.66,1.47.6-.17,1.21-.67,1.82-.8,2.12-.45,2.77.49,4.5.9a3.89,3.89,0,0,0,3-.32C643.76,131.51,643.22,130.17,642.39,130.59Z"/><path class="cls-3" d="M227.24,158.9c.34-.34.83-.19,1.87.38,1.39.76,8.24,4.67,9,4.77a15.41,15.41,0,0,0,4,.46c1.29-.2,18-4.1,21.24-4.53a5.15,5.15,0,0,1,.19-1.88c.3-.79,1.6-4.67,1.6-4.67,2.26,0,6,5.75,6,5.75s9.09-.1,13.13.8,12.41,3.14,12.41,3.14a35.26,35.26,0,0,1,3.34,1.29v.6l-.3.53s.66.13.7.26.23,1.36-6.22,3.77-6.45,1.85-6.69,1.62c0,0-17.63,2.95-32,.27,0,0-4.73,1.39-6,.79s-2-1.25-5.1-2.81-6.72-1.06-10.65,1.55c-.5.37-2.75,1.79-2.95,1.89s-2,.93-2.11,1a10.15,10.15,0,0,1-2.35,1.09c-.2-.13-.23-.3,0-.73,2.1-3.75,5.73-7.11,4.83-8.44a31.42,31.42,0,0,0-2-3.4S226.91,159.23,227.24,158.9Z"/><circle class="cls-14" cx="290.24" cy="164.55" r="1.26"/><path class="cls-14" d="M286.5,169.87c-1.81-2.93-.74-6.57-.7-6.72l.93.28s-1,3.38.6,5.93Z"/><path class="cls-3" d="M251.24,183.9c.33-.33.83-.19,1.87.38,1.39.77,8.24,4.67,9,4.77a15.55,15.55,0,0,0,4,.46c1.29-.2,18-4.1,21.24-4.53a4.92,4.92,0,0,1,.19-1.88c.3-.79,1.6-4.67,1.6-4.67,2.26,0,6,5.76,6,5.76s9.1-.1,13.14.79,12.4,3.14,12.4,3.14a35.43,35.43,0,0,1,3.35,1.29v.6l-.3.53s.66.13.69.26.23,1.36-6.22,3.77-6.45,1.86-6.68,1.63c0,0-17.64,2.94-32,.26,0,0-4.73,1.39-6,.79s-2-1.25-5.09-2.81-6.73-1.06-10.66,1.56c-.49.36-2.74,1.78-2.94,1.88s-2,.93-2.12,1a10,10,0,0,1-2.35,1.09c-.2-.13-.23-.3,0-.73,2.09-3.75,5.73-7.11,4.83-8.43a32.49,32.49,0,0,0-2-3.41S250.9,184.23,251.24,183.9Z"/><circle class="cls-14" cx="314.23" cy="189.55" r="1.26"/><path class="cls-14" d="M310.5,194.87c-1.82-2.93-.75-6.56-.7-6.72l.93.28s-1,3.38.59,5.93Z"/><path class="cls-3" d="M344.45,182.83c.34-.33.83-.18,1.88.39,1.38.76,8.23,4.66,9,4.76a15.81,15.81,0,0,0,4,.47c1.29-.2,18-4.11,21.25-4.54a4.87,4.87,0,0,1,.19-1.87c.29-.8,1.59-4.68,1.59-4.68,2.27,0,6,5.76,6,5.76s9.1-.1,13.13.79,12.41,3.15,12.41,3.15a32.74,32.74,0,0,1,3.34,1.29v.59l-.3.53s.67.13.7.27.23,1.35-6.22,3.77-6.45,1.85-6.68,1.62c0,0-17.64,2.94-32,.26,0,0-4.73,1.39-6,.8s-2-1.25-5.1-2.82-6.72-1.06-10.65,1.56c-.5.36-2.75,1.79-2.94,1.89s-2,.92-2.12,1-2.15,1.23-2.35,1.09-.23-.29,0-.72c2.1-3.75,5.73-7.12,4.83-8.44a30.81,30.81,0,0,0-2-3.41S344.12,183.16,344.45,182.83Z"/><circle class="cls-14" cx="407.45" cy="188.48" r="1.26"/><path class="cls-14" d="M403.71,193.8c-1.81-2.92-.74-6.56-.7-6.71l.93.28s-1,3.37.6,5.92Z"/><path class="cls-3" d="M147.73,176.9c.33-.33.83-.18,1.87.39,1.39.76,8.24,4.67,9,4.77a15.94,15.94,0,0,0,4,.46c1.29-.2,18-4.1,21.24-4.53a4.91,4.91,0,0,1,.19-1.88c.3-.79,1.6-4.68,1.6-4.68,2.26,0,6,5.76,6,5.76s9.1-.1,13.14.8,12.4,3.14,12.4,3.14a35.43,35.43,0,0,1,3.35,1.29V183l-.3.53s.66.14.69.27.23,1.36-6.22,3.77-6.45,1.85-6.68,1.62c0,0-17.64,3-32,.27,0,0-4.73,1.39-6,.79s-2-1.25-5.09-2.81-6.73-1.07-10.66,1.55c-.49.37-2.74,1.79-2.94,1.89s-1.95.93-2.12,1a10.37,10.37,0,0,1-2.35,1.09c-.2-.14-.23-.3,0-.73,2.1-3.75,5.74-7.11,4.84-8.44a33.61,33.61,0,0,0-2-3.41S147.39,177.24,147.73,176.9Z"/><circle class="cls-14" cx="210.72" cy="182.56" r="1.26"/><path class="cls-14" d="M207,187.88c-1.82-2.93-.75-6.57-.7-6.72l.93.28s-1,3.38.59,5.93Z"/><path class="cls-3" d="M301.49,210.1c.33-.33.83-.18,1.87.39,1.39.76,8.24,4.67,9,4.76a15.51,15.51,0,0,0,4,.47c1.29-.2,18-4.1,21.24-4.54a4.87,4.87,0,0,1,.19-1.87c.3-.79,1.6-4.68,1.6-4.68,2.26,0,6,5.76,6,5.76s9.1-.1,13.14.79S371,214.33,371,214.33a35.26,35.26,0,0,1,3.34,1.29v.59l-.3.53s.66.14.69.27.24,1.35-6.22,3.77-6.45,1.85-6.68,1.62c0,0-17.64,2.95-32,.27,0,0-4.74,1.39-6,.79s-2-1.25-5.09-2.81S312,219.58,308,222.2c-.49.37-2.74,1.79-2.94,1.89l-2.12,1a10,10,0,0,1-2.35,1.1c-.2-.14-.23-.3,0-.73,2.09-3.75,5.73-7.11,4.83-8.44a32.49,32.49,0,0,0-2-3.41S301.16,210.43,301.49,210.1Z"/><circle class="cls-14" cx="364.48" cy="215.76" r="1.26"/><path class="cls-14" d="M360.75,221.08c-1.82-2.93-.75-6.57-.7-6.72l.93.28s-1,3.37.59,5.92Z"/><path class="cls-3" d="M178.25,209c.34-.33.83-.19,1.87.38,1.39.76,8.24,4.67,9,4.77a15.55,15.55,0,0,0,4,.46c1.29-.2,18-4.1,21.24-4.53a5.15,5.15,0,0,1,.19-1.88c.3-.79,1.6-4.67,1.6-4.67,2.26,0,6,5.75,6,5.75s9.09-.1,13.13.8,12.41,3.14,12.41,3.14a35.26,35.26,0,0,1,3.34,1.29v.6l-.3.53s.66.13.7.26.23,1.36-6.22,3.77-6.46,1.86-6.69,1.62c0,0-17.63,2.95-32,.27,0,0-4.73,1.39-6,.79s-2-1.25-5.1-2.81-6.72-1.06-10.65,1.56c-.5.36-2.75,1.78-2.95,1.88s-2,.93-2.12,1a10.08,10.08,0,0,1-2.34,1.09c-.2-.13-.24-.3,0-.73,2.09-3.75,5.73-7.11,4.83-8.44a31.42,31.42,0,0,0-2-3.4S177.92,209.37,178.25,209Z"/><circle class="cls-14" cx="241.25" cy="214.69" r="1.26"/><path class="cls-14" d="M237.51,220c-1.82-2.93-.75-6.57-.7-6.72l.93.28s-1,3.38.6,5.93Z"/><path class="cls-3" d="M405.57,208c.34-.33.83-.19,1.87.39,1.39.76,8.24,4.66,9,4.76a15.41,15.41,0,0,0,4,.46c1.29-.2,18-4.1,21.24-4.53a5,5,0,0,1,.2-1.88c.29-.79,1.59-4.67,1.59-4.67,2.26,0,6,5.76,6,5.76s9.1-.1,13.13.79S475,212.19,475,212.19a35.26,35.26,0,0,1,3.34,1.29v.6l-.3.53s.67.13.7.26.23,1.36-6.22,3.78-6.45,1.85-6.69,1.62c0,0-17.63,2.94-32,.26,0,0-4.73,1.39-6,.8s-2-1.26-5.1-2.82-6.72-1.06-10.65,1.56c-.5.36-2.75,1.78-2.95,1.88s-2,.93-2.11,1a10.15,10.15,0,0,1-2.35,1.09c-.2-.13-.23-.3,0-.73,2.1-3.75,5.73-7.11,4.83-8.43a30.81,30.81,0,0,0-2-3.41S405.24,208.3,405.57,208Z"/><circle class="cls-14" cx="468.57" cy="213.62" r="1.26"/><path class="cls-14" d="M464.83,218.94c-1.81-2.93-.74-6.56-.7-6.72l.93.28s-1,3.38.6,5.93Z"/><path class="cls-3" d="M316.52,153.76c.34-.34.83-.19,1.87.38,1.39.76,8.24,4.67,9,4.77a15.41,15.41,0,0,0,4,.46c1.29-.2,18-4.1,21.24-4.53a5,5,0,0,1,.2-1.88c.29-.79,1.59-4.67,1.59-4.67,2.26,0,6,5.75,6,5.75s9.1-.1,13.13.8S386,158,386,158a35.26,35.26,0,0,1,3.34,1.29v.6l-.3.53s.66.13.7.26.23,1.36-6.22,3.77-6.45,1.85-6.69,1.62c0,0-17.63,2.95-32,.27,0,0-4.73,1.39-6,.79s-2-1.25-5.1-2.81-6.72-1.06-10.65,1.55c-.5.37-2.75,1.79-2.95,1.89s-1.95.93-2.11,1a10.15,10.15,0,0,1-2.35,1.09c-.2-.13-.23-.3,0-.73,2.1-3.75,5.73-7.11,4.83-8.44a31.42,31.42,0,0,0-2-3.4S316.19,154.09,316.52,153.76Z"/><circle class="cls-14" cx="379.52" cy="159.41" r="1.26"/><path class="cls-14" d="M375.78,164.73c-1.81-2.93-.74-6.57-.7-6.72l.93.28s-1,3.38.6,5.93Z"/><path class="cls-3" d="M413.27,161.19c.33-.33.83-.19,1.87.38,1.39.77,8.24,4.67,9,4.77a15.55,15.55,0,0,0,4,.46c1.29-.2,18-4.1,21.24-4.53a4.92,4.92,0,0,1,.19-1.88c.3-.79,1.6-4.67,1.6-4.67,2.26,0,5.95,5.75,5.95,5.75s9.1-.09,13.14.8,12.41,3.14,12.41,3.14a35.26,35.26,0,0,1,3.34,1.29v.6l-.3.53s.66.13.7.26.23,1.36-6.22,3.77-6.46,1.86-6.69,1.63c0,0-17.63,2.94-32,.26,0,0-4.73,1.39-6,.79s-2-1.25-5.1-2.81-6.73-1.06-10.65,1.56c-.5.36-2.75,1.78-2.95,1.88s-1.95.93-2.12,1a10,10,0,0,1-2.35,1.09c-.19-.13-.23-.3,0-.73,2.09-3.75,5.73-7.11,4.83-8.43a32.49,32.49,0,0,0-2-3.41S412.94,161.52,413.27,161.19Z"/><circle class="cls-14" cx="476.27" cy="166.84" r="1.26"/><path class="cls-14" d="M472.53,172.16c-1.82-2.93-.75-6.56-.7-6.72l.93.28s-1,3.38.6,5.93Z"/><path class="cls-3" d="M536.49,200.23c.34-.33.83-.18,1.87.39,1.39.76,8.24,4.66,9,4.76a15.41,15.41,0,0,0,4,.46c1.29-.19,18-4.1,21.24-4.53a5.1,5.1,0,0,1,.19-1.87c.3-.8,1.6-4.68,1.6-4.68,2.26,0,6,5.76,6,5.76s9.09-.1,13.13.79S606,204.45,606,204.45a35.26,35.26,0,0,1,3.34,1.29v.6l-.3.53s.66.13.7.26.23,1.36-6.22,3.78-6.46,1.85-6.69,1.62c0,0-17.63,2.94-32,.26,0,0-4.73,1.39-6,.8s-2-1.25-5.1-2.82S547,209.71,543,212.33c-.5.36-2.75,1.79-2.95,1.88s-2,.93-2.11,1a10.34,10.34,0,0,1-2.35,1.09c-.2-.13-.24-.3,0-.73,2.1-3.75,5.73-7.11,4.83-8.43a30.81,30.81,0,0,0-2-3.41S536.16,200.56,536.49,200.23Z"/><circle class="cls-14" cx="599.49" cy="205.88" r="1.26"/><path class="cls-14" d="M595.75,211.2c-1.82-2.93-.75-6.56-.7-6.72l.93.29s-1,3.37.6,5.92Z"/><path class="cls-3" d="M604.39,176c.34-.34.83-.19,1.87.38,1.39.76,8.24,4.67,9,4.77a15.41,15.41,0,0,0,4,.46c1.29-.2,18-4.1,21.25-4.53a4.92,4.92,0,0,1,.19-1.88c.29-.79,1.59-4.67,1.59-4.67,2.27,0,6,5.75,6,5.75s9.1-.1,13.13.8,12.41,3.14,12.41,3.14a35.26,35.26,0,0,1,3.34,1.29v.6l-.3.53s.67.13.7.26.23,1.36-6.22,3.77-6.45,1.85-6.68,1.62c0,0-17.64,2.95-32,.27,0,0-4.73,1.39-6,.79s-2-1.25-5.1-2.81-6.72-1.06-10.65,1.55c-.5.37-2.75,1.79-2.95,1.89s-2,.93-2.11,1a10.15,10.15,0,0,1-2.35,1.09c-.2-.13-.23-.3,0-.73,2.1-3.75,5.73-7.11,4.83-8.44a31.42,31.42,0,0,0-2-3.4S604.06,176.37,604.39,176Z"/><circle class="cls-14" cx="667.39" cy="181.69" r="1.26"/><path class="cls-14" d="M663.65,187c-1.81-2.93-.74-6.57-.7-6.72l.93.28s-1,3.38.6,5.93Z"/><path class="cls-3" d="M58.87,179.2c.33-.33.83-.19,1.87.38,1.39.76,8.24,4.67,9,4.77a15.55,15.55,0,0,0,4,.46c1.29-.2,18-4.1,21.24-4.53a5.15,5.15,0,0,1,.19-1.88c.3-.79,1.6-4.67,1.6-4.67,2.26,0,6,5.75,6,5.75s9.1-.1,13.14.8,12.41,3.14,12.41,3.14a35.26,35.26,0,0,1,3.34,1.29v.6l-.3.53s.66.13.7.26.23,1.36-6.22,3.77-6.46,1.86-6.69,1.62c0,0-17.63,2.95-32,.27,0,0-4.73,1.39-6,.79s-2-1.25-5.1-2.81-6.73-1.06-10.65,1.56c-.5.36-2.75,1.78-2.95,1.88s-2,.93-2.12,1A10,10,0,0,1,58,195.3c-.19-.13-.23-.3,0-.73,2.09-3.75,5.73-7.11,4.83-8.44a33.19,33.19,0,0,0-2-3.4S58.54,179.53,58.87,179.2Z"/><circle class="cls-14" cx="121.87" cy="184.85" r="1.26"/><path class="cls-14" d="M118.13,190.17c-1.82-2.93-.75-6.57-.7-6.72l.93.28s-1,3.38.6,5.93Z"/><path class="cls-3" d="M453.42,183.9c.33-.33.83-.19,1.87.38,1.39.77,8.24,4.67,9,4.77a15.55,15.55,0,0,0,4,.46c1.29-.2,18-4.1,21.24-4.53a4.92,4.92,0,0,1,.19-1.88c.3-.79,1.6-4.67,1.6-4.67,2.26,0,5.95,5.76,5.95,5.76s9.1-.1,13.14.79,12.4,3.14,12.4,3.14a35.43,35.43,0,0,1,3.35,1.29v.6l-.3.53s.66.13.69.26.23,1.36-6.22,3.77-6.45,1.86-6.68,1.63c0,0-17.64,2.94-32,.26,0,0-4.73,1.39-6,.79s-2-1.25-5.09-2.81S463.88,193.38,460,196c-.49.36-2.74,1.78-2.94,1.88s-1.95.93-2.12,1a10,10,0,0,1-2.35,1.09c-.2-.13-.23-.3,0-.73,2.09-3.75,5.73-7.11,4.83-8.43a32.49,32.49,0,0,0-2-3.41S453.08,184.23,453.42,183.9Z"/><circle class="cls-14" cx="516.41" cy="189.55" r="1.26"/><path class="cls-14" d="M512.68,194.87c-1.82-2.93-.75-6.56-.7-6.72l.93.28s-1,3.38.59,5.93Z"/><path class="cls-3" d="M526.69,166.84c.34-.33.83-.18,1.87.39,1.39.76,8.24,4.66,9,4.76a15.55,15.55,0,0,0,4,.46c1.29-.19,18-4.1,21.24-4.53a5.1,5.1,0,0,1,.19-1.87c.3-.8,1.6-4.68,1.6-4.68,2.26,0,6,5.76,6,5.76s9.09-.1,13.13.79,12.41,3.14,12.41,3.14a35.26,35.26,0,0,1,3.34,1.29v.6l-.3.53s.66.13.7.26.23,1.36-6.22,3.78-6.46,1.85-6.69,1.62c0,0-17.63,2.94-32,.26,0,0-4.73,1.39-6,.8s-2-1.26-5.1-2.82-6.72-1.06-10.65,1.56c-.5.36-2.75,1.79-3,1.88s-1.95.93-2.11,1a10.34,10.34,0,0,1-2.35,1.09c-.2-.13-.24-.3,0-.73,2.1-3.75,5.73-7.11,4.83-8.43a30.81,30.81,0,0,0-2-3.41S526.36,167.17,526.69,166.84Z"/><circle class="cls-14" cx="589.69" cy="172.49" r="1.26"/><path class="cls-14" d="M586,177.81c-1.82-2.93-.75-6.56-.7-6.72l.93.29s-1,3.37.6,5.92Z"/><line class="cls-5" x1="525.66" y1="138.37" x2="545.19" y2="100.5"/><path class="cls-15" d="M353.51,75.33v-4.2c1.27-.16,2.84-.42,4.71-.79s3.35-.64,4.4-.8q.24-5.7.24-11.49c0-2.43,0-6.09-.08-11s-.08-8.58-.08-11.06q0-8.8.24-13.32a103.48,103.48,0,0,0-10.54,6.66l-2.54-2.62c.85-.68,2.3-1.89,4.36-3.6s3.91-3.28,5.55-4.68,2.91-2.55,3.81-3.45c.84.11,1.71.17,2.61.2a24.62,24.62,0,0,1,2.62.2q.48,9.19.47,33.69,0,14.6.24,20.93.72.08,3.45.6c1.82.34,3.24.56,4.24.67l1.27,4.2H363.77c-3.25,0-5.78,0-7.61,0A13.53,13.53,0,0,1,353.51,75.33Z"/></svg>