<svg id="Layer_1" data-name="Layer 1" xmlns="http://www.w3.org/2000/svg" viewBox="0 0 687.33 425"><defs><style>.cls-1{fill:#01336e;}.cls-2,.cls-3,.cls-4{fill:none;stroke:#00adb5;stroke-linecap:round;stroke-linejoin:round;}.cls-3{stroke-dasharray:7.99 7.99;}.cls-4{stroke-width:3px;}.cls-5{fill:#00adb5;}</style></defs><title>otvetArtboard 32</title><path class="cls-1" d="M509.4,27.4h15.77a172.68,172.68,0,0,1,1,17.58q.2,11.25.42,14.89c-.26.93-.79,1.4-1.57,1.4a2.3,2.3,0,0,1-1.55-.68,2.9,2.9,0,0,1-.92-1.61q0-3.65-.22-14.81t-.23-13.59c-.66,0-1.73.05-3.21.14s-2.67.13-3.57.13c-1.44,0-2.55,0-3.32-.09q0,.14.33,13.17t.43,15.94c-.27.93-.79,1.4-1.57,1.4a2.28,2.28,0,0,1-1.55-.68,2.84,2.84,0,0,1-.92-1.61q.13-3.87.24-15T509.4,27.4Z"/><path class="cls-1" d="M530.83,36.6l2.51.45c0,.63,0,1.1,0,1.4a9.18,9.18,0,0,1,5-1.58,7.21,7.21,0,0,1,6.38,3.51A14.15,14.15,0,0,1,547,48.33a26.85,26.85,0,0,1-.33,4.29,20.32,20.32,0,0,1-1.19,4.18,7.59,7.59,0,0,1-2.63,3.41,7.15,7.15,0,0,1-4.29,1.28A9.06,9.06,0,0,1,534,60.23c.12,5.24.22,9.14.31,11.68-.27.93-.79,1.4-1.57,1.4a2.3,2.3,0,0,1-1.55-.66,2.75,2.75,0,0,1-.92-1.59Zm2.92,4.81.13,14.47a4.18,4.18,0,0,0,1.66,1.73,4.91,4.91,0,0,0,2.48.65,4.31,4.31,0,0,0,3-1.12,6.05,6.05,0,0,0,1.75-3,23,23,0,0,0,.72-3.48,26.3,26.3,0,0,0,.21-3.4q0-7.62-5.17-7.62a9.84,9.84,0,0,0-3.08.47C534.49,40.44,533.93,40.87,533.75,41.41Z"/><path class="cls-1" d="M568.79,55.88l.45,2a52.9,52.9,0,0,1-5.87,1.6,29.34,29.34,0,0,1-5.77.87A4.88,4.88,0,0,1,554.23,59a7.68,7.68,0,0,1-2.15-3.28,22.88,22.88,0,0,1-1.4-7.79q0-11.23,10.16-11.23a6.45,6.45,0,0,1,4.26,1.55,5,5,0,0,1,1.84,4,3.94,3.94,0,0,1-.74,2.38,5.59,5.59,0,0,1-1.79,1.64,13.55,13.55,0,0,1-2.7,1.1,25.89,25.89,0,0,1-2.9.72c-.83.15-1.84.31-3,.49s-2,.32-2.42.41c0,.87.08,1.63.16,2.29a12.45,12.45,0,0,0,.44,2.13,5.94,5.94,0,0,0,.9,1.89,4.3,4.3,0,0,0,1.55,1.23,5.18,5.18,0,0,0,2.34.5,33.61,33.61,0,0,0,4-.29c1.56-.2,2.94-.4,4.16-.61S568.73,55.88,568.79,55.88Zm-15.23-9.62a61.24,61.24,0,0,0,10-3.68,5.27,5.27,0,0,0-.86-2.16,2,2,0,0,0-1.62-.67,7.47,7.47,0,0,0-5,1.89A7.11,7.11,0,0,0,553.56,46.26Z"/><path class="cls-1" d="M586.17,38,586,39.88a23.42,23.42,0,0,0-3.24-.27,7.29,7.29,0,0,0-5.12,1.87,9.47,9.47,0,0,0-2.76,4.4,19.85,19.85,0,0,0-.74,5.64,16.3,16.3,0,0,0,.18,2.56,8.79,8.79,0,0,0,.65,2.2A3.56,3.56,0,0,0,576.4,58a4.71,4.71,0,0,0,2.49.61,21.6,21.6,0,0,0,5-.76,4.43,4.43,0,0,1,1.48-.36c.72,0,1.15.84,1.3,2.51a24.27,24.27,0,0,1-7.32,1.26q-4.9,0-6.63-2.4T571,51a30.7,30.7,0,0,1,.43-5.5,15.26,15.26,0,0,1,1.5-4.4A7.31,7.31,0,0,1,576.09,38a10.6,10.6,0,0,1,5-1.08A10.11,10.11,0,0,1,586.17,38Z"/><path class="cls-1" d="M605.49,55.88l.45,2a52.9,52.9,0,0,1-5.87,1.6,29.34,29.34,0,0,1-5.77.87A4.88,4.88,0,0,1,590.93,59a7.77,7.77,0,0,1-2.15-3.28,23.9,23.9,0,0,1-1.06-3.95,23,23,0,0,1-.34-3.84q0-11.23,10.16-11.23a6.43,6.43,0,0,1,4.26,1.55,5,5,0,0,1,1.85,4,3.94,3.94,0,0,1-.75,2.38,5.59,5.59,0,0,1-1.79,1.64,13.31,13.31,0,0,1-2.7,1.1,26.32,26.32,0,0,1-2.89.72c-.84.15-1.85.31-3,.49s-2,.32-2.43.41c0,.87.08,1.63.16,2.29a11.63,11.63,0,0,0,.45,2.13,5.73,5.73,0,0,0,.89,1.89,4.39,4.39,0,0,0,1.55,1.23,5.18,5.18,0,0,0,2.34.5,33.47,33.47,0,0,0,3.95-.29c1.56-.2,3-.4,4.16-.61S605.43,55.88,605.49,55.88Zm-15.23-9.62a61.24,61.24,0,0,0,10-3.68,5.27,5.27,0,0,0-.86-2.16,1.94,1.94,0,0,0-1.61-.67,7.48,7.48,0,0,0-5,1.89A7.11,7.11,0,0,0,590.26,46.26Z"/><path class="cls-1" d="M608.27,36.6l2.52.45c0,.63,0,1.1,0,1.4a9.22,9.22,0,0,1,5-1.58,7.23,7.23,0,0,1,6.38,3.51,14.15,14.15,0,0,1,2.29,7.95,25.72,25.72,0,0,1-.34,4.29A19.71,19.71,0,0,1,623,56.8a7.52,7.52,0,0,1-2.63,3.41A7.15,7.15,0,0,1,616,61.49a9.12,9.12,0,0,1-4.58-1.26c.12,5.24.23,9.14.32,11.68-.27.93-.8,1.4-1.58,1.4a2.34,2.34,0,0,1-1.55-.66,2.75,2.75,0,0,1-.92-1.59Zm2.92,4.81.14,14.47A4.12,4.12,0,0,0,613,57.61a4.87,4.87,0,0,0,2.47.65,4.34,4.34,0,0,0,3-1.12,6.21,6.21,0,0,0,1.75-3,25.74,25.74,0,0,0,.72-3.48,28.27,28.27,0,0,0,.2-3.4q0-7.62-5.17-7.62a9.78,9.78,0,0,0-3.07.47C611.93,40.44,611.37,40.87,611.19,41.41Z"/><path class="cls-1" d="M629.12,37.19a62.69,62.69,0,0,1,8.49-1.48q6,0,6,5.16a10.28,10.28,0,0,1-.61,3.48,4.12,4.12,0,0,1-1.5,2.23,7.52,7.52,0,0,1,3.5,6.56,7.65,7.65,0,0,1-2.58,6.15,10.15,10.15,0,0,1-6.81,2.2c-3.35,0-5.86-.9-7.5-2.69Zm2.11,2,.31,7c.45-.06,1.15-.11,2.08-.14a16.7,16.7,0,0,0,2.26-.2,7.26,7.26,0,0,0,1.89-.68,3.6,3.6,0,0,0,1.65-1.83,10.88,10.88,0,0,0,.84-3.43c-.3-.91-1.22-1.36-2.76-1.36a26.12,26.12,0,0,0-3.25.32C632.78,39,631.77,39.14,631.23,39.17Zm.45,9.29.4,9.12a5.83,5.83,0,0,0,2.56.54,8.31,8.31,0,0,0,5.12-1.75,5.05,5.05,0,0,0,2.34-4.09,4.35,4.35,0,0,0-1.26-3,4.15,4.15,0,0,0-3.19-1.37Q636.53,47.92,631.68,48.46Z"/><path class="cls-1" d="M648.79,37.46l2,.45c.06,1,.16,2.08.3,3.37s.29,2.75.47,4.4a11.79,11.79,0,0,1,3.41-.54,8.82,8.82,0,0,1,3.6.74,9.26,9.26,0,0,1,2.83,1.95,9.43,9.43,0,0,1,1.84,2.77,7.84,7.84,0,0,1,.67,3.16,6.67,6.67,0,0,1-.61,2.88,6.28,6.28,0,0,1-1.7,2.22A8,8,0,0,1,659,60.3a10.2,10.2,0,0,1-3.3.52c-.72,0-1.48,0-2.29-.11s-1.54-.18-2.2-.3a9.9,9.9,0,0,1-1.64-.42c-.44-.17-.65-.36-.65-.57,0-.47,0-1.16,0-2.06s0-1.89,0-3,0-2.21-.07-3.41,0-2.35-.06-3.46,0-2.12-.05-3,0-1.66,0-2.23C648.66,40.59,648.7,39,648.79,37.46Zm3.19,11-.4,9a10.43,10.43,0,0,0,3.4.62,6.15,6.15,0,0,0,2.3-.42A5.31,5.31,0,0,0,659,56.58,5,5,0,0,0,660.16,55a4.47,4.47,0,0,0,.4-1.88A4.29,4.29,0,0,0,659,49.72a5.74,5.74,0,0,0-2-1,8.32,8.32,0,0,0-2.64-.39,10.63,10.63,0,0,0-1.07.07Zm14-11.19,2,.45q.32,3.56.67,8.92t.77,12.64a1.6,1.6,0,0,1-1.58,1.35,2.38,2.38,0,0,1-1.55-.65,2.75,2.75,0,0,1-.92-1.59c0-.45.06-1.19.07-2.2s0-2.19.07-3.51.06-2.72.09-4.22.06-2.95.09-4.36.07-2.72.11-3.93S665.94,38,666,37.32Z"/><path class="cls-1" d="M288.23,59.25l.14,1.7a15.7,15.7,0,0,1-4.54.72,5.68,5.68,0,0,1-3.52-1.1,6.92,6.92,0,0,1-2.21-2.76c-.49-1.11-1-2.31-1.48-3.6s-1-2.48-1.39-3.59a6.89,6.89,0,0,0-1.91-2.76,4.39,4.39,0,0,0-3-1.1l.45,13.2c-.27.93-.79,1.4-1.57,1.4a2.28,2.28,0,0,1-1.55-.68,2.84,2.84,0,0,1-.92-1.61q0-.95.31-15.21t.41-16.51l2,.45q0,1.71.27,6.4t.27,6.36a4.62,4.62,0,0,0,3.3-1.46,11.44,11.44,0,0,0,2.24-3.44c.59-1.35,1.18-2.69,1.78-4a10.82,10.82,0,0,1,2.36-3.41,4.79,4.79,0,0,1,3.48-1.42,32.87,32.87,0,0,1,5.16.68l-.45,1.79c-1.86-.3-2.93-.45-3.2-.45A3.35,3.35,0,0,0,282,30.14a10.92,10.92,0,0,0-1.8,3.25c-.48,1.31-1,2.64-1.57,4a12.13,12.13,0,0,1-2.5,3.75,8.26,8.26,0,0,1-4.07,2.29,8.3,8.3,0,0,1,3.76,1.93,9.34,9.34,0,0,1,2.35,3.24c.51,1.2,1,2.46,1.48,3.79s.89,2.54,1.25,3.62a7.64,7.64,0,0,0,1.5,2.7,3,3,0,0,0,2.35,1.07A15.41,15.41,0,0,0,288.23,59.25Z"/><path class="cls-1" d="M287.88,50.67a23,23,0,0,1,.38-4A35,35,0,0,1,289.4,42a10.37,10.37,0,0,1,2.29-4,4.74,4.74,0,0,1,3.55-1.62,8,8,0,0,1,6.92,3.89,15.15,15.15,0,0,1,2.61,8.64,19.47,19.47,0,0,1-.43,4A18.4,18.4,0,0,1,303,56.86a8.54,8.54,0,0,1-2.58,3.22,7.33,7.33,0,0,1-3.93,1.46A9.08,9.08,0,0,1,290.12,58,11.84,11.84,0,0,1,287.88,50.67Zm7.63-12c-1.05.12-1.93,1.07-2.65,2.87a21.07,21.07,0,0,0-1.39,5.23,37.14,37.14,0,0,0-.32,4.47,7.76,7.76,0,0,0,1.55,4.65,4.36,4.36,0,0,0,3.49,2.14A3.55,3.55,0,0,0,298.7,57a7.77,7.77,0,0,0,1.78-2.67,18.56,18.56,0,0,0,1-3.22,13.81,13.81,0,0,0,.34-2.87,12.08,12.08,0,0,0-1.66-6.42A6.07,6.07,0,0,0,295.51,38.72Z"/><path class="cls-1" d="M321.84,37.46l2,.45,1,21.78A1.59,1.59,0,0,1,323.32,61a2.42,2.42,0,0,1-1.57-.65,2.73,2.73,0,0,1-.95-1.59q0-.13.41-7.6v-.36c-.84-.05-2.07-.09-3.71-.09a51.24,51.24,0,0,1-5.59-.22q.22,2.61.58,8.4c-.27.93-.8,1.39-1.58,1.39a2.33,2.33,0,0,1-1.57-.65,2.68,2.68,0,0,1-.94-1.59c.09-1.5.14-3,.14-4.5,0-.95,0-2.39-.05-4.31s0-3.34,0-4.27q0-4.3.27-7.23l2,.5c.61,6.5.93,9.83,1,10l7.87.41c1.22,0,1.83-.08,1.83-.23,0-.59.06-2.5.18-5.7S321.81,37.79,321.84,37.46Z"/><path class="cls-1" d="M343.67,38l-.23,1.93a23.18,23.18,0,0,0-3.23-.27,7.27,7.27,0,0,0-5.12,1.87,9.47,9.47,0,0,0-2.76,4.4,19.84,19.84,0,0,0-.75,5.64,16.3,16.3,0,0,0,.18,2.56,8.82,8.82,0,0,0,.66,2.2A3.51,3.51,0,0,0,333.9,58a4.69,4.69,0,0,0,2.49.61,21.45,21.45,0,0,0,5-.76,4.54,4.54,0,0,1,1.48-.36c.72,0,1.16.84,1.31,2.51a24.27,24.27,0,0,1-7.32,1.26q-4.9,0-6.63-2.4T328.53,51a30.7,30.7,0,0,1,.43-5.5,15,15,0,0,1,1.5-4.4A7.34,7.34,0,0,1,333.58,38a10.66,10.66,0,0,1,5-1.08A10.12,10.12,0,0,1,343.67,38Z"/><path class="cls-1" d="M363,55.88l.45,2a52,52,0,0,1-5.86,1.6,29.34,29.34,0,0,1-5.77.87A4.88,4.88,0,0,1,348.43,59a7.79,7.79,0,0,1-2.16-3.28,22.9,22.9,0,0,1-1-3.95,22,22,0,0,1-.34-3.84q0-11.23,10.15-11.23a6.45,6.45,0,0,1,4.27,1.55,5,5,0,0,1,1.84,4,3.94,3.94,0,0,1-.74,2.38,5.52,5.52,0,0,1-1.8,1.64,13.2,13.2,0,0,1-2.69,1.1,25.89,25.89,0,0,1-2.9.72c-.84.15-1.84.31-3,.49s-2,.32-2.42.41c0,.87.08,1.63.15,2.29a13.58,13.58,0,0,0,.45,2.13,5.94,5.94,0,0,0,.9,1.89,4.3,4.3,0,0,0,1.55,1.23,5.18,5.18,0,0,0,2.34.5,33.61,33.61,0,0,0,3.95-.29c1.56-.2,2.94-.4,4.16-.61S362.92,55.88,363,55.88Zm-15.22-9.62a60.74,60.74,0,0,0,10-3.68,5.28,5.28,0,0,0-.85-2.16,2,2,0,0,0-1.62-.67,7.47,7.47,0,0,0-5,1.89A7.11,7.11,0,0,0,347.76,46.26Z"/><path class="cls-1" d="M365.77,36.6l2.52.45c0,.63,0,1.1,0,1.4a9.22,9.22,0,0,1,5-1.58,7.23,7.23,0,0,1,6.38,3.51A14.23,14.23,0,0,1,382,48.33a26.83,26.83,0,0,1-.34,4.29,19.71,19.71,0,0,1-1.19,4.18,7.59,7.59,0,0,1-2.63,3.41,7.15,7.15,0,0,1-4.29,1.28A9.09,9.09,0,0,1,369,60.23c.12,5.24.22,9.14.31,11.68-.27.93-.79,1.4-1.57,1.4a2.32,2.32,0,0,1-1.55-.66,2.75,2.75,0,0,1-.92-1.59Zm2.92,4.81.13,14.47a4.14,4.14,0,0,0,1.67,1.73,4.85,4.85,0,0,0,2.47.65,4.29,4.29,0,0,0,3-1.12,6.14,6.14,0,0,0,1.76-3,25.74,25.74,0,0,0,.72-3.48,28.27,28.27,0,0,0,.2-3.4q0-7.62-5.17-7.62a9.84,9.84,0,0,0-3.08.47C369.43,40.44,368.87,40.87,368.69,41.41Z"/><path class="cls-1" d="M386.61,37.19a63.22,63.22,0,0,1,8.49-1.48c4,0,6,1.72,6,5.16a10.27,10.27,0,0,1-.6,3.48A4.13,4.13,0,0,1,399,46.58a7.51,7.51,0,0,1,3.51,6.56,7.66,7.66,0,0,1-2.59,6.15,10.11,10.11,0,0,1-6.8,2.2q-5,0-7.5-2.69Zm2.11,2,.32,7c.45-.06,1.14-.11,2.08-.14a16.53,16.53,0,0,0,2.25-.2,7.19,7.19,0,0,0,1.9-.68,3.69,3.69,0,0,0,1.65-1.83,11.18,11.18,0,0,0,.83-3.43c-.3-.91-1.22-1.36-2.75-1.36a26,26,0,0,0-3.25.32C390.27,39,389.27,39.14,388.72,39.17Zm.45,9.29.41,9.12a5.83,5.83,0,0,0,2.56.54,8.33,8.33,0,0,0,5.12-1.75,5.05,5.05,0,0,0,2.34-4.09,4.35,4.35,0,0,0-1.26-3,4.15,4.15,0,0,0-3.19-1.37Q394,47.92,389.17,48.46Z"/><path class="cls-1" d="M406.29,37.46l2,.45c.06,1,.16,2.08.29,3.37s.29,2.75.47,4.4a11.91,11.91,0,0,1,3.42-.54,8.77,8.77,0,0,1,3.59.74,9.14,9.14,0,0,1,2.83,1.95,9.24,9.24,0,0,1,1.84,2.77,7.85,7.85,0,0,1,.68,3.16,6.67,6.67,0,0,1-.61,2.88,6.2,6.2,0,0,1-1.71,2.22,7.9,7.9,0,0,1-2.6,1.44,10.24,10.24,0,0,1-3.3.52c-.72,0-1.49,0-2.29-.11s-1.55-.18-2.2-.3a9.9,9.9,0,0,1-1.64-.42q-.66-.26-.66-.57c0-.47,0-1.16,0-2.06s0-1.89,0-3,0-2.21-.07-3.41-.05-2.35-.07-3.46,0-2.12,0-3,0-1.66,0-2.23C406.15,40.59,406.2,39,406.29,37.46Zm3.19,11-.41,9a10.53,10.53,0,0,0,3.4.62,6.11,6.11,0,0,0,2.3-.42,5.47,5.47,0,0,0,1.77-1.12A5,5,0,0,0,417.66,55a4.63,4.63,0,0,0,.4-1.88,4.49,4.49,0,0,0-.4-1.85,4.33,4.33,0,0,0-1.21-1.54,5.79,5.79,0,0,0-2-1,8.22,8.22,0,0,0-2.63-.39,10.82,10.82,0,0,0-1.08.07Zm14-11.19,2,.45c.2,2.37.43,5.34.67,8.92s.49,7.79.76,12.64a1.59,1.59,0,0,1-1.57,1.35,2.36,2.36,0,0,1-1.55-.65,2.75,2.75,0,0,1-.92-1.59c0-.45,0-1.19.07-2.2s0-2.19.07-3.51.05-2.72.09-4.22.05-2.95.08-4.36.07-2.72.12-3.93S423.43,38,423.49,37.32Z"/><path class="cls-1" d="M11.33,131.86l1.14.25.59,12.32a.91.91,0,0,1-.89.76,1.39,1.39,0,0,1-.89-.37,1.51,1.51,0,0,1-.53-.9s.07-1.48.22-4.29v-.21c-.47,0-1.17,0-2.09,0a30.6,30.6,0,0,1-3.16-.12q.12,1.47.33,4.74c-.15.53-.45.79-.9.79a1.34,1.34,0,0,1-.89-.37,1.53,1.53,0,0,1-.52-.9c0-.84.07-1.69.07-2.54,0-.54,0-1.35,0-2.43s0-1.89,0-2.42c0-1.62.05-3,.16-4.08l1.16.27q.51,5.52.54,5.67l4.44.23c.69,0,1-.05,1-.13,0-.34,0-1.41.1-3.23S11.31,132,11.33,131.86Z"/><path class="cls-1" d="M25.34,142.27l.26,1.11a27.43,27.43,0,0,1-3.31.91,16.53,16.53,0,0,1-3.27.49,2.76,2.76,0,0,1-1.9-.72,4.42,4.42,0,0,1-1.22-1.86,12.8,12.8,0,0,1-.79-4.4q0-6.35,5.74-6.35a3.6,3.6,0,0,1,2.41.88,2.8,2.8,0,0,1,1,2.27,2.26,2.26,0,0,1-.42,1.35,3.17,3.17,0,0,1-1,.92,7.13,7.13,0,0,1-1.52.62,13.48,13.48,0,0,1-1.64.41c-.48.09-1,.18-1.7.28s-1.12.18-1.37.23c0,.49,0,.92.08,1.29a7.54,7.54,0,0,0,.26,1.21,3.23,3.23,0,0,0,.51,1.07,2.45,2.45,0,0,0,.87.69,2.86,2.86,0,0,0,1.32.28,18.44,18.44,0,0,0,2.24-.16c.88-.11,1.66-.23,2.35-.34Zm-8.6-5.44a34.2,34.2,0,0,0,5.66-2.08,3.08,3.08,0,0,0-.48-1.22,1.13,1.13,0,0,0-.92-.38,4.23,4.23,0,0,0-2.8,1.07A4,4,0,0,0,16.74,136.83Z"/><path class="cls-1" d="M33.88,139.32a13.76,13.76,0,0,1,.21-2.26,20.7,20.7,0,0,1,.65-2.61A5.88,5.88,0,0,1,36,132.16a2.69,2.69,0,0,1,2-.91A4.5,4.5,0,0,1,42,133.44a8.63,8.63,0,0,1,1.47,4.89,10.87,10.87,0,0,1-.24,2.27,10.27,10.27,0,0,1-.75,2.23A4.76,4.76,0,0,1,41,144.64a4.15,4.15,0,0,1-2.22.83,5.11,5.11,0,0,1-3.6-2A6.68,6.68,0,0,1,33.88,139.32Zm4.31-6.75q-.88.1-1.5,1.62a12.38,12.38,0,0,0-.78,3,20.66,20.66,0,0,0-.18,2.53,4.36,4.36,0,0,0,.88,2.63,2.45,2.45,0,0,0,2,1.2A2,2,0,0,0,40,142.9a4.38,4.38,0,0,0,1-1.51,11.09,11.09,0,0,0,.56-1.81,8.69,8.69,0,0,0,.19-1.63,6.91,6.91,0,0,0-.94-3.63A3.43,3.43,0,0,0,38.19,132.57Z"/><path class="cls-1" d="M47.21,132.64a5.23,5.23,0,0,1,1.53-.8,5.1,5.1,0,0,1,1.63-.31q4.71,0,4.71,5.46a18.19,18.19,0,0,1-.18,2.47,21.56,21.56,0,0,1-.62,2.86,6.06,6.06,0,0,1-1.4,2.55,3,3,0,0,1-2.3,1,4,4,0,0,1-2.46-.76,4.92,4.92,0,0,1-1.59-2.23,14.29,14.29,0,0,1-.81-3.32,33.62,33.62,0,0,1-.24-4.3,14.75,14.75,0,0,1,.62-4.44A9.8,9.8,0,0,1,48,127.39a14.58,14.58,0,0,1,2.85-2.54,28.41,28.41,0,0,1,3.81-2.11,1.37,1.37,0,0,0,.34.34,1.5,1.5,0,0,1,.35.42,10.3,10.3,0,0,1,.52,1.1c-.32.18-.83.46-1.54.83s-1.3.69-1.77,1a16.93,16.93,0,0,0-1.69,1.09,11.14,11.14,0,0,0-1.62,1.37A8.67,8.67,0,0,0,48,130.52,7.52,7.52,0,0,0,47.21,132.64Zm5.91,4.19a4,4,0,0,0-.86-2.8,3,3,0,0,0-2.3-.93,2.56,2.56,0,0,0-2.17,1.16,4.62,4.62,0,0,0-.84,2.8,14.59,14.59,0,0,0,.17,2.11,15.42,15.42,0,0,0,.5,2.25,5,5,0,0,0,1,1.86,1.9,1.9,0,0,0,1.45.74Q53.12,144,53.12,136.83Z"/><path class="cls-1" d="M57.72,131.38l1.42.25a7.55,7.55,0,0,0,0,.79,5.14,5.14,0,0,1,2.81-.89,4.09,4.09,0,0,1,3.61,2A8.05,8.05,0,0,1,66.88,138a14.6,14.6,0,0,1-.19,2.43,11.08,11.08,0,0,1-.67,2.36,4.33,4.33,0,0,1-1.48,1.93,4.06,4.06,0,0,1-2.43.72,5.18,5.18,0,0,1-2.59-.71q.1,4.44.18,6.6c-.15.53-.45.79-.89.79a1.3,1.3,0,0,1-.88-.37,1.53,1.53,0,0,1-.52-.9Zm1.65,2.71.07,8.18a2.39,2.39,0,0,0,.94,1,2.81,2.81,0,0,0,1.4.36,2.44,2.44,0,0,0,1.69-.63,3.52,3.52,0,0,0,1-1.68,15.1,15.1,0,0,0,.41-2,16.69,16.69,0,0,0,.11-1.92q0-4.31-2.92-4.31a5.38,5.38,0,0,0-1.74.27A1.34,1.34,0,0,0,59.37,134.09Z"/><path class="cls-1" d="M69.85,133.76l-.5-1.29A4.93,4.93,0,0,1,71,131.41a5.6,5.6,0,0,1,2-.39q4.29,0,4.29,7.41c0,.68,0,1.68-.11,3s-.12,2.31-.12,3-.4.79-.79.79a1.07,1.07,0,0,1-.83-.46,1.52,1.52,0,0,1-.39-1,.77.77,0,0,1,0-.25A4.76,4.76,0,0,1,71.76,145a3.26,3.26,0,0,1-2.35-1,3.2,3.2,0,0,1-1-2.38,6,6,0,0,1,1.84-4.26,5.68,5.68,0,0,1,4.17-1.91l.21,0,.24,0,.21,0c-.13-2-.92-2.95-2.36-2.95A5.09,5.09,0,0,0,69.85,133.76Zm5.31,8c0-1.19,0-2.08,0-2.69s0-1.22,0-2.14H75a5,5,0,0,0-3.29,1.35,4.14,4.14,0,0,0-1.49,3.2,1.72,1.72,0,0,0,.5,1.29,1.64,1.64,0,0,0,1.21.49A6.78,6.78,0,0,0,75.16,141.71Z"/><path class="cls-1" d="M81.1,132.64a5.5,5.5,0,0,1,1.53-.8,5.15,5.15,0,0,1,1.64-.31q4.7,0,4.7,5.46a19.86,19.86,0,0,1-.17,2.47,20.2,20.2,0,0,1-.63,2.86,6.05,6.05,0,0,1-1.39,2.55,3.05,3.05,0,0,1-2.3,1,3.94,3.94,0,0,1-2.46-.76,4.92,4.92,0,0,1-1.59-2.23,14.29,14.29,0,0,1-.81-3.32,33.62,33.62,0,0,1-.24-4.3,14.44,14.44,0,0,1,.62-4.44,9.49,9.49,0,0,1,1.89-3.43,14.53,14.53,0,0,1,2.84-2.54,28.41,28.41,0,0,1,3.81-2.11,1.56,1.56,0,0,0,.34.34,1.52,1.52,0,0,1,.36.42c.11.19.28.55.52,1.1-.32.18-.83.46-1.54.83s-1.3.69-1.78,1a16.94,16.94,0,0,0-1.68,1.09,11.14,11.14,0,0,0-1.62,1.37,8.67,8.67,0,0,0-1.21,1.67A7.86,7.86,0,0,0,81.1,132.64ZM87,136.83a4,4,0,0,0-.86-2.8,3,3,0,0,0-2.3-.93,2.58,2.58,0,0,0-2.18,1.16,4.69,4.69,0,0,0-.83,2.8,14.51,14.51,0,0,0,.16,2.11,15.47,15.47,0,0,0,.51,2.25,5,5,0,0,0,1,1.86A1.92,1.92,0,0,0,84,144Q87,144,87,136.83Z"/><path class="cls-1" d="M92.22,133.76l-.5-1.29a4.83,4.83,0,0,1,1.67-1.06,5.6,5.6,0,0,1,2-.39q4.29,0,4.29,7.41,0,1-.12,3c-.07,1.32-.11,2.31-.11,3s-.4.79-.79.79a1.1,1.1,0,0,1-.84-.46,1.56,1.56,0,0,1-.38-1,.77.77,0,0,1,0-.25A4.76,4.76,0,0,1,94.13,145a3.26,3.26,0,0,1-2.35-1,3.2,3.2,0,0,1-1-2.38,6,6,0,0,1,1.84-4.26,5.66,5.66,0,0,1,4.17-1.91l.21,0,.24,0,.21,0c-.13-2-.92-2.95-2.36-2.95A5.09,5.09,0,0,0,92.22,133.76Zm5.31,8c0-1.19,0-2.08,0-2.69s0-1.22,0-2.14h-.2A5,5,0,0,0,94,138.23a4.14,4.14,0,0,0-1.49,3.2,1.72,1.72,0,0,0,.5,1.29,1.63,1.63,0,0,0,1.2.49A6.77,6.77,0,0,0,97.53,141.71Z"/><path class="cls-1" d="M100.93,133.08,100.7,132c2.28-.14,5.86-.32,10.74-.56a1.5,1.5,0,0,1,1,.46,1.29,1.29,0,0,1,.44.91c0,.51-.34.8-1,.86l-4.75-.22c.09,1.27.13,3.12.14,5.54s0,4.21.09,5.32a.9.9,0,0,1-.9.74,1.3,1.3,0,0,1-.85-.36,1.5,1.5,0,0,1-.51-.86c.24-4.16.48-7.66.74-10.49Z"/><path class="cls-1" d="M114,131.86l1.14.25c0,.54.09,1.18.17,1.91s.16,1.55.26,2.48a6.83,6.83,0,0,1,1.93-.3,4.89,4.89,0,0,1,2,.42,5.12,5.12,0,0,1,1.6,1.1,5.26,5.26,0,0,1,1,1.56,4.38,4.38,0,0,1,.39,1.79,3.78,3.78,0,0,1-.35,1.63,3.71,3.71,0,0,1-1,1.26,5,5,0,0,1-1.47.81,5.87,5.87,0,0,1-1.87.29c-.41,0-.84,0-1.3-.06s-.87-.1-1.24-.17a6.19,6.19,0,0,1-.93-.24c-.24-.09-.37-.2-.37-.32,0-.27,0-.66,0-1.16s0-1.07,0-1.68,0-1.25,0-1.93,0-1.33,0-2,0-1.19,0-1.71,0-.93,0-1.26C113.93,133.63,114,132.72,114,131.86Zm1.8,6.24-.23,5.08a5.78,5.78,0,0,0,1.92.36,3.38,3.38,0,0,0,1.3-.24,3.05,3.05,0,0,0,1-.63,2.93,2.93,0,0,0,.63-.9,2.44,2.44,0,0,0,.23-1.06,2.37,2.37,0,0,0-.23-1.05,2.46,2.46,0,0,0-.68-.87,3.11,3.11,0,0,0-1.11-.6,4.87,4.87,0,0,0-1.49-.21l-.61,0Zm7.92-6.32,1.15.26c.11,1.33.24,3,.38,5s.28,4.4.43,7.14a.9.9,0,0,1-.89.76,1.35,1.35,0,0,1-.88-.36,1.59,1.59,0,0,1-.52-.91c0-.25,0-.66,0-1.24s0-1.23,0-2,0-1.54,0-2.39,0-1.66,0-2.46,0-1.54.06-2.22S123.7,132.19,123.73,131.78Z"/><path class="cls-1" d="M128.3,131.71a36,36,0,0,1,4.8-.84q3.41,0,3.4,2.92a5.69,5.69,0,0,1-.34,2,2.3,2.3,0,0,1-.85,1.26,4.25,4.25,0,0,1,2,3.71,4.31,4.31,0,0,1-1.46,3.48,5.7,5.7,0,0,1-3.84,1.24,5.49,5.49,0,0,1-4.24-1.52Zm1.2,1.11.17,3.94c.26,0,.65-.06,1.18-.08a9.22,9.22,0,0,0,1.27-.11,4,4,0,0,0,1.08-.39,2.06,2.06,0,0,0,.93-1,6.05,6.05,0,0,0,.47-1.94c-.17-.51-.69-.77-1.56-.77a14.28,14.28,0,0,0-1.83.18C130.37,132.74,129.8,132.81,129.5,132.82Zm.25,5.26.23,5.15a3.19,3.19,0,0,0,1.45.31,4.7,4.7,0,0,0,2.89-1,2.85,2.85,0,0,0,1.32-2.31,2.46,2.46,0,0,0-.71-1.69,2.32,2.32,0,0,0-1.8-.78C132.7,137.77,131.58,137.88,129.75,138.08Z"/><path class="cls-1" d="M140.26,133.76l-.51-1.29a4.88,4.88,0,0,1,1.68-1.06,5.6,5.6,0,0,1,2-.39q4.29,0,4.29,7.41,0,1-.12,3c-.07,1.32-.11,2.31-.11,3s-.4.79-.79.79a1.1,1.1,0,0,1-.84-.46,1.56,1.56,0,0,1-.38-1,.77.77,0,0,1,0-.25,4.76,4.76,0,0,1-3.35,1.52,3.26,3.26,0,0,1-2.35-1,3.2,3.2,0,0,1-1-2.38,6,6,0,0,1,1.84-4.26,5.66,5.66,0,0,1,4.17-1.91l.21,0,.24,0,.21,0c-.13-2-.92-2.95-2.36-2.95A5.09,5.09,0,0,0,140.26,133.76Zm5.31,8c0-1.19.05-2.08.05-2.69s0-1.22-.05-2.14h-.2a5,5,0,0,0-3.29,1.35,4.14,4.14,0,0,0-1.49,3.2,1.72,1.72,0,0,0,.5,1.29,1.63,1.63,0,0,0,1.2.49A6.77,6.77,0,0,0,145.57,141.71Z"/><path class="cls-1" d="M151.87,139.65l.12,4.75a.89.89,0,0,1-.88.74,1.21,1.21,0,0,1-.82-.36,1.54,1.54,0,0,1-.51-.86l.53-11.2,1.1.23c.19,3.37.28,5.1.28,5.2l.41,0q.33,0,1,.06c.46,0,.8.07,1,.07a3.91,3.91,0,0,0,1.33-.21c.07-.78.15-1.44.23-2a10.09,10.09,0,0,1,.42-1.73,5,5,0,0,1,.71-1.46,3.29,3.29,0,0,1,1.1-.91,3.4,3.4,0,0,1,1.6-.36,4.16,4.16,0,0,1,1.49.24,3.17,3.17,0,0,1,1.19.92,4.72,4.72,0,0,1,.88,2.06,16.65,16.65,0,0,1,.3,3.46,8,8,0,0,1-.25,1.87,12.26,12.26,0,0,1-.76,2.17,5.09,5.09,0,0,1-1.47,1.88,3.45,3.45,0,0,1-2.19.76,3.55,3.55,0,0,1-2.47-.85,3.11,3.11,0,0,1-1-2.45c0-.63,0-1.11,0-1.45Zm9.8-3.09a6.6,6.6,0,0,0-.09-1.06,6.26,6.26,0,0,0-.31-1.18,2.45,2.45,0,0,0-.63-1,1.44,1.44,0,0,0-1-.4,1.65,1.65,0,0,0-1.25.59,4,4,0,0,0-.81,1.49,11.56,11.56,0,0,0-.42,1.81,11.75,11.75,0,0,0-.14,1.74,16,16,0,0,0,.2,2.88,2.51,2.51,0,0,0,.56,1.31,1.45,1.45,0,0,0,1,.31,1.91,1.91,0,0,0,1.6-1.15,8.46,8.46,0,0,0,1-2.6A12.79,12.79,0,0,0,161.67,136.56Z"/><path class="cls-1" d="M164.64,133.08l-.23-1.12c2.27-.14,5.85-.32,10.74-.56a1.53,1.53,0,0,1,1,.46,1.27,1.27,0,0,1,.43.91c0,.51-.34.8-1,.86l-4.75-.22c.08,1.27.13,3.12.14,5.54s0,4.21.09,5.32a.92.92,0,0,1-.9.74,1.26,1.26,0,0,1-.85-.36,1.45,1.45,0,0,1-.51-.86c.23-4.16.48-7.66.73-10.49Z"/><path class="cls-1" d="M185.08,132.14l-.13,1.09a13.41,13.41,0,0,0-1.83-.15,4.09,4.09,0,0,0-2.89,1,5.38,5.38,0,0,0-1.56,2.49,11.28,11.28,0,0,0-.42,3.18,8.92,8.92,0,0,0,.1,1.45,5.25,5.25,0,0,0,.37,1.25,2,2,0,0,0,.83.95,2.73,2.73,0,0,0,1.41.34,12.08,12.08,0,0,0,2.85-.43,2.36,2.36,0,0,1,.84-.2c.4,0,.65.47.73,1.42a13.85,13.85,0,0,1-4.14.71c-1.84,0-3.09-.45-3.74-1.36a7.67,7.67,0,0,1-1-4.4,17.63,17.63,0,0,1,.24-3.11,8.73,8.73,0,0,1,.85-2.49,4.2,4.2,0,0,1,1.77-1.77,6.07,6.07,0,0,1,2.83-.61A5.72,5.72,0,0,1,185.08,132.14Z"/><path class="cls-1" d="M195.39,131.55l.38,13.64c-.17.51-.46.76-.87.76a1.32,1.32,0,0,1-.85-.36,1.47,1.47,0,0,1-.52-.86l.26-5.51a4.13,4.13,0,0,1-2.21.71,11.17,11.17,0,0,1-2.43,4.65,10.38,10.38,0,0,1-4.66,2.36l-.4-1.09q4.72-1.2,5.38-6.27a4.85,4.85,0,0,1-2-1.55,3.84,3.84,0,0,1-.79-2.39c0-1.79.45-3,1.37-3.58a8.2,8.2,0,0,1,4.34-.89A12,12,0,0,1,195.39,131.55Zm-1.4,5.54-.13-4a9.07,9.07,0,0,0-2.61-.28,3.81,3.81,0,0,0-2.08.54,1.93,1.93,0,0,0-.87,1.77,3.09,3.09,0,0,0,1.09,2.35,3.52,3.52,0,0,0,2.39,1A2.3,2.3,0,0,0,194,137.09Z"/><path class="cls-1" d="M4.3,157.47a35.71,35.71,0,0,1,4.79-.84q3.4,0,3.41,2.92a5.76,5.76,0,0,1-.35,2,2.32,2.32,0,0,1-.85,1.26,4.23,4.23,0,0,1,2,3.7A4.31,4.31,0,0,1,11.82,170,5.7,5.7,0,0,1,8,171.21a5.45,5.45,0,0,1-4.24-1.53Zm1.19,1.12.18,3.93c.25,0,.64-.06,1.17-.07a9.31,9.31,0,0,0,1.28-.12A4.33,4.33,0,0,0,9.19,162a2.08,2.08,0,0,0,.93-1,6.05,6.05,0,0,0,.47-1.94c-.17-.51-.69-.76-1.55-.76a13.8,13.8,0,0,0-1.84.17Q5.94,158.56,5.49,158.59Zm.25,5.25L6,169a3.36,3.36,0,0,0,1.45.3,4.7,4.7,0,0,0,2.89-1A2.85,2.85,0,0,0,11.63,166a2.43,2.43,0,0,0-.71-1.69,2.31,2.31,0,0,0-1.8-.77C8.7,163.54,7.57,163.64,5.74,163.84Z"/><path class="cls-1" d="M15.42,157.62l1.14.26c0,.54.09,1.17.16,1.9l.27,2.49a6.52,6.52,0,0,1,1.93-.31,4.89,4.89,0,0,1,2,.42,5.11,5.11,0,0,1,2.64,2.67,4.33,4.33,0,0,1,.38,1.79,3.76,3.76,0,0,1-.34,1.62,3.71,3.71,0,0,1-1,1.26,4.51,4.51,0,0,1-1.48.81,5.54,5.54,0,0,1-1.86.29c-.41,0-.84,0-1.3-.06s-.87-.1-1.24-.16a5.12,5.12,0,0,1-.93-.25c-.24-.09-.37-.19-.37-.31s0-.66,0-1.17,0-1.07,0-1.68,0-1.25,0-1.93,0-1.33,0-1.95,0-1.2,0-1.72,0-.93,0-1.25C15.34,159.39,15.37,158.48,15.42,157.62Zm1.8,6.25L17,169a6,6,0,0,0,1.92.35,3.42,3.42,0,0,0,1.3-.24,3.05,3.05,0,0,0,1-.63,2.82,2.82,0,0,0,.63-.9,2.59,2.59,0,0,0,.23-1.06,2.51,2.51,0,0,0-.23-1.05,2.46,2.46,0,0,0-.68-.87,3.26,3.26,0,0,0-1.11-.59,4.62,4.62,0,0,0-1.49-.22,4.45,4.45,0,0,0-.61,0Zm7.92-6.33,1.14.26q.18,2,.39,5T27.1,170a.91.91,0,0,1-.89.76,1.34,1.34,0,0,1-.88-.37,1.6,1.6,0,0,1-.52-.9c0-.26,0-.67,0-1.25s0-1.23,0-2,0-1.54.05-2.38,0-1.67,0-2.47,0-1.53.06-2.22S25.11,158,25.14,157.54Z"/><path class="cls-1" d="M37.71,157.9,37.58,159a13.41,13.41,0,0,0-1.83-.15,4.11,4.11,0,0,0-2.89,1,5.49,5.49,0,0,0-1.56,2.49,11.35,11.35,0,0,0-.42,3.19A9.09,9.09,0,0,0,31,167a5.17,5.17,0,0,0,.37,1.24,2,2,0,0,0,.84,1,2.68,2.68,0,0,0,1.41.34,12.08,12.08,0,0,0,2.84-.43,2.73,2.73,0,0,1,.84-.2c.4,0,.65.47.73,1.42a13.48,13.48,0,0,1-4.13.71c-1.85,0-3.1-.45-3.75-1.36a7.67,7.67,0,0,1-1-4.4,17.71,17.71,0,0,1,.24-3.11,8.74,8.74,0,0,1,.86-2.49A4,4,0,0,1,32,157.93a6,6,0,0,1,2.83-.61A5.73,5.73,0,0,1,37.71,157.9Z"/><path class="cls-1" d="M39.31,165.09a12.74,12.74,0,0,1,.22-2.26,19.14,19.14,0,0,1,.64-2.62,5.8,5.8,0,0,1,1.3-2.28,2.67,2.67,0,0,1,2-.92,4.49,4.49,0,0,1,3.91,2.2,8.51,8.51,0,0,1,1.48,4.89,10.87,10.87,0,0,1-.24,2.27,11.61,11.61,0,0,1-.75,2.22,4.89,4.89,0,0,1-1.46,1.82,4.2,4.2,0,0,1-2.23.82,5.14,5.14,0,0,1-3.6-2A6.7,6.7,0,0,1,39.31,165.09Zm4.32-6.76c-.6.07-1.1.61-1.5,1.63a11.74,11.74,0,0,0-.79,3,20.38,20.38,0,0,0-.18,2.52,4.4,4.4,0,0,0,.88,2.63,2.47,2.47,0,0,0,2,1.21,2,2,0,0,0,1.42-.61,4.33,4.33,0,0,0,1-1.51,10.56,10.56,0,0,0,.56-1.82,7.86,7.86,0,0,0,.19-1.63,6.87,6.87,0,0,0-.94-3.63A3.46,3.46,0,0,0,43.63,158.33Z"/><path class="cls-1" d="M60,169.86l.08,1.12a4.3,4.3,0,0,1-.87.15,2.73,2.73,0,0,1-1.76-.64A5.2,5.2,0,0,1,56.16,169q-.51-.91-1-1.83a8.26,8.26,0,0,0-1-1.55,1.4,1.4,0,0,0-1-.64,1,1,0,0,0-.38.08c.06,1,.18,2.66.35,4.93-.15.52-.44.78-.88.78a1.25,1.25,0,0,1-.86-.37,1.53,1.53,0,0,1-.52-.9c.07-2.84.1-5.52.1-8a33.35,33.35,0,0,1,.23-4.39l1.12.4a16,16,0,0,1,.23,2.83c0,1.23,0,2,0,2.28a2.29,2.29,0,0,0,1.34-.79,6,6,0,0,0,.94-1.5q.38-.84.78-1.65a4.35,4.35,0,0,1,1-1.37,2.33,2.33,0,0,1,1.55-.56,5.13,5.13,0,0,1,1.42.31l-.1.86a2.22,2.22,0,0,0-.41,0,2.31,2.31,0,0,0-1.77.85,5.76,5.76,0,0,0-1.12,1.88,11.46,11.46,0,0,1-.93,2,2.11,2.11,0,0,1-1.23,1.09,2.76,2.76,0,0,1,1.62,1.27,8.78,8.78,0,0,1,1,2.15,6.85,6.85,0,0,0,1,2,2,2,0,0,0,1.63.91A2.36,2.36,0,0,0,60,169.86Z"/><path class="cls-1" d="M63.35,168.39c0,.28,0,.67.06,1.14-.16.52-.45.79-.89.79a1.34,1.34,0,0,1-.88-.37,1.6,1.6,0,0,1-.52-.9q.08-2.06.19-6c.08-2.64.13-4.43.17-5.36l1.16-.2a27.8,27.8,0,0,1,.38,4.32c.06,1.79.12,3.13.21,4,.32-.48,1.23-1.71,2.74-3.71A42.54,42.54,0,0,0,69,157.62a5,5,0,0,1,.71-.1.69.69,0,0,1,.68.43,5.63,5.63,0,0,1,.24,1.63L71.15,170a.91.91,0,0,1-.89.76,1.32,1.32,0,0,1-.88-.37,1.62,1.62,0,0,1-.52-.9c0-.56.07-1.93.14-4.1s.14-3.72.19-4.64A53.45,53.45,0,0,0,63.35,168.39Z"/><path class="cls-1" d="M83.21,158l1.7-.16q1.28,3.44,2.59,12.78a4.11,4.11,0,0,1-.85.1,3.46,3.46,0,0,1-.88-.13c-.23-.93-.52-2.57-.85-4.93s-.62-4-.87-5a53.2,53.2,0,0,0-3.38,7.47l-.62.1a4.63,4.63,0,0,1-.67.08,3.46,3.46,0,0,1-.66-.08c-.28-.7-.68-1.81-1.21-3.34s-1-2.69-1.28-3.47a63.76,63.76,0,0,0-3,9.25l-1-.28a41.19,41.19,0,0,1,1.4-6.74q1.26-4.81,1.52-6.14a4.86,4.86,0,0,1,.7.07,4.25,4.25,0,0,0,.6.06,30.11,30.11,0,0,1,1.8,4.38c.76,2.16,1.27,3.51,1.52,4.05A49.16,49.16,0,0,1,83.21,158Z"/><path class="cls-1" d="M90.78,168.39c0,.28,0,.67,0,1.14-.16.52-.45.79-.89.79a1.34,1.34,0,0,1-.88-.37,1.6,1.6,0,0,1-.52-.9c0-1.37.12-3.38.19-6s.13-4.43.17-5.36l1.17-.2a29.1,29.1,0,0,1,.38,4.32c0,1.79.11,3.13.2,4,.32-.48,1.23-1.71,2.74-3.71a42.54,42.54,0,0,0,3.07-4.47,5.16,5.16,0,0,1,.71-.1.68.68,0,0,1,.68.43,5.63,5.63,0,0,1,.24,1.63L98.57,170a.91.91,0,0,1-.89.76,1.29,1.29,0,0,1-.87-.37,1.51,1.51,0,0,1-.52-.9c0-.56.06-1.93.14-4.1s.14-3.72.19-4.64A52,52,0,0,0,90.78,168.39Z"/><path class="cls-1" d="M2.92,184.6l-.22-1.11c2.27-.14,5.85-.32,10.73-.56a1.54,1.54,0,0,1,1.05.46,1.3,1.3,0,0,1,.43.91c0,.51-.34.8-1,.86l-4.74-.23c.08,1.27.13,3.12.14,5.55s0,4.2.08,5.32a.9.9,0,0,1-.9.74,1.26,1.26,0,0,1-.84-.36,1.47,1.47,0,0,1-.52-.86q.36-6.24.74-10.49Z"/><path class="cls-1" d="M25.24,193.8l.26,1.11a29.53,29.53,0,0,1-3.32.9,16.55,16.55,0,0,1-3.26.5,2.76,2.76,0,0,1-1.9-.72,4.38,4.38,0,0,1-1.22-1.86,13.69,13.69,0,0,1-.6-2.23,12.49,12.49,0,0,1-.19-2.17Q15,183,20.75,183a3.6,3.6,0,0,1,2.41.88,2.83,2.83,0,0,1,1,2.27,2.23,2.23,0,0,1-.42,1.34,3.19,3.19,0,0,1-1,.93,7,7,0,0,1-1.53.62,14.92,14.92,0,0,1-1.63.41l-1.7.28-1.38.23q0,.74.09,1.29a7.78,7.78,0,0,0,.26,1.21,3.16,3.16,0,0,0,.5,1.06,2.48,2.48,0,0,0,.88.7,2.86,2.86,0,0,0,1.32.28,18.44,18.44,0,0,0,2.24-.16c.88-.11,1.66-.23,2.34-.35Zm-8.6-5.44a34.2,34.2,0,0,0,5.66-2.08,3.08,3.08,0,0,0-.48-1.22,1.13,1.13,0,0,0-.92-.38,4.21,4.21,0,0,0-2.8,1.07A4,4,0,0,0,16.64,188.36Z"/><path class="cls-1" d="M36.49,183.74l1.7-.15q1.28,3.42,2.59,12.77a3.53,3.53,0,0,1-.85.1,3.34,3.34,0,0,1-.87-.13c-.24-.93-.52-2.57-.85-4.92s-.63-4-.88-5A52.37,52.37,0,0,0,34,193.87l-.62.1a4.63,4.63,0,0,1-.67.08A3.46,3.46,0,0,1,32,194c-.27-.69-.68-1.8-1.21-3.34s-1-2.68-1.28-3.46a63.34,63.34,0,0,0-3.05,9.24l-1-.28a42.77,42.77,0,0,1,1.4-6.74q1.26-4.81,1.52-6.13a4.72,4.72,0,0,1,.7.06,4.6,4.6,0,0,0,.6.07,30.11,30.11,0,0,1,1.8,4.38c.76,2.15,1.27,3.5,1.52,4A49.74,49.74,0,0,1,36.49,183.74Z"/><path class="cls-1" d="M42,183.56l8.56.08L51.14,196a.91.91,0,0,1-.89.77,1.41,1.41,0,0,1-.89-.37,1.61,1.61,0,0,1-.53-.9c0-.31.05-1.27.09-2.89s.09-3.16.14-4.64.08-2.44.1-2.88c-.47,0-1.18,0-2.11,0a27.5,27.5,0,0,1-3.17-.16c0,.56.09,2.36.13,5.4s.06,4.8.1,5.29c-.15.53-.45.79-.89.79a1.32,1.32,0,0,1-.88-.37,1.53,1.53,0,0,1-.52-.9c0-.85.08-1.69.08-2.54,0-.44,0-1.17,0-2.18s0-1.82,0-2.41Q41.85,185.29,42,183.56Z"/><path class="cls-1" d="M63.43,193.8l.25,1.11a29.24,29.24,0,0,1-3.31.9,16.55,16.55,0,0,1-3.26.5,2.81,2.81,0,0,1-1.91-.72A4.46,4.46,0,0,1,54,193.73a12.75,12.75,0,0,1-.6-2.23,12.49,12.49,0,0,1-.19-2.17q0-6.35,5.74-6.35a3.62,3.62,0,0,1,2.41.88,2.83,2.83,0,0,1,1,2.27,2.23,2.23,0,0,1-.42,1.34,3.3,3.3,0,0,1-1,.93,7,7,0,0,1-1.53.62,15,15,0,0,1-1.64.41l-1.7.28c-.66.1-1.11.18-1.37.23q0,.74.09,1.29a7.68,7.68,0,0,0,.25,1.21,3.38,3.38,0,0,0,.51,1.06,2.4,2.4,0,0,0,.88.7,2.86,2.86,0,0,0,1.32.28,18.29,18.29,0,0,0,2.23-.16c.88-.11,1.67-.23,2.35-.35Zm-8.61-5.44a34.69,34.69,0,0,0,5.67-2.08,2.93,2.93,0,0,0-.49-1.22,1.09,1.09,0,0,0-.91-.38,4.26,4.26,0,0,0-2.81,1.07A4.07,4.07,0,0,0,54.82,188.36Z"/><path class="cls-1" d="M65,182.9l1.43.26c0,.35,0,.62,0,.78a5.21,5.21,0,0,1,2.82-.88,4.1,4.1,0,0,1,3.61,2,8,8,0,0,1,1.29,4.49A14.68,14.68,0,0,1,74,192a11.7,11.7,0,0,1-.67,2.36,4.34,4.34,0,0,1-1.49,1.93,4,4,0,0,1-2.42.72,5.18,5.18,0,0,1-2.59-.71c.07,3,.12,5.16.18,6.6-.16.52-.45.79-.89.79a1.34,1.34,0,0,1-.88-.37,1.6,1.6,0,0,1-.52-.9Zm1.66,2.72.07,8.18a2.31,2.31,0,0,0,.94,1,2.69,2.69,0,0,0,1.4.37,2.44,2.44,0,0,0,1.69-.63,3.51,3.51,0,0,0,1-1.69,13.39,13.39,0,0,0,.4-2,14.77,14.77,0,0,0,.12-1.92c0-2.87-1-4.31-2.92-4.31a5.38,5.38,0,0,0-1.74.27C67.07,185.07,66.76,185.31,66.66,185.62Z"/><path class="cls-1" d="M77.14,185.29,76.63,184a4.6,4.6,0,0,1,1.68-1.06,5.6,5.6,0,0,1,2-.39q4.29,0,4.29,7.41,0,1-.12,3c-.07,1.32-.11,2.31-.11,3s-.4.79-.79.79a1.13,1.13,0,0,1-.84-.46,1.57,1.57,0,0,1-.38-1,.73.73,0,0,1,0-.25,4.8,4.8,0,0,1-3.35,1.52,3.26,3.26,0,0,1-2.35-1,3.22,3.22,0,0,1-1-2.38,6,6,0,0,1,1.85-4.26A5.65,5.65,0,0,1,81.71,187h.21l.24,0,.21,0c-.13-2-.92-2.95-2.36-2.95A5.06,5.06,0,0,0,77.14,185.29Zm5.31,8c0-1.19,0-2.08,0-2.69s0-1.22,0-2.14h-.2A5,5,0,0,0,79,189.76a4.14,4.14,0,0,0-1.49,3.2,1.72,1.72,0,0,0,.5,1.29,1.67,1.67,0,0,0,1.2.49A6.77,6.77,0,0,0,82.45,193.24Z"/><path class="cls-1" d="M85.85,184.6l-.23-1.11c2.28-.14,5.85-.32,10.74-.56a1.51,1.51,0,0,1,1,.46,1.26,1.26,0,0,1,.43.91c0,.51-.33.8-1,.86l-4.75-.23c.09,1.27.13,3.12.14,5.55s0,4.2.09,5.32a.9.9,0,0,1-.9.74,1.28,1.28,0,0,1-.85-.36,1.5,1.5,0,0,1-.51-.86c.24-4.16.48-7.66.74-10.49Z"/><path class="cls-1" d="M100.68,203.77l-1.58-.88c.7-1.21,1.93-3.49,3.69-6.86a11.62,11.62,0,0,1-3.15-5.53,33.36,33.36,0,0,1-1.32-7.42l1.47.08c.08.4.27,1.33.55,2.78s.5,2.52.67,3.21a19,19,0,0,0,.9,2.6,11.06,11.06,0,0,0,1.49,2.63q3.52-6.78,3.52-11.12V183a9.8,9.8,0,0,1,2,.48,39.07,39.07,0,0,1-1.27,5.44,47.58,47.58,0,0,1-2.16,5.57c-.87,1.87-1.63,3.44-2.3,4.71S101.68,202,100.68,203.77Z"/><path class="cls-1" d="M110.25,182.9l1.42.26a7.2,7.2,0,0,0,0,.78,5.21,5.21,0,0,1,2.82-.88,4.07,4.07,0,0,1,3.6,2,8,8,0,0,1,1.3,4.49,15.85,15.85,0,0,1-.19,2.43,11.13,11.13,0,0,1-.68,2.36,4.31,4.31,0,0,1-1.48,1.93,4.06,4.06,0,0,1-2.43.72,5.21,5.21,0,0,1-2.59-.71q.11,4.44.18,6.6c-.15.52-.45.79-.89.79a1.34,1.34,0,0,1-.87-.37,1.54,1.54,0,0,1-.52-.9Zm1.65,2.72.08,8.18a2.25,2.25,0,0,0,.94,1,2.68,2.68,0,0,0,1.39.37,2.43,2.43,0,0,0,1.69-.63,3.36,3.36,0,0,0,1-1.69,13.49,13.49,0,0,0,.41-2,16.82,16.82,0,0,0,.11-1.92q0-4.31-2.92-4.31a5.47,5.47,0,0,0-1.74.27C112.32,185.07,112,185.31,111.9,185.62Z"/><path class="cls-1" d="M122.39,185.29l-.51-1.29a4.6,4.6,0,0,1,1.68-1.06,5.51,5.51,0,0,1,2-.39q4.29,0,4.29,7.41c0,.68,0,1.68-.11,3s-.12,2.31-.12,3-.39.79-.78.79a1.1,1.1,0,0,1-.84-.46,1.57,1.57,0,0,1-.38-1,1.29,1.29,0,0,1,0-.25,4.78,4.78,0,0,1-3.35,1.52,3.26,3.26,0,0,1-2.35-1,3.21,3.21,0,0,1-1-2.38,6,6,0,0,1,1.84-4.26A5.68,5.68,0,0,1,127,187h.2l.24,0,.22,0c-.14-2-.92-2.95-2.36-2.95A5,5,0,0,0,122.39,185.29Zm5.3,8c0-1.19.06-2.08.06-2.69s0-1.22-.06-2.14h-.2a5,5,0,0,0-3.29,1.35,4.13,4.13,0,0,0-1.48,3.2,1.71,1.71,0,0,0,.49,1.29,1.68,1.68,0,0,0,1.21.49A6.74,6.74,0,0,0,127.69,193.24Z"/><path class="cls-1" d="M141.89,183.74l1.7-.15q1.28,3.42,2.59,12.77a3.53,3.53,0,0,1-.85.1,3.46,3.46,0,0,1-.88-.13c-.24-.93-.52-2.57-.85-4.92s-.62-4-.87-5a51.24,51.24,0,0,0-3.38,7.46l-.62.1a4.58,4.58,0,0,1-.68.08,3.66,3.66,0,0,1-.66-.08c-.27-.69-.67-1.8-1.2-3.34s-1-2.68-1.28-3.46a62.11,62.11,0,0,0-3,9.24l-1-.28a42.39,42.39,0,0,1,1.39-6.74q1.28-4.81,1.53-6.13a4.83,4.83,0,0,1,.7.06,4.69,4.69,0,0,0,.59.07,31,31,0,0,1,1.81,4.38c.76,2.15,1.27,3.5,1.52,4A48.87,48.87,0,0,1,141.89,183.74Z"/><path class="cls-1" d="M149.45,194.15c0,.29,0,.67.05,1.14-.15.53-.44.79-.88.79a1.3,1.3,0,0,1-.88-.37,1.53,1.53,0,0,1-.52-.9q.08-2.06.19-6c.08-2.64.13-4.42.17-5.35l1.16-.21a28,28,0,0,1,.38,4.32c0,1.79.12,3.13.21,4q.48-.7,2.74-3.71a41.64,41.64,0,0,0,3.07-4.46,5.67,5.67,0,0,1,.71-.11.7.7,0,0,1,.68.44,5.48,5.48,0,0,1,.24,1.62l.48,10.46a.9.9,0,0,1-.89.76,1.35,1.35,0,0,1-.88-.36,1.65,1.65,0,0,1-.52-.91c0-.55.07-1.92.14-4.1s.14-3.72.19-4.63A52.93,52.93,0,0,0,149.45,194.15Z"/><path class="cls-1" d="M3.92,251.61l8.55.07L13.06,264a.91.91,0,0,1-.89.76,1.34,1.34,0,0,1-.89-.37,1.48,1.48,0,0,1-.53-.9c0-.31,0-1.27.08-2.88s.09-3.17.14-4.65.09-2.44.11-2.88C10.6,253,9.9,253,9,253a28,28,0,0,1-3.18-.15c0,.55.1,2.35.13,5.39s.07,4.8.1,5.3a.91.91,0,0,1-.89.78,1.29,1.29,0,0,1-.87-.37,1.48,1.48,0,0,1-.52-.9c0-.84.07-1.69.07-2.54,0-.44,0-1.16,0-2.18s0-1.82,0-2.41C3.76,254.21,3.81,252.76,3.92,251.61Z"/><path class="cls-1" d="M16,253.33,15.52,252A4.93,4.93,0,0,1,17.19,251a5.6,5.6,0,0,1,2-.39q4.29,0,4.29,7.41c0,.68,0,1.68-.11,3s-.12,2.31-.12,3-.4.79-.78.79a1.07,1.07,0,0,1-.84-.46,1.5,1.5,0,0,1-.38-1,1.42,1.42,0,0,1,0-.26,4.75,4.75,0,0,1-3.35,1.53,3.27,3.27,0,0,1-2.35-1,3.2,3.2,0,0,1-1-2.38,6,6,0,0,1,1.84-4.26A5.68,5.68,0,0,1,20.6,255l.2,0,.24,0,.22,0c-.14-2-.93-2.94-2.36-2.94A5,5,0,0,0,16,253.33Zm5.3,7.95c0-1.18.05-2.08.05-2.69s0-1.22-.05-2.13h-.2a4.92,4.92,0,0,0-3.29,1.34,4.13,4.13,0,0,0-1.48,3.2,1.75,1.75,0,0,0,.49,1.3,1.67,1.67,0,0,0,1.21.48A6.78,6.78,0,0,0,21.33,261.28Z"/><path class="cls-1" d="M34.1,251.71,34,252.8a13.41,13.41,0,0,0-1.83-.15,4.09,4.09,0,0,0-2.89,1,5.32,5.32,0,0,0-1.57,2.49,11.35,11.35,0,0,0-.42,3.19,8.79,8.79,0,0,0,.11,1.44,5.09,5.09,0,0,0,.36,1.25,2.09,2.09,0,0,0,.84.95,2.68,2.68,0,0,0,1.41.34,12.15,12.15,0,0,0,2.85-.43,2.37,2.37,0,0,1,.83-.2c.41,0,.65.47.74,1.42a13.85,13.85,0,0,1-4.14.71c-1.84,0-3.09-.45-3.74-1.36a7.59,7.59,0,0,1-1-4.4,17.71,17.71,0,0,1,.24-3.11,8.43,8.43,0,0,1,.85-2.49,4.17,4.17,0,0,1,1.76-1.77,6.11,6.11,0,0,1,2.84-.61A5.68,5.68,0,0,1,34.1,251.71Z"/><path class="cls-1" d="M34.89,252.65l-.23-1.12c2.28-.14,5.85-.32,10.74-.56a1.5,1.5,0,0,1,1,.46,1.29,1.29,0,0,1,.44.91q0,.76-1,.87L41.11,253c.09,1.27.13,3.12.14,5.55s0,4.2.09,5.31a.89.89,0,0,1-.9.74,1.34,1.34,0,0,1-.85-.35,1.56,1.56,0,0,1-.51-.87c.24-4.16.48-7.66.74-10.48Z"/><path class="cls-1" d="M57.21,261.84l.25,1.12a29.24,29.24,0,0,1-3.31.9,16.36,16.36,0,0,1-3.26.49,2.81,2.81,0,0,1-1.91-.72,4.54,4.54,0,0,1-1.22-1.85,13.75,13.75,0,0,1-.59-2.24,12.49,12.49,0,0,1-.19-2.17Q47,251,52.72,251a3.62,3.62,0,0,1,2.41.88,2.83,2.83,0,0,1,1,2.27,2.26,2.26,0,0,1-.42,1.35,3.19,3.19,0,0,1-1,.92,7.18,7.18,0,0,1-1.52.63,14.78,14.78,0,0,1-1.64.4c-.47.09-1,.18-1.7.28s-1.11.18-1.37.23q0,.74.09,1.29a7.46,7.46,0,0,0,.25,1.21,3.44,3.44,0,0,0,.51,1.07,2.51,2.51,0,0,0,.88.7,3,3,0,0,0,1.32.27,18.29,18.29,0,0,0,2.23-.16c.88-.11,1.67-.23,2.35-.34Zm-8.61-5.43a34.12,34.12,0,0,0,5.66-2.09,2.81,2.81,0,0,0-.48-1.22,1.11,1.11,0,0,0-.91-.38,4.26,4.26,0,0,0-2.81,1.07A4,4,0,0,0,48.6,256.41Z"/><path class="cls-1" d="M58.78,251l1.43.25c0,.36,0,.62,0,.79a5.14,5.14,0,0,1,2.82-.89,4.1,4.1,0,0,1,3.61,2A8.05,8.05,0,0,1,68,257.57a14.6,14.6,0,0,1-.19,2.43,11.52,11.52,0,0,1-.67,2.36,4.28,4.28,0,0,1-1.49,1.93,4.05,4.05,0,0,1-2.42.72,5.08,5.08,0,0,1-2.59-.71q.09,4.44.17,6.6c-.15.53-.44.79-.88.79a1.3,1.3,0,0,1-.88-.37,1.53,1.53,0,0,1-.52-.9Zm1.65,2.71.08,8.18a2.33,2.33,0,0,0,.94,1,2.78,2.78,0,0,0,1.4.36,2.44,2.44,0,0,0,1.69-.63,3.52,3.52,0,0,0,1-1.68,13.51,13.51,0,0,0,.4-2,14.66,14.66,0,0,0,.12-1.92c0-2.87-1-4.31-2.92-4.31a5.38,5.38,0,0,0-1.74.27A1.39,1.39,0,0,0,60.43,253.66Z"/><path class="cls-1" d="M72.24,262.19c0,.29,0,.67.05,1.15a.91.91,0,0,1-.89.78,1.33,1.33,0,0,1-.87-.36,1.54,1.54,0,0,1-.52-.91q.08-2.06.19-6c.07-2.64.13-4.43.16-5.36l1.17-.2a29.08,29.08,0,0,1,.38,4.31c0,1.8.12,3.13.2,4,.33-.47,1.24-1.71,2.75-3.7a44.19,44.19,0,0,0,3.07-4.47,5,5,0,0,1,.71-.1.67.67,0,0,1,.67.43,5,5,0,0,1,.24,1.62L80,263.84c-.16.51-.45.77-.89.77a1.34,1.34,0,0,1-.88-.37,1.6,1.6,0,0,1-.52-.9c0-.56.06-1.93.14-4.1s.14-3.72.19-4.64A52.93,52.93,0,0,0,72.24,262.19Z"/><path class="cls-1" d="M83.62,258l-.11-1.42H84c1.71,0,2.56-.74,2.56-2.23a2,2,0,0,0-2.16-2,8.2,8.2,0,0,0-2.08.41l-.46-.74a4.34,4.34,0,0,1,3-1,3.81,3.81,0,0,1,2.34.71,2.48,2.48,0,0,1,.94,2.09,4.2,4.2,0,0,1-.33,1.63,2.77,2.77,0,0,1-.87,1.21,2.18,2.18,0,0,1,1.51,1.31,5.4,5.4,0,0,1,.55,2.47,4.59,4.59,0,0,1-1.14,3.1A3.73,3.73,0,0,1,85,265a5.81,5.81,0,0,1-2.13-.51c-.83-.33-1.24-.76-1.24-1.27,0-.35.22-.53.68-.53a2.58,2.58,0,0,1,1.19.42,2.63,2.63,0,0,0,1.22.42,2.42,2.42,0,0,0,1.88-.94,3.12,3.12,0,0,0,.81-2.08,2.12,2.12,0,0,0-.85-1.84,3.53,3.53,0,0,0-2.17-.63A6.17,6.17,0,0,0,83.62,258Z"/><path class="cls-1" d="M91.13,258.89a12.83,12.83,0,0,1,.22-2.26A19.11,19.11,0,0,1,92,254a5.64,5.64,0,0,1,1.29-2.29,2.68,2.68,0,0,1,2-.91,4.51,4.51,0,0,1,3.91,2.2,8.57,8.57,0,0,1,1.47,4.88,11,11,0,0,1-.24,2.28,10.38,10.38,0,0,1-.75,2.22,4.86,4.86,0,0,1-1.46,1.81A4.13,4.13,0,0,1,96,265a5.15,5.15,0,0,1-3.61-2A6.66,6.66,0,0,1,91.13,258.89Zm4.32-6.75q-.89.11-1.5,1.62a12,12,0,0,0-.79,3,20.47,20.47,0,0,0-.17,2.53,4.41,4.41,0,0,0,.87,2.63,2.47,2.47,0,0,0,2,1.2,2,2,0,0,0,1.42-.61,4.24,4.24,0,0,0,1-1.51,9.43,9.43,0,0,0,.56-1.81,7.86,7.86,0,0,0,.19-1.63,6.82,6.82,0,0,0-.94-3.63A3.42,3.42,0,0,0,95.45,252.14Z"/><path class="cls-1" d="M103.29,251.28a36,36,0,0,1,4.8-.84q3.41,0,3.41,2.92a5.76,5.76,0,0,1-.35,2,2.31,2.31,0,0,1-.85,1.25,4.26,4.26,0,0,1,2,3.71,4.31,4.31,0,0,1-1.46,3.48A5.7,5.7,0,0,1,107,265a5.49,5.49,0,0,1-4.24-1.52Zm1.2,1.12.18,3.93a11.38,11.38,0,0,1,1.17-.08,8.13,8.13,0,0,0,1.28-.11,4,4,0,0,0,1.07-.39,2.06,2.06,0,0,0,.93-1,6.05,6.05,0,0,0,.47-1.94c-.17-.51-.69-.77-1.56-.77a14.28,14.28,0,0,0-1.83.18Q104.94,252.37,104.49,252.4Zm.25,5.25.23,5.15a3.22,3.22,0,0,0,1.45.31,4.7,4.7,0,0,0,2.89-1,2.85,2.85,0,0,0,1.32-2.31,2.48,2.48,0,0,0-.71-1.69,2.32,2.32,0,0,0-1.8-.78C107.7,257.34,106.57,257.45,104.74,257.65Z"/><path class="cls-1" d="M115.25,253.33l-.5-1.29a4.83,4.83,0,0,1,1.67-1.06,5.6,5.6,0,0,1,2-.39q4.29,0,4.29,7.41,0,1-.12,3c-.07,1.32-.11,2.31-.11,3s-.4.79-.79.79a1.1,1.1,0,0,1-.84-.46,1.55,1.55,0,0,1-.38-1,.79.79,0,0,1,0-.26,4.77,4.77,0,0,1-3.35,1.53,3.27,3.27,0,0,1-2.35-1,3.2,3.2,0,0,1-1-2.38,6,6,0,0,1,1.84-4.26,5.66,5.66,0,0,1,4.17-1.91l.21,0,.24,0,.21,0c-.13-2-.92-2.94-2.36-2.94A5.06,5.06,0,0,0,115.25,253.33Zm5.31,7.95c0-1.18,0-2.08,0-2.69s0-1.22,0-2.13h-.2a4.9,4.9,0,0,0-3.29,1.34,4.14,4.14,0,0,0-1.49,3.2,1.76,1.76,0,0,0,.5,1.3,1.66,1.66,0,0,0,1.2.48A6.77,6.77,0,0,0,120.56,261.28Z"/><path class="cls-1" d="M132.37,251.43l1.14.25.58,12.32a.91.91,0,0,1-.89.76,1.32,1.32,0,0,1-.88-.37,1.54,1.54,0,0,1-.54-.9c0-.05.08-1.48.23-4.29V259q-.7-.06-2.1-.06a30.38,30.38,0,0,1-3.15-.12c.08,1,.19,2.56.33,4.75q-.24.78-.9.78a1.32,1.32,0,0,1-.89-.37,1.55,1.55,0,0,1-.53-.9c.06-.84.08-1.69.08-2.54,0-.54,0-1.35,0-2.43s0-1.89,0-2.42q0-2.43.15-4.08l1.16.28.54,5.66,4.45.23c.69,0,1,0,1-.13,0-.34,0-1.41.1-3.23S132.35,251.62,132.37,251.43Z"/><path class="cls-1" d="M143.74,251.43l1.14.25.59,12.32a.91.91,0,0,1-.89.76,1.34,1.34,0,0,1-.89-.37,1.48,1.48,0,0,1-.53-.9c0-.05.07-1.48.23-4.29V259c-.48,0-1.17-.06-2.1-.06a30.6,30.6,0,0,1-3.16-.12c.08,1,.19,2.56.33,4.75a.91.91,0,0,1-.9.78,1.32,1.32,0,0,1-.88-.37,1.5,1.5,0,0,1-.53-.9c0-.84.08-1.69.08-2.54q0-.81,0-2.43c0-1.09,0-1.89,0-2.42q0-2.43.15-4.08l1.16.28q.51,5.5.54,5.66l4.45.23c.69,0,1,0,1-.13,0-.34,0-1.41.1-3.23S143.72,251.62,143.74,251.43Z"/><path class="cls-1" d="M147.6,251.43l1.14.25c0,.54.09,1.18.17,1.91s.16,1.55.27,2.49a6.45,6.45,0,0,1,1.92-.31,5,5,0,0,1,2,.42,5.23,5.23,0,0,1,1.6,1.1,5.37,5.37,0,0,1,1,1.57,4.5,4.5,0,0,1,.38,1.79,3.77,3.77,0,0,1-.35,1.62,3.59,3.59,0,0,1-1,1.26,4.75,4.75,0,0,1-1.47.81,5.87,5.87,0,0,1-1.87.29q-.62,0-1.29-.06c-.46,0-.88-.1-1.25-.17a4.84,4.84,0,0,1-.92-.24c-.25-.09-.37-.2-.37-.32s0-.66,0-1.16,0-1.07,0-1.68,0-1.25,0-1.93,0-1.33,0-1.95,0-1.2,0-1.72,0-.93,0-1.25C147.52,253.2,147.55,252.29,147.6,251.43Zm1.8,6.24-.22,5.08a5.69,5.69,0,0,0,1.92.36,3.46,3.46,0,0,0,1.3-.24,3.11,3.11,0,0,0,1-.63,3,3,0,0,0,.64-.9,2.58,2.58,0,0,0,.22-1.06,2.37,2.37,0,0,0-.91-1.92,3.27,3.27,0,0,0-1.11-.6,4.87,4.87,0,0,0-1.49-.21,4.31,4.31,0,0,0-.6,0Zm7.93-6.32,1.14.26c.12,1.33.24,3,.38,5s.28,4.4.43,7.14a.91.91,0,0,1-.89.77,1.34,1.34,0,0,1-.87-.37,1.54,1.54,0,0,1-.52-.9c0-.26,0-.67,0-1.25s0-1.23,0-2,0-1.54.05-2.39,0-1.66,0-2.46,0-1.53.07-2.22S157.29,251.76,157.33,251.35Z"/><path class="cls-1" d="M163.57,262.19c0,.29,0,.67.05,1.15a.91.91,0,0,1-.89.78,1.33,1.33,0,0,1-.87-.36,1.54,1.54,0,0,1-.52-.91q.07-2.06.19-6c.07-2.64.13-4.43.16-5.36l1.17-.2a29.08,29.08,0,0,1,.38,4.31c0,1.8.12,3.13.2,4,.33-.47,1.24-1.71,2.75-3.7a44.19,44.19,0,0,0,3.07-4.47,5,5,0,0,1,.71-.1.67.67,0,0,1,.67.43,5,5,0,0,1,.24,1.62l.49,10.46c-.16.51-.45.77-.89.77a1.34,1.34,0,0,1-.88-.37,1.6,1.6,0,0,1-.52-.9c0-.56.06-1.93.14-4.1s.14-3.72.19-4.64A52.93,52.93,0,0,0,163.57,262.19Zm.08-13.68-.18-.79a9.77,9.77,0,0,0,1.19.08,5.73,5.73,0,0,0,3.23-1,2,2,0,0,1,1,.36.87.87,0,0,1,.4.71.67.67,0,0,1-.22.53,1.34,1.34,0,0,1-.69.29,5.54,5.54,0,0,1-.76.11h-.81A14.63,14.63,0,0,1,163.65,248.51Z"/><path class="cls-1" d="M3.92,277.37l8.55.08.59,12.31c-.16.51-.45.76-.89.76a1.34,1.34,0,0,1-.89-.37,1.45,1.45,0,0,1-.53-.9c0-.3,0-1.26.08-2.88s.09-3.16.14-4.65.09-2.44.11-2.88c-.48,0-1.18,0-2.11,0a28,28,0,0,1-3.18-.15c0,.56.1,2.36.13,5.4s.07,4.8.1,5.29c-.15.52-.45.79-.89.79a1.34,1.34,0,0,1-.87-.37,1.54,1.54,0,0,1-.52-.9c0-.85.07-1.7.07-2.54,0-.44,0-1.17,0-2.19s0-1.82,0-2.41C3.76,280,3.81,278.52,3.92,277.37Z"/><path class="cls-1" d="M15.42,276.71l1.42.25c0,.36,0,.62,0,.79a5.25,5.25,0,0,1,2.82-.89,4.09,4.09,0,0,1,3.61,2,8.06,8.06,0,0,1,1.29,4.5,14.56,14.56,0,0,1-.19,2.42,10.92,10.92,0,0,1-.67,2.36,4.23,4.23,0,0,1-1.49,1.93,4,4,0,0,1-2.42.73,5.18,5.18,0,0,1-2.59-.71q.11,4.44.18,6.6a.91.91,0,0,1-.89.78,1.33,1.33,0,0,1-.88-.36,1.59,1.59,0,0,1-.52-.91Zm1.65,2.71.07,8.19a2.37,2.37,0,0,0,.94,1,2.72,2.72,0,0,0,1.4.37,2.44,2.44,0,0,0,1.69-.63,3.61,3.61,0,0,0,1-1.69,13.39,13.39,0,0,0,.4-2,14.81,14.81,0,0,0,.12-1.93q0-4.31-2.92-4.3a5.67,5.67,0,0,0-1.74.26C17.49,278.88,17.17,279.12,17.07,279.42Z"/><path class="cls-1" d="M26.64,284.66a12.74,12.74,0,0,1,.22-2.26,21.15,21.15,0,0,1,.64-2.62,5.8,5.8,0,0,1,1.3-2.28,2.67,2.67,0,0,1,2-.92,4.51,4.51,0,0,1,3.91,2.2,8.51,8.51,0,0,1,1.48,4.89,10.87,10.87,0,0,1-.24,2.27,11.61,11.61,0,0,1-.75,2.22A4.89,4.89,0,0,1,33.74,290a4.2,4.2,0,0,1-2.23.82,5.14,5.14,0,0,1-3.6-2A6.7,6.7,0,0,1,26.64,284.66ZM31,277.9c-.6.07-1.1.61-1.5,1.63a11.74,11.74,0,0,0-.79,3,20.51,20.51,0,0,0-.18,2.52,4.4,4.4,0,0,0,.88,2.63,2.47,2.47,0,0,0,2,1.21,2,2,0,0,0,1.42-.61,4.33,4.33,0,0,0,1-1.51,10.3,10.3,0,0,0,.56-1.82,7.84,7.84,0,0,0,.19-1.62,6.82,6.82,0,0,0-.94-3.63A3.43,3.43,0,0,0,31,277.9Z"/><path class="cls-1" d="M38.53,293.39l-1.13-.25c0-.19,0-.74-.1-1.65s-.1-1.58-.1-2a8.48,8.48,0,0,1,.08-1.09h1.65c.08-.29.22-.72.42-1.3s.32-1,.39-1.22.17-.59.29-1a10.27,10.27,0,0,0,.26-1.2q.06-.5.12-1.23a15.24,15.24,0,0,0,.07-1.55q0-1.9-.15-4.29c.94.05,2,.09,3,.1s1.93.05,2.61.08A17.17,17.17,0,0,1,48,277c0,1.15.1,3,.16,5.67s.12,4.53.17,5.68h2v.76c0,.44,0,1.07,0,1.88s0,1.35,0,1.62a8.57,8.57,0,0,1-.06,1.17l-1.14-.25a8.09,8.09,0,0,1-.19-.9c-.06-.37-.12-.76-.19-1.18l-.15-.92q-1.45-.07-4.62-.3c-2.11-.15-3.77-.26-5-.31Zm3.93-15.23c0,.25,0,.78-.05,1.59s0,1.42-.07,1.84-.07,1-.15,1.77a13.6,13.6,0,0,1-.29,1.89,12.58,12.58,0,0,1-.52,1.63,7.13,7.13,0,0,1-.8,1.51h5.53l.51-10c-.23,0-.85,0-1.85-.08S43,278.21,42.46,278.16Z"/><path class="cls-1" d="M53.78,297.58l-1.57-.89q1-1.8,3.68-6.85a11.66,11.66,0,0,1-3.15-5.54,33.17,33.17,0,0,1-1.32-7.41l1.47.07c.09.41.27,1.34.55,2.78s.5,2.52.67,3.22a19,19,0,0,0,.9,2.6,11.42,11.42,0,0,0,1.49,2.63Q60,281.41,60,277.07v-.28a8.38,8.38,0,0,1,2,.48,37.27,37.27,0,0,1-1.27,5.43,47,47,0,0,1-2.16,5.58q-1.29,2.81-2.3,4.71C55.61,294.25,54.78,295.79,53.78,297.58Z"/><path class="cls-1" d="M72.14,289.43l.08,1.12a4.3,4.3,0,0,1-.87.15,2.75,2.75,0,0,1-1.76-.63,5.27,5.27,0,0,1-1.3-1.55c-.34-.61-.66-1.22-1-1.83a8.26,8.26,0,0,0-1-1.55,1.42,1.42,0,0,0-1-.64,1,1,0,0,0-.39.08c.07,1,.19,2.66.36,4.93-.15.52-.45.78-.88.78a1.33,1.33,0,0,1-.87-.36,1.63,1.63,0,0,1-.51-.91q.11-4.26.1-8a31.79,31.79,0,0,1,.23-4.39l1.12.4a17,17,0,0,1,.23,2.84c0,1.22,0,2,0,2.27a2.24,2.24,0,0,0,1.33-.79,5.79,5.79,0,0,0,1-1.5c.24-.56.5-1.11.77-1.65a4.53,4.53,0,0,1,1.06-1.37,2.3,2.3,0,0,1,1.54-.56,5.18,5.18,0,0,1,1.43.31l-.1.86a2.37,2.37,0,0,0-.41,0,2.28,2.28,0,0,0-1.77.85,5.62,5.62,0,0,0-1.12,1.87,10.8,10.8,0,0,1-.94,2,2.07,2.07,0,0,1-1.22,1.09,2.76,2.76,0,0,1,1.62,1.27,8.78,8.78,0,0,1,1,2.15,6.66,6.66,0,0,0,1,2,2,2,0,0,0,1.63.9A2.36,2.36,0,0,0,72.14,289.43Z"/><path class="cls-1" d="M72.44,278.41l-.22-1.12c2.27-.13,5.85-.32,10.73-.55a1.49,1.49,0,0,1,1,.45,1.34,1.34,0,0,1,.43.92c0,.5-.34.79-1,.86l-4.74-.23c.08,1.27.13,3.12.13,5.55s0,4.2.09,5.32a.89.89,0,0,1-.9.73,1.24,1.24,0,0,1-.84-.35,1.53,1.53,0,0,1-.52-.86c.24-4.17.49-7.66.74-10.49Z"/><path class="cls-1" d="M13.69,358.4l-.13,1.09a13.41,13.41,0,0,0-1.83-.15,4.09,4.09,0,0,0-2.89,1.05,5.32,5.32,0,0,0-1.57,2.49,11.74,11.74,0,0,0-.41,3.19,8.87,8.87,0,0,0,.1,1.44,4.71,4.71,0,0,0,.37,1.25,2,2,0,0,0,.83.95,2.68,2.68,0,0,0,1.41.34,12.15,12.15,0,0,0,2.85-.43,2.62,2.62,0,0,1,.83-.2c.41,0,.66.47.74,1.42a13.85,13.85,0,0,1-4.14.71c-1.84,0-3.09-.45-3.74-1.36a7.59,7.59,0,0,1-1-4.4,17.71,17.71,0,0,1,.24-3.11,8.43,8.43,0,0,1,.85-2.49A4.14,4.14,0,0,1,8,358.42a6.07,6.07,0,0,1,2.83-.61A5.72,5.72,0,0,1,13.69,358.4Z"/><path class="cls-1" d="M15.29,365.58a13.76,13.76,0,0,1,.21-2.26,19.48,19.48,0,0,1,.65-2.61,5.88,5.88,0,0,1,1.29-2.29,2.69,2.69,0,0,1,2-.91,4.5,4.5,0,0,1,3.91,2.2,8.57,8.57,0,0,1,1.47,4.88,11,11,0,0,1-.24,2.28,10.38,10.38,0,0,1-.75,2.22,4.69,4.69,0,0,1-1.46,1.81,4.07,4.07,0,0,1-2.22.83,5.14,5.14,0,0,1-3.61-2A6.76,6.76,0,0,1,15.29,365.58Zm4.31-6.75c-.59.07-1.09.61-1.5,1.63a11.75,11.75,0,0,0-.78,3,20.66,20.66,0,0,0-.18,2.53,4.41,4.41,0,0,0,.87,2.63,2.47,2.47,0,0,0,2,1.2,2,2,0,0,0,1.42-.61,4.26,4.26,0,0,0,1-1.51,11.09,11.09,0,0,0,.56-1.81,8.6,8.6,0,0,0,.19-1.63,6.93,6.93,0,0,0-.94-3.63A3.46,3.46,0,0,0,19.6,358.83Z"/><path class="cls-1" d="M26.94,371.63,25.85,371a61.51,61.51,0,0,1,3.45-6.4A32.43,32.43,0,0,1,26,358h1.12a37.22,37.22,0,0,0,3.17,5.15,17.14,17.14,0,0,0,1-1.65,19.27,19.27,0,0,1,1.22-1.93,7.64,7.64,0,0,1,1.36-1.42c.61.34.91.74.91,1.19a1.74,1.74,0,0,1-.17.74,23.61,23.61,0,0,0-1.76,2.64c-.71,1.2-1.15,1.93-1.32,2.18a46.48,46.48,0,0,1,3.64,5.67q0,1-.87,1a1.45,1.45,0,0,1-1.32-.84,17.22,17.22,0,0,0-2.41-4.31c-.29.47-.88,1.33-1.77,2.57S27.26,371.07,26.94,371.63Z"/><path class="cls-1" d="M36.44,357.64l1.42.25c0,.36,0,.62,0,.79a5.14,5.14,0,0,1,2.82-.89,4.1,4.1,0,0,1,3.61,2,8.05,8.05,0,0,1,1.29,4.49,14.6,14.6,0,0,1-.19,2.43,11.52,11.52,0,0,1-.67,2.36A4.28,4.28,0,0,1,43.25,371a4,4,0,0,1-2.42.72,5.08,5.08,0,0,1-2.59-.71c.07,3,.13,5.17.18,6.6-.16.53-.45.79-.89.79a1.3,1.3,0,0,1-.88-.37,1.53,1.53,0,0,1-.52-.9Zm1.65,2.71.07,8.18a2.39,2.39,0,0,0,.94,1,2.79,2.79,0,0,0,1.4.37,2.45,2.45,0,0,0,1.69-.64,3.52,3.52,0,0,0,1-1.68,13.51,13.51,0,0,0,.4-2,14.66,14.66,0,0,0,.12-1.92c0-2.87-1-4.31-2.92-4.31a5.38,5.38,0,0,0-1.74.27C38.5,359.81,38.19,360.05,38.09,360.35Z"/><path class="cls-1" d="M48.57,360l-.51-1.29a4.88,4.88,0,0,1,1.68-1.06,5.6,5.6,0,0,1,2-.39q4.29,0,4.29,7.42c0,.67,0,1.67-.12,3s-.11,2.31-.11,3-.4.79-.79.79a1.1,1.1,0,0,1-.84-.46,1.55,1.55,0,0,1-.38-1,.79.79,0,0,1,0-.26,4.77,4.77,0,0,1-3.35,1.53,3.27,3.27,0,0,1-2.35-1,3.19,3.19,0,0,1-1-2.38A6,6,0,0,1,49,363.63a5.65,5.65,0,0,1,4.17-1.91l.21,0,.24,0,.21,0c-.13-2-.92-2.94-2.36-2.94A5.11,5.11,0,0,0,48.57,360Zm5.31,8c0-1.18,0-2.08,0-2.69s0-1.22,0-2.13h-.2a4.9,4.9,0,0,0-3.29,1.34,4.14,4.14,0,0,0-1.49,3.2,1.74,1.74,0,0,0,.5,1.3,1.66,1.66,0,0,0,1.2.48A6.77,6.77,0,0,0,53.88,368Z"/><path class="cls-1" d="M65.69,358.12l1.14.25.58,12.32a.9.9,0,0,1-.89.76,1.36,1.36,0,0,1-.89-.37,1.55,1.55,0,0,1-.53-.9c0-.05.08-1.48.23-4.29v-.2q-.7-.06-2.1-.06a30.6,30.6,0,0,1-3.16-.12c.09,1,.2,2.56.33,4.75a.91.91,0,0,1-.89.78,1.32,1.32,0,0,1-.89-.37,1.55,1.55,0,0,1-.53-.9c0-.84.08-1.69.08-2.54q0-.81,0-2.43c0-1.09,0-1.89,0-2.42q0-2.43.15-4.08l1.16.28c.34,3.67.53,5.56.54,5.66l4.45.23c.69,0,1-.05,1-.13,0-.34,0-1.41.1-3.22S65.67,358.31,65.69,358.12Z"/><path class="cls-1" d="M78.18,357.81l.38,13.64c-.17.51-.46.76-.86.76a1.36,1.36,0,0,1-.86-.35,1.58,1.58,0,0,1-.52-.87l.26-5.51a4.13,4.13,0,0,1-2.21.71,11.06,11.06,0,0,1-2.43,4.65,10.4,10.4,0,0,1-4.65,2.36l-.41-1.09q4.73-1.2,5.38-6.27a4.91,4.91,0,0,1-2-1.55,3.84,3.84,0,0,1-.79-2.39c0-1.79.46-3,1.37-3.58a8.2,8.2,0,0,1,4.34-.89A12,12,0,0,1,78.18,357.81Zm-1.4,5.54-.13-4a9.07,9.07,0,0,0-2.61-.28,3.83,3.83,0,0,0-2.08.54,1.94,1.94,0,0,0-.87,1.77,3.05,3.05,0,0,0,1.1,2.35,3.49,3.49,0,0,0,2.38,1A2.31,2.31,0,0,0,76.78,363.35Z"/><path class="cls-1" d="M90.87,368.53l.26,1.12a29.53,29.53,0,0,1-3.32.9,16.36,16.36,0,0,1-3.26.49,2.76,2.76,0,0,1-1.9-.72,4.35,4.35,0,0,1-1.22-1.85,13.8,13.8,0,0,1-.6-2.24,12.4,12.4,0,0,1-.19-2.17q0-6.35,5.74-6.35a3.6,3.6,0,0,1,2.41.88,2.83,2.83,0,0,1,1,2.27,2.26,2.26,0,0,1-.42,1.35,3.15,3.15,0,0,1-1,.92,7.53,7.53,0,0,1-1.53.63,14.67,14.67,0,0,1-1.63.4c-.48.09-1,.18-1.7.28l-1.38.23q0,.74.09,1.29a6.59,6.59,0,0,0,.26,1.21,3.22,3.22,0,0,0,.5,1.07,2.6,2.6,0,0,0,.88.7,3,3,0,0,0,1.32.27,18.57,18.57,0,0,0,2.24-.16c.88-.11,1.66-.22,2.34-.34Zm-8.6-5.43A34.12,34.12,0,0,0,87.93,361a3.15,3.15,0,0,0-.48-1.22,1.13,1.13,0,0,0-.92-.38,4.21,4.21,0,0,0-2.8,1.07A4,4,0,0,0,82.27,363.1Z"/><path class="cls-1" d="M91.33,359.34l-.23-1.12c2.27-.14,5.85-.32,10.74-.56a1.51,1.51,0,0,1,1,.46,1.27,1.27,0,0,1,.43.91c0,.51-.33.8-1,.87l-4.75-.23c.09,1.27.13,3.12.14,5.55s0,4.2.09,5.32a.91.91,0,0,1-.9.73,1.32,1.32,0,0,1-.85-.35,1.56,1.56,0,0,1-.51-.87c.24-4.16.48-7.66.74-10.48Z"/><path class="cls-1" d="M111.77,358.4l-.13,1.09a13.41,13.41,0,0,0-1.83-.15,4.11,4.11,0,0,0-2.89,1.05,5.38,5.38,0,0,0-1.56,2.49,11.35,11.35,0,0,0-.42,3.19,8.87,8.87,0,0,0,.1,1.44,5.12,5.12,0,0,0,.37,1.25,2.09,2.09,0,0,0,.84.95,2.68,2.68,0,0,0,1.41.34,12.08,12.08,0,0,0,2.84-.43,2.66,2.66,0,0,1,.84-.2c.4,0,.65.47.73,1.42a13.78,13.78,0,0,1-4.13.71c-1.85,0-3.1-.45-3.75-1.36a7.67,7.67,0,0,1-1-4.4,17.71,17.71,0,0,1,.24-3.11,8.73,8.73,0,0,1,.85-2.49,4.2,4.2,0,0,1,1.77-1.77,6.07,6.07,0,0,1,2.83-.61A5.72,5.72,0,0,1,111.77,358.4Z"/><path class="cls-1" d="M122.08,357.81l.38,13.64c-.17.51-.46.76-.86.76a1.32,1.32,0,0,1-.85-.35,1.54,1.54,0,0,1-.53-.87l.26-5.51a4.13,4.13,0,0,1-2.21.71,11.06,11.06,0,0,1-2.43,4.65,10.4,10.4,0,0,1-4.65,2.36l-.41-1.09q4.73-1.2,5.38-6.27a4.91,4.91,0,0,1-2-1.55,3.84,3.84,0,0,1-.79-2.39c0-1.79.46-3,1.37-3.58a8.2,8.2,0,0,1,4.34-.89A12,12,0,0,1,122.08,357.81Zm-1.4,5.54-.13-4a9.07,9.07,0,0,0-2.61-.28,3.83,3.83,0,0,0-2.08.54,1.94,1.94,0,0,0-.87,1.77,3.05,3.05,0,0,0,1.1,2.35,3.49,3.49,0,0,0,2.38,1A2.31,2.31,0,0,0,120.68,363.35Z"/><path class="cls-1" d="M133.53,358.91a4.79,4.79,0,0,1,1.53-.8,4.92,4.92,0,0,1,1.63-.32q4.71,0,4.71,5.46a18.07,18.07,0,0,1-.18,2.47,19.79,19.79,0,0,1-.62,2.86,6.06,6.06,0,0,1-1.4,2.55,3,3,0,0,1-2.29,1,4,4,0,0,1-2.47-.76,4.92,4.92,0,0,1-1.58-2.23,14.32,14.32,0,0,1-.82-3.31,33.9,33.9,0,0,1-.24-4.31,14.75,14.75,0,0,1,.62-4.44,9.66,9.66,0,0,1,1.9-3.43,14.24,14.24,0,0,1,2.84-2.54A28.41,28.41,0,0,1,141,349a1.62,1.62,0,0,0,.34.35,1.28,1.28,0,0,1,.36.42c.11.18.28.55.52,1.09l-1.55.84c-.71.37-1.3.68-1.77.95a16.94,16.94,0,0,0-1.68,1.09,11.81,11.81,0,0,0-1.62,1.37,8.47,8.47,0,0,0-1.22,1.68A7.71,7.71,0,0,0,133.53,358.91Zm5.92,4.19a4,4,0,0,0-.86-2.81,3,3,0,0,0-2.31-.93,2.57,2.57,0,0,0-2.17,1.16,4.62,4.62,0,0,0-.83,2.8,14.41,14.41,0,0,0,.16,2.11,15.18,15.18,0,0,0,.51,2.25,4.85,4.85,0,0,0,1,1.86,1.89,1.89,0,0,0,1.46.74Q139.45,370.28,139.45,363.1Z"/><path class="cls-1" d="M142.77,365.58a12.83,12.83,0,0,1,.22-2.26,21,21,0,0,1,.64-2.61,5.77,5.77,0,0,1,1.3-2.29,2.66,2.66,0,0,1,2-.91,4.51,4.51,0,0,1,3.91,2.2,8.57,8.57,0,0,1,1.47,4.88,11,11,0,0,1-.24,2.28,10.38,10.38,0,0,1-.75,2.22,4.78,4.78,0,0,1-1.46,1.81,4.13,4.13,0,0,1-2.22.83,5.14,5.14,0,0,1-3.61-2A6.71,6.71,0,0,1,142.77,365.58Zm4.32-6.75c-.59.07-1.09.61-1.5,1.63a11.79,11.79,0,0,0-.79,3,20.66,20.66,0,0,0-.18,2.53,4.42,4.42,0,0,0,.88,2.63,2.45,2.45,0,0,0,2,1.2,2,2,0,0,0,1.42-.61,4.24,4.24,0,0,0,1-1.51,9.43,9.43,0,0,0,.56-1.81,7.86,7.86,0,0,0,.19-1.63,6.84,6.84,0,0,0-.94-3.63A3.42,3.42,0,0,0,147.09,358.83Z"/><path class="cls-1" d="M151.66,373.28l-.41-1.09a4.13,4.13,0,0,0,1.51-1.05,7.25,7.25,0,0,0,1.11-1.48,8.58,8.58,0,0,0,.73-1.94c.21-.78.35-1.46.45-2.05s.16-1.3.21-2.17.08-1.51.09-1.94,0-1,0-1.74a3.58,3.58,0,0,1,.27-1.85c.24-.26,1.55-.38,3.94-.38,1.88,0,2.95,0,3.2,0q0,10.31.25,13.38c-.17.51-.46.76-.89.76a1.29,1.29,0,0,1-.83-.35,1.56,1.56,0,0,1-.51-.87c0-.66,0-1.64,0-3,0-.64,0-1.62,0-2.92s0-2.29,0-3c0-1.22,0-2.13,0-2.74a15.21,15.21,0,0,1-2.1.2c-.7,0-1.19,0-1.48.08q-.08.84-.12,2.49t-.09,2.91a20.34,20.34,0,0,1-.32,2.85,10.81,10.81,0,0,1-.8,2.7,5.77,5.77,0,0,1-4.2,3.14Z"/><path class="cls-1" d="M165.17,358.12l1.14.25c0,.55.09,1.18.16,1.91s.17,1.55.27,2.49a6.52,6.52,0,0,1,1.93-.31,4.92,4.92,0,0,1,2,.42,5.12,5.12,0,0,1,1.6,1.1,5.18,5.18,0,0,1,1,1.57,4.33,4.33,0,0,1,.38,1.79,3.4,3.4,0,0,1-.38,1.62,4,4,0,0,1-1,1.26,4.93,4.93,0,0,1-1.48.81,5.47,5.47,0,0,1-1.77.29l-.79,0c-.41,0-.83-.06-1.28-.12a8.93,8.93,0,0,1-1.21-.24c-.35-.1-.54-.24-.56-.43s0-.68,0-1.18,0-1.05,0-1.66,0-1.25,0-1.92,0-1.32,0-1.94,0-1.21,0-1.73,0-.94,0-1.24C165.09,359.89,165.12,359,165.17,358.12Zm1.8,6.25-.23,5.08a6,6,0,0,0,1.92.35,3.42,3.42,0,0,0,1.3-.24,3.05,3.05,0,0,0,1-.63,2.82,2.82,0,0,0,.63-.9,2.59,2.59,0,0,0,.23-1.06,2.51,2.51,0,0,0-.23-1.05,2.46,2.46,0,0,0-.68-.87,3.27,3.27,0,0,0-1.11-.6,4.92,4.92,0,0,0-1.49-.21,4.45,4.45,0,0,0-.61,0Z"/><path class="cls-1" d="M186.91,357.79l1.16.25q.08,1.71.07,8.28c0,2.18,0,3.77.08,4.75-1.29,0-3,.05-5,.05q-6,0-7.92-.13c0-1,.11-3.11.18-6.43s.16-5.72.28-7.18l1.14.28q.18,2.13.28,6.51c.07,2.93.11,4.67.13,5.25.37,0,1-.06,2-.07s1.6,0,1.89,0c0-.59.05-1.52.05-2.79,0-.49,0-1.24,0-2.26s0-1.77,0-2.28q0-2.48.18-4.35l1.16.25q.16,2,.25,6.36c.06,2.89.1,4.54.11,5,1.71,0,2.9,0,3.58,0,.06-1,.12-2.85.2-5.5S186.84,359.07,186.91,357.79Z"/><path class="cls-1" d="M200.51,368.53l.25,1.12a29.24,29.24,0,0,1-3.31.9,16.36,16.36,0,0,1-3.26.49,2.79,2.79,0,0,1-1.91-.72,4.44,4.44,0,0,1-1.22-1.85,12.8,12.8,0,0,1-.59-2.24,12.4,12.4,0,0,1-.19-2.17q0-6.35,5.74-6.35a3.62,3.62,0,0,1,2.41.88,2.83,2.83,0,0,1,1,2.27,2.26,2.26,0,0,1-.42,1.35,3.08,3.08,0,0,1-1,.92,7.18,7.18,0,0,1-1.52.63,14.78,14.78,0,0,1-1.64.4c-.47.09-1,.18-1.7.28s-1.12.18-1.37.23q0,.74.09,1.29a7.46,7.46,0,0,0,.25,1.21,3.44,3.44,0,0,0,.51,1.07,2.42,2.42,0,0,0,.88.7,3,3,0,0,0,1.32.27,18.29,18.29,0,0,0,2.23-.16c.88-.11,1.67-.22,2.35-.34Zm-8.61-5.43a34.12,34.12,0,0,0,5.66-2.09,2.86,2.86,0,0,0-.48-1.22,1.11,1.11,0,0,0-.91-.38,4.26,4.26,0,0,0-2.81,1.07A4,4,0,0,0,191.9,363.1Z"/><path class="cls-1" d="M5.31,384.06l8.55.08.59,12.31c-.16.51-.45.76-.89.76a1.34,1.34,0,0,1-.89-.37,1.45,1.45,0,0,1-.53-.9q0-.45.09-2.88c0-1.61.08-3.16.14-4.64s.08-2.45.1-2.89c-.48,0-1.18,0-2.11,0a27.67,27.67,0,0,1-3.17-.15q.08.84.12,5.4c0,3,.07,4.8.1,5.29-.15.52-.44.79-.88.79a1.34,1.34,0,0,1-.88-.37,1.6,1.6,0,0,1-.52-.9c0-.85.08-1.7.08-2.54q0-.66,0-2.19c0-1,0-1.81,0-2.41C5.15,386.66,5.21,385.21,5.31,384.06Z"/><path class="cls-1" d="M16.5,391.35a13.75,13.75,0,0,1,.22-2.26,19.6,19.6,0,0,1,.65-2.62,5.79,5.79,0,0,1,1.29-2.28,2.7,2.7,0,0,1,2-.92,4.52,4.52,0,0,1,3.91,2.2,8.58,8.58,0,0,1,1.47,4.89,10.87,10.87,0,0,1-.24,2.27,10.38,10.38,0,0,1-.75,2.22,4.8,4.8,0,0,1-1.46,1.82,4.14,4.14,0,0,1-2.22.82,5.14,5.14,0,0,1-3.61-2A6.76,6.76,0,0,1,16.5,391.35Zm4.32-6.76c-.59.07-1.09.61-1.5,1.63a11.71,11.71,0,0,0-.78,3,20.51,20.51,0,0,0-.18,2.52,4.39,4.39,0,0,0,.87,2.63,2.48,2.48,0,0,0,2,1.21,2,2,0,0,0,1.42-.61,4.36,4.36,0,0,0,1-1.51,10.25,10.25,0,0,0,.55-1.82,7.92,7.92,0,0,0,.2-1.62,6.91,6.91,0,0,0-.94-3.63A3.44,3.44,0,0,0,20.82,384.59Z"/><path class="cls-1" d="M25.39,399,25,398a4.26,4.26,0,0,0,1.52-1,7.94,7.94,0,0,0,1.1-1.49,8.38,8.38,0,0,0,.74-1.94c.2-.78.35-1.46.44-2s.17-1.31.22-2.17.08-1.52.08-1.95,0-1,0-1.74a3.43,3.43,0,0,1,.28-1.85c.23-.25,1.55-.38,3.93-.38,1.88,0,2.95,0,3.2,0q.06,10.32.26,13.39a.94.94,0,0,1-.89.76,1.26,1.26,0,0,1-.84-.36,1.57,1.57,0,0,1-.51-.86c0-.67,0-1.65,0-3,0-.64,0-1.62,0-2.92s0-2.29,0-2.95c0-1.22,0-2.14,0-2.75a14.05,14.05,0,0,1-2.11.2c-.7,0-1.19.05-1.47.08-.05.56-.1,1.39-.13,2.49s-.06,2.08-.09,2.92a20.37,20.37,0,0,1-.32,2.84,10.41,10.41,0,0,1-.8,2.7,5.52,5.52,0,0,1-1.6,2A5.63,5.63,0,0,1,25.39,399Z"/><path class="cls-1" d="M49.05,394.29l.26,1.12a29.86,29.86,0,0,1-3.31.9,16.73,16.73,0,0,1-3.27.5,2.73,2.73,0,0,1-1.9-.73,4.44,4.44,0,0,1-1.22-1.85,12.8,12.8,0,0,1-.79-4.41q0-6.35,5.74-6.34a3.64,3.64,0,0,1,2.41.87,2.82,2.82,0,0,1,1,2.27,2.26,2.26,0,0,1-.42,1.35,3.09,3.09,0,0,1-1,.93,7.69,7.69,0,0,1-1.52.62,15.63,15.63,0,0,1-1.64.41l-1.7.28-1.37.22c0,.49,0,.93.08,1.3a7.67,7.67,0,0,0,.26,1.2A3.13,3.13,0,0,0,41.2,394a2.47,2.47,0,0,0,.87.7,2.86,2.86,0,0,0,1.32.28,18.7,18.7,0,0,0,2.24-.17c.88-.11,1.66-.22,2.35-.34Zm-8.6-5.43a35.13,35.13,0,0,0,5.66-2.08,3,3,0,0,0-.48-1.22,1.1,1.1,0,0,0-.92-.38,4.22,4.22,0,0,0-2.8,1.06A4,4,0,0,0,40.45,388.86Z"/><path class="cls-1" d="M51.82,390.48l-.1-1.42.24,0h.24c1.71,0,2.57-.75,2.57-2.24a2,2,0,0,0-2.16-2,8,8,0,0,0-2.08.4l-.46-.73a4.32,4.32,0,0,1,3-1,3.76,3.76,0,0,1,2.33.71,2.44,2.44,0,0,1,.94,2.08,4.25,4.25,0,0,1-.33,1.64,2.86,2.86,0,0,1-.86,1.2,2.23,2.23,0,0,1,1.51,1.31,5.58,5.58,0,0,1,.55,2.48,4.57,4.57,0,0,1-1.15,3.1,3.71,3.71,0,0,1-2.94,1.32,5.76,5.76,0,0,1-2.13-.51c-.83-.34-1.25-.76-1.25-1.27s.23-.53.69-.53a2.7,2.7,0,0,1,1.19.41,2.63,2.63,0,0,0,1.22.42,2.42,2.42,0,0,0,1.88-.94,3.1,3.1,0,0,0,.81-2.08,2.14,2.14,0,0,0-.85-1.84,3.62,3.62,0,0,0-2.17-.62Z"/><path class="cls-1" d="M66.93,383.88l1.14.26.59,12.31c-.16.51-.45.76-.89.76a1.34,1.34,0,0,1-.89-.37,1.45,1.45,0,0,1-.53-.9c0-.05.07-1.48.22-4.29v-.2c-.47,0-1.17-.05-2.09-.05a27.47,27.47,0,0,1-3.16-.13c.08,1,.19,2.57.33,4.75a.92.92,0,0,1-.9.79,1.39,1.39,0,0,1-.89-.37,1.6,1.6,0,0,1-.52-.9c0-.85.07-1.7.07-2.54,0-.54,0-1.36,0-2.44s0-1.89,0-2.41c0-1.63,0-3,.16-4.09l1.16.28q.51,5.51.54,5.66l4.45.23c.69,0,1,0,1-.13,0-.34,0-1.41.1-3.22S66.91,384.07,66.93,383.88Z"/><path class="cls-1" d="M70.79,383.88l1.14.26c0,.54.09,1.17.17,1.9s.16,1.56.26,2.49a6.86,6.86,0,0,1,1.93-.31,4.89,4.89,0,0,1,2,.42,5,5,0,0,1,1.6,1.11,5.26,5.26,0,0,1,1,1.56,4.34,4.34,0,0,1,.39,1.79,3.77,3.77,0,0,1-.35,1.62A3.62,3.62,0,0,1,78,396a4.56,4.56,0,0,1-1.47.81,5.6,5.6,0,0,1-1.87.3c-.41,0-.84,0-1.3-.07s-.87-.1-1.24-.16a6.19,6.19,0,0,1-.93-.24c-.24-.1-.36-.2-.36-.32,0-.27,0-.66,0-1.17s0-1.07,0-1.67,0-1.26,0-1.93,0-1.33,0-2,0-1.2,0-1.71,0-.94,0-1.26C70.71,385.65,70.74,384.75,70.79,383.88Zm1.8,6.25-.23,5.08a6,6,0,0,0,1.92.35,3.38,3.38,0,0,0,1.3-.24,3.05,3.05,0,0,0,1-.63,2.82,2.82,0,0,0,.63-.9,2.41,2.41,0,0,0,.23-1.06,2.37,2.37,0,0,0-.23-1.05,2.46,2.46,0,0,0-.68-.87,3.26,3.26,0,0,0-1.11-.59,5,5,0,0,0-2.1-.18Zm7.92-6.32,1.15.25c.11,1.34.24,3,.38,5s.28,4.41.43,7.15a.9.9,0,0,1-.89.76,1.32,1.32,0,0,1-.88-.37,1.53,1.53,0,0,1-.52-.9c0-.25,0-.67,0-1.24s0-1.24,0-2,0-1.54,0-2.39,0-1.67,0-2.46,0-1.54.06-2.23S80.48,384.21,80.51,383.81Z"/><path class="cls-1" d="M84.58,397.39l-1.1-.58a61.23,61.23,0,0,1,3.46-6.4,32.84,32.84,0,0,1-3.35-6.68H84.7a37.87,37.87,0,0,0,3.18,5.15c.25-.35.58-.9,1-1.65a18.63,18.63,0,0,1,1.22-1.93,7.64,7.64,0,0,1,1.36-1.42c.61.34.91.74.91,1.2a1.58,1.58,0,0,1-.18.73,23.83,23.83,0,0,0-1.75,2.64c-.71,1.21-1.15,1.93-1.32,2.19a44.25,44.25,0,0,1,3.63,5.66c0,.64-.29,1-.86,1a1.43,1.43,0,0,1-1.32-.83,17.4,17.4,0,0,0-2.41-4.32q-.43.7-1.77,2.58C85.5,395.93,84.9,396.83,84.58,397.39Z"/><path class="cls-1" d="M101.59,383.73a35.47,35.47,0,0,1,4.8-.84c2.26,0,3.4,1,3.4,2.92a6,6,0,0,1-.34,2,2.39,2.39,0,0,1-.85,1.26,4.23,4.23,0,0,1,2,3.7,4.34,4.34,0,0,1-1.46,3.48,5.75,5.75,0,0,1-3.85,1.25,5.45,5.45,0,0,1-4.24-1.53Zm1.19,1.12.18,3.93c.25,0,.65-.06,1.17-.07a9.15,9.15,0,0,0,1.28-.12,4.33,4.33,0,0,0,1.07-.38,2.08,2.08,0,0,0,.93-1,6.05,6.05,0,0,0,.47-1.94c-.17-.51-.68-.76-1.55-.76a14.4,14.4,0,0,0-1.84.18C103.66,384.76,103.09,384.83,102.78,384.85Zm.26,5.25.22,5.16a3.39,3.39,0,0,0,1.45.3,4.73,4.73,0,0,0,2.9-1,2.85,2.85,0,0,0,1.32-2.31,2.44,2.44,0,0,0-.72-1.69,2.34,2.34,0,0,0-1.8-.77C106,389.8,104.86,389.9,103,390.1Z"/><path class="cls-1" d="M122,394.29l.26,1.12a29.53,29.53,0,0,1-3.32.9,16.55,16.55,0,0,1-3.26.5,2.77,2.77,0,0,1-1.91-.73,4.43,4.43,0,0,1-1.21-1.85,12.75,12.75,0,0,1-.6-2.23,12.51,12.51,0,0,1-.19-2.18q0-6.35,5.74-6.34a3.66,3.66,0,0,1,2.41.87,2.85,2.85,0,0,1,1,2.27,2.26,2.26,0,0,1-.42,1.35,3.3,3.3,0,0,1-1,.93,7.56,7.56,0,0,1-1.53.62,15,15,0,0,1-1.64.41l-1.7.28-1.37.22c0,.49.05.93.09,1.3a7.58,7.58,0,0,0,.25,1.2,3.33,3.33,0,0,0,.51,1.07,2.51,2.51,0,0,0,.88.7,2.86,2.86,0,0,0,1.32.28,18.56,18.56,0,0,0,2.23-.17c.88-.11,1.67-.22,2.35-.34Zm-8.61-5.43a35.28,35.28,0,0,0,5.67-2.08,2.87,2.87,0,0,0-.49-1.22,1.07,1.07,0,0,0-.91-.38,4.25,4.25,0,0,0-2.81,1.06A4.12,4.12,0,0,0,113.34,388.86Z"/><path class="cls-1" d="M137.77,400.44l-1.22-.21-.48-3.4c-1.36,0-3,.05-5,.05-3.93,0-6.53,0-7.82-.12,0-1,.11-3.11.18-6.44s.16-5.72.28-7.17l1.14.28q.18,2.11.28,6.51c.07,2.92.11,4.67.13,5.24.37,0,1-.05,2-.06s1.6,0,1.89,0q0-2.25,0-7.32c0-1.66.06-3.11.18-4.36l1.16.25q.17,2,.25,6.38c.06,2.89.1,4.55.11,5l1.82,0c.86,0,1.45,0,1.79,0,.05-1,.11-2.84.19-5.49s.15-4.62.22-5.91l1.14.26q.09,2,.11,6.27c0,2.86,0,4.49,0,4.9h1.91c0,.46-.06,1.32-.13,2.59S137.8,399.79,137.77,400.44Z"/><path class="cls-1" d="M148.66,394.29l.26,1.12a29.53,29.53,0,0,1-3.32.9,16.55,16.55,0,0,1-3.26.5,2.73,2.73,0,0,1-1.9-.73,4.35,4.35,0,0,1-1.22-1.85,13.69,13.69,0,0,1-.6-2.23,12.51,12.51,0,0,1-.19-2.18q0-6.35,5.74-6.34a3.64,3.64,0,0,1,2.41.87,2.85,2.85,0,0,1,1,2.27,2.26,2.26,0,0,1-.42,1.35,3.3,3.3,0,0,1-1,.93,7.56,7.56,0,0,1-1.53.62,15.52,15.52,0,0,1-1.63.41l-1.71.28-1.37.22c0,.49.05.93.09,1.3a6.68,6.68,0,0,0,.26,1.2,3.13,3.13,0,0,0,.5,1.07,2.6,2.6,0,0,0,.88.7A2.86,2.86,0,0,0,143,395a18.56,18.56,0,0,0,2.23-.17c.88-.11,1.67-.22,2.35-.34Zm-8.61-5.43a35.28,35.28,0,0,0,5.67-2.08,2.87,2.87,0,0,0-.49-1.22,1.07,1.07,0,0,0-.91-.38,4.25,4.25,0,0,0-2.81,1.06A4.12,4.12,0,0,0,140.05,388.86Z"/><path class="cls-1" d="M158.49,384.16l-.13,1.09a13.41,13.41,0,0,0-1.83-.15,4.07,4.07,0,0,0-2.89,1.06,5.41,5.41,0,0,0-1.56,2.48,11.35,11.35,0,0,0-.42,3.19,9.09,9.09,0,0,0,.1,1.45,5,5,0,0,0,.37,1.24,2,2,0,0,0,.84,1,2.68,2.68,0,0,0,1.41.35,12.17,12.17,0,0,0,2.84-.44,2.61,2.61,0,0,1,.84-.2c.4,0,.65.48.73,1.42a13.54,13.54,0,0,1-4.14.71c-1.84,0-3.09-.45-3.74-1.35a7.73,7.73,0,0,1-1-4.41,17.79,17.79,0,0,1,.24-3.11A8.73,8.73,0,0,1,151,386a4.12,4.12,0,0,1,1.77-1.76,6,6,0,0,1,2.83-.61A5.73,5.73,0,0,1,158.49,384.16Z"/><path class="cls-1" d="M159.28,385.1l-.23-1.12c2.27-.13,5.85-.32,10.73-.55a1.49,1.49,0,0,1,1.05.45,1.29,1.29,0,0,1,.43.92c0,.5-.34.79-1,.86l-4.74-.23c.08,1.27.13,3.12.14,5.55s0,4.2.08,5.32a.9.9,0,0,1-.9.74,1.26,1.26,0,0,1-.84-.36,1.5,1.5,0,0,1-.52-.86c.24-4.17.49-7.66.74-10.49Z"/><path class="cls-1" d="M172.83,383.73a36,36,0,0,1,4.8-.84c2.27,0,3.41,1,3.41,2.92a5.72,5.72,0,0,1-.35,2,2.34,2.34,0,0,1-.85,1.26,4.23,4.23,0,0,1,2,3.7,4.31,4.31,0,0,1-1.46,3.48,5.7,5.7,0,0,1-3.84,1.25,5.45,5.45,0,0,1-4.24-1.53Zm1.2,1.12.18,3.93c.25,0,.64-.06,1.17-.07a9.31,9.31,0,0,0,1.28-.12,4.33,4.33,0,0,0,1.07-.38,2.08,2.08,0,0,0,.93-1,6.05,6.05,0,0,0,.47-1.94c-.17-.51-.69-.76-1.56-.76a14.28,14.28,0,0,0-1.83.18C174.9,384.76,174.33,384.83,174,384.85Zm.25,5.25.23,5.16a3.36,3.36,0,0,0,1.45.3,4.7,4.7,0,0,0,2.89-1,2.85,2.85,0,0,0,1.32-2.31,2.48,2.48,0,0,0-.71-1.69,2.34,2.34,0,0,0-1.8-.77C177.23,389.8,176.11,389.9,174.28,390.1Z"/><line class="cls-2" y1="219.06" x2="4" y2="219.06"/><line class="cls-3" x1="11.99" y1="219.06" x2="679.33" y2="219.06"/><line class="cls-2" x1="683.33" y1="219.06" x2="687.33" y2="219.06"/><line class="cls-2" y1="110.01" x2="4" y2="110.01"/><line class="cls-3" x1="11.99" y1="110.01" x2="679.33" y2="110.01"/><line class="cls-2" x1="683.33" y1="110.01" x2="687.33" y2="110.01"/><line class="cls-2" y1="328.11" x2="4" y2="328.11"/><line class="cls-3" x1="11.99" y1="328.11" x2="679.33" y2="328.11"/><line class="cls-2" x1="683.33" y1="328.11" x2="687.33" y2="328.11"/><line class="cls-2" x1="470.92" y1="421.66" x2="470.92" y2="21.87"/><line class="cls-2" x1="231.58" y1="421.66" x2="231.58" y2="21.87"/><line class="cls-4" x1="331.89" y1="271.27" x2="376.89" y2="271.27"/><line class="cls-4" x1="331.89" y1="161.82" x2="376.89" y2="161.82"/><line class="cls-4" x1="331.89" y1="379.25" x2="376.89" y2="379.25"/><path class="cls-5" d="M601.53,364.8c-5-10.76-18.42-14.53-28.79-9.52a1.44,1.44,0,0,0-.8.94C563.09,361.79,559,373,563.78,383a20.91,20.91,0,0,0,27.85,10C602.19,388,606.39,375.29,601.53,364.8Zm-11,25.33a17.91,17.91,0,0,1-23.94-8.3c-4.71-9.58.25-20.55,9.8-24.55a1.63,1.63,0,0,0,.55-.38c7.92-2.31,17,.42,21.23,8C603.23,373.86,600,385.65,590.5,390.13Z"/><path class="cls-5" d="M589.41,364.42c-2.44,3.31-4.78,10.42-7.23,13.72L577,369.4c-1-1.66-3.38.16-2.41,1.8l6.27,10.53a1.51,1.51,0,0,0,2.38,0l8.54-15.49C592.92,364.73,590.57,362.87,589.41,364.42Z"/><path class="cls-5" d="M601.53,262.07c-5-10.77-18.42-14.54-28.79-9.53a1.46,1.46,0,0,0-.8.94c-8.85,5.58-12.94,16.82-8.16,26.75a20.91,20.91,0,0,0,27.85,9.94C602.19,285.24,606.39,272.56,601.53,262.07Zm-11,25.32a17.9,17.9,0,0,1-23.94-8.29c-4.71-9.59.25-20.55,9.8-24.55a1.63,1.63,0,0,0,.55-.38c7.92-2.32,17,.42,21.23,8C603.23,271.12,600,282.91,590.5,287.39Z"/><path class="cls-5" d="M589.41,261.69c-2.44,3.3-4.78,10.41-7.23,13.71L577,266.67c-1-1.66-3.38.15-2.41,1.8L580.85,279a1.51,1.51,0,0,0,2.38,0l8.54-15.48C592.92,262,590.57,260.14,589.41,261.69Z"/><path class="cls-5" d="M601.53,152.62c-5-10.76-18.42-14.54-28.79-9.53a1.48,1.48,0,0,0-.8.95c-8.85,5.57-12.94,16.81-8.16,26.74a20.91,20.91,0,0,0,27.85,9.94C602.19,175.79,606.39,163.11,601.53,152.62ZM590.5,178a17.91,17.91,0,0,1-23.94-8.3c-4.71-9.58.25-20.55,9.8-24.55a1.63,1.63,0,0,0,.55-.38c7.92-2.32,17,.42,21.23,8C603.23,161.68,600,173.47,590.5,178Z"/><path class="cls-5" d="M589.41,152.24c-2.44,3.3-4.78,10.41-7.23,13.72L577,157.22c-1-1.66-3.38.16-2.41,1.8l6.27,10.53a1.51,1.51,0,0,0,2.38,0l8.54-15.48C592.92,152.55,590.57,150.69,589.41,152.24Z"/></svg>