<svg id="Layer_1" data-name="Layer 1" xmlns="http://www.w3.org/2000/svg" viewBox="0 0 166.28 206.95"><defs><style>.cls-1{fill:#01336e;}.cls-2,.cls-9{fill:#294180;}.cls-3{fill:#fff;}.cls-4{fill:#d3281d;}.cls-5{fill:#e8eff4;}.cls-6{fill:#13509b;}.cls-7{fill:#c81918;}.cls-8{fill:#dee5ea;}.cls-9{fill-rule:evenodd;}</style></defs><title>logoArtboard 47</title><path class="cls-1" d="M166.28,166.06S110.55,207.46,0,207V0H166.28Z"/><path class="cls-2" d="M81.42,28.21l66.17,81.58H14.68L81.13,27.84ZM146,109.06,113.69,69.17,81.13,29l-64.9,80Z"/><polygon class="cls-3" points="113.69 69.17 146.03 109.06 16.23 109.06 81.13 29.03 113.69 69.17"/><path id="_Path_" data-name="&lt;Path&gt;" class="cls-2" d="M40.61,81.12c6.17,15,26.23,11.65,43.06,6.16,13.14-4.29,26.24-8.58,35.7-2.11C113.1,84.23,103,88.12,92,92c-20.82,7.39-47.32,13.88-51.42-10.9"/><path id="_Path_2" data-name="&lt;Path&gt;" class="cls-4" d="M118.84,90.63C111.36,87.46,101,92,89.61,96.56c-10,4-20.72,7.94-31.07,6.77,28.57,8.3,42.63-11.23,60.3-12.7"/><path id="_Path_3" data-name="&lt;Path&gt;" class="cls-5" d="M98.37,81.54c-5.71-.4-12.05,1.88-18.57,4.15C67.29,90.05,54.07,94.41,43.13,80c11.62,9.68,22.11,6.26,32,2.84,8.06-2.8,15.72-5.59,23.26-1.26"/><path id="_Path_4" data-name="&lt;Path&gt;" class="cls-6" d="M59.66,95.94h0c7.54,0,16-2.78,24.27-5.46,8.08-2.64,16.44-5.37,23.67-5.37a24.18,24.18,0,0,1,4,.31,28.33,28.33,0,0,1,5.73-.7l.7,0a20,20,0,0,0-10.42-2.58c-7.23,0-15.59,2.73-23.67,5.37C75.7,90.22,67.2,93,59.66,93h0C52.05,93,46.25,90.11,42,84.21a25.27,25.27,0,0,0,3.65,7c3.73,3.2,8.36,4.77,14,4.77"/><path id="_Path_5" data-name="&lt;Path&gt;" class="cls-7" d="M70.72,105c8.18-1.15,16.39-4.45,23.81-7.42,6.06-2.43,11.86-4.75,17-5.68a33.26,33.26,0,0,1,6-1.43,14.54,14.54,0,0,0-4.08-.54c-6,0-13.4,3-21.23,6.1-9.17,3.68-19.57,7.85-29.6,7.85h-.24A47.15,47.15,0,0,0,70.72,105"/><path id="_Path_6" data-name="&lt;Path&gt;" class="cls-8" d="M59.42,88.12c5.73,0,11.14-1.88,16.38-3.7,4.9-1.69,9.52-3.29,14-3.29a17.28,17.28,0,0,1,3.49.35A26.61,26.61,0,0,1,97,81.19a16.07,16.07,0,0,0-7.12-1.59c-4.53,0-9.15,1.61-14,3.3-5.24,1.82-10.65,3.7-16.38,3.7a24.3,24.3,0,0,1-13.85-4.34,24.9,24.9,0,0,0,4.81,4.1,23.63,23.63,0,0,0,9,1.76"/><path id="_Compound_Path_" data-name="&lt;Compound Path&gt;" class="cls-9" d="M73.67,47.48l.09,3.91c.79-.88,1.67.91.67,1.2a1,1,0,0,1-.65-.14,4.85,4.85,0,0,0,0,.79c1.09,0,2.35-.06,3.42-.06.1,0,.37-.1.38.11-1.18.17-2.58.07-3.82.14,0,.48,0,1,.06,1.49l2.25,0c.2,0,.59-.12.55.23-.66.25-1.71.27-2.43.5.07,1.12,0,2.34.16,3.39.84,0,1.83-.07,2.65,0,.09,0,.3-.09.33.08s-.29.1-.43.1l-1.57,0c0,.8,0,1.61,0,2.41a2.37,2.37,0,0,0,.54,0c.24,1,.42,2.09.67,3.1,2.26-.07,4.44,0,6.69-.1a3.51,3.51,0,0,1,.34.39c.1.12.29.28.25.39H83.4C83.34,66.14,83,67,83,67.8c-.08,1.11.13,2.21.08,3.41h-.52c0-.44,0-1,0-1.34l-3.39.06-.42.74c-.09.18-.27.67-.44.74a4.67,4.67,0,0,1-1.25,0l-3.77.07c-.27-.3-.54-.59-.8-.9s-.56-.85-.81-.93a5,5,0,0,0-1.22,0l-3.69.07c0-.63,0-1.26,0-1.89a4.51,4.51,0,0,1,.64-.53c.2-.16.43-.47.66-.53.47-.12,1,.09,1.52-.06a6.77,6.77,0,0,0,0-1h-.68a1.39,1.39,0,0,1,.37-.59l1.68,0-.06-2.83c.74,0,1.55,0,2.25-.08,0-.88.33-1.83.37-2.78,0-1.22-.12-2.41-.08-3.72a3.78,3.78,0,0,0-.34-.39c-.11-.12-.28-.28-.25-.39h.89c0-2.51-.11-5-.16-7.53h.24s0,0,0,.09m.69,11.7c0,.63.06,1.24.07,1.89,0,.16-.06.43.1.51s.1-.34.09-.48c0-.56,0-1.27,0-1.83v-.1ZM83,65.81l-.54,0c0,.35,0,.71,0,1.06H83Zm-.81,0h-.68c0,.36,0,.71,0,1.07h.68C82.17,66.54,82.17,66.19,82.16,65.83Zm-1,0h-.68l0,1.07.67,0C81.23,66.56,81.22,66.2,81.21,65.85Zm-2.82.05h-.68l0,1.07h.67C78.41,66.61,78.4,66.26,78.39,65.9Zm-.89,0h-.68c0,.36,0,.71,0,1.07h.68C77.51,66.63,77.5,66.27,77.5,65.92ZM72.73,66h-.68c0,.36,0,.71,0,1.07h.68C72.74,66.72,72.73,66.36,72.73,66Zm-1.3,0-.68,0c0,.35,0,.71,0,1.06h.68C71.44,66.75,71.43,66.39,71.43,66Zm-1.06,0-.68,0c0,.35,0,.71,0,1.06h.68C70.38,66.77,70.38,66.41,70.37,66.05Z"/><path id="_Path_7" data-name="&lt;Path&gt;" class="cls-9" d="M96,55.17a.66.66,0,0,0-.83.69.82.82,0,0,0,.43.75c.87.33,1.34-1.22.4-1.44"/><path id="_Compound_Path_2" data-name="&lt;Compound Path&gt;" class="cls-9" d="M96,56.76a16,16,0,0,0,.13,2.31,9.27,9.27,0,0,0,.58,1.33c1.25,2.65,2.54,5,3.91,7.52.19.35.49,1.13.7,1.21a3.75,3.75,0,0,0,1-.14,57.88,57.88,0,0,0,6.23-1.4c.12.13.44.35.36.51a105.47,105.47,0,0,1-11.07,3.26,73.35,73.35,0,0,1-12.4,1.82,220.29,220.29,0,0,1-26.92.33c0,.24,0,.89.06,1.34-1.05,0-2.05,0-3,0a10.38,10.38,0,0,0-.35-1.36c-1,.14-2.08.25-3.11.39,0-1,0-2.37,0-3.47,0-.19,0-.27.1-.31s.28.62.32.85a5.26,5.26,0,0,0,.21,1c2.53,0,5.14-.08,7.68-.09.11-.62.23-1.25.36-1.86,2.88.09,6.4,0,9.52-.09a5.82,5.82,0,0,1,1.3,0c.26.08.54.63.8.93s.61.84.86.9a5.53,5.53,0,0,0,1.28,0l3.87-.08c.15-.22.27-.47.42-.74s.28-.64.45-.71a2.72,2.72,0,0,1,.76,0l2.35,0,0,1.34c.73,0,1.38-.08,2.12-.07l0-1.19c.16-.08.36,0,.57,0,0,.38,0,.82.11,1.18C88,71,91,70.67,93.83,70.21c.56-3.67,1.11-7.33,1.63-11,.09-.09.3-.05.4-.12,0-.51,0-1.12,0-1.65,0-.28-.16-.85.14-.73,0,0,0,0,0,.09m-.17,3.11c-.2,1.69-.43,3.34-.65,5,.76,0,1.55,0,2.28,0-.44-1.66-.84-3.38-1.31-5Zm1.41,2.44c.17.8.49,1.7.7,2.55h.66C98.14,64,97.68,63.17,97.24,62.31Zm.82,2.91c.4,1.45.83,2.87,1.24,4.31l1.64-.31c-.72-1.31-1.42-2.66-2.15-4C98.64,65.12,98.25,65.19,98.06,65.22Zm-.54,0-2.39,0c-.22,1.63-.42,3.29-.65,4.92,1.42-.17,2.8-.38,4.19-.57C98.28,68.17,98,66.64,97.52,65.23Zm-13.4,7.12H83.9c0,.16,0,.33,0,.49h.22C84.13,72.67,84.12,72.51,84.12,72.35Zm-.89,0H83c0,.16,0,.32,0,.49h.22C83.23,72.69,83.23,72.53,83.23,72.37Zm-2,0H81c0,.16,0,.32,0,.49h.22C81.23,72.73,81.22,72.57,81.22,72.4Zm-.76,0h-.22c0,.16,0,.33,0,.49h.21C80.47,72.74,80.46,72.58,80.46,72.42Zm-6.61.12h-.22c0,.16,0,.32,0,.49h.22C73.86,72.87,73.85,72.71,73.85,72.54Z"/><path id="_Path_8" data-name="&lt;Path&gt;" class="cls-9" d="M108.68,68.44s0,0,0,0a97.92,97.92,0,0,1-11,3.22c-1,.25-1.89.51-2.86.7a78.63,78.63,0,0,1-9.49,1.06,199.61,199.61,0,0,1-26.67.33c0,.43,0,.87,0,1.28a24,24,0,0,1-3.17,0c-.16-.41-.22-.94-.36-1.37q-1.47.23-3,.39a33.07,33.07,0,0,0,2,5.27c4.37.12,8.74-.13,13.09-.31q3.09-.12,6.15-.28c.64-.17,1.14-.31,1.44-.42A36.1,36.1,0,0,1,99,76.63q3-.36,5.85-.8a23,23,0,0,1,3.82-7.39"/><path id="_Compound_Path_3" data-name="&lt;Compound Path&gt;" class="cls-9" d="M71.23,79.2c-5.53.31-11.25.36-17,.42a.26.26,0,0,0,0,.12,17,17,0,0,0,4.38.75c1.85,0,3.69-.08,5.53-.16a60.51,60.51,0,0,0,7-1.13m33.55-3.13c-1.64.32-3.32.58-5,.8a26.84,26.84,0,0,1,2.77,1.06l2.08-.12C104.62,77.2,104.74,76.55,104.78,76.07Z"/><path id="_Path_9" data-name="&lt;Path&gt;" class="cls-9" d="M75,51a.65.65,0,0,0-.83.68.81.81,0,0,0,.43.76c.87.33,1.34-1.23.4-1.44"/><g id="_Group_" data-name="&lt;Group&gt;"><path id="_Compound_Path_4" data-name="&lt;Compound Path&gt;" class="cls-3" d="M26.7,122.54H32l11.29,26.53H37.27l-2.4-5.9H23.73l-2.41,5.9H15.41Zm6.1,15.51-3.5-8.54-3.5,8.54Z"/><path id="_Compound_Path_5" data-name="&lt;Compound Path&gt;" class="cls-3" d="M47,122.73h5.8v10.43H63.52V122.73h5.8v26.34h-5.8V138.5H52.84v10.57H47Z"/><path id="_Compound_Path_6" data-name="&lt;Compound Path&gt;" class="cls-3" d="M81.21,128.08h-8v-5.35H95v5.35H87v21H81.21Z"/><path id="_Compound_Path_7" data-name="&lt;Compound Path&gt;" class="cls-3" d="M98.88,122.73h19.87v5.16H104.64v5.34h12.42v5.16H104.64v5.53h14.3v5.15H98.88Z"/><path id="_Compound_Path_8" data-name="&lt;Compound Path&gt;" class="cls-3" d="M146.73,149.07H141V131.8L129.5,149.07H124V122.73h5.72V140l11.59-17.27h5.38Zm-17.57-34,3.35-.6c.48,1.54,1.39,2.52,3,2.52s2.48-1,3-2.52l3.35.6c-.53,3.61-2.86,5.72-6.32,5.72S129.68,118.63,129.16,115Z"/></g></svg>