<svg xmlns="http://www.w3.org/2000/svg" viewBox="0 0 47.01 70.98"><defs><style>.cls-1{fill:#002e6d;}</style></defs><title>logo-rrf</title><g id="Layer_2" data-name="Layer 2"><g id="Layer_1-2" data-name="Layer 1"><path class="cls-1" d="M8.63,43.65v2.17h.23v.12H7.67v-.12h.21V40.73H7.67v-.12H8.8c.82,0,1,.89,1,1.61S9.43,43.65,8.63,43.65ZM9,41.07c0-.21,0-.34-.17-.34H8.63v2.79a.36.36,0,0,0,.4-.37Z"/><path class="cls-1" d="M14.42,41.06l-.73,4.28c-.09.48-.3.68-.52.68-.4,0-.6-.43-.6-.87,0-.26,0-.74.43-.74s.36.24.36.48-.15.47-.41.47a.34.34,0,0,1-.15,0,.16.16,0,0,0,0,.09.39.39,0,0,0,.4.41c.14,0,.34,0,.4-.5l.07-.53-1-4.06h-.21v-.12h1.16v.12h-.22l.54,2.55h0l.37-2.22c.05-.33-.12-.33-.27-.33v-.12h.74v.12C14.61,40.73,14.46,40.73,14.42,41.06Z"/><path class="cls-1" d="M18.38,46c-.78,0-1-1.08-1-1.74V42.22c0-.65.23-1.69,1-1.69.27,0,.43.2.54.44l.24-.36h.1v2.24h-.1c-.15-1.31-.55-2.2-.78-2.2a.21.21,0,0,0-.2.24v4.77a.2.2,0,0,0,.2.23c.74,0,.72-1.32.78-2.16h.1C19.22,44.56,19.29,46,18.38,46Z"/><path class="cls-1" d="M23.13,46c-.79,0-1-1.08-1-1.74V42.22c0-.65.22-1.69,1-1.69.26,0,.42.2.53.44l.24-.36H24v2.24H23.9c-.14-1.31-.55-2.2-.77-2.2a.21.21,0,0,0-.21.24v4.77a.21.21,0,0,0,.21.23c.74,0,.71-1.32.77-2.16H24C24,44.56,24,46,23.13,46Z"/><path class="cls-1" d="M28.24,45.94v-.12h.23l-.63-2.22h0v2.22H28v.12h-1.2v-.12h.23V40.73h-.23v-.12H28v.12h-.23v2.36h0L28.49,41a.26.26,0,0,0,0-.1c0-.11-.09-.2-.28-.2v-.12h.85v.12c-.18,0-.29.12-.36.3l-.46,1.35.94,3.44h.22v.12Z"/><path class="cls-1" d="M32.81,45.94v-.12H33l-.13-1h-.6l-.08.86c0,.09.11.17.26.17v.12h-.62v-.12a.19.19,0,0,0,.19-.16l.65-5h.45l.63,5.21H34v.12Zm-.21-3.61-.28,2.33h.56Z"/><path class="cls-1" d="M37.89,45.94v-.12h.21V43.23h-.21a.21.21,0,0,0-.21.24v1.92a.56.56,0,0,1-.57.63c-.57,0-.65-.43-.65-.91h.12c0,.29,0,.71.21.71s.15-.23.15-.41V44.05a.93.93,0,0,1,.68-.88,1.25,1.25,0,0,1-.72-1.28c0-.6.3-1.28,1-1.28h1.23v.12h-.23v5.09h.23v.12Zm.21-5.21h-.21a.2.2,0,0,0-.21.22v1.91a.21.21,0,0,0,.21.23h.21Z"/><path class="cls-1" d="M8.53,51.92V54.1h.23v.12H7.57V54.1h.22V49H7.57v-.12H8.7c.82,0,1,.89,1,1.61S9.33,51.92,8.53,51.92Zm.4-2.57c0-.21,0-.34-.17-.34H8.53V51.8a.35.35,0,0,0,.4-.37Z"/><path class="cls-1" d="M14.28,54.22H13.14V54.1h.22V49h-.22v-.12h1.19V49h-.22v2h.18c.65,0,1,.91,1,1.56S15.1,54.22,14.28,54.22Zm.26-2.74c0-.23-.17-.35-.43-.35v3h.17c.13,0,.26-.12.26-.33Zm.78,2.74V54.1h.23V49h-.23v-.12h1.2V49H16.3V54.1h.22v.12Z"/><path class="cls-1" d="M21.06,54.22H20V54.1h.22V49H20v-.12h2.08v2h-.13C21.85,50,21.69,49,21.37,49H21v2h.29c.77,0,.91.83.91,1.63S21.79,54.22,21.06,54.22Zm.31-2.79a.29.29,0,0,0-.26-.3H21v3h.2a.25.25,0,0,0,.22-.21Z"/><path class="cls-1" d="M26.86,54.22V54.1H27V51.52H26.6V54.1h.15v.12H25.62V54.1h.22V49h-.22v-.12h1.13V49H26.6v2.36H27V49h-.16v-.12H28V49h-.22V54.1H28v.12Z"/><path class="cls-1" d="M32.22,54.22V54.1h.22l-.13-1h-.6l-.07.85c0,.1.11.17.26.17v.12h-.61V54.1a.2.2,0,0,0,.18-.16l.64-5h.46l.63,5.21h.16v.12ZM32,50.62l-.28,2.32h.56Z"/><path class="cls-1" d="M38,54.22V54.1h.21V51.52H38a.21.21,0,0,0-.22.23v1.92a.56.56,0,0,1-.56.63c-.57,0-.66-.43-.66-.91h.12c0,.3,0,.71.21.71s.15-.23.15-.41V52.33a.94.94,0,0,1,.68-.88A1.26,1.26,0,0,1,37,50.17c0-.6.31-1.28,1-1.28h1.22V49H39V54.1h.23v.12ZM38.2,49H38a.22.22,0,0,0-.22.22v1.91a.23.23,0,0,0,.22.24h.21Z"/><path class="cls-1" d="M9.62,61.72v.66h.21v.12H8.65v-.12h.21v-.66c-.8,0-1.21-.86-1.21-1.51v-1c0-.9.46-1.52,1.21-1.52v-.44H8.65v-.12H9.83v.12H9.62v.44c.76,0,1.21.62,1.21,1.52v1C10.83,60.86,10.42,61.72,9.62,61.72Zm-.76-3.88c-.35,0-.41.17-.41.37v3a.36.36,0,0,0,.41.38Zm1.17.37c0-.2-.06-.37-.41-.37v3.77c.26,0,.41-.13.41-.38Z"/><path class="cls-1" d="M13.45,62.5v-.12h.23l-.13-1h-.61l-.07.86c0,.09.11.16.26.16v.12h-.62v-.12a.19.19,0,0,0,.19-.16l.64-5h.46l.63,5.21h.17v.12Zm-.2-3.6L13,61.22h.56Z"/><path class="cls-1" d="M17.68,62.5v-.12h.23l-.63-2.22h0v2.22h.22v.12H16.28v-.12h.22V57.29h-.22v-.12h1.19v.12h-.22v2.37h0l.67-2.06a.89.89,0,0,0,0-.11c0-.1-.09-.2-.28-.2v-.12h.85v.12a.38.38,0,0,0-.36.31l-.46,1.34.94,3.44h.22v.12Z"/><path class="cls-1" d="M22.62,59.45c0-.79-.26-2.16-.64-2.16v5.09h.21v.12H21v-.12h.21V57.29c-.33,0-.63,1.37-.63,2.16h-.13V57.17h2.27v2.28Z"/><path class="cls-1" d="M25.53,62.58c-.78,0-1-1.08-1-1.73V58.78c0-.64.24-1.69,1-1.69.92,0,1,1,1,1.69v2.07C26.53,61.53,26.38,62.58,25.53,62.58Zm.22-5.12c0-.17-.09-.24-.22-.24a.21.21,0,0,0-.22.24v4.76a.22.22,0,0,0,.22.24.21.21,0,0,0,.22-.24Z"/><path class="cls-1" d="M29.36,60.21v2.17h.24v.12H28.4v-.12h.22V57.29H28.4v-.12h1.14c.81,0,1,.9,1,1.61S30.16,60.21,29.36,60.21Zm.4-2.58c0-.21,0-.34-.16-.34h-.24v2.8a.35.35,0,0,0,.4-.38Z"/><path class="cls-1" d="M33.61,62.5v-.12h.16V58.66L33,62.58h-.41V57.29h-.23v-.12H33.5v.12h-.16v2.89l.55-3h.85v.12h-.22v5.09h.22v.12Z"/><path class="cls-1" d="M37.91,62.5v-.12h.21V59.8h-.21a.21.21,0,0,0-.22.23V62a.56.56,0,0,1-.56.63c-.57,0-.66-.43-.66-.91h.12c0,.3,0,.71.21.71s.16-.23.16-.4V60.61a.93.93,0,0,1,.67-.88,1.25,1.25,0,0,1-.72-1.28c0-.6.3-1.28,1-1.28H39.1v.12h-.22v5.09h.22v.12Zm.21-5.21h-.21a.21.21,0,0,0-.22.22v1.91a.22.22,0,0,0,.22.24h.21Z"/><rect class="cls-1" x="6.84" y="38.77" width="33.01" height="0.32"/><rect class="cls-1" x="6.84" y="47.44" width="33.01" height="0.32"/><rect class="cls-1" x="6.84" y="55.48" width="33.01" height="0.32"/><rect class="cls-1" x="6.84" y="63.96" width="33.01" height="0.32"/><path class="cls-1" d="M42.62,4.06H4.07V66.92H42.94V4.06Zm-.32.64V66.29H4.71V4.7Z"/><path class="cls-1" d="M46.85,0H0V71H47V0Zm-.16.32V70.67H.31V.32Z"/><path class="cls-1" d="M43.82,3H3.2V68H44V3Zm-.16.31v64.3H3.52V3.34Z"/><rect class="cls-1" x="1.15" y="1.15" width="0.26" height="1.91"/><rect class="cls-1" x="2.08" y="1.15" width="0.25" height="1.91"/><rect class="cls-1" x="3.01" y="1.15" width="0.25" height="1.91"/><rect class="cls-1" x="3.94" y="1.15" width="0.25" height="1.91"/><rect class="cls-1" x="4.87" y="1.15" width="0.26" height="1.91"/><rect class="cls-1" x="5.8" y="1.15" width="0.26" height="1.91"/><rect class="cls-1" x="6.72" y="1.15" width="0.26" height="1.91"/><rect class="cls-1" x="7.66" y="1.15" width="0.26" height="1.91"/><rect class="cls-1" x="8.59" y="1.15" width="0.25" height="1.91"/><rect class="cls-1" x="9.51" y="1.15" width="0.26" height="1.91"/><rect class="cls-1" x="10.45" y="1.15" width="0.25" height="1.91"/><rect class="cls-1" x="11.38" y="1.15" width="0.26" height="1.91"/><rect class="cls-1" x="12.31" y="1.15" width="0.25" height="1.91"/><rect class="cls-1" x="13.24" y="1.15" width="0.25" height="1.91"/><rect class="cls-1" x="14.16" y="1.15" width="0.26" height="1.91"/><rect class="cls-1" x="15.1" y="1.15" width="0.25" height="1.91"/><rect class="cls-1" x="16.02" y="1.15" width="0.25" height="1.91"/><rect class="cls-1" x="16.95" y="1.15" width="0.25" height="1.91"/><rect class="cls-1" x="17.88" y="1.15" width="0.26" height="1.91"/><rect class="cls-1" x="18.81" y="1.15" width="0.26" height="1.91"/><rect class="cls-1" x="19.75" y="1.15" width="0.25" height="1.91"/><rect class="cls-1" x="20.68" y="1.15" width="0.25" height="1.91"/><rect class="cls-1" x="21.6" y="1.15" width="0.25" height="1.91"/><rect class="cls-1" x="22.54" y="1.15" width="0.25" height="1.91"/><rect class="cls-1" x="23.46" y="1.15" width="0.26" height="1.91"/><rect class="cls-1" x="24.38" y="1.15" width="0.26" height="1.91"/><rect class="cls-1" x="25.32" y="1.15" width="0.26" height="1.91"/><rect class="cls-1" x="26.25" y="1.15" width="0.25" height="1.91"/><rect class="cls-1" x="27.18" y="1.15" width="0.26" height="1.91"/><rect class="cls-1" x="28.12" y="1.15" width="0.25" height="1.91"/><rect class="cls-1" x="29.04" y="1.15" width="0.25" height="1.91"/><rect class="cls-1" x="29.97" y="1.15" width="0.25" height="1.91"/><rect class="cls-1" x="30.9" y="1.15" width="0.26" height="1.91"/><rect class="cls-1" x="31.83" y="1.15" width="0.26" height="1.91"/><rect class="cls-1" x="32.76" y="1.15" width="0.26" height="1.91"/><rect class="cls-1" x="33.69" y="1.15" width="0.25" height="1.91"/><rect class="cls-1" x="34.62" y="1.15" width="0.26" height="1.91"/><rect class="cls-1" x="35.55" y="1.15" width="0.26" height="1.91"/><rect class="cls-1" x="36.48" y="1.15" width="0.26" height="1.91"/><rect class="cls-1" x="37.41" y="1.15" width="0.25" height="1.91"/><rect class="cls-1" x="38.34" y="1.15" width="0.25" height="1.91"/><rect class="cls-1" x="39.27" y="1.15" width="0.26" height="1.91"/><rect class="cls-1" x="40.2" y="1.15" width="0.25" height="1.91"/><rect class="cls-1" x="41.13" y="1.15" width="0.26" height="1.91"/><rect class="cls-1" x="42.06" y="1.15" width="0.26" height="1.91"/><rect class="cls-1" x="42.99" y="1.15" width="0.25" height="1.91"/><rect class="cls-1" x="43.91" y="1.15" width="0.26" height="1.91"/><rect class="cls-1" x="44.84" y="1.15" width="0.26" height="1.91"/><rect class="cls-1" x="45.78" y="1.15" width="0.25" height="1.91"/><rect class="cls-1" x="1.22" y="47.93" width="1.92" height="0.25"/><rect class="cls-1" x="1.22" y="47.01" width="1.92" height="0.25"/><rect class="cls-1" x="1.22" y="46.08" width="1.92" height="0.25"/><rect class="cls-1" x="1.22" y="45.16" width="1.92" height="0.26"/><rect class="cls-1" x="1.22" y="44.23" width="1.92" height="0.25"/><rect class="cls-1" x="1.22" y="43.31" width="1.92" height="0.26"/><rect class="cls-1" x="1.22" y="42.38" width="1.92" height="0.26"/><rect class="cls-1" x="1.22" y="41.46" width="1.92" height="0.25"/><rect class="cls-1" x="1.22" y="40.53" width="1.92" height="0.25"/><rect class="cls-1" x="1.22" y="39.61" width="1.92" height="0.25"/><rect class="cls-1" x="1.22" y="38.68" width="1.92" height="0.25"/><rect class="cls-1" x="1.22" y="37.76" width="1.92" height="0.25"/><rect class="cls-1" x="1.22" y="36.83" width="1.92" height="0.25"/><rect class="cls-1" x="1.22" y="35.9" width="1.92" height="0.26"/><rect class="cls-1" x="1.22" y="34.98" width="1.92" height="0.25"/><rect class="cls-1" x="1.22" y="34.05" width="1.92" height="0.26"/><rect class="cls-1" x="1.22" y="33.13" width="1.92" height="0.25"/><rect class="cls-1" x="1.22" y="32.2" width="1.92" height="0.26"/><rect class="cls-1" x="1.22" y="31.28" width="1.92" height="0.25"/><rect class="cls-1" x="1.22" y="30.35" width="1.92" height="0.25"/><rect class="cls-1" x="1.22" y="29.43" width="1.92" height="0.26"/><rect class="cls-1" x="1.22" y="28.5" width="1.92" height="0.26"/><rect class="cls-1" x="1.22" y="27.58" width="1.92" height="0.25"/><rect class="cls-1" x="1.22" y="26.65" width="1.92" height="0.25"/><rect class="cls-1" x="1.22" y="25.73" width="1.92" height="0.25"/><rect class="cls-1" x="1.22" y="24.8" width="1.92" height="0.25"/><rect class="cls-1" x="1.22" y="23.87" width="1.92" height="0.26"/><rect class="cls-1" x="1.22" y="22.95" width="1.92" height="0.26"/><rect class="cls-1" x="1.22" y="22.02" width="1.92" height="0.26"/><rect class="cls-1" x="1.22" y="21.1" width="1.92" height="0.26"/><rect class="cls-1" x="1.22" y="20.17" width="1.92" height="0.26"/><rect class="cls-1" x="1.22" y="19.25" width="1.92" height="0.25"/><rect class="cls-1" x="1.22" y="18.32" width="1.92" height="0.26"/><rect class="cls-1" x="1.22" y="17.4" width="1.92" height="0.26"/><rect class="cls-1" x="1.22" y="16.47" width="1.92" height="0.25"/><rect class="cls-1" x="1.22" y="15.54" width="1.92" height="0.26"/><rect class="cls-1" x="1.22" y="14.62" width="1.92" height="0.25"/><rect class="cls-1" x="1.22" y="13.7" width="1.92" height="0.25"/><rect class="cls-1" x="1.22" y="12.77" width="1.92" height="0.26"/><rect class="cls-1" x="1.22" y="11.85" width="1.92" height="0.26"/><rect class="cls-1" x="1.22" y="10.92" width="1.92" height="0.25"/><rect class="cls-1" x="1.22" y="10" width="1.92" height="0.25"/><rect class="cls-1" x="1.22" y="9.07" width="1.92" height="0.26"/><rect class="cls-1" x="1.22" y="8.15" width="1.92" height="0.25"/><rect class="cls-1" x="1.22" y="7.22" width="1.92" height="0.26"/><rect class="cls-1" x="1.22" y="6.3" width="1.92" height="0.25"/><rect class="cls-1" x="1.22" y="5.37" width="1.92" height="0.25"/><rect class="cls-1" x="1.22" y="4.44" width="1.92" height="0.26"/><rect class="cls-1" x="1.22" y="3.52" width="1.92" height="0.26"/><rect class="cls-1" x="1.22" y="67.33" width="1.92" height="0.26"/><rect class="cls-1" x="1.22" y="66.41" width="1.92" height="0.25"/><rect class="cls-1" x="1.22" y="65.49" width="1.92" height="0.25"/><rect class="cls-1" x="1.22" y="64.56" width="1.92" height="0.25"/><rect class="cls-1" x="1.22" y="63.63" width="1.92" height="0.26"/><rect class="cls-1" x="1.22" y="62.71" width="1.92" height="0.26"/><rect class="cls-1" x="1.22" y="61.78" width="1.92" height="0.25"/><rect class="cls-1" x="1.22" y="60.86" width="1.92" height="0.26"/><rect class="cls-1" x="1.22" y="59.93" width="1.92" height="0.26"/><rect class="cls-1" x="1.22" y="59.01" width="1.92" height="0.25"/><rect class="cls-1" x="1.22" y="58.08" width="1.92" height="0.25"/><rect class="cls-1" x="1.22" y="57.15" width="1.92" height="0.25"/><rect class="cls-1" x="1.22" y="56.23" width="1.92" height="0.26"/><rect class="cls-1" x="1.22" y="55.31" width="1.92" height="0.25"/><rect class="cls-1" x="1.22" y="54.38" width="1.92" height="0.26"/><rect class="cls-1" x="1.22" y="53.45" width="1.92" height="0.26"/><rect class="cls-1" x="1.22" y="52.53" width="1.92" height="0.25"/><rect class="cls-1" x="1.22" y="51.6" width="1.92" height="0.26"/><rect class="cls-1" x="1.22" y="50.68" width="1.92" height="0.26"/><rect class="cls-1" x="1.22" y="49.75" width="1.92" height="0.25"/><rect class="cls-1" x="1.22" y="48.83" width="1.92" height="0.25"/><rect class="cls-1" x="43.93" y="47.93" width="1.91" height="0.25"/><rect class="cls-1" x="43.93" y="47.01" width="1.91" height="0.25"/><rect class="cls-1" x="43.93" y="46.08" width="1.91" height="0.25"/><rect class="cls-1" x="43.93" y="45.16" width="1.91" height="0.26"/><rect class="cls-1" x="43.93" y="44.23" width="1.91" height="0.25"/><rect class="cls-1" x="43.93" y="43.31" width="1.91" height="0.26"/><rect class="cls-1" x="43.93" y="42.38" width="1.91" height="0.26"/><rect class="cls-1" x="43.93" y="41.46" width="1.91" height="0.25"/><rect class="cls-1" x="43.93" y="40.53" width="1.91" height="0.25"/><rect class="cls-1" x="43.93" y="39.61" width="1.91" height="0.25"/><rect class="cls-1" x="43.93" y="38.68" width="1.91" height="0.25"/><rect class="cls-1" x="43.93" y="37.76" width="1.91" height="0.25"/><rect class="cls-1" x="43.93" y="36.83" width="1.91" height="0.25"/><rect class="cls-1" x="43.93" y="35.9" width="1.91" height="0.26"/><rect class="cls-1" x="43.93" y="34.98" width="1.91" height="0.25"/><rect class="cls-1" x="43.93" y="34.05" width="1.91" height="0.26"/><rect class="cls-1" x="43.93" y="33.13" width="1.91" height="0.25"/><rect class="cls-1" x="43.93" y="32.2" width="1.91" height="0.26"/><rect class="cls-1" x="43.93" y="31.28" width="1.91" height="0.25"/><rect class="cls-1" x="43.93" y="30.35" width="1.91" height="0.25"/><rect class="cls-1" x="43.93" y="29.43" width="1.91" height="0.26"/><rect class="cls-1" x="43.93" y="28.5" width="1.91" height="0.26"/><rect class="cls-1" x="43.93" y="27.58" width="1.91" height="0.25"/><rect class="cls-1" x="43.93" y="26.65" width="1.91" height="0.25"/><rect class="cls-1" x="43.93" y="25.73" width="1.91" height="0.25"/><rect class="cls-1" x="43.93" y="24.8" width="1.91" height="0.25"/><rect class="cls-1" x="43.93" y="23.87" width="1.91" height="0.26"/><rect class="cls-1" x="43.93" y="22.95" width="1.91" height="0.26"/><rect class="cls-1" x="43.93" y="22.02" width="1.91" height="0.26"/><rect class="cls-1" x="43.93" y="21.1" width="1.91" height="0.26"/><rect class="cls-1" x="43.93" y="20.17" width="1.91" height="0.26"/><rect class="cls-1" x="43.93" y="19.25" width="1.91" height="0.25"/><rect class="cls-1" x="43.93" y="18.32" width="1.91" height="0.26"/><rect class="cls-1" x="43.93" y="17.4" width="1.91" height="0.26"/><rect class="cls-1" x="43.93" y="16.47" width="1.91" height="0.25"/><rect class="cls-1" x="43.93" y="15.54" width="1.91" height="0.26"/><rect class="cls-1" x="43.93" y="14.62" width="1.91" height="0.25"/><rect class="cls-1" x="43.93" y="13.7" width="1.91" height="0.25"/><rect class="cls-1" x="43.93" y="12.77" width="1.91" height="0.26"/><rect class="cls-1" x="43.93" y="11.85" width="1.91" height="0.26"/><rect class="cls-1" x="43.93" y="10.92" width="1.91" height="0.25"/><rect class="cls-1" x="43.93" y="10" width="1.91" height="0.25"/><rect class="cls-1" x="43.93" y="9.07" width="1.91" height="0.26"/><rect class="cls-1" x="43.93" y="8.15" width="1.91" height="0.25"/><rect class="cls-1" x="43.93" y="7.22" width="1.91" height="0.26"/><rect class="cls-1" x="43.93" y="6.3" width="1.91" height="0.25"/><rect class="cls-1" x="43.93" y="5.37" width="1.91" height="0.25"/><rect class="cls-1" x="43.93" y="4.44" width="1.91" height="0.26"/><rect class="cls-1" x="43.93" y="3.52" width="1.91" height="0.26"/><rect class="cls-1" x="43.93" y="67.33" width="1.91" height="0.26"/><rect class="cls-1" x="43.93" y="66.41" width="1.91" height="0.25"/><rect class="cls-1" x="43.93" y="65.49" width="1.91" height="0.25"/><rect class="cls-1" x="43.93" y="64.56" width="1.91" height="0.25"/><rect class="cls-1" x="43.93" y="63.63" width="1.91" height="0.26"/><rect class="cls-1" x="43.93" y="62.71" width="1.91" height="0.26"/><rect class="cls-1" x="43.93" y="61.78" width="1.91" height="0.25"/><rect class="cls-1" x="43.93" y="60.86" width="1.91" height="0.26"/><rect class="cls-1" x="43.93" y="59.93" width="1.91" height="0.26"/><rect class="cls-1" x="43.93" y="59.01" width="1.91" height="0.25"/><rect class="cls-1" x="43.93" y="58.08" width="1.91" height="0.25"/><rect class="cls-1" x="43.93" y="57.15" width="1.91" height="0.25"/><rect class="cls-1" x="43.93" y="56.23" width="1.91" height="0.26"/><rect class="cls-1" x="43.93" y="55.31" width="1.91" height="0.25"/><rect class="cls-1" x="43.93" y="54.38" width="1.91" height="0.26"/><rect class="cls-1" x="43.93" y="53.45" width="1.91" height="0.26"/><rect class="cls-1" x="43.93" y="52.53" width="1.91" height="0.25"/><rect class="cls-1" x="43.93" y="51.6" width="1.91" height="0.26"/><rect class="cls-1" x="43.93" y="50.68" width="1.91" height="0.26"/><rect class="cls-1" x="43.93" y="49.75" width="1.91" height="0.25"/><rect class="cls-1" x="43.93" y="48.83" width="1.91" height="0.25"/><rect class="cls-1" x="1.15" y="67.94" width="0.26" height="1.91"/><rect class="cls-1" x="2.08" y="67.94" width="0.25" height="1.91"/><rect class="cls-1" x="3.01" y="67.94" width="0.25" height="1.91"/><rect class="cls-1" x="3.94" y="67.94" width="0.25" height="1.91"/><rect class="cls-1" x="4.87" y="67.94" width="0.26" height="1.91"/><rect class="cls-1" x="5.8" y="67.94" width="0.26" height="1.91"/><rect class="cls-1" x="6.72" y="67.94" width="0.26" height="1.91"/><rect class="cls-1" x="7.66" y="67.94" width="0.26" height="1.91"/><rect class="cls-1" x="8.59" y="67.94" width="0.25" height="1.91"/><rect class="cls-1" x="9.51" y="67.94" width="0.26" height="1.91"/><rect class="cls-1" x="10.45" y="67.94" width="0.25" height="1.91"/><rect class="cls-1" x="11.38" y="67.94" width="0.26" height="1.91"/><rect class="cls-1" x="12.31" y="67.94" width="0.25" height="1.91"/><rect class="cls-1" x="13.24" y="67.94" width="0.25" height="1.91"/><rect class="cls-1" x="14.16" y="67.94" width="0.26" height="1.91"/><rect class="cls-1" x="15.1" y="67.94" width="0.25" height="1.91"/><rect class="cls-1" x="16.02" y="67.94" width="0.25" height="1.91"/><rect class="cls-1" x="16.95" y="67.94" width="0.25" height="1.91"/><rect class="cls-1" x="17.88" y="67.94" width="0.26" height="1.91"/><rect class="cls-1" x="18.81" y="67.94" width="0.26" height="1.91"/><rect class="cls-1" x="19.75" y="67.94" width="0.25" height="1.91"/><rect class="cls-1" x="20.68" y="67.94" width="0.25" height="1.91"/><rect class="cls-1" x="21.6" y="67.94" width="0.25" height="1.91"/><rect class="cls-1" x="22.54" y="67.94" width="0.25" height="1.91"/><rect class="cls-1" x="23.46" y="67.94" width="0.26" height="1.91"/><rect class="cls-1" x="24.38" y="67.94" width="0.26" height="1.91"/><rect class="cls-1" x="25.32" y="67.94" width="0.26" height="1.91"/><rect class="cls-1" x="26.25" y="67.94" width="0.25" height="1.91"/><rect class="cls-1" x="27.18" y="67.94" width="0.26" height="1.91"/><rect class="cls-1" x="28.12" y="67.94" width="0.25" height="1.91"/><rect class="cls-1" x="29.04" y="67.94" width="0.25" height="1.91"/><rect class="cls-1" x="29.97" y="67.94" width="0.25" height="1.91"/><rect class="cls-1" x="30.9" y="67.94" width="0.26" height="1.91"/><rect class="cls-1" x="31.83" y="67.94" width="0.26" height="1.91"/><rect class="cls-1" x="32.76" y="67.94" width="0.26" height="1.91"/><rect class="cls-1" x="33.69" y="67.94" width="0.25" height="1.91"/><rect class="cls-1" x="34.62" y="67.94" width="0.26" height="1.91"/><rect class="cls-1" x="35.55" y="67.94" width="0.26" height="1.91"/><rect class="cls-1" x="36.48" y="67.94" width="0.26" height="1.91"/><rect class="cls-1" x="37.41" y="67.94" width="0.25" height="1.91"/><rect class="cls-1" x="38.34" y="67.94" width="0.25" height="1.91"/><rect class="cls-1" x="39.27" y="67.94" width="0.26" height="1.91"/><rect class="cls-1" x="40.2" y="67.94" width="0.25" height="1.91"/><rect class="cls-1" x="41.13" y="67.94" width="0.26" height="1.91"/><rect class="cls-1" x="42.06" y="67.94" width="0.26" height="1.91"/><rect class="cls-1" x="42.99" y="67.94" width="0.25" height="1.91"/><rect class="cls-1" x="43.91" y="67.94" width="0.26" height="1.91"/><rect class="cls-1" x="44.84" y="67.94" width="0.26" height="1.91"/><rect class="cls-1" x="45.78" y="67.94" width="0.25" height="1.91"/><path class="cls-1" d="M18.11,27.33l0,.05h0Z"/><path class="cls-1" d="M40.58,14.74l1.28.42.21-.42-3.74-1.57V6.06h-.51V13L34.3,11.46V6.06H33V7.64l-1.24,2.77-4.84-2V9a7,7,0,0,0,2.77,2.44,5.47,5.47,0,0,0,1.43.42L30,14.52c0-.14-.07-.44-.12-.37.38-.43-.32-.29-.54-.09a.55.55,0,0,0,0,.88c-.11-.07-.89.47-.94.61s-.31.25-.29.55c.34.11.65.2.65.61a4.77,4.77,0,0,1-.41,1.35c-.07.14-.23.28-.33.44a4.6,4.6,0,0,0-.47.87,1,1,0,0,1,.24.11L26.5,22.29l-.62-2v-3H21.19v2.85l-1.72,4L18.2,22.82l-.8-3.64a3.48,3.48,0,0,0,1.55-.3l1.28.43.22-.43L17,17.43,14.43,5.86l-.15,0,2.54,11.45L11.5,15.11v-9h-.64v8.78L5.32,12.51v.64a7,7,0,0,0,2.77,2.44,6.88,6.88,0,0,0,2.77.53v0L6.45,27.26l.16.06,4.25-10.73V32.26h.64V30a1.07,1.07,0,0,0,.73.15,1.2,1.2,0,0,1-.07,1.15c0,.14-.07.5-.11.7.13.08.55.32.53.32a7,7,0,0,1,1.9-.2l-.42-.42c.07,0-.27-.05-.52-.12a1.8,1.8,0,0,0-.29-1.27,3.28,3.28,0,0,1,1.25,0l.42,1.82.16,0-.41-1.77h.09a.74.74,0,0,0-.12-.13l-.48-2.11a.35.35,0,0,0,.2-.32.33.33,0,0,0-.33-.33h0L11.5,16.58V16.3l6.11,10.6a.32.32,0,0,0-.13.26.34.34,0,0,0,.34.34.27.27,0,0,0,.12,0l.06.1-1.11,2.57c-.16,0-.32.08-.47.31,0-.27-.19-.39-.26-.61a2,2,0,0,0-.38.1c-.08.43.09.74.49.8-.2.06-.35.22-.6.26-.08.54-.52.76-.64,1.25.33,0,.65,0,1,0l-.24.55H6.81v3.7H26l7.19-3.7H29.79L29,30.34,29.3,29a.32.32,0,0,0,.32-.33.34.34,0,0,0-.19-.3L30.15,25c.79,0,1-.23,1-.23a3.57,3.57,0,0,0,1.92.13v7.41H34.3V24.48a4.94,4.94,0,0,0,1.59-1.35,4.17,4.17,0,0,0,1.72.26l.21.67v7.66c-.11-.34-.32-.64-.72-.6.08-.54-.68-1.48-1.18-.67,0-.27-.2-.39-.27-.61a2.15,2.15,0,0,0-.38.1c-.08.43.09.74.49.8a3.73,3.73,0,0,1-.6.26c-.08.54-.53.76-.64,1.25a19.07,19.07,0,0,0,3.29-.2h0v.2h.51V25.73l1.07,3.42a.33.33,0,0,0,.19.61h0l.78,2.48.15-.05-.77-2.47a.34.34,0,0,0,.17-.29.34.34,0,0,0-.33-.34h0l-1.23-3.91V23.29A7.64,7.64,0,0,0,41,21.54l-.65.21-2,.65v-.46l3.32-.61.1-.54-3.42.63V15A3.62,3.62,0,0,0,40.58,14.74ZM13.85,27.51a.33.33,0,0,0-.17.28.35.35,0,0,0,.31.34L14.43,30a2.46,2.46,0,0,0-.86-.42s.06,0,0,.09c-.49,0-.91-.33-.75-.8-.34-.18-.5-.15-.82.11.08.08.21.29.29.37a1.22,1.22,0,0,1-.84.05V17.31ZM32,10.29l.84.17-.14.34-.78-.33ZM30.27,18a2.65,2.65,0,0,0,1-.89c.48-.81,0-.85-.51-.91l.55-1.38a1.38,1.38,0,0,0,.29-.17c.11-.08.13-.25.22-.33s.27-.08.38-.15a.09.09,0,0,1,.06,0l-1.86,8.78-2.49.46,2-5c.25.11.58.09.69-.14A.38.38,0,0,1,30.27,18Zm.55-2.34-.21.52c-.34-.06-.62-.17-.45-.64v0Zm-.56-.26a1.67,1.67,0,0,1,.86-.5l-.25.63Zm1.87-1.68a1.11,1.11,0,0,0-.43.17L32.44,12h.28l-.36,1.72C32.3,13.64,32.22,13.66,32.13,13.67Zm-.83-1.78a6.54,6.54,0,0,0,1,.08l-.26.65-.93-.2Zm-.29.66.94.19-.28.72-1-.21Zm-.37.83,1,.21-.15.39-.35.23-.77-.16Zm-.35.8.67.14a1.79,1.79,0,0,1-.33.18,1.16,1.16,0,0,1-.54.13Zm-.91,3.2a2.85,2.85,0,0,1,.86-.3l0,.09a2.24,2.24,0,0,0-.56.72l-.45-.09A1.18,1.18,0,0,1,29.38,17.38Zm-.29.71a1.07,1.07,0,0,0,.06-.17l.5.11a.4.4,0,0,0,.14.18l-.23.57,0-.06-.78-.17A4.43,4.43,0,0,0,29.09,18.09Zm-1.22,1.52.15,0a.36.36,0,0,0,.18,0l.92.2,0-.14-.73-.15a.2.2,0,0,0,.07-.06.37.37,0,0,0,0-.14c0,.07-.16,0-.32-.1l-.09,0,.14-.31c.13-.11.35-.13.51-.26l.84.18-.8,2-1.29-.27Zm-.49,1.11,1.3.27-.36.92L27,21.62Zm-.46,1,1.35.28-.34.86-1.32-.28,0-.09ZM27.31,24l.18,0v-.07h0l-.28.71L27,23.91l.25.05v0Zm0-.52v.37l-.3-.06-.31-1,1.23.26-.14.34Zm-.48.27-.68-.14.38-.84Zm-.9-2.88.52,1.67-.52,1.18Zm0,3.25.21-.47,0,.09.76.16.31,1-1.26-.27Zm0,.65,1.21.26-.34.86-.87-.19Zm0,1.08.82.17-.82,2.07M21.81,18l2.65-.16-2.65.62Zm0,.77,2.65-.15-2.65.62Zm0,.78,2.65-.16L21.81,20Zm0,.77,2.65-.15-2.65.62Zm0,.78,2.65-.16-2.65.62Zm0,.77,2.65-.15-2.65.62Zm0,.78,2.65-.16-2.65.62Zm0,.77,2.65-.15-2.65.62Zm0,.78L24.46,24l-2.65.62Zm0,.77,2.65-.16-2.65.63Zm0,.78,2.65-.16-2.65.62Zm0,.77,2.65-.15L21.81,27Zm0,.78,2.65-.16-2.65.62Zm0,.77,2.65-.15-2.65.62Zm0,.78,2.65-.16-2.65.62Zm0,.77,2.65-.16-2.65.63Zm0,.77,2.65-.15-2.65.62Zm0,.78L24.46,31l-2.65.62Zm0,.78,2.65-.16-2.65.62Zm-.62-11.36v5.36L19.6,24.27Zm-1.78,3.74-.58,1.33-.55-2.52Zm.26,5.83-1.49-2.58.6-1.4ZM12.46,16a17.18,17.18,0,0,0,3.41,2.77,3.4,3.4,0,0,0,1.35.39L18,22.59l-6.23-6.5A6.88,6.88,0,0,0,12.46,16Zm5.36,10.81h-.06L11.62,16.18l6.44,6.72.67,3-.59,1.35a.29.29,0,0,0,0-.09A.34.34,0,0,0,17.82,26.82Zm.29.51,0,.06h0Zm-2.19,5.48.24-.56c.71,0,1.38-.14,2.16-.2l.1.1c-.07-.48-.25-1.09-.81-1a1,1,0,0,0-.55-.95l1-2.42,1.68,2.92.32,1.43.17,0-.22-.92.66,1.15.15-.08-.92-1.6-1-4.7.63-1.48,1.66,1.74v6.3h4.69v-4l1.34-3.38,1.63,5.21-.52,2.47Zm14.29-8.89L30,24a3,3,0,0,1-1.81.21l.33.64,1.16.11H30l-.72,3.38a.35.35,0,0,0-.33.34.36.36,0,0,0,.2.31l-.22,1-1.6-5.13.39-1,2.6-.48ZM33,23.51c-.92,0-1.81,0-1.81,0l-.82.3.09-.47L33,22.92Zm0-1.11-2.42.44L32.89,12H33Zm0-11.82L33,10.9l-.08,0,.15-.36Zm0-.51-.11.27-.84-.18L33,8Zm1.28,2.71,2.76,8.87-2.76.51Zm3.09,9.93a2.28,2.28,0,0,1-1.71-.11,2.46,2.46,0,0,1-.75.63,1.93,1.93,0,0,1-.63.16v-.71l2.91-.54.18.56Zm.43.81,0-.14h0Zm0-1-.27.09-.17-.54.44-.08Zm0-1-.6.1L34.3,12.24v-.15a15.33,15.33,0,0,0,3.19,2.54l.33.16Z"/><polygon class="cls-1" points="30.96 36.51 39.83 36.51 39.83 32.81 36.63 32.81 30.96 36.51"/></g></g></svg>