<svg xmlns="http://www.w3.org/2000/svg" viewBox="0 0 102.53 108.78"><defs><style>.cls-1{fill:#dae4e8;}.cls-2{fill:#ebf2f5;}.cls-10,.cls-3{fill:#294180;}.cls-4{fill:#fff;}.cls-5{fill:#d3281d;}.cls-6{fill:#e8eff4;}.cls-7{fill:#13509b;}.cls-8{fill:#c81918;}.cls-9{fill:#dee5ea;}.cls-10{fill-rule:evenodd;}</style></defs><title>logo-vopros</title><g id="Layer_2" data-name="Layer 2"><g id="Layer_1-2" data-name="Layer 1"><circle class="cls-1" cx="51.27" cy="57.52" r="51.27"/><circle class="cls-2" cx="51.27" cy="51.27" r="51.27"/><path class="cls-3" d="M51.41,10.55,84.19,51H18.34l32.92-40.6Zm32,40.05-16-19.76L51.26,11,19.12,50.6Z"/><polygon class="cls-4" points="67.39 30.84 83.42 50.6 19.11 50.6 51.26 10.95 67.39 30.84"/><path id="_Path_" data-name="&lt;Path&gt;" class="cls-3" d="M31.19,36.76c3.06,7.45,13,5.77,21.33,3.05,6.51-2.12,13-4.25,17.69-1-3.11-.47-8.12,1.46-13.55,3.39C46.35,45.82,33.22,49,31.19,36.76"/><path id="_Path_2" data-name="&lt;Path&gt;" class="cls-5" d="M69.94,41.47c-3.7-1.57-8.83.69-14.48,2.94-4.93,2-10.26,3.93-15.39,3.36,14.16,4.11,21.12-5.57,29.87-6.3"/><path id="_Path_3" data-name="&lt;Path&gt;" class="cls-6" d="M59.8,37c-2.83-.2-6,.93-9.2,2.06-6.19,2.16-12.74,4.32-18.16-2.84,5.75,4.79,11,3.1,15.84,1.4,4-1.38,7.79-2.77,11.52-.62"/><path id="_Path_4" data-name="&lt;Path&gt;" class="cls-7" d="M40.63,44.1h0c3.73,0,7.95-1.37,12-2.7s8.14-2.66,11.73-2.66a12.62,12.62,0,0,1,2,.15,13.81,13.81,0,0,1,2.83-.35h.35a10,10,0,0,0-5.16-1.27c-3.59,0-7.73,1.35-11.73,2.66s-8.29,2.7-12,2.7h0a10,10,0,0,1-8.74-4.35,12.77,12.77,0,0,0,1.81,3.45,10.26,10.26,0,0,0,6.93,2.36"/><path id="_Path_5" data-name="&lt;Path&gt;" class="cls-8" d="M46.11,48.57A53,53,0,0,0,57.9,44.89a47.53,47.53,0,0,1,8.4-2.81,16.89,16.89,0,0,1,3-.71,7.1,7.1,0,0,0-2-.27c-3,0-6.64,1.47-10.52,3C52.17,45.94,47,48,42.05,48h-.12a23.53,23.53,0,0,0,4.18.56"/><path id="_Path_6" data-name="&lt;Path&gt;" class="cls-9" d="M40.51,40.23a25,25,0,0,0,8.12-1.83,22,22,0,0,1,6.95-1.64,8.12,8.12,0,0,1,1.73.18,12.34,12.34,0,0,1,1.8-.14A8,8,0,0,0,55.58,36a22,22,0,0,0-6.95,1.63,25.06,25.06,0,0,1-8.12,1.84,12.09,12.09,0,0,1-6.86-2.15,12.4,12.4,0,0,0,2.38,2,11.8,11.8,0,0,0,4.48.87"/><path id="_Compound_Path_" data-name="&lt;Compound Path&gt;" class="cls-10" d="M47.57,20.1c0,.64,0,1.29,0,1.93.39-.43.83.45.34.6a.55.55,0,0,1-.33-.07,2.42,2.42,0,0,0,0,.39l1.7,0s.18-.05.19.06c-.59.08-1.29,0-1.9.06,0,.24,0,.52,0,.74l1.12,0c.1,0,.29-.06.27.12-.33.12-.85.13-1.21.24,0,.56,0,1.16.08,1.68l1.32,0s.15,0,.16.05-.14,0-.21.05h-.78c0,.4,0,.8,0,1.19a.81.81,0,0,0,.27,0c.12.51.21,1,.33,1.54,1.12,0,2.2,0,3.32-.05l.17.19c0,.07.14.14.12.2h-.25c0,.38-.19.79-.22,1.2s.06,1.09,0,1.69H52c0-.22,0-.48,0-.67l-1.68,0c-.07.12-.14.23-.21.37s-.13.33-.22.37a2.53,2.53,0,0,1-.62,0l-1.86,0c-.14-.14-.27-.29-.4-.44s-.28-.42-.4-.46a2.51,2.51,0,0,0-.61,0l-1.82,0,0-.93A1.72,1.72,0,0,1,44.4,30c.1-.09.21-.24.33-.27s.49.05.75,0a4.18,4.18,0,0,0,0-.51h-.34a.59.59,0,0,1,.18-.29l.84,0,0-1.4c.36,0,.77,0,1.11,0,0-.44.16-.91.18-1.38s0-1.19,0-1.84A1,1,0,0,0,47.2,24c-.06-.07-.14-.15-.13-.2h.44c0-1.24,0-2.48-.08-3.73h.12s0,0,0,.05m.34,5.79c0,.32,0,.62,0,.94,0,.08,0,.21,0,.25s0-.17,0-.24c0-.27,0-.63,0-.91v0Zm4.27,3.29h-.27c0,.18,0,.36,0,.53h.27C52.18,29.53,52.18,29.35,52.18,29.18Zm-.41,0h-.33c0,.18,0,.35,0,.53h.33C51.78,29.54,51.78,29.36,51.77,29.19Zm-.47,0H51c0,.18,0,.35,0,.53h.33Zm-1.39,0h-.34v.53h.34C49.91,29.57,49.91,29.4,49.91,29.22Zm-.45,0h-.33v.52h.34C49.47,29.58,49.47,29.41,49.46,29.23Zm-2.36,0h-.34l0,.53h.33Zm-.64,0h-.34c0,.18,0,.36,0,.53h.34C46.46,29.64,46.46,29.46,46.46,29.29Zm-.53,0H45.6c0,.18,0,.36,0,.53h.33Z"/><path id="_Path_7" data-name="&lt;Path&gt;" class="cls-10" d="M58.64,23.9a.33.33,0,0,0-.41.34.41.41,0,0,0,.21.38c.43.16.66-.61.2-.72"/><path id="_Compound_Path_2" data-name="&lt;Compound Path&gt;" class="cls-10" d="M58.63,24.69a7.33,7.33,0,0,0,.07,1.15,4.48,4.48,0,0,0,.28.66c.62,1.31,1.26,2.49,1.94,3.72.09.17.24.56.35.6a1.77,1.77,0,0,0,.46-.07,28.23,28.23,0,0,0,3.09-.69c.06.06.22.17.18.25a50.21,50.21,0,0,1-5.48,1.61,36.07,36.07,0,0,1-6.15.91A108,108,0,0,1,40,33c0,.12,0,.44,0,.66-.51,0-1,0-1.49,0A4.51,4.51,0,0,0,38.4,33l-1.54.19c0-.51,0-1.17,0-1.72,0-.09,0-.13,0-.15s.14.31.16.42a2.75,2.75,0,0,0,.1.5c1.25,0,2.54,0,3.8,0l.18-.93c1.43.05,3.17,0,4.72,0a2.86,2.86,0,0,1,.64,0c.13,0,.27.31.4.46s.3.42.43.45a3.36,3.36,0,0,0,.63,0l1.92,0c.07-.11.13-.23.21-.37s.14-.32.22-.35a1.52,1.52,0,0,1,.37,0l1.17,0c0,.23,0,.45,0,.67.37,0,.69,0,1.05,0,0-.19,0-.39,0-.59.08,0,.18,0,.28,0,0,.19,0,.41.05.59,1.45-.18,2.92-.33,4.32-.55.27-1.82.55-3.64.8-5.47,0-.05.15,0,.2-.07,0-.25,0-.55,0-.81s-.07-.42.08-.36,0,0,0,0m-.09,1.54c-.09.84-.21,1.66-.32,2.49.38,0,.77,0,1.13,0-.22-.82-.41-1.67-.64-2.48Zm.7,1.21c.09.4.25.84.35,1.26h.33C59.69,28.28,59.46,27.87,59.24,27.44Zm.41,1.45c.2.71.41,1.41.61,2.13.27-.06.55-.1.82-.15l-1.07-2C59.94,28.84,59.75,28.87,59.65,28.89Zm-.27,0-1.18,0c-.11.81-.21,1.63-.32,2.44.7-.08,1.38-.19,2.08-.28C59.76,30.35,59.6,29.59,59.38,28.89Zm-6.63,3.52h-.11v.24h.11Zm-.45,0h-.11a1.93,1.93,0,0,1,0,.24h.11Zm-1,0H51.2v.25h.1Zm-.38,0h-.11v.24h.11Zm-3.27.06h-.11v.25h.11Z"/><path id="_Path_8" data-name="&lt;Path&gt;" class="cls-10" d="M64.91,30.48s0,0,0,0a48.16,48.16,0,0,1-5.45,1.6c-.47.12-.93.25-1.41.34a37.64,37.64,0,0,1-4.71.53,97.12,97.12,0,0,1-13.21.16c0,.22,0,.44,0,.64a11.75,11.75,0,0,1-1.57,0c-.08-.21-.11-.47-.18-.68-.49.07-1,.14-1.47.19a15.71,15.71,0,0,0,1,2.61c2.16.06,4.33-.06,6.48-.15l3-.14a6.11,6.11,0,0,0,.71-.21,17.93,17.93,0,0,1,12-.81c1-.12,2-.26,2.9-.4a11.42,11.42,0,0,1,1.89-3.66"/><path id="_Compound_Path_3" data-name="&lt;Compound Path&gt;" class="cls-10" d="M46.36,35.81C43.62,36,40.79,36,38,36a.18.18,0,0,0,0,.06,8.85,8.85,0,0,0,2.17.37c.92,0,1.83,0,2.74-.08a32.41,32.41,0,0,0,3.49-.56M63,34.26q-1.21.24-2.49.39a12.52,12.52,0,0,1,1.37.53l1-.06C62.9,34.82,63,34.5,63,34.26Z"/><path id="_Path_9" data-name="&lt;Path&gt;" class="cls-10" d="M48.21,21.84a.33.33,0,0,0-.41.34.42.42,0,0,0,.21.38c.43.16.67-.61.2-.72"/><g id="_Group_" data-name="&lt;Group&gt;"><path id="_Compound_Path_4" data-name="&lt;Compound Path&gt;" class="cls-3" d="M24.3,57.28H27l5.59,13.15h-3l-1.2-2.93H22.83l-1.2,2.93H18.71Zm3,7.68-1.74-4.23L23.85,65Z"/><path id="_Compound_Path_5" data-name="&lt;Compound Path&gt;" class="cls-3" d="M34.38,57.38h2.87v5.16h5.29V57.38h2.87V70.43H42.54V65.19H37.25v5.24H34.38Z"/><path id="_Compound_Path_6" data-name="&lt;Compound Path&gt;" class="cls-3" d="M51.3,60h-4V57.38H58.14V60h-4V70.43H51.3Z"/><path id="_Compound_Path_7" data-name="&lt;Compound Path&gt;" class="cls-3" d="M60.06,57.38H69.9v2.55h-7v2.65h6.15v2.55H62.91v2.74H70v2.56H60.06Z"/><path id="_Compound_Path_8" data-name="&lt;Compound Path&gt;" class="cls-3" d="M83.76,70.43H80.93V61.87l-5.71,8.56h-2.7V57.38h2.83v8.55l5.75-8.55h2.66Zm-8.7-16.88,1.66-.29a1.49,1.49,0,0,0,2.94,0l1.66.29a3.14,3.14,0,0,1-6.26,0Z"/></g></g></g></svg>