<svg xmlns="http://www.w3.org/2000/svg" xmlns:xlink="http://www.w3.org/1999/xlink" viewBox="0 0 49.71 50"><defs><style>.cls-1{fill:none;stroke:#fff;stroke-miterlimit:10;}.cls-2{clip-path:url(#clip-path);}</style><clipPath id="clip-path"><polygon class="cls-1" points="20.61 41.55 20.61 23.94 15.96 23.94 24.86 8.45 33.75 23.94 29.1 23.94 29.1 41.55 20.61 41.55"/></clipPath></defs><title>naverh-white</title><g id="Layer_2" data-name="Layer 2"><g id="Isolation_Mode" data-name="Isolation Mode"><ellipse class="cls-1" cx="24.86" cy="25" rx="24.36" ry="24.5"/><g class="cls-2"><line class="cls-1" x1="12.96" y1="19.48" x2="36.75" y2="5.06"/><line class="cls-1" x1="12.96" y1="22.81" x2="36.75" y2="8.39"/><line class="cls-1" x1="12.96" y1="26.14" x2="36.75" y2="11.73"/><line class="cls-1" x1="12.96" y1="29.48" x2="36.75" y2="15.06"/><line class="cls-1" x1="12.96" y1="32.81" x2="36.75" y2="18.39"/><line class="cls-1" x1="12.96" y1="36.14" x2="36.75" y2="21.73"/><line class="cls-1" x1="12.96" y1="39.48" x2="36.75" y2="25.06"/><line class="cls-1" x1="12.96" y1="42.81" x2="36.75" y2="28.39"/><line class="cls-1" x1="12.96" y1="46.14" x2="36.75" y2="31.73"/><line class="cls-1" x1="12.96" y1="49.48" x2="36.75" y2="35.06"/></g><polygon class="cls-1" points="20.61 41.55 20.61 23.94 15.96 23.94 24.86 8.45 33.75 23.94 29.1 23.94 29.1 41.55 20.61 41.55"/></g></g></svg>