<?xml version="1.0" encoding="utf-8"?>
<!-- Generator: Adobe Illustrator 22.1.0, SVG Export Plug-In . SVG Version: 6.00 Build 0)  -->
<svg version="1.1" id="Layer_1" xmlns="http://www.w3.org/2000/svg" xmlns:xlink="http://www.w3.org/1999/xlink" x="0px" y="0px"
	 viewBox="0 0 39.9 39.9" style="enable-background:new 0 0 39.9 39.9;" xml:space="preserve">
<style type="text/css">
	.st0{fill:#00ADB5;}
</style>
<title>recept-iconsArtboard 68</title>
<path class="st0" d="M19.9,9.1C13.9,9.1,9,14,9,20S13.9,30.9,20,30.9S30.8,26,30.8,20C30.8,14,25.9,9.1,19.9,9.1z M19.9,29.4
	c-5.2,0-9.3-4.2-9.3-9.4c0-5.2,4.2-9.3,9.4-9.3c5.2,0,9.3,4.2,9.3,9.3C29.3,25.2,25.1,29.4,19.9,29.4z"/>
<path class="st0" d="M39.1,26.8v-26c0-0.3-0.2-0.7-0.5-0.8c-0.3-0.1-0.7,0-0.9,0.3c-2.2,2.8-3.7,6-4.5,9.5
	C27.6,2.5,17.1,1.1,9.7,6.7C9.2,7.2,8.6,7.7,8.1,8.2L7.8,8.5V0.8C7.8,0.3,7.4,0,7,0C6.6,0,6.2,0.3,6.2,0.8v9.3H4.7V0.8
	C4.7,0.3,4.3,0,3.9,0S3.1,0.3,3.1,0.8v9.3H1.6V0.8C1.6,0.3,1.2,0,0.8,0S0,0.3,0,0.8v10.1c0,1.2,0.6,2.4,1.6,3.1v12.8
	c-0.5,4.3-0.8,9.2-0.8,10C0.7,38.5,2,40,3.7,40.1c1.7,0.1,3.2-1.2,3.3-2.9c0-0.1,0-0.2,0-0.4c0-0.5-0.2-3.4-0.5-6.7
	c0.5,0.6,1,1.2,1.6,1.8c6.5,6.5,17.1,6.5,23.7,0c0.9-0.9,1.8-2,2.5-3.1c-0.4,3.7-0.6,7.4-0.6,8c-0.1,1.7,1.2,3.2,2.9,3.3
	s3.2-1.2,3.3-2.9c0-0.1,0-0.2,0-0.4C39.9,36,39.6,31.1,39.1,26.8z M36,21.4h1.6V23H36V21.4z M34.4,11.7c0.5-3,1.5-5.9,3.1-8.4v16.6
	h-2l-1.1-1.1L34.4,11.7z M3.1,21.4h1.6V23H3.1V21.4z M6.1,11.7c-0.2,0.5-0.5,1-1,1.2c-0.2,0.1-0.4,0.4-0.4,0.7v6.3H3.1v-6.3
	c0-0.3-0.1-0.5-0.4-0.7c-0.5-0.3-0.8-0.7-1-1.2H6.1z M3.9,38.3c-0.9,0-1.6-0.7-1.6-1.5c0,0,0,0,0,0c0-0.6,0.8-9.9,0.8-9.9v-2.3h1.6
	v2.3c0,0,0.8,9.4,0.8,9.9C5.5,37.6,4.8,38.3,3.9,38.3C3.9,38.3,3.9,38.3,3.9,38.3z M19.9,35.2c-5.9,0-11.2-3.4-13.7-8.6V14
	c1-0.7,1.6-1.9,1.6-3.1c5-6.7,14.5-8.1,21.3-3c1.5,1.1,2.8,2.6,3.8,4.2v7c0,0.2,0.1,0.4,0.2,0.5l1.4,1.4v3.6
	C32.4,30.9,26.5,35.2,19.9,35.2L19.9,35.2z M36.7,38.3c-0.9,0-1.6-0.7-1.6-1.5c0,0,0,0,0,0c0-0.6,0.8-9.9,0.8-9.9v-2.3h1.6v2.3
	c0,0,0.8,9.4,0.8,9.9C38.3,37.6,37.6,38.3,36.7,38.3L36.7,38.3z"/>
<path class="st0" d="M20,26.2c-0.2,0-0.4,0.1-0.5,0.2c-0.1,0.1-0.2,0.3-0.2,0.5c0,0.2,0.1,0.4,0.2,0.5c0.1,0.1,0.3,0.2,0.5,0.2l0,0
	c0.4,0,0.8-0.4,0.8-0.8c0,0,0,0,0,0c0-0.2-0.1-0.4-0.2-0.5C20.4,26.3,20.2,26.2,20,26.2z"/>
<path class="st0" d="M26.2,20c0,2.4-1.3,4.5-3.5,5.6c-0.2,0.1-0.3,0.2-0.4,0.4c-0.1,0.2-0.1,0.4,0,0.6c0.1,0.3,0.4,0.4,0.7,0.4
	c0.1,0,0.2,0,0.3-0.1c1.3-0.6,2.4-1.6,3.1-2.8c0.8-1.2,1.2-2.7,1.2-4.2c0-0.4-0.3-0.8-0.8-0.8C26.5,19.2,26.2,19.6,26.2,20z"/>
</svg>
