<svg xmlns="http://www.w3.org/2000/svg" viewBox="0 0 103.42 76.65"><defs><style>.cls-1{opacity:0.4;}.cls-2{fill:#dae2e6;}</style></defs><title>otziv-vnutri</title><g id="Layer_2" data-name="Layer 2"><g id="Layer_1-2" data-name="Layer 1"><g class="cls-1"><path class="cls-2" d="M42.57,12q-20.46,10-20.45,23.45a22.54,22.54,0,0,1,14.46,7.06,20,20,0,0,1,5.65,14.05,19.84,19.84,0,0,1-5.57,14.3,18.38,18.38,0,0,1-13.88,5.82q-9.32,0-16-7.56A26.7,26.7,0,0,1,0,50.71Q0,18.3,36.08,0Zm60.85,0q-20.28,10-20.28,23.45a22.4,22.4,0,0,1,14.3,7.06,20,20,0,0,1,5.65,14.05,20.06,20.06,0,0,1-5.48,14.3A18.14,18.14,0,0,1,83.8,76.65q-9.31,0-16.13-7.56a26.49,26.49,0,0,1-6.81-18.38Q60.86,18.3,97.11,0Z"/></g></g></g></svg>