<svg xmlns="http://www.w3.org/2000/svg" viewBox="0 0 219.2 80.82"><defs><style>.cls-1{fill:#11abb3;opacity:0.15;}</style></defs><title>fish-pravo-verh</title><g id="Layer_2" data-name="Layer 2"><g id="Layer_1-2" data-name="Layer 1"><path class="cls-1" d="M55.45,79.18c8.18,2.35,8.12,1.59,8.38,1.24,0,0,22,1.44,39.25-4.3,0,0,6,1.2,7.47.2s2.3-2,5.93-4.57,8.12-2.43,13.24.56c.65.43,3.57,2,3.82,2.15s2.5,1,2.71,1.09,2.78,1.35,3,1.14.25-.44-.13-1c-3-4.8-7.83-8.85-6.88-10.79A48.21,48.21,0,0,1,134.34,60s2.46-4.7,2-5.1-1-.13-2.25.8c-1.62,1.24-9.57,7.56-10.54,7.81s-3.29,1.3-4.89,1.22-22.57-3-26.56-3.08a7.49,7.49,0,0,0-.44-2.53c-.46-1-2.49-6.14-2.49-6.14-2.77.33-6.65,8.71-6.65,8.71s-11.16,1.19-16,3-14.85,6.09-14.85,6.09a41.32,41.32,0,0,0-4,2.24l.06.82.43.67s-.8.28-.82.47S47.27,76.83,55.45,79.18Zm8.43-1.3c1.65-3.7.08-8.12.06-8.16l1.11-.52c.08.2,1.8,5-.1,9.26Zm-5.65-5.95A1.71,1.71,0,0,1,59.63,70a1.57,1.57,0,0,1,1.68,1.53,1.71,1.71,0,0,1-1.4,1.89A1.57,1.57,0,0,1,58.23,71.93Z"/><path class="cls-1" d="M149.88,14.59c6.23,3.55,6.31,2.91,6.57,2.68,0,0,17.51,5.57,32.41,4.36,0,0,4.62,2.17,6,1.66s2.18-1.16,5.53-2.53,7-.35,10.61,3.11c.45.47,2.55,2.37,2.74,2.5s1.86,1.3,2,1.43,2,1.66,2.24,1.53.27-.3.06-.82c-1.65-4.51-4.9-8.77-3.82-10.16a37.17,37.17,0,0,1,2.49-3.6s2.74-3.32,2.45-3.74-.82-.31-2,.2c-1.51.69-8.95,4.23-9.77,4.24s-2.87.4-4.15,0-17.76-6.93-21-7.82a6.26,6.26,0,0,0,.05-2.15c-.2-.94-1-5.49-1-5.49-2.3-.29-6.78,5.76-6.78,5.76S165.39,4.5,161.18,5s-13,2-13,2a32.91,32.91,0,0,0-3.55,1l-.08.68.24.63s-.69.07-.74.22S143.65,11,149.88,14.59Zm7,.63c1.93-2.68,1.37-6.59,1.36-6.62l1-.2c0,.17.65,4.42-1.57,7.51Zm-3.61-6A1.34,1.34,0,0,1,154.73,8a1.38,1.38,0,0,1,1.12,1.58,1.34,1.34,0,0,1-1.44,1.26A1.37,1.37,0,0,1,153.3,9.25Z"/><path class="cls-1" d="M9,29c9.25,3,9.2,2.12,9.5,1.74,0,0,25,2.49,44.83-3.39,0,0,6.74,1.6,8.5.52s2.68-2.19,6.89-5,9.33-2.45,15.06,1.16c.72.51,4,2.46,4.28,2.59s2.82,1.21,3.06,1.35,3.11,1.65,3.38,1.42.3-.49-.11-1.13c-3.26-5.6-8.64-10.4-7.49-12.57a50.76,50.76,0,0,1,2.53-5.55s2.94-5.25,2.45-5.73-1.18-.19-2.59.82c-1.88,1.35-11.13,8.25-12.23,8.5s-3.79,1.35-5.62,1.2-25.6-4.25-30.13-4.54a8.66,8.66,0,0,0-.43-2.9C50.43,6.34,48.28.45,48.28.45c-3.17.27-7.84,9.67-7.84,9.67s-12.75.93-18.33,2.8S5,19.29,5,19.29A46.75,46.75,0,0,0,.44,21.7l0,.92.47.79s-.92.29-.95.5S-.2,26.05,9,29Zm9.65-1.15c2-4.16.33-9.25.32-9.3L20.29,18c.07.23,1.89,5.77-.4,10.55Zm-6.26-7a1.93,1.93,0,0,1,1.66-2.1A1.79,1.79,0,0,1,16,20.59,1.94,1.94,0,0,1,14.3,22.7,1.81,1.81,0,0,1,12.43,20.89Z"/></g></g></svg>