<svg xmlns="http://www.w3.org/2000/svg" viewBox="0 0 130.71 113.11"><defs><style>.cls-1,.cls-3{fill:#11abb3;}.cls-1,.cls-2{opacity:0.15;}</style></defs><title>fish-pravo-niz</title><g id="Layer_2" data-name="Layer 2"><g id="Layer_1-2" data-name="Layer 1"><path class="cls-1" d="M62.69,81.62c5.33,5,5.53,4.43,5.83,4.27,0,0,15.88,9.83,30.59,12.38,0,0,4,3.28,5.5,3.13s2.35-.59,5.88-1.09,6.83,1.4,9.67,5.7c.35.58,2,2.95,2.16,3.14s1.54,1.73,1.66,1.9,1.63,2.13,1.87,2.06.33-.23.23-.79c-.69-4.82-3-9.81-1.65-10.89a34.14,34.14,0,0,1,3.14-2.89s3.34-2.56,3.13-3.05-.73-.51-1.93-.29c-1.6.29-9.55,1.89-10.34,1.7s-2.87-.33-4-1S98.55,84.64,95.62,83a6.34,6.34,0,0,0,.48-2.09c0-1,.12-5.62.12-5.62-2.17-.85-7.74,3.93-7.74,3.93s-8.7-3.55-12.88-4.12-13-1.32-13-1.32a32.27,32.27,0,0,0-3.66.12l-.21.64.09.68s-.68-.1-.76,0S57.35,76.58,62.69,81.62ZM69.38,84C71.8,81.86,72,77.9,72,77.86l1,0c0,.18-.27,4.49-3.05,7Zm-2.3-6.74a1.28,1.28,0,0,1,1.65-.88,1.46,1.46,0,0,1,.76,1.83,1.27,1.27,0,0,1-1.65.87A1.47,1.47,0,0,1,67.08,77.26Z"/><g class="cls-2"><path class="cls-3" d="M4.69,7.87c5.34,5,5.54,4.42,5.84,4.26,0,0,15.87,9.83,30.59,12.39,0,0,4.05,3.28,5.5,3.13s2.35-.59,5.88-1.09,6.82,1.4,9.67,5.7c.34.57,2,3,2.15,3.13S65.87,37.13,66,37.3s1.63,2.12,1.87,2.06.33-.24.22-.8c-.68-4.82-3-9.8-1.65-10.88a34.48,34.48,0,0,1,3.14-2.9s3.34-2.56,3.14-3-.73-.51-1.93-.29c-1.6.29-9.55,1.89-10.35,1.7s-2.86-.33-4-1S40.55,10.89,37.63,9.22a6.34,6.34,0,0,0,.48-2.09c0-1,.12-5.62.12-5.62-2.17-.86-7.75,3.93-7.75,3.93S21.79,1.89,17.61,1.32,4.59,0,4.59,0A32.35,32.35,0,0,0,.93.12L.72.76l.1.68s-.68-.11-.76,0S-.64,2.83,4.69,7.87Zm6.7,2.37c2.42-2.14,2.66-6.09,2.66-6.13l1,0c0,.18-.26,4.49-3,7ZM9.09,3.51a1.27,1.27,0,0,1,1.65-.88,1.45,1.45,0,0,1,.76,1.83,1.27,1.27,0,0,1-1.65.87A1.47,1.47,0,0,1,9.09,3.51Z"/></g></g></g></svg>