<svg xmlns="http://www.w3.org/2000/svg" viewBox="0 0 175.67 107.96"><defs><style>.cls-1,.cls-3{fill:#11abb3;}.cls-1,.cls-2{opacity:0.15;}</style></defs><title>fish-levo-niz</title><g id="Layer_2" data-name="Layer 2"><g id="Layer_1-2" data-name="Layer 1"><path class="cls-1" d="M75.17,11.69c0-.15-.73-.26-.73-.26l.26-.62,0-.68a33.31,33.31,0,0,0-3.5-1.24s-8.71-2-12.89-2.73-13.45,0-13.45,0S40.63-.15,38.32,0c0,0-1,4.5-1.28,5.42a6.37,6.37,0,0,0,0,2.15c-3.24.7-20,6.26-21.31,6.58s-3.34-.2-4.15-.26S3.44,9.86,2,9.09C.86,8.51.34,8.38,0,8.78S2.3,12.65,2.3,12.65a37.25,37.25,0,0,1,2.31,3.74c1,1.44-2.43,5.51-4.29,9.91-.23.51-.19.69,0,.83s2.15-1.28,2.32-1.4,1.88-1.18,2.08-1.31,2.38-1.89,2.86-2.34c3.81-3.24,7.46-4,10.74-2.48s4.05,2.26,5.41,2.85,6.07-1.31,6.07-1.31c14.84,2.08,32.6-2.46,32.6-2.46.25.25.29.89,6.69-2.29S75.21,11.83,75.17,11.69ZM61.26,17.25C59.19,14,60,9.84,60,9.66l1,.26s-.75,3.9,1.05,6.69Zm3.5-4.87A1.36,1.36,0,0,1,63.39,11a1.36,1.36,0,0,1,1.18-1.52A1.38,1.38,0,0,1,66,10.87,1.37,1.37,0,0,1,64.76,12.38Z"/><g class="cls-2"><path class="cls-3" d="M175.67,61.54c0-.15-.71-.32-.71-.32l.31-.6v-.68a34.5,34.5,0,0,0-3.41-1.57s-8.56-2.82-12.69-4-13.45-1.3-13.45-1.3-3.72-6.68-6-6.74c0,0-1.38,4.39-1.69,5.28a6.16,6.16,0,0,0-.22,2.14c-3.3.39-20.51,4.35-21.83,4.54s-3.32-.51-4.14-.65-7.78-4.8-9.2-5.71c-1.06-.68-1.57-.86-1.91-.49s2,4.08,2,4.08a37.58,37.58,0,0,1,2,3.95c.91,1.54-2.86,5.27-5,9.49-.28.48-.25.67-.05.83s2.25-1.07,2.43-1.18,2-1,2.18-1.11,2.53-1.66,3-2.06c4.06-2.87,7.78-3.33,10.94-1.46s3.88,2.65,5.19,3.36,6.19-.72,6.19-.72c14.69,3.48,32.8.65,32.8.65.24.27.23.91,6.87-1.65S175.7,61.69,175.67,61.54Zm-14.35,4.23c-1.83-3.4-.69-7.52-.64-7.69l.95.35s-1,3.82.54,6.78Zm3.88-4.53a1.39,1.39,0,0,1-1.27-1.47,1.34,1.34,0,0,1,1.3-1.4,1.39,1.39,0,0,1,1.27,1.47A1.34,1.34,0,0,1,165.2,61.24Z"/></g><path class="cls-1" d="M96.16,77c-.07-.17-.87-.17-.87-.17l.21-.75-.14-.77a37.72,37.72,0,0,0-4.17-.8S81,73.81,76.12,73.7,60.8,76.07,60.8,76.07s-5.67-6.45-8.28-5.87c0,0-.53,5.33-.68,6.43a7.32,7.32,0,0,0,.25,2.46c-3.59,1.38-21.9,10.72-23.33,11.3s-3.83.37-4.76.45S14.2,87.66,12.41,87c-1.34-.46-1.94-.52-2.25,0s3.15,4,3.15,4a41,41,0,0,1,3.17,3.86c1.36,1.47-2,6.73-3.47,12.09-.2.62-.12.83.14.95s2.27-1.84,2.44-2,2-1.69,2.18-1.87,2.44-2.59,2.92-3.18c3.87-4.38,7.92-6,11.88-4.75s4.93,1.87,6.56,2.3,6.74-2.57,6.74-2.57c17.2-.26,36.77-8.59,36.77-8.59.32.24.46,1,7.29-3.81S96.23,77.19,96.16,77Zm-15,8.82c-2.82-3.29-2.49-8.25-2.47-8.45l1.14.12s-.3,4.59,2.16,7.46Zm3.29-6.19a1.51,1.51,0,0,1-1.75-1.29,1.62,1.62,0,0,1,1.13-1.94,1.51,1.51,0,0,1,1.76,1.29A1.63,1.63,0,0,1,84.4,79.66Z"/></g></g></svg>