<svg xmlns="http://www.w3.org/2000/svg" viewBox="0 0 148.1 120.78"><defs><style>.cls-1,.cls-3{fill:#11abb3;}.cls-1,.cls-2{opacity:0.15;}</style></defs><title>fish-levo-verh</title><g id="Layer_2" data-name="Layer 2"><g id="Layer_1-2" data-name="Layer 1"><path class="cls-1" d="M115.76,41.38c0-.16-.55-.6-.55-.6l.5-.41.24-.62a38.8,38.8,0,0,0-2.61-2.9s-6.94-6.24-10.37-9-12-7-12-7-1.12-7.7-3.25-8.75c0,0-2.79,3.42-3.39,4.11a5.74,5.74,0,0,0-.94,1.85C80.2,17,62.91,13.24,61.62,12.84S58.73,11,58,10.48s-5.54-7.72-6.54-9.16C50.73.24,50.33-.14,49.88.05s.42,4.58.42,4.58a41.54,41.54,0,0,1,.51,4.48c.31,1.79-4.47,3.59-8,6.5-.42.32-.45.51-.32.74s2.45,0,2.64,0,2.18-.06,2.41-.07,2.91-.44,3.53-.59c4.74-.88,8.34.29,10.62,3.36s2.67,4.08,3.64,5.3,6,2,6,2C83.73,35.78,101.46,41,101.46,41c.13.35-.1.93,6.93,1.44S115.74,41.53,115.76,41.38ZM101,39.09a10.92,10.92,0,0,1,2.07-7.3l.76.73A9.84,9.84,0,0,0,102,38.94Zm5.16-2.48a1.52,1.52,0,0,1-.67-1.89A1.22,1.22,0,0,1,107.2,34a1.52,1.52,0,0,1,.67,1.89A1.22,1.22,0,0,1,106.18,36.61Z"/><path class="cls-1" d="M52,53.7c0-.1-.42-.36-.42-.36l.31-.32.12-.45c0-.1-2-1.75-2-1.75s-5.2-3.65-7.75-5.27-8.71-3.69-8.71-3.69-1.34-5.18-2.87-5.71c0,0-1.66,2.6-2,3.13a4,4,0,0,0-.5,1.36c-2.26-.43-14.36-1.45-15.27-1.6a10.91,10.91,0,0,1-2.63-1.3c-.52-.26-4.36-4.79-5.14-5.69-.59-.67-.9-.9-1.19-.73s.62,3.11.62,3.11a27.34,27.34,0,0,1,.68,3c.34,1.21-2.8,2.87-5,5.19C0,42.9,0,43,.06,43.17s1.68-.23,1.81-.26,1.48-.24,1.64-.27,2-.57,2.37-.72c3.18-1,5.72-.56,7.51,1.34s2.12,2.55,2.87,3.3,4.23.82,4.23.82c9.16,5.39,21.67,7.33,21.67,7.33.11.23,0,.65,4.84.36S52,53.81,52,53.7Zm-10.25-.23a7.6,7.6,0,0,1,.89-5.19l.57.43a6.83,6.83,0,0,0-.79,4.57Zm3.35-2.16a1,1,0,0,1-.6-1.24.85.85,0,0,1,1.1-.64,1,1,0,0,1,.6,1.23A.86.86,0,0,1,45.07,51.31Z"/><g class="cls-2"><path class="cls-3" d="M148.07,118.72c0-.16-.6-.53-.6-.53l.45-.47.18-.65a38.14,38.14,0,0,0-2.9-2.57s-7.53-5.36-11.23-7.73-12.64-5.44-12.64-5.44-1.91-7.54-4.13-8.33c0,0-2.43,3.77-3,4.53a6,6,0,0,0-.75,2c-3.27-.65-20.86-2.23-22.18-2.46s-3.08-1.53-3.83-1.91-6.3-7-7.43-8.33c-.85-1-1.3-1.31-1.72-1.07s.88,4.53.88,4.53a40.13,40.13,0,0,1,1,4.4c.49,1.76-4.08,4.15-7.26,7.5-.39.37-.4.56-.25.78s2.44-.32,2.63-.37,2.16-.34,2.38-.38,2.86-.8,3.46-1c4.63-1.48,8.33-.76,10.91,2s3.07,3.73,4.16,4.83,6.14,1.23,6.14,1.23c13.29,7.92,31.46,10.85,31.46,10.85.16.33,0,1,7,.57S148.06,118.87,148.07,118.72Zm-14.89-.43a11.11,11.11,0,0,1,1.32-7.55l.83.63a10.07,10.07,0,0,0-1.19,6.65Zm4.88-3.12a1.49,1.49,0,0,1-.86-1.8,1.25,1.25,0,0,1,1.61-.93,1.48,1.48,0,0,1,.85,1.8A1.24,1.24,0,0,1,138.06,115.17Z"/></g></g></g></svg>