<svg id="Layer_1" data-name="Layer 1" xmlns="http://www.w3.org/2000/svg" xmlns:xlink="http://www.w3.org/1999/xlink" viewBox="0 0 50 49.71"><defs><style>.cls-1,.cls-2{fill:#fff;}.cls-1,.cls-4{stroke:#01336e;stroke-miterlimit:10;}.cls-3{clip-path:url(#clip-path);}.cls-4{fill:none;}</style><clipPath id="clip-path"><polygon class="cls-1" points="40.71 29.1 23.1 29.1 23.1 33.75 7.61 24.86 23.1 15.96 23.1 20.61 40.71 20.61 40.71 29.1"/></clipPath></defs><title>strelkiArtboard 39</title><ellipse class="cls-1" cx="25" cy="24.86" rx="24.5" ry="24.36"/><polygon class="cls-2" points="40.71 29.1 23.1 29.1 23.1 33.75 7.61 24.86 23.1 15.96 23.1 20.61 40.71 20.61 40.71 29.1"/><g class="cls-3"><line class="cls-1" x1="18.64" y1="36.75" x2="4.22" y2="12.96"/><line class="cls-1" x1="21.97" y1="36.75" x2="7.55" y2="12.96"/><line class="cls-1" x1="25.3" y1="36.75" x2="10.89" y2="12.96"/><line class="cls-1" x1="28.64" y1="36.75" x2="14.22" y2="12.96"/><line class="cls-1" x1="31.97" y1="36.75" x2="17.55" y2="12.96"/><line class="cls-1" x1="35.3" y1="36.75" x2="20.89" y2="12.96"/><line class="cls-1" x1="38.64" y1="36.75" x2="24.22" y2="12.96"/><line class="cls-1" x1="41.97" y1="36.75" x2="27.55" y2="12.96"/><line class="cls-1" x1="45.3" y1="36.75" x2="30.89" y2="12.96"/><line class="cls-1" x1="48.64" y1="36.75" x2="34.22" y2="12.96"/></g><polygon class="cls-4" points="40.71 29.1 23.1 29.1 23.1 33.75 7.61 24.86 23.1 15.96 23.1 20.61 40.71 20.61 40.71 29.1"/></svg>