<svg xmlns="http://www.w3.org/2000/svg" xmlns:xlink="http://www.w3.org/1999/xlink" viewBox="0 0 50 49.71"><defs><style>.cls-1{fill:none;stroke:#01336e;stroke-miterlimit:10;}.cls-2{clip-path:url(#clip-path);}</style><clipPath id="clip-path"><polygon class="cls-1" points="9.29 29.1 26.9 29.1 26.9 33.75 42.39 24.86 26.9 15.96 26.9 20.61 9.29 20.61 9.29 29.1"/></clipPath></defs><title>Asset 66</title><g id="Layer_2" data-name="Layer 2"><g id="Layer_1-2" data-name="Layer 1"><ellipse class="cls-1" cx="25" cy="24.86" rx="24.5" ry="24.36"/><g class="cls-2"><line class="cls-1" x1="31.36" y1="36.75" x2="45.78" y2="12.96"/><line class="cls-1" x1="28.03" y1="36.75" x2="42.45" y2="12.96"/><line class="cls-1" x1="24.7" y1="36.75" x2="39.11" y2="12.96"/><line class="cls-1" x1="21.36" y1="36.75" x2="35.78" y2="12.96"/><line class="cls-1" x1="18.03" y1="36.75" x2="32.45" y2="12.96"/><line class="cls-1" x1="14.7" y1="36.75" x2="29.11" y2="12.96"/><line class="cls-1" x1="11.36" y1="36.75" x2="25.78" y2="12.96"/><line class="cls-1" x1="8.03" y1="36.75" x2="22.45" y2="12.96"/><line class="cls-1" x1="4.7" y1="36.75" x2="19.11" y2="12.96"/><line class="cls-1" x1="1.36" y1="36.75" x2="15.78" y2="12.96"/></g><polygon class="cls-1" points="9.29 29.1 26.9 29.1 26.9 33.75 42.39 24.86 26.9 15.96 26.9 20.61 9.29 20.61 9.29 29.1"/></g></g></svg>