<svg id="Layer_1" data-name="Layer 1" xmlns="http://www.w3.org/2000/svg" viewBox="0 0 21.44 20.53"><defs><style>.cls-1{fill:none;stroke:#00adb5;stroke-miterlimit:10;}</style></defs><title>zvezdaArtboard 37</title><path class="cls-1" d="M11.46,1l1.88,5.78a.8.8,0,0,0,.75.54h6.07a.79.79,0,0,1,.46,1.42L15.7,12.35a.8.8,0,0,0-.28.88L17.3,19a.79.79,0,0,1-1.21.88l-4.91-3.57a.78.78,0,0,0-.92,0L5.35,19.88A.79.79,0,0,1,4.14,19L6,13.23a.78.78,0,0,0-.28-.88L.82,8.78a.79.79,0,0,1,.46-1.42H7.36a.78.78,0,0,0,.74-.54L10,1A.78.78,0,0,1,11.46,1Z"/></svg>