<?xml version="1.0" encoding="utf-8"?>
<!-- Generator: Adobe Illustrator 22.1.0, SVG Export Plug-In . SVG Version: 6.00 Build 0)  -->
<svg version="1.1" id="Layer_1" xmlns="http://www.w3.org/2000/svg" xmlns:xlink="http://www.w3.org/1999/xlink" x="0px" y="0px"
	 viewBox="0 0 42 40.3" style="enable-background:new 0 0 42 40.3;" xml:space="preserve">
<style type="text/css">
	.st0{fill:#00ADB5;}
</style>
<title>recept-iconsArtboard 69</title>
<g id="_Group_">
	<g id="_Group_2">
		<path id="_Compound_Path_" class="st0" d="M41.9,22.1c-0.4-3.8-2.1-7.4-4.8-10.1c-2.2-2.2-5.1-3.8-8.1-4.4V5.5
			c1.5-0.4,2.4-1.9,2-3.4C30.7,0.9,29.6,0,28.4,0h-5.9c-1.5,0-2.8,1.2-2.8,2.8c0,1.3,0.9,2.4,2.1,2.7v2.1c-3.1,0.7-5.9,2.2-8.1,4.4
			c-0.5,0.5-1,1-1.4,1.6H6.4c-0.5,0-0.8,0.4-0.8,0.8c0,0.5,0.4,0.8,0.8,0.8l0,0h4.8c-0.6,1-1.1,2.1-1.4,3.2H0.8
			c-0.4,0.1-0.7,0.5-0.6,1c0.1,0.3,0.3,0.6,0.6,0.6h8.5c-0.2,1-0.4,2.1-0.4,3.1H5.2c-0.5,0-0.8,0.4-0.8,0.8c0,0.5,0.4,0.8,0.8,0.8
			h3.6C9,25.9,9.1,27,9.4,28H4.1c-0.5,0-0.8,0.4-0.8,0.8s0.4,0.8,0.8,0.8c0,0,0,0,0,0h5.8c2.2,5.9,7.6,10,13.9,10.6
			c0.5,0.1,1.1,0.1,1.6,0.1c3.2,0,6.3-0.9,9-2.7c0.4-0.2,0.5-0.7,0.3-1.1c-0.2-0.4-0.7-0.5-1.1-0.3c0,0,0,0,0,0
			c-7,4.4-16.2,2.4-20.6-4.6s-2.4-16.2,4.6-20.6s16.2-2.4,20.6,4.6c3.1,4.9,3.1,11.3-0.1,16.2c-0.3,0.4-0.2,0.9,0.2,1.1
			c0.4,0.2,0.9,0.1,1.1-0.2C41.4,29.6,42.3,25.8,41.9,22.1z M21.3,2.8c0-0.6,0.5-1.1,1.1-1.1h5.9c0.6,0,1.1,0.5,1.1,1.1
			S29,3.9,28.4,3.9l0,0h-5.9C21.8,3.9,21.3,3.4,21.3,2.8z M23.4,7.3V5.6h4v1.7C26.1,7.1,24.8,7.1,23.4,7.3z"/>
		<path id="_Path_" class="st0" d="M36.6,34.1c-0.2,0-0.4,0.1-0.6,0.2c-0.3,0.3-0.3,0.8,0,1.2c0,0,0,0,0,0c0.2,0.2,0.4,0.2,0.6,0.2
			c0.2,0,0.4-0.1,0.6-0.2c0.3-0.3,0.3-0.8,0-1.2c0,0,0,0,0,0C37,34.1,36.8,34.1,36.6,34.1z"/>
		<path id="_Compound_Path_2" class="st0" d="M25.4,11c-7,0-12.7,5.7-12.7,12.7s5.7,12.7,12.7,12.7s12.7-5.7,12.7-12.7
			C38.2,16.7,32.5,11,25.4,11z M25.4,34.8c-6.1,0-11.1-5-11.1-11.1c0-6.1,5-11.1,11.1-11.1s11.1,5,11.1,11.1c0,0,0,0,0,0
			C36.5,29.9,31.5,34.8,25.4,34.8L25.4,34.8z"/>
		<path id="_Compound_Path_3" class="st0" d="M30.6,17.4l-4.1,4.1c-0.7-0.3-1.5-0.3-2.2,0l-1.8-1.8c-0.3-0.3-0.8-0.3-1.2,0
			s-0.3,0.8,0,1.2l1.8,1.8c-0.2,0.3-0.3,0.7-0.3,1.1c0,1.4,1.1,2.6,2.5,2.6c1.4,0,2.6-1.1,2.6-2.6c0-0.4-0.1-0.8-0.3-1.1l4-4l0,0
			l0.1-0.1c0.3-0.3,0.3-0.8,0-1.2C31.5,17.1,30.9,17.1,30.6,17.4z M25.4,24.6c-0.5,0-0.9-0.4-0.9-0.9s0.4-0.9,0.9-0.9
			s0.9,0.4,0.9,0.9l0,0C26.3,24.2,25.9,24.6,25.4,24.6z"/>
		<path id="_Path_2" class="st0" d="M34.2,22.9h-0.8c-0.5,0-0.8,0.4-0.8,0.8c0,0.5,0.4,0.8,0.8,0.8h0.8c0.5,0,0.8-0.4,0.8-0.8
			C35,23.3,34.7,22.9,34.2,22.9z"/>
		<path id="_Path_3" class="st0" d="M17.4,22.9h-0.8c-0.5,0-0.8,0.4-0.8,0.8c0,0.5,0.4,0.8,0.8,0.8h0.8c0.5,0,0.8-0.4,0.8-0.8
			S17.9,22.9,17.4,22.9C17.4,22.9,17.4,22.9,17.4,22.9z"/>
		<path id="_Path_4" class="st0" d="M25.4,16.5c0.5,0,0.8-0.4,0.8-0.8V15c0-0.5-0.4-0.8-0.8-0.8c-0.5,0-0.8,0.4-0.8,0.8v0.8
			C24.6,16.2,25,16.6,25.4,16.5z"/>
		<path id="_Path_5" class="st0" d="M25.4,30.9c-0.5,0-0.8,0.4-0.8,0.8v0.8c0,0.5,0.4,0.8,0.8,0.8s0.8-0.4,0.8-0.8c0,0,0,0,0,0v-0.8
			C26.2,31.3,25.9,30.9,25.4,30.9z"/>
		<path id="_Path_6" class="st0" d="M0.8,28c-0.2,0-0.4,0.1-0.6,0.2C0.1,28.4,0,28.6,0,28.8c0,0.2,0.1,0.4,0.2,0.6
			c0.3,0.3,0.8,0.3,1.2,0c0,0,0,0,0,0c0.2-0.2,0.2-0.4,0.2-0.6c0-0.2-0.1-0.4-0.2-0.6C1.2,28.1,1,28,0.8,28z"/>
	</g>
</g>
</svg>
