<svg xmlns="http://www.w3.org/2000/svg" viewBox="0 0 102.26 108"><defs><style>.cls-1{fill:#dae4e8;}.cls-2{fill:#ebf2f5;}.cls-3{fill:#1ea6c6;}.cls-4{fill:#fcd09f;}</style></defs><title>vopros-user</title><g id="Layer_2" data-name="Layer 2"><g id="Layer_1-2" data-name="Layer 1"><circle class="cls-1" cx="51.13" cy="56.87" r="51.13"/><circle class="cls-2" cx="51.13" cy="51.13" r="51.13"/><path class="cls-3" d="M77.91,71.24v0a40.92,40.92,0,0,1-55,0v0A27.48,27.48,0,0,1,38.63,46.42c3.49,3.47,7.57,5.34,11.8,5.34s8.32-1.87,11.8-5.34A27.46,27.46,0,0,1,77.91,71.24Z"/><path class="cls-4" d="M50.43,11.81A15.2,15.2,0,0,1,65.63,27c0,8.4-6.8,19.88-15.2,19.88S35.23,35.41,35.23,27A15.21,15.21,0,0,1,50.43,11.81Z"/></g></g></svg>