<svg id="Layer_1" data-name="Layer 1" xmlns="http://www.w3.org/2000/svg" viewBox="0 0 2591.71 54.59"><defs><style>.cls-1{fill:none;stroke:#8ad9ff;stroke-miterlimit:10;stroke-width:2px;}</style></defs><title>volna-2560Artboard 2</title><path class="cls-1" d="M0,12.06c14.89,0,14.89,8.34,29.78,8.34s14.9-8.34,29.79-8.34S74.46,20.4,89.35,20.4s14.9-8.34,29.79-8.34S134,20.4,148.93,20.4s14.89-8.34,29.78-8.34S193.6,20.4,208.5,20.4s14.89-8.34,29.78-8.34,14.9,8.34,29.79,8.34,14.9-8.34,29.79-8.34,14.89,8.34,29.78,8.34,14.9-8.34,29.79-8.34,14.89,8.34,29.79,8.34,14.89-8.34,29.79-8.34,14.89,8.34,29.78,8.34,14.89-8.34,29.79-8.34,14.89,8.34,29.79,8.34,14.89-8.34,29.78-8.34,14.9,8.34,29.79,8.34,14.89-8.34,29.79-8.34,14.89,8.34,29.79,8.34,14.89-8.34,29.78-8.34,14.9,8.34,29.79,8.34,14.89-8.34,29.79-8.34,14.89,8.34,29.79,8.34,14.89-8.34,29.78-8.34,14.9,8.34,29.79,8.34,14.9-8.34,29.79-8.34,14.89,8.34,29.79,8.34,14.89-8.34,29.79-8.34S908.5,20.4,923.4,20.4s14.89-8.34,29.78-8.34S968.08,20.4,983,20.4s14.9-8.34,29.79-8.34,14.9,8.34,29.79,8.34,14.9-8.34,29.79-8.34,14.89,8.34,29.79,8.34,14.89-8.34,29.79-8.34,14.89,8.34,29.79,8.34,14.89-8.34,29.79-8.34,14.89,8.34,29.79,8.34,14.89-8.34,29.79-8.34,14.89,8.34,29.79,8.34,14.89-8.34,29.79-8.34,14.89,8.34,29.79,8.34,14.89-8.34,29.79-8.34,14.89,8.34,29.79,8.34,14.89-8.34,29.79-8.34,14.89,8.34,29.79,8.34,14.89-8.34,29.79-8.34,14.89,8.34,29.79,8.34,14.89-8.34,29.79-8.34,14.9,8.34,29.79,8.34,14.9-8.34,29.79-8.34,14.9,8.34,29.79,8.34,14.9-8.34,29.79-8.34,14.9,8.34,29.79,8.34,14.9-8.34,29.8-8.34,14.89,8.34,29.79,8.34,14.89-8.34,29.79-8.34,14.89,8.34,29.79,8.34,14.89-8.34,29.78-8.34,14.9,8.34,29.79,8.34,14.9-8.34,29.79-8.34,14.9,8.34,29.79,8.34,14.9-8.34,29.79-8.34,14.9,8.34,29.79,8.34,14.9-8.34,29.79-8.34,14.9,8.34,29.79,8.34,14.9-8.34,29.79-8.34,14.9,8.34,29.79,8.34,14.9-8.34,29.8-8.34,14.89,8.34,29.79,8.34,14.9-8.34,29.79-8.34,14.9,8.34,29.8,8.34,14.89-8.34,29.79-8.34,14.89,8.34,29.79,8.34,14.9-8.34,29.8-8.34,14.89,8.34,29.79,8.34,14.89-8.34,29.79-8.34,14.89,8.34,29.79,8.34,14.9-8.34,29.8-8.34,14.89,8.34,29.79,8.34,14.9-8.34,29.8-8.34,14.9,8.34,29.8,8.34,14.9-8.34,29.8-8.34,14.9,8.34,29.8,8.34"/><path class="cls-1" d="M0,23.13c14.89,0,14.89,8.34,29.78,8.34s14.9-8.34,29.79-8.34,14.89,8.34,29.78,8.34,14.9-8.34,29.79-8.34,14.9,8.34,29.79,8.34,14.89-8.34,29.78-8.34,14.89,8.34,29.79,8.34,14.89-8.34,29.78-8.34,14.9,8.34,29.79,8.34,14.9-8.34,29.79-8.34,14.89,8.34,29.78,8.34,14.9-8.34,29.79-8.34,14.89,8.34,29.79,8.34,14.89-8.34,29.79-8.34,14.89,8.34,29.78,8.34,14.89-8.34,29.79-8.34,14.89,8.34,29.79,8.34,14.89-8.34,29.78-8.34,14.9,8.34,29.79,8.34,14.89-8.34,29.79-8.34,14.89,8.34,29.79,8.34,14.89-8.34,29.78-8.34,14.9,8.34,29.79,8.34,14.89-8.34,29.79-8.34,14.89,8.34,29.79,8.34,14.89-8.34,29.78-8.34,14.9,8.34,29.79,8.34,14.9-8.34,29.79-8.34,14.89,8.34,29.79,8.34,14.89-8.34,29.79-8.34,14.89,8.34,29.79,8.34,14.89-8.34,29.78-8.34,14.9,8.34,29.79,8.34,14.9-8.34,29.79-8.34,14.9,8.34,29.79,8.34,14.9-8.34,29.79-8.34,14.89,8.34,29.79,8.34,14.89-8.34,29.79-8.34,14.89,8.34,29.79,8.34,14.89-8.34,29.79-8.34,14.89,8.34,29.79,8.34,14.89-8.34,29.79-8.34,14.89,8.34,29.79,8.34,14.89-8.34,29.79-8.34,14.89,8.34,29.79,8.34,14.89-8.34,29.79-8.34,14.89,8.34,29.79,8.34,14.89-8.34,29.79-8.34,14.89,8.34,29.79,8.34,14.89-8.34,29.79-8.34,14.89,8.34,29.79,8.34,14.89-8.34,29.79-8.34,14.9,8.34,29.79,8.34,14.9-8.34,29.79-8.34,14.9,8.34,29.79,8.34,14.9-8.34,29.79-8.34,14.9,8.34,29.79,8.34,14.9-8.34,29.8-8.34,14.89,8.34,29.79,8.34,14.89-8.34,29.79-8.34,14.89,8.34,29.79,8.34,14.89-8.34,29.78-8.34,14.9,8.34,29.79,8.34,14.9-8.34,29.79-8.34,14.9,8.34,29.79,8.34,14.9-8.34,29.79-8.34,14.9,8.34,29.79,8.34,14.9-8.34,29.79-8.34,14.9,8.34,29.79,8.34,14.9-8.34,29.79-8.34,14.9,8.34,29.79,8.34,14.9-8.34,29.8-8.34,14.89,8.34,29.79,8.34,14.9-8.34,29.79-8.34,14.9,8.34,29.8,8.34,14.89-8.34,29.79-8.34,14.89,8.34,29.79,8.34,14.9-8.34,29.8-8.34,14.89,8.34,29.79,8.34,14.89-8.34,29.79-8.34,14.89,8.34,29.79,8.34,14.9-8.34,29.8-8.34,14.89,8.34,29.79,8.34,14.9-8.34,29.8-8.34,14.9,8.34,29.8,8.34,14.9-8.34,29.8-8.34,14.9,8.34,29.8,8.34"/><path class="cls-1" d="M0,34.19c14.89,0,14.89,8.34,29.78,8.34s14.9-8.34,29.79-8.34,14.89,8.34,29.78,8.34,14.9-8.34,29.79-8.34,14.9,8.34,29.79,8.34,14.89-8.34,29.78-8.34,14.89,8.34,29.79,8.34,14.89-8.34,29.78-8.34,14.9,8.34,29.79,8.34,14.9-8.34,29.79-8.34,14.89,8.34,29.78,8.34,14.9-8.34,29.79-8.34,14.89,8.34,29.79,8.34,14.89-8.34,29.79-8.34,14.89,8.34,29.78,8.34,14.89-8.34,29.79-8.34,14.89,8.34,29.79,8.34,14.89-8.34,29.78-8.34,14.9,8.34,29.79,8.34,14.89-8.34,29.79-8.34,14.89,8.34,29.79,8.34,14.89-8.34,29.78-8.34,14.9,8.34,29.79,8.34,14.89-8.34,29.79-8.34,14.89,8.34,29.79,8.34,14.89-8.34,29.78-8.34,14.9,8.34,29.79,8.34,14.9-8.34,29.79-8.34,14.89,8.34,29.79,8.34,14.89-8.34,29.79-8.34,14.89,8.34,29.79,8.34,14.89-8.34,29.78-8.34,14.9,8.34,29.79,8.34,14.9-8.34,29.79-8.34,14.9,8.34,29.79,8.34,14.9-8.34,29.79-8.34,14.89,8.34,29.79,8.34,14.89-8.34,29.79-8.34,14.89,8.34,29.79,8.34,14.89-8.34,29.79-8.34,14.89,8.34,29.79,8.34,14.89-8.34,29.79-8.34,14.89,8.34,29.79,8.34,14.89-8.34,29.79-8.34,14.89,8.34,29.79,8.34,14.89-8.34,29.79-8.34,14.89,8.34,29.79,8.34,14.89-8.34,29.79-8.34,14.89,8.34,29.79,8.34,14.89-8.34,29.79-8.34,14.89,8.34,29.79,8.34,14.89-8.34,29.79-8.34,14.9,8.34,29.79,8.34,14.9-8.34,29.79-8.34,14.9,8.34,29.79,8.34,14.9-8.34,29.79-8.34,14.9,8.34,29.79,8.34,14.9-8.34,29.8-8.34,14.89,8.34,29.79,8.34,14.89-8.34,29.79-8.34,14.89,8.34,29.79,8.34,14.89-8.34,29.78-8.34,14.9,8.34,29.79,8.34,14.9-8.34,29.79-8.34,14.9,8.34,29.79,8.34,14.9-8.34,29.79-8.34,14.9,8.34,29.79,8.34,14.9-8.34,29.79-8.34,14.9,8.34,29.79,8.34,14.9-8.34,29.79-8.34,14.9,8.34,29.79,8.34,14.9-8.34,29.8-8.34,14.89,8.34,29.79,8.34,14.9-8.34,29.79-8.34,14.9,8.34,29.8,8.34,14.89-8.34,29.79-8.34,14.89,8.34,29.79,8.34,14.9-8.34,29.8-8.34,14.89,8.34,29.79,8.34,14.89-8.34,29.79-8.34,14.89,8.34,29.79,8.34,14.9-8.34,29.8-8.34,14.89,8.34,29.79,8.34,14.9-8.34,29.8-8.34,14.9,8.34,29.8,8.34,14.9-8.34,29.8-8.34,14.9,8.34,29.8,8.34"/><path class="cls-1" d="M0,45.25c14.89,0,14.89,8.34,29.78,8.34s14.9-8.34,29.79-8.34,14.89,8.34,29.78,8.34,14.9-8.34,29.79-8.34,14.9,8.34,29.79,8.34,14.89-8.34,29.78-8.34,14.89,8.34,29.79,8.34,14.89-8.34,29.78-8.34,14.9,8.34,29.79,8.34,14.9-8.34,29.79-8.34,14.89,8.34,29.78,8.34,14.9-8.34,29.79-8.34,14.89,8.34,29.79,8.34,14.89-8.34,29.79-8.34,14.89,8.34,29.78,8.34,14.89-8.34,29.79-8.34,14.89,8.34,29.79,8.34,14.89-8.34,29.78-8.34,14.9,8.34,29.79,8.34,14.89-8.34,29.79-8.34,14.89,8.34,29.79,8.34,14.89-8.34,29.78-8.34,14.9,8.34,29.79,8.34,14.89-8.34,29.79-8.34,14.89,8.34,29.79,8.34,14.89-8.34,29.78-8.34,14.9,8.34,29.79,8.34,14.9-8.34,29.79-8.34,14.89,8.34,29.79,8.34,14.89-8.34,29.79-8.34,14.89,8.34,29.79,8.34,14.89-8.34,29.78-8.34,14.9,8.34,29.79,8.34,14.9-8.34,29.79-8.34,14.9,8.34,29.79,8.34,14.9-8.34,29.79-8.34,14.89,8.34,29.79,8.34,14.89-8.34,29.79-8.34,14.89,8.34,29.79,8.34,14.89-8.34,29.79-8.34,14.89,8.34,29.79,8.34,14.89-8.34,29.79-8.34,14.89,8.34,29.79,8.34,14.89-8.34,29.79-8.34,14.89,8.34,29.79,8.34,14.89-8.34,29.79-8.34,14.89,8.34,29.79,8.34,14.89-8.34,29.79-8.34,14.89,8.34,29.79,8.34,14.89-8.34,29.79-8.34,14.89,8.34,29.79,8.34,14.89-8.34,29.79-8.34,14.9,8.34,29.79,8.34,14.9-8.34,29.79-8.34,14.9,8.34,29.79,8.34,14.9-8.34,29.79-8.34,14.9,8.34,29.79,8.34,14.9-8.34,29.8-8.34,14.89,8.34,29.79,8.34,14.89-8.34,29.79-8.34,14.89,8.34,29.79,8.34,14.89-8.34,29.78-8.34,14.9,8.34,29.79,8.34,14.9-8.34,29.79-8.34,14.9,8.34,29.79,8.34,14.9-8.34,29.79-8.34,14.9,8.34,29.79,8.34,14.9-8.34,29.79-8.34,14.9,8.34,29.79,8.34,14.9-8.34,29.79-8.34,14.9,8.34,29.79,8.34,14.9-8.34,29.8-8.34,14.89,8.34,29.79,8.34,14.9-8.34,29.79-8.34,14.9,8.34,29.8,8.34,14.89-8.34,29.79-8.34,14.89,8.34,29.79,8.34,14.9-8.34,29.8-8.34,14.89,8.34,29.79,8.34,14.89-8.34,29.79-8.34,14.89,8.34,29.79,8.34,14.9-8.34,29.8-8.34,14.89,8.34,29.79,8.34,14.9-8.34,29.8-8.34,14.9,8.34,29.8,8.34,14.9-8.34,29.8-8.34,14.9,8.34,29.8,8.34"/><path class="cls-1" d="M0,1C14.89,1,14.89,9.34,29.78,9.34S44.68,1,59.57,1,74.46,9.34,89.35,9.34,104.25,1,119.14,1,134,9.34,148.93,9.34,163.82,1,178.71,1,193.6,9.34,208.5,9.34,223.39,1,238.28,1s14.9,8.34,29.79,8.34S283,1,297.86,1s14.89,8.34,29.78,8.34S342.54,1,357.43,1s14.89,8.34,29.79,8.34S402.11,1,417,1s14.89,8.34,29.78,8.34S461.68,1,476.58,1s14.89,8.34,29.79,8.34S521.26,1,536.15,1s14.9,8.34,29.79,8.34S580.83,1,595.73,1s14.89,8.34,29.79,8.34S640.41,1,655.3,1s14.9,8.34,29.79,8.34S700,1,714.88,1s14.89,8.34,29.79,8.34S759.56,1,774.45,1s14.9,8.34,29.79,8.34S819.14,1,834,1s14.89,8.34,29.79,8.34S878.71,1,893.61,1,908.5,9.34,923.4,9.34,938.29,1,953.18,1,968.08,9.34,983,9.34,997.87,1,1012.76,1s14.9,8.34,29.79,8.34S1057.45,1,1072.34,1s14.89,8.34,29.79,8.34S1117,1,1131.92,1s14.89,8.34,29.79,8.34S1176.6,1,1191.5,1s14.89,8.34,29.79,8.34S1236.18,1,1251.08,1s14.89,8.34,29.79,8.34S1295.76,1,1310.66,1s14.89,8.34,29.79,8.34S1355.34,1,1370.24,1s14.89,8.34,29.79,8.34S1414.92,1,1429.82,1s14.89,8.34,29.79,8.34S1474.5,1,1489.4,1s14.89,8.34,29.79,8.34S1534.08,1,1549,1s14.9,8.34,29.79,8.34S1593.67,1,1608.56,1s14.9,8.34,29.79,8.34S1653.25,1,1668.14,1s14.9,8.34,29.79,8.34S1712.83,1,1727.73,1s14.89,8.34,29.79,8.34S1772.41,1,1787.31,1s14.89,8.34,29.79,8.34S1832,1,1846.88,1s14.9,8.34,29.79,8.34S1891.57,1,1906.46,1s14.9,8.34,29.79,8.34S1951.15,1,1966,1s14.9,8.34,29.79,8.34S2010.73,1,2025.62,1s14.9,8.34,29.79,8.34S2070.31,1,2085.2,1s14.9,8.34,29.79,8.34S2129.89,1,2144.79,1s14.89,8.34,29.79,8.34S2189.48,1,2204.37,1s14.9,8.34,29.8,8.34S2249.06,1,2264,1s14.89,8.34,29.79,8.34S2308.65,1,2323.55,1s14.89,8.34,29.79,8.34S2368.23,1,2383.13,1s14.89,8.34,29.79,8.34S2427.82,1,2442.72,1s14.89,8.34,29.79,8.34S2487.41,1,2502.31,1s14.9,8.34,29.8,8.34S2547,1,2561.91,1s14.9,8.34,29.8,8.34"/></svg>