<svg id="Layer_1" data-name="Layer 1" xmlns="http://www.w3.org/2000/svg" viewBox="0 0 1920 54.59"><defs><style>.cls-1{fill:none;stroke:#8ad9ff;stroke-miterlimit:10;stroke-width:2px;}</style></defs><title>volna-1920Artboard 2</title><path class="cls-1" d="M-6.21,20.4c14.89,0,14.89-8.34,29.78-8.34s14.9,8.34,29.79,8.34,14.9-8.34,29.79-8.34S98,20.4,112.94,20.4s14.89-8.34,29.78-8.34,14.9,8.34,29.79,8.34,14.89-8.34,29.79-8.34,14.89,8.34,29.78,8.34,14.9-8.34,29.79-8.34,14.9,8.34,29.79,8.34,14.89-8.34,29.79-8.34,14.89,8.34,29.78,8.34,14.9-8.34,29.79-8.34,14.9,8.34,29.79,8.34,14.9-8.34,29.79-8.34,14.89,8.34,29.79,8.34,14.89-8.34,29.79-8.34S515.07,20.4,530,20.4s14.9-8.34,29.79-8.34,14.9,8.34,29.79,8.34,14.89-8.34,29.79-8.34,14.89,8.34,29.79,8.34,14.89-8.34,29.79-8.34S693.8,20.4,708.7,20.4s14.89-8.34,29.78-8.34,14.9,8.34,29.79,8.34,14.9-8.34,29.79-8.34S813,20.4,827.85,20.4s14.9-8.34,29.79-8.34,14.9,8.34,29.79,8.34,14.9-8.34,29.79-8.34S932.12,20.4,947,20.4s14.9-8.34,29.79-8.34,14.9,8.34,29.79,8.34,14.9-8.34,29.79-8.34,14.9,8.34,29.79,8.34,14.9-8.34,29.79-8.34,14.9,8.34,29.79,8.34,14.9-8.34,29.79-8.34,14.9,8.34,29.79,8.34,14.9-8.34,29.8-8.34,14.89,8.34,29.79,8.34,14.89-8.34,29.79-8.34,14.89,8.34,29.79,8.34,14.89-8.34,29.79-8.34,14.89,8.34,29.79,8.34,14.9-8.34,29.79-8.34,14.9,8.34,29.79,8.34,14.9-8.34,29.79-8.34,14.9,8.34,29.79,8.34,14.89-8.34,29.79-8.34,14.89,8.34,29.79,8.34,14.89-8.34,29.79-8.34,14.89,8.34,29.79,8.34,14.89-8.34,29.79-8.34,14.89,8.34,29.79,8.34,14.89-8.34,29.79-8.34,14.89,8.34,29.79,8.34,14.89-8.34,29.79-8.34,14.89,8.34,29.79,8.34,14.9-8.34,29.79-8.34,14.9,8.34,29.79,8.34,14.9-8.34,29.8-8.34,14.89,8.34,29.79,8.34c12.36,0,14.46-5.74,23.33-7.69"/><path class="cls-1" d="M-6.21,31.47c14.89,0,14.89-8.34,29.78-8.34s14.9,8.34,29.79,8.34,14.9-8.34,29.79-8.34S98,31.47,112.94,31.47s14.89-8.34,29.78-8.34,14.9,8.34,29.79,8.34,14.89-8.34,29.79-8.34,14.89,8.34,29.78,8.34,14.9-8.34,29.79-8.34,14.9,8.34,29.79,8.34,14.89-8.34,29.79-8.34,14.89,8.34,29.78,8.34,14.9-8.34,29.79-8.34,14.9,8.34,29.79,8.34,14.9-8.34,29.79-8.34,14.89,8.34,29.79,8.34,14.89-8.34,29.79-8.34,14.89,8.34,29.78,8.34,14.9-8.34,29.79-8.34,14.9,8.34,29.79,8.34,14.89-8.34,29.79-8.34,14.89,8.34,29.79,8.34,14.89-8.34,29.79-8.34,14.89,8.34,29.79,8.34,14.89-8.34,29.78-8.34,14.9,8.34,29.79,8.34,14.9-8.34,29.79-8.34,14.9,8.34,29.79,8.34,14.9-8.34,29.79-8.34,14.9,8.34,29.79,8.34,14.9-8.34,29.79-8.34,14.9,8.34,29.79,8.34,14.9-8.34,29.79-8.34,14.9,8.34,29.79,8.34,14.9-8.34,29.79-8.34,14.9,8.34,29.79,8.34,14.9-8.34,29.79-8.34,14.9,8.34,29.79,8.34,14.9-8.34,29.79-8.34,14.9,8.34,29.79,8.34,14.9-8.34,29.8-8.34,14.89,8.34,29.79,8.34,14.89-8.34,29.79-8.34,14.89,8.34,29.79,8.34,14.89-8.34,29.79-8.34,14.89,8.34,29.79,8.34,14.9-8.34,29.79-8.34,14.9,8.34,29.79,8.34,14.9-8.34,29.79-8.34,14.9,8.34,29.79,8.34,14.89-8.34,29.79-8.34,14.89,8.34,29.79,8.34,14.89-8.34,29.79-8.34,14.89,8.34,29.79,8.34,14.89-8.34,29.79-8.34,14.89,8.34,29.79,8.34,14.89-8.34,29.79-8.34,14.89,8.34,29.79,8.34,14.89-8.34,29.79-8.34,14.89,8.34,29.79,8.34,14.9-8.34,29.79-8.34,14.9,8.34,29.79,8.34,14.9-8.34,29.8-8.34,14.89,8.34,29.79,8.34c12.36,0,14.46-5.75,23.33-7.7"/><path class="cls-1" d="M-6.21,42.53c14.89,0,14.89-8.34,29.78-8.34s14.9,8.34,29.79,8.34,14.9-8.34,29.79-8.34S98,42.53,112.94,42.53s14.89-8.34,29.78-8.34,14.9,8.34,29.79,8.34,14.89-8.34,29.79-8.34,14.89,8.34,29.78,8.34,14.9-8.34,29.79-8.34,14.9,8.34,29.79,8.34,14.89-8.34,29.79-8.34,14.89,8.34,29.78,8.34,14.9-8.34,29.79-8.34,14.9,8.34,29.79,8.34,14.9-8.34,29.79-8.34,14.89,8.34,29.79,8.34,14.89-8.34,29.79-8.34,14.89,8.34,29.78,8.34,14.9-8.34,29.79-8.34,14.9,8.34,29.79,8.34,14.89-8.34,29.79-8.34,14.89,8.34,29.79,8.34,14.89-8.34,29.79-8.34,14.89,8.34,29.79,8.34,14.89-8.34,29.78-8.34,14.9,8.34,29.79,8.34,14.9-8.34,29.79-8.34,14.9,8.34,29.79,8.34,14.9-8.34,29.79-8.34,14.9,8.34,29.79,8.34,14.9-8.34,29.79-8.34,14.9,8.34,29.79,8.34,14.9-8.34,29.79-8.34,14.9,8.34,29.79,8.34,14.9-8.34,29.79-8.34,14.9,8.34,29.79,8.34,14.9-8.34,29.79-8.34,14.9,8.34,29.79,8.34,14.9-8.34,29.79-8.34,14.9,8.34,29.79,8.34,14.9-8.34,29.8-8.34,14.89,8.34,29.79,8.34,14.89-8.34,29.79-8.34,14.89,8.34,29.79,8.34,14.89-8.34,29.79-8.34,14.89,8.34,29.79,8.34,14.9-8.34,29.79-8.34,14.9,8.34,29.79,8.34,14.9-8.34,29.79-8.34,14.9,8.34,29.79,8.34,14.89-8.34,29.79-8.34,14.89,8.34,29.79,8.34,14.89-8.34,29.79-8.34,14.89,8.34,29.79,8.34,14.89-8.34,29.79-8.34,14.89,8.34,29.79,8.34,14.89-8.34,29.79-8.34,14.89,8.34,29.79,8.34,14.89-8.34,29.79-8.34,14.89,8.34,29.79,8.34,14.9-8.34,29.79-8.34,14.9,8.34,29.79,8.34,14.9-8.34,29.8-8.34,14.89,8.34,29.79,8.34c12.36,0,14.46-5.74,23.33-7.7"/><path class="cls-1" d="M-6.21,53.59c14.89,0,14.89-8.34,29.78-8.34s14.9,8.34,29.79,8.34,14.9-8.34,29.79-8.34S98,53.59,112.94,53.59s14.89-8.34,29.78-8.34,14.9,8.34,29.79,8.34,14.89-8.34,29.79-8.34,14.89,8.34,29.78,8.34,14.9-8.34,29.79-8.34,14.9,8.34,29.79,8.34,14.89-8.34,29.79-8.34,14.89,8.34,29.78,8.34,14.9-8.34,29.79-8.34,14.9,8.34,29.79,8.34,14.9-8.34,29.79-8.34,14.89,8.34,29.79,8.34,14.89-8.34,29.79-8.34,14.89,8.34,29.78,8.34,14.9-8.34,29.79-8.34,14.9,8.34,29.79,8.34,14.89-8.34,29.79-8.34,14.89,8.34,29.79,8.34,14.89-8.34,29.79-8.34,14.89,8.34,29.79,8.34,14.89-8.34,29.78-8.34,14.9,8.34,29.79,8.34,14.9-8.34,29.79-8.34,14.9,8.34,29.79,8.34,14.9-8.34,29.79-8.34,14.9,8.34,29.79,8.34,14.9-8.34,29.79-8.34,14.9,8.34,29.79,8.34,14.9-8.34,29.79-8.34,14.9,8.34,29.79,8.34,14.9-8.34,29.79-8.34,14.9,8.34,29.79,8.34,14.9-8.34,29.79-8.34,14.9,8.34,29.79,8.34,14.9-8.34,29.79-8.34,14.9,8.34,29.79,8.34,14.9-8.34,29.8-8.34,14.89,8.34,29.79,8.34,14.89-8.34,29.79-8.34,14.89,8.34,29.79,8.34,14.89-8.34,29.79-8.34,14.89,8.34,29.79,8.34,14.9-8.34,29.79-8.34,14.9,8.34,29.79,8.34,14.9-8.34,29.79-8.34,14.9,8.34,29.79,8.34,14.89-8.34,29.79-8.34,14.89,8.34,29.79,8.34,14.89-8.34,29.79-8.34,14.89,8.34,29.79,8.34,14.89-8.34,29.79-8.34,14.89,8.34,29.79,8.34,14.89-8.34,29.79-8.34,14.89,8.34,29.79,8.34,14.89-8.34,29.79-8.34,14.89,8.34,29.79,8.34,14.9-8.34,29.79-8.34,14.9,8.34,29.79,8.34,14.9-8.34,29.8-8.34,14.89,8.34,29.79,8.34c11.17,0,14-4.69,21-7"/><path class="cls-1" d="M-6.21,9.34C8.68,9.34,8.68,1,23.57,1s14.9,8.34,29.79,8.34S68.26,1,83.15,1,98,9.34,112.94,9.34,127.83,1,142.72,1s14.9,8.34,29.79,8.34S187.4,1,202.3,1s14.89,8.34,29.78,8.34S247,1,261.87,1s14.9,8.34,29.79,8.34S306.55,1,321.45,1s14.89,8.34,29.78,8.34S366.13,1,381,1s14.9,8.34,29.79,8.34S425.71,1,440.6,1s14.89,8.34,29.79,8.34S485.28,1,500.18,1,515.07,9.34,530,9.34,544.86,1,559.75,1s14.9,8.34,29.79,8.34S604.43,1,619.33,1s14.89,8.34,29.79,8.34S664,1,678.91,1,693.8,9.34,708.7,9.34,723.59,1,738.48,1s14.9,8.34,29.79,8.34S783.17,1,798.06,1,813,9.34,827.85,9.34,842.75,1,857.64,1s14.9,8.34,29.79,8.34S902.33,1,917.22,1,932.12,9.34,947,9.34,961.91,1,976.8,1s14.9,8.34,29.79,8.34S1021.49,1,1036.38,1s14.9,8.34,29.79,8.34S1081.07,1,1096,1s14.9,8.34,29.79,8.34S1140.65,1,1155.54,1s14.9,8.34,29.79,8.34S1200.23,1,1215.13,1s14.89,8.34,29.79,8.34S1259.81,1,1274.71,1s14.89,8.34,29.79,8.34S1319.39,1,1334.29,1s14.89,8.34,29.79,8.34S1379,1,1393.87,1s14.9,8.34,29.79,8.34S1438.56,1,1453.45,1s14.9,8.34,29.79,8.34S1498.13,1,1513,1s14.89,8.34,29.79,8.34S1557.71,1,1572.61,1s14.89,8.34,29.79,8.34S1617.29,1,1632.19,1s14.89,8.34,29.79,8.34S1676.87,1,1691.77,1s14.89,8.34,29.79,8.34S1736.45,1,1751.35,1s14.89,8.34,29.79,8.34S1796,1,1810.93,1s14.9,8.34,29.79,8.34S1855.62,1,1870.52,1s14.89,8.34,29.79,8.34c12.36,0,14.46-5.74,23.33-7.7"/></svg>