<svg id="Layer_1" data-name="Layer 1" xmlns="http://www.w3.org/2000/svg" viewBox="0 0 1920 54.59">
	<defs>
		<style>.cls-1{fill:none;stroke:#fff;stroke-miterlimit:10;stroke-width:4px;}</style>
	</defs>
	<path class="cls-1" d="M-6.21,20.4c14.89,0,14.89-8.34,29.78-8.34s14.9,8.34,29.79,8.34,14.9-8.34,29.79-8.34S98,20.4,112.94,20.4s14.89-8.34,29.78-8.34,14.9,8.34,29.79,8.34,14.89-8.34,29.79-8.34,14.89,8.34,29.78,8.34,14.9-8.34,29.79-8.34,14.9,8.34,29.79,8.34,14.89-8.34,29.79-8.34,14.89,8.34,29.78,8.34,14.9-8.34,29.79-8.34,14.9,8.34,29.79,8.34,14.9-8.34,29.79-8.34,14.89,8.34,29.79,8.34,14.89-8.34,29.79-8.34S515.07,20.4,530,20.4s14.9-8.34,29.79-8.34,14.9,8.34,29.79,8.34,14.89-8.34,29.79-8.34,14.89,8.34,29.79,8.34,14.89-8.34,29.79-8.34S693.8,20.4,708.7,20.4s14.89-8.34,29.78-8.34,14.9,8.34,29.79,8.34,14.9-8.34,29.79-8.34S813,20.4,827.85,20.4s14.9-8.34,29.79-8.34,14.9,8.34,29.79,8.34,14.9-8.34,29.79-8.34S932.12,20.4,947,20.4s14.9-8.34,29.79-8.34,14.9,8.34,29.79,8.34,14.9-8.34,29.79-8.34,14.9,8.34,29.79,8.34,14.9-8.34,29.79-8.34,14.9,8.34,29.79,8.34,14.9-8.34,29.79-8.34,14.9,8.34,29.79,8.34,14.9-8.34,29.8-8.34,14.89,8.34,29.79,8.34,14.89-8.34,29.79-8.34,14.89,8.34,29.79,8.34,14.89-8.34,29.79-8.34,14.89,8.34,29.79,8.34,14.9-8.34,29.79-8.34,14.9,8.34,29.79,8.34,14.9-8.34,29.79-8.34,14.9,8.34,29.79,8.34,14.89-8.34,29.79-8.34,14.89,8.34,29.79,8.34,14.89-8.34,29.79-8.34,14.89,8.34,29.79,8.34,14.89-8.34,29.79-8.34,14.89,8.34,29.79,8.34,14.89-8.34,29.79-8.34,14.89,8.34,29.79,8.34,14.89-8.34,29.79-8.34,14.89,8.34,29.79,8.34,14.9-8.34,29.79-8.34,14.9,8.34,29.79,8.34,14.9-8.34,29.8-8.34,14.89,8.34,29.79,8.34c12.36,0,14.46-5.74,23.33-7.69"/>
</svg>